%
M48
M72
T01C0.01378
T02C0.03346
T03C0.09843
%
T01
X38702Y20985
X45001Y28072
X52481Y28859
X64292Y32796
X72166Y28859
X87914Y32796
X99725Y28859
X107599Y32796
X113505Y35158
X119410Y32796
X127284Y36733
X131221Y36733
X143032Y36733
X136733Y24922
X146969Y20985
X138087Y15483
X135158Y17048
X123347Y13111
X119410Y17048
X119410Y24922
X91851Y40670
X103662Y48544
X111536Y52481
X115473Y52481
X119410Y52481
X127284Y48544
X139416Y52481
X119410Y60355
X103662Y60355
X103662Y56418
X83977Y60355
X76103Y60355
X76103Y64292
X68229Y60355
X60355Y48544
X52481Y48544
X44607Y48544
X40670Y48544
X28859Y44607
X40670Y56418
X44607Y60355
X45817Y66391
X42639Y67048
X42639Y70985
X39422Y72166
X44607Y76103
X40670Y80040
X32796Y74595
X32737Y71417
X32796Y68229
X32796Y64292
X17048Y64292
X17048Y80040
X48544Y95788
X36733Y99725
X32796Y99725
X24922Y103662
X40670Y111536
X44607Y111536
X52481Y119410
X50513Y125316
X38308Y123741
X68229Y131221
X76103Y127284
X80040Y127284
X83977Y127284
X91851Y135158
X111536Y123347
X119410Y123347
X115473Y131221
X119410Y135158
X146969Y123347
X150906Y123347
X146969Y119410
X166654Y103662
X150906Y95788
X135158Y83977
X146969Y76103
X146969Y72166
X119410Y83977
X103662Y83977
X99725Y95788
X91851Y95788
X83977Y103662
X87914Y111536
X99725Y107599
X103662Y107599
X83977Y87914
X83977Y83977
X64292Y80040
X55872Y83977
X59050Y87914
X56418Y72166
X52481Y40670
X52481Y36733
X30237Y28859
X87914Y20985
X162717Y13111
X171043Y10749
X186791Y13111
X178465Y20985
X68229Y115473
X186339Y123347
T02
X25709Y79646
X25709Y64686
T03
X18229Y14292
X18229Y31615
X18229Y112717
X18229Y130040
X232402Y130040
X232402Y112717
X232402Y31615
X232402Y14292
M30
