G75*
%MOIN*%
%OFA0B0*%
%FSLAX25Y25*%
%IPPOS*%
%LPD*%
%AMOC8*
5,1,8,0,0,1.08239X$1,22.5*
%
%ADD10R,0.03943X0.03156*%
%ADD11R,0.03156X0.03943*%
%ADD12R,0.05912X0.04337*%
%ADD13R,0.06693X0.07874*%
%ADD14R,0.05912X0.01975*%
%ADD15C,0.03746*%
%ADD16R,0.01581X0.02762*%
%ADD17R,0.02762X0.01581*%
%ADD18R,0.11030X0.11030*%
%ADD19R,0.02565X0.05124*%
%ADD20R,0.05124X0.08274*%
%ADD21R,0.05124X0.03156*%
%ADD22R,0.03550X0.03550*%
%ADD23R,0.03746X0.01502*%
%ADD24R,0.08471X0.12408*%
%ADD25R,0.01502X0.03746*%
%ADD26R,0.03550X0.01384*%
%ADD27R,0.01384X0.03550*%
%ADD28R,0.05124X0.02762*%
%ADD29R,0.06699X0.01778*%
%ADD30R,0.05400X0.10400*%
%ADD31R,0.04337X0.04337*%
%ADD32C,0.14243*%
%ADD33R,0.04731X0.04337*%
%ADD34R,0.04337X0.04731*%
%ADD35R,0.10400X0.05400*%
D10*
X0052481Y0014489D03*
X0052481Y0019607D03*
X0060355Y0019607D03*
X0060355Y0014489D03*
X0068229Y0014489D03*
X0068229Y0019607D03*
X0091851Y0045985D03*
X0091851Y0051103D03*
X0099725Y0051103D03*
X0099725Y0045985D03*
X0072166Y0073544D03*
X0072166Y0078662D03*
X0064292Y0093229D03*
X0056418Y0093229D03*
X0056418Y0098347D03*
X0064292Y0098347D03*
X0064292Y0124725D03*
X0064292Y0129843D03*
X0107599Y0118032D03*
X0107599Y0112914D03*
X0115473Y0112914D03*
X0115473Y0118032D03*
X0123347Y0118032D03*
X0123347Y0112914D03*
X0131221Y0112914D03*
X0131221Y0118032D03*
D11*
X0094410Y0099725D03*
X0089292Y0099725D03*
X0078662Y0115473D03*
X0073544Y0115473D03*
X0051103Y0056418D03*
X0045985Y0056418D03*
X0035355Y0048544D03*
X0030237Y0048544D03*
X0030237Y0040670D03*
X0035355Y0040670D03*
X0035355Y0032796D03*
X0030237Y0032796D03*
X0077481Y0028859D03*
X0082599Y0028859D03*
X0082599Y0020985D03*
X0077481Y0020985D03*
X0077481Y0036733D03*
X0082599Y0036733D03*
X0082599Y0044607D03*
X0077481Y0044607D03*
X0077481Y0052481D03*
X0082599Y0052481D03*
X0191654Y0020985D03*
X0196772Y0020985D03*
X0196772Y0123347D03*
X0191654Y0123347D03*
D12*
X0080434Y0103662D03*
X0071772Y0099922D03*
X0071772Y0107402D03*
X0071772Y0091654D03*
X0080434Y0087914D03*
X0071772Y0084174D03*
D13*
X0017048Y0086670D03*
X0017048Y0057662D03*
D14*
X0027678Y0067048D03*
X0027678Y0069607D03*
X0027678Y0072166D03*
X0027678Y0074725D03*
X0027678Y0077284D03*
D15*
X0025709Y0079646D03*
X0025709Y0064686D03*
D16*
X0051497Y0064784D03*
X0053465Y0064784D03*
X0055434Y0064784D03*
X0057402Y0064784D03*
X0059371Y0064784D03*
X0061339Y0064784D03*
X0061339Y0079548D03*
X0059371Y0079548D03*
X0057402Y0079548D03*
X0055434Y0079548D03*
X0053465Y0079548D03*
X0051497Y0079548D03*
D17*
X0049036Y0077087D03*
X0049036Y0075119D03*
X0049036Y0073150D03*
X0049036Y0071182D03*
X0049036Y0069213D03*
X0049036Y0067245D03*
X0063800Y0067245D03*
X0063800Y0069213D03*
X0063800Y0071182D03*
X0063800Y0073150D03*
X0063800Y0075119D03*
X0063800Y0077087D03*
D18*
X0056418Y0072166D03*
D19*
X0088111Y0106418D03*
X0091851Y0106418D03*
X0095591Y0106418D03*
X0095591Y0116655D03*
X0088111Y0116655D03*
X0083780Y0122166D03*
X0076300Y0122166D03*
X0076300Y0132402D03*
X0080040Y0132402D03*
X0083780Y0132402D03*
D20*
X0113505Y0101694D03*
X0121379Y0101694D03*
X0129253Y0101694D03*
X0137127Y0101694D03*
X0145001Y0101694D03*
X0152875Y0101694D03*
X0160749Y0101694D03*
X0168623Y0101694D03*
X0168623Y0042639D03*
X0160749Y0042639D03*
X0152875Y0042639D03*
X0145001Y0042639D03*
X0137127Y0042639D03*
X0129253Y0042639D03*
X0121379Y0042639D03*
X0113505Y0042639D03*
D21*
X0103072Y0036733D03*
X0088505Y0036733D03*
X0047954Y0103662D03*
X0033387Y0103662D03*
D22*
X0088898Y0083977D03*
X0094804Y0083977D03*
X0072166Y0067245D03*
X0072166Y0061339D03*
X0063308Y0056418D03*
X0057402Y0056418D03*
X0088898Y0060355D03*
X0094804Y0060355D03*
X0191261Y0013111D03*
X0197166Y0013111D03*
X0197166Y0131221D03*
X0191261Y0131221D03*
D23*
X0059469Y0044607D03*
X0059469Y0042639D03*
X0059469Y0040670D03*
X0059469Y0038702D03*
X0059469Y0036733D03*
X0059469Y0034765D03*
X0059469Y0032796D03*
X0059469Y0030828D03*
X0045690Y0030828D03*
X0045690Y0032796D03*
X0045690Y0034765D03*
X0045690Y0036733D03*
X0045690Y0038702D03*
X0045690Y0040670D03*
X0045690Y0042639D03*
X0045690Y0044607D03*
D24*
X0052481Y0037717D03*
D25*
X0049528Y0028957D03*
X0055434Y0028957D03*
X0055434Y0046477D03*
X0049528Y0046477D03*
D26*
X0141261Y0024922D03*
X0141261Y0022954D03*
X0141261Y0020985D03*
X0141261Y0019017D03*
X0141261Y0017048D03*
X0152678Y0017048D03*
X0152678Y0019017D03*
X0152678Y0020985D03*
X0152678Y0022954D03*
X0152678Y0024922D03*
D27*
X0148938Y0026694D03*
X0146969Y0026694D03*
X0145001Y0026694D03*
X0145001Y0015276D03*
X0146969Y0015276D03*
X0148938Y0015276D03*
D28*
X0152111Y0111733D03*
X0152111Y0115473D03*
X0152111Y0119213D03*
X0141828Y0119213D03*
X0141828Y0111733D03*
D29*
X0130434Y0029942D03*
X0130434Y0027383D03*
X0130434Y0024824D03*
X0130434Y0022265D03*
X0130434Y0019706D03*
X0130434Y0017146D03*
X0130434Y0014587D03*
X0130434Y0012028D03*
X0108387Y0012028D03*
X0108387Y0014587D03*
X0108387Y0017146D03*
X0108387Y0019706D03*
X0108387Y0022265D03*
X0108387Y0024824D03*
X0108387Y0027383D03*
X0108387Y0029942D03*
D30*
X0166654Y0013111D03*
X0174528Y0013111D03*
X0182402Y0013111D03*
X0044607Y0020985D03*
X0032796Y0020985D03*
X0032796Y0123347D03*
X0044607Y0123347D03*
X0056418Y0127284D03*
X0099725Y0131221D03*
X0158780Y0131221D03*
D31*
X0095788Y0075316D03*
X0095788Y0069017D03*
X0080040Y0069017D03*
X0080040Y0075316D03*
D32*
X0018229Y0014292D03*
X0018229Y0031615D03*
X0018229Y0112717D03*
X0018229Y0130040D03*
X0232402Y0130040D03*
X0232402Y0112717D03*
X0232402Y0031615D03*
X0232402Y0014292D03*
D33*
X0083387Y0013111D03*
X0076694Y0013111D03*
X0059765Y0111536D03*
X0053072Y0111536D03*
D34*
X0036733Y0063702D03*
X0036733Y0057009D03*
D35*
X0020985Y0048544D03*
X0020985Y0095788D03*
M02*
