G75*
%MOIN*%
%OFA0B0*%
%FSLAX25Y25*%
%IPPOS*%
%LPD*%
%AMOC8*
5,1,8,0,0,1.08239X$1,22.5*
%
%ADD10C,0.13843*%
%ADD11C,0.02578*%
%ADD12C,0.00800*%
%ADD13C,0.00600*%
%ADD14C,0.01600*%
D10*
X0010896Y0010355D03*
X0010896Y0126103D03*
D11*
X0025463Y0119410D03*
X0033337Y0119410D03*
X0041211Y0119410D03*
X0029400Y0107599D03*
X0025463Y0111536D03*
X0017589Y0111536D03*
X0009715Y0111536D03*
X0005778Y0091851D03*
X0017589Y0091851D03*
X0017589Y0087914D03*
X0033337Y0079765D03*
X0041576Y0071379D03*
X0044754Y0071379D03*
X0045148Y0080040D03*
X0056959Y0080040D03*
X0056959Y0076103D03*
X0072707Y0076103D03*
X0072707Y0080040D03*
X0072707Y0083977D03*
X0072707Y0087914D03*
X0072707Y0091851D03*
X0072707Y0095788D03*
X0064833Y0099725D03*
X0056959Y0103662D03*
X0049085Y0099725D03*
X0041211Y0103554D03*
X0041211Y0095788D03*
X0056959Y0091851D03*
X0068770Y0111536D03*
X0056959Y0115473D03*
X0068770Y0131221D03*
X0084518Y0119410D03*
X0104203Y0107599D03*
X0096008Y0103662D03*
X0092392Y0099725D03*
X0084518Y0103662D03*
X0092392Y0091851D03*
X0104203Y0083977D03*
X0116014Y0091851D03*
X0124208Y0099725D03*
X0124208Y0103662D03*
X0131762Y0099725D03*
X0131762Y0115473D03*
X0135699Y0123347D03*
X0127825Y0123347D03*
X0112077Y0123347D03*
X0127825Y0080040D03*
X0135699Y0076103D03*
X0116014Y0060355D03*
X0112077Y0060355D03*
X0108140Y0064292D03*
X0100266Y0064372D03*
X0104203Y0052481D03*
X0092392Y0052481D03*
X0084518Y0048544D03*
X0076644Y0044607D03*
X0064833Y0036733D03*
X0056959Y0044607D03*
X0045148Y0040670D03*
X0033337Y0040670D03*
X0033380Y0034021D03*
X0022707Y0032796D03*
X0013652Y0028859D03*
X0022904Y0017048D03*
X0037274Y0017048D03*
X0045148Y0020985D03*
X0045148Y0028859D03*
X0055698Y0022954D03*
X0064833Y0020985D03*
X0080581Y0020985D03*
X0088455Y0017048D03*
X0097960Y0023291D03*
X0104203Y0020985D03*
X0108140Y0009174D03*
X0121919Y0005237D03*
X0139636Y0017048D03*
X0127825Y0024922D03*
X0151447Y0032796D03*
X0147510Y0056418D03*
X0100266Y0036733D03*
X0092392Y0040670D03*
X0084518Y0032796D03*
X0088455Y0024922D03*
X0060896Y0056418D03*
X0060896Y0060355D03*
X0080581Y0064292D03*
X0084518Y0064292D03*
X0041211Y0060355D03*
X0033337Y0068229D03*
X0029400Y0056418D03*
X0013652Y0064292D03*
D12*
X0029400Y0056418D02*
X0060896Y0056418D01*
X0072707Y0060355D02*
X0084518Y0048544D01*
X0084518Y0044607D02*
X0084518Y0032796D01*
X0084518Y0024922D01*
X0100266Y0009174D01*
X0108140Y0009174D01*
X0100266Y0005237D02*
X0121919Y0005237D01*
X0139636Y0017048D02*
X0139636Y0028859D01*
X0135699Y0032796D01*
X0104203Y0032796D01*
X0100266Y0036733D01*
X0116014Y0052481D01*
X0116014Y0060355D01*
X0108140Y0064292D02*
X0108140Y0047844D01*
X0097977Y0037681D01*
X0097977Y0023420D01*
X0097904Y0023347D01*
X0097960Y0023291D01*
X0088455Y0024922D02*
X0088455Y0044607D01*
X0100266Y0056418D01*
X0100266Y0064372D01*
X0092392Y0052481D02*
X0084518Y0044607D01*
X0072707Y0060355D02*
X0072707Y0072166D01*
X0064833Y0080040D01*
X0064833Y0099725D01*
X0072707Y0095788D02*
X0123888Y0095788D01*
X0127825Y0099725D01*
X0131762Y0099725D01*
X0127825Y0099725D02*
X0127825Y0123347D01*
X0135699Y0123347D02*
X0135699Y0091851D01*
X0131762Y0087914D01*
X0072707Y0087914D01*
X0072707Y0083977D02*
X0104203Y0083977D01*
X0092392Y0091851D02*
X0072707Y0091851D01*
X0072707Y0080040D02*
X0127825Y0080040D01*
X0135699Y0076103D02*
X0072707Y0076103D01*
X0056959Y0076103D02*
X0049478Y0076103D01*
X0044754Y0071379D01*
X0042465Y0072268D02*
X0042465Y0072327D01*
X0050178Y0080040D01*
X0056959Y0080040D01*
X0045148Y0080040D02*
X0033337Y0080040D01*
X0033337Y0079765D01*
X0041576Y0071379D02*
X0042465Y0072268D01*
X0021526Y0091851D02*
X0021526Y0045876D01*
X0033380Y0034021D01*
X0055698Y0022954D02*
X0057667Y0020985D01*
X0064833Y0020985D01*
X0088455Y0017048D02*
X0100266Y0005237D01*
X0021526Y0091851D02*
X0029400Y0099725D01*
X0029400Y0107599D01*
X0013652Y0107599D01*
X0009715Y0111536D01*
X0025463Y0119302D02*
X0025463Y0119410D01*
X0025463Y0119302D02*
X0041211Y0103554D01*
X0017589Y0091851D02*
X0005778Y0091851D01*
X0068770Y0111536D02*
X0108140Y0111536D01*
X0112077Y0115473D01*
X0112077Y0123347D01*
X0124208Y0103662D02*
X0096008Y0103662D01*
X0096329Y0103662D01*
X0092392Y0099725D02*
X0124208Y0099725D01*
D13*
X0015014Y0003222D02*
X0013101Y0002600D01*
X0169832Y0002600D01*
X0169832Y0067929D01*
X0143449Y0067929D01*
X0143273Y0068105D01*
X0143273Y0131346D01*
X0143449Y0131521D01*
X0169832Y0131521D01*
X0169832Y0133858D01*
X0013101Y0133858D01*
X0015014Y0133237D01*
X0017560Y0130945D01*
X0018953Y0127816D01*
X0018953Y0124391D01*
X0017560Y0121262D01*
X0015014Y0118970D01*
X0011757Y0117911D01*
X0008350Y0118269D01*
X0005384Y0119982D01*
X0003371Y0122753D01*
X0003141Y0123836D01*
X0003141Y0012622D01*
X0003371Y0013705D01*
X0005384Y0016476D01*
X0008350Y0018189D01*
X0011757Y0018547D01*
X0015014Y0017489D01*
X0017560Y0015197D01*
X0018953Y0012068D01*
X0018953Y0008643D01*
X0017560Y0005514D01*
X0015014Y0003222D01*
X0014626Y0003096D02*
X0120965Y0003096D01*
X0121013Y0003048D02*
X0122826Y0003048D01*
X0124108Y0004330D01*
X0124108Y0006144D01*
X0122826Y0007426D01*
X0121013Y0007426D01*
X0120124Y0006537D01*
X0100804Y0006537D01*
X0090644Y0016698D01*
X0090644Y0016958D01*
X0098966Y0008636D01*
X0099727Y0007874D01*
X0106344Y0007874D01*
X0107233Y0006985D01*
X0109046Y0006985D01*
X0110329Y0008267D01*
X0110329Y0010081D01*
X0109046Y0011363D01*
X0107233Y0011363D01*
X0106344Y0010474D01*
X0100804Y0010474D01*
X0088545Y0022733D01*
X0089361Y0022733D01*
X0090644Y0024015D01*
X0090644Y0025829D01*
X0089755Y0026718D01*
X0089755Y0044069D01*
X0101566Y0055880D01*
X0101566Y0062576D01*
X0102455Y0063465D01*
X0102455Y0065278D01*
X0101172Y0066561D01*
X0099359Y0066561D01*
X0098077Y0065278D01*
X0098077Y0063465D01*
X0098966Y0062576D01*
X0098966Y0056957D01*
X0094581Y0052572D01*
X0094581Y0053388D01*
X0093298Y0054670D01*
X0091485Y0054670D01*
X0090203Y0053388D01*
X0090203Y0052131D01*
X0086707Y0048635D01*
X0086707Y0049451D01*
X0085424Y0050733D01*
X0084167Y0050733D01*
X0074007Y0060894D01*
X0074007Y0072705D01*
X0072797Y0073914D01*
X0073613Y0073914D01*
X0074502Y0074803D01*
X0133903Y0074803D01*
X0134792Y0073914D01*
X0136606Y0073914D01*
X0137888Y0075196D01*
X0137888Y0077010D01*
X0136606Y0078292D01*
X0134792Y0078292D01*
X0133903Y0077403D01*
X0074502Y0077403D01*
X0073834Y0078072D01*
X0074502Y0078740D01*
X0126029Y0078740D01*
X0126918Y0077851D01*
X0128731Y0077851D01*
X0130014Y0079133D01*
X0130014Y0080947D01*
X0128731Y0082229D01*
X0126918Y0082229D01*
X0126029Y0081340D01*
X0074502Y0081340D01*
X0073834Y0082009D01*
X0074502Y0082677D01*
X0102407Y0082677D01*
X0103296Y0081788D01*
X0105109Y0081788D01*
X0106392Y0083070D01*
X0106392Y0084884D01*
X0105109Y0086166D01*
X0103296Y0086166D01*
X0102407Y0085277D01*
X0074502Y0085277D01*
X0073834Y0085946D01*
X0074502Y0086614D01*
X0132300Y0086614D01*
X0136999Y0091313D01*
X0136999Y0121552D01*
X0137888Y0122441D01*
X0137888Y0124254D01*
X0136606Y0125536D01*
X0134792Y0125536D01*
X0133510Y0124254D01*
X0133510Y0122441D01*
X0134399Y0121552D01*
X0134399Y0092390D01*
X0131223Y0089214D01*
X0074502Y0089214D01*
X0073834Y0089883D01*
X0074502Y0090551D01*
X0090596Y0090551D01*
X0091485Y0089662D01*
X0093298Y0089662D01*
X0094581Y0090944D01*
X0094581Y0092758D01*
X0093298Y0094040D01*
X0091485Y0094040D01*
X0090596Y0093151D01*
X0074502Y0093151D01*
X0073834Y0093820D01*
X0074502Y0094488D01*
X0124426Y0094488D01*
X0128363Y0098425D01*
X0129966Y0098425D01*
X0130855Y0097536D01*
X0132669Y0097536D01*
X0133951Y0098818D01*
X0133951Y0100632D01*
X0132669Y0101914D01*
X0130855Y0101914D01*
X0129966Y0101025D01*
X0129125Y0101025D01*
X0129125Y0121552D01*
X0130014Y0122441D01*
X0130014Y0124254D01*
X0128731Y0125536D01*
X0126918Y0125536D01*
X0125636Y0124254D01*
X0125636Y0122441D01*
X0126525Y0121552D01*
X0126525Y0100264D01*
X0126397Y0100136D01*
X0126397Y0100632D01*
X0125335Y0101694D01*
X0126397Y0102755D01*
X0126397Y0104569D01*
X0125115Y0105851D01*
X0123302Y0105851D01*
X0122413Y0104962D01*
X0097804Y0104962D01*
X0096915Y0105851D01*
X0095102Y0105851D01*
X0093819Y0104569D01*
X0093819Y0102755D01*
X0095102Y0101473D01*
X0096915Y0101473D01*
X0097804Y0102362D01*
X0122413Y0102362D01*
X0123081Y0101694D01*
X0122413Y0101025D01*
X0094187Y0101025D01*
X0093298Y0101914D01*
X0091485Y0101914D01*
X0090203Y0100632D01*
X0090203Y0098818D01*
X0091485Y0097536D01*
X0093298Y0097536D01*
X0094187Y0098425D01*
X0122413Y0098425D01*
X0123302Y0097536D01*
X0123797Y0097536D01*
X0123349Y0097088D01*
X0074502Y0097088D01*
X0073613Y0097977D01*
X0071800Y0097977D01*
X0070518Y0096695D01*
X0070518Y0094881D01*
X0071580Y0093820D01*
X0070518Y0092758D01*
X0070518Y0090944D01*
X0071580Y0089883D01*
X0070518Y0088821D01*
X0070518Y0087007D01*
X0071580Y0085946D01*
X0070518Y0084884D01*
X0070518Y0083070D01*
X0071580Y0082009D01*
X0070518Y0080947D01*
X0070518Y0079133D01*
X0071580Y0078072D01*
X0070518Y0077010D01*
X0070518Y0076194D01*
X0066133Y0080579D01*
X0066133Y0097930D01*
X0067022Y0098818D01*
X0067022Y0100632D01*
X0065739Y0101914D01*
X0063926Y0101914D01*
X0062644Y0100632D01*
X0062644Y0098818D01*
X0063533Y0097930D01*
X0063533Y0079502D01*
X0071407Y0071628D01*
X0071407Y0059817D01*
X0082329Y0048895D01*
X0082329Y0047637D01*
X0083611Y0046355D01*
X0084427Y0046355D01*
X0083979Y0045907D01*
X0083218Y0045146D01*
X0083218Y0034592D01*
X0082329Y0033703D01*
X0082329Y0031889D01*
X0083218Y0031000D01*
X0083218Y0024384D01*
X0088364Y0019237D01*
X0087548Y0019237D01*
X0086266Y0017955D01*
X0086266Y0016141D01*
X0087548Y0014859D01*
X0088805Y0014859D01*
X0098966Y0004699D01*
X0099727Y0003937D01*
X0120124Y0003937D01*
X0121013Y0003048D01*
X0120367Y0003694D02*
X0015539Y0003694D01*
X0016204Y0004293D02*
X0099372Y0004293D01*
X0098773Y0004891D02*
X0016868Y0004891D01*
X0017533Y0005490D02*
X0098175Y0005490D01*
X0097576Y0006088D02*
X0017815Y0006088D01*
X0018082Y0006687D02*
X0096978Y0006687D01*
X0096379Y0007285D02*
X0018348Y0007285D01*
X0018615Y0007884D02*
X0095781Y0007884D01*
X0095182Y0008482D02*
X0018881Y0008482D01*
X0018953Y0009081D02*
X0094584Y0009081D01*
X0093985Y0009679D02*
X0018953Y0009679D01*
X0018953Y0010278D02*
X0093387Y0010278D01*
X0092788Y0010876D02*
X0018953Y0010876D01*
X0018953Y0011475D02*
X0092190Y0011475D01*
X0091591Y0012073D02*
X0018950Y0012073D01*
X0018684Y0012672D02*
X0090993Y0012672D01*
X0090394Y0013270D02*
X0018417Y0013270D01*
X0018151Y0013869D02*
X0089796Y0013869D01*
X0089197Y0014467D02*
X0017884Y0014467D01*
X0017618Y0015066D02*
X0021790Y0015066D01*
X0021997Y0014859D02*
X0020715Y0016141D01*
X0020715Y0017955D01*
X0021204Y0018444D01*
X0021204Y0031204D01*
X0020518Y0031889D01*
X0020518Y0033703D01*
X0021800Y0034985D01*
X0023613Y0034985D01*
X0024896Y0033703D01*
X0024896Y0031889D01*
X0024604Y0031597D01*
X0024604Y0018444D01*
X0025093Y0017955D01*
X0025093Y0016141D01*
X0023810Y0014859D01*
X0021997Y0014859D01*
X0021192Y0015664D02*
X0017040Y0015664D01*
X0016376Y0016263D02*
X0020715Y0016263D01*
X0020715Y0016861D02*
X0015711Y0016861D01*
X0015046Y0017460D02*
X0020715Y0017460D01*
X0020818Y0018058D02*
X0013261Y0018058D01*
X0008124Y0018058D02*
X0003141Y0018058D01*
X0003141Y0017460D02*
X0007087Y0017460D01*
X0006051Y0016861D02*
X0003141Y0016861D01*
X0003141Y0016263D02*
X0005229Y0016263D01*
X0004794Y0015664D02*
X0003141Y0015664D01*
X0003141Y0015066D02*
X0004359Y0015066D01*
X0003924Y0014467D02*
X0003141Y0014467D01*
X0003141Y0013869D02*
X0003489Y0013869D01*
X0003278Y0013270D02*
X0003141Y0013270D01*
X0003141Y0012672D02*
X0003151Y0012672D01*
X0003141Y0018657D02*
X0021204Y0018657D01*
X0021204Y0019255D02*
X0003141Y0019255D01*
X0003141Y0019854D02*
X0021204Y0019854D01*
X0021204Y0020452D02*
X0003141Y0020452D01*
X0003141Y0021051D02*
X0021204Y0021051D01*
X0021204Y0021649D02*
X0003141Y0021649D01*
X0003141Y0022248D02*
X0021204Y0022248D01*
X0021204Y0022846D02*
X0003141Y0022846D01*
X0003141Y0023445D02*
X0021204Y0023445D01*
X0021204Y0024043D02*
X0003141Y0024043D01*
X0003141Y0024642D02*
X0021204Y0024642D01*
X0021204Y0025240D02*
X0003141Y0025240D01*
X0003141Y0025839D02*
X0021204Y0025839D01*
X0021204Y0026437D02*
X0003141Y0026437D01*
X0003141Y0027036D02*
X0021204Y0027036D01*
X0021204Y0027634D02*
X0003141Y0027634D01*
X0003141Y0028233D02*
X0021204Y0028233D01*
X0021204Y0028832D02*
X0003141Y0028832D01*
X0003141Y0029430D02*
X0021204Y0029430D01*
X0021204Y0030029D02*
X0003141Y0030029D01*
X0003141Y0030627D02*
X0021204Y0030627D01*
X0021182Y0031226D02*
X0003141Y0031226D01*
X0003141Y0031824D02*
X0020583Y0031824D01*
X0020518Y0032423D02*
X0003141Y0032423D01*
X0003141Y0033021D02*
X0020518Y0033021D01*
X0020518Y0033620D02*
X0003141Y0033620D01*
X0003141Y0034218D02*
X0021033Y0034218D01*
X0021632Y0034817D02*
X0003141Y0034817D01*
X0003141Y0035415D02*
X0030148Y0035415D01*
X0030746Y0034817D02*
X0023782Y0034817D01*
X0024380Y0034218D02*
X0031191Y0034218D01*
X0031191Y0034371D02*
X0031191Y0033114D01*
X0032474Y0031832D01*
X0034287Y0031832D01*
X0035569Y0033114D01*
X0035569Y0034928D01*
X0034287Y0036210D01*
X0033030Y0036210D01*
X0022826Y0046414D01*
X0022826Y0091313D01*
X0030700Y0099187D01*
X0030700Y0105804D01*
X0031589Y0106693D01*
X0031589Y0108506D01*
X0030306Y0109788D01*
X0028493Y0109788D01*
X0027604Y0108899D01*
X0014190Y0108899D01*
X0011904Y0111186D01*
X0011904Y0112443D01*
X0010621Y0113725D01*
X0008808Y0113725D01*
X0007526Y0112443D01*
X0007526Y0110630D01*
X0008808Y0109347D01*
X0010065Y0109347D01*
X0012352Y0107061D01*
X0013113Y0106299D01*
X0027604Y0106299D01*
X0028100Y0105804D01*
X0028100Y0100264D01*
X0020987Y0093151D01*
X0020226Y0092390D01*
X0020226Y0078065D01*
X0020060Y0078230D01*
X0018967Y0078683D01*
X0017785Y0078683D01*
X0016692Y0078230D01*
X0015855Y0077394D01*
X0015403Y0076301D01*
X0015403Y0075118D01*
X0015855Y0074025D01*
X0016692Y0073189D01*
X0017785Y0072736D01*
X0018967Y0072736D01*
X0020060Y0073189D01*
X0020226Y0073354D01*
X0020226Y0063104D01*
X0020060Y0063269D01*
X0018967Y0063722D01*
X0017785Y0063722D01*
X0016692Y0063269D01*
X0015855Y0062433D01*
X0015403Y0061340D01*
X0015403Y0060157D01*
X0015855Y0059065D01*
X0016692Y0058228D01*
X0017785Y0057776D01*
X0018967Y0057776D01*
X0020060Y0058228D01*
X0020226Y0058394D01*
X0020226Y0045337D01*
X0020987Y0044576D01*
X0031191Y0034371D01*
X0031191Y0033620D02*
X0024896Y0033620D01*
X0024896Y0033021D02*
X0031284Y0033021D01*
X0031883Y0032423D02*
X0024896Y0032423D01*
X0024830Y0031824D02*
X0082394Y0031824D01*
X0082329Y0032423D02*
X0034878Y0032423D01*
X0035476Y0033021D02*
X0082329Y0033021D01*
X0082329Y0033620D02*
X0035569Y0033620D01*
X0035569Y0034218D02*
X0082844Y0034218D01*
X0083218Y0034817D02*
X0035569Y0034817D01*
X0035082Y0035415D02*
X0083218Y0035415D01*
X0083218Y0036014D02*
X0034483Y0036014D01*
X0032628Y0036612D02*
X0083218Y0036612D01*
X0083218Y0037211D02*
X0032029Y0037211D01*
X0031431Y0037809D02*
X0083218Y0037809D01*
X0083218Y0038408D02*
X0030832Y0038408D01*
X0030234Y0039006D02*
X0083218Y0039006D01*
X0083218Y0039605D02*
X0029635Y0039605D01*
X0029037Y0040203D02*
X0083218Y0040203D01*
X0083218Y0040802D02*
X0028438Y0040802D01*
X0027839Y0041400D02*
X0083218Y0041400D01*
X0083218Y0041999D02*
X0027241Y0041999D01*
X0026642Y0042597D02*
X0083218Y0042597D01*
X0083218Y0043196D02*
X0026044Y0043196D01*
X0025445Y0043794D02*
X0083218Y0043794D01*
X0083218Y0044393D02*
X0024847Y0044393D01*
X0024248Y0044991D02*
X0083218Y0044991D01*
X0083662Y0045590D02*
X0023650Y0045590D01*
X0023051Y0046188D02*
X0084261Y0046188D01*
X0083179Y0046787D02*
X0022826Y0046787D01*
X0022826Y0047385D02*
X0082581Y0047385D01*
X0082329Y0047984D02*
X0022826Y0047984D01*
X0022826Y0048582D02*
X0082329Y0048582D01*
X0082042Y0049181D02*
X0022826Y0049181D01*
X0022826Y0049779D02*
X0081444Y0049779D01*
X0080845Y0050378D02*
X0022826Y0050378D01*
X0022826Y0050976D02*
X0080247Y0050976D01*
X0079648Y0051575D02*
X0022826Y0051575D01*
X0022826Y0052173D02*
X0079050Y0052173D01*
X0078451Y0052772D02*
X0022826Y0052772D01*
X0022826Y0053370D02*
X0077853Y0053370D01*
X0077254Y0053969D02*
X0022826Y0053969D01*
X0022826Y0054568D02*
X0028155Y0054568D01*
X0028493Y0054229D02*
X0030306Y0054229D01*
X0031195Y0055118D01*
X0059100Y0055118D01*
X0059989Y0054229D01*
X0061802Y0054229D01*
X0063085Y0055511D01*
X0063085Y0057325D01*
X0061802Y0058607D01*
X0059989Y0058607D01*
X0059100Y0057718D01*
X0031195Y0057718D01*
X0030306Y0058607D01*
X0028493Y0058607D01*
X0027211Y0057325D01*
X0027211Y0055511D01*
X0028493Y0054229D01*
X0027556Y0055166D02*
X0022826Y0055166D01*
X0022826Y0055765D02*
X0027211Y0055765D01*
X0027211Y0056363D02*
X0022826Y0056363D01*
X0022826Y0056962D02*
X0027211Y0056962D01*
X0027446Y0057560D02*
X0022826Y0057560D01*
X0022826Y0058159D02*
X0028044Y0058159D01*
X0030755Y0058159D02*
X0059540Y0058159D01*
X0062251Y0058159D02*
X0073065Y0058159D01*
X0072466Y0058757D02*
X0022826Y0058757D01*
X0022826Y0059356D02*
X0071868Y0059356D01*
X0071407Y0059954D02*
X0022826Y0059954D01*
X0022826Y0060553D02*
X0071407Y0060553D01*
X0071407Y0061151D02*
X0022826Y0061151D01*
X0022826Y0061750D02*
X0071407Y0061750D01*
X0071407Y0062348D02*
X0022826Y0062348D01*
X0022826Y0062947D02*
X0071407Y0062947D01*
X0071407Y0063545D02*
X0022826Y0063545D01*
X0022826Y0064144D02*
X0071407Y0064144D01*
X0071407Y0064742D02*
X0022826Y0064742D01*
X0022826Y0065341D02*
X0071407Y0065341D01*
X0071407Y0065939D02*
X0022826Y0065939D01*
X0022826Y0066538D02*
X0071407Y0066538D01*
X0071407Y0067136D02*
X0022826Y0067136D01*
X0022826Y0067735D02*
X0071407Y0067735D01*
X0071407Y0068333D02*
X0022826Y0068333D01*
X0022826Y0068932D02*
X0071407Y0068932D01*
X0071407Y0069530D02*
X0046001Y0069530D01*
X0045661Y0069190D02*
X0046943Y0070472D01*
X0046943Y0071729D01*
X0050017Y0074803D01*
X0055163Y0074803D01*
X0056052Y0073914D01*
X0057865Y0073914D01*
X0059148Y0075196D01*
X0059148Y0077010D01*
X0058086Y0078072D01*
X0059148Y0079133D01*
X0059148Y0080947D01*
X0057865Y0082229D01*
X0056052Y0082229D01*
X0055163Y0081340D01*
X0049640Y0081340D01*
X0048878Y0080579D01*
X0041867Y0073568D01*
X0040669Y0073568D01*
X0039387Y0072285D01*
X0039387Y0070472D01*
X0040669Y0069190D01*
X0042483Y0069190D01*
X0043165Y0069872D01*
X0043847Y0069190D01*
X0045661Y0069190D01*
X0046600Y0070129D02*
X0071407Y0070129D01*
X0071407Y0070727D02*
X0046943Y0070727D01*
X0046943Y0071326D02*
X0071407Y0071326D01*
X0071110Y0071924D02*
X0047138Y0071924D01*
X0047737Y0072523D02*
X0070512Y0072523D01*
X0069913Y0073121D02*
X0048335Y0073121D01*
X0048934Y0073720D02*
X0069314Y0073720D01*
X0068716Y0074318D02*
X0058270Y0074318D01*
X0058868Y0074917D02*
X0068117Y0074917D01*
X0067519Y0075515D02*
X0059148Y0075515D01*
X0059148Y0076114D02*
X0066920Y0076114D01*
X0066322Y0076712D02*
X0059148Y0076712D01*
X0058847Y0077311D02*
X0065723Y0077311D01*
X0065125Y0077909D02*
X0058248Y0077909D01*
X0058522Y0078508D02*
X0064526Y0078508D01*
X0063928Y0079106D02*
X0059121Y0079106D01*
X0059148Y0079705D02*
X0063533Y0079705D01*
X0063533Y0080303D02*
X0059148Y0080303D01*
X0059148Y0080902D02*
X0063533Y0080902D01*
X0063533Y0081501D02*
X0058594Y0081501D01*
X0057995Y0082099D02*
X0063533Y0082099D01*
X0063533Y0082698D02*
X0022826Y0082698D01*
X0022826Y0083296D02*
X0063533Y0083296D01*
X0063533Y0083895D02*
X0022826Y0083895D01*
X0022826Y0084493D02*
X0063533Y0084493D01*
X0063533Y0085092D02*
X0022826Y0085092D01*
X0022826Y0085690D02*
X0063533Y0085690D01*
X0063533Y0086289D02*
X0022826Y0086289D01*
X0022826Y0086887D02*
X0063533Y0086887D01*
X0063533Y0087486D02*
X0022826Y0087486D01*
X0022826Y0088084D02*
X0063533Y0088084D01*
X0063533Y0088683D02*
X0022826Y0088683D01*
X0022826Y0089281D02*
X0063533Y0089281D01*
X0063533Y0089880D02*
X0022826Y0089880D01*
X0022826Y0090478D02*
X0063533Y0090478D01*
X0063533Y0091077D02*
X0022826Y0091077D01*
X0023188Y0091675D02*
X0063533Y0091675D01*
X0063533Y0092274D02*
X0023787Y0092274D01*
X0024385Y0092872D02*
X0063533Y0092872D01*
X0063533Y0093471D02*
X0024984Y0093471D01*
X0025582Y0094069D02*
X0063533Y0094069D01*
X0063533Y0094668D02*
X0026181Y0094668D01*
X0026779Y0095266D02*
X0063533Y0095266D01*
X0063533Y0095865D02*
X0027378Y0095865D01*
X0027976Y0096463D02*
X0063533Y0096463D01*
X0063533Y0097062D02*
X0028575Y0097062D01*
X0029173Y0097660D02*
X0063533Y0097660D01*
X0063203Y0098259D02*
X0029772Y0098259D01*
X0030370Y0098857D02*
X0062644Y0098857D01*
X0062644Y0099456D02*
X0030700Y0099456D01*
X0030700Y0100054D02*
X0062644Y0100054D01*
X0062665Y0100653D02*
X0030700Y0100653D01*
X0030700Y0101251D02*
X0063263Y0101251D01*
X0063862Y0101850D02*
X0042602Y0101850D01*
X0042117Y0101365D02*
X0043400Y0102648D01*
X0043400Y0104461D01*
X0042117Y0105743D01*
X0040860Y0105743D01*
X0027652Y0118952D01*
X0027652Y0120317D01*
X0026369Y0121599D01*
X0024556Y0121599D01*
X0023274Y0120317D01*
X0023274Y0118504D01*
X0024556Y0117221D01*
X0025705Y0117221D01*
X0039022Y0103905D01*
X0039022Y0102648D01*
X0040304Y0101365D01*
X0042117Y0101365D01*
X0043200Y0102448D02*
X0094126Y0102448D01*
X0093819Y0103047D02*
X0043400Y0103047D01*
X0043400Y0103645D02*
X0093819Y0103645D01*
X0093819Y0104244D02*
X0043400Y0104244D01*
X0043018Y0104842D02*
X0094093Y0104842D01*
X0094691Y0105441D02*
X0042420Y0105441D01*
X0040564Y0106039D02*
X0126525Y0106039D01*
X0126525Y0105441D02*
X0125525Y0105441D01*
X0126124Y0104842D02*
X0126525Y0104842D01*
X0126525Y0104244D02*
X0126397Y0104244D01*
X0126397Y0103645D02*
X0126525Y0103645D01*
X0126525Y0103047D02*
X0126397Y0103047D01*
X0126525Y0102448D02*
X0126090Y0102448D01*
X0126525Y0101850D02*
X0125492Y0101850D01*
X0125778Y0101251D02*
X0126525Y0101251D01*
X0126525Y0100653D02*
X0126376Y0100653D01*
X0129125Y0101251D02*
X0130192Y0101251D01*
X0130791Y0101850D02*
X0129125Y0101850D01*
X0129125Y0102448D02*
X0134399Y0102448D01*
X0134399Y0101850D02*
X0132733Y0101850D01*
X0133331Y0101251D02*
X0134399Y0101251D01*
X0134399Y0100653D02*
X0133930Y0100653D01*
X0133951Y0100054D02*
X0134399Y0100054D01*
X0134399Y0099456D02*
X0133951Y0099456D01*
X0133951Y0098857D02*
X0134399Y0098857D01*
X0134399Y0098259D02*
X0133391Y0098259D01*
X0132793Y0097660D02*
X0134399Y0097660D01*
X0134399Y0097062D02*
X0127000Y0097062D01*
X0127598Y0097660D02*
X0130731Y0097660D01*
X0130132Y0098259D02*
X0128197Y0098259D01*
X0126401Y0096463D02*
X0134399Y0096463D01*
X0134399Y0095865D02*
X0125803Y0095865D01*
X0125204Y0095266D02*
X0134399Y0095266D01*
X0134399Y0094668D02*
X0124606Y0094668D01*
X0123177Y0097660D02*
X0093423Y0097660D01*
X0094021Y0098259D02*
X0122579Y0098259D01*
X0122639Y0101251D02*
X0093961Y0101251D01*
X0093363Y0101850D02*
X0094725Y0101850D01*
X0091421Y0101850D02*
X0065804Y0101850D01*
X0066402Y0101251D02*
X0090822Y0101251D01*
X0090224Y0100653D02*
X0067001Y0100653D01*
X0067022Y0100054D02*
X0090203Y0100054D01*
X0090203Y0099456D02*
X0067022Y0099456D01*
X0067022Y0098857D02*
X0090203Y0098857D01*
X0090762Y0098259D02*
X0066462Y0098259D01*
X0066133Y0097660D02*
X0071483Y0097660D01*
X0070885Y0097062D02*
X0066133Y0097062D01*
X0066133Y0096463D02*
X0070518Y0096463D01*
X0070518Y0095865D02*
X0066133Y0095865D01*
X0066133Y0095266D02*
X0070518Y0095266D01*
X0070731Y0094668D02*
X0066133Y0094668D01*
X0066133Y0094069D02*
X0071330Y0094069D01*
X0071231Y0093471D02*
X0066133Y0093471D01*
X0066133Y0092872D02*
X0070632Y0092872D01*
X0070518Y0092274D02*
X0066133Y0092274D01*
X0066133Y0091675D02*
X0070518Y0091675D01*
X0070518Y0091077D02*
X0066133Y0091077D01*
X0066133Y0090478D02*
X0070984Y0090478D01*
X0071577Y0089880D02*
X0066133Y0089880D01*
X0066133Y0089281D02*
X0070978Y0089281D01*
X0070518Y0088683D02*
X0066133Y0088683D01*
X0066133Y0088084D02*
X0070518Y0088084D01*
X0070518Y0087486D02*
X0066133Y0087486D01*
X0066133Y0086887D02*
X0070638Y0086887D01*
X0071237Y0086289D02*
X0066133Y0086289D01*
X0066133Y0085690D02*
X0071324Y0085690D01*
X0070725Y0085092D02*
X0066133Y0085092D01*
X0066133Y0084493D02*
X0070518Y0084493D01*
X0070518Y0083895D02*
X0066133Y0083895D01*
X0066133Y0083296D02*
X0070518Y0083296D01*
X0070891Y0082698D02*
X0066133Y0082698D01*
X0066133Y0082099D02*
X0071489Y0082099D01*
X0071071Y0081501D02*
X0066133Y0081501D01*
X0066133Y0080902D02*
X0070518Y0080902D01*
X0070518Y0080303D02*
X0066408Y0080303D01*
X0067006Y0079705D02*
X0070518Y0079705D01*
X0070545Y0079106D02*
X0067605Y0079106D01*
X0068203Y0078508D02*
X0071143Y0078508D01*
X0071417Y0077909D02*
X0068802Y0077909D01*
X0069400Y0077311D02*
X0070819Y0077311D01*
X0070518Y0076712D02*
X0069999Y0076712D01*
X0073996Y0077909D02*
X0126860Y0077909D01*
X0126261Y0078508D02*
X0074270Y0078508D01*
X0074342Y0081501D02*
X0126189Y0081501D01*
X0126788Y0082099D02*
X0105420Y0082099D01*
X0106019Y0082698D02*
X0143273Y0082698D01*
X0143273Y0083296D02*
X0106392Y0083296D01*
X0106392Y0083895D02*
X0143273Y0083895D01*
X0143273Y0084493D02*
X0106392Y0084493D01*
X0106184Y0085092D02*
X0143273Y0085092D01*
X0143273Y0085690D02*
X0105585Y0085690D01*
X0102820Y0085690D02*
X0074089Y0085690D01*
X0074177Y0086289D02*
X0143273Y0086289D01*
X0143273Y0086887D02*
X0132573Y0086887D01*
X0133172Y0087486D02*
X0143273Y0087486D01*
X0143273Y0088084D02*
X0133770Y0088084D01*
X0134369Y0088683D02*
X0143273Y0088683D01*
X0143273Y0089281D02*
X0134967Y0089281D01*
X0135566Y0089880D02*
X0143273Y0089880D01*
X0143273Y0090478D02*
X0136164Y0090478D01*
X0136763Y0091077D02*
X0143273Y0091077D01*
X0143273Y0091675D02*
X0136999Y0091675D01*
X0136999Y0092274D02*
X0143273Y0092274D01*
X0143273Y0092872D02*
X0136999Y0092872D01*
X0136999Y0093471D02*
X0143273Y0093471D01*
X0143273Y0094069D02*
X0136999Y0094069D01*
X0136999Y0094668D02*
X0143273Y0094668D01*
X0143273Y0095266D02*
X0136999Y0095266D01*
X0136999Y0095865D02*
X0143273Y0095865D01*
X0143273Y0096463D02*
X0136999Y0096463D01*
X0136999Y0097062D02*
X0143273Y0097062D01*
X0143273Y0097660D02*
X0136999Y0097660D01*
X0136999Y0098259D02*
X0143273Y0098259D01*
X0143273Y0098857D02*
X0136999Y0098857D01*
X0136999Y0099456D02*
X0143273Y0099456D01*
X0143273Y0100054D02*
X0136999Y0100054D01*
X0136999Y0100653D02*
X0143273Y0100653D01*
X0143273Y0101251D02*
X0136999Y0101251D01*
X0136999Y0101850D02*
X0143273Y0101850D01*
X0143273Y0102448D02*
X0136999Y0102448D01*
X0136999Y0103047D02*
X0143273Y0103047D01*
X0143273Y0103645D02*
X0136999Y0103645D01*
X0136999Y0104244D02*
X0143273Y0104244D01*
X0143273Y0104842D02*
X0136999Y0104842D01*
X0136999Y0105441D02*
X0143273Y0105441D01*
X0143273Y0106039D02*
X0136999Y0106039D01*
X0136999Y0106638D02*
X0143273Y0106638D01*
X0143273Y0107237D02*
X0136999Y0107237D01*
X0136999Y0107835D02*
X0143273Y0107835D01*
X0143273Y0108434D02*
X0136999Y0108434D01*
X0136999Y0109032D02*
X0143273Y0109032D01*
X0143273Y0109631D02*
X0136999Y0109631D01*
X0136999Y0110229D02*
X0143273Y0110229D01*
X0143273Y0110828D02*
X0136999Y0110828D01*
X0136999Y0111426D02*
X0143273Y0111426D01*
X0143273Y0112025D02*
X0136999Y0112025D01*
X0136999Y0112623D02*
X0143273Y0112623D01*
X0143273Y0113222D02*
X0136999Y0113222D01*
X0136999Y0113820D02*
X0143273Y0113820D01*
X0143273Y0114419D02*
X0136999Y0114419D01*
X0136999Y0115017D02*
X0143273Y0115017D01*
X0143273Y0115616D02*
X0136999Y0115616D01*
X0136999Y0116214D02*
X0143273Y0116214D01*
X0143273Y0116813D02*
X0136999Y0116813D01*
X0136999Y0117411D02*
X0143273Y0117411D01*
X0143273Y0118010D02*
X0136999Y0118010D01*
X0136999Y0118608D02*
X0143273Y0118608D01*
X0143273Y0119207D02*
X0136999Y0119207D01*
X0136999Y0119805D02*
X0143273Y0119805D01*
X0143273Y0120404D02*
X0136999Y0120404D01*
X0136999Y0121002D02*
X0143273Y0121002D01*
X0143273Y0121601D02*
X0137048Y0121601D01*
X0137647Y0122199D02*
X0143273Y0122199D01*
X0143273Y0122798D02*
X0137888Y0122798D01*
X0137888Y0123396D02*
X0143273Y0123396D01*
X0143273Y0123995D02*
X0137888Y0123995D01*
X0137548Y0124593D02*
X0143273Y0124593D01*
X0143273Y0125192D02*
X0136950Y0125192D01*
X0134448Y0125192D02*
X0129076Y0125192D01*
X0129674Y0124593D02*
X0133849Y0124593D01*
X0133510Y0123995D02*
X0130014Y0123995D01*
X0130014Y0123396D02*
X0133510Y0123396D01*
X0133510Y0122798D02*
X0130014Y0122798D01*
X0129773Y0122199D02*
X0133751Y0122199D01*
X0134350Y0121601D02*
X0129174Y0121601D01*
X0129125Y0121002D02*
X0134399Y0121002D01*
X0134399Y0120404D02*
X0129125Y0120404D01*
X0129125Y0119805D02*
X0134399Y0119805D01*
X0134399Y0119207D02*
X0129125Y0119207D01*
X0129125Y0118608D02*
X0134399Y0118608D01*
X0134399Y0118010D02*
X0129125Y0118010D01*
X0129125Y0117411D02*
X0134399Y0117411D01*
X0134399Y0116813D02*
X0129125Y0116813D01*
X0129125Y0116214D02*
X0134399Y0116214D01*
X0134399Y0115616D02*
X0129125Y0115616D01*
X0129125Y0115017D02*
X0134399Y0115017D01*
X0134399Y0114419D02*
X0129125Y0114419D01*
X0129125Y0113820D02*
X0134399Y0113820D01*
X0134399Y0113222D02*
X0129125Y0113222D01*
X0129125Y0112623D02*
X0134399Y0112623D01*
X0134399Y0112025D02*
X0129125Y0112025D01*
X0129125Y0111426D02*
X0134399Y0111426D01*
X0134399Y0110828D02*
X0129125Y0110828D01*
X0129125Y0110229D02*
X0134399Y0110229D01*
X0134399Y0109631D02*
X0129125Y0109631D01*
X0129125Y0109032D02*
X0134399Y0109032D01*
X0134399Y0108434D02*
X0129125Y0108434D01*
X0129125Y0107835D02*
X0134399Y0107835D01*
X0134399Y0107237D02*
X0129125Y0107237D01*
X0129125Y0106638D02*
X0134399Y0106638D01*
X0134399Y0106039D02*
X0129125Y0106039D01*
X0129125Y0105441D02*
X0134399Y0105441D01*
X0134399Y0104842D02*
X0129125Y0104842D01*
X0129125Y0104244D02*
X0134399Y0104244D01*
X0134399Y0103645D02*
X0129125Y0103645D01*
X0129125Y0103047D02*
X0134399Y0103047D01*
X0126525Y0106638D02*
X0039965Y0106638D01*
X0039367Y0107237D02*
X0126525Y0107237D01*
X0126525Y0107835D02*
X0038768Y0107835D01*
X0038170Y0108434D02*
X0126525Y0108434D01*
X0126525Y0109032D02*
X0037571Y0109032D01*
X0036973Y0109631D02*
X0067580Y0109631D01*
X0067863Y0109347D02*
X0069676Y0109347D01*
X0070565Y0110236D01*
X0108678Y0110236D01*
X0112615Y0114173D01*
X0113377Y0114935D01*
X0113377Y0121552D01*
X0114266Y0122441D01*
X0114266Y0124254D01*
X0112983Y0125536D01*
X0111170Y0125536D01*
X0109888Y0124254D01*
X0109888Y0122441D01*
X0110777Y0121552D01*
X0110777Y0116012D01*
X0107601Y0112836D01*
X0070565Y0112836D01*
X0069676Y0113725D01*
X0067863Y0113725D01*
X0066581Y0112443D01*
X0066581Y0110630D01*
X0067863Y0109347D01*
X0066981Y0110229D02*
X0036374Y0110229D01*
X0035776Y0110828D02*
X0066581Y0110828D01*
X0066581Y0111426D02*
X0035177Y0111426D01*
X0034579Y0112025D02*
X0066581Y0112025D01*
X0066761Y0112623D02*
X0033980Y0112623D01*
X0033382Y0113222D02*
X0067359Y0113222D01*
X0070180Y0113222D02*
X0107987Y0113222D01*
X0108585Y0113820D02*
X0032783Y0113820D01*
X0032185Y0114419D02*
X0109184Y0114419D01*
X0109782Y0115017D02*
X0031586Y0115017D01*
X0030988Y0115616D02*
X0110381Y0115616D01*
X0110777Y0116214D02*
X0030389Y0116214D01*
X0029791Y0116813D02*
X0110777Y0116813D01*
X0110777Y0117411D02*
X0029192Y0117411D01*
X0028594Y0118010D02*
X0110777Y0118010D01*
X0110777Y0118608D02*
X0027995Y0118608D01*
X0027652Y0119207D02*
X0110777Y0119207D01*
X0110777Y0119805D02*
X0027652Y0119805D01*
X0027565Y0120404D02*
X0110777Y0120404D01*
X0110777Y0121002D02*
X0026966Y0121002D01*
X0023959Y0121002D02*
X0017272Y0121002D01*
X0017711Y0121601D02*
X0110728Y0121601D01*
X0110129Y0122199D02*
X0017977Y0122199D01*
X0018244Y0122798D02*
X0109888Y0122798D01*
X0109888Y0123396D02*
X0018510Y0123396D01*
X0018776Y0123995D02*
X0109888Y0123995D01*
X0110227Y0124593D02*
X0018953Y0124593D01*
X0018953Y0125192D02*
X0110826Y0125192D01*
X0113328Y0125192D02*
X0126574Y0125192D01*
X0125975Y0124593D02*
X0113926Y0124593D01*
X0114266Y0123995D02*
X0125636Y0123995D01*
X0125636Y0123396D02*
X0114266Y0123396D01*
X0114266Y0122798D02*
X0125636Y0122798D01*
X0125877Y0122199D02*
X0114024Y0122199D01*
X0113426Y0121601D02*
X0126476Y0121601D01*
X0126525Y0121002D02*
X0113377Y0121002D01*
X0113377Y0120404D02*
X0126525Y0120404D01*
X0126525Y0119805D02*
X0113377Y0119805D01*
X0113377Y0119207D02*
X0126525Y0119207D01*
X0126525Y0118608D02*
X0113377Y0118608D01*
X0113377Y0118010D02*
X0126525Y0118010D01*
X0126525Y0117411D02*
X0113377Y0117411D01*
X0113377Y0116813D02*
X0126525Y0116813D01*
X0126525Y0116214D02*
X0113377Y0116214D01*
X0113377Y0115616D02*
X0126525Y0115616D01*
X0126525Y0115017D02*
X0113377Y0115017D01*
X0112861Y0114419D02*
X0126525Y0114419D01*
X0126525Y0113820D02*
X0112262Y0113820D01*
X0111664Y0113222D02*
X0126525Y0113222D01*
X0126525Y0112623D02*
X0111065Y0112623D01*
X0110467Y0112025D02*
X0126525Y0112025D01*
X0126525Y0111426D02*
X0109868Y0111426D01*
X0109270Y0110828D02*
X0126525Y0110828D01*
X0126525Y0110229D02*
X0070558Y0110229D01*
X0069960Y0109631D02*
X0126525Y0109631D01*
X0122891Y0105441D02*
X0097325Y0105441D01*
X0097292Y0101850D02*
X0122925Y0101850D01*
X0134399Y0094069D02*
X0074083Y0094069D01*
X0074183Y0093471D02*
X0090916Y0093471D01*
X0093868Y0093471D02*
X0134399Y0093471D01*
X0134399Y0092872D02*
X0094466Y0092872D01*
X0094581Y0092274D02*
X0134283Y0092274D01*
X0133684Y0091675D02*
X0094581Y0091675D01*
X0094581Y0091077D02*
X0133086Y0091077D01*
X0132487Y0090478D02*
X0094114Y0090478D01*
X0093516Y0089880D02*
X0131889Y0089880D01*
X0131290Y0089281D02*
X0074435Y0089281D01*
X0073837Y0089880D02*
X0091268Y0089880D01*
X0090669Y0090478D02*
X0074429Y0090478D01*
X0073930Y0097660D02*
X0091361Y0097660D01*
X0102985Y0082099D02*
X0073924Y0082099D01*
X0074018Y0074318D02*
X0134388Y0074318D01*
X0137010Y0074318D02*
X0143273Y0074318D01*
X0143273Y0073720D02*
X0072991Y0073720D01*
X0073590Y0073121D02*
X0143273Y0073121D01*
X0143273Y0072523D02*
X0074007Y0072523D01*
X0074007Y0071924D02*
X0143273Y0071924D01*
X0143273Y0071326D02*
X0074007Y0071326D01*
X0074007Y0070727D02*
X0143273Y0070727D01*
X0143273Y0070129D02*
X0074007Y0070129D01*
X0074007Y0069530D02*
X0143273Y0069530D01*
X0143273Y0068932D02*
X0074007Y0068932D01*
X0074007Y0068333D02*
X0143273Y0068333D01*
X0143273Y0074917D02*
X0137608Y0074917D01*
X0137888Y0075515D02*
X0143273Y0075515D01*
X0143273Y0076114D02*
X0137888Y0076114D01*
X0137888Y0076712D02*
X0143273Y0076712D01*
X0143273Y0077311D02*
X0137587Y0077311D01*
X0136988Y0077909D02*
X0143273Y0077909D01*
X0143273Y0078508D02*
X0129388Y0078508D01*
X0128790Y0077909D02*
X0134409Y0077909D01*
X0129987Y0079106D02*
X0143273Y0079106D01*
X0143273Y0079705D02*
X0130014Y0079705D01*
X0130014Y0080303D02*
X0143273Y0080303D01*
X0143273Y0080902D02*
X0130014Y0080902D01*
X0129460Y0081501D02*
X0143273Y0081501D01*
X0143273Y0082099D02*
X0128862Y0082099D01*
X0110329Y0065199D02*
X0109046Y0066481D01*
X0107233Y0066481D01*
X0105951Y0065199D01*
X0105951Y0063385D01*
X0106840Y0062496D01*
X0106840Y0048383D01*
X0096677Y0038220D01*
X0096677Y0025104D01*
X0095771Y0024198D01*
X0095771Y0022384D01*
X0097053Y0021102D01*
X0098866Y0021102D01*
X0100149Y0022384D01*
X0100149Y0024198D01*
X0099277Y0025070D01*
X0099277Y0034626D01*
X0099359Y0034544D01*
X0100616Y0034544D01*
X0102903Y0032258D01*
X0103664Y0031496D01*
X0135160Y0031496D01*
X0138336Y0028321D01*
X0138336Y0018844D01*
X0137447Y0017955D01*
X0137447Y0016141D01*
X0138729Y0014859D01*
X0140543Y0014859D01*
X0141825Y0016141D01*
X0141825Y0017955D01*
X0140936Y0018844D01*
X0140936Y0029398D01*
X0140174Y0030159D01*
X0136237Y0034096D01*
X0104741Y0034096D01*
X0102455Y0036383D01*
X0102455Y0037084D01*
X0116552Y0051181D01*
X0117314Y0051943D01*
X0117314Y0058559D01*
X0118203Y0059448D01*
X0118203Y0061262D01*
X0116920Y0062544D01*
X0115107Y0062544D01*
X0113825Y0061262D01*
X0113825Y0059448D01*
X0114714Y0058559D01*
X0114714Y0053020D01*
X0109440Y0047746D01*
X0109440Y0062496D01*
X0110329Y0063385D01*
X0110329Y0065199D01*
X0110187Y0065341D02*
X0169832Y0065341D01*
X0169832Y0065939D02*
X0109588Y0065939D01*
X0110329Y0064742D02*
X0169832Y0064742D01*
X0169832Y0064144D02*
X0110329Y0064144D01*
X0110329Y0063545D02*
X0169832Y0063545D01*
X0169832Y0062947D02*
X0109890Y0062947D01*
X0109440Y0062348D02*
X0114911Y0062348D01*
X0114313Y0061750D02*
X0109440Y0061750D01*
X0109440Y0061151D02*
X0113825Y0061151D01*
X0113825Y0060553D02*
X0109440Y0060553D01*
X0109440Y0059954D02*
X0113825Y0059954D01*
X0113918Y0059356D02*
X0109440Y0059356D01*
X0109440Y0058757D02*
X0114516Y0058757D01*
X0114714Y0058159D02*
X0109440Y0058159D01*
X0109440Y0057560D02*
X0114714Y0057560D01*
X0114714Y0056962D02*
X0109440Y0056962D01*
X0109440Y0056363D02*
X0114714Y0056363D01*
X0114714Y0055765D02*
X0109440Y0055765D01*
X0109440Y0055166D02*
X0114714Y0055166D01*
X0114714Y0054568D02*
X0109440Y0054568D01*
X0109440Y0053969D02*
X0114714Y0053969D01*
X0114714Y0053370D02*
X0109440Y0053370D01*
X0109440Y0052772D02*
X0114466Y0052772D01*
X0113868Y0052173D02*
X0109440Y0052173D01*
X0109440Y0051575D02*
X0113269Y0051575D01*
X0112671Y0050976D02*
X0109440Y0050976D01*
X0109440Y0050378D02*
X0112072Y0050378D01*
X0111474Y0049779D02*
X0109440Y0049779D01*
X0109440Y0049181D02*
X0110875Y0049181D01*
X0110277Y0048582D02*
X0109440Y0048582D01*
X0109440Y0047984D02*
X0109678Y0047984D01*
X0111559Y0046188D02*
X0169832Y0046188D01*
X0169832Y0045590D02*
X0110961Y0045590D01*
X0110362Y0044991D02*
X0169832Y0044991D01*
X0169832Y0044393D02*
X0109764Y0044393D01*
X0109165Y0043794D02*
X0169832Y0043794D01*
X0169832Y0043196D02*
X0108567Y0043196D01*
X0107968Y0042597D02*
X0169832Y0042597D01*
X0169832Y0041999D02*
X0107370Y0041999D01*
X0106771Y0041400D02*
X0169832Y0041400D01*
X0169832Y0040802D02*
X0106173Y0040802D01*
X0105574Y0040203D02*
X0169832Y0040203D01*
X0169832Y0039605D02*
X0104976Y0039605D01*
X0104377Y0039006D02*
X0169832Y0039006D01*
X0169832Y0038408D02*
X0103779Y0038408D01*
X0103180Y0037809D02*
X0169832Y0037809D01*
X0169832Y0037211D02*
X0102582Y0037211D01*
X0102455Y0036612D02*
X0169832Y0036612D01*
X0169832Y0036014D02*
X0102824Y0036014D01*
X0103422Y0035415D02*
X0169832Y0035415D01*
X0169832Y0034817D02*
X0104021Y0034817D01*
X0104619Y0034218D02*
X0169832Y0034218D01*
X0169832Y0033620D02*
X0136714Y0033620D01*
X0137312Y0033021D02*
X0169832Y0033021D01*
X0169832Y0032423D02*
X0137911Y0032423D01*
X0138509Y0031824D02*
X0169832Y0031824D01*
X0169832Y0031226D02*
X0139108Y0031226D01*
X0139706Y0030627D02*
X0169832Y0030627D01*
X0169832Y0030029D02*
X0140305Y0030029D01*
X0140903Y0029430D02*
X0169832Y0029430D01*
X0169832Y0028832D02*
X0140936Y0028832D01*
X0140936Y0028233D02*
X0169832Y0028233D01*
X0169832Y0027634D02*
X0140936Y0027634D01*
X0140936Y0027036D02*
X0169832Y0027036D01*
X0169832Y0026437D02*
X0140936Y0026437D01*
X0140936Y0025839D02*
X0169832Y0025839D01*
X0169832Y0025240D02*
X0140936Y0025240D01*
X0140936Y0024642D02*
X0169832Y0024642D01*
X0169832Y0024043D02*
X0140936Y0024043D01*
X0140936Y0023445D02*
X0169832Y0023445D01*
X0169832Y0022846D02*
X0140936Y0022846D01*
X0140936Y0022248D02*
X0169832Y0022248D01*
X0169832Y0021649D02*
X0140936Y0021649D01*
X0140936Y0021051D02*
X0169832Y0021051D01*
X0169832Y0020452D02*
X0140936Y0020452D01*
X0140936Y0019854D02*
X0169832Y0019854D01*
X0169832Y0019255D02*
X0140936Y0019255D01*
X0141123Y0018657D02*
X0169832Y0018657D01*
X0169832Y0018058D02*
X0141721Y0018058D01*
X0141825Y0017460D02*
X0169832Y0017460D01*
X0169832Y0016861D02*
X0141825Y0016861D01*
X0141825Y0016263D02*
X0169832Y0016263D01*
X0169832Y0015664D02*
X0141348Y0015664D01*
X0140749Y0015066D02*
X0169832Y0015066D01*
X0169832Y0014467D02*
X0096811Y0014467D01*
X0097409Y0013869D02*
X0169832Y0013869D01*
X0169832Y0013270D02*
X0098008Y0013270D01*
X0098607Y0012672D02*
X0169832Y0012672D01*
X0169832Y0012073D02*
X0099205Y0012073D01*
X0099804Y0011475D02*
X0169832Y0011475D01*
X0169832Y0010876D02*
X0109533Y0010876D01*
X0110132Y0010278D02*
X0169832Y0010278D01*
X0169832Y0009679D02*
X0110329Y0009679D01*
X0110329Y0009081D02*
X0169832Y0009081D01*
X0169832Y0008482D02*
X0110329Y0008482D01*
X0109945Y0007884D02*
X0169832Y0007884D01*
X0169832Y0007285D02*
X0122967Y0007285D01*
X0123565Y0006687D02*
X0169832Y0006687D01*
X0169832Y0006088D02*
X0124108Y0006088D01*
X0124108Y0005490D02*
X0169832Y0005490D01*
X0169832Y0004891D02*
X0124108Y0004891D01*
X0124071Y0004293D02*
X0169832Y0004293D01*
X0169832Y0003694D02*
X0123472Y0003694D01*
X0122873Y0003096D02*
X0169832Y0003096D01*
X0138522Y0015066D02*
X0096212Y0015066D01*
X0095614Y0015664D02*
X0137924Y0015664D01*
X0137447Y0016263D02*
X0095015Y0016263D01*
X0094417Y0016861D02*
X0137447Y0016861D01*
X0137447Y0017460D02*
X0093818Y0017460D01*
X0093220Y0018058D02*
X0137550Y0018058D01*
X0138149Y0018657D02*
X0092621Y0018657D01*
X0092023Y0019255D02*
X0138336Y0019255D01*
X0138336Y0019854D02*
X0091424Y0019854D01*
X0090826Y0020452D02*
X0138336Y0020452D01*
X0138336Y0021051D02*
X0090227Y0021051D01*
X0089629Y0021649D02*
X0096506Y0021649D01*
X0095907Y0022248D02*
X0089030Y0022248D01*
X0089475Y0022846D02*
X0095771Y0022846D01*
X0095771Y0023445D02*
X0090073Y0023445D01*
X0090644Y0024043D02*
X0095771Y0024043D01*
X0096215Y0024642D02*
X0090644Y0024642D01*
X0090644Y0025240D02*
X0096677Y0025240D01*
X0096677Y0025839D02*
X0090633Y0025839D01*
X0090035Y0026437D02*
X0096677Y0026437D01*
X0096677Y0027036D02*
X0089755Y0027036D01*
X0089755Y0027634D02*
X0096677Y0027634D01*
X0096677Y0028233D02*
X0089755Y0028233D01*
X0089755Y0028832D02*
X0096677Y0028832D01*
X0096677Y0029430D02*
X0089755Y0029430D01*
X0089755Y0030029D02*
X0096677Y0030029D01*
X0096677Y0030627D02*
X0089755Y0030627D01*
X0089755Y0031226D02*
X0096677Y0031226D01*
X0096677Y0031824D02*
X0089755Y0031824D01*
X0089755Y0032423D02*
X0096677Y0032423D01*
X0096677Y0033021D02*
X0089755Y0033021D01*
X0089755Y0033620D02*
X0096677Y0033620D01*
X0096677Y0034218D02*
X0089755Y0034218D01*
X0089755Y0034817D02*
X0096677Y0034817D01*
X0096677Y0035415D02*
X0089755Y0035415D01*
X0089755Y0036014D02*
X0096677Y0036014D01*
X0096677Y0036612D02*
X0089755Y0036612D01*
X0089755Y0037211D02*
X0096677Y0037211D01*
X0096677Y0037809D02*
X0089755Y0037809D01*
X0089755Y0038408D02*
X0096865Y0038408D01*
X0097463Y0039006D02*
X0089755Y0039006D01*
X0089755Y0039605D02*
X0098062Y0039605D01*
X0098660Y0040203D02*
X0089755Y0040203D01*
X0089755Y0040802D02*
X0099259Y0040802D01*
X0099857Y0041400D02*
X0089755Y0041400D01*
X0089755Y0041999D02*
X0100456Y0041999D01*
X0101054Y0042597D02*
X0089755Y0042597D01*
X0089755Y0043196D02*
X0101653Y0043196D01*
X0102251Y0043794D02*
X0089755Y0043794D01*
X0090079Y0044393D02*
X0102850Y0044393D01*
X0103448Y0044991D02*
X0090677Y0044991D01*
X0091276Y0045590D02*
X0104047Y0045590D01*
X0104645Y0046188D02*
X0091874Y0046188D01*
X0092473Y0046787D02*
X0105244Y0046787D01*
X0105842Y0047385D02*
X0093071Y0047385D01*
X0093670Y0047984D02*
X0106441Y0047984D01*
X0106840Y0048582D02*
X0094269Y0048582D01*
X0094867Y0049181D02*
X0106840Y0049181D01*
X0106840Y0049779D02*
X0095466Y0049779D01*
X0096064Y0050378D02*
X0106840Y0050378D01*
X0106840Y0050976D02*
X0096663Y0050976D01*
X0097261Y0051575D02*
X0106840Y0051575D01*
X0106840Y0052173D02*
X0097860Y0052173D01*
X0098458Y0052772D02*
X0106840Y0052772D01*
X0106840Y0053370D02*
X0099057Y0053370D01*
X0099655Y0053969D02*
X0106840Y0053969D01*
X0106840Y0054568D02*
X0100254Y0054568D01*
X0100852Y0055166D02*
X0106840Y0055166D01*
X0106840Y0055765D02*
X0101451Y0055765D01*
X0101566Y0056363D02*
X0106840Y0056363D01*
X0106840Y0056962D02*
X0101566Y0056962D01*
X0101566Y0057560D02*
X0106840Y0057560D01*
X0106840Y0058159D02*
X0101566Y0058159D01*
X0101566Y0058757D02*
X0106840Y0058757D01*
X0106840Y0059356D02*
X0101566Y0059356D01*
X0101566Y0059954D02*
X0106840Y0059954D01*
X0106840Y0060553D02*
X0101566Y0060553D01*
X0101566Y0061151D02*
X0106840Y0061151D01*
X0106840Y0061750D02*
X0101566Y0061750D01*
X0101566Y0062348D02*
X0106840Y0062348D01*
X0106390Y0062947D02*
X0101936Y0062947D01*
X0102455Y0063545D02*
X0105951Y0063545D01*
X0105951Y0064144D02*
X0102455Y0064144D01*
X0102455Y0064742D02*
X0105951Y0064742D01*
X0106093Y0065341D02*
X0102392Y0065341D01*
X0101794Y0065939D02*
X0106691Y0065939D01*
X0101195Y0066538D02*
X0169832Y0066538D01*
X0169832Y0067136D02*
X0074007Y0067136D01*
X0074007Y0066538D02*
X0099336Y0066538D01*
X0098738Y0065939D02*
X0074007Y0065939D01*
X0074007Y0065341D02*
X0098139Y0065341D01*
X0098077Y0064742D02*
X0074007Y0064742D01*
X0074007Y0064144D02*
X0098077Y0064144D01*
X0098077Y0063545D02*
X0074007Y0063545D01*
X0074007Y0062947D02*
X0098595Y0062947D01*
X0098966Y0062348D02*
X0074007Y0062348D01*
X0074007Y0061750D02*
X0098966Y0061750D01*
X0098966Y0061151D02*
X0074007Y0061151D01*
X0074348Y0060553D02*
X0098966Y0060553D01*
X0098966Y0059954D02*
X0074946Y0059954D01*
X0075545Y0059356D02*
X0098966Y0059356D01*
X0098966Y0058757D02*
X0076143Y0058757D01*
X0076742Y0058159D02*
X0098966Y0058159D01*
X0098966Y0057560D02*
X0077340Y0057560D01*
X0077939Y0056962D02*
X0098966Y0056962D01*
X0098372Y0056363D02*
X0078537Y0056363D01*
X0079136Y0055765D02*
X0097774Y0055765D01*
X0097175Y0055166D02*
X0079734Y0055166D01*
X0080333Y0054568D02*
X0091382Y0054568D01*
X0090784Y0053969D02*
X0080931Y0053969D01*
X0081530Y0053370D02*
X0090203Y0053370D01*
X0090203Y0052772D02*
X0082128Y0052772D01*
X0082727Y0052173D02*
X0090203Y0052173D01*
X0089647Y0051575D02*
X0083325Y0051575D01*
X0083924Y0050976D02*
X0089049Y0050976D01*
X0088450Y0050378D02*
X0085780Y0050378D01*
X0086378Y0049779D02*
X0087852Y0049779D01*
X0087253Y0049181D02*
X0086707Y0049181D01*
X0093401Y0054568D02*
X0096577Y0054568D01*
X0095978Y0053969D02*
X0093999Y0053969D01*
X0094581Y0053370D02*
X0095380Y0053370D01*
X0094781Y0052772D02*
X0094581Y0052772D01*
X0076656Y0054568D02*
X0062141Y0054568D01*
X0062739Y0055166D02*
X0076057Y0055166D01*
X0075459Y0055765D02*
X0063085Y0055765D01*
X0063085Y0056363D02*
X0074860Y0056363D01*
X0074262Y0056962D02*
X0063085Y0056962D01*
X0062849Y0057560D02*
X0073663Y0057560D01*
X0074007Y0067735D02*
X0169832Y0067735D01*
X0169832Y0062348D02*
X0117116Y0062348D01*
X0117715Y0061750D02*
X0169832Y0061750D01*
X0169832Y0061151D02*
X0118203Y0061151D01*
X0118203Y0060553D02*
X0169832Y0060553D01*
X0169832Y0059954D02*
X0118203Y0059954D01*
X0118110Y0059356D02*
X0169832Y0059356D01*
X0169832Y0058757D02*
X0117511Y0058757D01*
X0117314Y0058159D02*
X0169832Y0058159D01*
X0169832Y0057560D02*
X0117314Y0057560D01*
X0117314Y0056962D02*
X0169832Y0056962D01*
X0169832Y0056363D02*
X0117314Y0056363D01*
X0117314Y0055765D02*
X0169832Y0055765D01*
X0169832Y0055166D02*
X0117314Y0055166D01*
X0117314Y0054568D02*
X0169832Y0054568D01*
X0169832Y0053969D02*
X0117314Y0053969D01*
X0117314Y0053370D02*
X0169832Y0053370D01*
X0169832Y0052772D02*
X0117314Y0052772D01*
X0117314Y0052173D02*
X0169832Y0052173D01*
X0169832Y0051575D02*
X0116946Y0051575D01*
X0116348Y0050976D02*
X0169832Y0050976D01*
X0169832Y0050378D02*
X0115749Y0050378D01*
X0115151Y0049779D02*
X0169832Y0049779D01*
X0169832Y0049181D02*
X0114552Y0049181D01*
X0113954Y0048582D02*
X0169832Y0048582D01*
X0169832Y0047984D02*
X0113355Y0047984D01*
X0112757Y0047385D02*
X0169832Y0047385D01*
X0169832Y0046787D02*
X0112158Y0046787D01*
X0100942Y0034218D02*
X0099277Y0034218D01*
X0099277Y0033620D02*
X0101541Y0033620D01*
X0102139Y0033021D02*
X0099277Y0033021D01*
X0099277Y0032423D02*
X0102738Y0032423D01*
X0103336Y0031824D02*
X0099277Y0031824D01*
X0099277Y0031226D02*
X0135431Y0031226D01*
X0136029Y0030627D02*
X0099277Y0030627D01*
X0099277Y0030029D02*
X0136628Y0030029D01*
X0137226Y0029430D02*
X0099277Y0029430D01*
X0099277Y0028832D02*
X0137825Y0028832D01*
X0138336Y0028233D02*
X0099277Y0028233D01*
X0099277Y0027634D02*
X0138336Y0027634D01*
X0138336Y0027036D02*
X0099277Y0027036D01*
X0099277Y0026437D02*
X0138336Y0026437D01*
X0138336Y0025839D02*
X0099277Y0025839D01*
X0099277Y0025240D02*
X0138336Y0025240D01*
X0138336Y0024642D02*
X0099705Y0024642D01*
X0100149Y0024043D02*
X0138336Y0024043D01*
X0138336Y0023445D02*
X0100149Y0023445D01*
X0100149Y0022846D02*
X0138336Y0022846D01*
X0138336Y0022248D02*
X0100012Y0022248D01*
X0099414Y0021649D02*
X0138336Y0021649D01*
X0120872Y0007285D02*
X0109347Y0007285D01*
X0106933Y0007285D02*
X0100056Y0007285D01*
X0099718Y0007884D02*
X0099458Y0007884D01*
X0099119Y0008482D02*
X0098859Y0008482D01*
X0098521Y0009081D02*
X0098261Y0009081D01*
X0097922Y0009679D02*
X0097662Y0009679D01*
X0097324Y0010278D02*
X0097064Y0010278D01*
X0096725Y0010876D02*
X0096465Y0010876D01*
X0096127Y0011475D02*
X0095867Y0011475D01*
X0095528Y0012073D02*
X0095268Y0012073D01*
X0094930Y0012672D02*
X0094670Y0012672D01*
X0094331Y0013270D02*
X0094071Y0013270D01*
X0093733Y0013869D02*
X0093472Y0013869D01*
X0093134Y0014467D02*
X0092874Y0014467D01*
X0092536Y0015066D02*
X0092275Y0015066D01*
X0091937Y0015664D02*
X0091677Y0015664D01*
X0091338Y0016263D02*
X0091078Y0016263D01*
X0090740Y0016861D02*
X0090644Y0016861D01*
X0088346Y0019255D02*
X0066199Y0019255D01*
X0065739Y0018796D02*
X0067022Y0020078D01*
X0067022Y0021892D01*
X0065739Y0023174D01*
X0063926Y0023174D01*
X0063037Y0022285D01*
X0058205Y0022285D01*
X0057887Y0022603D01*
X0057887Y0023860D01*
X0056605Y0025143D01*
X0054791Y0025143D01*
X0053509Y0023860D01*
X0053509Y0022047D01*
X0054791Y0020765D01*
X0056049Y0020765D01*
X0056367Y0020447D01*
X0057128Y0019685D01*
X0063037Y0019685D01*
X0063926Y0018796D01*
X0065739Y0018796D01*
X0066797Y0019854D02*
X0087747Y0019854D01*
X0087149Y0020452D02*
X0067022Y0020452D01*
X0067022Y0021051D02*
X0086550Y0021051D01*
X0085952Y0021649D02*
X0067022Y0021649D01*
X0066665Y0022248D02*
X0085353Y0022248D01*
X0084755Y0022846D02*
X0066067Y0022846D01*
X0063598Y0022846D02*
X0057887Y0022846D01*
X0057887Y0023445D02*
X0084156Y0023445D01*
X0083558Y0024043D02*
X0057704Y0024043D01*
X0057105Y0024642D02*
X0083218Y0024642D01*
X0083218Y0025240D02*
X0024604Y0025240D01*
X0024604Y0024642D02*
X0054291Y0024642D01*
X0053692Y0024043D02*
X0024604Y0024043D01*
X0024604Y0023445D02*
X0053509Y0023445D01*
X0053509Y0022846D02*
X0024604Y0022846D01*
X0024604Y0022248D02*
X0053509Y0022248D01*
X0053907Y0021649D02*
X0024604Y0021649D01*
X0024604Y0021051D02*
X0054505Y0021051D01*
X0056361Y0020452D02*
X0024604Y0020452D01*
X0024604Y0019854D02*
X0056959Y0019854D01*
X0063467Y0019255D02*
X0024604Y0019255D01*
X0024604Y0018657D02*
X0086968Y0018657D01*
X0086369Y0018058D02*
X0024989Y0018058D01*
X0025093Y0017460D02*
X0086266Y0017460D01*
X0086266Y0016861D02*
X0025093Y0016861D01*
X0025093Y0016263D02*
X0086266Y0016263D01*
X0086743Y0015664D02*
X0024615Y0015664D01*
X0024017Y0015066D02*
X0087341Y0015066D01*
X0083218Y0025839D02*
X0024604Y0025839D01*
X0024604Y0026437D02*
X0083218Y0026437D01*
X0083218Y0027036D02*
X0024604Y0027036D01*
X0024604Y0027634D02*
X0083218Y0027634D01*
X0083218Y0028233D02*
X0024604Y0028233D01*
X0024604Y0028832D02*
X0083218Y0028832D01*
X0083218Y0029430D02*
X0024604Y0029430D01*
X0024604Y0030029D02*
X0083218Y0030029D01*
X0083218Y0030627D02*
X0024604Y0030627D01*
X0024604Y0031226D02*
X0082993Y0031226D01*
X0100402Y0010876D02*
X0106746Y0010876D01*
X0100655Y0006687D02*
X0120273Y0006687D01*
X0059651Y0054568D02*
X0030645Y0054568D01*
X0020226Y0054568D02*
X0003141Y0054568D01*
X0003141Y0055166D02*
X0020226Y0055166D01*
X0020226Y0055765D02*
X0003141Y0055765D01*
X0003141Y0056363D02*
X0020226Y0056363D01*
X0020226Y0056962D02*
X0003141Y0056962D01*
X0003141Y0057560D02*
X0020226Y0057560D01*
X0020226Y0058159D02*
X0019892Y0058159D01*
X0016860Y0058159D02*
X0003141Y0058159D01*
X0003141Y0058757D02*
X0016163Y0058757D01*
X0015735Y0059356D02*
X0003141Y0059356D01*
X0003141Y0059954D02*
X0015487Y0059954D01*
X0015403Y0060553D02*
X0003141Y0060553D01*
X0003141Y0061151D02*
X0015403Y0061151D01*
X0015572Y0061750D02*
X0003141Y0061750D01*
X0003141Y0062348D02*
X0015820Y0062348D01*
X0016369Y0062947D02*
X0003141Y0062947D01*
X0003141Y0063545D02*
X0017358Y0063545D01*
X0019394Y0063545D02*
X0020226Y0063545D01*
X0020226Y0064144D02*
X0003141Y0064144D01*
X0003141Y0064742D02*
X0020226Y0064742D01*
X0020226Y0065341D02*
X0003141Y0065341D01*
X0003141Y0065939D02*
X0020226Y0065939D01*
X0020226Y0066538D02*
X0003141Y0066538D01*
X0003141Y0067136D02*
X0020226Y0067136D01*
X0020226Y0067735D02*
X0003141Y0067735D01*
X0003141Y0068333D02*
X0020226Y0068333D01*
X0020226Y0068932D02*
X0003141Y0068932D01*
X0003141Y0069530D02*
X0020226Y0069530D01*
X0020226Y0070129D02*
X0003141Y0070129D01*
X0003141Y0070727D02*
X0020226Y0070727D01*
X0020226Y0071326D02*
X0003141Y0071326D01*
X0003141Y0071924D02*
X0020226Y0071924D01*
X0020226Y0072523D02*
X0003141Y0072523D01*
X0003141Y0073121D02*
X0016855Y0073121D01*
X0016161Y0073720D02*
X0003141Y0073720D01*
X0003141Y0074318D02*
X0015734Y0074318D01*
X0015486Y0074917D02*
X0003141Y0074917D01*
X0003141Y0075515D02*
X0015403Y0075515D01*
X0015403Y0076114D02*
X0003141Y0076114D01*
X0003141Y0076712D02*
X0015573Y0076712D01*
X0015821Y0077311D02*
X0003141Y0077311D01*
X0003141Y0077909D02*
X0016371Y0077909D01*
X0017363Y0078508D02*
X0003141Y0078508D01*
X0003141Y0079106D02*
X0020226Y0079106D01*
X0020226Y0078508D02*
X0019389Y0078508D01*
X0020226Y0079705D02*
X0003141Y0079705D01*
X0003141Y0080303D02*
X0020226Y0080303D01*
X0020226Y0080902D02*
X0003141Y0080902D01*
X0003141Y0081501D02*
X0020226Y0081501D01*
X0020226Y0082099D02*
X0003141Y0082099D01*
X0003141Y0082698D02*
X0020226Y0082698D01*
X0020226Y0083296D02*
X0003141Y0083296D01*
X0003141Y0083895D02*
X0020226Y0083895D01*
X0020226Y0084493D02*
X0003141Y0084493D01*
X0003141Y0085092D02*
X0020226Y0085092D01*
X0020226Y0085690D02*
X0003141Y0085690D01*
X0003141Y0086289D02*
X0020226Y0086289D01*
X0020226Y0086887D02*
X0003141Y0086887D01*
X0003141Y0087486D02*
X0020226Y0087486D01*
X0020226Y0088084D02*
X0003141Y0088084D01*
X0003141Y0088683D02*
X0020226Y0088683D01*
X0020226Y0089281D02*
X0003141Y0089281D01*
X0003141Y0089880D02*
X0004653Y0089880D01*
X0004871Y0089662D02*
X0006684Y0089662D01*
X0007573Y0090551D01*
X0015793Y0090551D01*
X0016682Y0089662D01*
X0018495Y0089662D01*
X0019778Y0090944D01*
X0019778Y0092758D01*
X0018495Y0094040D01*
X0016682Y0094040D01*
X0015793Y0093151D01*
X0007573Y0093151D01*
X0006684Y0094040D01*
X0004871Y0094040D01*
X0003589Y0092758D01*
X0003589Y0090944D01*
X0004871Y0089662D01*
X0004055Y0090478D02*
X0003141Y0090478D01*
X0003141Y0091077D02*
X0003589Y0091077D01*
X0003589Y0091675D02*
X0003141Y0091675D01*
X0003141Y0092274D02*
X0003589Y0092274D01*
X0003703Y0092872D02*
X0003141Y0092872D01*
X0003141Y0093471D02*
X0004301Y0093471D01*
X0003141Y0094069D02*
X0021905Y0094069D01*
X0021307Y0093471D02*
X0019065Y0093471D01*
X0019663Y0092872D02*
X0020708Y0092872D01*
X0020987Y0093151D02*
X0020987Y0093151D01*
X0020226Y0092274D02*
X0019778Y0092274D01*
X0019778Y0091675D02*
X0020226Y0091675D01*
X0020226Y0091077D02*
X0019778Y0091077D01*
X0020226Y0090478D02*
X0019311Y0090478D01*
X0018713Y0089880D02*
X0020226Y0089880D01*
X0016464Y0089880D02*
X0006902Y0089880D01*
X0007500Y0090478D02*
X0015866Y0090478D01*
X0016112Y0093471D02*
X0007254Y0093471D01*
X0003141Y0094668D02*
X0022504Y0094668D01*
X0023102Y0095266D02*
X0003141Y0095266D01*
X0003141Y0095865D02*
X0023701Y0095865D01*
X0024299Y0096463D02*
X0003141Y0096463D01*
X0003141Y0097062D02*
X0024898Y0097062D01*
X0025496Y0097660D02*
X0003141Y0097660D01*
X0003141Y0098259D02*
X0026095Y0098259D01*
X0026693Y0098857D02*
X0003141Y0098857D01*
X0003141Y0099456D02*
X0027292Y0099456D01*
X0027890Y0100054D02*
X0003141Y0100054D01*
X0003141Y0100653D02*
X0028100Y0100653D01*
X0028100Y0101251D02*
X0003141Y0101251D01*
X0003141Y0101850D02*
X0028100Y0101850D01*
X0028100Y0102448D02*
X0003141Y0102448D01*
X0003141Y0103047D02*
X0028100Y0103047D01*
X0028100Y0103645D02*
X0003141Y0103645D01*
X0003141Y0104244D02*
X0028100Y0104244D01*
X0028100Y0104842D02*
X0003141Y0104842D01*
X0003141Y0105441D02*
X0028100Y0105441D01*
X0027864Y0106039D02*
X0003141Y0106039D01*
X0003141Y0106638D02*
X0012774Y0106638D01*
X0012176Y0107237D02*
X0003141Y0107237D01*
X0003141Y0107835D02*
X0011577Y0107835D01*
X0010979Y0108434D02*
X0003141Y0108434D01*
X0003141Y0109032D02*
X0010380Y0109032D01*
X0012860Y0110229D02*
X0032697Y0110229D01*
X0032099Y0110828D02*
X0012262Y0110828D01*
X0011904Y0111426D02*
X0031500Y0111426D01*
X0030902Y0112025D02*
X0011904Y0112025D01*
X0011723Y0112623D02*
X0030303Y0112623D01*
X0029705Y0113222D02*
X0011125Y0113222D01*
X0008304Y0113222D02*
X0003141Y0113222D01*
X0003141Y0113820D02*
X0029106Y0113820D01*
X0028508Y0114419D02*
X0003141Y0114419D01*
X0003141Y0115017D02*
X0027909Y0115017D01*
X0027311Y0115616D02*
X0003141Y0115616D01*
X0003141Y0116214D02*
X0026712Y0116214D01*
X0026114Y0116813D02*
X0003141Y0116813D01*
X0003141Y0117411D02*
X0024366Y0117411D01*
X0023767Y0118010D02*
X0012060Y0118010D01*
X0010820Y0118010D02*
X0003141Y0118010D01*
X0003141Y0118608D02*
X0007763Y0118608D01*
X0006727Y0119207D02*
X0003141Y0119207D01*
X0003141Y0119805D02*
X0005690Y0119805D01*
X0005077Y0120404D02*
X0003141Y0120404D01*
X0003141Y0121002D02*
X0004643Y0121002D01*
X0004208Y0121601D02*
X0003141Y0121601D01*
X0003141Y0122199D02*
X0003773Y0122199D01*
X0003361Y0122798D02*
X0003141Y0122798D01*
X0003141Y0123396D02*
X0003234Y0123396D01*
X0013902Y0118608D02*
X0023274Y0118608D01*
X0023274Y0119207D02*
X0015277Y0119207D01*
X0015942Y0119805D02*
X0023274Y0119805D01*
X0023360Y0120404D02*
X0016607Y0120404D01*
X0018953Y0125790D02*
X0143273Y0125790D01*
X0143273Y0126389D02*
X0018953Y0126389D01*
X0018953Y0126987D02*
X0143273Y0126987D01*
X0143273Y0127586D02*
X0018953Y0127586D01*
X0018789Y0128184D02*
X0143273Y0128184D01*
X0143273Y0128783D02*
X0018522Y0128783D01*
X0018256Y0129381D02*
X0143273Y0129381D01*
X0143273Y0129980D02*
X0017989Y0129980D01*
X0017723Y0130578D02*
X0143273Y0130578D01*
X0143273Y0131177D02*
X0017302Y0131177D01*
X0016637Y0131775D02*
X0169832Y0131775D01*
X0169832Y0132374D02*
X0015972Y0132374D01*
X0015307Y0132972D02*
X0169832Y0132972D01*
X0169832Y0133571D02*
X0013985Y0133571D01*
X0007706Y0112623D02*
X0003141Y0112623D01*
X0003141Y0112025D02*
X0007526Y0112025D01*
X0007526Y0111426D02*
X0003141Y0111426D01*
X0003141Y0110828D02*
X0007526Y0110828D01*
X0007926Y0110229D02*
X0003141Y0110229D01*
X0003141Y0109631D02*
X0008525Y0109631D01*
X0013459Y0109631D02*
X0028335Y0109631D01*
X0027737Y0109032D02*
X0014057Y0109032D01*
X0030464Y0109631D02*
X0033296Y0109631D01*
X0033894Y0109032D02*
X0031062Y0109032D01*
X0031589Y0108434D02*
X0034493Y0108434D01*
X0035091Y0107835D02*
X0031589Y0107835D01*
X0031589Y0107237D02*
X0035690Y0107237D01*
X0036288Y0106638D02*
X0031534Y0106638D01*
X0030936Y0106039D02*
X0036887Y0106039D01*
X0037486Y0105441D02*
X0030700Y0105441D01*
X0030700Y0104842D02*
X0038084Y0104842D01*
X0038683Y0104244D02*
X0030700Y0104244D01*
X0030700Y0103645D02*
X0039022Y0103645D01*
X0039022Y0103047D02*
X0030700Y0103047D01*
X0030700Y0102448D02*
X0039221Y0102448D01*
X0039819Y0101850D02*
X0030700Y0101850D01*
X0032430Y0081954D02*
X0031148Y0080672D01*
X0031148Y0078859D01*
X0032430Y0077576D01*
X0034243Y0077576D01*
X0035407Y0078740D01*
X0043352Y0078740D01*
X0044241Y0077851D01*
X0046054Y0077851D01*
X0047337Y0079133D01*
X0047337Y0080947D01*
X0046054Y0082229D01*
X0044241Y0082229D01*
X0043352Y0081340D01*
X0034857Y0081340D01*
X0034243Y0081954D01*
X0032430Y0081954D01*
X0031976Y0081501D02*
X0022826Y0081501D01*
X0022826Y0082099D02*
X0044111Y0082099D01*
X0043512Y0081501D02*
X0034697Y0081501D01*
X0035175Y0078508D02*
X0043584Y0078508D01*
X0044183Y0077909D02*
X0034576Y0077909D01*
X0032097Y0077909D02*
X0022826Y0077909D01*
X0022826Y0077311D02*
X0045611Y0077311D01*
X0046113Y0077909D02*
X0046209Y0077909D01*
X0046711Y0078508D02*
X0046808Y0078508D01*
X0047310Y0079106D02*
X0047406Y0079106D01*
X0047337Y0079705D02*
X0048005Y0079705D01*
X0048603Y0080303D02*
X0047337Y0080303D01*
X0047337Y0080902D02*
X0049202Y0080902D01*
X0046783Y0081501D02*
X0055323Y0081501D01*
X0055922Y0082099D02*
X0046184Y0082099D01*
X0045012Y0076712D02*
X0022826Y0076712D01*
X0022826Y0076114D02*
X0044414Y0076114D01*
X0043815Y0075515D02*
X0022826Y0075515D01*
X0022826Y0074917D02*
X0043217Y0074917D01*
X0042618Y0074318D02*
X0022826Y0074318D01*
X0022826Y0073720D02*
X0042019Y0073720D01*
X0040223Y0073121D02*
X0022826Y0073121D01*
X0022826Y0072523D02*
X0039624Y0072523D01*
X0039387Y0071924D02*
X0022826Y0071924D01*
X0022826Y0071326D02*
X0039387Y0071326D01*
X0039387Y0070727D02*
X0022826Y0070727D01*
X0022826Y0070129D02*
X0039730Y0070129D01*
X0040329Y0069530D02*
X0022826Y0069530D01*
X0020226Y0073121D02*
X0019897Y0073121D01*
X0022826Y0078508D02*
X0031498Y0078508D01*
X0031148Y0079106D02*
X0022826Y0079106D01*
X0022826Y0079705D02*
X0031148Y0079705D01*
X0031148Y0080303D02*
X0022826Y0080303D01*
X0022826Y0080902D02*
X0031378Y0080902D01*
X0042823Y0069530D02*
X0043507Y0069530D01*
X0049532Y0074318D02*
X0055648Y0074318D01*
X0020226Y0053969D02*
X0003141Y0053969D01*
X0003141Y0053370D02*
X0020226Y0053370D01*
X0020226Y0052772D02*
X0003141Y0052772D01*
X0003141Y0052173D02*
X0020226Y0052173D01*
X0020226Y0051575D02*
X0003141Y0051575D01*
X0003141Y0050976D02*
X0020226Y0050976D01*
X0020226Y0050378D02*
X0003141Y0050378D01*
X0003141Y0049779D02*
X0020226Y0049779D01*
X0020226Y0049181D02*
X0003141Y0049181D01*
X0003141Y0048582D02*
X0020226Y0048582D01*
X0020226Y0047984D02*
X0003141Y0047984D01*
X0003141Y0047385D02*
X0020226Y0047385D01*
X0020226Y0046787D02*
X0003141Y0046787D01*
X0003141Y0046188D02*
X0020226Y0046188D01*
X0020226Y0045590D02*
X0003141Y0045590D01*
X0003141Y0044991D02*
X0020571Y0044991D01*
X0021170Y0044393D02*
X0003141Y0044393D01*
X0003141Y0043794D02*
X0021768Y0043794D01*
X0022367Y0043196D02*
X0003141Y0043196D01*
X0003141Y0042597D02*
X0022966Y0042597D01*
X0023564Y0041999D02*
X0003141Y0041999D01*
X0003141Y0041400D02*
X0024163Y0041400D01*
X0024761Y0040802D02*
X0003141Y0040802D01*
X0003141Y0040203D02*
X0025360Y0040203D01*
X0025958Y0039605D02*
X0003141Y0039605D01*
X0003141Y0039006D02*
X0026557Y0039006D01*
X0027155Y0038408D02*
X0003141Y0038408D01*
X0003141Y0037809D02*
X0027754Y0037809D01*
X0028352Y0037211D02*
X0003141Y0037211D01*
X0003141Y0036612D02*
X0028951Y0036612D01*
X0029549Y0036014D02*
X0003141Y0036014D01*
D14*
X0022707Y0032796D02*
X0022904Y0032599D01*
X0022904Y0017048D01*
M02*
