G75*
%MOIN*%
%OFA0B0*%
%FSLAX25Y25*%
%IPPOS*%
%LPD*%
%AMOC8*
5,1,8,0,0,1.08239X$1,22.5*
%
%ADD10C,0.00600*%
%ADD11C,0.00800*%
%ADD12R,0.00787X0.03937*%
%ADD13C,0.00300*%
%ADD14C,0.00500*%
%ADD15C,0.00400*%
%ADD16C,0.01600*%
%ADD17C,0.00700*%
%ADD18C,0.00200*%
%ADD19C,0.00000*%
D10*
X0021728Y0020744D02*
X0202831Y0020744D01*
X0202831Y0138854D01*
X0021728Y0138854D01*
X0021728Y0020744D01*
X0054198Y0033729D02*
X0056798Y0033729D01*
X0056798Y0034885D01*
X0056798Y0036225D02*
X0054198Y0036225D01*
X0054198Y0037381D01*
X0055354Y0037092D02*
X0055354Y0036225D01*
X0056798Y0036225D02*
X0056798Y0037381D01*
X0056798Y0038712D02*
X0054198Y0038712D01*
X0054198Y0039434D01*
X0054199Y0039434D02*
X0054201Y0039486D01*
X0054206Y0039537D01*
X0054216Y0039587D01*
X0054228Y0039637D01*
X0054245Y0039686D01*
X0054264Y0039734D01*
X0054287Y0039780D01*
X0054314Y0039824D01*
X0054343Y0039867D01*
X0054375Y0039907D01*
X0054410Y0039945D01*
X0054448Y0039980D01*
X0054488Y0040012D01*
X0054531Y0040041D01*
X0054575Y0040068D01*
X0054621Y0040091D01*
X0054669Y0040110D01*
X0054718Y0040127D01*
X0054768Y0040140D01*
X0054818Y0040149D01*
X0054870Y0040154D01*
X0054921Y0040156D01*
X0056076Y0040156D01*
X0056128Y0040154D01*
X0056179Y0040149D01*
X0056229Y0040140D01*
X0056279Y0040127D01*
X0056328Y0040110D01*
X0056376Y0040091D01*
X0056422Y0040068D01*
X0056466Y0040041D01*
X0056509Y0040012D01*
X0056549Y0039980D01*
X0056587Y0039945D01*
X0056622Y0039907D01*
X0056654Y0039867D01*
X0056683Y0039824D01*
X0056710Y0039780D01*
X0056733Y0039734D01*
X0056752Y0039686D01*
X0056769Y0039637D01*
X0056782Y0039587D01*
X0056791Y0039537D01*
X0056796Y0039486D01*
X0056798Y0039434D01*
X0056798Y0038712D01*
X0056798Y0041688D02*
X0056798Y0042410D01*
X0056796Y0042463D01*
X0056790Y0042515D01*
X0056781Y0042567D01*
X0056767Y0042618D01*
X0056750Y0042668D01*
X0056730Y0042716D01*
X0056706Y0042763D01*
X0056678Y0042808D01*
X0056647Y0042851D01*
X0056614Y0042892D01*
X0056577Y0042930D01*
X0056538Y0042965D01*
X0056496Y0042997D01*
X0056452Y0043026D01*
X0056406Y0043052D01*
X0056358Y0043074D01*
X0056309Y0043093D01*
X0056259Y0043109D01*
X0056207Y0043120D01*
X0056155Y0043128D01*
X0056102Y0043132D01*
X0056050Y0043132D01*
X0055997Y0043128D01*
X0055945Y0043120D01*
X0055893Y0043109D01*
X0055843Y0043093D01*
X0055794Y0043074D01*
X0055746Y0043052D01*
X0055700Y0043026D01*
X0055656Y0042997D01*
X0055614Y0042965D01*
X0055575Y0042930D01*
X0055538Y0042892D01*
X0055505Y0042851D01*
X0055474Y0042808D01*
X0055446Y0042763D01*
X0055422Y0042716D01*
X0055402Y0042668D01*
X0055385Y0042618D01*
X0055371Y0042567D01*
X0055362Y0042515D01*
X0055356Y0042463D01*
X0055354Y0042410D01*
X0055354Y0042554D02*
X0055354Y0041976D01*
X0055354Y0042554D02*
X0055352Y0042601D01*
X0055347Y0042647D01*
X0055337Y0042692D01*
X0055324Y0042737D01*
X0055308Y0042781D01*
X0055288Y0042823D01*
X0055265Y0042863D01*
X0055238Y0042901D01*
X0055209Y0042937D01*
X0055176Y0042971D01*
X0055142Y0043002D01*
X0055104Y0043030D01*
X0055065Y0043055D01*
X0055024Y0043076D01*
X0054981Y0043094D01*
X0054937Y0043109D01*
X0054892Y0043120D01*
X0054846Y0043128D01*
X0054799Y0043132D01*
X0054753Y0043132D01*
X0054706Y0043128D01*
X0054660Y0043120D01*
X0054615Y0043109D01*
X0054571Y0043094D01*
X0054528Y0043076D01*
X0054487Y0043055D01*
X0054448Y0043030D01*
X0054410Y0043002D01*
X0054376Y0042971D01*
X0054343Y0042937D01*
X0054314Y0042901D01*
X0054287Y0042863D01*
X0054264Y0042823D01*
X0054244Y0042781D01*
X0054228Y0042737D01*
X0054215Y0042692D01*
X0054205Y0042647D01*
X0054200Y0042601D01*
X0054198Y0042554D01*
X0054198Y0041688D01*
X0065253Y0028818D02*
X0065975Y0028818D01*
X0065253Y0028818D02*
X0065253Y0026218D01*
X0065253Y0027374D02*
X0065975Y0027374D01*
X0066120Y0027374D02*
X0066697Y0026218D01*
X0065975Y0027374D02*
X0066028Y0027376D01*
X0066080Y0027382D01*
X0066132Y0027391D01*
X0066183Y0027405D01*
X0066233Y0027422D01*
X0066281Y0027442D01*
X0066328Y0027466D01*
X0066373Y0027494D01*
X0066416Y0027525D01*
X0066457Y0027558D01*
X0066495Y0027595D01*
X0066530Y0027634D01*
X0066562Y0027676D01*
X0066591Y0027720D01*
X0066617Y0027766D01*
X0066639Y0027814D01*
X0066658Y0027863D01*
X0066674Y0027913D01*
X0066685Y0027965D01*
X0066693Y0028017D01*
X0066697Y0028070D01*
X0066697Y0028122D01*
X0066693Y0028175D01*
X0066685Y0028227D01*
X0066674Y0028279D01*
X0066658Y0028329D01*
X0066639Y0028378D01*
X0066617Y0028426D01*
X0066591Y0028472D01*
X0066562Y0028516D01*
X0066530Y0028558D01*
X0066495Y0028597D01*
X0066457Y0028634D01*
X0066416Y0028667D01*
X0066373Y0028698D01*
X0066328Y0028726D01*
X0066281Y0028750D01*
X0066233Y0028770D01*
X0066183Y0028787D01*
X0066132Y0028801D01*
X0066080Y0028810D01*
X0066028Y0028816D01*
X0065975Y0028818D01*
X0068246Y0028240D02*
X0068248Y0028193D01*
X0068253Y0028147D01*
X0068263Y0028102D01*
X0068276Y0028057D01*
X0068292Y0028013D01*
X0068312Y0027971D01*
X0068335Y0027931D01*
X0068362Y0027893D01*
X0068391Y0027857D01*
X0068424Y0027823D01*
X0068458Y0027792D01*
X0068496Y0027764D01*
X0068535Y0027739D01*
X0068576Y0027718D01*
X0068619Y0027700D01*
X0068663Y0027685D01*
X0068708Y0027674D01*
X0068754Y0027666D01*
X0068801Y0027662D01*
X0068847Y0027662D01*
X0068894Y0027666D01*
X0068940Y0027674D01*
X0068985Y0027685D01*
X0069029Y0027700D01*
X0069072Y0027718D01*
X0069113Y0027739D01*
X0069152Y0027764D01*
X0069190Y0027792D01*
X0069224Y0027823D01*
X0069257Y0027857D01*
X0069286Y0027893D01*
X0069313Y0027931D01*
X0069336Y0027971D01*
X0069356Y0028013D01*
X0069372Y0028057D01*
X0069385Y0028102D01*
X0069395Y0028147D01*
X0069400Y0028193D01*
X0069402Y0028240D01*
X0069400Y0028287D01*
X0069395Y0028333D01*
X0069385Y0028378D01*
X0069372Y0028423D01*
X0069356Y0028467D01*
X0069336Y0028509D01*
X0069313Y0028549D01*
X0069286Y0028587D01*
X0069257Y0028623D01*
X0069224Y0028657D01*
X0069190Y0028688D01*
X0069152Y0028716D01*
X0069113Y0028741D01*
X0069072Y0028762D01*
X0069029Y0028780D01*
X0068985Y0028795D01*
X0068940Y0028806D01*
X0068894Y0028814D01*
X0068847Y0028818D01*
X0068801Y0028818D01*
X0068754Y0028814D01*
X0068708Y0028806D01*
X0068663Y0028795D01*
X0068619Y0028780D01*
X0068576Y0028762D01*
X0068535Y0028741D01*
X0068496Y0028716D01*
X0068458Y0028688D01*
X0068424Y0028657D01*
X0068391Y0028623D01*
X0068362Y0028587D01*
X0068335Y0028549D01*
X0068312Y0028509D01*
X0068292Y0028467D01*
X0068276Y0028423D01*
X0068263Y0028378D01*
X0068253Y0028333D01*
X0068248Y0028287D01*
X0068246Y0028240D01*
X0068102Y0026940D02*
X0068104Y0026887D01*
X0068110Y0026835D01*
X0068119Y0026783D01*
X0068133Y0026732D01*
X0068150Y0026682D01*
X0068170Y0026634D01*
X0068194Y0026587D01*
X0068222Y0026542D01*
X0068253Y0026499D01*
X0068286Y0026458D01*
X0068323Y0026420D01*
X0068362Y0026385D01*
X0068404Y0026353D01*
X0068448Y0026324D01*
X0068494Y0026298D01*
X0068542Y0026276D01*
X0068591Y0026257D01*
X0068641Y0026241D01*
X0068693Y0026230D01*
X0068745Y0026222D01*
X0068798Y0026218D01*
X0068850Y0026218D01*
X0068903Y0026222D01*
X0068955Y0026230D01*
X0069007Y0026241D01*
X0069057Y0026257D01*
X0069106Y0026276D01*
X0069154Y0026298D01*
X0069200Y0026324D01*
X0069244Y0026353D01*
X0069286Y0026385D01*
X0069325Y0026420D01*
X0069362Y0026458D01*
X0069395Y0026499D01*
X0069426Y0026542D01*
X0069454Y0026587D01*
X0069478Y0026634D01*
X0069498Y0026682D01*
X0069515Y0026732D01*
X0069529Y0026783D01*
X0069538Y0026835D01*
X0069544Y0026887D01*
X0069546Y0026940D01*
X0069544Y0026993D01*
X0069538Y0027045D01*
X0069529Y0027097D01*
X0069515Y0027148D01*
X0069498Y0027198D01*
X0069478Y0027246D01*
X0069454Y0027293D01*
X0069426Y0027338D01*
X0069395Y0027381D01*
X0069362Y0027422D01*
X0069325Y0027460D01*
X0069286Y0027495D01*
X0069244Y0027527D01*
X0069200Y0027556D01*
X0069154Y0027582D01*
X0069106Y0027604D01*
X0069057Y0027623D01*
X0069007Y0027639D01*
X0068955Y0027650D01*
X0068903Y0027658D01*
X0068850Y0027662D01*
X0068798Y0027662D01*
X0068745Y0027658D01*
X0068693Y0027650D01*
X0068641Y0027639D01*
X0068591Y0027623D01*
X0068542Y0027604D01*
X0068494Y0027582D01*
X0068448Y0027556D01*
X0068404Y0027527D01*
X0068362Y0027495D01*
X0068323Y0027460D01*
X0068286Y0027422D01*
X0068253Y0027381D01*
X0068222Y0027338D01*
X0068194Y0027293D01*
X0068170Y0027246D01*
X0068150Y0027198D01*
X0068133Y0027148D01*
X0068119Y0027097D01*
X0068110Y0027045D01*
X0068104Y0026993D01*
X0068102Y0026940D01*
X0074820Y0039316D02*
X0094620Y0039316D01*
X0094620Y0057291D01*
X0074820Y0057291D01*
X0074820Y0039316D01*
X0089320Y0053103D02*
X0089322Y0053187D01*
X0089328Y0053272D01*
X0089338Y0053355D01*
X0089352Y0053439D01*
X0089369Y0053521D01*
X0089391Y0053603D01*
X0089416Y0053683D01*
X0089445Y0053762D01*
X0089478Y0053840D01*
X0089514Y0053916D01*
X0089554Y0053991D01*
X0089598Y0054063D01*
X0089644Y0054134D01*
X0089694Y0054202D01*
X0089747Y0054267D01*
X0089803Y0054330D01*
X0089862Y0054391D01*
X0089924Y0054448D01*
X0089988Y0054503D01*
X0090055Y0054554D01*
X0090124Y0054603D01*
X0090196Y0054648D01*
X0090269Y0054689D01*
X0090344Y0054727D01*
X0090421Y0054762D01*
X0090500Y0054793D01*
X0090580Y0054820D01*
X0090661Y0054843D01*
X0090743Y0054863D01*
X0090826Y0054879D01*
X0090909Y0054891D01*
X0090994Y0054899D01*
X0091078Y0054903D01*
X0091162Y0054903D01*
X0091246Y0054899D01*
X0091331Y0054891D01*
X0091414Y0054879D01*
X0091497Y0054863D01*
X0091579Y0054843D01*
X0091660Y0054820D01*
X0091740Y0054793D01*
X0091819Y0054762D01*
X0091896Y0054727D01*
X0091971Y0054689D01*
X0092044Y0054648D01*
X0092116Y0054603D01*
X0092185Y0054554D01*
X0092252Y0054503D01*
X0092316Y0054448D01*
X0092378Y0054391D01*
X0092437Y0054330D01*
X0092493Y0054267D01*
X0092546Y0054202D01*
X0092596Y0054134D01*
X0092642Y0054063D01*
X0092686Y0053991D01*
X0092726Y0053916D01*
X0092762Y0053840D01*
X0092795Y0053762D01*
X0092824Y0053683D01*
X0092849Y0053603D01*
X0092871Y0053521D01*
X0092888Y0053439D01*
X0092902Y0053355D01*
X0092912Y0053272D01*
X0092918Y0053187D01*
X0092920Y0053103D01*
X0092918Y0053019D01*
X0092912Y0052934D01*
X0092902Y0052851D01*
X0092888Y0052767D01*
X0092871Y0052685D01*
X0092849Y0052603D01*
X0092824Y0052523D01*
X0092795Y0052444D01*
X0092762Y0052366D01*
X0092726Y0052290D01*
X0092686Y0052215D01*
X0092642Y0052143D01*
X0092596Y0052072D01*
X0092546Y0052004D01*
X0092493Y0051939D01*
X0092437Y0051876D01*
X0092378Y0051815D01*
X0092316Y0051758D01*
X0092252Y0051703D01*
X0092185Y0051652D01*
X0092116Y0051603D01*
X0092044Y0051558D01*
X0091971Y0051517D01*
X0091896Y0051479D01*
X0091819Y0051444D01*
X0091740Y0051413D01*
X0091660Y0051386D01*
X0091579Y0051363D01*
X0091497Y0051343D01*
X0091414Y0051327D01*
X0091331Y0051315D01*
X0091246Y0051307D01*
X0091162Y0051303D01*
X0091078Y0051303D01*
X0090994Y0051307D01*
X0090909Y0051315D01*
X0090826Y0051327D01*
X0090743Y0051343D01*
X0090661Y0051363D01*
X0090580Y0051386D01*
X0090500Y0051413D01*
X0090421Y0051444D01*
X0090344Y0051479D01*
X0090269Y0051517D01*
X0090196Y0051558D01*
X0090124Y0051603D01*
X0090055Y0051652D01*
X0089988Y0051703D01*
X0089924Y0051758D01*
X0089862Y0051815D01*
X0089803Y0051876D01*
X0089747Y0051939D01*
X0089694Y0052004D01*
X0089644Y0052072D01*
X0089598Y0052143D01*
X0089554Y0052215D01*
X0089514Y0052290D01*
X0089478Y0052366D01*
X0089445Y0052444D01*
X0089416Y0052523D01*
X0089391Y0052603D01*
X0089369Y0052685D01*
X0089352Y0052767D01*
X0089338Y0052851D01*
X0089328Y0052934D01*
X0089322Y0053019D01*
X0089320Y0053103D01*
X0102264Y0039299D02*
X0102264Y0033689D01*
X0114421Y0033689D01*
X0114421Y0039299D01*
X0102264Y0039299D01*
X0130000Y0035798D02*
X0130000Y0033921D01*
X0130002Y0033868D01*
X0130008Y0033816D01*
X0130017Y0033764D01*
X0130031Y0033713D01*
X0130048Y0033663D01*
X0130068Y0033615D01*
X0130092Y0033568D01*
X0130120Y0033523D01*
X0130151Y0033480D01*
X0130184Y0033439D01*
X0130221Y0033401D01*
X0130260Y0033366D01*
X0130302Y0033334D01*
X0130346Y0033305D01*
X0130392Y0033279D01*
X0130440Y0033257D01*
X0130489Y0033238D01*
X0130539Y0033222D01*
X0130591Y0033211D01*
X0130643Y0033203D01*
X0130696Y0033199D01*
X0130748Y0033199D01*
X0130801Y0033203D01*
X0130853Y0033211D01*
X0130905Y0033222D01*
X0130955Y0033238D01*
X0131004Y0033257D01*
X0131052Y0033279D01*
X0131098Y0033305D01*
X0131142Y0033334D01*
X0131184Y0033366D01*
X0131223Y0033401D01*
X0131260Y0033439D01*
X0131293Y0033480D01*
X0131324Y0033523D01*
X0131352Y0033568D01*
X0131376Y0033615D01*
X0131396Y0033663D01*
X0131413Y0033713D01*
X0131427Y0033764D01*
X0131436Y0033816D01*
X0131442Y0033868D01*
X0131444Y0033921D01*
X0131444Y0035798D01*
X0132976Y0035221D02*
X0133698Y0035798D01*
X0133698Y0033198D01*
X0132976Y0033198D02*
X0134420Y0033198D01*
X0140056Y0028818D02*
X0140778Y0028818D01*
X0140056Y0028818D02*
X0140056Y0026218D01*
X0140056Y0027374D02*
X0140778Y0027374D01*
X0140923Y0027374D02*
X0141501Y0026218D01*
X0142905Y0026218D02*
X0143627Y0026218D01*
X0143680Y0026220D01*
X0143732Y0026226D01*
X0143784Y0026235D01*
X0143835Y0026249D01*
X0143885Y0026266D01*
X0143933Y0026286D01*
X0143980Y0026310D01*
X0144025Y0026338D01*
X0144068Y0026369D01*
X0144109Y0026402D01*
X0144147Y0026439D01*
X0144182Y0026478D01*
X0144214Y0026520D01*
X0144243Y0026564D01*
X0144269Y0026610D01*
X0144291Y0026658D01*
X0144310Y0026707D01*
X0144326Y0026757D01*
X0144337Y0026809D01*
X0144345Y0026861D01*
X0144349Y0026914D01*
X0144349Y0026966D01*
X0144345Y0027019D01*
X0144337Y0027071D01*
X0144326Y0027123D01*
X0144310Y0027173D01*
X0144291Y0027222D01*
X0144269Y0027270D01*
X0144243Y0027316D01*
X0144214Y0027360D01*
X0144182Y0027402D01*
X0144147Y0027441D01*
X0144109Y0027478D01*
X0144068Y0027511D01*
X0144025Y0027542D01*
X0143980Y0027570D01*
X0143933Y0027594D01*
X0143885Y0027614D01*
X0143835Y0027631D01*
X0143784Y0027645D01*
X0143732Y0027654D01*
X0143680Y0027660D01*
X0143627Y0027662D01*
X0143772Y0027663D02*
X0143194Y0027663D01*
X0143772Y0027662D02*
X0143819Y0027664D01*
X0143865Y0027669D01*
X0143910Y0027679D01*
X0143955Y0027692D01*
X0143999Y0027708D01*
X0144041Y0027728D01*
X0144081Y0027751D01*
X0144119Y0027778D01*
X0144155Y0027807D01*
X0144189Y0027840D01*
X0144220Y0027874D01*
X0144248Y0027912D01*
X0144273Y0027951D01*
X0144294Y0027992D01*
X0144312Y0028035D01*
X0144327Y0028079D01*
X0144338Y0028124D01*
X0144346Y0028170D01*
X0144350Y0028217D01*
X0144350Y0028263D01*
X0144346Y0028310D01*
X0144338Y0028356D01*
X0144327Y0028401D01*
X0144312Y0028445D01*
X0144294Y0028488D01*
X0144273Y0028529D01*
X0144248Y0028568D01*
X0144220Y0028606D01*
X0144189Y0028640D01*
X0144155Y0028673D01*
X0144119Y0028702D01*
X0144081Y0028729D01*
X0144041Y0028752D01*
X0143999Y0028772D01*
X0143955Y0028788D01*
X0143910Y0028801D01*
X0143865Y0028811D01*
X0143819Y0028816D01*
X0143772Y0028818D01*
X0142905Y0028818D01*
X0140778Y0028818D02*
X0140831Y0028816D01*
X0140883Y0028810D01*
X0140935Y0028801D01*
X0140986Y0028787D01*
X0141036Y0028770D01*
X0141084Y0028750D01*
X0141131Y0028726D01*
X0141176Y0028698D01*
X0141219Y0028667D01*
X0141260Y0028634D01*
X0141298Y0028597D01*
X0141333Y0028558D01*
X0141365Y0028516D01*
X0141394Y0028472D01*
X0141420Y0028426D01*
X0141442Y0028378D01*
X0141461Y0028329D01*
X0141477Y0028279D01*
X0141488Y0028227D01*
X0141496Y0028175D01*
X0141500Y0028122D01*
X0141500Y0028070D01*
X0141496Y0028017D01*
X0141488Y0027965D01*
X0141477Y0027913D01*
X0141461Y0027863D01*
X0141442Y0027814D01*
X0141420Y0027766D01*
X0141394Y0027720D01*
X0141365Y0027676D01*
X0141333Y0027634D01*
X0141298Y0027595D01*
X0141260Y0027558D01*
X0141219Y0027525D01*
X0141176Y0027494D01*
X0141131Y0027466D01*
X0141084Y0027442D01*
X0141036Y0027422D01*
X0140986Y0027405D01*
X0140935Y0027391D01*
X0140883Y0027382D01*
X0140831Y0027376D01*
X0140778Y0027374D01*
X0158950Y0036292D02*
X0158950Y0038892D01*
X0159672Y0038892D01*
X0159725Y0038890D01*
X0159777Y0038884D01*
X0159829Y0038875D01*
X0159880Y0038861D01*
X0159930Y0038844D01*
X0159978Y0038824D01*
X0160025Y0038800D01*
X0160070Y0038772D01*
X0160113Y0038741D01*
X0160154Y0038708D01*
X0160192Y0038671D01*
X0160227Y0038632D01*
X0160259Y0038590D01*
X0160288Y0038546D01*
X0160314Y0038500D01*
X0160336Y0038452D01*
X0160355Y0038403D01*
X0160371Y0038353D01*
X0160382Y0038301D01*
X0160390Y0038249D01*
X0160394Y0038196D01*
X0160394Y0038144D01*
X0160390Y0038091D01*
X0160382Y0038039D01*
X0160371Y0037987D01*
X0160355Y0037937D01*
X0160336Y0037888D01*
X0160314Y0037840D01*
X0160288Y0037794D01*
X0160259Y0037750D01*
X0160227Y0037708D01*
X0160192Y0037669D01*
X0160154Y0037632D01*
X0160113Y0037599D01*
X0160070Y0037568D01*
X0160025Y0037540D01*
X0159978Y0037516D01*
X0159930Y0037496D01*
X0159880Y0037479D01*
X0159829Y0037465D01*
X0159777Y0037456D01*
X0159725Y0037450D01*
X0159672Y0037448D01*
X0158950Y0037448D01*
X0159816Y0037448D02*
X0160394Y0036292D01*
X0161799Y0036292D02*
X0163026Y0037737D01*
X0162593Y0038892D02*
X0162538Y0038890D01*
X0162483Y0038885D01*
X0162428Y0038876D01*
X0162375Y0038863D01*
X0162322Y0038847D01*
X0162270Y0038827D01*
X0162220Y0038804D01*
X0162171Y0038778D01*
X0162124Y0038748D01*
X0162080Y0038716D01*
X0162037Y0038680D01*
X0161997Y0038642D01*
X0161960Y0038601D01*
X0161925Y0038558D01*
X0161894Y0038513D01*
X0161865Y0038466D01*
X0161840Y0038417D01*
X0161817Y0038366D01*
X0161799Y0038314D01*
X0163026Y0037737D02*
X0163062Y0037773D01*
X0163095Y0037813D01*
X0163125Y0037854D01*
X0163152Y0037898D01*
X0163176Y0037944D01*
X0163196Y0037991D01*
X0163213Y0038039D01*
X0163226Y0038089D01*
X0163235Y0038140D01*
X0163241Y0038191D01*
X0163243Y0038242D01*
X0163241Y0038291D01*
X0163236Y0038339D01*
X0163227Y0038387D01*
X0163214Y0038434D01*
X0163198Y0038479D01*
X0163179Y0038524D01*
X0163156Y0038567D01*
X0163130Y0038608D01*
X0163101Y0038647D01*
X0163069Y0038684D01*
X0163035Y0038718D01*
X0162998Y0038750D01*
X0162959Y0038779D01*
X0162918Y0038805D01*
X0162875Y0038828D01*
X0162830Y0038847D01*
X0162785Y0038863D01*
X0162738Y0038876D01*
X0162690Y0038885D01*
X0162642Y0038890D01*
X0162593Y0038892D01*
X0163243Y0036292D02*
X0161799Y0036292D01*
X0176506Y0028255D02*
X0176506Y0025655D01*
X0177661Y0025655D01*
X0179002Y0025655D02*
X0179002Y0028255D01*
X0180157Y0028255D01*
X0179868Y0027100D02*
X0179002Y0027100D01*
X0179002Y0025655D02*
X0180157Y0025655D01*
X0181488Y0025655D02*
X0181488Y0028255D01*
X0182210Y0028255D01*
X0182262Y0028253D01*
X0182313Y0028248D01*
X0182363Y0028239D01*
X0182413Y0028226D01*
X0182462Y0028209D01*
X0182510Y0028190D01*
X0182556Y0028167D01*
X0182600Y0028140D01*
X0182643Y0028111D01*
X0182683Y0028079D01*
X0182721Y0028044D01*
X0182756Y0028006D01*
X0182788Y0027966D01*
X0182817Y0027923D01*
X0182844Y0027879D01*
X0182867Y0027833D01*
X0182886Y0027785D01*
X0182903Y0027736D01*
X0182916Y0027686D01*
X0182925Y0027636D01*
X0182930Y0027585D01*
X0182932Y0027533D01*
X0182933Y0027533D02*
X0182933Y0026377D01*
X0182932Y0026377D02*
X0182930Y0026325D01*
X0182925Y0026274D01*
X0182916Y0026224D01*
X0182903Y0026174D01*
X0182886Y0026125D01*
X0182867Y0026077D01*
X0182844Y0026031D01*
X0182817Y0025987D01*
X0182788Y0025944D01*
X0182756Y0025904D01*
X0182721Y0025866D01*
X0182683Y0025831D01*
X0182643Y0025799D01*
X0182600Y0025770D01*
X0182556Y0025743D01*
X0182510Y0025720D01*
X0182462Y0025701D01*
X0182413Y0025684D01*
X0182363Y0025671D01*
X0182313Y0025662D01*
X0182262Y0025657D01*
X0182210Y0025655D01*
X0181488Y0025655D01*
X0184464Y0025655D02*
X0185909Y0025655D01*
X0184464Y0025655D02*
X0185692Y0027100D01*
X0185259Y0028255D02*
X0185204Y0028253D01*
X0185149Y0028248D01*
X0185094Y0028239D01*
X0185041Y0028226D01*
X0184988Y0028210D01*
X0184936Y0028190D01*
X0184886Y0028167D01*
X0184837Y0028141D01*
X0184790Y0028111D01*
X0184746Y0028079D01*
X0184703Y0028043D01*
X0184663Y0028005D01*
X0184626Y0027964D01*
X0184591Y0027921D01*
X0184560Y0027876D01*
X0184531Y0027829D01*
X0184506Y0027780D01*
X0184483Y0027729D01*
X0184465Y0027677D01*
X0185692Y0027100D02*
X0185728Y0027136D01*
X0185761Y0027176D01*
X0185791Y0027217D01*
X0185818Y0027261D01*
X0185842Y0027307D01*
X0185862Y0027354D01*
X0185879Y0027402D01*
X0185892Y0027452D01*
X0185901Y0027503D01*
X0185907Y0027554D01*
X0185909Y0027605D01*
X0185907Y0027654D01*
X0185902Y0027702D01*
X0185893Y0027750D01*
X0185880Y0027797D01*
X0185864Y0027842D01*
X0185845Y0027887D01*
X0185822Y0027930D01*
X0185796Y0027971D01*
X0185767Y0028010D01*
X0185735Y0028047D01*
X0185701Y0028081D01*
X0185664Y0028113D01*
X0185625Y0028142D01*
X0185584Y0028168D01*
X0185541Y0028191D01*
X0185496Y0028210D01*
X0185451Y0028226D01*
X0185404Y0028239D01*
X0185356Y0028248D01*
X0185308Y0028253D01*
X0185259Y0028255D01*
X0186509Y0040229D02*
X0186509Y0042829D01*
X0187231Y0042829D01*
X0187284Y0042827D01*
X0187336Y0042821D01*
X0187388Y0042812D01*
X0187439Y0042798D01*
X0187489Y0042781D01*
X0187537Y0042761D01*
X0187584Y0042737D01*
X0187629Y0042709D01*
X0187672Y0042678D01*
X0187713Y0042645D01*
X0187751Y0042608D01*
X0187786Y0042569D01*
X0187818Y0042527D01*
X0187847Y0042483D01*
X0187873Y0042437D01*
X0187895Y0042389D01*
X0187914Y0042340D01*
X0187930Y0042290D01*
X0187941Y0042238D01*
X0187949Y0042186D01*
X0187953Y0042133D01*
X0187953Y0042081D01*
X0187949Y0042028D01*
X0187941Y0041976D01*
X0187930Y0041924D01*
X0187914Y0041874D01*
X0187895Y0041825D01*
X0187873Y0041777D01*
X0187847Y0041731D01*
X0187818Y0041687D01*
X0187786Y0041645D01*
X0187751Y0041606D01*
X0187713Y0041569D01*
X0187672Y0041536D01*
X0187629Y0041505D01*
X0187584Y0041477D01*
X0187537Y0041453D01*
X0187489Y0041433D01*
X0187439Y0041416D01*
X0187388Y0041402D01*
X0187336Y0041393D01*
X0187284Y0041387D01*
X0187231Y0041385D01*
X0186509Y0041385D01*
X0187375Y0041385D02*
X0187953Y0040229D01*
X0190080Y0040229D02*
X0190802Y0042829D01*
X0189358Y0042829D01*
X0189358Y0042540D01*
X0189358Y0048103D02*
X0190802Y0048103D01*
X0190080Y0048103D02*
X0190080Y0050703D01*
X0189358Y0050125D01*
X0187231Y0050703D02*
X0187284Y0050701D01*
X0187336Y0050695D01*
X0187388Y0050686D01*
X0187439Y0050672D01*
X0187489Y0050655D01*
X0187537Y0050635D01*
X0187584Y0050611D01*
X0187629Y0050583D01*
X0187672Y0050552D01*
X0187713Y0050519D01*
X0187751Y0050482D01*
X0187786Y0050443D01*
X0187818Y0050401D01*
X0187847Y0050357D01*
X0187873Y0050311D01*
X0187895Y0050263D01*
X0187914Y0050214D01*
X0187930Y0050164D01*
X0187941Y0050112D01*
X0187949Y0050060D01*
X0187953Y0050007D01*
X0187953Y0049955D01*
X0187949Y0049902D01*
X0187941Y0049850D01*
X0187930Y0049798D01*
X0187914Y0049748D01*
X0187895Y0049699D01*
X0187873Y0049651D01*
X0187847Y0049605D01*
X0187818Y0049561D01*
X0187786Y0049519D01*
X0187751Y0049480D01*
X0187713Y0049443D01*
X0187672Y0049410D01*
X0187629Y0049379D01*
X0187584Y0049351D01*
X0187537Y0049327D01*
X0187489Y0049307D01*
X0187439Y0049290D01*
X0187388Y0049276D01*
X0187336Y0049267D01*
X0187284Y0049261D01*
X0187231Y0049259D01*
X0186509Y0049259D01*
X0187375Y0049259D02*
X0187953Y0048103D01*
X0186509Y0048103D02*
X0186509Y0050703D01*
X0187231Y0050703D01*
X0193682Y0049403D02*
X0193680Y0049315D01*
X0193675Y0049226D01*
X0193666Y0049139D01*
X0193653Y0049051D01*
X0193637Y0048964D01*
X0193617Y0048878D01*
X0193593Y0048793D01*
X0193566Y0048709D01*
X0193536Y0048626D01*
X0193502Y0048544D01*
X0193465Y0048464D01*
X0193465Y0048465D02*
X0193449Y0048424D01*
X0193430Y0048384D01*
X0193407Y0048346D01*
X0193382Y0048310D01*
X0193353Y0048276D01*
X0193322Y0048245D01*
X0193288Y0048217D01*
X0193252Y0048191D01*
X0193214Y0048168D01*
X0193175Y0048149D01*
X0193133Y0048133D01*
X0193091Y0048120D01*
X0193048Y0048111D01*
X0193004Y0048106D01*
X0192960Y0048104D01*
X0192916Y0048106D01*
X0192872Y0048111D01*
X0192829Y0048120D01*
X0192787Y0048133D01*
X0192745Y0048149D01*
X0192706Y0048168D01*
X0192668Y0048191D01*
X0192632Y0048217D01*
X0192598Y0048245D01*
X0192567Y0048276D01*
X0192539Y0048310D01*
X0192513Y0048346D01*
X0192490Y0048384D01*
X0192471Y0048424D01*
X0192455Y0048465D01*
X0192382Y0048681D02*
X0193538Y0050125D01*
X0193465Y0050342D02*
X0193449Y0050383D01*
X0193430Y0050423D01*
X0193407Y0050461D01*
X0193382Y0050497D01*
X0193353Y0050531D01*
X0193322Y0050562D01*
X0193288Y0050590D01*
X0193252Y0050616D01*
X0193214Y0050639D01*
X0193175Y0050658D01*
X0193133Y0050674D01*
X0193091Y0050687D01*
X0193048Y0050696D01*
X0193004Y0050701D01*
X0192960Y0050703D01*
X0192916Y0050701D01*
X0192872Y0050696D01*
X0192829Y0050687D01*
X0192787Y0050674D01*
X0192745Y0050658D01*
X0192706Y0050639D01*
X0192668Y0050616D01*
X0192632Y0050590D01*
X0192598Y0050562D01*
X0192567Y0050531D01*
X0192539Y0050497D01*
X0192513Y0050461D01*
X0192490Y0050423D01*
X0192471Y0050383D01*
X0192455Y0050342D01*
X0193466Y0050342D02*
X0193503Y0050262D01*
X0193537Y0050180D01*
X0193567Y0050097D01*
X0193594Y0050013D01*
X0193618Y0049928D01*
X0193638Y0049842D01*
X0193654Y0049755D01*
X0193667Y0049667D01*
X0193676Y0049580D01*
X0193681Y0049491D01*
X0193683Y0049403D01*
X0192237Y0049403D02*
X0192239Y0049491D01*
X0192244Y0049580D01*
X0192253Y0049667D01*
X0192266Y0049755D01*
X0192282Y0049842D01*
X0192302Y0049928D01*
X0192326Y0050013D01*
X0192353Y0050097D01*
X0192383Y0050180D01*
X0192417Y0050262D01*
X0192454Y0050342D01*
X0192237Y0049403D02*
X0192239Y0049315D01*
X0192244Y0049226D01*
X0192253Y0049139D01*
X0192266Y0049051D01*
X0192282Y0048964D01*
X0192302Y0048878D01*
X0192326Y0048793D01*
X0192353Y0048709D01*
X0192383Y0048626D01*
X0192417Y0048544D01*
X0192454Y0048464D01*
X0187953Y0055977D02*
X0187375Y0057133D01*
X0187231Y0057133D02*
X0186509Y0057133D01*
X0187231Y0057133D02*
X0187284Y0057135D01*
X0187336Y0057141D01*
X0187388Y0057150D01*
X0187439Y0057164D01*
X0187489Y0057181D01*
X0187537Y0057201D01*
X0187584Y0057225D01*
X0187629Y0057253D01*
X0187672Y0057284D01*
X0187713Y0057317D01*
X0187751Y0057354D01*
X0187786Y0057393D01*
X0187818Y0057435D01*
X0187847Y0057479D01*
X0187873Y0057525D01*
X0187895Y0057573D01*
X0187914Y0057622D01*
X0187930Y0057672D01*
X0187941Y0057724D01*
X0187949Y0057776D01*
X0187953Y0057829D01*
X0187953Y0057881D01*
X0187949Y0057934D01*
X0187941Y0057986D01*
X0187930Y0058038D01*
X0187914Y0058088D01*
X0187895Y0058137D01*
X0187873Y0058185D01*
X0187847Y0058231D01*
X0187818Y0058275D01*
X0187786Y0058317D01*
X0187751Y0058356D01*
X0187713Y0058393D01*
X0187672Y0058426D01*
X0187629Y0058457D01*
X0187584Y0058485D01*
X0187537Y0058509D01*
X0187489Y0058529D01*
X0187439Y0058546D01*
X0187388Y0058560D01*
X0187336Y0058569D01*
X0187284Y0058575D01*
X0187231Y0058577D01*
X0186509Y0058577D01*
X0186509Y0055977D01*
X0189647Y0055977D02*
X0189714Y0055979D01*
X0189781Y0055985D01*
X0189848Y0055995D01*
X0189914Y0056008D01*
X0189979Y0056026D01*
X0190042Y0056047D01*
X0190105Y0056072D01*
X0190166Y0056100D01*
X0190225Y0056132D01*
X0190282Y0056167D01*
X0190337Y0056206D01*
X0190390Y0056247D01*
X0190440Y0056292D01*
X0190488Y0056340D01*
X0190533Y0056390D01*
X0190574Y0056443D01*
X0190613Y0056498D01*
X0190648Y0056555D01*
X0190680Y0056614D01*
X0190708Y0056675D01*
X0190733Y0056738D01*
X0190754Y0056801D01*
X0190772Y0056866D01*
X0190785Y0056932D01*
X0190795Y0056999D01*
X0190801Y0057066D01*
X0190803Y0057133D01*
X0190802Y0057133D02*
X0190802Y0057855D01*
X0190800Y0057908D01*
X0190794Y0057960D01*
X0190785Y0058012D01*
X0190771Y0058063D01*
X0190754Y0058113D01*
X0190734Y0058161D01*
X0190710Y0058208D01*
X0190682Y0058253D01*
X0190651Y0058296D01*
X0190618Y0058337D01*
X0190581Y0058375D01*
X0190542Y0058410D01*
X0190500Y0058442D01*
X0190456Y0058471D01*
X0190410Y0058497D01*
X0190362Y0058519D01*
X0190313Y0058538D01*
X0190263Y0058554D01*
X0190211Y0058565D01*
X0190159Y0058573D01*
X0190106Y0058577D01*
X0190054Y0058577D01*
X0190001Y0058573D01*
X0189949Y0058565D01*
X0189897Y0058554D01*
X0189847Y0058538D01*
X0189798Y0058519D01*
X0189750Y0058497D01*
X0189704Y0058471D01*
X0189660Y0058442D01*
X0189618Y0058410D01*
X0189579Y0058375D01*
X0189542Y0058337D01*
X0189509Y0058296D01*
X0189478Y0058253D01*
X0189450Y0058208D01*
X0189426Y0058161D01*
X0189406Y0058113D01*
X0189389Y0058063D01*
X0189375Y0058012D01*
X0189366Y0057960D01*
X0189360Y0057908D01*
X0189358Y0057855D01*
X0189358Y0057710D01*
X0189357Y0057710D02*
X0189359Y0057665D01*
X0189364Y0057620D01*
X0189373Y0057575D01*
X0189385Y0057531D01*
X0189401Y0057489D01*
X0189420Y0057448D01*
X0189442Y0057408D01*
X0189467Y0057370D01*
X0189495Y0057335D01*
X0189526Y0057301D01*
X0189560Y0057270D01*
X0189595Y0057242D01*
X0189633Y0057217D01*
X0189673Y0057195D01*
X0189714Y0057176D01*
X0189756Y0057160D01*
X0189800Y0057148D01*
X0189845Y0057139D01*
X0189890Y0057134D01*
X0189935Y0057132D01*
X0189935Y0057133D02*
X0190802Y0057133D01*
X0184204Y0086777D02*
X0179804Y0088244D01*
X0184204Y0089710D01*
X0183104Y0089344D02*
X0183104Y0087144D01*
X0184204Y0091616D02*
X0181271Y0091616D01*
X0181271Y0092838D01*
X0181273Y0092890D01*
X0181278Y0092942D01*
X0181288Y0092994D01*
X0181301Y0093045D01*
X0181317Y0093094D01*
X0181337Y0093143D01*
X0181361Y0093189D01*
X0181387Y0093234D01*
X0181417Y0093277D01*
X0181450Y0093318D01*
X0181486Y0093356D01*
X0181524Y0093392D01*
X0181565Y0093425D01*
X0181608Y0093455D01*
X0181653Y0093481D01*
X0181700Y0093505D01*
X0181748Y0093525D01*
X0181797Y0093541D01*
X0181848Y0093554D01*
X0181900Y0093564D01*
X0181952Y0093569D01*
X0182004Y0093571D01*
X0182004Y0093572D02*
X0184204Y0093572D01*
X0183471Y0095754D02*
X0179804Y0095754D01*
X0181271Y0095265D02*
X0181271Y0096732D01*
X0182248Y0098516D02*
X0183471Y0098516D01*
X0183523Y0098518D01*
X0183575Y0098523D01*
X0183627Y0098533D01*
X0183678Y0098546D01*
X0183727Y0098562D01*
X0183776Y0098582D01*
X0183822Y0098606D01*
X0183867Y0098632D01*
X0183910Y0098662D01*
X0183951Y0098695D01*
X0183989Y0098731D01*
X0184025Y0098769D01*
X0184058Y0098810D01*
X0184088Y0098853D01*
X0184114Y0098898D01*
X0184138Y0098945D01*
X0184158Y0098993D01*
X0184174Y0099042D01*
X0184187Y0099093D01*
X0184197Y0099145D01*
X0184202Y0099197D01*
X0184204Y0099249D01*
X0184204Y0100472D01*
X0182737Y0100472D02*
X0182737Y0098516D01*
X0182248Y0098516D02*
X0182187Y0098518D01*
X0182125Y0098524D01*
X0182065Y0098533D01*
X0182005Y0098547D01*
X0181946Y0098564D01*
X0181888Y0098585D01*
X0181832Y0098609D01*
X0181777Y0098637D01*
X0181724Y0098668D01*
X0181673Y0098703D01*
X0181625Y0098740D01*
X0181579Y0098781D01*
X0181535Y0098825D01*
X0181494Y0098871D01*
X0181457Y0098919D01*
X0181422Y0098970D01*
X0181391Y0099023D01*
X0181363Y0099078D01*
X0181339Y0099134D01*
X0181318Y0099192D01*
X0181301Y0099251D01*
X0181287Y0099311D01*
X0181278Y0099371D01*
X0181272Y0099433D01*
X0181270Y0099494D01*
X0181272Y0099555D01*
X0181278Y0099617D01*
X0181287Y0099677D01*
X0181301Y0099737D01*
X0181318Y0099796D01*
X0181339Y0099854D01*
X0181363Y0099910D01*
X0181391Y0099965D01*
X0181422Y0100018D01*
X0181457Y0100069D01*
X0181494Y0100117D01*
X0181535Y0100163D01*
X0181579Y0100207D01*
X0181625Y0100248D01*
X0181673Y0100285D01*
X0181724Y0100320D01*
X0181777Y0100351D01*
X0181832Y0100379D01*
X0181888Y0100403D01*
X0181946Y0100424D01*
X0182005Y0100441D01*
X0182065Y0100455D01*
X0182125Y0100464D01*
X0182187Y0100470D01*
X0182248Y0100472D01*
X0182737Y0100472D01*
X0181271Y0102566D02*
X0181271Y0103788D01*
X0181273Y0103840D01*
X0181278Y0103892D01*
X0181288Y0103944D01*
X0181301Y0103995D01*
X0181317Y0104044D01*
X0181337Y0104093D01*
X0181361Y0104139D01*
X0181387Y0104184D01*
X0181417Y0104227D01*
X0181450Y0104268D01*
X0181486Y0104306D01*
X0181524Y0104342D01*
X0181565Y0104375D01*
X0181608Y0104405D01*
X0181653Y0104431D01*
X0181700Y0104455D01*
X0181748Y0104475D01*
X0181797Y0104491D01*
X0181848Y0104504D01*
X0181900Y0104514D01*
X0181952Y0104519D01*
X0182004Y0104521D01*
X0182004Y0104522D02*
X0184204Y0104522D01*
X0184204Y0102566D02*
X0181271Y0102566D01*
X0181271Y0106766D02*
X0181271Y0107988D01*
X0181273Y0108040D01*
X0181278Y0108092D01*
X0181288Y0108144D01*
X0181301Y0108195D01*
X0181317Y0108244D01*
X0181337Y0108293D01*
X0181361Y0108339D01*
X0181387Y0108384D01*
X0181417Y0108427D01*
X0181450Y0108468D01*
X0181486Y0108506D01*
X0181524Y0108542D01*
X0181565Y0108575D01*
X0181608Y0108605D01*
X0181653Y0108631D01*
X0181700Y0108655D01*
X0181748Y0108675D01*
X0181797Y0108691D01*
X0181848Y0108704D01*
X0181900Y0108714D01*
X0181952Y0108719D01*
X0182004Y0108721D01*
X0182004Y0108722D02*
X0184204Y0108722D01*
X0184204Y0106766D02*
X0181271Y0106766D01*
X0181271Y0111031D02*
X0181271Y0112009D01*
X0181273Y0112061D01*
X0181278Y0112113D01*
X0181288Y0112165D01*
X0181301Y0112216D01*
X0181317Y0112265D01*
X0181337Y0112314D01*
X0181361Y0112360D01*
X0181387Y0112405D01*
X0181417Y0112448D01*
X0181450Y0112489D01*
X0181486Y0112527D01*
X0181524Y0112563D01*
X0181565Y0112596D01*
X0181608Y0112626D01*
X0181653Y0112652D01*
X0181700Y0112676D01*
X0181748Y0112696D01*
X0181797Y0112712D01*
X0181848Y0112725D01*
X0181900Y0112735D01*
X0181952Y0112740D01*
X0182004Y0112742D01*
X0182004Y0112743D02*
X0184204Y0112743D01*
X0184204Y0111643D01*
X0184202Y0111586D01*
X0184196Y0111529D01*
X0184187Y0111472D01*
X0184174Y0111417D01*
X0184157Y0111362D01*
X0184136Y0111309D01*
X0184112Y0111257D01*
X0184085Y0111207D01*
X0184054Y0111159D01*
X0184020Y0111112D01*
X0183983Y0111069D01*
X0183943Y0111028D01*
X0183901Y0110989D01*
X0183856Y0110954D01*
X0183809Y0110921D01*
X0183759Y0110892D01*
X0183708Y0110867D01*
X0183656Y0110844D01*
X0183602Y0110825D01*
X0183546Y0110810D01*
X0183490Y0110799D01*
X0183434Y0110791D01*
X0183377Y0110787D01*
X0183319Y0110787D01*
X0183262Y0110791D01*
X0183206Y0110799D01*
X0183150Y0110810D01*
X0183094Y0110825D01*
X0183040Y0110844D01*
X0182988Y0110867D01*
X0182937Y0110892D01*
X0182887Y0110921D01*
X0182840Y0110954D01*
X0182795Y0110989D01*
X0182753Y0111028D01*
X0182713Y0111069D01*
X0182676Y0111112D01*
X0182642Y0111159D01*
X0182611Y0111207D01*
X0182584Y0111257D01*
X0182560Y0111309D01*
X0182539Y0111362D01*
X0182522Y0111417D01*
X0182509Y0111472D01*
X0182500Y0111529D01*
X0182494Y0111586D01*
X0182492Y0111643D01*
X0182493Y0111643D02*
X0182493Y0112743D01*
X0184204Y0096732D02*
X0184204Y0096487D01*
X0184202Y0096435D01*
X0184197Y0096383D01*
X0184187Y0096331D01*
X0184174Y0096280D01*
X0184158Y0096231D01*
X0184138Y0096183D01*
X0184114Y0096136D01*
X0184088Y0096091D01*
X0184058Y0096048D01*
X0184025Y0096007D01*
X0183989Y0095969D01*
X0183951Y0095933D01*
X0183910Y0095900D01*
X0183867Y0095870D01*
X0183822Y0095844D01*
X0183776Y0095820D01*
X0183727Y0095800D01*
X0183678Y0095784D01*
X0183627Y0095771D01*
X0183575Y0095761D01*
X0183523Y0095756D01*
X0183471Y0095754D01*
X0107141Y0129993D02*
X0106419Y0129993D01*
X0107141Y0129993D02*
X0107194Y0129995D01*
X0107246Y0130001D01*
X0107298Y0130010D01*
X0107349Y0130024D01*
X0107399Y0130041D01*
X0107447Y0130061D01*
X0107494Y0130085D01*
X0107539Y0130113D01*
X0107582Y0130144D01*
X0107623Y0130177D01*
X0107661Y0130214D01*
X0107696Y0130253D01*
X0107728Y0130295D01*
X0107757Y0130339D01*
X0107783Y0130385D01*
X0107805Y0130433D01*
X0107824Y0130482D01*
X0107840Y0130532D01*
X0107851Y0130584D01*
X0107859Y0130636D01*
X0107863Y0130689D01*
X0107863Y0130741D01*
X0107859Y0130794D01*
X0107851Y0130846D01*
X0107840Y0130898D01*
X0107824Y0130948D01*
X0107805Y0130997D01*
X0107783Y0131045D01*
X0107757Y0131091D01*
X0107728Y0131135D01*
X0107696Y0131177D01*
X0107661Y0131216D01*
X0107623Y0131253D01*
X0107582Y0131286D01*
X0107539Y0131317D01*
X0107494Y0131345D01*
X0107447Y0131369D01*
X0107399Y0131389D01*
X0107349Y0131406D01*
X0107298Y0131420D01*
X0107246Y0131429D01*
X0107194Y0131435D01*
X0107141Y0131437D01*
X0107285Y0131437D02*
X0106708Y0131437D01*
X0107285Y0131437D02*
X0107332Y0131439D01*
X0107378Y0131444D01*
X0107423Y0131454D01*
X0107468Y0131467D01*
X0107512Y0131483D01*
X0107554Y0131503D01*
X0107594Y0131526D01*
X0107632Y0131553D01*
X0107668Y0131582D01*
X0107702Y0131615D01*
X0107733Y0131649D01*
X0107761Y0131687D01*
X0107786Y0131726D01*
X0107807Y0131767D01*
X0107825Y0131810D01*
X0107840Y0131854D01*
X0107851Y0131899D01*
X0107859Y0131945D01*
X0107863Y0131992D01*
X0107863Y0132038D01*
X0107859Y0132085D01*
X0107851Y0132131D01*
X0107840Y0132176D01*
X0107825Y0132220D01*
X0107807Y0132263D01*
X0107786Y0132304D01*
X0107761Y0132343D01*
X0107733Y0132381D01*
X0107702Y0132415D01*
X0107668Y0132448D01*
X0107632Y0132477D01*
X0107594Y0132504D01*
X0107554Y0132527D01*
X0107512Y0132547D01*
X0107468Y0132563D01*
X0107423Y0132576D01*
X0107378Y0132586D01*
X0107332Y0132591D01*
X0107285Y0132593D01*
X0106419Y0132593D01*
X0105160Y0132593D02*
X0104582Y0132593D01*
X0104583Y0132593D02*
X0104535Y0132591D01*
X0104488Y0132585D01*
X0104441Y0132575D01*
X0104395Y0132562D01*
X0104351Y0132544D01*
X0104308Y0132523D01*
X0104267Y0132499D01*
X0104228Y0132471D01*
X0104192Y0132440D01*
X0104158Y0132406D01*
X0104127Y0132370D01*
X0104099Y0132331D01*
X0104075Y0132290D01*
X0104054Y0132247D01*
X0104036Y0132203D01*
X0104023Y0132157D01*
X0104013Y0132110D01*
X0104007Y0132063D01*
X0104005Y0132015D01*
X0104005Y0130571D01*
X0104004Y0130571D02*
X0104006Y0130526D01*
X0104011Y0130481D01*
X0104020Y0130436D01*
X0104032Y0130392D01*
X0104048Y0130350D01*
X0104067Y0130309D01*
X0104089Y0130269D01*
X0104114Y0130231D01*
X0104142Y0130196D01*
X0104173Y0130162D01*
X0104207Y0130131D01*
X0104242Y0130103D01*
X0104280Y0130078D01*
X0104320Y0130056D01*
X0104361Y0130037D01*
X0104403Y0130021D01*
X0104447Y0130009D01*
X0104492Y0130000D01*
X0104537Y0129995D01*
X0104582Y0129993D01*
X0105160Y0129993D01*
X0081465Y0119626D02*
X0080238Y0118182D01*
X0081682Y0118182D01*
X0080238Y0120204D02*
X0080256Y0120256D01*
X0080279Y0120307D01*
X0080304Y0120356D01*
X0080333Y0120403D01*
X0080364Y0120448D01*
X0080399Y0120491D01*
X0080436Y0120532D01*
X0080476Y0120570D01*
X0080519Y0120606D01*
X0080563Y0120638D01*
X0080610Y0120668D01*
X0080659Y0120694D01*
X0080709Y0120717D01*
X0080761Y0120737D01*
X0080814Y0120753D01*
X0080867Y0120766D01*
X0080922Y0120775D01*
X0080977Y0120780D01*
X0081032Y0120782D01*
X0081081Y0120780D01*
X0081129Y0120775D01*
X0081177Y0120766D01*
X0081224Y0120753D01*
X0081269Y0120737D01*
X0081314Y0120718D01*
X0081357Y0120695D01*
X0081398Y0120669D01*
X0081437Y0120640D01*
X0081474Y0120608D01*
X0081508Y0120574D01*
X0081540Y0120537D01*
X0081569Y0120498D01*
X0081595Y0120457D01*
X0081618Y0120414D01*
X0081637Y0120369D01*
X0081653Y0120324D01*
X0081666Y0120277D01*
X0081675Y0120229D01*
X0081680Y0120181D01*
X0081682Y0120132D01*
X0081680Y0120081D01*
X0081674Y0120030D01*
X0081665Y0119979D01*
X0081652Y0119929D01*
X0081635Y0119881D01*
X0081615Y0119834D01*
X0081591Y0119788D01*
X0081564Y0119744D01*
X0081534Y0119703D01*
X0081501Y0119663D01*
X0081465Y0119627D01*
X0078979Y0120782D02*
X0078401Y0120782D01*
X0078353Y0120780D01*
X0078306Y0120774D01*
X0078259Y0120764D01*
X0078213Y0120751D01*
X0078169Y0120733D01*
X0078126Y0120712D01*
X0078085Y0120688D01*
X0078046Y0120660D01*
X0078010Y0120629D01*
X0077976Y0120595D01*
X0077945Y0120559D01*
X0077917Y0120520D01*
X0077893Y0120479D01*
X0077872Y0120436D01*
X0077854Y0120392D01*
X0077841Y0120346D01*
X0077831Y0120299D01*
X0077825Y0120252D01*
X0077823Y0120204D01*
X0077824Y0120204D02*
X0077824Y0118760D01*
X0077823Y0118760D02*
X0077825Y0118715D01*
X0077830Y0118670D01*
X0077839Y0118625D01*
X0077851Y0118581D01*
X0077867Y0118539D01*
X0077886Y0118498D01*
X0077908Y0118458D01*
X0077933Y0118420D01*
X0077961Y0118385D01*
X0077992Y0118351D01*
X0078026Y0118320D01*
X0078061Y0118292D01*
X0078099Y0118267D01*
X0078139Y0118245D01*
X0078180Y0118226D01*
X0078222Y0118210D01*
X0078266Y0118198D01*
X0078311Y0118189D01*
X0078356Y0118184D01*
X0078401Y0118182D01*
X0078979Y0118182D01*
X0089942Y0111252D02*
X0089942Y0110385D01*
X0089942Y0111252D02*
X0089944Y0111299D01*
X0089949Y0111345D01*
X0089959Y0111390D01*
X0089972Y0111435D01*
X0089988Y0111479D01*
X0090008Y0111521D01*
X0090031Y0111561D01*
X0090058Y0111599D01*
X0090087Y0111635D01*
X0090120Y0111669D01*
X0090154Y0111700D01*
X0090192Y0111728D01*
X0090231Y0111753D01*
X0090272Y0111774D01*
X0090315Y0111792D01*
X0090359Y0111807D01*
X0090404Y0111818D01*
X0090450Y0111826D01*
X0090497Y0111830D01*
X0090543Y0111830D01*
X0090590Y0111826D01*
X0090636Y0111818D01*
X0090681Y0111807D01*
X0090725Y0111792D01*
X0090768Y0111774D01*
X0090809Y0111753D01*
X0090848Y0111728D01*
X0090886Y0111700D01*
X0090920Y0111669D01*
X0090953Y0111635D01*
X0090982Y0111599D01*
X0091009Y0111561D01*
X0091032Y0111521D01*
X0091052Y0111479D01*
X0091068Y0111435D01*
X0091081Y0111390D01*
X0091091Y0111345D01*
X0091096Y0111299D01*
X0091098Y0111252D01*
X0091097Y0111252D02*
X0091097Y0110674D01*
X0091098Y0111108D02*
X0091100Y0111161D01*
X0091106Y0111213D01*
X0091115Y0111265D01*
X0091129Y0111316D01*
X0091146Y0111366D01*
X0091166Y0111414D01*
X0091190Y0111461D01*
X0091218Y0111506D01*
X0091249Y0111549D01*
X0091282Y0111590D01*
X0091319Y0111628D01*
X0091358Y0111663D01*
X0091400Y0111695D01*
X0091444Y0111724D01*
X0091490Y0111750D01*
X0091538Y0111772D01*
X0091587Y0111791D01*
X0091637Y0111807D01*
X0091689Y0111818D01*
X0091741Y0111826D01*
X0091794Y0111830D01*
X0091846Y0111830D01*
X0091899Y0111826D01*
X0091951Y0111818D01*
X0092003Y0111807D01*
X0092053Y0111791D01*
X0092102Y0111772D01*
X0092150Y0111750D01*
X0092196Y0111724D01*
X0092240Y0111695D01*
X0092282Y0111663D01*
X0092321Y0111628D01*
X0092358Y0111590D01*
X0092391Y0111549D01*
X0092422Y0111506D01*
X0092450Y0111461D01*
X0092474Y0111414D01*
X0092494Y0111366D01*
X0092511Y0111316D01*
X0092525Y0111265D01*
X0092534Y0111213D01*
X0092540Y0111161D01*
X0092542Y0111108D01*
X0092542Y0110385D01*
X0091820Y0108854D02*
X0089942Y0108854D01*
X0089942Y0107409D02*
X0091820Y0107409D01*
X0091820Y0107410D02*
X0091873Y0107412D01*
X0091925Y0107418D01*
X0091977Y0107427D01*
X0092028Y0107441D01*
X0092078Y0107458D01*
X0092126Y0107478D01*
X0092173Y0107502D01*
X0092218Y0107530D01*
X0092261Y0107561D01*
X0092302Y0107594D01*
X0092340Y0107631D01*
X0092375Y0107670D01*
X0092407Y0107712D01*
X0092436Y0107756D01*
X0092462Y0107802D01*
X0092484Y0107850D01*
X0092503Y0107899D01*
X0092519Y0107949D01*
X0092530Y0108001D01*
X0092538Y0108053D01*
X0092542Y0108106D01*
X0092542Y0108158D01*
X0092538Y0108211D01*
X0092530Y0108263D01*
X0092519Y0108315D01*
X0092503Y0108365D01*
X0092484Y0108414D01*
X0092462Y0108462D01*
X0092436Y0108508D01*
X0092407Y0108552D01*
X0092375Y0108594D01*
X0092340Y0108633D01*
X0092302Y0108670D01*
X0092261Y0108703D01*
X0092218Y0108734D01*
X0092173Y0108762D01*
X0092126Y0108786D01*
X0092078Y0108806D01*
X0092028Y0108823D01*
X0091977Y0108837D01*
X0091925Y0108846D01*
X0091873Y0108852D01*
X0091820Y0108854D01*
X0092794Y0107706D02*
X0092794Y0106261D01*
X0092794Y0106983D02*
X0090194Y0106983D01*
X0090772Y0106261D01*
X0090194Y0105003D02*
X0090194Y0104425D01*
X0090196Y0104377D01*
X0090202Y0104330D01*
X0090212Y0104283D01*
X0090225Y0104237D01*
X0090243Y0104193D01*
X0090264Y0104150D01*
X0090288Y0104109D01*
X0090316Y0104070D01*
X0090347Y0104034D01*
X0090381Y0104000D01*
X0090417Y0103969D01*
X0090456Y0103941D01*
X0090497Y0103917D01*
X0090540Y0103896D01*
X0090584Y0103878D01*
X0090630Y0103865D01*
X0090677Y0103855D01*
X0090724Y0103849D01*
X0090772Y0103847D01*
X0092217Y0103847D01*
X0092265Y0103849D01*
X0092312Y0103855D01*
X0092359Y0103865D01*
X0092405Y0103878D01*
X0092449Y0103896D01*
X0092492Y0103917D01*
X0092533Y0103941D01*
X0092572Y0103969D01*
X0092608Y0104000D01*
X0092642Y0104034D01*
X0092673Y0104070D01*
X0092701Y0104109D01*
X0092725Y0104150D01*
X0092746Y0104193D01*
X0092764Y0104237D01*
X0092777Y0104283D01*
X0092787Y0104330D01*
X0092793Y0104377D01*
X0092795Y0104425D01*
X0092794Y0104425D02*
X0092794Y0105003D01*
X0077046Y0105696D02*
X0077046Y0107141D01*
X0077046Y0106418D02*
X0074446Y0106418D01*
X0075024Y0105696D01*
X0075891Y0103714D02*
X0077046Y0104292D01*
X0075891Y0103569D02*
X0075891Y0102847D01*
X0075891Y0103569D02*
X0075889Y0103622D01*
X0075883Y0103674D01*
X0075874Y0103726D01*
X0075860Y0103777D01*
X0075843Y0103827D01*
X0075823Y0103875D01*
X0075799Y0103922D01*
X0075771Y0103967D01*
X0075740Y0104010D01*
X0075707Y0104051D01*
X0075670Y0104089D01*
X0075631Y0104124D01*
X0075589Y0104156D01*
X0075545Y0104185D01*
X0075499Y0104211D01*
X0075451Y0104233D01*
X0075402Y0104252D01*
X0075352Y0104268D01*
X0075300Y0104279D01*
X0075248Y0104287D01*
X0075195Y0104291D01*
X0075143Y0104291D01*
X0075090Y0104287D01*
X0075038Y0104279D01*
X0074986Y0104268D01*
X0074936Y0104252D01*
X0074887Y0104233D01*
X0074839Y0104211D01*
X0074793Y0104185D01*
X0074749Y0104156D01*
X0074707Y0104124D01*
X0074668Y0104089D01*
X0074631Y0104051D01*
X0074598Y0104010D01*
X0074567Y0103967D01*
X0074539Y0103922D01*
X0074515Y0103875D01*
X0074495Y0103827D01*
X0074478Y0103777D01*
X0074464Y0103726D01*
X0074455Y0103674D01*
X0074449Y0103622D01*
X0074447Y0103569D01*
X0074446Y0103569D02*
X0074446Y0102847D01*
X0077046Y0102847D01*
X0070634Y0094799D02*
X0070264Y0094799D01*
X0070634Y0094799D02*
X0070634Y0088421D01*
X0070264Y0088421D01*
X0067091Y0088421D02*
X0062980Y0088421D01*
X0059807Y0088421D02*
X0059437Y0088421D01*
X0059437Y0094799D01*
X0059807Y0094799D01*
X0062980Y0094799D02*
X0063350Y0094799D01*
X0066720Y0094799D02*
X0067091Y0094799D01*
X0084520Y0084676D02*
X0084520Y0083954D01*
X0087120Y0083954D01*
X0085965Y0083954D02*
X0085965Y0084676D01*
X0085965Y0084820D02*
X0087120Y0085398D01*
X0086398Y0086803D02*
X0085676Y0086803D01*
X0085676Y0087669D01*
X0085676Y0086802D02*
X0085609Y0086804D01*
X0085542Y0086810D01*
X0085475Y0086820D01*
X0085409Y0086833D01*
X0085344Y0086851D01*
X0085281Y0086872D01*
X0085218Y0086897D01*
X0085157Y0086925D01*
X0085098Y0086957D01*
X0085041Y0086992D01*
X0084986Y0087031D01*
X0084933Y0087072D01*
X0084883Y0087117D01*
X0084835Y0087165D01*
X0084790Y0087215D01*
X0084749Y0087268D01*
X0084710Y0087323D01*
X0084675Y0087380D01*
X0084643Y0087439D01*
X0084615Y0087500D01*
X0084590Y0087563D01*
X0084569Y0087626D01*
X0084551Y0087691D01*
X0084538Y0087757D01*
X0084528Y0087824D01*
X0084522Y0087891D01*
X0084520Y0087958D01*
X0085676Y0087669D02*
X0085678Y0087714D01*
X0085683Y0087759D01*
X0085692Y0087804D01*
X0085704Y0087848D01*
X0085720Y0087890D01*
X0085739Y0087931D01*
X0085761Y0087971D01*
X0085786Y0088009D01*
X0085814Y0088044D01*
X0085845Y0088078D01*
X0085879Y0088109D01*
X0085914Y0088137D01*
X0085952Y0088162D01*
X0085992Y0088184D01*
X0086033Y0088203D01*
X0086075Y0088219D01*
X0086119Y0088231D01*
X0086164Y0088240D01*
X0086209Y0088245D01*
X0086254Y0088247D01*
X0086398Y0088247D01*
X0086451Y0088245D01*
X0086503Y0088239D01*
X0086555Y0088230D01*
X0086606Y0088216D01*
X0086656Y0088199D01*
X0086704Y0088179D01*
X0086751Y0088155D01*
X0086796Y0088127D01*
X0086839Y0088096D01*
X0086880Y0088063D01*
X0086918Y0088026D01*
X0086953Y0087987D01*
X0086985Y0087945D01*
X0087014Y0087901D01*
X0087040Y0087855D01*
X0087062Y0087807D01*
X0087081Y0087758D01*
X0087097Y0087708D01*
X0087108Y0087656D01*
X0087116Y0087604D01*
X0087120Y0087551D01*
X0087120Y0087499D01*
X0087116Y0087446D01*
X0087108Y0087394D01*
X0087097Y0087342D01*
X0087081Y0087292D01*
X0087062Y0087243D01*
X0087040Y0087195D01*
X0087014Y0087149D01*
X0086985Y0087105D01*
X0086953Y0087063D01*
X0086918Y0087024D01*
X0086880Y0086987D01*
X0086839Y0086954D01*
X0086796Y0086923D01*
X0086751Y0086895D01*
X0086704Y0086871D01*
X0086656Y0086851D01*
X0086606Y0086834D01*
X0086555Y0086820D01*
X0086503Y0086811D01*
X0086451Y0086805D01*
X0086398Y0086803D01*
X0085965Y0084676D02*
X0085963Y0084729D01*
X0085957Y0084781D01*
X0085948Y0084833D01*
X0085934Y0084884D01*
X0085917Y0084934D01*
X0085897Y0084982D01*
X0085873Y0085029D01*
X0085845Y0085074D01*
X0085814Y0085117D01*
X0085781Y0085158D01*
X0085744Y0085196D01*
X0085705Y0085231D01*
X0085663Y0085263D01*
X0085619Y0085292D01*
X0085573Y0085318D01*
X0085525Y0085340D01*
X0085476Y0085359D01*
X0085426Y0085375D01*
X0085374Y0085386D01*
X0085322Y0085394D01*
X0085269Y0085398D01*
X0085217Y0085398D01*
X0085164Y0085394D01*
X0085112Y0085386D01*
X0085060Y0085375D01*
X0085010Y0085359D01*
X0084961Y0085340D01*
X0084913Y0085318D01*
X0084867Y0085292D01*
X0084823Y0085263D01*
X0084781Y0085231D01*
X0084742Y0085196D01*
X0084705Y0085158D01*
X0084672Y0085117D01*
X0084641Y0085074D01*
X0084613Y0085029D01*
X0084589Y0084982D01*
X0084569Y0084934D01*
X0084552Y0084884D01*
X0084538Y0084833D01*
X0084529Y0084781D01*
X0084523Y0084729D01*
X0084521Y0084676D01*
X0100269Y0084676D02*
X0100269Y0083954D01*
X0102869Y0083954D01*
X0101713Y0083954D02*
X0101713Y0084676D01*
X0101713Y0084820D02*
X0102869Y0085398D01*
X0102869Y0086803D02*
X0102869Y0087669D01*
X0102867Y0087717D01*
X0102861Y0087764D01*
X0102851Y0087811D01*
X0102838Y0087857D01*
X0102820Y0087901D01*
X0102799Y0087944D01*
X0102775Y0087985D01*
X0102747Y0088024D01*
X0102716Y0088060D01*
X0102682Y0088094D01*
X0102646Y0088125D01*
X0102607Y0088153D01*
X0102566Y0088177D01*
X0102523Y0088198D01*
X0102479Y0088216D01*
X0102433Y0088229D01*
X0102386Y0088239D01*
X0102339Y0088245D01*
X0102291Y0088247D01*
X0102002Y0088247D01*
X0101957Y0088245D01*
X0101912Y0088240D01*
X0101867Y0088231D01*
X0101823Y0088219D01*
X0101781Y0088203D01*
X0101740Y0088184D01*
X0101700Y0088162D01*
X0101662Y0088137D01*
X0101627Y0088109D01*
X0101593Y0088078D01*
X0101562Y0088044D01*
X0101534Y0088009D01*
X0101509Y0087971D01*
X0101487Y0087931D01*
X0101468Y0087890D01*
X0101452Y0087848D01*
X0101440Y0087804D01*
X0101431Y0087759D01*
X0101426Y0087714D01*
X0101424Y0087669D01*
X0101424Y0086803D01*
X0100269Y0086803D01*
X0100269Y0088247D01*
X0100269Y0084676D02*
X0100271Y0084729D01*
X0100277Y0084781D01*
X0100286Y0084833D01*
X0100300Y0084884D01*
X0100317Y0084934D01*
X0100337Y0084982D01*
X0100361Y0085029D01*
X0100389Y0085074D01*
X0100420Y0085117D01*
X0100453Y0085158D01*
X0100490Y0085196D01*
X0100529Y0085231D01*
X0100571Y0085263D01*
X0100615Y0085292D01*
X0100661Y0085318D01*
X0100709Y0085340D01*
X0100758Y0085359D01*
X0100808Y0085375D01*
X0100860Y0085386D01*
X0100912Y0085394D01*
X0100965Y0085398D01*
X0101017Y0085398D01*
X0101070Y0085394D01*
X0101122Y0085386D01*
X0101174Y0085375D01*
X0101224Y0085359D01*
X0101273Y0085340D01*
X0101321Y0085318D01*
X0101367Y0085292D01*
X0101411Y0085263D01*
X0101453Y0085231D01*
X0101492Y0085196D01*
X0101529Y0085158D01*
X0101562Y0085117D01*
X0101593Y0085074D01*
X0101621Y0085029D01*
X0101645Y0084982D01*
X0101665Y0084934D01*
X0101682Y0084884D01*
X0101696Y0084833D01*
X0101705Y0084781D01*
X0101711Y0084729D01*
X0101713Y0084676D01*
X0060110Y0114493D02*
X0058666Y0114493D01*
X0059894Y0115937D01*
X0059460Y0117093D02*
X0059405Y0117091D01*
X0059350Y0117086D01*
X0059295Y0117077D01*
X0059242Y0117064D01*
X0059189Y0117048D01*
X0059137Y0117028D01*
X0059087Y0117005D01*
X0059038Y0116979D01*
X0058991Y0116949D01*
X0058947Y0116917D01*
X0058904Y0116881D01*
X0058864Y0116843D01*
X0058827Y0116802D01*
X0058792Y0116759D01*
X0058761Y0116714D01*
X0058732Y0116667D01*
X0058707Y0116618D01*
X0058684Y0116567D01*
X0058666Y0116515D01*
X0058406Y0116317D02*
X0059561Y0116894D01*
X0059460Y0117093D02*
X0059509Y0117091D01*
X0059557Y0117086D01*
X0059605Y0117077D01*
X0059652Y0117064D01*
X0059697Y0117048D01*
X0059742Y0117029D01*
X0059785Y0117006D01*
X0059826Y0116980D01*
X0059865Y0116951D01*
X0059902Y0116919D01*
X0059936Y0116885D01*
X0059968Y0116848D01*
X0059997Y0116809D01*
X0060023Y0116768D01*
X0060046Y0116725D01*
X0060065Y0116680D01*
X0060081Y0116635D01*
X0060094Y0116588D01*
X0060103Y0116540D01*
X0060108Y0116492D01*
X0060110Y0116443D01*
X0060108Y0116392D01*
X0060102Y0116341D01*
X0060093Y0116290D01*
X0060080Y0116240D01*
X0060063Y0116192D01*
X0060043Y0116145D01*
X0060019Y0116099D01*
X0059992Y0116055D01*
X0059962Y0116014D01*
X0059929Y0115974D01*
X0059893Y0115938D01*
X0059561Y0115450D02*
X0056961Y0115450D01*
X0056961Y0116172D01*
X0057134Y0116371D02*
X0057134Y0115215D01*
X0057132Y0115163D01*
X0057127Y0115112D01*
X0057118Y0115062D01*
X0057105Y0115012D01*
X0057088Y0114963D01*
X0057069Y0114915D01*
X0057046Y0114869D01*
X0057019Y0114825D01*
X0056990Y0114782D01*
X0056958Y0114742D01*
X0056923Y0114704D01*
X0056885Y0114669D01*
X0056845Y0114637D01*
X0056802Y0114608D01*
X0056758Y0114581D01*
X0056712Y0114558D01*
X0056664Y0114539D01*
X0056615Y0114522D01*
X0056565Y0114509D01*
X0056515Y0114500D01*
X0056464Y0114495D01*
X0056412Y0114493D01*
X0055690Y0114493D01*
X0055690Y0117093D01*
X0056412Y0117093D01*
X0056464Y0117091D01*
X0056515Y0117086D01*
X0056565Y0117077D01*
X0056615Y0117064D01*
X0056664Y0117047D01*
X0056712Y0117028D01*
X0056758Y0117005D01*
X0056802Y0116978D01*
X0056845Y0116949D01*
X0056885Y0116917D01*
X0056923Y0116882D01*
X0056958Y0116844D01*
X0056990Y0116804D01*
X0057019Y0116761D01*
X0057046Y0116717D01*
X0057069Y0116671D01*
X0057088Y0116623D01*
X0057105Y0116574D01*
X0057118Y0116524D01*
X0057127Y0116474D01*
X0057132Y0116423D01*
X0057134Y0116371D01*
X0056962Y0116172D02*
X0056964Y0116225D01*
X0056970Y0116277D01*
X0056979Y0116329D01*
X0056993Y0116380D01*
X0057010Y0116430D01*
X0057030Y0116478D01*
X0057054Y0116525D01*
X0057082Y0116570D01*
X0057113Y0116613D01*
X0057146Y0116654D01*
X0057183Y0116692D01*
X0057222Y0116727D01*
X0057264Y0116759D01*
X0057308Y0116788D01*
X0057354Y0116814D01*
X0057402Y0116836D01*
X0057451Y0116855D01*
X0057501Y0116871D01*
X0057553Y0116882D01*
X0057605Y0116890D01*
X0057658Y0116894D01*
X0057710Y0116894D01*
X0057763Y0116890D01*
X0057815Y0116882D01*
X0057867Y0116871D01*
X0057917Y0116855D01*
X0057966Y0116836D01*
X0058014Y0116814D01*
X0058060Y0116788D01*
X0058104Y0116759D01*
X0058146Y0116727D01*
X0058185Y0116692D01*
X0058222Y0116654D01*
X0058255Y0116613D01*
X0058286Y0116570D01*
X0058314Y0116525D01*
X0058338Y0116478D01*
X0058358Y0116430D01*
X0058375Y0116380D01*
X0058389Y0116329D01*
X0058398Y0116277D01*
X0058404Y0116225D01*
X0058406Y0116172D01*
X0058406Y0115450D01*
X0058984Y0118299D02*
X0058984Y0119743D01*
X0059561Y0119310D02*
X0058406Y0119310D01*
X0058984Y0118299D02*
X0056961Y0118877D01*
X0044987Y0120343D02*
X0044987Y0121499D01*
X0044987Y0120343D02*
X0042387Y0120343D01*
X0042387Y0122839D02*
X0042387Y0123995D01*
X0042387Y0122839D02*
X0044987Y0122839D01*
X0044987Y0123995D01*
X0044987Y0125326D02*
X0044987Y0126048D01*
X0044985Y0126100D01*
X0044980Y0126151D01*
X0044971Y0126201D01*
X0044958Y0126251D01*
X0044941Y0126300D01*
X0044922Y0126348D01*
X0044899Y0126394D01*
X0044872Y0126438D01*
X0044843Y0126481D01*
X0044811Y0126521D01*
X0044776Y0126559D01*
X0044738Y0126594D01*
X0044698Y0126626D01*
X0044655Y0126655D01*
X0044611Y0126682D01*
X0044565Y0126705D01*
X0044517Y0126724D01*
X0044468Y0126741D01*
X0044418Y0126754D01*
X0044368Y0126763D01*
X0044317Y0126768D01*
X0044265Y0126770D01*
X0043110Y0126770D01*
X0043059Y0126768D01*
X0043007Y0126763D01*
X0042957Y0126754D01*
X0042907Y0126741D01*
X0042858Y0126724D01*
X0042810Y0126705D01*
X0042764Y0126682D01*
X0042720Y0126655D01*
X0042677Y0126626D01*
X0042637Y0126594D01*
X0042599Y0126559D01*
X0042564Y0126521D01*
X0042532Y0126481D01*
X0042503Y0126438D01*
X0042476Y0126394D01*
X0042453Y0126348D01*
X0042434Y0126300D01*
X0042417Y0126251D01*
X0042405Y0126201D01*
X0042395Y0126151D01*
X0042390Y0126100D01*
X0042388Y0126048D01*
X0042387Y0126048D02*
X0042387Y0125326D01*
X0044987Y0125326D01*
X0043543Y0123706D02*
X0043543Y0122839D01*
X0042965Y0128302D02*
X0042387Y0129024D01*
X0044987Y0129024D01*
X0044987Y0128302D02*
X0044987Y0129746D01*
X0042123Y0105893D02*
X0042123Y0103293D01*
X0041401Y0103293D02*
X0042846Y0103293D01*
X0041401Y0105315D02*
X0042123Y0105893D01*
X0039870Y0105171D02*
X0039870Y0104015D01*
X0039869Y0104015D02*
X0039867Y0103963D01*
X0039862Y0103912D01*
X0039853Y0103862D01*
X0039840Y0103812D01*
X0039823Y0103763D01*
X0039804Y0103715D01*
X0039781Y0103669D01*
X0039754Y0103625D01*
X0039725Y0103582D01*
X0039693Y0103542D01*
X0039658Y0103504D01*
X0039620Y0103469D01*
X0039580Y0103437D01*
X0039537Y0103408D01*
X0039493Y0103381D01*
X0039447Y0103358D01*
X0039399Y0103339D01*
X0039350Y0103322D01*
X0039300Y0103309D01*
X0039250Y0103300D01*
X0039199Y0103295D01*
X0039147Y0103293D01*
X0038425Y0103293D01*
X0038425Y0105893D01*
X0039147Y0105893D01*
X0039199Y0105891D01*
X0039250Y0105886D01*
X0039300Y0105877D01*
X0039350Y0105864D01*
X0039399Y0105847D01*
X0039447Y0105828D01*
X0039493Y0105805D01*
X0039537Y0105778D01*
X0039580Y0105749D01*
X0039620Y0105717D01*
X0039658Y0105682D01*
X0039693Y0105644D01*
X0039725Y0105604D01*
X0039754Y0105561D01*
X0039781Y0105517D01*
X0039804Y0105471D01*
X0039823Y0105423D01*
X0039840Y0105374D01*
X0039853Y0105324D01*
X0039862Y0105274D01*
X0039867Y0105223D01*
X0039869Y0105171D01*
D11*
X0041583Y0107437D02*
X0034709Y0107437D01*
X0036965Y0108618D02*
X0036965Y0111768D01*
X0039327Y0110193D01*
X0036965Y0108618D01*
X0037358Y0109406D02*
X0037358Y0110980D01*
X0038539Y0110193D01*
X0037358Y0109406D01*
X0037358Y0110177D02*
X0038516Y0110177D01*
X0037365Y0110976D02*
X0037358Y0110976D01*
X0034709Y0112949D02*
X0041583Y0112949D01*
X0045941Y0119563D02*
X0045941Y0134524D01*
X0052634Y0134524D01*
X0052634Y0119563D01*
X0045941Y0119563D01*
X0047713Y0126256D02*
X0050862Y0126256D01*
X0049287Y0127831D01*
X0047713Y0126256D01*
X0047713Y0127831D02*
X0049287Y0127831D01*
X0050862Y0127831D01*
X0054406Y0133343D02*
X0054406Y0120744D01*
X0059917Y0120744D01*
X0059917Y0133343D01*
X0054406Y0133343D01*
X0062437Y0121925D02*
X0076610Y0121925D01*
X0076610Y0114839D01*
X0062437Y0114839D01*
X0062437Y0121925D01*
X0063827Y0112949D02*
X0056953Y0112949D01*
X0059209Y0110193D02*
X0061571Y0108618D01*
X0061571Y0111768D01*
X0059209Y0110193D01*
X0059996Y0110193D02*
X0061177Y0109406D01*
X0061177Y0110980D01*
X0059996Y0110193D01*
X0060019Y0110177D02*
X0061177Y0110177D01*
X0061170Y0110976D02*
X0061177Y0110976D01*
X0063827Y0107437D02*
X0056953Y0107437D01*
X0074091Y0101846D02*
X0079602Y0101846D01*
X0079602Y0089248D01*
X0074091Y0089248D01*
X0074091Y0101846D01*
X0081965Y0101846D02*
X0087476Y0101846D01*
X0087476Y0089248D01*
X0081965Y0089248D01*
X0081965Y0101846D01*
X0089051Y0102634D02*
X0089051Y0088461D01*
X0096138Y0088461D01*
X0096138Y0102634D01*
X0089051Y0102634D01*
X0097713Y0101846D02*
X0103224Y0101846D01*
X0103224Y0089248D01*
X0097713Y0089248D01*
X0097713Y0101846D01*
X0092791Y0113421D02*
X0086492Y0113421D01*
X0092791Y0117358D02*
X0092791Y0120902D01*
X0092791Y0124839D02*
X0086492Y0124839D01*
X0088618Y0126650D02*
X0088618Y0133736D01*
X0102791Y0133736D01*
X0102791Y0126650D01*
X0088618Y0126650D01*
X0026649Y0127043D02*
X0026651Y0127212D01*
X0026657Y0127381D01*
X0026668Y0127550D01*
X0026682Y0127718D01*
X0026701Y0127886D01*
X0026724Y0128054D01*
X0026750Y0128221D01*
X0026781Y0128387D01*
X0026816Y0128553D01*
X0026855Y0128717D01*
X0026899Y0128881D01*
X0026946Y0129043D01*
X0026997Y0129204D01*
X0027052Y0129364D01*
X0027111Y0129523D01*
X0027173Y0129680D01*
X0027240Y0129835D01*
X0027311Y0129989D01*
X0027385Y0130141D01*
X0027463Y0130291D01*
X0027544Y0130439D01*
X0027629Y0130585D01*
X0027718Y0130729D01*
X0027810Y0130871D01*
X0027906Y0131010D01*
X0028005Y0131147D01*
X0028107Y0131282D01*
X0028213Y0131414D01*
X0028322Y0131543D01*
X0028434Y0131670D01*
X0028549Y0131794D01*
X0028667Y0131915D01*
X0028788Y0132033D01*
X0028912Y0132148D01*
X0029039Y0132260D01*
X0029168Y0132369D01*
X0029300Y0132475D01*
X0029435Y0132577D01*
X0029572Y0132676D01*
X0029711Y0132772D01*
X0029853Y0132864D01*
X0029997Y0132953D01*
X0030143Y0133038D01*
X0030291Y0133119D01*
X0030441Y0133197D01*
X0030593Y0133271D01*
X0030747Y0133342D01*
X0030902Y0133409D01*
X0031059Y0133471D01*
X0031218Y0133530D01*
X0031378Y0133585D01*
X0031539Y0133636D01*
X0031701Y0133683D01*
X0031865Y0133727D01*
X0032029Y0133766D01*
X0032195Y0133801D01*
X0032361Y0133832D01*
X0032528Y0133858D01*
X0032696Y0133881D01*
X0032864Y0133900D01*
X0033032Y0133914D01*
X0033201Y0133925D01*
X0033370Y0133931D01*
X0033539Y0133933D01*
X0033708Y0133931D01*
X0033877Y0133925D01*
X0034046Y0133914D01*
X0034214Y0133900D01*
X0034382Y0133881D01*
X0034550Y0133858D01*
X0034717Y0133832D01*
X0034883Y0133801D01*
X0035049Y0133766D01*
X0035213Y0133727D01*
X0035377Y0133683D01*
X0035539Y0133636D01*
X0035700Y0133585D01*
X0035860Y0133530D01*
X0036019Y0133471D01*
X0036176Y0133409D01*
X0036331Y0133342D01*
X0036485Y0133271D01*
X0036637Y0133197D01*
X0036787Y0133119D01*
X0036935Y0133038D01*
X0037081Y0132953D01*
X0037225Y0132864D01*
X0037367Y0132772D01*
X0037506Y0132676D01*
X0037643Y0132577D01*
X0037778Y0132475D01*
X0037910Y0132369D01*
X0038039Y0132260D01*
X0038166Y0132148D01*
X0038290Y0132033D01*
X0038411Y0131915D01*
X0038529Y0131794D01*
X0038644Y0131670D01*
X0038756Y0131543D01*
X0038865Y0131414D01*
X0038971Y0131282D01*
X0039073Y0131147D01*
X0039172Y0131010D01*
X0039268Y0130871D01*
X0039360Y0130729D01*
X0039449Y0130585D01*
X0039534Y0130439D01*
X0039615Y0130291D01*
X0039693Y0130141D01*
X0039767Y0129989D01*
X0039838Y0129835D01*
X0039905Y0129680D01*
X0039967Y0129523D01*
X0040026Y0129364D01*
X0040081Y0129204D01*
X0040132Y0129043D01*
X0040179Y0128881D01*
X0040223Y0128717D01*
X0040262Y0128553D01*
X0040297Y0128387D01*
X0040328Y0128221D01*
X0040354Y0128054D01*
X0040377Y0127886D01*
X0040396Y0127718D01*
X0040410Y0127550D01*
X0040421Y0127381D01*
X0040427Y0127212D01*
X0040429Y0127043D01*
X0040427Y0126874D01*
X0040421Y0126705D01*
X0040410Y0126536D01*
X0040396Y0126368D01*
X0040377Y0126200D01*
X0040354Y0126032D01*
X0040328Y0125865D01*
X0040297Y0125699D01*
X0040262Y0125533D01*
X0040223Y0125369D01*
X0040179Y0125205D01*
X0040132Y0125043D01*
X0040081Y0124882D01*
X0040026Y0124722D01*
X0039967Y0124563D01*
X0039905Y0124406D01*
X0039838Y0124251D01*
X0039767Y0124097D01*
X0039693Y0123945D01*
X0039615Y0123795D01*
X0039534Y0123647D01*
X0039449Y0123501D01*
X0039360Y0123357D01*
X0039268Y0123215D01*
X0039172Y0123076D01*
X0039073Y0122939D01*
X0038971Y0122804D01*
X0038865Y0122672D01*
X0038756Y0122543D01*
X0038644Y0122416D01*
X0038529Y0122292D01*
X0038411Y0122171D01*
X0038290Y0122053D01*
X0038166Y0121938D01*
X0038039Y0121826D01*
X0037910Y0121717D01*
X0037778Y0121611D01*
X0037643Y0121509D01*
X0037506Y0121410D01*
X0037367Y0121314D01*
X0037225Y0121222D01*
X0037081Y0121133D01*
X0036935Y0121048D01*
X0036787Y0120967D01*
X0036637Y0120889D01*
X0036485Y0120815D01*
X0036331Y0120744D01*
X0036176Y0120677D01*
X0036019Y0120615D01*
X0035860Y0120556D01*
X0035700Y0120501D01*
X0035539Y0120450D01*
X0035377Y0120403D01*
X0035213Y0120359D01*
X0035049Y0120320D01*
X0034883Y0120285D01*
X0034717Y0120254D01*
X0034550Y0120228D01*
X0034382Y0120205D01*
X0034214Y0120186D01*
X0034046Y0120172D01*
X0033877Y0120161D01*
X0033708Y0120155D01*
X0033539Y0120153D01*
X0033370Y0120155D01*
X0033201Y0120161D01*
X0033032Y0120172D01*
X0032864Y0120186D01*
X0032696Y0120205D01*
X0032528Y0120228D01*
X0032361Y0120254D01*
X0032195Y0120285D01*
X0032029Y0120320D01*
X0031865Y0120359D01*
X0031701Y0120403D01*
X0031539Y0120450D01*
X0031378Y0120501D01*
X0031218Y0120556D01*
X0031059Y0120615D01*
X0030902Y0120677D01*
X0030747Y0120744D01*
X0030593Y0120815D01*
X0030441Y0120889D01*
X0030291Y0120967D01*
X0030143Y0121048D01*
X0029997Y0121133D01*
X0029853Y0121222D01*
X0029711Y0121314D01*
X0029572Y0121410D01*
X0029435Y0121509D01*
X0029300Y0121611D01*
X0029168Y0121717D01*
X0029039Y0121826D01*
X0028912Y0121938D01*
X0028788Y0122053D01*
X0028667Y0122171D01*
X0028549Y0122292D01*
X0028434Y0122416D01*
X0028322Y0122543D01*
X0028213Y0122672D01*
X0028107Y0122804D01*
X0028005Y0122939D01*
X0027906Y0123076D01*
X0027810Y0123215D01*
X0027718Y0123357D01*
X0027629Y0123501D01*
X0027544Y0123647D01*
X0027463Y0123795D01*
X0027385Y0123945D01*
X0027311Y0124097D01*
X0027240Y0124251D01*
X0027173Y0124406D01*
X0027111Y0124563D01*
X0027052Y0124722D01*
X0026997Y0124882D01*
X0026946Y0125043D01*
X0026899Y0125205D01*
X0026855Y0125369D01*
X0026816Y0125533D01*
X0026781Y0125699D01*
X0026750Y0125865D01*
X0026724Y0126032D01*
X0026701Y0126200D01*
X0026682Y0126368D01*
X0026668Y0126536D01*
X0026657Y0126705D01*
X0026651Y0126874D01*
X0026649Y0127043D01*
X0121335Y0051059D02*
X0124484Y0051059D01*
X0121335Y0051059D02*
X0121335Y0049681D01*
X0131571Y0051059D02*
X0134720Y0051059D01*
X0134720Y0049681D01*
X0134720Y0039051D02*
X0134720Y0037673D01*
X0131571Y0037673D01*
X0124484Y0037673D02*
X0121335Y0037673D01*
X0121335Y0039051D01*
X0145350Y0039248D02*
X0145350Y0033736D01*
X0157949Y0033736D01*
X0157949Y0039248D01*
X0145350Y0039248D01*
X0145350Y0031374D02*
X0157949Y0031374D01*
X0157949Y0025862D01*
X0145350Y0025862D01*
X0145350Y0031374D01*
X0171728Y0029209D02*
X0171728Y0035902D01*
X0186689Y0035902D01*
X0186689Y0029209D01*
X0171728Y0029209D01*
X0178421Y0030980D02*
X0178421Y0032555D01*
X0179996Y0034130D01*
X0179996Y0030980D01*
X0178421Y0032555D01*
X0178421Y0034130D01*
X0172909Y0037673D02*
X0172909Y0043185D01*
X0185508Y0043185D01*
X0185508Y0037673D01*
X0172909Y0037673D01*
X0172909Y0045547D02*
X0172909Y0051059D01*
X0185508Y0051059D01*
X0185508Y0045547D01*
X0172909Y0045547D01*
X0172909Y0053421D02*
X0172909Y0058933D01*
X0185508Y0058933D01*
X0185508Y0053421D01*
X0172909Y0053421D01*
X0083146Y0031374D02*
X0083146Y0025862D01*
X0070547Y0025862D01*
X0070547Y0031374D01*
X0083146Y0031374D01*
X0064445Y0032949D02*
X0064445Y0047909D01*
X0057752Y0047909D01*
X0057752Y0032949D01*
X0064445Y0032949D01*
X0062673Y0039642D02*
X0059524Y0039642D01*
X0061098Y0041217D01*
X0062673Y0039642D01*
X0062673Y0041217D02*
X0061098Y0041217D01*
X0059524Y0041217D01*
X0026649Y0032555D02*
X0026651Y0032724D01*
X0026657Y0032893D01*
X0026668Y0033062D01*
X0026682Y0033230D01*
X0026701Y0033398D01*
X0026724Y0033566D01*
X0026750Y0033733D01*
X0026781Y0033899D01*
X0026816Y0034065D01*
X0026855Y0034229D01*
X0026899Y0034393D01*
X0026946Y0034555D01*
X0026997Y0034716D01*
X0027052Y0034876D01*
X0027111Y0035035D01*
X0027173Y0035192D01*
X0027240Y0035347D01*
X0027311Y0035501D01*
X0027385Y0035653D01*
X0027463Y0035803D01*
X0027544Y0035951D01*
X0027629Y0036097D01*
X0027718Y0036241D01*
X0027810Y0036383D01*
X0027906Y0036522D01*
X0028005Y0036659D01*
X0028107Y0036794D01*
X0028213Y0036926D01*
X0028322Y0037055D01*
X0028434Y0037182D01*
X0028549Y0037306D01*
X0028667Y0037427D01*
X0028788Y0037545D01*
X0028912Y0037660D01*
X0029039Y0037772D01*
X0029168Y0037881D01*
X0029300Y0037987D01*
X0029435Y0038089D01*
X0029572Y0038188D01*
X0029711Y0038284D01*
X0029853Y0038376D01*
X0029997Y0038465D01*
X0030143Y0038550D01*
X0030291Y0038631D01*
X0030441Y0038709D01*
X0030593Y0038783D01*
X0030747Y0038854D01*
X0030902Y0038921D01*
X0031059Y0038983D01*
X0031218Y0039042D01*
X0031378Y0039097D01*
X0031539Y0039148D01*
X0031701Y0039195D01*
X0031865Y0039239D01*
X0032029Y0039278D01*
X0032195Y0039313D01*
X0032361Y0039344D01*
X0032528Y0039370D01*
X0032696Y0039393D01*
X0032864Y0039412D01*
X0033032Y0039426D01*
X0033201Y0039437D01*
X0033370Y0039443D01*
X0033539Y0039445D01*
X0033708Y0039443D01*
X0033877Y0039437D01*
X0034046Y0039426D01*
X0034214Y0039412D01*
X0034382Y0039393D01*
X0034550Y0039370D01*
X0034717Y0039344D01*
X0034883Y0039313D01*
X0035049Y0039278D01*
X0035213Y0039239D01*
X0035377Y0039195D01*
X0035539Y0039148D01*
X0035700Y0039097D01*
X0035860Y0039042D01*
X0036019Y0038983D01*
X0036176Y0038921D01*
X0036331Y0038854D01*
X0036485Y0038783D01*
X0036637Y0038709D01*
X0036787Y0038631D01*
X0036935Y0038550D01*
X0037081Y0038465D01*
X0037225Y0038376D01*
X0037367Y0038284D01*
X0037506Y0038188D01*
X0037643Y0038089D01*
X0037778Y0037987D01*
X0037910Y0037881D01*
X0038039Y0037772D01*
X0038166Y0037660D01*
X0038290Y0037545D01*
X0038411Y0037427D01*
X0038529Y0037306D01*
X0038644Y0037182D01*
X0038756Y0037055D01*
X0038865Y0036926D01*
X0038971Y0036794D01*
X0039073Y0036659D01*
X0039172Y0036522D01*
X0039268Y0036383D01*
X0039360Y0036241D01*
X0039449Y0036097D01*
X0039534Y0035951D01*
X0039615Y0035803D01*
X0039693Y0035653D01*
X0039767Y0035501D01*
X0039838Y0035347D01*
X0039905Y0035192D01*
X0039967Y0035035D01*
X0040026Y0034876D01*
X0040081Y0034716D01*
X0040132Y0034555D01*
X0040179Y0034393D01*
X0040223Y0034229D01*
X0040262Y0034065D01*
X0040297Y0033899D01*
X0040328Y0033733D01*
X0040354Y0033566D01*
X0040377Y0033398D01*
X0040396Y0033230D01*
X0040410Y0033062D01*
X0040421Y0032893D01*
X0040427Y0032724D01*
X0040429Y0032555D01*
X0040427Y0032386D01*
X0040421Y0032217D01*
X0040410Y0032048D01*
X0040396Y0031880D01*
X0040377Y0031712D01*
X0040354Y0031544D01*
X0040328Y0031377D01*
X0040297Y0031211D01*
X0040262Y0031045D01*
X0040223Y0030881D01*
X0040179Y0030717D01*
X0040132Y0030555D01*
X0040081Y0030394D01*
X0040026Y0030234D01*
X0039967Y0030075D01*
X0039905Y0029918D01*
X0039838Y0029763D01*
X0039767Y0029609D01*
X0039693Y0029457D01*
X0039615Y0029307D01*
X0039534Y0029159D01*
X0039449Y0029013D01*
X0039360Y0028869D01*
X0039268Y0028727D01*
X0039172Y0028588D01*
X0039073Y0028451D01*
X0038971Y0028316D01*
X0038865Y0028184D01*
X0038756Y0028055D01*
X0038644Y0027928D01*
X0038529Y0027804D01*
X0038411Y0027683D01*
X0038290Y0027565D01*
X0038166Y0027450D01*
X0038039Y0027338D01*
X0037910Y0027229D01*
X0037778Y0027123D01*
X0037643Y0027021D01*
X0037506Y0026922D01*
X0037367Y0026826D01*
X0037225Y0026734D01*
X0037081Y0026645D01*
X0036935Y0026560D01*
X0036787Y0026479D01*
X0036637Y0026401D01*
X0036485Y0026327D01*
X0036331Y0026256D01*
X0036176Y0026189D01*
X0036019Y0026127D01*
X0035860Y0026068D01*
X0035700Y0026013D01*
X0035539Y0025962D01*
X0035377Y0025915D01*
X0035213Y0025871D01*
X0035049Y0025832D01*
X0034883Y0025797D01*
X0034717Y0025766D01*
X0034550Y0025740D01*
X0034382Y0025717D01*
X0034214Y0025698D01*
X0034046Y0025684D01*
X0033877Y0025673D01*
X0033708Y0025667D01*
X0033539Y0025665D01*
X0033370Y0025667D01*
X0033201Y0025673D01*
X0033032Y0025684D01*
X0032864Y0025698D01*
X0032696Y0025717D01*
X0032528Y0025740D01*
X0032361Y0025766D01*
X0032195Y0025797D01*
X0032029Y0025832D01*
X0031865Y0025871D01*
X0031701Y0025915D01*
X0031539Y0025962D01*
X0031378Y0026013D01*
X0031218Y0026068D01*
X0031059Y0026127D01*
X0030902Y0026189D01*
X0030747Y0026256D01*
X0030593Y0026327D01*
X0030441Y0026401D01*
X0030291Y0026479D01*
X0030143Y0026560D01*
X0029997Y0026645D01*
X0029853Y0026734D01*
X0029711Y0026826D01*
X0029572Y0026922D01*
X0029435Y0027021D01*
X0029300Y0027123D01*
X0029168Y0027229D01*
X0029039Y0027338D01*
X0028912Y0027450D01*
X0028788Y0027565D01*
X0028667Y0027683D01*
X0028549Y0027804D01*
X0028434Y0027928D01*
X0028322Y0028055D01*
X0028213Y0028184D01*
X0028107Y0028316D01*
X0028005Y0028451D01*
X0027906Y0028588D01*
X0027810Y0028727D01*
X0027718Y0028869D01*
X0027629Y0029013D01*
X0027544Y0029159D01*
X0027463Y0029307D01*
X0027385Y0029457D01*
X0027311Y0029609D01*
X0027240Y0029763D01*
X0027173Y0029918D01*
X0027111Y0030075D01*
X0027052Y0030234D01*
X0026997Y0030394D01*
X0026946Y0030555D01*
X0026899Y0030717D01*
X0026855Y0030881D01*
X0026816Y0031045D01*
X0026781Y0031211D01*
X0026750Y0031377D01*
X0026724Y0031544D01*
X0026701Y0031712D01*
X0026682Y0031880D01*
X0026668Y0032048D01*
X0026657Y0032217D01*
X0026651Y0032386D01*
X0026649Y0032555D01*
D12*
X0039720Y0110193D03*
X0058815Y0110193D03*
D13*
X0062937Y0066326D02*
X0062937Y0065358D01*
X0062937Y0064236D02*
X0062937Y0063591D01*
X0062938Y0063591D02*
X0062940Y0063540D01*
X0062946Y0063490D01*
X0062956Y0063440D01*
X0062970Y0063392D01*
X0062987Y0063344D01*
X0063008Y0063298D01*
X0063033Y0063254D01*
X0063061Y0063212D01*
X0063093Y0063172D01*
X0063127Y0063135D01*
X0063164Y0063101D01*
X0063204Y0063069D01*
X0063246Y0063041D01*
X0063290Y0063016D01*
X0063336Y0062995D01*
X0063384Y0062978D01*
X0063432Y0062964D01*
X0063482Y0062954D01*
X0063532Y0062948D01*
X0063583Y0062946D01*
X0063583Y0062945D02*
X0065196Y0062945D01*
X0065196Y0062946D02*
X0065244Y0062948D01*
X0065292Y0062953D01*
X0065340Y0062962D01*
X0065386Y0062975D01*
X0065432Y0062991D01*
X0065476Y0063010D01*
X0065519Y0063032D01*
X0065559Y0063058D01*
X0065598Y0063087D01*
X0065635Y0063118D01*
X0065669Y0063152D01*
X0065700Y0063189D01*
X0065729Y0063228D01*
X0065755Y0063269D01*
X0065777Y0063311D01*
X0065796Y0063355D01*
X0065812Y0063401D01*
X0065825Y0063447D01*
X0065834Y0063495D01*
X0065839Y0063543D01*
X0065841Y0063591D01*
X0065841Y0064236D01*
X0065841Y0065358D02*
X0065841Y0066164D01*
X0065842Y0066164D02*
X0065840Y0066219D01*
X0065834Y0066274D01*
X0065825Y0066328D01*
X0065812Y0066382D01*
X0065795Y0066434D01*
X0065775Y0066486D01*
X0065752Y0066535D01*
X0065725Y0066583D01*
X0065694Y0066629D01*
X0065661Y0066673D01*
X0065625Y0066715D01*
X0065586Y0066754D01*
X0065544Y0066790D01*
X0065500Y0066823D01*
X0065454Y0066854D01*
X0065406Y0066881D01*
X0065357Y0066904D01*
X0065305Y0066924D01*
X0065253Y0066941D01*
X0065199Y0066954D01*
X0065145Y0066963D01*
X0065090Y0066969D01*
X0065035Y0066971D01*
X0064980Y0066969D01*
X0064925Y0066963D01*
X0064871Y0066954D01*
X0064817Y0066941D01*
X0064765Y0066924D01*
X0064713Y0066904D01*
X0064664Y0066881D01*
X0064616Y0066854D01*
X0064570Y0066823D01*
X0064526Y0066790D01*
X0064484Y0066754D01*
X0064445Y0066715D01*
X0064409Y0066673D01*
X0064376Y0066629D01*
X0064345Y0066583D01*
X0064318Y0066535D01*
X0064295Y0066486D01*
X0064275Y0066434D01*
X0064258Y0066382D01*
X0064245Y0066328D01*
X0064236Y0066274D01*
X0064230Y0066219D01*
X0064228Y0066164D01*
X0064228Y0066326D02*
X0064228Y0065680D01*
X0064227Y0066326D02*
X0064225Y0066375D01*
X0064219Y0066424D01*
X0064210Y0066473D01*
X0064197Y0066521D01*
X0064180Y0066567D01*
X0064160Y0066612D01*
X0064136Y0066656D01*
X0064110Y0066697D01*
X0064080Y0066736D01*
X0064047Y0066773D01*
X0064011Y0066808D01*
X0063973Y0066839D01*
X0063933Y0066867D01*
X0063890Y0066893D01*
X0063846Y0066915D01*
X0063800Y0066933D01*
X0063753Y0066948D01*
X0063705Y0066959D01*
X0063656Y0066967D01*
X0063607Y0066971D01*
X0063557Y0066971D01*
X0063508Y0066967D01*
X0063459Y0066959D01*
X0063411Y0066948D01*
X0063364Y0066933D01*
X0063318Y0066915D01*
X0063274Y0066893D01*
X0063231Y0066867D01*
X0063191Y0066839D01*
X0063153Y0066808D01*
X0063117Y0066773D01*
X0063084Y0066736D01*
X0063054Y0066697D01*
X0063028Y0066656D01*
X0063004Y0066612D01*
X0062984Y0066567D01*
X0062967Y0066521D01*
X0062954Y0066473D01*
X0062945Y0066424D01*
X0062939Y0066375D01*
X0062937Y0066326D01*
X0062937Y0061777D02*
X0062937Y0061131D01*
X0062937Y0061454D02*
X0065841Y0061454D01*
X0065841Y0061131D02*
X0065841Y0061777D01*
D14*
X0069760Y0056177D02*
X0069760Y0070350D01*
X0068185Y0071925D01*
X0054012Y0071925D01*
X0054012Y0056177D01*
X0069760Y0056177D01*
X0065430Y0068382D02*
X0065432Y0068438D01*
X0065438Y0068493D01*
X0065448Y0068547D01*
X0065461Y0068601D01*
X0065479Y0068654D01*
X0065500Y0068705D01*
X0065524Y0068755D01*
X0065552Y0068803D01*
X0065584Y0068849D01*
X0065618Y0068893D01*
X0065656Y0068934D01*
X0065696Y0068972D01*
X0065739Y0069007D01*
X0065784Y0069039D01*
X0065832Y0069068D01*
X0065881Y0069094D01*
X0065932Y0069116D01*
X0065984Y0069134D01*
X0066038Y0069148D01*
X0066093Y0069159D01*
X0066148Y0069166D01*
X0066203Y0069169D01*
X0066259Y0069168D01*
X0066314Y0069163D01*
X0066369Y0069154D01*
X0066423Y0069142D01*
X0066476Y0069125D01*
X0066528Y0069105D01*
X0066578Y0069081D01*
X0066626Y0069054D01*
X0066673Y0069024D01*
X0066717Y0068990D01*
X0066759Y0068953D01*
X0066797Y0068913D01*
X0066834Y0068871D01*
X0066867Y0068826D01*
X0066896Y0068780D01*
X0066923Y0068731D01*
X0066945Y0068680D01*
X0066965Y0068628D01*
X0066980Y0068574D01*
X0066992Y0068520D01*
X0067000Y0068465D01*
X0067004Y0068410D01*
X0067004Y0068354D01*
X0067000Y0068299D01*
X0066992Y0068244D01*
X0066980Y0068190D01*
X0066965Y0068136D01*
X0066945Y0068084D01*
X0066923Y0068033D01*
X0066896Y0067984D01*
X0066867Y0067938D01*
X0066834Y0067893D01*
X0066797Y0067851D01*
X0066759Y0067811D01*
X0066717Y0067774D01*
X0066673Y0067740D01*
X0066626Y0067710D01*
X0066578Y0067683D01*
X0066528Y0067659D01*
X0066476Y0067639D01*
X0066423Y0067622D01*
X0066369Y0067610D01*
X0066314Y0067601D01*
X0066259Y0067596D01*
X0066203Y0067595D01*
X0066148Y0067598D01*
X0066093Y0067605D01*
X0066038Y0067616D01*
X0065984Y0067630D01*
X0065932Y0067648D01*
X0065881Y0067670D01*
X0065832Y0067696D01*
X0065784Y0067725D01*
X0065739Y0067757D01*
X0065696Y0067792D01*
X0065656Y0067830D01*
X0065618Y0067871D01*
X0065584Y0067915D01*
X0065552Y0067961D01*
X0065524Y0068009D01*
X0065500Y0068059D01*
X0065479Y0068110D01*
X0065461Y0068163D01*
X0065448Y0068217D01*
X0065438Y0068271D01*
X0065432Y0068326D01*
X0065430Y0068382D01*
X0041413Y0068972D02*
X0041413Y0070941D01*
X0041413Y0068972D02*
X0021728Y0068972D01*
X0041413Y0096531D02*
X0041413Y0098500D01*
X0021728Y0098500D01*
X0091020Y0084130D02*
X0091020Y0067594D01*
X0102043Y0067594D01*
X0102043Y0084130D01*
X0091020Y0084130D01*
X0095744Y0080193D02*
X0097319Y0080193D01*
X0097414Y0080191D01*
X0097509Y0080185D01*
X0097604Y0080176D01*
X0097698Y0080162D01*
X0097791Y0080145D01*
X0097884Y0080124D01*
X0097976Y0080100D01*
X0098067Y0080071D01*
X0098157Y0080040D01*
X0098245Y0080004D01*
X0098332Y0079965D01*
X0098417Y0079922D01*
X0098500Y0079877D01*
X0098581Y0079827D01*
X0098661Y0079775D01*
X0098738Y0079719D01*
X0098813Y0079661D01*
X0098885Y0079599D01*
X0098955Y0079534D01*
X0099022Y0079467D01*
X0099087Y0079397D01*
X0099149Y0079325D01*
X0099207Y0079250D01*
X0099263Y0079173D01*
X0099315Y0079093D01*
X0099365Y0079012D01*
X0099410Y0078929D01*
X0099453Y0078844D01*
X0099492Y0078757D01*
X0099528Y0078669D01*
X0099559Y0078579D01*
X0099588Y0078488D01*
X0099612Y0078396D01*
X0099633Y0078303D01*
X0099650Y0078210D01*
X0099664Y0078116D01*
X0099673Y0078021D01*
X0099679Y0077926D01*
X0099681Y0077831D01*
X0099681Y0073894D01*
X0099679Y0073799D01*
X0099673Y0073704D01*
X0099664Y0073609D01*
X0099650Y0073515D01*
X0099633Y0073422D01*
X0099612Y0073329D01*
X0099588Y0073237D01*
X0099559Y0073146D01*
X0099528Y0073056D01*
X0099492Y0072968D01*
X0099453Y0072881D01*
X0099410Y0072796D01*
X0099365Y0072713D01*
X0099315Y0072632D01*
X0099263Y0072552D01*
X0099207Y0072475D01*
X0099149Y0072400D01*
X0099087Y0072328D01*
X0099022Y0072258D01*
X0098955Y0072191D01*
X0098885Y0072126D01*
X0098813Y0072064D01*
X0098738Y0072006D01*
X0098661Y0071950D01*
X0098581Y0071898D01*
X0098500Y0071848D01*
X0098417Y0071803D01*
X0098332Y0071760D01*
X0098245Y0071721D01*
X0098157Y0071685D01*
X0098067Y0071654D01*
X0097976Y0071625D01*
X0097884Y0071601D01*
X0097791Y0071580D01*
X0097698Y0071563D01*
X0097604Y0071549D01*
X0097509Y0071540D01*
X0097414Y0071534D01*
X0097319Y0071532D01*
X0097319Y0071531D02*
X0095744Y0071531D01*
X0095744Y0071532D02*
X0095649Y0071534D01*
X0095554Y0071540D01*
X0095459Y0071549D01*
X0095365Y0071563D01*
X0095272Y0071580D01*
X0095179Y0071601D01*
X0095087Y0071625D01*
X0094996Y0071654D01*
X0094906Y0071685D01*
X0094818Y0071721D01*
X0094731Y0071760D01*
X0094646Y0071803D01*
X0094563Y0071848D01*
X0094482Y0071898D01*
X0094402Y0071950D01*
X0094325Y0072006D01*
X0094250Y0072064D01*
X0094178Y0072126D01*
X0094108Y0072191D01*
X0094041Y0072258D01*
X0093976Y0072328D01*
X0093914Y0072400D01*
X0093856Y0072475D01*
X0093800Y0072552D01*
X0093748Y0072632D01*
X0093698Y0072713D01*
X0093653Y0072796D01*
X0093610Y0072881D01*
X0093571Y0072968D01*
X0093535Y0073056D01*
X0093504Y0073146D01*
X0093475Y0073237D01*
X0093451Y0073329D01*
X0093430Y0073422D01*
X0093413Y0073515D01*
X0093399Y0073609D01*
X0093390Y0073704D01*
X0093384Y0073799D01*
X0093382Y0073894D01*
X0093382Y0077831D01*
X0093384Y0077926D01*
X0093390Y0078021D01*
X0093399Y0078116D01*
X0093413Y0078210D01*
X0093430Y0078303D01*
X0093451Y0078396D01*
X0093475Y0078488D01*
X0093504Y0078579D01*
X0093535Y0078669D01*
X0093571Y0078757D01*
X0093610Y0078844D01*
X0093653Y0078929D01*
X0093698Y0079012D01*
X0093748Y0079093D01*
X0093800Y0079173D01*
X0093856Y0079250D01*
X0093914Y0079325D01*
X0093976Y0079397D01*
X0094041Y0079467D01*
X0094108Y0079534D01*
X0094178Y0079599D01*
X0094250Y0079661D01*
X0094325Y0079719D01*
X0094402Y0079775D01*
X0094482Y0079827D01*
X0094563Y0079877D01*
X0094646Y0079922D01*
X0094731Y0079965D01*
X0094818Y0080004D01*
X0094906Y0080040D01*
X0094996Y0080071D01*
X0095087Y0080100D01*
X0095179Y0080124D01*
X0095272Y0080145D01*
X0095365Y0080162D01*
X0095459Y0080176D01*
X0095554Y0080185D01*
X0095649Y0080191D01*
X0095744Y0080193D01*
X0110744Y0075744D02*
X0110744Y0122988D01*
X0169799Y0122988D01*
X0169799Y0075744D01*
X0110744Y0075744D01*
X0106020Y0067870D02*
X0106020Y0130862D01*
X0200508Y0130862D01*
X0200508Y0067870D01*
X0106020Y0067870D01*
X0100093Y0036892D02*
X0100093Y0034392D01*
X0096593Y0035392D01*
X0099093Y0036142D02*
X0101093Y0036142D01*
X0099843Y0032242D02*
X0096593Y0032242D01*
X0099843Y0032242D02*
X0099912Y0032240D01*
X0099981Y0032234D01*
X0100049Y0032225D01*
X0100116Y0032212D01*
X0100183Y0032195D01*
X0100249Y0032174D01*
X0100313Y0032150D01*
X0100376Y0032122D01*
X0100438Y0032091D01*
X0100498Y0032057D01*
X0100555Y0032019D01*
X0100611Y0031978D01*
X0100664Y0031935D01*
X0100715Y0031888D01*
X0100763Y0031839D01*
X0100808Y0031787D01*
X0100850Y0031732D01*
X0100889Y0031676D01*
X0100926Y0031617D01*
X0100958Y0031556D01*
X0100988Y0031494D01*
X0101014Y0031430D01*
X0101036Y0031365D01*
X0101055Y0031299D01*
X0101070Y0031232D01*
X0101081Y0031164D01*
X0101089Y0031095D01*
X0101093Y0031026D01*
X0101093Y0030958D01*
X0101089Y0030889D01*
X0101081Y0030820D01*
X0101070Y0030752D01*
X0101055Y0030685D01*
X0101036Y0030619D01*
X0101014Y0030554D01*
X0100988Y0030490D01*
X0100958Y0030428D01*
X0100926Y0030367D01*
X0100889Y0030308D01*
X0100850Y0030252D01*
X0100808Y0030197D01*
X0100763Y0030145D01*
X0100715Y0030096D01*
X0100664Y0030049D01*
X0100611Y0030006D01*
X0100555Y0029965D01*
X0100498Y0029927D01*
X0100438Y0029893D01*
X0100376Y0029862D01*
X0100313Y0029834D01*
X0100249Y0029810D01*
X0100183Y0029789D01*
X0100116Y0029772D01*
X0100049Y0029759D01*
X0099981Y0029750D01*
X0099912Y0029744D01*
X0099843Y0029742D01*
X0096593Y0029742D01*
D15*
X0096320Y0049023D02*
X0096320Y0049823D01*
X0096320Y0049423D02*
X0099920Y0049423D01*
X0099920Y0049023D02*
X0099920Y0049823D01*
X0099120Y0051291D02*
X0097120Y0051291D01*
X0097065Y0051293D01*
X0097011Y0051298D01*
X0096957Y0051308D01*
X0096904Y0051321D01*
X0096852Y0051337D01*
X0096801Y0051357D01*
X0096752Y0051381D01*
X0096704Y0051407D01*
X0096659Y0051437D01*
X0096615Y0051470D01*
X0096574Y0051506D01*
X0096535Y0051545D01*
X0096499Y0051586D01*
X0096466Y0051630D01*
X0096436Y0051675D01*
X0096410Y0051723D01*
X0096386Y0051772D01*
X0096366Y0051823D01*
X0096350Y0051875D01*
X0096337Y0051928D01*
X0096327Y0051982D01*
X0096322Y0052036D01*
X0096320Y0052091D01*
X0096320Y0052891D01*
X0097920Y0056003D02*
X0097877Y0056045D01*
X0097832Y0056085D01*
X0097784Y0056121D01*
X0097734Y0056155D01*
X0097682Y0056185D01*
X0097628Y0056213D01*
X0097573Y0056236D01*
X0097516Y0056256D01*
X0097458Y0056273D01*
X0097400Y0056286D01*
X0097340Y0056296D01*
X0097280Y0056301D01*
X0097220Y0056303D01*
X0097920Y0056003D02*
X0099920Y0054303D01*
X0099920Y0056303D01*
X0097121Y0054303D02*
X0097059Y0054325D01*
X0096998Y0054351D01*
X0096938Y0054380D01*
X0096881Y0054413D01*
X0096825Y0054448D01*
X0096772Y0054487D01*
X0096721Y0054529D01*
X0096672Y0054574D01*
X0096626Y0054621D01*
X0096582Y0054671D01*
X0096542Y0054723D01*
X0096505Y0054778D01*
X0096471Y0054834D01*
X0096440Y0054893D01*
X0096412Y0054953D01*
X0096388Y0055014D01*
X0096368Y0055077D01*
X0096351Y0055141D01*
X0096338Y0055206D01*
X0096329Y0055271D01*
X0096323Y0055337D01*
X0096321Y0055403D01*
X0096320Y0055403D02*
X0096322Y0055462D01*
X0096328Y0055520D01*
X0096337Y0055579D01*
X0096351Y0055636D01*
X0096368Y0055692D01*
X0096389Y0055747D01*
X0096413Y0055801D01*
X0096441Y0055853D01*
X0096472Y0055903D01*
X0096506Y0055951D01*
X0096543Y0055996D01*
X0096584Y0056039D01*
X0096627Y0056080D01*
X0096672Y0056117D01*
X0096720Y0056151D01*
X0096770Y0056182D01*
X0096822Y0056210D01*
X0096876Y0056234D01*
X0096931Y0056255D01*
X0096987Y0056272D01*
X0097044Y0056286D01*
X0097103Y0056295D01*
X0097161Y0056301D01*
X0097220Y0056303D01*
X0099920Y0052891D02*
X0099920Y0052091D01*
X0099918Y0052036D01*
X0099913Y0051982D01*
X0099903Y0051928D01*
X0099890Y0051875D01*
X0099874Y0051823D01*
X0099854Y0051772D01*
X0099830Y0051723D01*
X0099804Y0051675D01*
X0099774Y0051630D01*
X0099741Y0051586D01*
X0099705Y0051545D01*
X0099666Y0051506D01*
X0099625Y0051470D01*
X0099581Y0051437D01*
X0099536Y0051407D01*
X0099488Y0051381D01*
X0099439Y0051357D01*
X0099388Y0051337D01*
X0099336Y0051321D01*
X0099283Y0051308D01*
X0099229Y0051298D01*
X0099175Y0051293D01*
X0099120Y0051291D01*
X0071569Y0079310D02*
X0071569Y0081355D01*
X0072335Y0080332D02*
X0069780Y0080332D01*
X0070802Y0083910D01*
X0068061Y0083910D02*
X0067039Y0083910D01*
X0066977Y0083908D01*
X0066916Y0083903D01*
X0066855Y0083893D01*
X0066794Y0083880D01*
X0066735Y0083864D01*
X0066677Y0083844D01*
X0066620Y0083820D01*
X0066564Y0083793D01*
X0066510Y0083763D01*
X0066458Y0083729D01*
X0066409Y0083692D01*
X0066361Y0083653D01*
X0066316Y0083611D01*
X0066274Y0083566D01*
X0066234Y0083518D01*
X0066198Y0083469D01*
X0066164Y0083417D01*
X0066134Y0083363D01*
X0066107Y0083307D01*
X0066083Y0083250D01*
X0066063Y0083192D01*
X0066047Y0083133D01*
X0066034Y0083072D01*
X0066024Y0083011D01*
X0066019Y0082950D01*
X0066017Y0082888D01*
X0066017Y0080332D01*
X0066019Y0080270D01*
X0066024Y0080209D01*
X0066034Y0080148D01*
X0066047Y0080087D01*
X0066063Y0080028D01*
X0066083Y0079970D01*
X0066107Y0079913D01*
X0066134Y0079857D01*
X0066164Y0079803D01*
X0066198Y0079751D01*
X0066234Y0079702D01*
X0066274Y0079654D01*
X0066316Y0079609D01*
X0066361Y0079567D01*
X0066409Y0079527D01*
X0066458Y0079491D01*
X0066510Y0079457D01*
X0066564Y0079427D01*
X0066620Y0079400D01*
X0066677Y0079376D01*
X0066735Y0079356D01*
X0066794Y0079340D01*
X0066855Y0079327D01*
X0066916Y0079317D01*
X0066977Y0079312D01*
X0067039Y0079310D01*
X0068061Y0079310D01*
X0064219Y0079310D02*
X0063197Y0079310D01*
X0063708Y0079310D02*
X0063708Y0083910D01*
X0063197Y0083910D02*
X0064219Y0083910D01*
X0061686Y0120157D02*
X0057086Y0120157D01*
X0057086Y0121434D01*
X0057088Y0121504D01*
X0057094Y0121575D01*
X0057103Y0121644D01*
X0057117Y0121713D01*
X0057134Y0121782D01*
X0057155Y0121849D01*
X0057180Y0121915D01*
X0057208Y0121979D01*
X0057240Y0122042D01*
X0057275Y0122103D01*
X0057314Y0122162D01*
X0057355Y0122219D01*
X0057400Y0122273D01*
X0057448Y0122325D01*
X0057498Y0122374D01*
X0057552Y0122421D01*
X0057607Y0122464D01*
X0057665Y0122504D01*
X0057725Y0122541D01*
X0057787Y0122574D01*
X0057851Y0122604D01*
X0057916Y0122631D01*
X0057982Y0122654D01*
X0058050Y0122673D01*
X0058119Y0122688D01*
X0058188Y0122700D01*
X0058258Y0122708D01*
X0058329Y0122712D01*
X0058399Y0122712D01*
X0058470Y0122708D01*
X0058540Y0122700D01*
X0058609Y0122688D01*
X0058678Y0122673D01*
X0058746Y0122654D01*
X0058812Y0122631D01*
X0058877Y0122604D01*
X0058941Y0122574D01*
X0059003Y0122541D01*
X0059063Y0122504D01*
X0059121Y0122464D01*
X0059176Y0122421D01*
X0059230Y0122374D01*
X0059280Y0122325D01*
X0059328Y0122273D01*
X0059373Y0122219D01*
X0059414Y0122162D01*
X0059453Y0122103D01*
X0059488Y0122042D01*
X0059520Y0121979D01*
X0059548Y0121915D01*
X0059573Y0121849D01*
X0059594Y0121782D01*
X0059611Y0121713D01*
X0059625Y0121644D01*
X0059634Y0121575D01*
X0059640Y0121504D01*
X0059642Y0121434D01*
X0059641Y0121434D02*
X0059641Y0120157D01*
X0060536Y0124568D02*
X0060536Y0126868D01*
X0061686Y0127251D02*
X0057086Y0125718D01*
X0061686Y0124184D01*
X0061686Y0129090D02*
X0057086Y0129090D01*
X0057086Y0130368D01*
X0057088Y0130437D01*
X0057093Y0130506D01*
X0057103Y0130575D01*
X0057116Y0130643D01*
X0057133Y0130710D01*
X0057153Y0130776D01*
X0057177Y0130841D01*
X0057204Y0130905D01*
X0057235Y0130967D01*
X0057269Y0131027D01*
X0057306Y0131085D01*
X0057347Y0131141D01*
X0057390Y0131195D01*
X0057436Y0131247D01*
X0057485Y0131296D01*
X0057537Y0131342D01*
X0057591Y0131385D01*
X0057647Y0131426D01*
X0057705Y0131463D01*
X0057765Y0131497D01*
X0057827Y0131528D01*
X0057891Y0131555D01*
X0057956Y0131579D01*
X0058022Y0131599D01*
X0058089Y0131616D01*
X0058157Y0131629D01*
X0058226Y0131639D01*
X0058295Y0131644D01*
X0058364Y0131646D01*
X0060408Y0131646D01*
X0060477Y0131644D01*
X0060546Y0131639D01*
X0060615Y0131629D01*
X0060683Y0131616D01*
X0060750Y0131599D01*
X0060816Y0131579D01*
X0060881Y0131555D01*
X0060945Y0131528D01*
X0061007Y0131497D01*
X0061067Y0131463D01*
X0061125Y0131426D01*
X0061181Y0131385D01*
X0061235Y0131342D01*
X0061287Y0131296D01*
X0061336Y0131247D01*
X0061382Y0131195D01*
X0061425Y0131141D01*
X0061466Y0131085D01*
X0061503Y0131027D01*
X0061537Y0130967D01*
X0061568Y0130905D01*
X0061595Y0130841D01*
X0061619Y0130776D01*
X0061639Y0130710D01*
X0061656Y0130643D01*
X0061669Y0130575D01*
X0061679Y0130506D01*
X0061684Y0130437D01*
X0061686Y0130368D01*
X0061686Y0129090D01*
X0061686Y0133740D02*
X0061686Y0136296D01*
X0061686Y0135018D02*
X0057086Y0135018D01*
X0058108Y0133740D01*
X0068897Y0130368D02*
X0068897Y0129090D01*
X0073497Y0129090D01*
X0073497Y0130368D01*
X0073495Y0130437D01*
X0073490Y0130506D01*
X0073480Y0130575D01*
X0073467Y0130643D01*
X0073450Y0130710D01*
X0073430Y0130776D01*
X0073406Y0130841D01*
X0073379Y0130905D01*
X0073348Y0130967D01*
X0073314Y0131027D01*
X0073277Y0131085D01*
X0073236Y0131141D01*
X0073193Y0131195D01*
X0073147Y0131247D01*
X0073098Y0131296D01*
X0073046Y0131342D01*
X0072992Y0131385D01*
X0072936Y0131426D01*
X0072878Y0131463D01*
X0072818Y0131497D01*
X0072756Y0131528D01*
X0072692Y0131555D01*
X0072627Y0131579D01*
X0072561Y0131599D01*
X0072494Y0131616D01*
X0072426Y0131629D01*
X0072357Y0131639D01*
X0072288Y0131644D01*
X0072219Y0131646D01*
X0070175Y0131646D01*
X0070106Y0131644D01*
X0070037Y0131639D01*
X0069968Y0131629D01*
X0069900Y0131616D01*
X0069833Y0131599D01*
X0069767Y0131579D01*
X0069702Y0131555D01*
X0069638Y0131528D01*
X0069576Y0131497D01*
X0069516Y0131463D01*
X0069458Y0131426D01*
X0069402Y0131385D01*
X0069348Y0131342D01*
X0069296Y0131296D01*
X0069247Y0131247D01*
X0069201Y0131195D01*
X0069158Y0131141D01*
X0069117Y0131085D01*
X0069080Y0131027D01*
X0069046Y0130967D01*
X0069015Y0130905D01*
X0068988Y0130841D01*
X0068964Y0130776D01*
X0068944Y0130710D01*
X0068927Y0130643D01*
X0068914Y0130575D01*
X0068904Y0130506D01*
X0068899Y0130437D01*
X0068897Y0130368D01*
X0068897Y0125718D02*
X0073497Y0127251D01*
X0072347Y0126868D02*
X0072347Y0124568D01*
X0073497Y0124184D02*
X0068897Y0125718D01*
X0068897Y0121434D02*
X0068897Y0120157D01*
X0073497Y0120157D01*
X0071452Y0120157D02*
X0071452Y0121434D01*
X0071453Y0121434D02*
X0071451Y0121504D01*
X0071445Y0121575D01*
X0071436Y0121644D01*
X0071422Y0121713D01*
X0071405Y0121782D01*
X0071384Y0121849D01*
X0071359Y0121915D01*
X0071331Y0121979D01*
X0071299Y0122042D01*
X0071264Y0122103D01*
X0071225Y0122162D01*
X0071184Y0122219D01*
X0071139Y0122273D01*
X0071091Y0122325D01*
X0071041Y0122374D01*
X0070987Y0122421D01*
X0070932Y0122464D01*
X0070874Y0122504D01*
X0070814Y0122541D01*
X0070752Y0122574D01*
X0070688Y0122604D01*
X0070623Y0122631D01*
X0070557Y0122654D01*
X0070489Y0122673D01*
X0070420Y0122688D01*
X0070351Y0122700D01*
X0070281Y0122708D01*
X0070210Y0122712D01*
X0070140Y0122712D01*
X0070069Y0122708D01*
X0069999Y0122700D01*
X0069930Y0122688D01*
X0069861Y0122673D01*
X0069793Y0122654D01*
X0069727Y0122631D01*
X0069662Y0122604D01*
X0069598Y0122574D01*
X0069536Y0122541D01*
X0069476Y0122504D01*
X0069418Y0122464D01*
X0069363Y0122421D01*
X0069309Y0122374D01*
X0069259Y0122325D01*
X0069211Y0122273D01*
X0069166Y0122219D01*
X0069125Y0122162D01*
X0069086Y0122103D01*
X0069051Y0122042D01*
X0069019Y0121979D01*
X0068991Y0121915D01*
X0068966Y0121849D01*
X0068945Y0121782D01*
X0068928Y0121713D01*
X0068914Y0121644D01*
X0068905Y0121575D01*
X0068899Y0121504D01*
X0068897Y0121434D01*
X0073497Y0133740D02*
X0073497Y0136296D01*
X0073497Y0133740D02*
X0070941Y0135912D01*
X0068897Y0135146D02*
X0068899Y0135072D01*
X0068904Y0134998D01*
X0068914Y0134924D01*
X0068927Y0134851D01*
X0068943Y0134778D01*
X0068964Y0134707D01*
X0068988Y0134637D01*
X0069015Y0134568D01*
X0069046Y0134500D01*
X0069080Y0134434D01*
X0069117Y0134370D01*
X0069158Y0134308D01*
X0069202Y0134247D01*
X0069248Y0134190D01*
X0069298Y0134134D01*
X0069350Y0134081D01*
X0069405Y0134031D01*
X0069462Y0133984D01*
X0069522Y0133940D01*
X0069584Y0133898D01*
X0069647Y0133860D01*
X0069713Y0133825D01*
X0069780Y0133794D01*
X0069849Y0133766D01*
X0069919Y0133741D01*
X0070941Y0135912D02*
X0070894Y0135959D01*
X0070844Y0136003D01*
X0070792Y0136045D01*
X0070738Y0136084D01*
X0070682Y0136119D01*
X0070624Y0136152D01*
X0070564Y0136182D01*
X0070503Y0136208D01*
X0070440Y0136231D01*
X0070376Y0136250D01*
X0070312Y0136266D01*
X0070246Y0136279D01*
X0070180Y0136288D01*
X0070114Y0136293D01*
X0070047Y0136295D01*
X0070047Y0136296D02*
X0069980Y0136294D01*
X0069913Y0136288D01*
X0069847Y0136279D01*
X0069782Y0136265D01*
X0069717Y0136248D01*
X0069654Y0136227D01*
X0069592Y0136202D01*
X0069531Y0136174D01*
X0069472Y0136142D01*
X0069415Y0136107D01*
X0069360Y0136068D01*
X0069308Y0136027D01*
X0069258Y0135982D01*
X0069211Y0135935D01*
X0069166Y0135885D01*
X0069125Y0135833D01*
X0069086Y0135778D01*
X0069051Y0135721D01*
X0069019Y0135662D01*
X0068991Y0135601D01*
X0068966Y0135539D01*
X0068945Y0135476D01*
X0068928Y0135411D01*
X0068914Y0135346D01*
X0068905Y0135280D01*
X0068899Y0135213D01*
X0068897Y0135146D01*
X0138956Y0060997D02*
X0141511Y0060997D01*
X0140234Y0060997D02*
X0140234Y0056397D01*
X0143156Y0056397D02*
X0145711Y0056397D01*
X0143156Y0056397D02*
X0145328Y0058952D01*
X0144561Y0060996D02*
X0144487Y0060994D01*
X0144413Y0060989D01*
X0144339Y0060979D01*
X0144266Y0060966D01*
X0144193Y0060950D01*
X0144122Y0060929D01*
X0144052Y0060905D01*
X0143983Y0060878D01*
X0143915Y0060847D01*
X0143849Y0060813D01*
X0143785Y0060776D01*
X0143723Y0060735D01*
X0143663Y0060691D01*
X0143605Y0060645D01*
X0143549Y0060595D01*
X0143496Y0060543D01*
X0143446Y0060488D01*
X0143399Y0060431D01*
X0143355Y0060371D01*
X0143313Y0060309D01*
X0143275Y0060246D01*
X0143240Y0060180D01*
X0143209Y0060113D01*
X0143181Y0060044D01*
X0143156Y0059974D01*
X0145328Y0058953D02*
X0145375Y0059000D01*
X0145419Y0059050D01*
X0145461Y0059102D01*
X0145500Y0059156D01*
X0145535Y0059212D01*
X0145568Y0059270D01*
X0145598Y0059330D01*
X0145624Y0059391D01*
X0145647Y0059454D01*
X0145666Y0059518D01*
X0145682Y0059582D01*
X0145695Y0059648D01*
X0145704Y0059714D01*
X0145709Y0059780D01*
X0145711Y0059847D01*
X0145709Y0059914D01*
X0145703Y0059981D01*
X0145694Y0060047D01*
X0145680Y0060112D01*
X0145663Y0060177D01*
X0145642Y0060240D01*
X0145617Y0060302D01*
X0145589Y0060363D01*
X0145557Y0060422D01*
X0145522Y0060479D01*
X0145483Y0060534D01*
X0145442Y0060586D01*
X0145397Y0060636D01*
X0145350Y0060683D01*
X0145300Y0060728D01*
X0145248Y0060769D01*
X0145193Y0060808D01*
X0145136Y0060843D01*
X0145077Y0060875D01*
X0145016Y0060903D01*
X0144954Y0060928D01*
X0144891Y0060949D01*
X0144826Y0060966D01*
X0144761Y0060980D01*
X0144695Y0060989D01*
X0144628Y0060995D01*
X0144561Y0060997D01*
X0151082Y0060997D02*
X0153637Y0060997D01*
X0152360Y0060997D02*
X0152360Y0056397D01*
X0155282Y0056397D02*
X0157837Y0056397D01*
X0156560Y0056397D02*
X0156560Y0060997D01*
X0155282Y0059975D01*
D16*
X0136492Y0038264D02*
X0136494Y0038303D01*
X0136500Y0038342D01*
X0136510Y0038380D01*
X0136523Y0038417D01*
X0136540Y0038452D01*
X0136560Y0038486D01*
X0136584Y0038517D01*
X0136611Y0038546D01*
X0136640Y0038572D01*
X0136672Y0038595D01*
X0136706Y0038615D01*
X0136742Y0038631D01*
X0136779Y0038643D01*
X0136818Y0038652D01*
X0136857Y0038657D01*
X0136896Y0038658D01*
X0136935Y0038655D01*
X0136974Y0038648D01*
X0137011Y0038637D01*
X0137048Y0038623D01*
X0137083Y0038605D01*
X0137116Y0038584D01*
X0137147Y0038559D01*
X0137175Y0038532D01*
X0137200Y0038502D01*
X0137222Y0038469D01*
X0137241Y0038435D01*
X0137256Y0038399D01*
X0137268Y0038361D01*
X0137276Y0038323D01*
X0137280Y0038284D01*
X0137280Y0038244D01*
X0137276Y0038205D01*
X0137268Y0038167D01*
X0137256Y0038129D01*
X0137241Y0038093D01*
X0137222Y0038059D01*
X0137200Y0038026D01*
X0137175Y0037996D01*
X0137147Y0037969D01*
X0137116Y0037944D01*
X0137083Y0037923D01*
X0137048Y0037905D01*
X0137011Y0037891D01*
X0136974Y0037880D01*
X0136935Y0037873D01*
X0136896Y0037870D01*
X0136857Y0037871D01*
X0136818Y0037876D01*
X0136779Y0037885D01*
X0136742Y0037897D01*
X0136706Y0037913D01*
X0136672Y0037933D01*
X0136640Y0037956D01*
X0136611Y0037982D01*
X0136584Y0038011D01*
X0136560Y0038042D01*
X0136540Y0038076D01*
X0136523Y0038111D01*
X0136510Y0038148D01*
X0136500Y0038186D01*
X0136494Y0038225D01*
X0136492Y0038264D01*
D17*
X0104533Y0115034D02*
X0099633Y0118301D01*
X0100722Y0120346D02*
X0099633Y0121707D01*
X0104533Y0121707D01*
X0104533Y0120346D02*
X0104533Y0123068D01*
X0104533Y0118301D02*
X0099633Y0115034D01*
D18*
X0030482Y0105242D02*
X0030482Y0105086D01*
X0030482Y0105242D02*
X0030480Y0105291D01*
X0030474Y0105339D01*
X0030465Y0105387D01*
X0030452Y0105434D01*
X0030435Y0105480D01*
X0030414Y0105524D01*
X0030390Y0105567D01*
X0030363Y0105608D01*
X0030333Y0105646D01*
X0030300Y0105682D01*
X0030264Y0105715D01*
X0030226Y0105745D01*
X0030185Y0105772D01*
X0030142Y0105796D01*
X0030098Y0105817D01*
X0030052Y0105834D01*
X0030005Y0105847D01*
X0029957Y0105856D01*
X0029909Y0105862D01*
X0029860Y0105864D01*
X0028927Y0105864D01*
X0028927Y0105086D01*
X0028929Y0105030D01*
X0028935Y0104975D01*
X0028945Y0104921D01*
X0028959Y0104867D01*
X0028976Y0104814D01*
X0028997Y0104763D01*
X0029022Y0104713D01*
X0029051Y0104665D01*
X0029082Y0104620D01*
X0029117Y0104577D01*
X0029155Y0104536D01*
X0029196Y0104498D01*
X0029239Y0104463D01*
X0029284Y0104432D01*
X0029332Y0104403D01*
X0029382Y0104378D01*
X0029433Y0104357D01*
X0029486Y0104340D01*
X0029540Y0104326D01*
X0029594Y0104316D01*
X0029649Y0104310D01*
X0029705Y0104308D01*
X0029761Y0104310D01*
X0029816Y0104316D01*
X0029870Y0104326D01*
X0029924Y0104340D01*
X0029977Y0104357D01*
X0030028Y0104378D01*
X0030078Y0104403D01*
X0030126Y0104432D01*
X0030171Y0104463D01*
X0030214Y0104498D01*
X0030255Y0104536D01*
X0030293Y0104577D01*
X0030328Y0104620D01*
X0030359Y0104665D01*
X0030388Y0104713D01*
X0030413Y0104763D01*
X0030434Y0104814D01*
X0030451Y0104867D01*
X0030465Y0104921D01*
X0030475Y0104975D01*
X0030481Y0105030D01*
X0030483Y0105086D01*
X0028927Y0105864D02*
X0028929Y0105934D01*
X0028935Y0106003D01*
X0028945Y0106072D01*
X0028958Y0106141D01*
X0028976Y0106208D01*
X0028997Y0106275D01*
X0029022Y0106340D01*
X0029050Y0106404D01*
X0029082Y0106466D01*
X0029118Y0106526D01*
X0029156Y0106584D01*
X0029198Y0106640D01*
X0029243Y0106693D01*
X0029291Y0106744D01*
X0029342Y0106792D01*
X0029395Y0106837D01*
X0029451Y0106879D01*
X0029509Y0106917D01*
X0029569Y0106953D01*
X0029631Y0106985D01*
X0029695Y0107013D01*
X0029760Y0107038D01*
X0029827Y0107059D01*
X0029894Y0107077D01*
X0029963Y0107090D01*
X0030032Y0107100D01*
X0030101Y0107106D01*
X0030171Y0107108D01*
X0027185Y0107109D02*
X0027185Y0104309D01*
X0027418Y0104620D02*
X0027458Y0104629D01*
X0027498Y0104642D01*
X0027536Y0104658D01*
X0027573Y0104678D01*
X0027608Y0104701D01*
X0027640Y0104727D01*
X0027670Y0104756D01*
X0027698Y0104787D01*
X0027722Y0104821D01*
X0027743Y0104857D01*
X0027762Y0104894D01*
X0027776Y0104933D01*
X0027787Y0104973D01*
X0027795Y0105014D01*
X0027799Y0105056D01*
X0027799Y0105098D01*
X0027795Y0105139D01*
X0027787Y0105180D01*
X0027776Y0105220D01*
X0027762Y0105259D01*
X0027744Y0105297D01*
X0027722Y0105333D01*
X0027698Y0105366D01*
X0027671Y0105398D01*
X0027641Y0105427D01*
X0027608Y0105453D01*
X0027573Y0105476D01*
X0027573Y0105475D02*
X0027185Y0105709D01*
X0026796Y0105942D01*
X0026562Y0104776D02*
X0026622Y0104742D01*
X0026683Y0104712D01*
X0026746Y0104685D01*
X0026810Y0104662D01*
X0026876Y0104642D01*
X0026942Y0104626D01*
X0027009Y0104614D01*
X0027077Y0104606D01*
X0027145Y0104601D01*
X0027214Y0104600D01*
X0027282Y0104603D01*
X0027350Y0104610D01*
X0027417Y0104620D01*
X0027807Y0106641D02*
X0027747Y0106675D01*
X0027686Y0106705D01*
X0027623Y0106732D01*
X0027559Y0106755D01*
X0027493Y0106775D01*
X0027427Y0106791D01*
X0027360Y0106803D01*
X0027292Y0106811D01*
X0027224Y0106816D01*
X0027155Y0106817D01*
X0027087Y0106814D01*
X0027019Y0106807D01*
X0026952Y0106797D01*
X0026951Y0106797D02*
X0026911Y0106788D01*
X0026871Y0106775D01*
X0026833Y0106759D01*
X0026796Y0106739D01*
X0026761Y0106716D01*
X0026729Y0106690D01*
X0026699Y0106661D01*
X0026671Y0106630D01*
X0026647Y0106596D01*
X0026626Y0106560D01*
X0026607Y0106523D01*
X0026593Y0106484D01*
X0026582Y0106444D01*
X0026574Y0106403D01*
X0026570Y0106361D01*
X0026570Y0106319D01*
X0026574Y0106278D01*
X0026582Y0106237D01*
X0026593Y0106197D01*
X0026607Y0106158D01*
X0026625Y0106120D01*
X0026647Y0106084D01*
X0026671Y0106051D01*
X0026698Y0106019D01*
X0026728Y0105990D01*
X0026761Y0105964D01*
X0026796Y0105941D01*
X0025352Y0105086D02*
X0025352Y0107109D01*
X0023797Y0107109D02*
X0023797Y0105086D01*
X0023799Y0105030D01*
X0023805Y0104975D01*
X0023815Y0104921D01*
X0023829Y0104867D01*
X0023846Y0104814D01*
X0023867Y0104763D01*
X0023892Y0104713D01*
X0023921Y0104665D01*
X0023952Y0104620D01*
X0023987Y0104577D01*
X0024025Y0104536D01*
X0024066Y0104498D01*
X0024109Y0104463D01*
X0024154Y0104432D01*
X0024202Y0104403D01*
X0024252Y0104378D01*
X0024303Y0104357D01*
X0024356Y0104340D01*
X0024410Y0104326D01*
X0024464Y0104316D01*
X0024519Y0104310D01*
X0024575Y0104308D01*
X0024631Y0104310D01*
X0024686Y0104316D01*
X0024740Y0104326D01*
X0024794Y0104340D01*
X0024847Y0104357D01*
X0024898Y0104378D01*
X0024948Y0104403D01*
X0024996Y0104432D01*
X0025041Y0104463D01*
X0025084Y0104498D01*
X0025125Y0104536D01*
X0025163Y0104577D01*
X0025198Y0104620D01*
X0025229Y0104665D01*
X0025258Y0104713D01*
X0025283Y0104763D01*
X0025304Y0104814D01*
X0025321Y0104867D01*
X0025335Y0104921D01*
X0025345Y0104975D01*
X0025351Y0105030D01*
X0025353Y0105086D01*
X0075720Y0056391D02*
X0075720Y0040216D01*
X0093720Y0040216D01*
X0093720Y0056391D01*
X0075720Y0056391D01*
D19*
X0038283Y0074189D02*
X0038285Y0074280D01*
X0038291Y0074370D01*
X0038301Y0074461D01*
X0038315Y0074550D01*
X0038333Y0074639D01*
X0038354Y0074728D01*
X0038380Y0074815D01*
X0038409Y0074901D01*
X0038443Y0074985D01*
X0038479Y0075068D01*
X0038520Y0075150D01*
X0038564Y0075229D01*
X0038611Y0075307D01*
X0038662Y0075382D01*
X0038716Y0075455D01*
X0038773Y0075525D01*
X0038833Y0075593D01*
X0038896Y0075659D01*
X0038962Y0075721D01*
X0039031Y0075780D01*
X0039102Y0075837D01*
X0039176Y0075890D01*
X0039252Y0075940D01*
X0039330Y0075987D01*
X0039410Y0076030D01*
X0039491Y0076069D01*
X0039575Y0076105D01*
X0039660Y0076137D01*
X0039746Y0076166D01*
X0039833Y0076190D01*
X0039922Y0076211D01*
X0040011Y0076228D01*
X0040101Y0076241D01*
X0040191Y0076250D01*
X0040282Y0076255D01*
X0040373Y0076256D01*
X0040463Y0076253D01*
X0040554Y0076246D01*
X0040644Y0076235D01*
X0040734Y0076220D01*
X0040823Y0076201D01*
X0040911Y0076179D01*
X0040997Y0076152D01*
X0041083Y0076122D01*
X0041167Y0076088D01*
X0041250Y0076050D01*
X0041331Y0076009D01*
X0041410Y0075964D01*
X0041487Y0075915D01*
X0041561Y0075864D01*
X0041634Y0075809D01*
X0041704Y0075751D01*
X0041771Y0075690D01*
X0041835Y0075626D01*
X0041897Y0075560D01*
X0041956Y0075490D01*
X0042011Y0075419D01*
X0042064Y0075344D01*
X0042113Y0075268D01*
X0042159Y0075190D01*
X0042201Y0075109D01*
X0042240Y0075027D01*
X0042275Y0074943D01*
X0042306Y0074858D01*
X0042333Y0074771D01*
X0042357Y0074684D01*
X0042377Y0074595D01*
X0042393Y0074506D01*
X0042405Y0074416D01*
X0042413Y0074325D01*
X0042417Y0074234D01*
X0042417Y0074144D01*
X0042413Y0074053D01*
X0042405Y0073962D01*
X0042393Y0073872D01*
X0042377Y0073783D01*
X0042357Y0073694D01*
X0042333Y0073607D01*
X0042306Y0073520D01*
X0042275Y0073435D01*
X0042240Y0073351D01*
X0042201Y0073269D01*
X0042159Y0073188D01*
X0042113Y0073110D01*
X0042064Y0073034D01*
X0042011Y0072959D01*
X0041956Y0072888D01*
X0041897Y0072818D01*
X0041835Y0072752D01*
X0041771Y0072688D01*
X0041704Y0072627D01*
X0041634Y0072569D01*
X0041561Y0072514D01*
X0041487Y0072463D01*
X0041410Y0072414D01*
X0041331Y0072369D01*
X0041250Y0072328D01*
X0041167Y0072290D01*
X0041083Y0072256D01*
X0040997Y0072226D01*
X0040911Y0072199D01*
X0040823Y0072177D01*
X0040734Y0072158D01*
X0040644Y0072143D01*
X0040554Y0072132D01*
X0040463Y0072125D01*
X0040373Y0072122D01*
X0040282Y0072123D01*
X0040191Y0072128D01*
X0040101Y0072137D01*
X0040011Y0072150D01*
X0039922Y0072167D01*
X0039833Y0072188D01*
X0039746Y0072212D01*
X0039660Y0072241D01*
X0039575Y0072273D01*
X0039491Y0072309D01*
X0039410Y0072348D01*
X0039330Y0072391D01*
X0039252Y0072438D01*
X0039176Y0072488D01*
X0039102Y0072541D01*
X0039031Y0072598D01*
X0038962Y0072657D01*
X0038896Y0072719D01*
X0038833Y0072785D01*
X0038773Y0072853D01*
X0038716Y0072923D01*
X0038662Y0072996D01*
X0038611Y0073071D01*
X0038564Y0073149D01*
X0038520Y0073228D01*
X0038479Y0073310D01*
X0038443Y0073393D01*
X0038409Y0073477D01*
X0038380Y0073563D01*
X0038354Y0073650D01*
X0038333Y0073739D01*
X0038315Y0073828D01*
X0038301Y0073917D01*
X0038291Y0074008D01*
X0038285Y0074098D01*
X0038283Y0074189D01*
X0038283Y0093283D02*
X0038285Y0093374D01*
X0038291Y0093464D01*
X0038301Y0093555D01*
X0038315Y0093644D01*
X0038333Y0093733D01*
X0038354Y0093822D01*
X0038380Y0093909D01*
X0038409Y0093995D01*
X0038443Y0094079D01*
X0038479Y0094162D01*
X0038520Y0094244D01*
X0038564Y0094323D01*
X0038611Y0094401D01*
X0038662Y0094476D01*
X0038716Y0094549D01*
X0038773Y0094619D01*
X0038833Y0094687D01*
X0038896Y0094753D01*
X0038962Y0094815D01*
X0039031Y0094874D01*
X0039102Y0094931D01*
X0039176Y0094984D01*
X0039252Y0095034D01*
X0039330Y0095081D01*
X0039410Y0095124D01*
X0039491Y0095163D01*
X0039575Y0095199D01*
X0039660Y0095231D01*
X0039746Y0095260D01*
X0039833Y0095284D01*
X0039922Y0095305D01*
X0040011Y0095322D01*
X0040101Y0095335D01*
X0040191Y0095344D01*
X0040282Y0095349D01*
X0040373Y0095350D01*
X0040463Y0095347D01*
X0040554Y0095340D01*
X0040644Y0095329D01*
X0040734Y0095314D01*
X0040823Y0095295D01*
X0040911Y0095273D01*
X0040997Y0095246D01*
X0041083Y0095216D01*
X0041167Y0095182D01*
X0041250Y0095144D01*
X0041331Y0095103D01*
X0041410Y0095058D01*
X0041487Y0095009D01*
X0041561Y0094958D01*
X0041634Y0094903D01*
X0041704Y0094845D01*
X0041771Y0094784D01*
X0041835Y0094720D01*
X0041897Y0094654D01*
X0041956Y0094584D01*
X0042011Y0094513D01*
X0042064Y0094438D01*
X0042113Y0094362D01*
X0042159Y0094284D01*
X0042201Y0094203D01*
X0042240Y0094121D01*
X0042275Y0094037D01*
X0042306Y0093952D01*
X0042333Y0093865D01*
X0042357Y0093778D01*
X0042377Y0093689D01*
X0042393Y0093600D01*
X0042405Y0093510D01*
X0042413Y0093419D01*
X0042417Y0093328D01*
X0042417Y0093238D01*
X0042413Y0093147D01*
X0042405Y0093056D01*
X0042393Y0092966D01*
X0042377Y0092877D01*
X0042357Y0092788D01*
X0042333Y0092701D01*
X0042306Y0092614D01*
X0042275Y0092529D01*
X0042240Y0092445D01*
X0042201Y0092363D01*
X0042159Y0092282D01*
X0042113Y0092204D01*
X0042064Y0092128D01*
X0042011Y0092053D01*
X0041956Y0091982D01*
X0041897Y0091912D01*
X0041835Y0091846D01*
X0041771Y0091782D01*
X0041704Y0091721D01*
X0041634Y0091663D01*
X0041561Y0091608D01*
X0041487Y0091557D01*
X0041410Y0091508D01*
X0041331Y0091463D01*
X0041250Y0091422D01*
X0041167Y0091384D01*
X0041083Y0091350D01*
X0040997Y0091320D01*
X0040911Y0091293D01*
X0040823Y0091271D01*
X0040734Y0091252D01*
X0040644Y0091237D01*
X0040554Y0091226D01*
X0040463Y0091219D01*
X0040373Y0091216D01*
X0040282Y0091217D01*
X0040191Y0091222D01*
X0040101Y0091231D01*
X0040011Y0091244D01*
X0039922Y0091261D01*
X0039833Y0091282D01*
X0039746Y0091306D01*
X0039660Y0091335D01*
X0039575Y0091367D01*
X0039491Y0091403D01*
X0039410Y0091442D01*
X0039330Y0091485D01*
X0039252Y0091532D01*
X0039176Y0091582D01*
X0039102Y0091635D01*
X0039031Y0091692D01*
X0038962Y0091751D01*
X0038896Y0091813D01*
X0038833Y0091879D01*
X0038773Y0091947D01*
X0038716Y0092017D01*
X0038662Y0092090D01*
X0038611Y0092165D01*
X0038564Y0092243D01*
X0038520Y0092322D01*
X0038479Y0092404D01*
X0038443Y0092487D01*
X0038409Y0092571D01*
X0038380Y0092657D01*
X0038354Y0092744D01*
X0038333Y0092833D01*
X0038315Y0092922D01*
X0038301Y0093011D01*
X0038291Y0093102D01*
X0038285Y0093192D01*
X0038283Y0093283D01*
M02*
