%
M48
M72
T01C0.01378
T02C0.04134
T03C0.04724
T04C0.09843
%
T01
X53224Y28618
X68972Y40429
X76846Y48303
X80652Y52240
X65035Y52240
X61886Y64051
X53265Y75862
X49287Y75862
X29602Y79799
X33539Y83736
X29602Y87673
X45350Y83506
X57161Y83736
X68972Y79799
X76846Y75862
X80652Y79799
X88657Y75862
X76846Y67988
X104406Y60114
X104406Y56136
X104406Y48303
X108343Y44366
X116217Y40429
X118185Y32555
X128028Y44366
X137870Y44366
X139839Y52240
X131965Y52240
X135902Y60114
X144757Y61096
X155587Y60114
X175272Y64051
X191020Y60114
X191020Y44366
X167398Y40429
X162122Y35744
X167398Y32555
X143776Y32555
X124091Y60114
X106378Y66016
X128028Y79799
X139732Y75969
X147713Y79799
X155587Y83736
X147713Y87673
X163461Y95547
X155587Y107358
X171335Y115232
X131965Y95547
X120154Y103421
X120157Y111299
X112280Y115232
X120154Y119169
X108343Y107358
X92594Y107358
X88657Y111295
X76846Y107358
X68972Y103421
X70547Y123894
X84720Y130980
X104406Y130980
X112280Y83736
X41413Y64051
X37476Y115232
T02
X40350Y74189
X40350Y93283
T03
X28421Y69071
X28421Y98402
T04
X33539Y32555
X33539Y127043
M30
