G75*
%MOIN*%
%OFA0B0*%
%FSLAX25Y25*%
%IPPOS*%
%LPD*%
%AMOC8*
5,1,8,0,0,1.08239X$1,22.5*
%
%ADD10C,0.00600*%
%ADD11R,0.05906X0.05118*%
%ADD12R,0.05118X0.05906*%
%ADD13R,0.05512X0.05512*%
%ADD14C,0.00236*%
%ADD15C,0.01181*%
%ADD16R,0.02165X0.04724*%
%ADD17R,0.04724X0.04724*%
%ADD18R,0.03937X0.04331*%
%ADD19R,0.04331X0.03937*%
%ADD20R,0.03937X0.05512*%
%ADD21R,0.01969X0.00984*%
%ADD22R,0.00984X0.01969*%
%ADD23R,0.04724X0.02165*%
%ADD24R,0.04724X0.07874*%
%ADD25R,0.02362X0.04724*%
%ADD26R,0.01378X0.06299*%
%ADD27R,0.06890X0.01575*%
%ADD28C,0.00000*%
%ADD29R,0.03937X0.03937*%
%ADD30R,0.05000X0.10000*%
D10*
X0021728Y0020744D02*
X0202831Y0020744D01*
X0202831Y0138854D01*
X0021728Y0138854D01*
X0021728Y0020744D01*
D11*
X0092594Y0091807D03*
X0092594Y0099287D03*
D12*
X0073264Y0118382D03*
X0065783Y0118382D03*
X0091965Y0130193D03*
X0099445Y0130193D03*
D13*
X0067673Y0110193D03*
X0053106Y0110193D03*
X0045429Y0110193D03*
X0030862Y0110193D03*
D14*
X0057437Y0073382D02*
X0057437Y0070468D01*
X0056493Y0070468D01*
X0056493Y0073382D01*
X0057437Y0073382D01*
X0057437Y0070703D02*
X0056493Y0070703D01*
X0056493Y0070938D02*
X0057437Y0070938D01*
X0057437Y0071173D02*
X0056493Y0071173D01*
X0056493Y0071408D02*
X0057437Y0071408D01*
X0057437Y0071643D02*
X0056493Y0071643D01*
X0056493Y0071878D02*
X0057437Y0071878D01*
X0057437Y0072113D02*
X0056493Y0072113D01*
X0056493Y0072348D02*
X0057437Y0072348D01*
X0057437Y0072583D02*
X0056493Y0072583D01*
X0056493Y0072818D02*
X0057437Y0072818D01*
X0057437Y0073053D02*
X0056493Y0073053D01*
X0056493Y0073288D02*
X0057437Y0073288D01*
X0059405Y0073382D02*
X0059405Y0070468D01*
X0058461Y0070468D01*
X0058461Y0073382D01*
X0059405Y0073382D01*
X0059405Y0070703D02*
X0058461Y0070703D01*
X0058461Y0070938D02*
X0059405Y0070938D01*
X0059405Y0071173D02*
X0058461Y0071173D01*
X0058461Y0071408D02*
X0059405Y0071408D01*
X0059405Y0071643D02*
X0058461Y0071643D01*
X0058461Y0071878D02*
X0059405Y0071878D01*
X0059405Y0072113D02*
X0058461Y0072113D01*
X0058461Y0072348D02*
X0059405Y0072348D01*
X0059405Y0072583D02*
X0058461Y0072583D01*
X0058461Y0072818D02*
X0059405Y0072818D01*
X0059405Y0073053D02*
X0058461Y0073053D01*
X0058461Y0073288D02*
X0059405Y0073288D01*
X0061374Y0073382D02*
X0061374Y0070468D01*
X0060430Y0070468D01*
X0060430Y0073382D01*
X0061374Y0073382D01*
X0061374Y0070703D02*
X0060430Y0070703D01*
X0060430Y0070938D02*
X0061374Y0070938D01*
X0061374Y0071173D02*
X0060430Y0071173D01*
X0060430Y0071408D02*
X0061374Y0071408D01*
X0061374Y0071643D02*
X0060430Y0071643D01*
X0060430Y0071878D02*
X0061374Y0071878D01*
X0061374Y0072113D02*
X0060430Y0072113D01*
X0060430Y0072348D02*
X0061374Y0072348D01*
X0061374Y0072583D02*
X0060430Y0072583D01*
X0060430Y0072818D02*
X0061374Y0072818D01*
X0061374Y0073053D02*
X0060430Y0073053D01*
X0060430Y0073288D02*
X0061374Y0073288D01*
X0063342Y0073382D02*
X0063342Y0070468D01*
X0062398Y0070468D01*
X0062398Y0073382D01*
X0063342Y0073382D01*
X0063342Y0070703D02*
X0062398Y0070703D01*
X0062398Y0070938D02*
X0063342Y0070938D01*
X0063342Y0071173D02*
X0062398Y0071173D01*
X0062398Y0071408D02*
X0063342Y0071408D01*
X0063342Y0071643D02*
X0062398Y0071643D01*
X0062398Y0071878D02*
X0063342Y0071878D01*
X0063342Y0072113D02*
X0062398Y0072113D01*
X0062398Y0072348D02*
X0063342Y0072348D01*
X0063342Y0072583D02*
X0062398Y0072583D01*
X0062398Y0072818D02*
X0063342Y0072818D01*
X0063342Y0073053D02*
X0062398Y0073053D01*
X0062398Y0073288D02*
X0063342Y0073288D01*
X0065311Y0073382D02*
X0065311Y0070468D01*
X0064367Y0070468D01*
X0064367Y0073382D01*
X0065311Y0073382D01*
X0065311Y0070703D02*
X0064367Y0070703D01*
X0064367Y0070938D02*
X0065311Y0070938D01*
X0065311Y0071173D02*
X0064367Y0071173D01*
X0064367Y0071408D02*
X0065311Y0071408D01*
X0065311Y0071643D02*
X0064367Y0071643D01*
X0064367Y0071878D02*
X0065311Y0071878D01*
X0065311Y0072113D02*
X0064367Y0072113D01*
X0064367Y0072348D02*
X0065311Y0072348D01*
X0065311Y0072583D02*
X0064367Y0072583D01*
X0064367Y0072818D02*
X0065311Y0072818D01*
X0065311Y0073053D02*
X0064367Y0073053D01*
X0064367Y0073288D02*
X0065311Y0073288D01*
X0067279Y0073382D02*
X0067279Y0070468D01*
X0066335Y0070468D01*
X0066335Y0073382D01*
X0067279Y0073382D01*
X0067279Y0070703D02*
X0066335Y0070703D01*
X0066335Y0070938D02*
X0067279Y0070938D01*
X0067279Y0071173D02*
X0066335Y0071173D01*
X0066335Y0071408D02*
X0067279Y0071408D01*
X0067279Y0071643D02*
X0066335Y0071643D01*
X0066335Y0071878D02*
X0067279Y0071878D01*
X0067279Y0072113D02*
X0066335Y0072113D01*
X0066335Y0072348D02*
X0067279Y0072348D01*
X0067279Y0072583D02*
X0066335Y0072583D01*
X0066335Y0072818D02*
X0067279Y0072818D01*
X0067279Y0073053D02*
X0066335Y0073053D01*
X0066335Y0073288D02*
X0067279Y0073288D01*
X0068303Y0069444D02*
X0071217Y0069444D01*
X0071217Y0068500D01*
X0068303Y0068500D01*
X0068303Y0069444D01*
X0068303Y0068735D02*
X0071217Y0068735D01*
X0071217Y0068970D02*
X0068303Y0068970D01*
X0068303Y0069205D02*
X0071217Y0069205D01*
X0071217Y0069440D02*
X0068303Y0069440D01*
X0068303Y0067476D02*
X0071217Y0067476D01*
X0071217Y0066532D01*
X0068303Y0066532D01*
X0068303Y0067476D01*
X0068303Y0066767D02*
X0071217Y0066767D01*
X0071217Y0067002D02*
X0068303Y0067002D01*
X0068303Y0067237D02*
X0071217Y0067237D01*
X0071217Y0067472D02*
X0068303Y0067472D01*
X0068303Y0065507D02*
X0071217Y0065507D01*
X0071217Y0064563D01*
X0068303Y0064563D01*
X0068303Y0065507D01*
X0068303Y0064798D02*
X0071217Y0064798D01*
X0071217Y0065033D02*
X0068303Y0065033D01*
X0068303Y0065268D02*
X0071217Y0065268D01*
X0071217Y0065503D02*
X0068303Y0065503D01*
X0068303Y0063539D02*
X0071217Y0063539D01*
X0071217Y0062595D01*
X0068303Y0062595D01*
X0068303Y0063539D01*
X0068303Y0062830D02*
X0071217Y0062830D01*
X0071217Y0063065D02*
X0068303Y0063065D01*
X0068303Y0063300D02*
X0071217Y0063300D01*
X0071217Y0063535D02*
X0068303Y0063535D01*
X0068303Y0061570D02*
X0071217Y0061570D01*
X0071217Y0060626D01*
X0068303Y0060626D01*
X0068303Y0061570D01*
X0068303Y0060861D02*
X0071217Y0060861D01*
X0071217Y0061096D02*
X0068303Y0061096D01*
X0068303Y0061331D02*
X0071217Y0061331D01*
X0071217Y0061566D02*
X0068303Y0061566D01*
X0068303Y0059602D02*
X0071217Y0059602D01*
X0071217Y0058658D01*
X0068303Y0058658D01*
X0068303Y0059602D01*
X0068303Y0058893D02*
X0071217Y0058893D01*
X0071217Y0059128D02*
X0068303Y0059128D01*
X0068303Y0059363D02*
X0071217Y0059363D01*
X0071217Y0059598D02*
X0068303Y0059598D01*
X0066335Y0057634D02*
X0066335Y0054720D01*
X0066335Y0057634D02*
X0067279Y0057634D01*
X0067279Y0054720D01*
X0066335Y0054720D01*
X0066335Y0054955D02*
X0067279Y0054955D01*
X0067279Y0055190D02*
X0066335Y0055190D01*
X0066335Y0055425D02*
X0067279Y0055425D01*
X0067279Y0055660D02*
X0066335Y0055660D01*
X0066335Y0055895D02*
X0067279Y0055895D01*
X0067279Y0056130D02*
X0066335Y0056130D01*
X0066335Y0056365D02*
X0067279Y0056365D01*
X0067279Y0056600D02*
X0066335Y0056600D01*
X0066335Y0056835D02*
X0067279Y0056835D01*
X0067279Y0057070D02*
X0066335Y0057070D01*
X0066335Y0057305D02*
X0067279Y0057305D01*
X0067279Y0057540D02*
X0066335Y0057540D01*
X0064367Y0057634D02*
X0064367Y0054720D01*
X0064367Y0057634D02*
X0065311Y0057634D01*
X0065311Y0054720D01*
X0064367Y0054720D01*
X0064367Y0054955D02*
X0065311Y0054955D01*
X0065311Y0055190D02*
X0064367Y0055190D01*
X0064367Y0055425D02*
X0065311Y0055425D01*
X0065311Y0055660D02*
X0064367Y0055660D01*
X0064367Y0055895D02*
X0065311Y0055895D01*
X0065311Y0056130D02*
X0064367Y0056130D01*
X0064367Y0056365D02*
X0065311Y0056365D01*
X0065311Y0056600D02*
X0064367Y0056600D01*
X0064367Y0056835D02*
X0065311Y0056835D01*
X0065311Y0057070D02*
X0064367Y0057070D01*
X0064367Y0057305D02*
X0065311Y0057305D01*
X0065311Y0057540D02*
X0064367Y0057540D01*
X0062398Y0057634D02*
X0062398Y0054720D01*
X0062398Y0057634D02*
X0063342Y0057634D01*
X0063342Y0054720D01*
X0062398Y0054720D01*
X0062398Y0054955D02*
X0063342Y0054955D01*
X0063342Y0055190D02*
X0062398Y0055190D01*
X0062398Y0055425D02*
X0063342Y0055425D01*
X0063342Y0055660D02*
X0062398Y0055660D01*
X0062398Y0055895D02*
X0063342Y0055895D01*
X0063342Y0056130D02*
X0062398Y0056130D01*
X0062398Y0056365D02*
X0063342Y0056365D01*
X0063342Y0056600D02*
X0062398Y0056600D01*
X0062398Y0056835D02*
X0063342Y0056835D01*
X0063342Y0057070D02*
X0062398Y0057070D01*
X0062398Y0057305D02*
X0063342Y0057305D01*
X0063342Y0057540D02*
X0062398Y0057540D01*
X0060430Y0057634D02*
X0060430Y0054720D01*
X0060430Y0057634D02*
X0061374Y0057634D01*
X0061374Y0054720D01*
X0060430Y0054720D01*
X0060430Y0054955D02*
X0061374Y0054955D01*
X0061374Y0055190D02*
X0060430Y0055190D01*
X0060430Y0055425D02*
X0061374Y0055425D01*
X0061374Y0055660D02*
X0060430Y0055660D01*
X0060430Y0055895D02*
X0061374Y0055895D01*
X0061374Y0056130D02*
X0060430Y0056130D01*
X0060430Y0056365D02*
X0061374Y0056365D01*
X0061374Y0056600D02*
X0060430Y0056600D01*
X0060430Y0056835D02*
X0061374Y0056835D01*
X0061374Y0057070D02*
X0060430Y0057070D01*
X0060430Y0057305D02*
X0061374Y0057305D01*
X0061374Y0057540D02*
X0060430Y0057540D01*
X0058461Y0057634D02*
X0058461Y0054720D01*
X0058461Y0057634D02*
X0059405Y0057634D01*
X0059405Y0054720D01*
X0058461Y0054720D01*
X0058461Y0054955D02*
X0059405Y0054955D01*
X0059405Y0055190D02*
X0058461Y0055190D01*
X0058461Y0055425D02*
X0059405Y0055425D01*
X0059405Y0055660D02*
X0058461Y0055660D01*
X0058461Y0055895D02*
X0059405Y0055895D01*
X0059405Y0056130D02*
X0058461Y0056130D01*
X0058461Y0056365D02*
X0059405Y0056365D01*
X0059405Y0056600D02*
X0058461Y0056600D01*
X0058461Y0056835D02*
X0059405Y0056835D01*
X0059405Y0057070D02*
X0058461Y0057070D01*
X0058461Y0057305D02*
X0059405Y0057305D01*
X0059405Y0057540D02*
X0058461Y0057540D01*
X0056493Y0057634D02*
X0056493Y0054720D01*
X0056493Y0057634D02*
X0057437Y0057634D01*
X0057437Y0054720D01*
X0056493Y0054720D01*
X0056493Y0054955D02*
X0057437Y0054955D01*
X0057437Y0055190D02*
X0056493Y0055190D01*
X0056493Y0055425D02*
X0057437Y0055425D01*
X0057437Y0055660D02*
X0056493Y0055660D01*
X0056493Y0055895D02*
X0057437Y0055895D01*
X0057437Y0056130D02*
X0056493Y0056130D01*
X0056493Y0056365D02*
X0057437Y0056365D01*
X0057437Y0056600D02*
X0056493Y0056600D01*
X0056493Y0056835D02*
X0057437Y0056835D01*
X0057437Y0057070D02*
X0056493Y0057070D01*
X0056493Y0057305D02*
X0057437Y0057305D01*
X0057437Y0057540D02*
X0056493Y0057540D01*
X0055469Y0058658D02*
X0052555Y0058658D01*
X0052555Y0059602D01*
X0055469Y0059602D01*
X0055469Y0058658D01*
X0055469Y0058893D02*
X0052555Y0058893D01*
X0052555Y0059128D02*
X0055469Y0059128D01*
X0055469Y0059363D02*
X0052555Y0059363D01*
X0052555Y0059598D02*
X0055469Y0059598D01*
X0055469Y0060626D02*
X0052555Y0060626D01*
X0052555Y0061570D01*
X0055469Y0061570D01*
X0055469Y0060626D01*
X0055469Y0060861D02*
X0052555Y0060861D01*
X0052555Y0061096D02*
X0055469Y0061096D01*
X0055469Y0061331D02*
X0052555Y0061331D01*
X0052555Y0061566D02*
X0055469Y0061566D01*
X0055469Y0062595D02*
X0052555Y0062595D01*
X0052555Y0063539D01*
X0055469Y0063539D01*
X0055469Y0062595D01*
X0055469Y0062830D02*
X0052555Y0062830D01*
X0052555Y0063065D02*
X0055469Y0063065D01*
X0055469Y0063300D02*
X0052555Y0063300D01*
X0052555Y0063535D02*
X0055469Y0063535D01*
X0055469Y0064563D02*
X0052555Y0064563D01*
X0052555Y0065507D01*
X0055469Y0065507D01*
X0055469Y0064563D01*
X0055469Y0064798D02*
X0052555Y0064798D01*
X0052555Y0065033D02*
X0055469Y0065033D01*
X0055469Y0065268D02*
X0052555Y0065268D01*
X0052555Y0065503D02*
X0055469Y0065503D01*
X0055469Y0066532D02*
X0052555Y0066532D01*
X0052555Y0067476D01*
X0055469Y0067476D01*
X0055469Y0066532D01*
X0055469Y0066767D02*
X0052555Y0066767D01*
X0052555Y0067002D02*
X0055469Y0067002D01*
X0055469Y0067237D02*
X0052555Y0067237D01*
X0052555Y0067472D02*
X0055469Y0067472D01*
X0055469Y0068500D02*
X0052555Y0068500D01*
X0052555Y0069444D01*
X0055469Y0069444D01*
X0055469Y0068500D01*
X0055469Y0068735D02*
X0052555Y0068735D01*
X0052555Y0068970D02*
X0055469Y0068970D01*
X0055469Y0069205D02*
X0052555Y0069205D01*
X0052555Y0069440D02*
X0055469Y0069440D01*
D15*
X0059523Y0066414D02*
X0059523Y0061688D01*
X0059523Y0066414D02*
X0064249Y0066414D01*
X0064249Y0061688D01*
X0059523Y0061688D01*
X0059523Y0062868D02*
X0064249Y0062868D01*
X0064249Y0064048D02*
X0059523Y0064048D01*
X0059523Y0065228D02*
X0064249Y0065228D01*
X0064249Y0066408D02*
X0059523Y0066408D01*
D16*
X0061295Y0086492D03*
X0068776Y0086492D03*
X0068776Y0096728D03*
X0065035Y0096728D03*
X0061295Y0096728D03*
D17*
X0049287Y0122909D03*
X0049287Y0131177D03*
X0061098Y0044563D03*
X0061098Y0036295D03*
X0175075Y0032555D03*
X0183343Y0032555D03*
D18*
X0100469Y0092201D03*
X0100469Y0098894D03*
X0084720Y0098894D03*
X0076846Y0098894D03*
X0076846Y0092201D03*
X0084720Y0092201D03*
X0057161Y0123697D03*
X0057161Y0130390D03*
D19*
X0175862Y0056177D03*
X0182555Y0056177D03*
X0182555Y0048303D03*
X0175862Y0048303D03*
X0175862Y0040429D03*
X0182555Y0040429D03*
X0154996Y0036492D03*
X0148303Y0036492D03*
X0148303Y0028618D03*
X0154996Y0028618D03*
X0080193Y0028618D03*
X0073500Y0028618D03*
D20*
X0142516Y0044366D03*
X0149996Y0044366D03*
X0154642Y0044366D03*
X0162122Y0044366D03*
X0158382Y0053028D03*
X0146256Y0053028D03*
D21*
X0133343Y0048303D03*
X0133343Y0046335D03*
X0133343Y0044366D03*
X0133343Y0042398D03*
X0133343Y0040429D03*
X0122713Y0040429D03*
X0122713Y0042398D03*
X0122713Y0044366D03*
X0122713Y0046335D03*
X0122713Y0048303D03*
D22*
X0126059Y0049681D03*
X0128028Y0049681D03*
X0129996Y0049681D03*
X0129996Y0039051D03*
X0128028Y0039051D03*
X0126059Y0039051D03*
D23*
X0094760Y0115390D03*
X0094760Y0122870D03*
X0084523Y0122870D03*
X0084523Y0119130D03*
X0084523Y0115390D03*
D24*
X0111925Y0128894D03*
X0119799Y0128894D03*
X0127673Y0128894D03*
X0135547Y0128894D03*
X0143421Y0128894D03*
X0151295Y0128894D03*
X0159169Y0128894D03*
X0167043Y0128894D03*
X0167043Y0069839D03*
X0159169Y0069839D03*
X0151295Y0069839D03*
X0143421Y0069839D03*
X0135547Y0069839D03*
X0127673Y0069839D03*
X0119799Y0069839D03*
X0111925Y0069839D03*
D25*
X0112083Y0041634D03*
X0104602Y0041634D03*
X0104602Y0031350D03*
X0108343Y0031350D03*
X0112083Y0031350D03*
D26*
X0093677Y0037280D03*
X0091118Y0037280D03*
X0088559Y0037280D03*
X0086000Y0037280D03*
X0083441Y0037280D03*
X0080882Y0037280D03*
X0078323Y0037280D03*
X0075764Y0037280D03*
X0075764Y0059327D03*
X0078323Y0059327D03*
X0080882Y0059327D03*
X0083441Y0059327D03*
X0086000Y0059327D03*
X0088559Y0059327D03*
X0091118Y0059327D03*
X0093677Y0059327D03*
D27*
X0039543Y0078618D03*
X0039543Y0081177D03*
X0039543Y0083736D03*
X0039543Y0086295D03*
X0039543Y0088854D03*
D28*
X0038283Y0093283D02*
X0038285Y0093374D01*
X0038291Y0093464D01*
X0038301Y0093555D01*
X0038315Y0093644D01*
X0038333Y0093733D01*
X0038354Y0093822D01*
X0038380Y0093909D01*
X0038409Y0093995D01*
X0038443Y0094079D01*
X0038479Y0094162D01*
X0038520Y0094244D01*
X0038564Y0094323D01*
X0038611Y0094401D01*
X0038662Y0094476D01*
X0038716Y0094549D01*
X0038773Y0094619D01*
X0038833Y0094687D01*
X0038896Y0094753D01*
X0038962Y0094815D01*
X0039031Y0094874D01*
X0039102Y0094931D01*
X0039176Y0094984D01*
X0039252Y0095034D01*
X0039330Y0095081D01*
X0039410Y0095124D01*
X0039491Y0095163D01*
X0039575Y0095199D01*
X0039660Y0095231D01*
X0039746Y0095260D01*
X0039833Y0095284D01*
X0039922Y0095305D01*
X0040011Y0095322D01*
X0040101Y0095335D01*
X0040191Y0095344D01*
X0040282Y0095349D01*
X0040373Y0095350D01*
X0040463Y0095347D01*
X0040554Y0095340D01*
X0040644Y0095329D01*
X0040734Y0095314D01*
X0040823Y0095295D01*
X0040911Y0095273D01*
X0040997Y0095246D01*
X0041083Y0095216D01*
X0041167Y0095182D01*
X0041250Y0095144D01*
X0041331Y0095103D01*
X0041410Y0095058D01*
X0041487Y0095009D01*
X0041561Y0094958D01*
X0041634Y0094903D01*
X0041704Y0094845D01*
X0041771Y0094784D01*
X0041835Y0094720D01*
X0041897Y0094654D01*
X0041956Y0094584D01*
X0042011Y0094513D01*
X0042064Y0094438D01*
X0042113Y0094362D01*
X0042159Y0094284D01*
X0042201Y0094203D01*
X0042240Y0094121D01*
X0042275Y0094037D01*
X0042306Y0093952D01*
X0042333Y0093865D01*
X0042357Y0093778D01*
X0042377Y0093689D01*
X0042393Y0093600D01*
X0042405Y0093510D01*
X0042413Y0093419D01*
X0042417Y0093328D01*
X0042417Y0093238D01*
X0042413Y0093147D01*
X0042405Y0093056D01*
X0042393Y0092966D01*
X0042377Y0092877D01*
X0042357Y0092788D01*
X0042333Y0092701D01*
X0042306Y0092614D01*
X0042275Y0092529D01*
X0042240Y0092445D01*
X0042201Y0092363D01*
X0042159Y0092282D01*
X0042113Y0092204D01*
X0042064Y0092128D01*
X0042011Y0092053D01*
X0041956Y0091982D01*
X0041897Y0091912D01*
X0041835Y0091846D01*
X0041771Y0091782D01*
X0041704Y0091721D01*
X0041634Y0091663D01*
X0041561Y0091608D01*
X0041487Y0091557D01*
X0041410Y0091508D01*
X0041331Y0091463D01*
X0041250Y0091422D01*
X0041167Y0091384D01*
X0041083Y0091350D01*
X0040997Y0091320D01*
X0040911Y0091293D01*
X0040823Y0091271D01*
X0040734Y0091252D01*
X0040644Y0091237D01*
X0040554Y0091226D01*
X0040463Y0091219D01*
X0040373Y0091216D01*
X0040282Y0091217D01*
X0040191Y0091222D01*
X0040101Y0091231D01*
X0040011Y0091244D01*
X0039922Y0091261D01*
X0039833Y0091282D01*
X0039746Y0091306D01*
X0039660Y0091335D01*
X0039575Y0091367D01*
X0039491Y0091403D01*
X0039410Y0091442D01*
X0039330Y0091485D01*
X0039252Y0091532D01*
X0039176Y0091582D01*
X0039102Y0091635D01*
X0039031Y0091692D01*
X0038962Y0091751D01*
X0038896Y0091813D01*
X0038833Y0091879D01*
X0038773Y0091947D01*
X0038716Y0092017D01*
X0038662Y0092090D01*
X0038611Y0092165D01*
X0038564Y0092243D01*
X0038520Y0092322D01*
X0038479Y0092404D01*
X0038443Y0092487D01*
X0038409Y0092571D01*
X0038380Y0092657D01*
X0038354Y0092744D01*
X0038333Y0092833D01*
X0038315Y0092922D01*
X0038301Y0093011D01*
X0038291Y0093102D01*
X0038285Y0093192D01*
X0038283Y0093283D01*
X0038283Y0074189D02*
X0038285Y0074280D01*
X0038291Y0074370D01*
X0038301Y0074461D01*
X0038315Y0074550D01*
X0038333Y0074639D01*
X0038354Y0074728D01*
X0038380Y0074815D01*
X0038409Y0074901D01*
X0038443Y0074985D01*
X0038479Y0075068D01*
X0038520Y0075150D01*
X0038564Y0075229D01*
X0038611Y0075307D01*
X0038662Y0075382D01*
X0038716Y0075455D01*
X0038773Y0075525D01*
X0038833Y0075593D01*
X0038896Y0075659D01*
X0038962Y0075721D01*
X0039031Y0075780D01*
X0039102Y0075837D01*
X0039176Y0075890D01*
X0039252Y0075940D01*
X0039330Y0075987D01*
X0039410Y0076030D01*
X0039491Y0076069D01*
X0039575Y0076105D01*
X0039660Y0076137D01*
X0039746Y0076166D01*
X0039833Y0076190D01*
X0039922Y0076211D01*
X0040011Y0076228D01*
X0040101Y0076241D01*
X0040191Y0076250D01*
X0040282Y0076255D01*
X0040373Y0076256D01*
X0040463Y0076253D01*
X0040554Y0076246D01*
X0040644Y0076235D01*
X0040734Y0076220D01*
X0040823Y0076201D01*
X0040911Y0076179D01*
X0040997Y0076152D01*
X0041083Y0076122D01*
X0041167Y0076088D01*
X0041250Y0076050D01*
X0041331Y0076009D01*
X0041410Y0075964D01*
X0041487Y0075915D01*
X0041561Y0075864D01*
X0041634Y0075809D01*
X0041704Y0075751D01*
X0041771Y0075690D01*
X0041835Y0075626D01*
X0041897Y0075560D01*
X0041956Y0075490D01*
X0042011Y0075419D01*
X0042064Y0075344D01*
X0042113Y0075268D01*
X0042159Y0075190D01*
X0042201Y0075109D01*
X0042240Y0075027D01*
X0042275Y0074943D01*
X0042306Y0074858D01*
X0042333Y0074771D01*
X0042357Y0074684D01*
X0042377Y0074595D01*
X0042393Y0074506D01*
X0042405Y0074416D01*
X0042413Y0074325D01*
X0042417Y0074234D01*
X0042417Y0074144D01*
X0042413Y0074053D01*
X0042405Y0073962D01*
X0042393Y0073872D01*
X0042377Y0073783D01*
X0042357Y0073694D01*
X0042333Y0073607D01*
X0042306Y0073520D01*
X0042275Y0073435D01*
X0042240Y0073351D01*
X0042201Y0073269D01*
X0042159Y0073188D01*
X0042113Y0073110D01*
X0042064Y0073034D01*
X0042011Y0072959D01*
X0041956Y0072888D01*
X0041897Y0072818D01*
X0041835Y0072752D01*
X0041771Y0072688D01*
X0041704Y0072627D01*
X0041634Y0072569D01*
X0041561Y0072514D01*
X0041487Y0072463D01*
X0041410Y0072414D01*
X0041331Y0072369D01*
X0041250Y0072328D01*
X0041167Y0072290D01*
X0041083Y0072256D01*
X0040997Y0072226D01*
X0040911Y0072199D01*
X0040823Y0072177D01*
X0040734Y0072158D01*
X0040644Y0072143D01*
X0040554Y0072132D01*
X0040463Y0072125D01*
X0040373Y0072122D01*
X0040282Y0072123D01*
X0040191Y0072128D01*
X0040101Y0072137D01*
X0040011Y0072150D01*
X0039922Y0072167D01*
X0039833Y0072188D01*
X0039746Y0072212D01*
X0039660Y0072241D01*
X0039575Y0072273D01*
X0039491Y0072309D01*
X0039410Y0072348D01*
X0039330Y0072391D01*
X0039252Y0072438D01*
X0039176Y0072488D01*
X0039102Y0072541D01*
X0039031Y0072598D01*
X0038962Y0072657D01*
X0038896Y0072719D01*
X0038833Y0072785D01*
X0038773Y0072853D01*
X0038716Y0072923D01*
X0038662Y0072996D01*
X0038611Y0073071D01*
X0038564Y0073149D01*
X0038520Y0073228D01*
X0038479Y0073310D01*
X0038443Y0073393D01*
X0038409Y0073477D01*
X0038380Y0073563D01*
X0038354Y0073650D01*
X0038333Y0073739D01*
X0038315Y0073828D01*
X0038301Y0073917D01*
X0038291Y0074008D01*
X0038285Y0074098D01*
X0038283Y0074189D01*
D29*
X0093382Y0067988D03*
X0099681Y0067988D03*
X0099681Y0083736D03*
X0093382Y0083736D03*
D30*
X0076846Y0129406D03*
X0065035Y0129406D03*
M02*
