G75*
%MOIN*%
%OFA0B0*%
%FSLAX25Y25*%
%IPPOS*%
%LPD*%
%AMOC8*
5,1,8,0,0,1.08239X$1,22.5*
%
%ADD10C,0.00600*%
%ADD11R,0.10400X0.10400*%
%ADD12C,0.00000*%
%ADD13C,0.04534*%
%ADD14C,0.14243*%
D10*
X0021728Y0020744D02*
X0202831Y0020744D01*
X0202831Y0138854D01*
X0021728Y0138854D01*
X0021728Y0020744D01*
D11*
X0028421Y0069071D03*
X0028421Y0098402D03*
D12*
X0038283Y0093283D02*
X0038285Y0093374D01*
X0038291Y0093464D01*
X0038301Y0093555D01*
X0038315Y0093644D01*
X0038333Y0093733D01*
X0038354Y0093822D01*
X0038380Y0093909D01*
X0038409Y0093995D01*
X0038443Y0094079D01*
X0038479Y0094162D01*
X0038520Y0094244D01*
X0038564Y0094323D01*
X0038611Y0094401D01*
X0038662Y0094476D01*
X0038716Y0094549D01*
X0038773Y0094619D01*
X0038833Y0094687D01*
X0038896Y0094753D01*
X0038962Y0094815D01*
X0039031Y0094874D01*
X0039102Y0094931D01*
X0039176Y0094984D01*
X0039252Y0095034D01*
X0039330Y0095081D01*
X0039410Y0095124D01*
X0039491Y0095163D01*
X0039575Y0095199D01*
X0039660Y0095231D01*
X0039746Y0095260D01*
X0039833Y0095284D01*
X0039922Y0095305D01*
X0040011Y0095322D01*
X0040101Y0095335D01*
X0040191Y0095344D01*
X0040282Y0095349D01*
X0040373Y0095350D01*
X0040463Y0095347D01*
X0040554Y0095340D01*
X0040644Y0095329D01*
X0040734Y0095314D01*
X0040823Y0095295D01*
X0040911Y0095273D01*
X0040997Y0095246D01*
X0041083Y0095216D01*
X0041167Y0095182D01*
X0041250Y0095144D01*
X0041331Y0095103D01*
X0041410Y0095058D01*
X0041487Y0095009D01*
X0041561Y0094958D01*
X0041634Y0094903D01*
X0041704Y0094845D01*
X0041771Y0094784D01*
X0041835Y0094720D01*
X0041897Y0094654D01*
X0041956Y0094584D01*
X0042011Y0094513D01*
X0042064Y0094438D01*
X0042113Y0094362D01*
X0042159Y0094284D01*
X0042201Y0094203D01*
X0042240Y0094121D01*
X0042275Y0094037D01*
X0042306Y0093952D01*
X0042333Y0093865D01*
X0042357Y0093778D01*
X0042377Y0093689D01*
X0042393Y0093600D01*
X0042405Y0093510D01*
X0042413Y0093419D01*
X0042417Y0093328D01*
X0042417Y0093238D01*
X0042413Y0093147D01*
X0042405Y0093056D01*
X0042393Y0092966D01*
X0042377Y0092877D01*
X0042357Y0092788D01*
X0042333Y0092701D01*
X0042306Y0092614D01*
X0042275Y0092529D01*
X0042240Y0092445D01*
X0042201Y0092363D01*
X0042159Y0092282D01*
X0042113Y0092204D01*
X0042064Y0092128D01*
X0042011Y0092053D01*
X0041956Y0091982D01*
X0041897Y0091912D01*
X0041835Y0091846D01*
X0041771Y0091782D01*
X0041704Y0091721D01*
X0041634Y0091663D01*
X0041561Y0091608D01*
X0041487Y0091557D01*
X0041410Y0091508D01*
X0041331Y0091463D01*
X0041250Y0091422D01*
X0041167Y0091384D01*
X0041083Y0091350D01*
X0040997Y0091320D01*
X0040911Y0091293D01*
X0040823Y0091271D01*
X0040734Y0091252D01*
X0040644Y0091237D01*
X0040554Y0091226D01*
X0040463Y0091219D01*
X0040373Y0091216D01*
X0040282Y0091217D01*
X0040191Y0091222D01*
X0040101Y0091231D01*
X0040011Y0091244D01*
X0039922Y0091261D01*
X0039833Y0091282D01*
X0039746Y0091306D01*
X0039660Y0091335D01*
X0039575Y0091367D01*
X0039491Y0091403D01*
X0039410Y0091442D01*
X0039330Y0091485D01*
X0039252Y0091532D01*
X0039176Y0091582D01*
X0039102Y0091635D01*
X0039031Y0091692D01*
X0038962Y0091751D01*
X0038896Y0091813D01*
X0038833Y0091879D01*
X0038773Y0091947D01*
X0038716Y0092017D01*
X0038662Y0092090D01*
X0038611Y0092165D01*
X0038564Y0092243D01*
X0038520Y0092322D01*
X0038479Y0092404D01*
X0038443Y0092487D01*
X0038409Y0092571D01*
X0038380Y0092657D01*
X0038354Y0092744D01*
X0038333Y0092833D01*
X0038315Y0092922D01*
X0038301Y0093011D01*
X0038291Y0093102D01*
X0038285Y0093192D01*
X0038283Y0093283D01*
X0038283Y0074189D02*
X0038285Y0074280D01*
X0038291Y0074370D01*
X0038301Y0074461D01*
X0038315Y0074550D01*
X0038333Y0074639D01*
X0038354Y0074728D01*
X0038380Y0074815D01*
X0038409Y0074901D01*
X0038443Y0074985D01*
X0038479Y0075068D01*
X0038520Y0075150D01*
X0038564Y0075229D01*
X0038611Y0075307D01*
X0038662Y0075382D01*
X0038716Y0075455D01*
X0038773Y0075525D01*
X0038833Y0075593D01*
X0038896Y0075659D01*
X0038962Y0075721D01*
X0039031Y0075780D01*
X0039102Y0075837D01*
X0039176Y0075890D01*
X0039252Y0075940D01*
X0039330Y0075987D01*
X0039410Y0076030D01*
X0039491Y0076069D01*
X0039575Y0076105D01*
X0039660Y0076137D01*
X0039746Y0076166D01*
X0039833Y0076190D01*
X0039922Y0076211D01*
X0040011Y0076228D01*
X0040101Y0076241D01*
X0040191Y0076250D01*
X0040282Y0076255D01*
X0040373Y0076256D01*
X0040463Y0076253D01*
X0040554Y0076246D01*
X0040644Y0076235D01*
X0040734Y0076220D01*
X0040823Y0076201D01*
X0040911Y0076179D01*
X0040997Y0076152D01*
X0041083Y0076122D01*
X0041167Y0076088D01*
X0041250Y0076050D01*
X0041331Y0076009D01*
X0041410Y0075964D01*
X0041487Y0075915D01*
X0041561Y0075864D01*
X0041634Y0075809D01*
X0041704Y0075751D01*
X0041771Y0075690D01*
X0041835Y0075626D01*
X0041897Y0075560D01*
X0041956Y0075490D01*
X0042011Y0075419D01*
X0042064Y0075344D01*
X0042113Y0075268D01*
X0042159Y0075190D01*
X0042201Y0075109D01*
X0042240Y0075027D01*
X0042275Y0074943D01*
X0042306Y0074858D01*
X0042333Y0074771D01*
X0042357Y0074684D01*
X0042377Y0074595D01*
X0042393Y0074506D01*
X0042405Y0074416D01*
X0042413Y0074325D01*
X0042417Y0074234D01*
X0042417Y0074144D01*
X0042413Y0074053D01*
X0042405Y0073962D01*
X0042393Y0073872D01*
X0042377Y0073783D01*
X0042357Y0073694D01*
X0042333Y0073607D01*
X0042306Y0073520D01*
X0042275Y0073435D01*
X0042240Y0073351D01*
X0042201Y0073269D01*
X0042159Y0073188D01*
X0042113Y0073110D01*
X0042064Y0073034D01*
X0042011Y0072959D01*
X0041956Y0072888D01*
X0041897Y0072818D01*
X0041835Y0072752D01*
X0041771Y0072688D01*
X0041704Y0072627D01*
X0041634Y0072569D01*
X0041561Y0072514D01*
X0041487Y0072463D01*
X0041410Y0072414D01*
X0041331Y0072369D01*
X0041250Y0072328D01*
X0041167Y0072290D01*
X0041083Y0072256D01*
X0040997Y0072226D01*
X0040911Y0072199D01*
X0040823Y0072177D01*
X0040734Y0072158D01*
X0040644Y0072143D01*
X0040554Y0072132D01*
X0040463Y0072125D01*
X0040373Y0072122D01*
X0040282Y0072123D01*
X0040191Y0072128D01*
X0040101Y0072137D01*
X0040011Y0072150D01*
X0039922Y0072167D01*
X0039833Y0072188D01*
X0039746Y0072212D01*
X0039660Y0072241D01*
X0039575Y0072273D01*
X0039491Y0072309D01*
X0039410Y0072348D01*
X0039330Y0072391D01*
X0039252Y0072438D01*
X0039176Y0072488D01*
X0039102Y0072541D01*
X0039031Y0072598D01*
X0038962Y0072657D01*
X0038896Y0072719D01*
X0038833Y0072785D01*
X0038773Y0072853D01*
X0038716Y0072923D01*
X0038662Y0072996D01*
X0038611Y0073071D01*
X0038564Y0073149D01*
X0038520Y0073228D01*
X0038479Y0073310D01*
X0038443Y0073393D01*
X0038409Y0073477D01*
X0038380Y0073563D01*
X0038354Y0073650D01*
X0038333Y0073739D01*
X0038315Y0073828D01*
X0038301Y0073917D01*
X0038291Y0074008D01*
X0038285Y0074098D01*
X0038283Y0074189D01*
D13*
X0040350Y0074189D03*
X0040350Y0093283D03*
D14*
X0033539Y0127043D03*
X0033539Y0032555D03*
M02*
