G75*
%MOIN*%
%OFA0B0*%
%FSLAX25Y25*%
%IPPOS*%
%LPD*%
%AMOC8*
5,1,8,0,0,1.08239X$1,22.5*
%
%ADD10C,0.00600*%
%ADD11C,0.00512*%
%ADD12R,0.05906X0.05118*%
%ADD13R,0.05118X0.05906*%
%ADD14R,0.05512X0.05512*%
%ADD15R,0.11031X0.11031*%
%ADD16C,0.00236*%
%ADD17C,0.01181*%
%ADD18R,0.02165X0.04724*%
%ADD19R,0.04724X0.04724*%
%ADD20R,0.03937X0.04331*%
%ADD21R,0.04331X0.03937*%
%ADD22R,0.03937X0.05512*%
%ADD23R,0.01969X0.00984*%
%ADD24R,0.00984X0.01969*%
%ADD25R,0.04724X0.02165*%
%ADD26R,0.04724X0.07874*%
%ADD27R,0.02362X0.04724*%
%ADD28R,0.01378X0.06299*%
%ADD29R,0.06890X0.01575*%
%ADD30R,0.10000X0.10000*%
%ADD31C,0.00000*%
%ADD32R,0.03937X0.03937*%
%ADD33C,0.13843*%
%ADD34R,0.05000X0.10000*%
%ADD35C,0.01600*%
%ADD36C,0.00800*%
%ADD37C,0.02578*%
%ADD38C,0.02400*%
D10*
X0021728Y0020744D02*
X0202831Y0020744D01*
X0202831Y0138854D01*
X0021728Y0138854D01*
X0021728Y0020744D01*
X0023328Y0022344D02*
X0023328Y0062771D01*
X0028121Y0062771D01*
X0028121Y0068771D01*
X0028721Y0068771D01*
X0028721Y0062771D01*
X0033592Y0062771D01*
X0033923Y0062859D01*
X0034219Y0063031D01*
X0034462Y0063273D01*
X0034633Y0063569D01*
X0034721Y0063900D01*
X0034721Y0068771D01*
X0028721Y0068771D01*
X0028721Y0069371D01*
X0028121Y0069371D01*
X0028121Y0075371D01*
X0023328Y0075371D01*
X0023328Y0092102D01*
X0028121Y0092102D01*
X0028121Y0098102D01*
X0028721Y0098102D01*
X0028721Y0098702D01*
X0028121Y0098702D01*
X0028121Y0104702D01*
X0023328Y0104702D01*
X0023328Y0137254D01*
X0201231Y0137254D01*
X0201231Y0022344D01*
X0023328Y0022344D01*
X0023328Y0022540D02*
X0201231Y0022540D01*
X0201231Y0023138D02*
X0188510Y0023138D01*
X0187953Y0022581D02*
X0189183Y0023811D01*
X0197057Y0031685D01*
X0197057Y0053110D01*
X0195827Y0054340D01*
X0191890Y0058277D01*
X0186020Y0058277D01*
X0186020Y0058684D01*
X0185259Y0059446D01*
X0179851Y0059446D01*
X0179209Y0058803D01*
X0178566Y0059446D01*
X0177462Y0059446D01*
X0177462Y0062580D01*
X0177466Y0062585D01*
X0177861Y0063536D01*
X0177861Y0064566D01*
X0177466Y0065518D01*
X0176738Y0066246D01*
X0175787Y0066640D01*
X0174757Y0066640D01*
X0173805Y0066246D01*
X0173077Y0065518D01*
X0172935Y0065174D01*
X0172935Y0067570D01*
X0200632Y0067570D01*
X0200808Y0067746D01*
X0200808Y0130986D01*
X0200632Y0131162D01*
X0172825Y0131162D01*
X0172649Y0130986D01*
X0172649Y0117490D01*
X0172603Y0117509D01*
X0172475Y0117768D01*
X0172201Y0117861D01*
X0171997Y0118065D01*
X0171598Y0118065D01*
X0161015Y0121639D01*
X0160947Y0123657D01*
X0162070Y0123657D01*
X0162831Y0124418D01*
X0162831Y0133369D01*
X0162070Y0134131D01*
X0156269Y0134131D01*
X0155507Y0133369D01*
X0155507Y0124418D01*
X0156269Y0123657D01*
X0157745Y0123657D01*
X0157843Y0120742D01*
X0157716Y0120365D01*
X0157844Y0120107D01*
X0157844Y0119818D01*
X0158127Y0119536D01*
X0158304Y0119177D01*
X0158577Y0119085D01*
X0158781Y0118881D01*
X0159181Y0118881D01*
X0168746Y0115650D01*
X0168746Y0114717D01*
X0169140Y0113766D01*
X0169868Y0113037D01*
X0170820Y0112643D01*
X0171850Y0112643D01*
X0172649Y0112974D01*
X0172649Y0109588D01*
X0172547Y0109828D01*
X0172235Y0109953D01*
X0171997Y0110191D01*
X0171644Y0110191D01*
X0153170Y0117625D01*
X0153170Y0120114D01*
X0153191Y0120136D01*
X0153170Y0120772D01*
X0153170Y0121408D01*
X0153148Y0121430D01*
X0153073Y0123657D01*
X0154196Y0123657D01*
X0154957Y0124418D01*
X0154957Y0133369D01*
X0154196Y0134131D01*
X0148395Y0134131D01*
X0147633Y0133369D01*
X0147633Y0124418D01*
X0148395Y0123657D01*
X0149871Y0123657D01*
X0149970Y0120718D01*
X0149970Y0116854D01*
X0149838Y0116527D01*
X0149970Y0116217D01*
X0149970Y0115881D01*
X0150220Y0115632D01*
X0150358Y0115307D01*
X0150670Y0115182D01*
X0150907Y0114944D01*
X0151260Y0114944D01*
X0169735Y0107510D01*
X0169735Y0075076D01*
X0165061Y0075076D01*
X0165061Y0080462D01*
X0164123Y0081399D01*
X0160186Y0085336D01*
X0157648Y0085336D01*
X0157053Y0085931D01*
X0156102Y0086325D01*
X0155072Y0086325D01*
X0154120Y0085931D01*
X0153392Y0085203D01*
X0153115Y0084534D01*
X0152312Y0085336D01*
X0150302Y0087347D01*
X0150302Y0088188D01*
X0149907Y0089140D01*
X0149179Y0089868D01*
X0148228Y0090262D01*
X0147198Y0090262D01*
X0146246Y0089868D01*
X0145518Y0089140D01*
X0145124Y0088188D01*
X0145124Y0087158D01*
X0145518Y0086207D01*
X0146246Y0085478D01*
X0147198Y0085084D01*
X0148039Y0085084D01*
X0150050Y0083073D01*
X0150050Y0079136D01*
X0154111Y0075076D01*
X0152522Y0075076D01*
X0152316Y0075282D01*
X0152110Y0075660D01*
X0151864Y0075733D01*
X0151683Y0075914D01*
X0151252Y0075914D01*
X0146273Y0077388D01*
X0146092Y0077569D01*
X0145661Y0077569D01*
X0145247Y0077691D01*
X0145022Y0077569D01*
X0141794Y0077569D01*
X0141199Y0078163D01*
X0140247Y0078558D01*
X0139217Y0078558D01*
X0138266Y0078163D01*
X0137537Y0077435D01*
X0137143Y0076484D01*
X0137143Y0075454D01*
X0137300Y0075076D01*
X0134909Y0075076D01*
X0145021Y0085188D01*
X0145021Y0123657D01*
X0146322Y0123657D01*
X0147083Y0124418D01*
X0147083Y0133369D01*
X0146322Y0134131D01*
X0140521Y0134131D01*
X0139759Y0133369D01*
X0139759Y0124418D01*
X0140521Y0123657D01*
X0141821Y0123657D01*
X0141821Y0086513D01*
X0130673Y0075364D01*
X0130384Y0075076D01*
X0124773Y0075076D01*
X0124011Y0074314D01*
X0124011Y0065363D01*
X0124773Y0064602D01*
X0126315Y0064602D01*
X0124417Y0062703D01*
X0123576Y0062703D01*
X0122624Y0062309D01*
X0121896Y0061581D01*
X0121502Y0060629D01*
X0121502Y0059599D01*
X0121896Y0058648D01*
X0122624Y0057919D01*
X0122967Y0057777D01*
X0115554Y0057777D01*
X0111617Y0053840D01*
X0105628Y0053840D01*
X0105872Y0053941D01*
X0106600Y0054670D01*
X0106994Y0055621D01*
X0106994Y0056651D01*
X0106600Y0057603D01*
X0105872Y0058331D01*
X0104920Y0058725D01*
X0104120Y0058725D01*
X0103920Y0058925D01*
X0103913Y0058925D01*
X0098118Y0064720D01*
X0102188Y0064720D01*
X0102950Y0065481D01*
X0102950Y0067181D01*
X0103743Y0066388D01*
X0103789Y0066342D01*
X0103789Y0065501D01*
X0104183Y0064550D01*
X0104911Y0063821D01*
X0105863Y0063427D01*
X0106893Y0063427D01*
X0107844Y0063821D01*
X0108572Y0064550D01*
X0108720Y0064906D01*
X0108765Y0064861D01*
X0109061Y0064690D01*
X0109392Y0064602D01*
X0111625Y0064602D01*
X0111625Y0069539D01*
X0108263Y0069539D01*
X0108263Y0067792D01*
X0107844Y0068211D01*
X0106893Y0068605D01*
X0106051Y0068605D01*
X0106005Y0068651D01*
X0106005Y0072588D01*
X0102068Y0076525D01*
X0101131Y0077462D01*
X0090719Y0077462D01*
X0090124Y0078057D01*
X0089172Y0078451D01*
X0088142Y0078451D01*
X0087191Y0078057D01*
X0086820Y0077687D01*
X0086820Y0083063D01*
X0090494Y0086737D01*
X0090494Y0086624D01*
X0090113Y0086243D01*
X0090113Y0081229D01*
X0090875Y0080468D01*
X0095889Y0080468D01*
X0096531Y0081110D01*
X0097174Y0080468D01*
X0102188Y0080468D01*
X0102950Y0081229D01*
X0102950Y0085212D01*
X0116481Y0074658D01*
X0116137Y0074314D01*
X0116137Y0065363D01*
X0116899Y0064602D01*
X0122700Y0064602D01*
X0123461Y0065363D01*
X0123461Y0074314D01*
X0122700Y0075076D01*
X0121042Y0075076D01*
X0121031Y0075168D01*
X0120586Y0075515D01*
X0120187Y0075914D01*
X0120075Y0075914D01*
X0113167Y0081301D01*
X0113746Y0081541D01*
X0114474Y0082270D01*
X0114868Y0083221D01*
X0114868Y0084251D01*
X0114623Y0084845D01*
X0117531Y0090662D01*
X0137147Y0110278D01*
X0137147Y0123657D01*
X0138448Y0123657D01*
X0139209Y0124418D01*
X0139209Y0133369D01*
X0138448Y0134131D01*
X0132647Y0134131D01*
X0131885Y0133369D01*
X0131885Y0124418D01*
X0132647Y0123657D01*
X0133947Y0123657D01*
X0133947Y0111604D01*
X0115352Y0093009D01*
X0115082Y0092919D01*
X0114902Y0092558D01*
X0114617Y0092273D01*
X0114617Y0091988D01*
X0111785Y0086325D01*
X0111765Y0086325D01*
X0110813Y0085931D01*
X0110085Y0085203D01*
X0109691Y0084251D01*
X0109691Y0084012D01*
X0103264Y0089024D01*
X0103737Y0089497D01*
X0103737Y0094905D01*
X0103057Y0095585D01*
X0103235Y0095688D01*
X0103477Y0095930D01*
X0103648Y0096227D01*
X0103737Y0096557D01*
X0103737Y0098594D01*
X0100769Y0098594D01*
X0100769Y0099194D01*
X0103737Y0099194D01*
X0103737Y0101230D01*
X0103648Y0101561D01*
X0103477Y0101857D01*
X0103235Y0102099D01*
X0102939Y0102270D01*
X0102608Y0102359D01*
X0100768Y0102359D01*
X0100768Y0099194D01*
X0100169Y0099194D01*
X0100169Y0102303D01*
X0100773Y0102907D01*
X0101338Y0102907D01*
X0102568Y0104138D01*
X0102568Y0120770D01*
X0105039Y0120770D01*
X0105275Y0121006D01*
X0107008Y0121006D01*
X0109658Y0123657D01*
X0114826Y0123657D01*
X0115587Y0124418D01*
X0115587Y0133369D01*
X0114826Y0134131D01*
X0109025Y0134131D01*
X0108263Y0133369D01*
X0108263Y0128201D01*
X0105268Y0125206D01*
X0103536Y0125206D01*
X0103299Y0124970D01*
X0097944Y0124970D01*
X0097661Y0125253D01*
X0091860Y0125253D01*
X0091098Y0124491D01*
X0091098Y0121249D01*
X0091860Y0120487D01*
X0097661Y0120487D01*
X0097944Y0120770D01*
X0098369Y0120770D01*
X0098369Y0117065D01*
X0097661Y0117772D01*
X0091860Y0117772D01*
X0091098Y0117011D01*
X0091098Y0113769D01*
X0091860Y0113007D01*
X0097661Y0113007D01*
X0098369Y0113715D01*
X0098369Y0105312D01*
X0096396Y0103339D01*
X0096091Y0103034D01*
X0096049Y0103058D01*
X0095718Y0103146D01*
X0092894Y0103146D01*
X0092894Y0099587D01*
X0092295Y0099587D01*
X0092294Y0099587D02*
X0092294Y0098987D01*
X0088342Y0098987D01*
X0088342Y0096557D01*
X0088430Y0096227D01*
X0088601Y0095930D01*
X0088844Y0095688D01*
X0089022Y0095585D01*
X0088342Y0094905D01*
X0088342Y0090524D01*
X0087989Y0090171D01*
X0087989Y0094905D01*
X0087309Y0095585D01*
X0087487Y0095688D01*
X0087729Y0095930D01*
X0087900Y0096227D01*
X0087989Y0096557D01*
X0087989Y0098594D01*
X0085021Y0098594D01*
X0085021Y0099194D01*
X0087989Y0099194D01*
X0087989Y0101230D01*
X0087900Y0101561D01*
X0087729Y0101857D01*
X0087487Y0102099D01*
X0087191Y0102270D01*
X0086860Y0102359D01*
X0085020Y0102359D01*
X0085020Y0099194D01*
X0084420Y0099194D01*
X0084420Y0098594D01*
X0081452Y0098594D01*
X0081452Y0096557D01*
X0081541Y0096227D01*
X0081712Y0095930D01*
X0081954Y0095688D01*
X0082132Y0095585D01*
X0081452Y0094905D01*
X0081452Y0089497D01*
X0082213Y0088735D01*
X0083120Y0088735D01*
X0083120Y0088336D01*
X0080121Y0085336D01*
X0073572Y0085336D01*
X0071158Y0087750D01*
X0071158Y0089393D01*
X0071041Y0089510D01*
X0073578Y0089510D01*
X0073578Y0089497D01*
X0074339Y0088735D01*
X0079353Y0088735D01*
X0080115Y0089497D01*
X0080115Y0094905D01*
X0079472Y0095547D01*
X0080115Y0096190D01*
X0080115Y0101598D01*
X0080000Y0101713D01*
X0081748Y0105302D01*
X0081777Y0105313D01*
X0082036Y0105894D01*
X0082315Y0106466D01*
X0082305Y0106495D01*
X0085212Y0113007D01*
X0087424Y0113007D01*
X0088185Y0113769D01*
X0088185Y0117011D01*
X0087934Y0117263D01*
X0088097Y0117545D01*
X0088185Y0117876D01*
X0088185Y0118889D01*
X0084765Y0118889D01*
X0084765Y0119371D01*
X0088185Y0119371D01*
X0088185Y0120384D01*
X0088097Y0120714D01*
X0087934Y0120997D01*
X0088185Y0121249D01*
X0088185Y0123562D01*
X0090563Y0125940D01*
X0095062Y0125940D01*
X0095742Y0126621D01*
X0095846Y0126442D01*
X0096088Y0126200D01*
X0096384Y0126029D01*
X0096715Y0125940D01*
X0099145Y0125940D01*
X0099145Y0129893D01*
X0099745Y0129893D01*
X0099745Y0130493D01*
X0103304Y0130493D01*
X0103304Y0133317D01*
X0103215Y0133647D01*
X0103044Y0133944D01*
X0102802Y0134186D01*
X0102506Y0134357D01*
X0102175Y0134446D01*
X0099745Y0134446D01*
X0099745Y0130493D01*
X0099145Y0130493D01*
X0099145Y0134446D01*
X0096715Y0134446D01*
X0096384Y0134357D01*
X0096088Y0134186D01*
X0095846Y0133944D01*
X0095742Y0133765D01*
X0095062Y0134446D01*
X0088867Y0134446D01*
X0088106Y0133684D01*
X0088106Y0129422D01*
X0083936Y0125253D01*
X0081623Y0125253D01*
X0080861Y0124491D01*
X0080861Y0124428D01*
X0080639Y0124206D01*
X0080646Y0124234D01*
X0080646Y0129106D01*
X0077146Y0129106D01*
X0077146Y0129105D02*
X0077146Y0123106D01*
X0079518Y0123106D01*
X0079546Y0123113D01*
X0078261Y0121828D01*
X0078261Y0118292D01*
X0077123Y0117153D01*
X0077123Y0118082D01*
X0073564Y0118082D01*
X0073564Y0118682D01*
X0077123Y0118682D01*
X0077123Y0121506D01*
X0077034Y0121836D01*
X0076863Y0122133D01*
X0076621Y0122375D01*
X0076325Y0122546D01*
X0075994Y0122635D01*
X0073564Y0122635D01*
X0073564Y0118682D01*
X0072964Y0118682D01*
X0072964Y0122635D01*
X0070534Y0122635D01*
X0070203Y0122546D01*
X0069906Y0122375D01*
X0069664Y0122133D01*
X0069561Y0121954D01*
X0068881Y0122635D01*
X0067883Y0122635D01*
X0067883Y0123106D01*
X0068074Y0123106D01*
X0068835Y0123867D01*
X0068835Y0134944D01*
X0068074Y0135705D01*
X0061997Y0135705D01*
X0061235Y0134944D01*
X0061235Y0123867D01*
X0061997Y0123106D01*
X0063683Y0123106D01*
X0063683Y0122635D01*
X0062686Y0122635D01*
X0061924Y0121873D01*
X0061924Y0114891D01*
X0062686Y0114129D01*
X0063683Y0114129D01*
X0063683Y0113553D01*
X0063617Y0113487D01*
X0063617Y0106899D01*
X0063783Y0106732D01*
X0063783Y0105139D01*
X0060229Y0101584D01*
X0059587Y0100943D01*
X0059587Y0118427D01*
X0059677Y0118554D01*
X0059587Y0119072D01*
X0059587Y0119597D01*
X0059477Y0119707D01*
X0059386Y0120231D01*
X0059668Y0120231D01*
X0060430Y0120993D01*
X0060430Y0126401D01*
X0059787Y0127043D01*
X0060430Y0127686D01*
X0060430Y0133094D01*
X0059668Y0133855D01*
X0054654Y0133855D01*
X0053893Y0133094D01*
X0053893Y0132557D01*
X0053206Y0132671D01*
X0053100Y0132777D01*
X0052950Y0132777D01*
X0052950Y0134078D01*
X0052188Y0134839D01*
X0046387Y0134839D01*
X0045625Y0134078D01*
X0045625Y0128276D01*
X0046387Y0127515D01*
X0052188Y0127515D01*
X0052950Y0128276D01*
X0052950Y0129470D01*
X0053893Y0129312D01*
X0053893Y0127686D01*
X0054536Y0127043D01*
X0053893Y0126401D01*
X0053893Y0120993D01*
X0054654Y0120231D01*
X0056138Y0120231D01*
X0056387Y0118796D01*
X0056387Y0114249D01*
X0049812Y0114249D01*
X0049268Y0113705D01*
X0048724Y0114249D01*
X0048368Y0114249D01*
X0049926Y0119247D01*
X0052188Y0119247D01*
X0052950Y0120009D01*
X0052950Y0125810D01*
X0052188Y0126572D01*
X0046387Y0126572D01*
X0045625Y0125810D01*
X0045625Y0120009D01*
X0046387Y0119247D01*
X0046574Y0119247D01*
X0045017Y0114249D01*
X0042135Y0114249D01*
X0041373Y0113487D01*
X0041373Y0106899D01*
X0042135Y0106137D01*
X0048724Y0106137D01*
X0049268Y0106681D01*
X0049812Y0106137D01*
X0051006Y0106137D01*
X0051006Y0093811D01*
X0058913Y0085905D01*
X0058913Y0085646D01*
X0058628Y0085931D01*
X0057676Y0086325D01*
X0056646Y0086325D01*
X0055695Y0085931D01*
X0054967Y0085203D01*
X0054572Y0084251D01*
X0054572Y0083221D01*
X0054967Y0082270D01*
X0055695Y0081541D01*
X0056646Y0081147D01*
X0057488Y0081147D01*
X0059498Y0079136D01*
X0059498Y0077597D01*
X0049200Y0087895D01*
X0044605Y0087895D01*
X0046220Y0089510D01*
X0047450Y0090740D01*
X0047450Y0096417D01*
X0034918Y0108949D01*
X0034918Y0113487D01*
X0034157Y0114249D01*
X0027568Y0114249D01*
X0026806Y0113487D01*
X0026806Y0106899D01*
X0027568Y0106137D01*
X0031791Y0106137D01*
X0033226Y0104702D01*
X0028721Y0104702D01*
X0028721Y0098702D01*
X0034721Y0098702D01*
X0034721Y0103207D01*
X0041459Y0096468D01*
X0041020Y0096650D01*
X0039681Y0096650D01*
X0038443Y0096138D01*
X0037496Y0095191D01*
X0036983Y0093953D01*
X0036983Y0092614D01*
X0037496Y0091376D01*
X0037918Y0090954D01*
X0033851Y0090954D01*
X0032670Y0089773D01*
X0031439Y0088543D01*
X0031439Y0085298D01*
X0031345Y0085203D01*
X0030950Y0084251D01*
X0030950Y0083221D01*
X0031345Y0082270D01*
X0032073Y0081541D01*
X0033024Y0081147D01*
X0034054Y0081147D01*
X0034798Y0081455D01*
X0034798Y0079851D01*
X0034856Y0079793D01*
X0034798Y0079577D01*
X0034798Y0078712D01*
X0039450Y0078712D01*
X0039450Y0078524D01*
X0034798Y0078524D01*
X0034798Y0077660D01*
X0034887Y0077329D01*
X0035058Y0077032D01*
X0035300Y0076790D01*
X0035597Y0076619D01*
X0035927Y0076531D01*
X0037931Y0076531D01*
X0037496Y0076096D01*
X0036983Y0074859D01*
X0036983Y0073519D01*
X0037496Y0072282D01*
X0038443Y0071335D01*
X0039681Y0070822D01*
X0041020Y0070822D01*
X0042258Y0071335D01*
X0043205Y0072282D01*
X0043717Y0073519D01*
X0043717Y0074859D01*
X0043205Y0076096D01*
X0042770Y0076531D01*
X0043159Y0076531D01*
X0043490Y0076619D01*
X0043786Y0076790D01*
X0044028Y0077032D01*
X0044200Y0077329D01*
X0044288Y0077660D01*
X0044288Y0078524D01*
X0039637Y0078524D01*
X0039637Y0078712D01*
X0044288Y0078712D01*
X0044288Y0079577D01*
X0044230Y0079793D01*
X0044288Y0079851D01*
X0044288Y0081144D01*
X0044835Y0080917D01*
X0045865Y0080917D01*
X0046817Y0081311D01*
X0047545Y0082040D01*
X0047939Y0082991D01*
X0047939Y0084021D01*
X0047660Y0084695D01*
X0047874Y0084695D01*
X0054357Y0078212D01*
X0053780Y0078451D01*
X0052750Y0078451D01*
X0051799Y0078057D01*
X0051276Y0077535D01*
X0050754Y0078057D01*
X0049802Y0078451D01*
X0048772Y0078451D01*
X0047821Y0078057D01*
X0047093Y0077329D01*
X0046698Y0076377D01*
X0046698Y0075347D01*
X0047093Y0074396D01*
X0047821Y0073667D01*
X0048335Y0073455D01*
X0050929Y0070860D01*
X0051447Y0070342D01*
X0051137Y0070032D01*
X0051137Y0058070D01*
X0051968Y0057239D01*
X0055074Y0057239D01*
X0055074Y0054133D01*
X0055905Y0053302D01*
X0067372Y0053302D01*
X0067372Y0042491D01*
X0066778Y0041896D01*
X0066383Y0040944D01*
X0066383Y0039914D01*
X0066778Y0038963D01*
X0067506Y0038234D01*
X0068457Y0037840D01*
X0069487Y0037840D01*
X0070439Y0038234D01*
X0071167Y0038963D01*
X0071561Y0039914D01*
X0071561Y0040944D01*
X0071167Y0041896D01*
X0070572Y0042491D01*
X0070572Y0057239D01*
X0071113Y0057239D01*
X0071113Y0051773D01*
X0072051Y0050836D01*
X0074257Y0048629D01*
X0074257Y0047788D01*
X0074652Y0046837D01*
X0075380Y0046108D01*
X0076331Y0045714D01*
X0077361Y0045714D01*
X0078313Y0046108D01*
X0079041Y0046837D01*
X0079435Y0047788D01*
X0079435Y0048818D01*
X0079041Y0049770D01*
X0078313Y0050498D01*
X0077361Y0050892D01*
X0076520Y0050892D01*
X0074313Y0053099D01*
X0074313Y0055100D01*
X0074536Y0054877D01*
X0076723Y0054877D01*
X0076723Y0053907D01*
X0077660Y0052969D01*
X0078063Y0052566D01*
X0078063Y0051725D01*
X0078457Y0050774D01*
X0079185Y0050045D01*
X0080137Y0049651D01*
X0081167Y0049651D01*
X0082119Y0050045D01*
X0082370Y0050297D01*
X0082370Y0048651D01*
X0085688Y0045333D01*
X0086918Y0044103D01*
X0087709Y0044103D01*
X0090083Y0041729D01*
X0089891Y0041729D01*
X0089839Y0041677D01*
X0089787Y0041729D01*
X0087332Y0041729D01*
X0087280Y0041677D01*
X0087227Y0041729D01*
X0084773Y0041729D01*
X0084720Y0041677D01*
X0084668Y0041729D01*
X0082213Y0041729D01*
X0082161Y0041677D01*
X0082109Y0041729D01*
X0079654Y0041729D01*
X0079602Y0041677D01*
X0079550Y0041729D01*
X0077095Y0041729D01*
X0077043Y0041677D01*
X0076991Y0041729D01*
X0074536Y0041729D01*
X0073775Y0040968D01*
X0073775Y0033591D01*
X0074536Y0032830D01*
X0074833Y0032830D01*
X0075776Y0031887D01*
X0072494Y0031887D01*
X0067423Y0036958D01*
X0066486Y0037895D01*
X0064761Y0037895D01*
X0064761Y0039196D01*
X0063999Y0039957D01*
X0058198Y0039957D01*
X0057436Y0039196D01*
X0057436Y0033395D01*
X0058198Y0032633D01*
X0063999Y0032633D01*
X0064761Y0033395D01*
X0064761Y0034695D01*
X0065160Y0034695D01*
X0070035Y0029821D01*
X0070035Y0026111D01*
X0070796Y0025350D01*
X0076204Y0025350D01*
X0076846Y0025992D01*
X0077489Y0025350D01*
X0082897Y0025350D01*
X0083658Y0026111D01*
X0083658Y0031125D01*
X0082897Y0031887D01*
X0080301Y0031887D01*
X0079358Y0032830D01*
X0079550Y0032830D01*
X0079602Y0032882D01*
X0079654Y0032830D01*
X0082109Y0032830D01*
X0082161Y0032882D01*
X0082213Y0032830D01*
X0084668Y0032830D01*
X0084720Y0032882D01*
X0084773Y0032830D01*
X0087227Y0032830D01*
X0087280Y0032882D01*
X0087332Y0032830D01*
X0089787Y0032830D01*
X0089839Y0032882D01*
X0089891Y0032830D01*
X0091577Y0032830D01*
X0091577Y0031027D01*
X0093580Y0029024D01*
X0093580Y0028600D01*
X0094810Y0027370D01*
X0098369Y0023811D01*
X0099599Y0022581D01*
X0187953Y0022581D01*
X0189108Y0023737D02*
X0201231Y0023737D01*
X0201231Y0024335D02*
X0189707Y0024335D01*
X0190305Y0024934D02*
X0201231Y0024934D01*
X0201231Y0025532D02*
X0190904Y0025532D01*
X0191502Y0026131D02*
X0201231Y0026131D01*
X0201231Y0026729D02*
X0192101Y0026729D01*
X0192699Y0027328D02*
X0201231Y0027328D01*
X0201231Y0027926D02*
X0193298Y0027926D01*
X0193896Y0028525D02*
X0201231Y0028525D01*
X0201231Y0029123D02*
X0194495Y0029123D01*
X0195093Y0029722D02*
X0201231Y0029722D01*
X0201231Y0030320D02*
X0195692Y0030320D01*
X0196290Y0030919D02*
X0201231Y0030919D01*
X0201231Y0031517D02*
X0196889Y0031517D01*
X0197057Y0032116D02*
X0201231Y0032116D01*
X0201231Y0032714D02*
X0197057Y0032714D01*
X0197057Y0033313D02*
X0201231Y0033313D01*
X0201231Y0033911D02*
X0197057Y0033911D01*
X0197057Y0034510D02*
X0201231Y0034510D01*
X0201231Y0035108D02*
X0197057Y0035108D01*
X0197057Y0035707D02*
X0201231Y0035707D01*
X0201231Y0036305D02*
X0197057Y0036305D01*
X0197057Y0036904D02*
X0201231Y0036904D01*
X0201231Y0037502D02*
X0197057Y0037502D01*
X0197057Y0038101D02*
X0201231Y0038101D01*
X0201231Y0038699D02*
X0197057Y0038699D01*
X0197057Y0039298D02*
X0201231Y0039298D01*
X0201231Y0039896D02*
X0197057Y0039896D01*
X0197057Y0040495D02*
X0201231Y0040495D01*
X0201231Y0041093D02*
X0197057Y0041093D01*
X0197057Y0041692D02*
X0201231Y0041692D01*
X0201231Y0042291D02*
X0197057Y0042291D01*
X0197057Y0042889D02*
X0201231Y0042889D01*
X0201231Y0043488D02*
X0197057Y0043488D01*
X0197057Y0044086D02*
X0201231Y0044086D01*
X0201231Y0044685D02*
X0197057Y0044685D01*
X0197057Y0045283D02*
X0201231Y0045283D01*
X0201231Y0045882D02*
X0197057Y0045882D01*
X0197057Y0046480D02*
X0201231Y0046480D01*
X0201231Y0047079D02*
X0197057Y0047079D01*
X0197057Y0047677D02*
X0201231Y0047677D01*
X0201231Y0048276D02*
X0197057Y0048276D01*
X0197057Y0048874D02*
X0201231Y0048874D01*
X0201231Y0049473D02*
X0197057Y0049473D01*
X0197057Y0050071D02*
X0201231Y0050071D01*
X0201231Y0050670D02*
X0197057Y0050670D01*
X0197057Y0051268D02*
X0201231Y0051268D01*
X0201231Y0051867D02*
X0197057Y0051867D01*
X0197057Y0052465D02*
X0201231Y0052465D01*
X0201231Y0053064D02*
X0197057Y0053064D01*
X0196504Y0053662D02*
X0201231Y0053662D01*
X0201231Y0054261D02*
X0195906Y0054261D01*
X0195307Y0054859D02*
X0201231Y0054859D01*
X0201231Y0055458D02*
X0194709Y0055458D01*
X0194110Y0056056D02*
X0201231Y0056056D01*
X0201231Y0056655D02*
X0193512Y0056655D01*
X0192913Y0057253D02*
X0201231Y0057253D01*
X0201231Y0057852D02*
X0192315Y0057852D01*
X0190150Y0054077D02*
X0186020Y0054077D01*
X0186020Y0053670D01*
X0185259Y0052909D01*
X0179851Y0052909D01*
X0179209Y0053551D01*
X0178566Y0052909D01*
X0177462Y0052909D01*
X0177462Y0051572D01*
X0178566Y0051572D01*
X0179246Y0050891D01*
X0179350Y0051070D01*
X0179592Y0051312D01*
X0179888Y0051483D01*
X0180219Y0051572D01*
X0182255Y0051572D01*
X0182255Y0048603D01*
X0182855Y0048603D01*
X0186020Y0048603D01*
X0186020Y0050443D01*
X0185932Y0050773D01*
X0185761Y0051070D01*
X0185519Y0051312D01*
X0185222Y0051483D01*
X0184892Y0051572D01*
X0182855Y0051572D01*
X0182855Y0048603D01*
X0182855Y0048003D01*
X0182855Y0045035D01*
X0184892Y0045035D01*
X0185222Y0045123D01*
X0185519Y0045294D01*
X0185761Y0045536D01*
X0185932Y0045833D01*
X0186020Y0046163D01*
X0186020Y0048003D01*
X0182855Y0048003D01*
X0182255Y0048003D01*
X0182255Y0045035D01*
X0180219Y0045035D01*
X0179888Y0045123D01*
X0179592Y0045294D01*
X0179350Y0045536D01*
X0179246Y0045715D01*
X0178566Y0045035D01*
X0173158Y0045035D01*
X0172397Y0045796D01*
X0172397Y0050810D01*
X0173158Y0051572D01*
X0174262Y0051572D01*
X0174262Y0052909D01*
X0173158Y0052909D01*
X0172397Y0053670D01*
X0172397Y0058684D01*
X0173158Y0059446D01*
X0174262Y0059446D01*
X0174262Y0061667D01*
X0173805Y0061856D01*
X0173077Y0062585D01*
X0172800Y0063254D01*
X0171997Y0062451D01*
X0171997Y0062451D01*
X0163250Y0053704D01*
X0163250Y0049070D01*
X0162602Y0048422D01*
X0164629Y0048422D01*
X0165391Y0047661D01*
X0165391Y0042083D01*
X0165931Y0042624D01*
X0166883Y0043018D01*
X0167913Y0043018D01*
X0168864Y0042624D01*
X0169459Y0042029D01*
X0172397Y0042029D01*
X0172397Y0042936D01*
X0173158Y0043698D01*
X0178566Y0043698D01*
X0179209Y0043055D01*
X0179851Y0043698D01*
X0185259Y0043698D01*
X0186020Y0042936D01*
X0186020Y0037922D01*
X0185259Y0037161D01*
X0184155Y0037161D01*
X0184155Y0036217D01*
X0186243Y0036217D01*
X0187005Y0035456D01*
X0187005Y0029654D01*
X0186243Y0028893D01*
X0180442Y0028893D01*
X0179680Y0029654D01*
X0179680Y0035456D01*
X0180442Y0036217D01*
X0180955Y0036217D01*
X0180955Y0037161D01*
X0179851Y0037161D01*
X0179209Y0037803D01*
X0178566Y0037161D01*
X0173158Y0037161D01*
X0172397Y0037922D01*
X0172397Y0038829D01*
X0169459Y0038829D01*
X0168864Y0038234D01*
X0167913Y0037840D01*
X0166883Y0037840D01*
X0165931Y0038234D01*
X0165203Y0038963D01*
X0164809Y0039914D01*
X0164809Y0040490D01*
X0164629Y0040310D01*
X0163722Y0040310D01*
X0163722Y0037805D01*
X0164317Y0037211D01*
X0164711Y0036259D01*
X0164711Y0035229D01*
X0164317Y0034278D01*
X0163589Y0033549D01*
X0162637Y0033155D01*
X0161796Y0033155D01*
X0158461Y0029821D01*
X0158461Y0026781D01*
X0186213Y0026781D01*
X0192857Y0033425D01*
X0192857Y0051370D01*
X0190150Y0054077D01*
X0190565Y0053662D02*
X0186012Y0053662D01*
X0185414Y0053064D02*
X0191163Y0053064D01*
X0191762Y0052465D02*
X0177462Y0052465D01*
X0177462Y0051867D02*
X0192360Y0051867D01*
X0192857Y0051268D02*
X0185562Y0051268D01*
X0185960Y0050670D02*
X0192857Y0050670D01*
X0192857Y0050071D02*
X0186020Y0050071D01*
X0186020Y0049473D02*
X0192857Y0049473D01*
X0192857Y0048874D02*
X0186020Y0048874D01*
X0186020Y0047677D02*
X0192857Y0047677D01*
X0192857Y0047079D02*
X0186020Y0047079D01*
X0186020Y0046480D02*
X0192857Y0046480D01*
X0192857Y0045882D02*
X0185945Y0045882D01*
X0185499Y0045283D02*
X0192857Y0045283D01*
X0192857Y0044685D02*
X0165391Y0044685D01*
X0165391Y0045283D02*
X0172910Y0045283D01*
X0172397Y0045882D02*
X0165391Y0045882D01*
X0165391Y0046480D02*
X0172397Y0046480D01*
X0172397Y0047079D02*
X0165391Y0047079D01*
X0165374Y0047677D02*
X0172397Y0047677D01*
X0172397Y0048276D02*
X0164775Y0048276D01*
X0163054Y0048874D02*
X0172397Y0048874D01*
X0172397Y0049473D02*
X0163250Y0049473D01*
X0163250Y0050071D02*
X0172397Y0050071D01*
X0172397Y0050670D02*
X0163250Y0050670D01*
X0163250Y0051268D02*
X0172855Y0051268D01*
X0174262Y0051867D02*
X0163250Y0051867D01*
X0163250Y0052465D02*
X0174262Y0052465D01*
X0173003Y0053064D02*
X0163250Y0053064D01*
X0163250Y0053662D02*
X0172405Y0053662D01*
X0172397Y0054261D02*
X0163807Y0054261D01*
X0164405Y0054859D02*
X0172397Y0054859D01*
X0172397Y0055458D02*
X0165004Y0055458D01*
X0165602Y0056056D02*
X0172397Y0056056D01*
X0172397Y0056655D02*
X0166201Y0056655D01*
X0166799Y0057253D02*
X0172397Y0057253D01*
X0172397Y0057852D02*
X0167398Y0057852D01*
X0167996Y0058450D02*
X0172397Y0058450D01*
X0172762Y0059049D02*
X0168595Y0059049D01*
X0169194Y0059647D02*
X0174262Y0059647D01*
X0174262Y0060246D02*
X0169792Y0060246D01*
X0170391Y0060844D02*
X0174262Y0060844D01*
X0174262Y0061443D02*
X0170989Y0061443D01*
X0171588Y0062041D02*
X0173620Y0062041D01*
X0173054Y0062640D02*
X0172186Y0062640D01*
X0172785Y0063238D02*
X0172806Y0063238D01*
X0171335Y0064051D02*
X0171335Y0108591D01*
X0151570Y0116544D01*
X0151570Y0120745D01*
X0151295Y0128894D01*
X0147633Y0129075D02*
X0147083Y0129075D01*
X0147083Y0129673D02*
X0147633Y0129673D01*
X0147633Y0130272D02*
X0147083Y0130272D01*
X0147083Y0130870D02*
X0147633Y0130870D01*
X0147633Y0131469D02*
X0147083Y0131469D01*
X0147083Y0132067D02*
X0147633Y0132067D01*
X0147633Y0132666D02*
X0147083Y0132666D01*
X0147083Y0133264D02*
X0147633Y0133264D01*
X0148127Y0133863D02*
X0146590Y0133863D01*
X0147083Y0128476D02*
X0147633Y0128476D01*
X0147633Y0127878D02*
X0147083Y0127878D01*
X0147083Y0127279D02*
X0147633Y0127279D01*
X0147633Y0126681D02*
X0147083Y0126681D01*
X0147083Y0126082D02*
X0147633Y0126082D01*
X0147633Y0125484D02*
X0147083Y0125484D01*
X0147083Y0124885D02*
X0147633Y0124885D01*
X0147765Y0124287D02*
X0146952Y0124287D01*
X0146353Y0123688D02*
X0148363Y0123688D01*
X0149890Y0123090D02*
X0145021Y0123090D01*
X0145021Y0122491D02*
X0149910Y0122491D01*
X0149930Y0121893D02*
X0145021Y0121893D01*
X0145021Y0121294D02*
X0149951Y0121294D01*
X0149970Y0120695D02*
X0145021Y0120695D01*
X0145021Y0120097D02*
X0149970Y0120097D01*
X0149970Y0119498D02*
X0145021Y0119498D01*
X0145021Y0118900D02*
X0149970Y0118900D01*
X0149970Y0118301D02*
X0145021Y0118301D01*
X0145021Y0117703D02*
X0149970Y0117703D01*
X0149970Y0117104D02*
X0145021Y0117104D01*
X0145021Y0116506D02*
X0149847Y0116506D01*
X0149970Y0115907D02*
X0145021Y0115907D01*
X0145021Y0115309D02*
X0150357Y0115309D01*
X0151841Y0114710D02*
X0145021Y0114710D01*
X0145021Y0114112D02*
X0153329Y0114112D01*
X0154816Y0113513D02*
X0145021Y0113513D01*
X0145021Y0112915D02*
X0156303Y0112915D01*
X0157790Y0112316D02*
X0145021Y0112316D01*
X0145021Y0111718D02*
X0159278Y0111718D01*
X0160765Y0111119D02*
X0145021Y0111119D01*
X0145021Y0110521D02*
X0162252Y0110521D01*
X0163740Y0109922D02*
X0145021Y0109922D01*
X0145021Y0109324D02*
X0165227Y0109324D01*
X0166714Y0108725D02*
X0145021Y0108725D01*
X0145021Y0108127D02*
X0168202Y0108127D01*
X0169689Y0107528D02*
X0145021Y0107528D01*
X0145021Y0106930D02*
X0169735Y0106930D01*
X0169735Y0106331D02*
X0145021Y0106331D01*
X0145021Y0105733D02*
X0169735Y0105733D01*
X0169735Y0105134D02*
X0145021Y0105134D01*
X0145021Y0104536D02*
X0169735Y0104536D01*
X0169735Y0103937D02*
X0145021Y0103937D01*
X0145021Y0103339D02*
X0169735Y0103339D01*
X0169735Y0102740D02*
X0145021Y0102740D01*
X0145021Y0102142D02*
X0169735Y0102142D01*
X0169735Y0101543D02*
X0145021Y0101543D01*
X0145021Y0100945D02*
X0169735Y0100945D01*
X0169735Y0100346D02*
X0145021Y0100346D01*
X0145021Y0099748D02*
X0169735Y0099748D01*
X0169735Y0099149D02*
X0145021Y0099149D01*
X0145021Y0098551D02*
X0169735Y0098551D01*
X0169735Y0097952D02*
X0145021Y0097952D01*
X0145021Y0097354D02*
X0169735Y0097354D01*
X0169735Y0096755D02*
X0145021Y0096755D01*
X0145021Y0096157D02*
X0169735Y0096157D01*
X0169735Y0095558D02*
X0145021Y0095558D01*
X0145021Y0094959D02*
X0169735Y0094959D01*
X0169735Y0094361D02*
X0145021Y0094361D01*
X0145021Y0093762D02*
X0169735Y0093762D01*
X0169735Y0093164D02*
X0145021Y0093164D01*
X0145021Y0092565D02*
X0169735Y0092565D01*
X0169735Y0091967D02*
X0145021Y0091967D01*
X0145021Y0091368D02*
X0169735Y0091368D01*
X0169735Y0090770D02*
X0145021Y0090770D01*
X0145021Y0090171D02*
X0146978Y0090171D01*
X0145951Y0089573D02*
X0145021Y0089573D01*
X0145021Y0088974D02*
X0145449Y0088974D01*
X0145201Y0088376D02*
X0145021Y0088376D01*
X0145021Y0087777D02*
X0145124Y0087777D01*
X0145124Y0087179D02*
X0145021Y0087179D01*
X0145021Y0086580D02*
X0145363Y0086580D01*
X0145021Y0085982D02*
X0145743Y0085982D01*
X0145021Y0085383D02*
X0146476Y0085383D01*
X0144618Y0084785D02*
X0148338Y0084785D01*
X0148937Y0084186D02*
X0144020Y0084186D01*
X0143421Y0083588D02*
X0149535Y0083588D01*
X0150050Y0082989D02*
X0142823Y0082989D01*
X0142224Y0082391D02*
X0150050Y0082391D01*
X0150050Y0081792D02*
X0141626Y0081792D01*
X0141027Y0081194D02*
X0150050Y0081194D01*
X0150050Y0080595D02*
X0140429Y0080595D01*
X0139830Y0079997D02*
X0150050Y0079997D01*
X0150050Y0079398D02*
X0139232Y0079398D01*
X0138633Y0078800D02*
X0150386Y0078800D01*
X0150985Y0078201D02*
X0141108Y0078201D01*
X0141759Y0077603D02*
X0145085Y0077603D01*
X0145546Y0077603D02*
X0151583Y0077603D01*
X0152182Y0077004D02*
X0147568Y0077004D01*
X0149591Y0076406D02*
X0152780Y0076406D01*
X0153379Y0075807D02*
X0151790Y0075807D01*
X0152389Y0075209D02*
X0153977Y0075209D01*
X0154957Y0074229D02*
X0155507Y0073679D01*
X0155507Y0065363D01*
X0156269Y0064602D01*
X0162070Y0064602D01*
X0162831Y0065363D01*
X0162831Y0071788D01*
X0163381Y0071238D01*
X0163381Y0065363D01*
X0164143Y0064602D01*
X0169622Y0064602D01*
X0161497Y0056476D01*
X0160889Y0057083D01*
X0155875Y0057083D01*
X0155113Y0056322D01*
X0155113Y0054628D01*
X0153482Y0054628D01*
X0149669Y0058440D01*
X0148732Y0059377D01*
X0146700Y0059377D01*
X0146952Y0059630D01*
X0147346Y0060581D01*
X0147346Y0061611D01*
X0146952Y0062563D01*
X0146357Y0063157D01*
X0146357Y0064637D01*
X0147083Y0065363D01*
X0147083Y0073810D01*
X0147633Y0073648D01*
X0147633Y0065363D01*
X0148395Y0064602D01*
X0154196Y0064602D01*
X0154957Y0065363D01*
X0154957Y0074229D01*
X0154957Y0074012D02*
X0155174Y0074012D01*
X0154957Y0073413D02*
X0155507Y0073413D01*
X0155507Y0072815D02*
X0154957Y0072815D01*
X0154957Y0072216D02*
X0155507Y0072216D01*
X0155507Y0071618D02*
X0154957Y0071618D01*
X0154957Y0071019D02*
X0155507Y0071019D01*
X0155507Y0070421D02*
X0154957Y0070421D01*
X0154957Y0069822D02*
X0155507Y0069822D01*
X0155507Y0069224D02*
X0154957Y0069224D01*
X0154957Y0068625D02*
X0155507Y0068625D01*
X0155507Y0068026D02*
X0154957Y0068026D01*
X0154957Y0067428D02*
X0155507Y0067428D01*
X0155507Y0066829D02*
X0154957Y0066829D01*
X0154957Y0066231D02*
X0155507Y0066231D01*
X0155507Y0065632D02*
X0154957Y0065632D01*
X0154628Y0065034D02*
X0155836Y0065034D01*
X0159169Y0069839D02*
X0159524Y0070193D01*
X0159524Y0071925D01*
X0151650Y0079799D01*
X0151650Y0083736D01*
X0147713Y0087673D01*
X0150302Y0087777D02*
X0169735Y0087777D01*
X0169735Y0087179D02*
X0150470Y0087179D01*
X0151068Y0086580D02*
X0169735Y0086580D01*
X0169735Y0085982D02*
X0156931Y0085982D01*
X0157601Y0085383D02*
X0169735Y0085383D01*
X0169735Y0084785D02*
X0160738Y0084785D01*
X0161336Y0084186D02*
X0169735Y0084186D01*
X0169735Y0083588D02*
X0161935Y0083588D01*
X0162533Y0082989D02*
X0169735Y0082989D01*
X0169735Y0082391D02*
X0163132Y0082391D01*
X0163730Y0081792D02*
X0169735Y0081792D01*
X0169735Y0081194D02*
X0164329Y0081194D01*
X0164927Y0080595D02*
X0169735Y0080595D01*
X0169735Y0079997D02*
X0165061Y0079997D01*
X0165061Y0079398D02*
X0169735Y0079398D01*
X0169735Y0078800D02*
X0165061Y0078800D01*
X0165061Y0078201D02*
X0169735Y0078201D01*
X0169735Y0077603D02*
X0165061Y0077603D01*
X0165061Y0077004D02*
X0169735Y0077004D01*
X0169735Y0076406D02*
X0165061Y0076406D01*
X0165061Y0075807D02*
X0169735Y0075807D01*
X0169735Y0075209D02*
X0165061Y0075209D01*
X0163461Y0073421D02*
X0167043Y0069839D01*
X0163381Y0069822D02*
X0162831Y0069822D01*
X0162831Y0069224D02*
X0163381Y0069224D01*
X0163381Y0068625D02*
X0162831Y0068625D01*
X0162831Y0068026D02*
X0163381Y0068026D01*
X0163381Y0067428D02*
X0162831Y0067428D01*
X0162831Y0066829D02*
X0163381Y0066829D01*
X0163381Y0066231D02*
X0162831Y0066231D01*
X0162831Y0065632D02*
X0163381Y0065632D01*
X0163710Y0065034D02*
X0162502Y0065034D01*
X0166464Y0061443D02*
X0147346Y0061443D01*
X0147346Y0060844D02*
X0165865Y0060844D01*
X0165267Y0060246D02*
X0147208Y0060246D01*
X0146960Y0059647D02*
X0164668Y0059647D01*
X0164070Y0059049D02*
X0149060Y0059049D01*
X0149659Y0058450D02*
X0163471Y0058450D01*
X0162873Y0057852D02*
X0150257Y0057852D01*
X0150856Y0057253D02*
X0162274Y0057253D01*
X0161676Y0056655D02*
X0161318Y0056655D01*
X0161650Y0054367D02*
X0171335Y0064051D01*
X0169456Y0064435D02*
X0146357Y0064435D01*
X0146357Y0063837D02*
X0168858Y0063837D01*
X0168259Y0063238D02*
X0146357Y0063238D01*
X0146875Y0062640D02*
X0167661Y0062640D01*
X0167062Y0062041D02*
X0147168Y0062041D01*
X0144757Y0061096D02*
X0144757Y0068502D01*
X0143421Y0069839D01*
X0147083Y0069822D02*
X0147633Y0069822D01*
X0147633Y0069224D02*
X0147083Y0069224D01*
X0147083Y0068625D02*
X0147633Y0068625D01*
X0147633Y0068026D02*
X0147083Y0068026D01*
X0147083Y0067428D02*
X0147633Y0067428D01*
X0147633Y0066829D02*
X0147083Y0066829D01*
X0147083Y0066231D02*
X0147633Y0066231D01*
X0147633Y0065632D02*
X0147083Y0065632D01*
X0146754Y0065034D02*
X0147962Y0065034D01*
X0147633Y0070421D02*
X0147083Y0070421D01*
X0147083Y0071019D02*
X0147633Y0071019D01*
X0147633Y0071618D02*
X0147083Y0071618D01*
X0147083Y0072216D02*
X0147633Y0072216D01*
X0147633Y0072815D02*
X0147083Y0072815D01*
X0147083Y0073413D02*
X0147633Y0073413D01*
X0145429Y0075969D02*
X0151020Y0074314D01*
X0151020Y0074050D01*
X0151295Y0069839D01*
X0145429Y0075969D02*
X0139732Y0075969D01*
X0137359Y0077004D02*
X0136838Y0077004D01*
X0137143Y0076406D02*
X0136239Y0076406D01*
X0135641Y0075807D02*
X0137143Y0075807D01*
X0137245Y0075209D02*
X0135042Y0075209D01*
X0132911Y0077603D02*
X0117909Y0077603D01*
X0117142Y0078201D02*
X0133509Y0078201D01*
X0134108Y0078800D02*
X0116375Y0078800D01*
X0115607Y0079398D02*
X0134706Y0079398D01*
X0135305Y0079997D02*
X0114840Y0079997D01*
X0114072Y0080595D02*
X0135903Y0080595D01*
X0136502Y0081194D02*
X0113305Y0081194D01*
X0113997Y0081792D02*
X0137100Y0081792D01*
X0137699Y0082391D02*
X0114524Y0082391D01*
X0114772Y0082989D02*
X0138298Y0082989D01*
X0138896Y0083588D02*
X0114868Y0083588D01*
X0114868Y0084186D02*
X0139495Y0084186D01*
X0140093Y0084785D02*
X0114647Y0084785D01*
X0114892Y0085383D02*
X0140692Y0085383D01*
X0141290Y0085982D02*
X0115191Y0085982D01*
X0115490Y0086580D02*
X0141821Y0086580D01*
X0141821Y0087179D02*
X0115790Y0087179D01*
X0116089Y0087777D02*
X0141821Y0087777D01*
X0141821Y0088376D02*
X0116388Y0088376D01*
X0116687Y0088974D02*
X0141821Y0088974D01*
X0141821Y0089573D02*
X0116987Y0089573D01*
X0117286Y0090171D02*
X0141821Y0090171D01*
X0141821Y0090770D02*
X0117639Y0090770D01*
X0118237Y0091368D02*
X0141821Y0091368D01*
X0141821Y0091967D02*
X0118836Y0091967D01*
X0119434Y0092565D02*
X0141821Y0092565D01*
X0141821Y0093164D02*
X0120033Y0093164D01*
X0120632Y0093762D02*
X0141821Y0093762D01*
X0141821Y0094361D02*
X0121230Y0094361D01*
X0121829Y0094959D02*
X0141821Y0094959D01*
X0141821Y0095558D02*
X0122427Y0095558D01*
X0123026Y0096157D02*
X0141821Y0096157D01*
X0141821Y0096755D02*
X0123624Y0096755D01*
X0124223Y0097354D02*
X0141821Y0097354D01*
X0141821Y0097952D02*
X0124821Y0097952D01*
X0125420Y0098551D02*
X0141821Y0098551D01*
X0141821Y0099149D02*
X0126018Y0099149D01*
X0126617Y0099748D02*
X0141821Y0099748D01*
X0141821Y0100346D02*
X0127215Y0100346D01*
X0127814Y0100945D02*
X0141821Y0100945D01*
X0141821Y0101543D02*
X0128412Y0101543D01*
X0129011Y0102142D02*
X0141821Y0102142D01*
X0141821Y0102740D02*
X0129609Y0102740D01*
X0130208Y0103339D02*
X0141821Y0103339D01*
X0141821Y0103937D02*
X0130806Y0103937D01*
X0131405Y0104536D02*
X0141821Y0104536D01*
X0141821Y0105134D02*
X0132003Y0105134D01*
X0132602Y0105733D02*
X0141821Y0105733D01*
X0141821Y0106331D02*
X0133200Y0106331D01*
X0133799Y0106930D02*
X0141821Y0106930D01*
X0141821Y0107528D02*
X0134397Y0107528D01*
X0134996Y0108127D02*
X0141821Y0108127D01*
X0141821Y0108725D02*
X0135594Y0108725D01*
X0136193Y0109324D02*
X0141821Y0109324D01*
X0141821Y0109922D02*
X0136791Y0109922D01*
X0137147Y0110521D02*
X0141821Y0110521D01*
X0141821Y0111119D02*
X0137147Y0111119D01*
X0137147Y0111718D02*
X0141821Y0111718D01*
X0141821Y0112316D02*
X0137147Y0112316D01*
X0137147Y0112915D02*
X0141821Y0112915D01*
X0141821Y0113513D02*
X0137147Y0113513D01*
X0137147Y0114112D02*
X0141821Y0114112D01*
X0141821Y0114710D02*
X0137147Y0114710D01*
X0137147Y0115309D02*
X0141821Y0115309D01*
X0141821Y0115907D02*
X0137147Y0115907D01*
X0137147Y0116506D02*
X0141821Y0116506D01*
X0141821Y0117104D02*
X0137147Y0117104D01*
X0137147Y0117703D02*
X0141821Y0117703D01*
X0141821Y0118301D02*
X0137147Y0118301D01*
X0137147Y0118900D02*
X0141821Y0118900D01*
X0141821Y0119498D02*
X0137147Y0119498D01*
X0137147Y0120097D02*
X0141821Y0120097D01*
X0141821Y0120695D02*
X0137147Y0120695D01*
X0137147Y0121294D02*
X0141821Y0121294D01*
X0141821Y0121893D02*
X0137147Y0121893D01*
X0137147Y0122491D02*
X0141821Y0122491D01*
X0141821Y0123090D02*
X0137147Y0123090D01*
X0138479Y0123688D02*
X0140489Y0123688D01*
X0139891Y0124287D02*
X0139078Y0124287D01*
X0139209Y0124885D02*
X0139759Y0124885D01*
X0139759Y0125484D02*
X0139209Y0125484D01*
X0139209Y0126082D02*
X0139759Y0126082D01*
X0139759Y0126681D02*
X0139209Y0126681D01*
X0139209Y0127279D02*
X0139759Y0127279D01*
X0139759Y0127878D02*
X0139209Y0127878D01*
X0139209Y0128476D02*
X0139759Y0128476D01*
X0139759Y0129075D02*
X0139209Y0129075D01*
X0139209Y0129673D02*
X0139759Y0129673D01*
X0139759Y0130272D02*
X0139209Y0130272D01*
X0139209Y0130870D02*
X0139759Y0130870D01*
X0139759Y0131469D02*
X0139209Y0131469D01*
X0139209Y0132067D02*
X0139759Y0132067D01*
X0139759Y0132666D02*
X0139209Y0132666D01*
X0139209Y0133264D02*
X0139759Y0133264D01*
X0140253Y0133863D02*
X0138716Y0133863D01*
X0135547Y0128894D02*
X0135547Y0110941D01*
X0116217Y0091610D01*
X0112280Y0083736D01*
X0109912Y0084785D02*
X0108700Y0084785D01*
X0107933Y0085383D02*
X0110265Y0085383D01*
X0110936Y0085982D02*
X0107165Y0085982D01*
X0106398Y0086580D02*
X0111913Y0086580D01*
X0112212Y0087179D02*
X0105631Y0087179D01*
X0104863Y0087777D02*
X0112511Y0087777D01*
X0112811Y0088376D02*
X0104096Y0088376D01*
X0103328Y0088974D02*
X0113110Y0088974D01*
X0113409Y0089573D02*
X0103737Y0089573D01*
X0103737Y0090171D02*
X0113708Y0090171D01*
X0114008Y0090770D02*
X0103737Y0090770D01*
X0103737Y0091368D02*
X0114307Y0091368D01*
X0114606Y0091967D02*
X0103737Y0091967D01*
X0103737Y0092565D02*
X0114905Y0092565D01*
X0115508Y0093164D02*
X0103737Y0093164D01*
X0103737Y0093762D02*
X0116106Y0093762D01*
X0116705Y0094361D02*
X0103737Y0094361D01*
X0103682Y0094959D02*
X0117303Y0094959D01*
X0117902Y0095558D02*
X0103084Y0095558D01*
X0103608Y0096157D02*
X0118500Y0096157D01*
X0119099Y0096755D02*
X0103737Y0096755D01*
X0103737Y0097354D02*
X0119697Y0097354D01*
X0120296Y0097952D02*
X0103737Y0097952D01*
X0103737Y0098551D02*
X0120894Y0098551D01*
X0121493Y0099149D02*
X0100769Y0099149D01*
X0100768Y0099748D02*
X0100169Y0099748D01*
X0100169Y0100346D02*
X0100768Y0100346D01*
X0100768Y0100945D02*
X0100169Y0100945D01*
X0100169Y0101543D02*
X0100768Y0101543D01*
X0100768Y0102142D02*
X0100169Y0102142D01*
X0100605Y0102740D02*
X0125084Y0102740D01*
X0125682Y0103339D02*
X0101770Y0103339D01*
X0102368Y0103937D02*
X0126281Y0103937D01*
X0126879Y0104536D02*
X0102568Y0104536D01*
X0102568Y0105134D02*
X0127478Y0105134D01*
X0128076Y0105733D02*
X0102568Y0105733D01*
X0102568Y0106331D02*
X0128675Y0106331D01*
X0129273Y0106930D02*
X0102568Y0106930D01*
X0102568Y0107528D02*
X0129872Y0107528D01*
X0130470Y0108127D02*
X0102568Y0108127D01*
X0102568Y0108725D02*
X0119605Y0108725D01*
X0119642Y0108710D02*
X0120672Y0108710D01*
X0121624Y0109104D01*
X0122352Y0109832D01*
X0122746Y0110784D01*
X0122746Y0111625D01*
X0129273Y0118152D01*
X0129273Y0123657D01*
X0130574Y0123657D01*
X0131335Y0124418D01*
X0131335Y0133369D01*
X0130574Y0134131D01*
X0124773Y0134131D01*
X0124011Y0133369D01*
X0124011Y0124418D01*
X0124773Y0123657D01*
X0126073Y0123657D01*
X0126073Y0119478D01*
X0120483Y0113888D01*
X0119642Y0113888D01*
X0118691Y0113494D01*
X0117962Y0112765D01*
X0117568Y0111814D01*
X0117568Y0110784D01*
X0117962Y0109832D01*
X0118691Y0109104D01*
X0119642Y0108710D01*
X0120709Y0108725D02*
X0131069Y0108725D01*
X0131667Y0109324D02*
X0121843Y0109324D01*
X0122389Y0109922D02*
X0132266Y0109922D01*
X0132864Y0110521D02*
X0122637Y0110521D01*
X0122746Y0111119D02*
X0133463Y0111119D01*
X0133947Y0111718D02*
X0122839Y0111718D01*
X0123437Y0112316D02*
X0133947Y0112316D01*
X0133947Y0112915D02*
X0124036Y0112915D01*
X0124634Y0113513D02*
X0133947Y0113513D01*
X0133947Y0114112D02*
X0125233Y0114112D01*
X0125831Y0114710D02*
X0133947Y0114710D01*
X0133947Y0115309D02*
X0126430Y0115309D01*
X0127028Y0115907D02*
X0133947Y0115907D01*
X0133947Y0116506D02*
X0127627Y0116506D01*
X0128225Y0117104D02*
X0133947Y0117104D01*
X0133947Y0117703D02*
X0128824Y0117703D01*
X0129273Y0118301D02*
X0133947Y0118301D01*
X0133947Y0118900D02*
X0129273Y0118900D01*
X0129273Y0119498D02*
X0133947Y0119498D01*
X0133947Y0120097D02*
X0129273Y0120097D01*
X0129273Y0120695D02*
X0133947Y0120695D01*
X0133947Y0121294D02*
X0129273Y0121294D01*
X0129273Y0121893D02*
X0133947Y0121893D01*
X0133947Y0122491D02*
X0129273Y0122491D01*
X0129273Y0123090D02*
X0133947Y0123090D01*
X0132615Y0123688D02*
X0130605Y0123688D01*
X0131204Y0124287D02*
X0132017Y0124287D01*
X0131885Y0124885D02*
X0131335Y0124885D01*
X0131335Y0125484D02*
X0131885Y0125484D01*
X0131885Y0126082D02*
X0131335Y0126082D01*
X0131335Y0126681D02*
X0131885Y0126681D01*
X0131885Y0127279D02*
X0131335Y0127279D01*
X0131335Y0127878D02*
X0131885Y0127878D01*
X0131885Y0128476D02*
X0131335Y0128476D01*
X0131335Y0129075D02*
X0131885Y0129075D01*
X0131885Y0129673D02*
X0131335Y0129673D01*
X0131335Y0130272D02*
X0131885Y0130272D01*
X0131885Y0130870D02*
X0131335Y0130870D01*
X0131335Y0131469D02*
X0131885Y0131469D01*
X0131885Y0132067D02*
X0131335Y0132067D01*
X0131335Y0132666D02*
X0131885Y0132666D01*
X0131885Y0133264D02*
X0131335Y0133264D01*
X0130842Y0133863D02*
X0132379Y0133863D01*
X0127673Y0128894D02*
X0127673Y0118815D01*
X0120157Y0111299D01*
X0117776Y0112316D02*
X0102568Y0112316D01*
X0102568Y0111718D02*
X0117568Y0111718D01*
X0117568Y0111119D02*
X0102568Y0111119D01*
X0102568Y0110521D02*
X0117677Y0110521D01*
X0117925Y0109922D02*
X0102568Y0109922D01*
X0102568Y0109324D02*
X0118471Y0109324D01*
X0118112Y0112915D02*
X0102568Y0112915D01*
X0102568Y0113513D02*
X0118738Y0113513D01*
X0120707Y0114112D02*
X0102568Y0114112D01*
X0102568Y0114710D02*
X0121306Y0114710D01*
X0121904Y0115309D02*
X0102568Y0115309D01*
X0102568Y0115907D02*
X0122503Y0115907D01*
X0123101Y0116506D02*
X0102568Y0116506D01*
X0102568Y0117104D02*
X0118557Y0117104D01*
X0118687Y0116974D02*
X0119639Y0116580D01*
X0120669Y0116580D01*
X0121620Y0116974D01*
X0122348Y0117703D01*
X0124298Y0117703D01*
X0123700Y0117104D02*
X0121750Y0117104D01*
X0122348Y0117703D02*
X0122743Y0118654D01*
X0122743Y0119684D01*
X0122348Y0120636D01*
X0121620Y0121364D01*
X0121576Y0121382D01*
X0121399Y0123527D01*
X0121399Y0123657D01*
X0122700Y0123657D01*
X0123461Y0124418D01*
X0123461Y0133369D01*
X0122700Y0134131D01*
X0116899Y0134131D01*
X0116137Y0133369D01*
X0116137Y0124418D01*
X0116899Y0123657D01*
X0118178Y0123657D01*
X0118199Y0123395D01*
X0118199Y0122798D01*
X0118253Y0122744D01*
X0118391Y0121068D01*
X0117959Y0120636D01*
X0117565Y0119684D01*
X0117565Y0118654D01*
X0117959Y0117703D01*
X0102568Y0117703D01*
X0102568Y0118301D02*
X0117711Y0118301D01*
X0117565Y0118900D02*
X0102568Y0118900D01*
X0102568Y0119498D02*
X0117565Y0119498D01*
X0117736Y0120097D02*
X0102568Y0120097D01*
X0102568Y0120695D02*
X0118018Y0120695D01*
X0118373Y0121294D02*
X0107295Y0121294D01*
X0107894Y0121893D02*
X0118323Y0121893D01*
X0118274Y0122491D02*
X0108492Y0122491D01*
X0109091Y0123090D02*
X0118199Y0123090D01*
X0116867Y0123688D02*
X0114857Y0123688D01*
X0115456Y0124287D02*
X0116269Y0124287D01*
X0116137Y0124885D02*
X0115587Y0124885D01*
X0115587Y0125484D02*
X0116137Y0125484D01*
X0116137Y0126082D02*
X0115587Y0126082D01*
X0115587Y0126681D02*
X0116137Y0126681D01*
X0116137Y0127279D02*
X0115587Y0127279D01*
X0115587Y0127878D02*
X0116137Y0127878D01*
X0116137Y0128476D02*
X0115587Y0128476D01*
X0115587Y0129075D02*
X0116137Y0129075D01*
X0116137Y0129673D02*
X0115587Y0129673D01*
X0115587Y0130272D02*
X0116137Y0130272D01*
X0116137Y0130870D02*
X0115587Y0130870D01*
X0115587Y0131469D02*
X0116137Y0131469D01*
X0116137Y0132067D02*
X0115587Y0132067D01*
X0115587Y0132666D02*
X0116137Y0132666D01*
X0116137Y0133264D02*
X0115587Y0133264D01*
X0115094Y0133863D02*
X0116631Y0133863D01*
X0119799Y0128894D02*
X0119799Y0123461D01*
X0120154Y0119169D01*
X0122572Y0120097D02*
X0126073Y0120097D01*
X0126073Y0120695D02*
X0122289Y0120695D01*
X0121690Y0121294D02*
X0126073Y0121294D01*
X0126073Y0121893D02*
X0121534Y0121893D01*
X0121485Y0122491D02*
X0126073Y0122491D01*
X0126073Y0123090D02*
X0121435Y0123090D01*
X0122731Y0123688D02*
X0124741Y0123688D01*
X0124143Y0124287D02*
X0123330Y0124287D01*
X0123461Y0124885D02*
X0124011Y0124885D01*
X0124011Y0125484D02*
X0123461Y0125484D01*
X0123461Y0126082D02*
X0124011Y0126082D01*
X0124011Y0126681D02*
X0123461Y0126681D01*
X0123461Y0127279D02*
X0124011Y0127279D01*
X0124011Y0127878D02*
X0123461Y0127878D01*
X0123461Y0128476D02*
X0124011Y0128476D01*
X0124011Y0129075D02*
X0123461Y0129075D01*
X0123461Y0129673D02*
X0124011Y0129673D01*
X0124011Y0130272D02*
X0123461Y0130272D01*
X0123461Y0130870D02*
X0124011Y0130870D01*
X0124011Y0131469D02*
X0123461Y0131469D01*
X0123461Y0132067D02*
X0124011Y0132067D01*
X0124011Y0132666D02*
X0123461Y0132666D01*
X0123461Y0133264D02*
X0124011Y0133264D01*
X0124505Y0133863D02*
X0122968Y0133863D01*
X0108757Y0133863D02*
X0103091Y0133863D01*
X0103304Y0133264D02*
X0108263Y0133264D01*
X0108263Y0132666D02*
X0103304Y0132666D01*
X0103304Y0132067D02*
X0108263Y0132067D01*
X0108263Y0131469D02*
X0103304Y0131469D01*
X0103304Y0130870D02*
X0108263Y0130870D01*
X0108263Y0130272D02*
X0099745Y0130272D01*
X0099745Y0129893D02*
X0103304Y0129893D01*
X0103304Y0127069D01*
X0103215Y0126738D01*
X0103044Y0126442D01*
X0102802Y0126200D01*
X0102506Y0126029D01*
X0102175Y0125940D01*
X0099745Y0125940D01*
X0099745Y0129893D01*
X0099745Y0129673D02*
X0099145Y0129673D01*
X0099145Y0129075D02*
X0099745Y0129075D01*
X0099745Y0128476D02*
X0099145Y0128476D01*
X0099145Y0127878D02*
X0099745Y0127878D01*
X0099745Y0127279D02*
X0099145Y0127279D01*
X0099145Y0126681D02*
X0099745Y0126681D01*
X0099745Y0126082D02*
X0099145Y0126082D01*
X0096292Y0126082D02*
X0095204Y0126082D01*
X0091492Y0124885D02*
X0089508Y0124885D01*
X0088910Y0124287D02*
X0091098Y0124287D01*
X0091098Y0123688D02*
X0088311Y0123688D01*
X0088185Y0123090D02*
X0091098Y0123090D01*
X0091098Y0122491D02*
X0088185Y0122491D01*
X0088185Y0121893D02*
X0091098Y0121893D01*
X0091098Y0121294D02*
X0088185Y0121294D01*
X0088102Y0120695D02*
X0091651Y0120695D01*
X0088185Y0120097D02*
X0098369Y0120097D01*
X0098369Y0120695D02*
X0097869Y0120695D01*
X0098369Y0119498D02*
X0088185Y0119498D01*
X0088185Y0118301D02*
X0098369Y0118301D01*
X0098369Y0117703D02*
X0097730Y0117703D01*
X0098329Y0117104D02*
X0098369Y0117104D01*
X0098369Y0118900D02*
X0084765Y0118900D01*
X0084523Y0115390D02*
X0080586Y0106570D01*
X0076846Y0098894D01*
X0080115Y0099149D02*
X0084420Y0099149D01*
X0084420Y0099194D02*
X0081452Y0099194D01*
X0081452Y0101230D01*
X0081541Y0101561D01*
X0081712Y0101857D01*
X0081954Y0102099D01*
X0082250Y0102270D01*
X0082581Y0102359D01*
X0084420Y0102359D01*
X0084420Y0099194D01*
X0084420Y0099748D02*
X0085020Y0099748D01*
X0085020Y0100346D02*
X0084420Y0100346D01*
X0084420Y0100945D02*
X0085020Y0100945D01*
X0085020Y0101543D02*
X0084420Y0101543D01*
X0084420Y0102142D02*
X0085020Y0102142D01*
X0087414Y0102142D02*
X0088375Y0102142D01*
X0088342Y0102018D02*
X0088342Y0099587D01*
X0092294Y0099587D01*
X0092295Y0099587D02*
X0092295Y0103146D01*
X0089471Y0103146D01*
X0089140Y0103058D01*
X0088844Y0102887D01*
X0088601Y0102645D01*
X0088430Y0102348D01*
X0088342Y0102018D01*
X0088342Y0101543D02*
X0087905Y0101543D01*
X0087989Y0100945D02*
X0088342Y0100945D01*
X0088342Y0100346D02*
X0087989Y0100346D01*
X0087989Y0099748D02*
X0088342Y0099748D01*
X0088342Y0098551D02*
X0087989Y0098551D01*
X0087989Y0097952D02*
X0088342Y0097952D01*
X0088342Y0097354D02*
X0087989Y0097354D01*
X0087989Y0096755D02*
X0088342Y0096755D01*
X0088471Y0096157D02*
X0087860Y0096157D01*
X0087336Y0095558D02*
X0088995Y0095558D01*
X0088397Y0094959D02*
X0087934Y0094959D01*
X0087989Y0094361D02*
X0088342Y0094361D01*
X0088342Y0093762D02*
X0087989Y0093762D01*
X0087989Y0093164D02*
X0088342Y0093164D01*
X0088342Y0092565D02*
X0087989Y0092565D01*
X0087989Y0091967D02*
X0088342Y0091967D01*
X0088342Y0091368D02*
X0087989Y0091368D01*
X0087989Y0090770D02*
X0088342Y0090770D01*
X0087989Y0090171D02*
X0087989Y0090171D01*
X0084720Y0092201D02*
X0084720Y0087673D01*
X0080783Y0083736D01*
X0072909Y0083736D01*
X0070154Y0086492D01*
X0068776Y0086492D01*
X0066393Y0086580D02*
X0064353Y0086580D01*
X0063755Y0085982D02*
X0066393Y0085982D01*
X0066393Y0085383D02*
X0063678Y0085383D01*
X0063678Y0085905D02*
X0066393Y0088620D01*
X0066393Y0083591D01*
X0067154Y0082830D01*
X0070397Y0082830D01*
X0070975Y0083408D01*
X0071309Y0083073D01*
X0072247Y0082136D01*
X0079529Y0082136D01*
X0079185Y0081994D01*
X0078457Y0081266D01*
X0078063Y0080314D01*
X0078063Y0079284D01*
X0078457Y0078333D01*
X0079185Y0077604D01*
X0079282Y0077564D01*
X0079282Y0076748D01*
X0079041Y0077329D01*
X0078313Y0078057D01*
X0077361Y0078451D01*
X0076331Y0078451D01*
X0075380Y0078057D01*
X0074652Y0077329D01*
X0074257Y0076377D01*
X0074257Y0075536D01*
X0072051Y0073329D01*
X0071113Y0072392D01*
X0071113Y0070863D01*
X0068698Y0070863D01*
X0068698Y0073969D01*
X0067867Y0074800D01*
X0065747Y0074800D01*
X0065695Y0074747D01*
X0065498Y0074800D01*
X0064839Y0074800D01*
X0064839Y0071925D01*
X0064839Y0071925D01*
X0064839Y0074800D01*
X0064471Y0074800D01*
X0064471Y0074887D01*
X0063534Y0075824D01*
X0062698Y0076659D01*
X0062698Y0080462D01*
X0061761Y0081399D01*
X0060330Y0082830D01*
X0062916Y0082830D01*
X0063678Y0083591D01*
X0063678Y0085905D01*
X0063678Y0084785D02*
X0066393Y0084785D01*
X0066393Y0084186D02*
X0063678Y0084186D01*
X0063674Y0083588D02*
X0066397Y0083588D01*
X0066995Y0082989D02*
X0063076Y0082989D01*
X0061368Y0081792D02*
X0078984Y0081792D01*
X0078427Y0081194D02*
X0061967Y0081194D01*
X0062565Y0080595D02*
X0078179Y0080595D01*
X0078063Y0079997D02*
X0062698Y0079997D01*
X0062698Y0079398D02*
X0078063Y0079398D01*
X0078264Y0078800D02*
X0062698Y0078800D01*
X0062698Y0078201D02*
X0075728Y0078201D01*
X0074926Y0077603D02*
X0062698Y0077603D01*
X0062698Y0077004D02*
X0074517Y0077004D01*
X0074269Y0076406D02*
X0062952Y0076406D01*
X0063551Y0075807D02*
X0074257Y0075807D01*
X0073930Y0075209D02*
X0064149Y0075209D01*
X0064839Y0074610D02*
X0064839Y0074610D01*
X0064839Y0074012D02*
X0064839Y0074012D01*
X0064839Y0073413D02*
X0064839Y0073413D01*
X0064839Y0072815D02*
X0064839Y0072815D01*
X0064839Y0072216D02*
X0064839Y0072216D01*
X0062871Y0071964D02*
X0062871Y0074224D01*
X0061098Y0075997D01*
X0061098Y0079799D01*
X0057161Y0083736D01*
X0054793Y0084785D02*
X0052310Y0084785D01*
X0051712Y0085383D02*
X0055147Y0085383D01*
X0055817Y0085982D02*
X0051113Y0085982D01*
X0050515Y0086580D02*
X0058237Y0086580D01*
X0058505Y0085982D02*
X0058836Y0085982D01*
X0057639Y0087179D02*
X0049916Y0087179D01*
X0049318Y0087777D02*
X0057040Y0087777D01*
X0056442Y0088376D02*
X0045086Y0088376D01*
X0045684Y0088974D02*
X0055843Y0088974D01*
X0055245Y0089573D02*
X0046283Y0089573D01*
X0046881Y0090171D02*
X0054646Y0090171D01*
X0054048Y0090770D02*
X0047450Y0090770D01*
X0047450Y0091368D02*
X0053449Y0091368D01*
X0052851Y0091967D02*
X0047450Y0091967D01*
X0047450Y0092565D02*
X0052252Y0092565D01*
X0051654Y0093164D02*
X0047450Y0093164D01*
X0047450Y0093762D02*
X0051055Y0093762D01*
X0051006Y0094361D02*
X0047450Y0094361D01*
X0047450Y0094959D02*
X0051006Y0094959D01*
X0051006Y0095558D02*
X0047450Y0095558D01*
X0047450Y0096157D02*
X0051006Y0096157D01*
X0051006Y0096755D02*
X0047112Y0096755D01*
X0046514Y0097354D02*
X0051006Y0097354D01*
X0051006Y0097952D02*
X0045915Y0097952D01*
X0045317Y0098551D02*
X0051006Y0098551D01*
X0051006Y0099149D02*
X0044718Y0099149D01*
X0044120Y0099748D02*
X0051006Y0099748D01*
X0051006Y0100346D02*
X0043521Y0100346D01*
X0042923Y0100945D02*
X0051006Y0100945D01*
X0051006Y0101543D02*
X0042324Y0101543D01*
X0041726Y0102142D02*
X0051006Y0102142D01*
X0051006Y0102740D02*
X0041127Y0102740D01*
X0040529Y0103339D02*
X0051006Y0103339D01*
X0051006Y0103937D02*
X0039930Y0103937D01*
X0039332Y0104536D02*
X0051006Y0104536D01*
X0051006Y0105134D02*
X0038733Y0105134D01*
X0038135Y0105733D02*
X0051006Y0105733D01*
X0049618Y0106331D02*
X0048918Y0106331D01*
X0045429Y0110193D02*
X0049366Y0122831D01*
X0049287Y0122909D01*
X0052950Y0123090D02*
X0053893Y0123090D01*
X0053893Y0123688D02*
X0052950Y0123688D01*
X0052950Y0124287D02*
X0053893Y0124287D01*
X0053893Y0124885D02*
X0052950Y0124885D01*
X0052950Y0125484D02*
X0053893Y0125484D01*
X0053893Y0126082D02*
X0052678Y0126082D01*
X0054173Y0126681D02*
X0041761Y0126681D01*
X0041761Y0127279D02*
X0054300Y0127279D01*
X0053893Y0127878D02*
X0052551Y0127878D01*
X0052950Y0128476D02*
X0053893Y0128476D01*
X0053893Y0129075D02*
X0052950Y0129075D01*
X0052437Y0131177D02*
X0049287Y0131177D01*
X0052437Y0131177D02*
X0057161Y0130390D01*
X0053893Y0132666D02*
X0053238Y0132666D01*
X0052950Y0133264D02*
X0054064Y0133264D01*
X0052950Y0133863D02*
X0061235Y0133863D01*
X0061235Y0134461D02*
X0052566Y0134461D01*
X0046009Y0134461D02*
X0037114Y0134461D01*
X0038196Y0134013D02*
X0035175Y0135265D01*
X0031904Y0135265D01*
X0028882Y0134013D01*
X0028043Y0133173D01*
X0028028Y0133165D01*
X0028011Y0133142D01*
X0026570Y0131700D01*
X0026047Y0130438D01*
X0026014Y0130394D01*
X0026000Y0130324D01*
X0025318Y0128679D01*
X0025318Y0127117D01*
X0025302Y0127043D01*
X0025318Y0126969D01*
X0025318Y0125408D01*
X0026000Y0123762D01*
X0026014Y0123693D01*
X0026047Y0123648D01*
X0026570Y0122386D01*
X0028011Y0120945D01*
X0028028Y0120922D01*
X0028043Y0120913D01*
X0028882Y0120074D01*
X0031904Y0118822D01*
X0035175Y0118822D01*
X0038196Y0120074D01*
X0040509Y0122386D01*
X0041761Y0125408D01*
X0041761Y0128679D01*
X0040509Y0131700D01*
X0038196Y0134013D01*
X0038347Y0133863D02*
X0045625Y0133863D01*
X0045625Y0133264D02*
X0038945Y0133264D01*
X0039544Y0132666D02*
X0045625Y0132666D01*
X0045625Y0132067D02*
X0040142Y0132067D01*
X0040605Y0131469D02*
X0045625Y0131469D01*
X0045625Y0130870D02*
X0040853Y0130870D01*
X0041101Y0130272D02*
X0045625Y0130272D01*
X0045625Y0129673D02*
X0041349Y0129673D01*
X0041597Y0129075D02*
X0045625Y0129075D01*
X0045625Y0128476D02*
X0041761Y0128476D01*
X0041761Y0127878D02*
X0046024Y0127878D01*
X0045897Y0126082D02*
X0041761Y0126082D01*
X0041761Y0125484D02*
X0045625Y0125484D01*
X0045625Y0124885D02*
X0041544Y0124885D01*
X0041296Y0124287D02*
X0045625Y0124287D01*
X0045625Y0123688D02*
X0041048Y0123688D01*
X0040800Y0123090D02*
X0045625Y0123090D01*
X0045625Y0122491D02*
X0040552Y0122491D01*
X0040015Y0121893D02*
X0045625Y0121893D01*
X0045625Y0121294D02*
X0039417Y0121294D01*
X0038818Y0120695D02*
X0045625Y0120695D01*
X0045625Y0120097D02*
X0038220Y0120097D01*
X0036808Y0119498D02*
X0046135Y0119498D01*
X0046466Y0118900D02*
X0035363Y0118900D01*
X0031716Y0118900D02*
X0023328Y0118900D01*
X0023328Y0119498D02*
X0030271Y0119498D01*
X0028859Y0120097D02*
X0023328Y0120097D01*
X0023328Y0120695D02*
X0028261Y0120695D01*
X0027662Y0121294D02*
X0023328Y0121294D01*
X0023328Y0121893D02*
X0027064Y0121893D01*
X0026526Y0122491D02*
X0023328Y0122491D01*
X0023328Y0123090D02*
X0026278Y0123090D01*
X0026018Y0123688D02*
X0023328Y0123688D01*
X0023328Y0124287D02*
X0025783Y0124287D01*
X0025535Y0124885D02*
X0023328Y0124885D01*
X0023328Y0125484D02*
X0025318Y0125484D01*
X0025318Y0126082D02*
X0023328Y0126082D01*
X0023328Y0126681D02*
X0025318Y0126681D01*
X0025318Y0127279D02*
X0023328Y0127279D01*
X0023328Y0127878D02*
X0025318Y0127878D01*
X0025318Y0128476D02*
X0023328Y0128476D01*
X0023328Y0129075D02*
X0025482Y0129075D01*
X0025730Y0129673D02*
X0023328Y0129673D01*
X0023328Y0130272D02*
X0025978Y0130272D01*
X0026226Y0130870D02*
X0023328Y0130870D01*
X0023328Y0131469D02*
X0026474Y0131469D01*
X0026937Y0132067D02*
X0023328Y0132067D01*
X0023328Y0132666D02*
X0027535Y0132666D01*
X0028134Y0133264D02*
X0023328Y0133264D01*
X0023328Y0133863D02*
X0028732Y0133863D01*
X0029965Y0134461D02*
X0023328Y0134461D01*
X0023328Y0135060D02*
X0031410Y0135060D01*
X0035669Y0135060D02*
X0061351Y0135060D01*
X0061950Y0135658D02*
X0023328Y0135658D01*
X0023328Y0136257D02*
X0201231Y0136257D01*
X0201231Y0136855D02*
X0023328Y0136855D01*
X0010404Y0120577D02*
X0010277Y0120517D01*
X0010148Y0120461D01*
X0010018Y0120408D01*
X0009886Y0120358D01*
X0009753Y0120312D01*
X0009619Y0120270D01*
X0009484Y0120231D01*
X0009347Y0120195D01*
X0009210Y0120164D01*
X0009072Y0120136D01*
X0008934Y0120111D01*
X0008795Y0120091D01*
X0008655Y0120074D01*
X0008515Y0120061D01*
X0008374Y0120052D01*
X0008234Y0120046D01*
X0008093Y0120044D01*
X0010404Y0114423D02*
X0010277Y0114363D01*
X0010148Y0114307D01*
X0010018Y0114254D01*
X0009886Y0114204D01*
X0009753Y0114158D01*
X0009619Y0114116D01*
X0009484Y0114077D01*
X0009347Y0114041D01*
X0009210Y0114010D01*
X0009072Y0113982D01*
X0008934Y0113957D01*
X0008795Y0113937D01*
X0008655Y0113920D01*
X0008515Y0113907D01*
X0008374Y0113898D01*
X0008234Y0113892D01*
X0008093Y0113890D01*
X0008093Y0117445D02*
X0007952Y0117443D01*
X0007812Y0117437D01*
X0007671Y0117428D01*
X0007531Y0117415D01*
X0007391Y0117398D01*
X0007252Y0117378D01*
X0007114Y0117353D01*
X0006976Y0117325D01*
X0006839Y0117294D01*
X0006702Y0117258D01*
X0006567Y0117219D01*
X0006433Y0117177D01*
X0006300Y0117131D01*
X0006168Y0117081D01*
X0006038Y0117028D01*
X0005909Y0116972D01*
X0005782Y0116912D01*
X0006315Y0117090D02*
X0009870Y0114245D01*
X0011293Y0115668D02*
X0011291Y0115739D01*
X0011285Y0115810D01*
X0011276Y0115880D01*
X0011262Y0115950D01*
X0011245Y0116019D01*
X0011225Y0116086D01*
X0011200Y0116153D01*
X0011172Y0116218D01*
X0011141Y0116282D01*
X0011106Y0116344D01*
X0011068Y0116404D01*
X0011027Y0116461D01*
X0010983Y0116517D01*
X0010935Y0116570D01*
X0010885Y0116620D01*
X0010833Y0116668D01*
X0010778Y0116713D01*
X0010720Y0116754D01*
X0010660Y0116793D01*
X0010599Y0116828D01*
X0010535Y0116860D01*
X0010470Y0116888D01*
X0010404Y0116913D01*
X0011293Y0115668D02*
X0011291Y0115597D01*
X0011285Y0115526D01*
X0011276Y0115456D01*
X0011262Y0115386D01*
X0011245Y0115317D01*
X0011225Y0115250D01*
X0011200Y0115183D01*
X0011172Y0115118D01*
X0011141Y0115054D01*
X0011106Y0114992D01*
X0011068Y0114932D01*
X0011027Y0114874D01*
X0010983Y0114819D01*
X0010935Y0114766D01*
X0010885Y0114716D01*
X0010833Y0114668D01*
X0010778Y0114623D01*
X0010720Y0114582D01*
X0010660Y0114543D01*
X0010599Y0114508D01*
X0010535Y0114476D01*
X0010470Y0114448D01*
X0010404Y0114423D01*
X0010404Y0116912D02*
X0010277Y0116972D01*
X0010148Y0117028D01*
X0010018Y0117081D01*
X0009886Y0117131D01*
X0009753Y0117177D01*
X0009619Y0117219D01*
X0009484Y0117258D01*
X0009347Y0117294D01*
X0009210Y0117325D01*
X0009072Y0117353D01*
X0008934Y0117378D01*
X0008795Y0117398D01*
X0008655Y0117415D01*
X0008515Y0117428D01*
X0008374Y0117437D01*
X0008234Y0117443D01*
X0008093Y0117445D01*
X0010404Y0123066D02*
X0010277Y0123126D01*
X0010148Y0123182D01*
X0010018Y0123235D01*
X0009886Y0123285D01*
X0009753Y0123331D01*
X0009619Y0123373D01*
X0009484Y0123412D01*
X0009347Y0123448D01*
X0009210Y0123479D01*
X0009072Y0123507D01*
X0008934Y0123532D01*
X0008795Y0123552D01*
X0008655Y0123569D01*
X0008515Y0123582D01*
X0008374Y0123591D01*
X0008234Y0123597D01*
X0008093Y0123599D01*
X0008093Y0120044D02*
X0007952Y0120046D01*
X0007812Y0120052D01*
X0007671Y0120061D01*
X0007531Y0120074D01*
X0007391Y0120091D01*
X0007252Y0120111D01*
X0007114Y0120136D01*
X0006976Y0120164D01*
X0006839Y0120195D01*
X0006702Y0120231D01*
X0006567Y0120270D01*
X0006433Y0120312D01*
X0006300Y0120358D01*
X0006168Y0120408D01*
X0006038Y0120461D01*
X0005909Y0120517D01*
X0005782Y0120577D01*
X0004892Y0121822D02*
X0004894Y0121893D01*
X0004900Y0121964D01*
X0004909Y0122034D01*
X0004923Y0122104D01*
X0004940Y0122173D01*
X0004960Y0122240D01*
X0004985Y0122307D01*
X0005013Y0122372D01*
X0005044Y0122436D01*
X0005079Y0122498D01*
X0005117Y0122558D01*
X0005158Y0122616D01*
X0005202Y0122671D01*
X0005250Y0122724D01*
X0005300Y0122774D01*
X0005352Y0122822D01*
X0005407Y0122867D01*
X0005465Y0122908D01*
X0005525Y0122947D01*
X0005586Y0122982D01*
X0005650Y0123014D01*
X0005715Y0123042D01*
X0005781Y0123067D01*
X0006315Y0123244D02*
X0009870Y0120399D01*
X0011293Y0121822D02*
X0011291Y0121893D01*
X0011285Y0121964D01*
X0011276Y0122034D01*
X0011262Y0122104D01*
X0011245Y0122173D01*
X0011225Y0122240D01*
X0011200Y0122307D01*
X0011172Y0122372D01*
X0011141Y0122436D01*
X0011106Y0122498D01*
X0011068Y0122558D01*
X0011027Y0122615D01*
X0010983Y0122671D01*
X0010935Y0122724D01*
X0010885Y0122774D01*
X0010833Y0122822D01*
X0010778Y0122867D01*
X0010720Y0122908D01*
X0010660Y0122947D01*
X0010599Y0122982D01*
X0010535Y0123014D01*
X0010470Y0123042D01*
X0010404Y0123067D01*
X0011293Y0121822D02*
X0011291Y0121751D01*
X0011285Y0121680D01*
X0011276Y0121610D01*
X0011262Y0121540D01*
X0011245Y0121471D01*
X0011225Y0121404D01*
X0011200Y0121337D01*
X0011172Y0121272D01*
X0011141Y0121208D01*
X0011106Y0121146D01*
X0011068Y0121086D01*
X0011027Y0121028D01*
X0010983Y0120973D01*
X0010935Y0120920D01*
X0010885Y0120870D01*
X0010833Y0120822D01*
X0010778Y0120777D01*
X0010720Y0120736D01*
X0010660Y0120697D01*
X0010599Y0120662D01*
X0010535Y0120630D01*
X0010470Y0120602D01*
X0010404Y0120577D01*
X0008093Y0113890D02*
X0007952Y0113892D01*
X0007812Y0113898D01*
X0007671Y0113907D01*
X0007531Y0113920D01*
X0007391Y0113937D01*
X0007252Y0113957D01*
X0007114Y0113982D01*
X0006976Y0114010D01*
X0006839Y0114041D01*
X0006702Y0114077D01*
X0006567Y0114116D01*
X0006433Y0114158D01*
X0006300Y0114204D01*
X0006168Y0114254D01*
X0006038Y0114307D01*
X0005909Y0114363D01*
X0005782Y0114423D01*
X0004892Y0115668D02*
X0004894Y0115739D01*
X0004900Y0115810D01*
X0004909Y0115880D01*
X0004923Y0115950D01*
X0004940Y0116019D01*
X0004960Y0116086D01*
X0004985Y0116153D01*
X0005013Y0116218D01*
X0005044Y0116282D01*
X0005079Y0116344D01*
X0005117Y0116404D01*
X0005158Y0116462D01*
X0005202Y0116517D01*
X0005250Y0116570D01*
X0005300Y0116620D01*
X0005352Y0116668D01*
X0005407Y0116713D01*
X0005465Y0116754D01*
X0005525Y0116793D01*
X0005586Y0116828D01*
X0005650Y0116860D01*
X0005715Y0116888D01*
X0005781Y0116913D01*
X0004892Y0115668D02*
X0004894Y0115597D01*
X0004900Y0115526D01*
X0004909Y0115456D01*
X0004923Y0115386D01*
X0004940Y0115317D01*
X0004960Y0115250D01*
X0004985Y0115183D01*
X0005013Y0115118D01*
X0005044Y0115054D01*
X0005079Y0114992D01*
X0005117Y0114932D01*
X0005158Y0114874D01*
X0005202Y0114819D01*
X0005250Y0114766D01*
X0005300Y0114716D01*
X0005352Y0114668D01*
X0005407Y0114623D01*
X0005465Y0114582D01*
X0005525Y0114543D01*
X0005586Y0114508D01*
X0005650Y0114476D01*
X0005715Y0114448D01*
X0005781Y0114423D01*
X0005782Y0123066D02*
X0005909Y0123126D01*
X0006038Y0123182D01*
X0006168Y0123235D01*
X0006300Y0123285D01*
X0006433Y0123331D01*
X0006567Y0123373D01*
X0006702Y0123412D01*
X0006839Y0123448D01*
X0006976Y0123479D01*
X0007114Y0123507D01*
X0007252Y0123532D01*
X0007391Y0123552D01*
X0007531Y0123569D01*
X0007671Y0123582D01*
X0007812Y0123591D01*
X0007952Y0123597D01*
X0008093Y0123599D01*
X0004892Y0121822D02*
X0004894Y0121751D01*
X0004900Y0121680D01*
X0004909Y0121610D01*
X0004923Y0121540D01*
X0004940Y0121471D01*
X0004960Y0121404D01*
X0004985Y0121337D01*
X0005013Y0121272D01*
X0005044Y0121208D01*
X0005079Y0121146D01*
X0005117Y0121086D01*
X0005158Y0121028D01*
X0005202Y0120973D01*
X0005250Y0120920D01*
X0005300Y0120870D01*
X0005352Y0120822D01*
X0005407Y0120777D01*
X0005465Y0120736D01*
X0005525Y0120697D01*
X0005586Y0120662D01*
X0005650Y0120630D01*
X0005715Y0120602D01*
X0005781Y0120577D01*
X0010937Y0111538D02*
X0011293Y0111538D01*
X0011293Y0111182D01*
X0010937Y0111182D01*
X0010937Y0111538D01*
X0009870Y0108830D02*
X0009870Y0105274D01*
X0004893Y0106696D01*
X0008448Y0107763D02*
X0011293Y0107763D01*
X0011293Y0102676D02*
X0011293Y0099120D01*
X0011293Y0100898D02*
X0004893Y0100898D01*
X0006315Y0099120D01*
X0023328Y0105134D02*
X0032794Y0105134D01*
X0032195Y0105733D02*
X0023328Y0105733D01*
X0023328Y0106331D02*
X0027374Y0106331D01*
X0026806Y0106930D02*
X0023328Y0106930D01*
X0023328Y0107528D02*
X0026806Y0107528D01*
X0026806Y0108127D02*
X0023328Y0108127D01*
X0023328Y0108725D02*
X0026806Y0108725D01*
X0026806Y0109324D02*
X0023328Y0109324D01*
X0023328Y0109922D02*
X0026806Y0109922D01*
X0026806Y0110521D02*
X0023328Y0110521D01*
X0023328Y0111119D02*
X0026806Y0111119D01*
X0026806Y0111718D02*
X0023328Y0111718D01*
X0023328Y0112316D02*
X0026806Y0112316D01*
X0026806Y0112915D02*
X0023328Y0112915D01*
X0023328Y0113513D02*
X0026832Y0113513D01*
X0027431Y0114112D02*
X0023328Y0114112D01*
X0023328Y0114710D02*
X0045161Y0114710D01*
X0045347Y0115309D02*
X0023328Y0115309D01*
X0023328Y0115907D02*
X0045534Y0115907D01*
X0045720Y0116506D02*
X0023328Y0116506D01*
X0023328Y0117104D02*
X0045906Y0117104D01*
X0046093Y0117703D02*
X0023328Y0117703D01*
X0023328Y0118301D02*
X0046279Y0118301D01*
X0049072Y0116506D02*
X0056387Y0116506D01*
X0056387Y0117104D02*
X0049258Y0117104D01*
X0049445Y0117703D02*
X0056387Y0117703D01*
X0056387Y0118301D02*
X0049631Y0118301D01*
X0049817Y0118900D02*
X0056369Y0118900D01*
X0056266Y0119498D02*
X0052439Y0119498D01*
X0052950Y0120097D02*
X0056162Y0120097D01*
X0054190Y0120695D02*
X0052950Y0120695D01*
X0052950Y0121294D02*
X0053893Y0121294D01*
X0053893Y0121893D02*
X0052950Y0121893D01*
X0052950Y0122491D02*
X0053893Y0122491D01*
X0057161Y0123697D02*
X0057987Y0118934D01*
X0057987Y0094753D01*
X0059674Y0093066D01*
X0066657Y0093066D01*
X0067418Y0093828D01*
X0067418Y0095371D01*
X0068776Y0096728D01*
X0065277Y0096970D02*
X0064794Y0096970D01*
X0064794Y0100210D01*
X0066753Y0102169D01*
X0067983Y0103399D01*
X0067983Y0106137D01*
X0070809Y0106137D01*
X0070809Y0099978D01*
X0070397Y0100391D01*
X0067154Y0100391D01*
X0066903Y0100139D01*
X0066620Y0100302D01*
X0066289Y0100391D01*
X0065277Y0100391D01*
X0065277Y0096970D01*
X0065277Y0097354D02*
X0064794Y0097354D01*
X0064794Y0097952D02*
X0065277Y0097952D01*
X0065277Y0098551D02*
X0064794Y0098551D01*
X0064794Y0099149D02*
X0065277Y0099149D01*
X0065277Y0099748D02*
X0064794Y0099748D01*
X0064930Y0100346D02*
X0065277Y0100346D01*
X0065529Y0100945D02*
X0070809Y0100945D01*
X0070809Y0101543D02*
X0066127Y0101543D01*
X0066726Y0102142D02*
X0070809Y0102142D01*
X0070809Y0102740D02*
X0067324Y0102740D01*
X0067923Y0103339D02*
X0070809Y0103339D01*
X0070809Y0103937D02*
X0067983Y0103937D01*
X0067983Y0104536D02*
X0070809Y0104536D01*
X0070809Y0105134D02*
X0067983Y0105134D01*
X0067983Y0105733D02*
X0070809Y0105733D01*
X0075009Y0105733D02*
X0078398Y0105733D01*
X0078690Y0106331D02*
X0075009Y0106331D01*
X0075009Y0106930D02*
X0078981Y0106930D01*
X0079136Y0107247D02*
X0076755Y0102359D01*
X0075009Y0102359D01*
X0075009Y0110425D01*
X0076113Y0111529D01*
X0077438Y0111529D01*
X0080861Y0114952D01*
X0080861Y0113769D01*
X0081623Y0113007D01*
X0081707Y0113007D01*
X0079136Y0107247D01*
X0079262Y0107528D02*
X0075009Y0107528D01*
X0075009Y0108127D02*
X0079529Y0108127D01*
X0079796Y0108725D02*
X0075009Y0108725D01*
X0075009Y0109324D02*
X0080063Y0109324D01*
X0080330Y0109922D02*
X0075009Y0109922D01*
X0075105Y0110521D02*
X0080598Y0110521D01*
X0080865Y0111119D02*
X0075703Y0111119D01*
X0077627Y0111718D02*
X0081132Y0111718D01*
X0081399Y0112316D02*
X0078225Y0112316D01*
X0078824Y0112915D02*
X0081666Y0112915D01*
X0081116Y0113513D02*
X0079422Y0113513D01*
X0080021Y0114112D02*
X0080861Y0114112D01*
X0080861Y0114710D02*
X0080620Y0114710D01*
X0084903Y0112316D02*
X0098369Y0112316D01*
X0098369Y0111718D02*
X0084636Y0111718D01*
X0084369Y0111119D02*
X0098369Y0111119D01*
X0098369Y0110521D02*
X0084102Y0110521D01*
X0083835Y0109922D02*
X0098369Y0109922D01*
X0098369Y0109324D02*
X0083567Y0109324D01*
X0083300Y0108725D02*
X0098369Y0108725D01*
X0098369Y0108127D02*
X0083033Y0108127D01*
X0082766Y0107528D02*
X0098369Y0107528D01*
X0098369Y0106930D02*
X0082499Y0106930D01*
X0082249Y0106331D02*
X0098369Y0106331D01*
X0098369Y0105733D02*
X0081964Y0105733D01*
X0081666Y0105134D02*
X0098191Y0105134D01*
X0097593Y0104536D02*
X0081375Y0104536D01*
X0081083Y0103937D02*
X0096994Y0103937D01*
X0096396Y0103339D02*
X0080792Y0103339D01*
X0080500Y0102740D02*
X0088697Y0102740D01*
X0092295Y0102740D02*
X0092894Y0102740D01*
X0092894Y0102142D02*
X0092295Y0102142D01*
X0092295Y0101543D02*
X0092894Y0101543D01*
X0092894Y0100945D02*
X0092295Y0100945D01*
X0092295Y0100346D02*
X0092894Y0100346D01*
X0092894Y0099748D02*
X0092295Y0099748D01*
X0092294Y0099149D02*
X0085021Y0099149D01*
X0081452Y0098551D02*
X0080115Y0098551D01*
X0080115Y0097952D02*
X0081452Y0097952D01*
X0081452Y0097354D02*
X0080115Y0097354D01*
X0080115Y0096755D02*
X0081452Y0096755D01*
X0081581Y0096157D02*
X0080082Y0096157D01*
X0079483Y0095558D02*
X0082105Y0095558D01*
X0081507Y0094959D02*
X0080060Y0094959D01*
X0080115Y0094361D02*
X0081452Y0094361D01*
X0081452Y0093762D02*
X0080115Y0093762D01*
X0080115Y0093164D02*
X0081452Y0093164D01*
X0081452Y0092565D02*
X0080115Y0092565D01*
X0080115Y0091967D02*
X0081452Y0091967D01*
X0081452Y0091368D02*
X0080115Y0091368D01*
X0080115Y0090770D02*
X0081452Y0090770D01*
X0081452Y0090171D02*
X0080115Y0090171D01*
X0080115Y0089573D02*
X0081452Y0089573D01*
X0081975Y0088974D02*
X0079592Y0088974D01*
X0081963Y0087179D02*
X0071730Y0087179D01*
X0071158Y0087777D02*
X0082562Y0087777D01*
X0083120Y0088376D02*
X0071158Y0088376D01*
X0071158Y0088974D02*
X0074101Y0088974D01*
X0072328Y0086580D02*
X0081365Y0086580D01*
X0080766Y0085982D02*
X0072927Y0085982D01*
X0073525Y0085383D02*
X0080168Y0085383D01*
X0086820Y0082989D02*
X0090113Y0082989D01*
X0090113Y0082391D02*
X0086820Y0082391D01*
X0086820Y0081792D02*
X0090113Y0081792D01*
X0090149Y0081194D02*
X0086820Y0081194D01*
X0086820Y0080595D02*
X0090747Y0080595D01*
X0089776Y0078201D02*
X0111939Y0078201D01*
X0112706Y0077603D02*
X0090578Y0077603D01*
X0088657Y0075862D02*
X0100469Y0075862D01*
X0104406Y0071925D01*
X0104406Y0067988D01*
X0106378Y0066016D01*
X0103982Y0065034D02*
X0102502Y0065034D01*
X0102950Y0065632D02*
X0103789Y0065632D01*
X0103789Y0066231D02*
X0102950Y0066231D01*
X0102950Y0066829D02*
X0103301Y0066829D01*
X0104297Y0064435D02*
X0098403Y0064435D01*
X0099001Y0063837D02*
X0104895Y0063837D01*
X0101994Y0060844D02*
X0121591Y0060844D01*
X0121502Y0060246D02*
X0102592Y0060246D01*
X0103191Y0059647D02*
X0121502Y0059647D01*
X0121730Y0059049D02*
X0103789Y0059049D01*
X0103257Y0057325D02*
X0104406Y0056177D01*
X0104406Y0056136D01*
X0103257Y0057325D02*
X0103250Y0057325D01*
X0096799Y0063776D01*
X0089891Y0063776D01*
X0089129Y0063015D01*
X0089129Y0059897D01*
X0088559Y0059327D01*
X0086570Y0058757D02*
X0086570Y0050391D01*
X0088657Y0048303D01*
X0104406Y0048303D01*
X0112280Y0048303D01*
X0116217Y0044366D01*
X0122713Y0044366D01*
X0122712Y0042398D02*
X0120428Y0042398D01*
X0120428Y0042766D01*
X0117340Y0042766D01*
X0117683Y0042624D01*
X0118411Y0041896D01*
X0118805Y0040944D01*
X0118805Y0039914D01*
X0118411Y0038963D01*
X0117683Y0038234D01*
X0117352Y0038097D01*
X0114028Y0034773D01*
X0114062Y0034753D01*
X0114304Y0034511D01*
X0114475Y0034214D01*
X0114564Y0033884D01*
X0114564Y0031641D01*
X0112373Y0031641D01*
X0112373Y0031060D01*
X0112373Y0027688D01*
X0113435Y0027688D01*
X0113766Y0027777D01*
X0114062Y0027948D01*
X0114304Y0028190D01*
X0114475Y0028486D01*
X0114564Y0028817D01*
X0114564Y0031060D01*
X0112373Y0031060D01*
X0111792Y0031060D01*
X0111792Y0027688D01*
X0110730Y0027688D01*
X0110400Y0027777D01*
X0110242Y0027868D01*
X0110062Y0027688D01*
X0106623Y0027688D01*
X0106472Y0027839D01*
X0106322Y0027688D01*
X0102883Y0027688D01*
X0102121Y0028450D01*
X0102121Y0034251D01*
X0102883Y0035013D01*
X0106322Y0035013D01*
X0106472Y0034862D01*
X0106623Y0035013D01*
X0108100Y0035013D01*
X0108939Y0035851D01*
X0109700Y0036613D01*
X0111342Y0036613D01*
X0112701Y0037972D01*
X0110363Y0037972D01*
X0109602Y0038733D01*
X0109602Y0040844D01*
X0109475Y0040971D01*
X0108669Y0041777D01*
X0107828Y0041777D01*
X0107083Y0042085D01*
X0107083Y0038733D01*
X0106322Y0037972D01*
X0102883Y0037972D01*
X0102121Y0038733D01*
X0102121Y0038868D01*
X0095777Y0038868D01*
X0095777Y0032767D01*
X0097780Y0030764D01*
X0097780Y0030340D01*
X0101338Y0026781D01*
X0115347Y0026781D01*
X0121991Y0033425D01*
X0123635Y0035070D01*
X0124359Y0035793D01*
X0124359Y0037436D01*
X0124267Y0037528D01*
X0124267Y0038669D01*
X0124235Y0038637D01*
X0121190Y0038637D01*
X0120428Y0039399D01*
X0120428Y0041460D01*
X0120486Y0041518D01*
X0120428Y0041734D01*
X0120428Y0042398D01*
X0122712Y0042398D01*
X0122712Y0042398D01*
X0122713Y0042398D02*
X0124997Y0042398D01*
X0124997Y0043061D01*
X0124939Y0043277D01*
X0124997Y0043336D01*
X0124997Y0047428D01*
X0125028Y0047397D01*
X0131027Y0047397D01*
X0131103Y0047473D01*
X0131116Y0047423D01*
X0131058Y0047365D01*
X0131058Y0041304D01*
X0131027Y0041335D01*
X0125028Y0041335D01*
X0124997Y0041304D01*
X0124997Y0041460D01*
X0124939Y0041518D01*
X0124997Y0041734D01*
X0124997Y0042398D01*
X0122713Y0042398D01*
X0122713Y0042398D01*
X0124997Y0042291D02*
X0131058Y0042291D01*
X0131058Y0042889D02*
X0124997Y0042889D01*
X0124997Y0043488D02*
X0131058Y0043488D01*
X0131058Y0044086D02*
X0124997Y0044086D01*
X0124997Y0044685D02*
X0131058Y0044685D01*
X0131058Y0045283D02*
X0124997Y0045283D01*
X0124997Y0045882D02*
X0131058Y0045882D01*
X0131058Y0046480D02*
X0124997Y0046480D01*
X0124997Y0047079D02*
X0131058Y0047079D01*
X0131058Y0047365D02*
X0131058Y0046611D01*
X0128028Y0044366D01*
X0131058Y0041692D02*
X0124985Y0041692D01*
X0120440Y0041692D02*
X0118496Y0041692D01*
X0118744Y0041093D02*
X0120428Y0041093D01*
X0120428Y0040495D02*
X0118805Y0040495D01*
X0118798Y0039896D02*
X0120428Y0039896D01*
X0120529Y0039298D02*
X0118550Y0039298D01*
X0118148Y0038699D02*
X0121127Y0038699D01*
X0124267Y0038101D02*
X0117361Y0038101D01*
X0116757Y0037502D02*
X0124293Y0037502D01*
X0124359Y0036904D02*
X0116159Y0036904D01*
X0115560Y0036305D02*
X0124359Y0036305D01*
X0124272Y0035707D02*
X0114962Y0035707D01*
X0114363Y0035108D02*
X0123674Y0035108D01*
X0123075Y0034510D02*
X0114305Y0034510D01*
X0114556Y0033911D02*
X0122477Y0033911D01*
X0121878Y0033313D02*
X0114564Y0033313D01*
X0114564Y0032714D02*
X0121280Y0032714D01*
X0120681Y0032116D02*
X0114564Y0032116D01*
X0114564Y0030919D02*
X0119484Y0030919D01*
X0118886Y0030320D02*
X0114564Y0030320D01*
X0114564Y0029722D02*
X0118287Y0029722D01*
X0117689Y0029123D02*
X0114564Y0029123D01*
X0114485Y0028525D02*
X0117090Y0028525D01*
X0116492Y0027926D02*
X0114024Y0027926D01*
X0112373Y0027926D02*
X0111792Y0027926D01*
X0111792Y0028525D02*
X0112373Y0028525D01*
X0112373Y0029123D02*
X0111792Y0029123D01*
X0111792Y0029722D02*
X0112373Y0029722D01*
X0112373Y0030320D02*
X0111792Y0030320D01*
X0111792Y0030919D02*
X0112373Y0030919D01*
X0112373Y0031517D02*
X0120083Y0031517D01*
X0123030Y0028525D02*
X0141606Y0028525D01*
X0142176Y0027955D02*
X0142176Y0027955D01*
X0143113Y0027018D01*
X0144838Y0027018D01*
X0144838Y0026781D01*
X0121286Y0026781D01*
X0124960Y0030455D01*
X0126605Y0032100D01*
X0130037Y0032100D01*
X0132582Y0034645D01*
X0134388Y0036451D01*
X0134388Y0037017D01*
X0135043Y0037671D01*
X0135043Y0038814D01*
X0135627Y0039399D01*
X0135627Y0045010D01*
X0137227Y0046610D01*
X0137227Y0047366D01*
X0139512Y0049651D01*
X0140354Y0049651D01*
X0141305Y0050045D01*
X0142033Y0050774D01*
X0142428Y0051725D01*
X0142428Y0052755D01*
X0142033Y0053707D01*
X0141305Y0054435D01*
X0140962Y0054577D01*
X0142444Y0054577D01*
X0142987Y0054033D01*
X0142987Y0049733D01*
X0143749Y0048972D01*
X0148763Y0048972D01*
X0149524Y0049733D01*
X0149524Y0051428D01*
X0149893Y0051428D01*
X0152899Y0048422D01*
X0147489Y0048422D01*
X0146728Y0047661D01*
X0146728Y0041072D01*
X0147489Y0040310D01*
X0148396Y0040310D01*
X0148396Y0039761D01*
X0145599Y0039761D01*
X0144838Y0038999D01*
X0144838Y0035289D01*
X0144575Y0035026D01*
X0144291Y0035144D01*
X0143261Y0035144D01*
X0142309Y0034750D01*
X0141581Y0034022D01*
X0141439Y0033678D01*
X0141439Y0039766D01*
X0141982Y0040310D01*
X0145023Y0040310D01*
X0145784Y0041072D01*
X0145784Y0047661D01*
X0145023Y0048422D01*
X0140009Y0048422D01*
X0139247Y0047661D01*
X0139247Y0042101D01*
X0138239Y0041092D01*
X0138239Y0031892D01*
X0142176Y0027955D01*
X0142205Y0027926D02*
X0122431Y0027926D01*
X0121833Y0027328D02*
X0142803Y0027328D01*
X0143776Y0028618D02*
X0148303Y0028618D01*
X0143776Y0028618D02*
X0139839Y0032555D01*
X0139839Y0040429D01*
X0142516Y0043106D01*
X0142516Y0044366D01*
X0139247Y0044086D02*
X0135627Y0044086D01*
X0135627Y0043488D02*
X0139247Y0043488D01*
X0139247Y0042889D02*
X0135627Y0042889D01*
X0135627Y0042291D02*
X0139247Y0042291D01*
X0138839Y0041692D02*
X0135627Y0041692D01*
X0135627Y0041093D02*
X0138240Y0041093D01*
X0138239Y0040495D02*
X0135627Y0040495D01*
X0135627Y0039896D02*
X0138239Y0039896D01*
X0138239Y0039298D02*
X0135526Y0039298D01*
X0135043Y0038699D02*
X0138239Y0038699D01*
X0138239Y0038101D02*
X0135043Y0038101D01*
X0134873Y0037502D02*
X0138239Y0037502D01*
X0138239Y0036904D02*
X0134388Y0036904D01*
X0134242Y0036305D02*
X0138239Y0036305D01*
X0138239Y0035707D02*
X0133644Y0035707D01*
X0133045Y0035108D02*
X0138239Y0035108D01*
X0138239Y0034510D02*
X0132447Y0034510D01*
X0131848Y0033911D02*
X0138239Y0033911D01*
X0138239Y0033313D02*
X0131250Y0033313D01*
X0130651Y0032714D02*
X0138239Y0032714D01*
X0138239Y0032116D02*
X0130053Y0032116D01*
X0126023Y0031517D02*
X0138614Y0031517D01*
X0139212Y0030919D02*
X0125424Y0030919D01*
X0124826Y0030320D02*
X0139811Y0030320D01*
X0140409Y0029722D02*
X0124227Y0029722D01*
X0123629Y0029123D02*
X0141008Y0029123D01*
X0143776Y0032555D02*
X0144366Y0032555D01*
X0148303Y0036492D01*
X0149996Y0038185D01*
X0149996Y0044366D01*
X0146728Y0044086D02*
X0145784Y0044086D01*
X0145784Y0043488D02*
X0146728Y0043488D01*
X0146728Y0042889D02*
X0145784Y0042889D01*
X0145784Y0042291D02*
X0146728Y0042291D01*
X0146728Y0041692D02*
X0145784Y0041692D01*
X0145784Y0041093D02*
X0146728Y0041093D01*
X0147304Y0040495D02*
X0145207Y0040495D01*
X0145137Y0039298D02*
X0141439Y0039298D01*
X0141439Y0038699D02*
X0144838Y0038699D01*
X0144838Y0038101D02*
X0141439Y0038101D01*
X0141439Y0037502D02*
X0144838Y0037502D01*
X0144838Y0036904D02*
X0141439Y0036904D01*
X0141439Y0036305D02*
X0144838Y0036305D01*
X0144838Y0035707D02*
X0141439Y0035707D01*
X0141439Y0035108D02*
X0143174Y0035108D01*
X0144377Y0035108D02*
X0144657Y0035108D01*
X0142069Y0034510D02*
X0141439Y0034510D01*
X0141439Y0033911D02*
X0141535Y0033911D01*
X0141569Y0039896D02*
X0148396Y0039896D01*
X0146728Y0044685D02*
X0145784Y0044685D01*
X0145784Y0045283D02*
X0146728Y0045283D01*
X0146728Y0045882D02*
X0145784Y0045882D01*
X0145784Y0046480D02*
X0146728Y0046480D01*
X0146728Y0047079D02*
X0145784Y0047079D01*
X0145768Y0047677D02*
X0146744Y0047677D01*
X0147343Y0048276D02*
X0145169Y0048276D01*
X0143248Y0049473D02*
X0139334Y0049473D01*
X0138735Y0048874D02*
X0152447Y0048874D01*
X0151848Y0049473D02*
X0149264Y0049473D01*
X0149524Y0050071D02*
X0151250Y0050071D01*
X0150651Y0050670D02*
X0149524Y0050670D01*
X0149524Y0051268D02*
X0150053Y0051268D01*
X0150556Y0053028D02*
X0154612Y0048972D01*
X0160889Y0048972D01*
X0161650Y0049733D01*
X0161650Y0054367D01*
X0158382Y0053028D02*
X0152819Y0053028D01*
X0148069Y0057777D01*
X0142176Y0057777D01*
X0138691Y0061262D01*
X0138691Y0061269D01*
X0135547Y0064413D01*
X0135547Y0069839D01*
X0133947Y0064602D02*
X0133947Y0063750D01*
X0137091Y0060607D01*
X0137091Y0060599D01*
X0139913Y0057777D01*
X0125214Y0057777D01*
X0125557Y0057919D01*
X0126285Y0058648D01*
X0126680Y0059599D01*
X0126680Y0060440D01*
X0129241Y0063002D01*
X0131237Y0063002D01*
X0131998Y0063763D01*
X0132837Y0064602D01*
X0133947Y0064602D01*
X0133947Y0064435D02*
X0132670Y0064435D01*
X0132072Y0063837D02*
X0133947Y0063837D01*
X0134459Y0063238D02*
X0131473Y0063238D01*
X0130574Y0064602D02*
X0128578Y0064602D01*
X0124091Y0060114D01*
X0126452Y0059049D02*
X0138641Y0059049D01*
X0138043Y0059647D02*
X0126680Y0059647D01*
X0126680Y0060246D02*
X0137444Y0060246D01*
X0136853Y0060844D02*
X0127083Y0060844D01*
X0127682Y0061443D02*
X0136254Y0061443D01*
X0135656Y0062041D02*
X0128280Y0062041D01*
X0128879Y0062640D02*
X0135057Y0062640D01*
X0131335Y0065363D02*
X0131335Y0073764D01*
X0143421Y0085850D01*
X0143421Y0128894D01*
X0153092Y0123090D02*
X0157764Y0123090D01*
X0157784Y0122491D02*
X0153112Y0122491D01*
X0153132Y0121893D02*
X0157804Y0121893D01*
X0157825Y0121294D02*
X0153170Y0121294D01*
X0153173Y0120695D02*
X0157828Y0120695D01*
X0157844Y0120097D02*
X0153170Y0120097D01*
X0153170Y0119498D02*
X0158145Y0119498D01*
X0158763Y0118900D02*
X0153170Y0118900D01*
X0153170Y0118301D02*
X0160897Y0118301D01*
X0162669Y0117703D02*
X0153170Y0117703D01*
X0154464Y0117104D02*
X0164441Y0117104D01*
X0166213Y0116506D02*
X0155951Y0116506D01*
X0157438Y0115907D02*
X0167985Y0115907D01*
X0168746Y0115309D02*
X0158926Y0115309D01*
X0160413Y0114710D02*
X0168749Y0114710D01*
X0168996Y0114112D02*
X0161900Y0114112D01*
X0163388Y0113513D02*
X0169392Y0113513D01*
X0170164Y0112915D02*
X0164875Y0112915D01*
X0166362Y0112316D02*
X0172649Y0112316D01*
X0172649Y0111718D02*
X0167849Y0111718D01*
X0169337Y0111119D02*
X0172649Y0111119D01*
X0172649Y0110521D02*
X0170824Y0110521D01*
X0172311Y0109922D02*
X0172649Y0109922D01*
X0172649Y0112915D02*
X0172505Y0112915D01*
X0171335Y0115232D02*
X0171335Y0116465D01*
X0159444Y0120481D01*
X0159444Y0120745D01*
X0159169Y0128894D01*
X0162831Y0129075D02*
X0163381Y0129075D01*
X0163381Y0129673D02*
X0162831Y0129673D01*
X0162831Y0130272D02*
X0163381Y0130272D01*
X0163381Y0130870D02*
X0162831Y0130870D01*
X0162831Y0131469D02*
X0163381Y0131469D01*
X0163381Y0132067D02*
X0162831Y0132067D01*
X0162831Y0132666D02*
X0163381Y0132666D01*
X0163381Y0133264D02*
X0162831Y0133264D01*
X0163381Y0133369D02*
X0163381Y0124418D01*
X0164143Y0123657D01*
X0169944Y0123657D01*
X0170705Y0124418D01*
X0170705Y0133369D01*
X0169944Y0134131D01*
X0164143Y0134131D01*
X0163381Y0133369D01*
X0163875Y0133863D02*
X0162338Y0133863D01*
X0162831Y0128476D02*
X0163381Y0128476D01*
X0163381Y0127878D02*
X0162831Y0127878D01*
X0162831Y0127279D02*
X0163381Y0127279D01*
X0163381Y0126681D02*
X0162831Y0126681D01*
X0162831Y0126082D02*
X0163381Y0126082D01*
X0163381Y0125484D02*
X0162831Y0125484D01*
X0162831Y0124885D02*
X0163381Y0124885D01*
X0163513Y0124287D02*
X0162700Y0124287D01*
X0162101Y0123688D02*
X0164111Y0123688D01*
X0160986Y0122491D02*
X0172649Y0122491D01*
X0172649Y0121893D02*
X0161006Y0121893D01*
X0162037Y0121294D02*
X0172649Y0121294D01*
X0172649Y0120695D02*
X0163809Y0120695D01*
X0165581Y0120097D02*
X0172649Y0120097D01*
X0172649Y0119498D02*
X0167353Y0119498D01*
X0169125Y0118900D02*
X0172649Y0118900D01*
X0172649Y0118301D02*
X0170897Y0118301D01*
X0172507Y0117703D02*
X0172649Y0117703D01*
X0172649Y0123090D02*
X0160966Y0123090D01*
X0156237Y0123688D02*
X0154227Y0123688D01*
X0154826Y0124287D02*
X0155639Y0124287D01*
X0155507Y0124885D02*
X0154957Y0124885D01*
X0154957Y0125484D02*
X0155507Y0125484D01*
X0155507Y0126082D02*
X0154957Y0126082D01*
X0154957Y0126681D02*
X0155507Y0126681D01*
X0155507Y0127279D02*
X0154957Y0127279D01*
X0154957Y0127878D02*
X0155507Y0127878D01*
X0155507Y0128476D02*
X0154957Y0128476D01*
X0154957Y0129075D02*
X0155507Y0129075D01*
X0155507Y0129673D02*
X0154957Y0129673D01*
X0154957Y0130272D02*
X0155507Y0130272D01*
X0155507Y0130870D02*
X0154957Y0130870D01*
X0154957Y0131469D02*
X0155507Y0131469D01*
X0155507Y0132067D02*
X0154957Y0132067D01*
X0154957Y0132666D02*
X0155507Y0132666D01*
X0155507Y0133264D02*
X0154957Y0133264D01*
X0154464Y0133863D02*
X0156001Y0133863D01*
X0170212Y0133863D02*
X0201231Y0133863D01*
X0201231Y0134461D02*
X0080646Y0134461D01*
X0080646Y0134577D02*
X0080558Y0134907D01*
X0080387Y0135204D01*
X0080145Y0135446D01*
X0079848Y0135617D01*
X0079518Y0135705D01*
X0077146Y0135705D01*
X0077146Y0129706D01*
X0076546Y0129706D01*
X0076546Y0135705D01*
X0074175Y0135705D01*
X0073845Y0135617D01*
X0073548Y0135446D01*
X0073306Y0135204D01*
X0073135Y0134907D01*
X0073046Y0134577D01*
X0073046Y0129705D01*
X0076546Y0129705D01*
X0076546Y0129106D01*
X0073046Y0129106D01*
X0073046Y0124234D01*
X0073135Y0123904D01*
X0073306Y0123607D01*
X0073548Y0123365D01*
X0073845Y0123194D01*
X0074175Y0123106D01*
X0076546Y0123106D01*
X0076546Y0129105D01*
X0077146Y0129105D01*
X0077146Y0129106D02*
X0077146Y0129705D01*
X0080646Y0129705D01*
X0080646Y0134577D01*
X0080470Y0135060D02*
X0201231Y0135060D01*
X0201231Y0135658D02*
X0079694Y0135658D01*
X0080646Y0133863D02*
X0088284Y0133863D01*
X0088106Y0133264D02*
X0080646Y0133264D01*
X0080646Y0132666D02*
X0088106Y0132666D01*
X0088106Y0132067D02*
X0080646Y0132067D01*
X0080646Y0131469D02*
X0088106Y0131469D01*
X0088106Y0130870D02*
X0080646Y0130870D01*
X0080646Y0130272D02*
X0088106Y0130272D01*
X0088106Y0129673D02*
X0077146Y0129673D01*
X0077146Y0129075D02*
X0076546Y0129075D01*
X0076546Y0129673D02*
X0068835Y0129673D01*
X0068835Y0129075D02*
X0073046Y0129075D01*
X0073046Y0128476D02*
X0068835Y0128476D01*
X0068835Y0127878D02*
X0073046Y0127878D01*
X0073046Y0127279D02*
X0068835Y0127279D01*
X0068835Y0126681D02*
X0073046Y0126681D01*
X0073046Y0126082D02*
X0068835Y0126082D01*
X0068835Y0125484D02*
X0073046Y0125484D01*
X0073046Y0124885D02*
X0068835Y0124885D01*
X0068835Y0124287D02*
X0073046Y0124287D01*
X0073260Y0123688D02*
X0068656Y0123688D01*
X0067883Y0123090D02*
X0079523Y0123090D01*
X0078924Y0122491D02*
X0076420Y0122491D01*
X0077002Y0121893D02*
X0078326Y0121893D01*
X0078261Y0121294D02*
X0077123Y0121294D01*
X0077123Y0120695D02*
X0078261Y0120695D01*
X0078261Y0120097D02*
X0077123Y0120097D01*
X0077123Y0119498D02*
X0078261Y0119498D01*
X0078261Y0118900D02*
X0077123Y0118900D01*
X0077123Y0117703D02*
X0077672Y0117703D01*
X0078261Y0118301D02*
X0073564Y0118301D01*
X0073564Y0118900D02*
X0072964Y0118900D01*
X0072964Y0119498D02*
X0073564Y0119498D01*
X0073564Y0120097D02*
X0072964Y0120097D01*
X0072964Y0120695D02*
X0073564Y0120695D01*
X0073564Y0121294D02*
X0072964Y0121294D01*
X0072964Y0121893D02*
X0073564Y0121893D01*
X0073564Y0122491D02*
X0072964Y0122491D01*
X0070108Y0122491D02*
X0069025Y0122491D01*
X0063683Y0123090D02*
X0060430Y0123090D01*
X0060430Y0123688D02*
X0061414Y0123688D01*
X0061235Y0124287D02*
X0060430Y0124287D01*
X0060430Y0124885D02*
X0061235Y0124885D01*
X0061235Y0125484D02*
X0060430Y0125484D01*
X0060430Y0126082D02*
X0061235Y0126082D01*
X0061235Y0126681D02*
X0060150Y0126681D01*
X0060023Y0127279D02*
X0061235Y0127279D01*
X0061235Y0127878D02*
X0060430Y0127878D01*
X0060430Y0128476D02*
X0061235Y0128476D01*
X0061235Y0129075D02*
X0060430Y0129075D01*
X0060430Y0129673D02*
X0061235Y0129673D01*
X0061235Y0130272D02*
X0060430Y0130272D01*
X0060430Y0130870D02*
X0061235Y0130870D01*
X0061235Y0131469D02*
X0060430Y0131469D01*
X0060430Y0132067D02*
X0061235Y0132067D01*
X0061235Y0132666D02*
X0060430Y0132666D01*
X0060259Y0133264D02*
X0061235Y0133264D01*
X0068121Y0135658D02*
X0073999Y0135658D01*
X0073223Y0135060D02*
X0068720Y0135060D01*
X0068835Y0134461D02*
X0073046Y0134461D01*
X0073046Y0133863D02*
X0068835Y0133863D01*
X0068835Y0133264D02*
X0073046Y0133264D01*
X0073046Y0132666D02*
X0068835Y0132666D01*
X0068835Y0132067D02*
X0073046Y0132067D01*
X0073046Y0131469D02*
X0068835Y0131469D01*
X0068835Y0130870D02*
X0073046Y0130870D01*
X0073046Y0130272D02*
X0068835Y0130272D01*
X0076546Y0130272D02*
X0077146Y0130272D01*
X0077146Y0130870D02*
X0076546Y0130870D01*
X0076546Y0131469D02*
X0077146Y0131469D01*
X0077146Y0132067D02*
X0076546Y0132067D01*
X0076546Y0132666D02*
X0077146Y0132666D01*
X0077146Y0133264D02*
X0076546Y0133264D01*
X0076546Y0133863D02*
X0077146Y0133863D01*
X0077146Y0134461D02*
X0076546Y0134461D01*
X0076546Y0135060D02*
X0077146Y0135060D01*
X0077146Y0135658D02*
X0076546Y0135658D01*
X0076546Y0128476D02*
X0077146Y0128476D01*
X0077146Y0127878D02*
X0076546Y0127878D01*
X0076546Y0127279D02*
X0077146Y0127279D01*
X0077146Y0126681D02*
X0076546Y0126681D01*
X0076546Y0126082D02*
X0077146Y0126082D01*
X0077146Y0125484D02*
X0076546Y0125484D01*
X0076546Y0124885D02*
X0077146Y0124885D01*
X0077146Y0124287D02*
X0076546Y0124287D01*
X0076546Y0123688D02*
X0077146Y0123688D01*
X0080646Y0124287D02*
X0080720Y0124287D01*
X0080646Y0124885D02*
X0081255Y0124885D01*
X0080646Y0125484D02*
X0084167Y0125484D01*
X0084765Y0126082D02*
X0080646Y0126082D01*
X0080646Y0126681D02*
X0085364Y0126681D01*
X0085962Y0127279D02*
X0080646Y0127279D01*
X0080646Y0127878D02*
X0086561Y0127878D01*
X0087159Y0128476D02*
X0080646Y0128476D01*
X0080646Y0129075D02*
X0087758Y0129075D01*
X0090107Y0125484D02*
X0105545Y0125484D01*
X0106144Y0126082D02*
X0102598Y0126082D01*
X0103182Y0126681D02*
X0106742Y0126681D01*
X0107341Y0127279D02*
X0103304Y0127279D01*
X0103304Y0127878D02*
X0107939Y0127878D01*
X0108263Y0128476D02*
X0103304Y0128476D01*
X0103304Y0129075D02*
X0108263Y0129075D01*
X0108263Y0129673D02*
X0103304Y0129673D01*
X0099745Y0130870D02*
X0099145Y0130870D01*
X0099145Y0131469D02*
X0099745Y0131469D01*
X0099745Y0132067D02*
X0099145Y0132067D01*
X0099145Y0132666D02*
X0099745Y0132666D01*
X0099745Y0133264D02*
X0099145Y0133264D01*
X0099145Y0133863D02*
X0099745Y0133863D01*
X0095799Y0133863D02*
X0095645Y0133863D01*
X0091790Y0117703D02*
X0088139Y0117703D01*
X0088092Y0117104D02*
X0091192Y0117104D01*
X0091098Y0116506D02*
X0088185Y0116506D01*
X0088185Y0115907D02*
X0091098Y0115907D01*
X0091098Y0115309D02*
X0088185Y0115309D01*
X0088185Y0114710D02*
X0091098Y0114710D01*
X0091098Y0114112D02*
X0088185Y0114112D01*
X0087930Y0113513D02*
X0091353Y0113513D01*
X0085171Y0112915D02*
X0098369Y0112915D01*
X0098369Y0113513D02*
X0098167Y0113513D01*
X0103162Y0102142D02*
X0124485Y0102142D01*
X0123887Y0101543D02*
X0103653Y0101543D01*
X0103737Y0100945D02*
X0123288Y0100945D01*
X0122690Y0100346D02*
X0103737Y0100346D01*
X0103737Y0099748D02*
X0122091Y0099748D01*
X0100469Y0092201D02*
X0101638Y0088264D01*
X0099681Y0083736D01*
X0102950Y0083588D02*
X0105032Y0083588D01*
X0105799Y0082989D02*
X0102950Y0082989D01*
X0102950Y0082391D02*
X0106567Y0082391D01*
X0107334Y0081792D02*
X0102950Y0081792D01*
X0102914Y0081194D02*
X0108101Y0081194D01*
X0108869Y0080595D02*
X0102316Y0080595D01*
X0102950Y0084186D02*
X0104264Y0084186D01*
X0103497Y0084785D02*
X0102950Y0084785D01*
X0109468Y0084186D02*
X0109691Y0084186D01*
X0109636Y0079997D02*
X0086820Y0079997D01*
X0086820Y0079398D02*
X0110404Y0079398D01*
X0111171Y0078800D02*
X0086820Y0078800D01*
X0086820Y0078201D02*
X0087539Y0078201D01*
X0080882Y0079569D02*
X0080882Y0059327D01*
X0078323Y0059327D02*
X0078323Y0054569D01*
X0080652Y0052240D01*
X0078252Y0051268D02*
X0076144Y0051268D01*
X0075546Y0051867D02*
X0078063Y0051867D01*
X0078063Y0052465D02*
X0074947Y0052465D01*
X0074349Y0053064D02*
X0077566Y0053064D01*
X0076967Y0053662D02*
X0074313Y0053662D01*
X0074313Y0054261D02*
X0076723Y0054261D01*
X0076723Y0054859D02*
X0074313Y0054859D01*
X0072713Y0052436D02*
X0072713Y0060150D01*
X0071883Y0060981D01*
X0069917Y0060981D01*
X0069760Y0061098D01*
X0069760Y0063067D02*
X0071886Y0063028D01*
X0076846Y0067988D01*
X0072713Y0067873D02*
X0072713Y0071729D01*
X0076846Y0075862D01*
X0078767Y0077603D02*
X0079190Y0077603D01*
X0079176Y0077004D02*
X0079282Y0077004D01*
X0078589Y0078201D02*
X0077965Y0078201D01*
X0080652Y0079799D02*
X0080882Y0079569D01*
X0087345Y0083588D02*
X0090113Y0083588D01*
X0090113Y0084186D02*
X0087944Y0084186D01*
X0088542Y0084785D02*
X0090113Y0084785D01*
X0090113Y0085383D02*
X0089141Y0085383D01*
X0089739Y0085982D02*
X0090113Y0085982D01*
X0090338Y0086580D02*
X0090451Y0086580D01*
X0096016Y0080595D02*
X0097047Y0080595D01*
X0101589Y0077004D02*
X0113473Y0077004D01*
X0114241Y0076406D02*
X0102188Y0076406D01*
X0102068Y0076525D02*
X0102068Y0076525D01*
X0102786Y0075807D02*
X0115008Y0075807D01*
X0114789Y0074987D02*
X0114459Y0075076D01*
X0112225Y0075076D01*
X0112225Y0070139D01*
X0111625Y0070139D01*
X0111625Y0075076D01*
X0109392Y0075076D01*
X0109061Y0074987D01*
X0108765Y0074816D01*
X0108523Y0074574D01*
X0108352Y0074277D01*
X0108263Y0073947D01*
X0108263Y0070139D01*
X0111625Y0070139D01*
X0111625Y0069539D01*
X0112225Y0069539D01*
X0112225Y0070139D01*
X0115587Y0070139D01*
X0115587Y0073947D01*
X0115499Y0074277D01*
X0115328Y0074574D01*
X0115086Y0074816D01*
X0114789Y0074987D01*
X0115291Y0074610D02*
X0116433Y0074610D01*
X0116137Y0074012D02*
X0115570Y0074012D01*
X0115587Y0073413D02*
X0116137Y0073413D01*
X0116137Y0072815D02*
X0115587Y0072815D01*
X0115587Y0072216D02*
X0116137Y0072216D01*
X0116137Y0071618D02*
X0115587Y0071618D01*
X0115587Y0071019D02*
X0116137Y0071019D01*
X0116137Y0070421D02*
X0115587Y0070421D01*
X0116137Y0069822D02*
X0112225Y0069822D01*
X0112225Y0069539D02*
X0115587Y0069539D01*
X0115587Y0065730D01*
X0115499Y0065400D01*
X0115328Y0065103D01*
X0115086Y0064861D01*
X0114789Y0064690D01*
X0114459Y0064602D01*
X0112225Y0064602D01*
X0112225Y0069539D01*
X0112225Y0069224D02*
X0111625Y0069224D01*
X0111625Y0069822D02*
X0106005Y0069822D01*
X0106005Y0069224D02*
X0108263Y0069224D01*
X0108263Y0068625D02*
X0106031Y0068625D01*
X0106005Y0070421D02*
X0108263Y0070421D01*
X0108263Y0071019D02*
X0106005Y0071019D01*
X0106005Y0071618D02*
X0108263Y0071618D01*
X0108263Y0072216D02*
X0106005Y0072216D01*
X0105779Y0072815D02*
X0108263Y0072815D01*
X0108263Y0073413D02*
X0105180Y0073413D01*
X0104582Y0074012D02*
X0108280Y0074012D01*
X0108559Y0074610D02*
X0103983Y0074610D01*
X0103385Y0075209D02*
X0115776Y0075209D01*
X0112225Y0074610D02*
X0111625Y0074610D01*
X0111625Y0074012D02*
X0112225Y0074012D01*
X0112225Y0073413D02*
X0111625Y0073413D01*
X0111625Y0072815D02*
X0112225Y0072815D01*
X0112225Y0072216D02*
X0111625Y0072216D01*
X0111625Y0071618D02*
X0112225Y0071618D01*
X0112225Y0071019D02*
X0111625Y0071019D01*
X0111625Y0070421D02*
X0112225Y0070421D01*
X0112225Y0068625D02*
X0111625Y0068625D01*
X0111625Y0068026D02*
X0112225Y0068026D01*
X0112225Y0067428D02*
X0111625Y0067428D01*
X0111625Y0066829D02*
X0112225Y0066829D01*
X0112225Y0066231D02*
X0111625Y0066231D01*
X0111625Y0065632D02*
X0112225Y0065632D01*
X0112225Y0065034D02*
X0111625Y0065034D01*
X0108458Y0064435D02*
X0126149Y0064435D01*
X0125551Y0063837D02*
X0107860Y0063837D01*
X0108029Y0068026D02*
X0108263Y0068026D01*
X0115587Y0068026D02*
X0116137Y0068026D01*
X0116137Y0067428D02*
X0115587Y0067428D01*
X0115587Y0066829D02*
X0116137Y0066829D01*
X0116137Y0066231D02*
X0115587Y0066231D01*
X0115561Y0065632D02*
X0116137Y0065632D01*
X0116466Y0065034D02*
X0115258Y0065034D01*
X0115587Y0068625D02*
X0116137Y0068625D01*
X0116137Y0069224D02*
X0115587Y0069224D01*
X0119524Y0070113D02*
X0119799Y0069839D01*
X0119524Y0070113D02*
X0119524Y0074314D01*
X0101638Y0088264D01*
X0118677Y0077004D02*
X0132312Y0077004D01*
X0131714Y0076406D02*
X0119444Y0076406D01*
X0120294Y0075807D02*
X0131115Y0075807D01*
X0130517Y0075209D02*
X0120979Y0075209D01*
X0123165Y0074610D02*
X0124307Y0074610D01*
X0124011Y0074012D02*
X0123461Y0074012D01*
X0123461Y0073413D02*
X0124011Y0073413D01*
X0124011Y0072815D02*
X0123461Y0072815D01*
X0123461Y0072216D02*
X0124011Y0072216D01*
X0124011Y0071618D02*
X0123461Y0071618D01*
X0123461Y0071019D02*
X0124011Y0071019D01*
X0124011Y0070421D02*
X0123461Y0070421D01*
X0123461Y0069822D02*
X0124011Y0069822D01*
X0124011Y0069224D02*
X0123461Y0069224D01*
X0123461Y0068625D02*
X0124011Y0068625D01*
X0124011Y0068026D02*
X0123461Y0068026D01*
X0123461Y0067428D02*
X0124011Y0067428D01*
X0124011Y0066829D02*
X0123461Y0066829D01*
X0123461Y0066231D02*
X0124011Y0066231D01*
X0124011Y0065632D02*
X0123461Y0065632D01*
X0123132Y0065034D02*
X0124340Y0065034D01*
X0124952Y0063238D02*
X0099600Y0063238D01*
X0100198Y0062640D02*
X0123423Y0062640D01*
X0122356Y0062041D02*
X0100797Y0062041D01*
X0101395Y0061443D02*
X0121839Y0061443D01*
X0122093Y0058450D02*
X0105584Y0058450D01*
X0106351Y0057852D02*
X0122787Y0057852D01*
X0125394Y0057852D02*
X0139838Y0057852D01*
X0139240Y0058450D02*
X0126088Y0058450D01*
X0130574Y0064602D02*
X0131335Y0065363D01*
X0143106Y0056177D02*
X0146256Y0053028D01*
X0150556Y0053028D01*
X0152651Y0055458D02*
X0155113Y0055458D01*
X0155113Y0056056D02*
X0152053Y0056056D01*
X0151454Y0056655D02*
X0155446Y0056655D01*
X0155113Y0054859D02*
X0153250Y0054859D01*
X0143106Y0056177D02*
X0116217Y0056177D01*
X0112280Y0052240D01*
X0092594Y0052240D01*
X0091118Y0053717D01*
X0091118Y0059327D01*
X0086570Y0058757D02*
X0086000Y0059327D01*
X0082370Y0050071D02*
X0082144Y0050071D01*
X0082370Y0049473D02*
X0079164Y0049473D01*
X0079160Y0050071D02*
X0078740Y0050071D01*
X0078561Y0050670D02*
X0077898Y0050670D01*
X0079412Y0048874D02*
X0082370Y0048874D01*
X0082745Y0048276D02*
X0079435Y0048276D01*
X0079389Y0047677D02*
X0083344Y0047677D01*
X0083942Y0047079D02*
X0079142Y0047079D01*
X0078685Y0046480D02*
X0084541Y0046480D01*
X0085139Y0045882D02*
X0077766Y0045882D01*
X0075927Y0045882D02*
X0070572Y0045882D01*
X0070572Y0046480D02*
X0075008Y0046480D01*
X0074551Y0047079D02*
X0070572Y0047079D01*
X0070572Y0047677D02*
X0074303Y0047677D01*
X0074257Y0048276D02*
X0070572Y0048276D01*
X0070572Y0048874D02*
X0074013Y0048874D01*
X0073414Y0049473D02*
X0070572Y0049473D01*
X0070572Y0050071D02*
X0072816Y0050071D01*
X0072217Y0050670D02*
X0070572Y0050670D01*
X0070572Y0051268D02*
X0071619Y0051268D01*
X0071113Y0051867D02*
X0070572Y0051867D01*
X0070572Y0052465D02*
X0071113Y0052465D01*
X0071113Y0053064D02*
X0070572Y0053064D01*
X0070572Y0053662D02*
X0071113Y0053662D01*
X0071113Y0054261D02*
X0070572Y0054261D01*
X0070572Y0054859D02*
X0071113Y0054859D01*
X0071113Y0055458D02*
X0070572Y0055458D01*
X0070572Y0056056D02*
X0071113Y0056056D01*
X0071113Y0056655D02*
X0070572Y0056655D01*
X0068972Y0058343D02*
X0068972Y0040429D01*
X0067172Y0042291D02*
X0064761Y0042291D01*
X0064761Y0042030D02*
X0064761Y0044263D01*
X0061398Y0044263D01*
X0061398Y0040901D01*
X0063632Y0040901D01*
X0063962Y0040989D01*
X0064259Y0041161D01*
X0064501Y0041403D01*
X0064672Y0041699D01*
X0064761Y0042030D01*
X0064668Y0041692D02*
X0066693Y0041692D01*
X0066445Y0041093D02*
X0064143Y0041093D01*
X0064060Y0039896D02*
X0066391Y0039896D01*
X0066383Y0040495D02*
X0035854Y0040495D01*
X0035175Y0040776D02*
X0038196Y0039525D01*
X0040509Y0037212D01*
X0041761Y0034190D01*
X0041761Y0030920D01*
X0040509Y0027898D01*
X0038196Y0025585D01*
X0035175Y0024334D01*
X0031904Y0024334D01*
X0028882Y0025585D01*
X0028043Y0026425D01*
X0028028Y0026434D01*
X0028011Y0026457D01*
X0026570Y0027898D01*
X0026047Y0029160D01*
X0026014Y0029205D01*
X0026000Y0029274D01*
X0025318Y0030920D01*
X0025318Y0032481D01*
X0025302Y0032555D01*
X0025318Y0032629D01*
X0025318Y0034190D01*
X0026000Y0035836D01*
X0026014Y0035905D01*
X0026047Y0035950D01*
X0026570Y0037212D01*
X0028011Y0038653D01*
X0028028Y0038676D01*
X0028043Y0038685D01*
X0028882Y0039525D01*
X0031904Y0040776D01*
X0035175Y0040776D01*
X0037299Y0039896D02*
X0058137Y0039896D01*
X0057538Y0039298D02*
X0038423Y0039298D01*
X0039022Y0038699D02*
X0057436Y0038699D01*
X0057436Y0038101D02*
X0039620Y0038101D01*
X0040219Y0037502D02*
X0057436Y0037502D01*
X0057436Y0036904D02*
X0040637Y0036904D01*
X0040885Y0036305D02*
X0057436Y0036305D01*
X0057436Y0035707D02*
X0041132Y0035707D01*
X0041380Y0035108D02*
X0057436Y0035108D01*
X0057436Y0034510D02*
X0041628Y0034510D01*
X0041761Y0033911D02*
X0057436Y0033911D01*
X0057518Y0033313D02*
X0041761Y0033313D01*
X0041761Y0032714D02*
X0058116Y0032714D01*
X0061098Y0036295D02*
X0065823Y0036295D01*
X0073500Y0028618D01*
X0070035Y0028525D02*
X0040769Y0028525D01*
X0041016Y0029123D02*
X0070035Y0029123D01*
X0070035Y0029722D02*
X0041264Y0029722D01*
X0041512Y0030320D02*
X0069535Y0030320D01*
X0068937Y0030919D02*
X0041760Y0030919D01*
X0041761Y0031517D02*
X0068338Y0031517D01*
X0067740Y0032116D02*
X0041761Y0032116D01*
X0040521Y0027926D02*
X0070035Y0027926D01*
X0070035Y0027328D02*
X0039939Y0027328D01*
X0039340Y0026729D02*
X0070035Y0026729D01*
X0070035Y0026131D02*
X0038742Y0026131D01*
X0038068Y0025532D02*
X0070614Y0025532D01*
X0076386Y0025532D02*
X0077306Y0025532D01*
X0080193Y0028618D02*
X0080193Y0029732D01*
X0076334Y0033591D01*
X0076334Y0036709D01*
X0075764Y0037280D01*
X0073775Y0037502D02*
X0066878Y0037502D01*
X0067477Y0036904D02*
X0073775Y0036904D01*
X0073775Y0036305D02*
X0068075Y0036305D01*
X0068674Y0035707D02*
X0073775Y0035707D01*
X0073775Y0035108D02*
X0069272Y0035108D01*
X0069871Y0034510D02*
X0073775Y0034510D01*
X0073775Y0033911D02*
X0070469Y0033911D01*
X0071068Y0033313D02*
X0074053Y0033313D01*
X0074948Y0032714D02*
X0071667Y0032714D01*
X0072265Y0032116D02*
X0075547Y0032116D01*
X0079474Y0032714D02*
X0091577Y0032714D01*
X0091577Y0032116D02*
X0080072Y0032116D01*
X0083266Y0031517D02*
X0091577Y0031517D01*
X0091685Y0030919D02*
X0083658Y0030919D01*
X0083658Y0030320D02*
X0092284Y0030320D01*
X0092882Y0029722D02*
X0083658Y0029722D01*
X0083658Y0029123D02*
X0093481Y0029123D01*
X0093655Y0028525D02*
X0083658Y0028525D01*
X0083658Y0027926D02*
X0094254Y0027926D01*
X0094852Y0027328D02*
X0083658Y0027328D01*
X0083658Y0026729D02*
X0095451Y0026729D01*
X0096049Y0026131D02*
X0083658Y0026131D01*
X0083079Y0025532D02*
X0096648Y0025532D01*
X0097246Y0024934D02*
X0036623Y0024934D01*
X0035178Y0024335D02*
X0097845Y0024335D01*
X0098443Y0023737D02*
X0023328Y0023737D01*
X0023328Y0024335D02*
X0031901Y0024335D01*
X0030456Y0024934D02*
X0023328Y0024934D01*
X0023328Y0025532D02*
X0029011Y0025532D01*
X0028337Y0026131D02*
X0023328Y0026131D01*
X0023328Y0026729D02*
X0027739Y0026729D01*
X0027140Y0027328D02*
X0023328Y0027328D01*
X0023328Y0027926D02*
X0026558Y0027926D01*
X0026310Y0028525D02*
X0023328Y0028525D01*
X0023328Y0029123D02*
X0026062Y0029123D01*
X0025814Y0029722D02*
X0023328Y0029722D01*
X0023328Y0030320D02*
X0025566Y0030320D01*
X0025319Y0030919D02*
X0023328Y0030919D01*
X0023328Y0031517D02*
X0025318Y0031517D01*
X0025318Y0032116D02*
X0023328Y0032116D01*
X0023328Y0032714D02*
X0025318Y0032714D01*
X0025318Y0033313D02*
X0023328Y0033313D01*
X0023328Y0033911D02*
X0025318Y0033911D01*
X0025450Y0034510D02*
X0023328Y0034510D01*
X0023328Y0035108D02*
X0025698Y0035108D01*
X0025946Y0035707D02*
X0023328Y0035707D01*
X0023328Y0036305D02*
X0026194Y0036305D01*
X0026442Y0036904D02*
X0023328Y0036904D01*
X0023328Y0037502D02*
X0026860Y0037502D01*
X0027459Y0038101D02*
X0023328Y0038101D01*
X0023328Y0038699D02*
X0028057Y0038699D01*
X0028656Y0039298D02*
X0023328Y0039298D01*
X0023328Y0039896D02*
X0029780Y0039896D01*
X0031225Y0040495D02*
X0023328Y0040495D01*
X0023328Y0041093D02*
X0058054Y0041093D01*
X0057938Y0041161D02*
X0058234Y0040989D01*
X0058565Y0040901D01*
X0060798Y0040901D01*
X0060798Y0044263D01*
X0057436Y0044263D01*
X0057436Y0042030D01*
X0057525Y0041699D01*
X0057696Y0041403D01*
X0057938Y0041161D01*
X0057529Y0041692D02*
X0023328Y0041692D01*
X0023328Y0042291D02*
X0057436Y0042291D01*
X0057436Y0042889D02*
X0023328Y0042889D01*
X0023328Y0043488D02*
X0057436Y0043488D01*
X0057436Y0044086D02*
X0023328Y0044086D01*
X0023328Y0044685D02*
X0060798Y0044685D01*
X0060798Y0044863D02*
X0060798Y0044263D01*
X0061398Y0044263D01*
X0061398Y0044863D01*
X0060798Y0044863D01*
X0057436Y0044863D01*
X0057436Y0047096D01*
X0057525Y0047427D01*
X0057696Y0047723D01*
X0057938Y0047965D01*
X0058234Y0048137D01*
X0058565Y0048225D01*
X0060798Y0048225D01*
X0060798Y0044863D01*
X0060798Y0045283D02*
X0061398Y0045283D01*
X0061398Y0044863D02*
X0061398Y0048225D01*
X0063632Y0048225D01*
X0063962Y0048137D01*
X0064259Y0047965D01*
X0064501Y0047723D01*
X0064672Y0047427D01*
X0064761Y0047096D01*
X0064761Y0044863D01*
X0061398Y0044863D01*
X0061398Y0044685D02*
X0067372Y0044685D01*
X0067372Y0045283D02*
X0064761Y0045283D01*
X0064761Y0045882D02*
X0067372Y0045882D01*
X0067372Y0046480D02*
X0064761Y0046480D01*
X0064761Y0047079D02*
X0067372Y0047079D01*
X0067372Y0047677D02*
X0064528Y0047677D01*
X0061398Y0047677D02*
X0060798Y0047677D01*
X0060798Y0047079D02*
X0061398Y0047079D01*
X0061398Y0046480D02*
X0060798Y0046480D01*
X0060798Y0045882D02*
X0061398Y0045882D01*
X0061398Y0044086D02*
X0060798Y0044086D01*
X0060798Y0043488D02*
X0061398Y0043488D01*
X0061398Y0042889D02*
X0060798Y0042889D01*
X0060798Y0042291D02*
X0061398Y0042291D01*
X0061398Y0041692D02*
X0060798Y0041692D01*
X0060798Y0041093D02*
X0061398Y0041093D01*
X0064659Y0039298D02*
X0066639Y0039298D01*
X0067041Y0038699D02*
X0064761Y0038699D01*
X0064761Y0038101D02*
X0067828Y0038101D01*
X0070117Y0038101D02*
X0073775Y0038101D01*
X0073775Y0038699D02*
X0070904Y0038699D01*
X0071306Y0039298D02*
X0073775Y0039298D01*
X0073775Y0039896D02*
X0071554Y0039896D01*
X0071561Y0040495D02*
X0073775Y0040495D01*
X0073901Y0041093D02*
X0071500Y0041093D01*
X0071252Y0041692D02*
X0074499Y0041692D01*
X0077028Y0041692D02*
X0077058Y0041692D01*
X0079587Y0041692D02*
X0079617Y0041692D01*
X0082146Y0041692D02*
X0082176Y0041692D01*
X0084706Y0041692D02*
X0084735Y0041692D01*
X0086336Y0044685D02*
X0070572Y0044685D01*
X0070572Y0045283D02*
X0085738Y0045283D01*
X0087726Y0044086D02*
X0070572Y0044086D01*
X0070572Y0043488D02*
X0088324Y0043488D01*
X0088923Y0042889D02*
X0070572Y0042889D01*
X0070772Y0042291D02*
X0089521Y0042291D01*
X0089824Y0041692D02*
X0089854Y0041692D01*
X0087294Y0041692D02*
X0087265Y0041692D01*
X0095777Y0038699D02*
X0102155Y0038699D01*
X0102754Y0038101D02*
X0095777Y0038101D01*
X0095777Y0037502D02*
X0112232Y0037502D01*
X0111633Y0036904D02*
X0095777Y0036904D01*
X0095777Y0036305D02*
X0109393Y0036305D01*
X0108795Y0035707D02*
X0095777Y0035707D01*
X0095777Y0035108D02*
X0108196Y0035108D01*
X0109602Y0034251D02*
X0109602Y0032609D01*
X0108343Y0031350D01*
X0109602Y0034251D02*
X0110363Y0035013D01*
X0112005Y0035013D01*
X0116217Y0039224D01*
X0116217Y0040429D01*
X0118017Y0042291D02*
X0120428Y0042291D01*
X0112083Y0041634D02*
X0111075Y0041634D01*
X0108343Y0044366D01*
X0108754Y0041692D02*
X0107083Y0041692D01*
X0107083Y0041093D02*
X0109352Y0041093D01*
X0109602Y0040495D02*
X0107083Y0040495D01*
X0107083Y0039896D02*
X0109602Y0039896D01*
X0109602Y0039298D02*
X0107083Y0039298D01*
X0107050Y0038699D02*
X0109635Y0038699D01*
X0110234Y0038101D02*
X0106451Y0038101D01*
X0103936Y0040968D02*
X0104602Y0041634D01*
X0102380Y0034510D02*
X0095777Y0034510D01*
X0095777Y0033911D02*
X0102121Y0033911D01*
X0102121Y0033313D02*
X0095777Y0033313D01*
X0095829Y0032714D02*
X0102121Y0032714D01*
X0102121Y0032116D02*
X0096428Y0032116D01*
X0097026Y0031517D02*
X0102121Y0031517D01*
X0102121Y0030919D02*
X0097625Y0030919D01*
X0097799Y0030320D02*
X0102121Y0030320D01*
X0102121Y0029722D02*
X0098398Y0029722D01*
X0098996Y0029123D02*
X0102121Y0029123D01*
X0102121Y0028525D02*
X0099595Y0028525D01*
X0100193Y0027926D02*
X0102645Y0027926D01*
X0100792Y0027328D02*
X0115893Y0027328D01*
X0099042Y0023138D02*
X0023328Y0023138D01*
X0044076Y0017895D02*
X0046209Y0017895D01*
X0046283Y0017893D01*
X0046358Y0017887D01*
X0046431Y0017877D01*
X0046505Y0017864D01*
X0046577Y0017847D01*
X0046648Y0017825D01*
X0046719Y0017801D01*
X0046787Y0017772D01*
X0046855Y0017740D01*
X0046920Y0017704D01*
X0046983Y0017666D01*
X0047045Y0017623D01*
X0047104Y0017578D01*
X0047161Y0017530D01*
X0047215Y0017479D01*
X0047266Y0017425D01*
X0047314Y0017368D01*
X0047359Y0017309D01*
X0047402Y0017247D01*
X0047440Y0017184D01*
X0047476Y0017119D01*
X0047508Y0017051D01*
X0047537Y0016983D01*
X0047561Y0016912D01*
X0047583Y0016841D01*
X0047600Y0016769D01*
X0047613Y0016695D01*
X0047623Y0016622D01*
X0047629Y0016547D01*
X0047631Y0016473D01*
X0047629Y0016399D01*
X0047623Y0016324D01*
X0047613Y0016251D01*
X0047600Y0016177D01*
X0047583Y0016105D01*
X0047561Y0016034D01*
X0047537Y0015963D01*
X0047508Y0015895D01*
X0047476Y0015827D01*
X0047440Y0015762D01*
X0047402Y0015699D01*
X0047359Y0015637D01*
X0047314Y0015578D01*
X0047266Y0015521D01*
X0047215Y0015467D01*
X0047161Y0015416D01*
X0047104Y0015368D01*
X0047045Y0015323D01*
X0046983Y0015280D01*
X0046920Y0015242D01*
X0046855Y0015206D01*
X0046787Y0015174D01*
X0046719Y0015145D01*
X0046648Y0015121D01*
X0046577Y0015099D01*
X0046505Y0015082D01*
X0046431Y0015069D01*
X0046358Y0015059D01*
X0046283Y0015053D01*
X0046209Y0015051D01*
X0046209Y0015050D02*
X0044787Y0015050D01*
X0045853Y0015051D02*
X0045936Y0015049D01*
X0046019Y0015043D01*
X0046102Y0015033D01*
X0046185Y0015020D01*
X0046266Y0015002D01*
X0046347Y0014981D01*
X0046426Y0014956D01*
X0046504Y0014927D01*
X0046581Y0014895D01*
X0046656Y0014859D01*
X0046730Y0014820D01*
X0046801Y0014777D01*
X0046871Y0014731D01*
X0046938Y0014681D01*
X0047003Y0014629D01*
X0047065Y0014574D01*
X0047125Y0014515D01*
X0047182Y0014454D01*
X0047236Y0014391D01*
X0047287Y0014325D01*
X0047334Y0014256D01*
X0047379Y0014186D01*
X0047420Y0014113D01*
X0047457Y0014039D01*
X0047492Y0013963D01*
X0047522Y0013885D01*
X0047549Y0013807D01*
X0047572Y0013726D01*
X0047592Y0013645D01*
X0047607Y0013563D01*
X0047619Y0013481D01*
X0047627Y0013398D01*
X0047631Y0013315D01*
X0047631Y0013231D01*
X0047627Y0013148D01*
X0047619Y0013065D01*
X0047607Y0012983D01*
X0047592Y0012901D01*
X0047572Y0012820D01*
X0047549Y0012739D01*
X0047522Y0012661D01*
X0047492Y0012583D01*
X0047457Y0012507D01*
X0047420Y0012433D01*
X0047379Y0012360D01*
X0047334Y0012290D01*
X0047287Y0012221D01*
X0047236Y0012155D01*
X0047182Y0012092D01*
X0047125Y0012031D01*
X0047065Y0011972D01*
X0047003Y0011917D01*
X0046938Y0011865D01*
X0046871Y0011815D01*
X0046801Y0011769D01*
X0046730Y0011726D01*
X0046656Y0011687D01*
X0046581Y0011651D01*
X0046504Y0011619D01*
X0046426Y0011590D01*
X0046347Y0011565D01*
X0046266Y0011544D01*
X0046185Y0011526D01*
X0046102Y0011513D01*
X0046019Y0011503D01*
X0045936Y0011497D01*
X0045853Y0011495D01*
X0044076Y0011495D01*
X0049983Y0011495D02*
X0050339Y0011495D01*
X0050339Y0011850D01*
X0049983Y0011850D01*
X0049983Y0011495D01*
X0053047Y0012917D02*
X0055891Y0016473D01*
X0055714Y0017006D02*
X0055689Y0017072D01*
X0055661Y0017137D01*
X0055629Y0017201D01*
X0055594Y0017262D01*
X0055555Y0017322D01*
X0055514Y0017380D01*
X0055469Y0017435D01*
X0055421Y0017487D01*
X0055371Y0017537D01*
X0055318Y0017585D01*
X0055263Y0017629D01*
X0055205Y0017670D01*
X0055145Y0017708D01*
X0055083Y0017743D01*
X0055019Y0017774D01*
X0054954Y0017802D01*
X0054887Y0017827D01*
X0054820Y0017847D01*
X0054751Y0017864D01*
X0054681Y0017878D01*
X0054611Y0017887D01*
X0054540Y0017893D01*
X0054469Y0017895D01*
X0054398Y0017893D01*
X0054327Y0017887D01*
X0054257Y0017878D01*
X0054187Y0017864D01*
X0054118Y0017847D01*
X0054051Y0017827D01*
X0053984Y0017802D01*
X0053919Y0017774D01*
X0053855Y0017743D01*
X0053793Y0017708D01*
X0053733Y0017670D01*
X0053675Y0017629D01*
X0053620Y0017585D01*
X0053567Y0017537D01*
X0053517Y0017487D01*
X0053469Y0017435D01*
X0053424Y0017380D01*
X0053383Y0017322D01*
X0053344Y0017262D01*
X0053309Y0017201D01*
X0053277Y0017137D01*
X0053249Y0017072D01*
X0053224Y0017006D01*
X0055714Y0017006D02*
X0055774Y0016879D01*
X0055830Y0016750D01*
X0055883Y0016620D01*
X0055933Y0016488D01*
X0055979Y0016355D01*
X0056021Y0016221D01*
X0056060Y0016086D01*
X0056096Y0015949D01*
X0056127Y0015812D01*
X0056155Y0015674D01*
X0056180Y0015536D01*
X0056200Y0015397D01*
X0056217Y0015257D01*
X0056230Y0015117D01*
X0056239Y0014976D01*
X0056245Y0014836D01*
X0056247Y0014695D01*
X0061868Y0012384D02*
X0061928Y0012511D01*
X0061984Y0012640D01*
X0062037Y0012770D01*
X0062087Y0012902D01*
X0062133Y0013035D01*
X0062175Y0013169D01*
X0062214Y0013304D01*
X0062250Y0013441D01*
X0062281Y0013578D01*
X0062309Y0013716D01*
X0062334Y0013854D01*
X0062354Y0013993D01*
X0062371Y0014133D01*
X0062384Y0014273D01*
X0062393Y0014414D01*
X0062399Y0014554D01*
X0062401Y0014695D01*
X0058845Y0014695D02*
X0058847Y0014836D01*
X0058853Y0014976D01*
X0058862Y0015117D01*
X0058875Y0015257D01*
X0058892Y0015397D01*
X0058912Y0015536D01*
X0058937Y0015674D01*
X0058965Y0015812D01*
X0058996Y0015949D01*
X0059032Y0016086D01*
X0059071Y0016221D01*
X0059113Y0016355D01*
X0059159Y0016488D01*
X0059209Y0016620D01*
X0059262Y0016750D01*
X0059318Y0016879D01*
X0059378Y0017006D01*
X0060623Y0017895D02*
X0060694Y0017893D01*
X0060765Y0017887D01*
X0060835Y0017878D01*
X0060905Y0017864D01*
X0060974Y0017847D01*
X0061041Y0017827D01*
X0061108Y0017802D01*
X0061173Y0017774D01*
X0061237Y0017743D01*
X0061299Y0017708D01*
X0061359Y0017670D01*
X0061417Y0017629D01*
X0061472Y0017585D01*
X0061525Y0017537D01*
X0061575Y0017487D01*
X0061623Y0017435D01*
X0061668Y0017380D01*
X0061709Y0017322D01*
X0061748Y0017262D01*
X0061783Y0017201D01*
X0061815Y0017137D01*
X0061843Y0017072D01*
X0061868Y0017006D01*
X0062045Y0016473D02*
X0059201Y0012917D01*
X0060623Y0011494D02*
X0060694Y0011496D01*
X0060765Y0011502D01*
X0060835Y0011511D01*
X0060905Y0011525D01*
X0060974Y0011542D01*
X0061041Y0011562D01*
X0061108Y0011587D01*
X0061173Y0011615D01*
X0061237Y0011646D01*
X0061299Y0011681D01*
X0061359Y0011719D01*
X0061416Y0011760D01*
X0061472Y0011804D01*
X0061525Y0011852D01*
X0061575Y0011902D01*
X0061623Y0011954D01*
X0061668Y0012009D01*
X0061709Y0012067D01*
X0061748Y0012127D01*
X0061783Y0012188D01*
X0061815Y0012252D01*
X0061843Y0012317D01*
X0061868Y0012383D01*
X0060623Y0011494D02*
X0060552Y0011496D01*
X0060481Y0011502D01*
X0060411Y0011511D01*
X0060341Y0011525D01*
X0060272Y0011542D01*
X0060205Y0011562D01*
X0060138Y0011587D01*
X0060073Y0011615D01*
X0060009Y0011646D01*
X0059947Y0011681D01*
X0059887Y0011719D01*
X0059829Y0011760D01*
X0059774Y0011804D01*
X0059721Y0011852D01*
X0059671Y0011902D01*
X0059623Y0011954D01*
X0059578Y0012009D01*
X0059537Y0012067D01*
X0059498Y0012127D01*
X0059463Y0012188D01*
X0059431Y0012252D01*
X0059403Y0012317D01*
X0059378Y0012383D01*
X0053224Y0012384D02*
X0053164Y0012511D01*
X0053108Y0012640D01*
X0053055Y0012770D01*
X0053005Y0012902D01*
X0052959Y0013035D01*
X0052917Y0013169D01*
X0052878Y0013304D01*
X0052842Y0013441D01*
X0052811Y0013578D01*
X0052783Y0013716D01*
X0052758Y0013854D01*
X0052738Y0013993D01*
X0052721Y0014133D01*
X0052708Y0014273D01*
X0052699Y0014414D01*
X0052693Y0014554D01*
X0052691Y0014695D01*
X0056247Y0014695D02*
X0056245Y0014554D01*
X0056239Y0014414D01*
X0056230Y0014273D01*
X0056217Y0014133D01*
X0056200Y0013993D01*
X0056180Y0013854D01*
X0056155Y0013716D01*
X0056127Y0013578D01*
X0056096Y0013441D01*
X0056060Y0013304D01*
X0056021Y0013169D01*
X0055979Y0013035D01*
X0055933Y0012902D01*
X0055883Y0012770D01*
X0055830Y0012640D01*
X0055774Y0012511D01*
X0055714Y0012384D01*
X0055714Y0012383D02*
X0055689Y0012317D01*
X0055661Y0012252D01*
X0055629Y0012188D01*
X0055594Y0012127D01*
X0055555Y0012067D01*
X0055514Y0012009D01*
X0055469Y0011954D01*
X0055421Y0011902D01*
X0055371Y0011852D01*
X0055318Y0011804D01*
X0055262Y0011760D01*
X0055205Y0011719D01*
X0055145Y0011681D01*
X0055083Y0011646D01*
X0055019Y0011615D01*
X0054954Y0011587D01*
X0054887Y0011562D01*
X0054820Y0011542D01*
X0054751Y0011525D01*
X0054681Y0011511D01*
X0054611Y0011502D01*
X0054540Y0011496D01*
X0054469Y0011494D01*
X0054398Y0011496D01*
X0054327Y0011502D01*
X0054257Y0011511D01*
X0054187Y0011525D01*
X0054118Y0011542D01*
X0054051Y0011562D01*
X0053984Y0011587D01*
X0053919Y0011615D01*
X0053855Y0011646D01*
X0053793Y0011681D01*
X0053733Y0011719D01*
X0053675Y0011760D01*
X0053620Y0011804D01*
X0053567Y0011852D01*
X0053517Y0011902D01*
X0053469Y0011954D01*
X0053424Y0012009D01*
X0053383Y0012067D01*
X0053344Y0012127D01*
X0053309Y0012188D01*
X0053277Y0012252D01*
X0053249Y0012317D01*
X0053224Y0012383D01*
X0062401Y0014695D02*
X0062399Y0014836D01*
X0062393Y0014976D01*
X0062384Y0015117D01*
X0062371Y0015257D01*
X0062354Y0015397D01*
X0062334Y0015536D01*
X0062309Y0015674D01*
X0062281Y0015812D01*
X0062250Y0015949D01*
X0062214Y0016086D01*
X0062175Y0016221D01*
X0062133Y0016355D01*
X0062087Y0016488D01*
X0062037Y0016620D01*
X0061984Y0016750D01*
X0061928Y0016879D01*
X0061868Y0017006D01*
X0060623Y0017895D02*
X0060552Y0017893D01*
X0060481Y0017887D01*
X0060411Y0017878D01*
X0060341Y0017864D01*
X0060272Y0017847D01*
X0060205Y0017827D01*
X0060138Y0017802D01*
X0060073Y0017774D01*
X0060009Y0017743D01*
X0059947Y0017708D01*
X0059887Y0017670D01*
X0059829Y0017629D01*
X0059774Y0017585D01*
X0059721Y0017537D01*
X0059671Y0017487D01*
X0059623Y0017435D01*
X0059578Y0017380D01*
X0059537Y0017322D01*
X0059498Y0017262D01*
X0059463Y0017201D01*
X0059431Y0017137D01*
X0059403Y0017072D01*
X0059378Y0017006D01*
X0053224Y0017006D02*
X0053164Y0016879D01*
X0053108Y0016750D01*
X0053055Y0016620D01*
X0053005Y0016488D01*
X0052959Y0016355D01*
X0052917Y0016221D01*
X0052878Y0016086D01*
X0052842Y0015949D01*
X0052811Y0015812D01*
X0052783Y0015674D01*
X0052758Y0015536D01*
X0052738Y0015397D01*
X0052721Y0015257D01*
X0052708Y0015117D01*
X0052699Y0014976D01*
X0052693Y0014836D01*
X0052691Y0014695D01*
X0058845Y0014695D02*
X0058847Y0014554D01*
X0058853Y0014414D01*
X0058862Y0014273D01*
X0058875Y0014133D01*
X0058892Y0013993D01*
X0058912Y0013854D01*
X0058937Y0013716D01*
X0058965Y0013578D01*
X0058996Y0013441D01*
X0059032Y0013304D01*
X0059071Y0013169D01*
X0059113Y0013035D01*
X0059159Y0012902D01*
X0059209Y0012770D01*
X0059262Y0012640D01*
X0059318Y0012511D01*
X0059378Y0012384D01*
X0064080Y0032714D02*
X0067141Y0032714D01*
X0066543Y0033313D02*
X0064679Y0033313D01*
X0064761Y0033911D02*
X0065944Y0033911D01*
X0065346Y0034510D02*
X0064761Y0034510D01*
X0064761Y0042889D02*
X0067372Y0042889D01*
X0067372Y0043488D02*
X0064761Y0043488D01*
X0064761Y0044086D02*
X0067372Y0044086D01*
X0067372Y0048276D02*
X0023328Y0048276D01*
X0023328Y0048874D02*
X0067372Y0048874D01*
X0067372Y0049473D02*
X0023328Y0049473D01*
X0023328Y0050071D02*
X0067372Y0050071D01*
X0067372Y0050670D02*
X0023328Y0050670D01*
X0023328Y0051268D02*
X0067372Y0051268D01*
X0067372Y0051867D02*
X0023328Y0051867D01*
X0023328Y0052465D02*
X0067372Y0052465D01*
X0067372Y0053064D02*
X0023328Y0053064D01*
X0023328Y0053662D02*
X0055545Y0053662D01*
X0055074Y0054261D02*
X0023328Y0054261D01*
X0023328Y0054859D02*
X0055074Y0054859D01*
X0055074Y0055458D02*
X0023328Y0055458D01*
X0023328Y0056056D02*
X0055074Y0056056D01*
X0055074Y0056655D02*
X0023328Y0056655D01*
X0023328Y0057253D02*
X0051954Y0057253D01*
X0051355Y0057852D02*
X0023328Y0057852D01*
X0023328Y0058450D02*
X0051137Y0058450D01*
X0051137Y0059049D02*
X0023328Y0059049D01*
X0023328Y0059647D02*
X0051137Y0059647D01*
X0051137Y0060246D02*
X0023328Y0060246D01*
X0023328Y0060844D02*
X0051137Y0060844D01*
X0051137Y0061443D02*
X0023328Y0061443D01*
X0023328Y0062041D02*
X0051137Y0062041D01*
X0051137Y0062640D02*
X0023328Y0062640D01*
X0028121Y0063238D02*
X0028721Y0063238D01*
X0028721Y0063837D02*
X0028121Y0063837D01*
X0028121Y0064435D02*
X0028721Y0064435D01*
X0028721Y0065034D02*
X0028121Y0065034D01*
X0028121Y0065632D02*
X0028721Y0065632D01*
X0028721Y0066231D02*
X0028121Y0066231D01*
X0028121Y0066829D02*
X0028721Y0066829D01*
X0028721Y0067428D02*
X0028121Y0067428D01*
X0028121Y0068026D02*
X0028721Y0068026D01*
X0028721Y0068625D02*
X0028121Y0068625D01*
X0028721Y0069224D02*
X0051137Y0069224D01*
X0051137Y0069822D02*
X0034721Y0069822D01*
X0034721Y0069371D02*
X0034721Y0074242D01*
X0034633Y0074573D01*
X0034462Y0074869D01*
X0034219Y0075111D01*
X0033923Y0075282D01*
X0033592Y0075371D01*
X0028721Y0075371D01*
X0028721Y0069371D01*
X0034721Y0069371D01*
X0034721Y0068625D02*
X0051137Y0068625D01*
X0051137Y0068026D02*
X0034721Y0068026D01*
X0034721Y0067428D02*
X0051137Y0067428D01*
X0051137Y0066829D02*
X0034721Y0066829D01*
X0034721Y0066231D02*
X0051137Y0066231D01*
X0051137Y0065632D02*
X0034721Y0065632D01*
X0034721Y0065034D02*
X0051137Y0065034D01*
X0051137Y0064435D02*
X0034721Y0064435D01*
X0034704Y0063837D02*
X0051137Y0063837D01*
X0051137Y0063238D02*
X0034427Y0063238D01*
X0034721Y0070421D02*
X0051369Y0070421D01*
X0050770Y0071019D02*
X0041496Y0071019D01*
X0042541Y0071618D02*
X0050172Y0071618D01*
X0049573Y0072216D02*
X0043139Y0072216D01*
X0043425Y0072815D02*
X0048975Y0072815D01*
X0048376Y0073413D02*
X0043673Y0073413D01*
X0043717Y0074012D02*
X0047477Y0074012D01*
X0047004Y0074610D02*
X0043717Y0074610D01*
X0043572Y0075209D02*
X0046756Y0075209D01*
X0046698Y0075807D02*
X0043324Y0075807D01*
X0042895Y0076406D02*
X0046710Y0076406D01*
X0046958Y0077004D02*
X0044000Y0077004D01*
X0044273Y0077603D02*
X0047366Y0077603D01*
X0048169Y0078201D02*
X0044288Y0078201D01*
X0044288Y0078800D02*
X0053770Y0078800D01*
X0053171Y0079398D02*
X0044288Y0079398D01*
X0044288Y0079997D02*
X0052573Y0079997D01*
X0051974Y0080595D02*
X0044288Y0080595D01*
X0046533Y0081194D02*
X0051376Y0081194D01*
X0050777Y0081792D02*
X0047298Y0081792D01*
X0047691Y0082391D02*
X0050179Y0082391D01*
X0049580Y0082989D02*
X0047939Y0082989D01*
X0047939Y0083588D02*
X0048982Y0083588D01*
X0048383Y0084186D02*
X0047871Y0084186D01*
X0048537Y0086295D02*
X0060902Y0073930D01*
X0060902Y0071964D01*
X0060902Y0071925D01*
X0062870Y0071925D02*
X0062871Y0071964D01*
X0058933Y0071925D02*
X0056965Y0071925D01*
X0058933Y0071925D02*
X0059012Y0073558D01*
X0056934Y0075635D01*
X0053451Y0075635D01*
X0053224Y0075862D01*
X0053265Y0075862D01*
X0051344Y0077603D02*
X0051208Y0077603D01*
X0050406Y0078201D02*
X0052147Y0078201D01*
X0055901Y0081194D02*
X0056534Y0081194D01*
X0056500Y0080595D02*
X0058040Y0080595D01*
X0058638Y0079997D02*
X0057098Y0079997D01*
X0057697Y0079398D02*
X0059237Y0079398D01*
X0059498Y0078800D02*
X0058295Y0078800D01*
X0058894Y0078201D02*
X0059498Y0078201D01*
X0059492Y0077603D02*
X0059498Y0077603D01*
X0060770Y0082391D02*
X0071992Y0082391D01*
X0071394Y0082989D02*
X0070556Y0082989D01*
X0066393Y0087179D02*
X0064952Y0087179D01*
X0065550Y0087777D02*
X0066393Y0087777D01*
X0066393Y0088376D02*
X0066149Y0088376D01*
X0076256Y0091610D02*
X0076846Y0092201D01*
X0080115Y0099748D02*
X0081452Y0099748D01*
X0081452Y0100346D02*
X0080115Y0100346D01*
X0080115Y0100945D02*
X0081452Y0100945D01*
X0081536Y0101543D02*
X0080115Y0101543D01*
X0080208Y0102142D02*
X0082027Y0102142D01*
X0077815Y0104536D02*
X0075009Y0104536D01*
X0075009Y0105134D02*
X0078107Y0105134D01*
X0077524Y0103937D02*
X0075009Y0103937D01*
X0075009Y0103339D02*
X0077232Y0103339D01*
X0076941Y0102740D02*
X0075009Y0102740D01*
X0070809Y0100346D02*
X0070441Y0100346D01*
X0067110Y0100346D02*
X0066455Y0100346D01*
X0062581Y0103937D02*
X0059587Y0103937D01*
X0059587Y0103339D02*
X0061983Y0103339D01*
X0061384Y0102740D02*
X0059587Y0102740D01*
X0059587Y0102142D02*
X0060786Y0102142D01*
X0060187Y0101543D02*
X0059587Y0101543D01*
X0059587Y0100945D02*
X0059589Y0100945D01*
X0059587Y0104536D02*
X0063180Y0104536D01*
X0063779Y0105134D02*
X0059587Y0105134D01*
X0059587Y0105733D02*
X0063783Y0105733D01*
X0063783Y0106331D02*
X0059587Y0106331D01*
X0059587Y0106930D02*
X0063617Y0106930D01*
X0063617Y0107528D02*
X0059587Y0107528D01*
X0059587Y0108127D02*
X0063617Y0108127D01*
X0063617Y0108725D02*
X0059587Y0108725D01*
X0059587Y0109324D02*
X0063617Y0109324D01*
X0063617Y0109922D02*
X0059587Y0109922D01*
X0059587Y0110521D02*
X0063617Y0110521D01*
X0063617Y0111119D02*
X0059587Y0111119D01*
X0059587Y0111718D02*
X0063617Y0111718D01*
X0063617Y0112316D02*
X0059587Y0112316D01*
X0059587Y0112915D02*
X0063617Y0112915D01*
X0063643Y0113513D02*
X0059587Y0113513D01*
X0059587Y0114112D02*
X0063683Y0114112D01*
X0062105Y0114710D02*
X0059587Y0114710D01*
X0059587Y0115309D02*
X0061924Y0115309D01*
X0061924Y0115907D02*
X0059587Y0115907D01*
X0059587Y0116506D02*
X0061924Y0116506D01*
X0061924Y0117104D02*
X0059587Y0117104D01*
X0059587Y0117703D02*
X0061924Y0117703D01*
X0061924Y0118301D02*
X0059587Y0118301D01*
X0059617Y0118900D02*
X0061924Y0118900D01*
X0061924Y0119498D02*
X0059587Y0119498D01*
X0059410Y0120097D02*
X0061924Y0120097D01*
X0061924Y0120695D02*
X0060132Y0120695D01*
X0060430Y0121294D02*
X0061924Y0121294D01*
X0061944Y0121893D02*
X0060430Y0121893D01*
X0060430Y0122491D02*
X0062542Y0122491D01*
X0056387Y0115907D02*
X0048885Y0115907D01*
X0048699Y0115309D02*
X0056387Y0115309D01*
X0056387Y0114710D02*
X0048512Y0114710D01*
X0048860Y0114112D02*
X0049675Y0114112D01*
X0041998Y0114112D02*
X0034294Y0114112D01*
X0034892Y0113513D02*
X0041399Y0113513D01*
X0041373Y0112915D02*
X0034918Y0112915D01*
X0034918Y0112316D02*
X0041373Y0112316D01*
X0041373Y0111718D02*
X0034918Y0111718D01*
X0034918Y0111119D02*
X0041373Y0111119D01*
X0041373Y0110521D02*
X0034918Y0110521D01*
X0034918Y0109922D02*
X0041373Y0109922D01*
X0041373Y0109324D02*
X0034918Y0109324D01*
X0035142Y0108725D02*
X0041373Y0108725D01*
X0041373Y0108127D02*
X0035741Y0108127D01*
X0036339Y0107528D02*
X0041373Y0107528D01*
X0041373Y0106930D02*
X0036938Y0106930D01*
X0037536Y0106331D02*
X0041941Y0106331D01*
X0036983Y0100945D02*
X0034721Y0100945D01*
X0034721Y0101543D02*
X0036385Y0101543D01*
X0035786Y0102142D02*
X0034721Y0102142D01*
X0034721Y0102740D02*
X0035188Y0102740D01*
X0034721Y0100346D02*
X0037582Y0100346D01*
X0038180Y0099748D02*
X0034721Y0099748D01*
X0034721Y0099149D02*
X0038779Y0099149D01*
X0039377Y0098551D02*
X0028721Y0098551D01*
X0028721Y0098102D02*
X0034721Y0098102D01*
X0034721Y0093230D01*
X0034633Y0092900D01*
X0034462Y0092603D01*
X0034219Y0092361D01*
X0033923Y0092190D01*
X0033592Y0092102D01*
X0028721Y0092102D01*
X0028721Y0098102D01*
X0028721Y0097952D02*
X0028121Y0097952D01*
X0028121Y0097354D02*
X0028721Y0097354D01*
X0028721Y0096755D02*
X0028121Y0096755D01*
X0028121Y0096157D02*
X0028721Y0096157D01*
X0028721Y0095558D02*
X0028121Y0095558D01*
X0028121Y0094959D02*
X0028721Y0094959D01*
X0028721Y0094361D02*
X0028121Y0094361D01*
X0028121Y0093762D02*
X0028721Y0093762D01*
X0028721Y0093164D02*
X0028121Y0093164D01*
X0028121Y0092565D02*
X0028721Y0092565D01*
X0031871Y0088974D02*
X0023328Y0088974D01*
X0023328Y0088376D02*
X0031439Y0088376D01*
X0031439Y0087777D02*
X0023328Y0087777D01*
X0023328Y0087179D02*
X0031439Y0087179D01*
X0031439Y0086580D02*
X0023328Y0086580D01*
X0023328Y0085982D02*
X0031439Y0085982D01*
X0031439Y0085383D02*
X0023328Y0085383D01*
X0023328Y0084785D02*
X0031171Y0084785D01*
X0030950Y0084186D02*
X0023328Y0084186D01*
X0023328Y0083588D02*
X0030950Y0083588D01*
X0031046Y0082989D02*
X0023328Y0082989D01*
X0023328Y0082391D02*
X0031294Y0082391D01*
X0031822Y0081792D02*
X0023328Y0081792D01*
X0023328Y0081194D02*
X0032912Y0081194D01*
X0034167Y0081194D02*
X0034798Y0081194D01*
X0034798Y0080595D02*
X0023328Y0080595D01*
X0023328Y0079997D02*
X0034798Y0079997D01*
X0034798Y0079398D02*
X0023328Y0079398D01*
X0023328Y0078800D02*
X0034798Y0078800D01*
X0034720Y0078618D02*
X0033539Y0079799D01*
X0034720Y0078618D02*
X0039543Y0078618D01*
X0037806Y0076406D02*
X0023328Y0076406D01*
X0023328Y0077004D02*
X0035086Y0077004D01*
X0034814Y0077603D02*
X0023328Y0077603D01*
X0023328Y0078201D02*
X0034798Y0078201D01*
X0037376Y0075807D02*
X0023328Y0075807D01*
X0028121Y0075209D02*
X0028721Y0075209D01*
X0028721Y0074610D02*
X0028121Y0074610D01*
X0028121Y0074012D02*
X0028721Y0074012D01*
X0028721Y0073413D02*
X0028121Y0073413D01*
X0028121Y0072815D02*
X0028721Y0072815D01*
X0028721Y0072216D02*
X0028121Y0072216D01*
X0028121Y0071618D02*
X0028721Y0071618D01*
X0028721Y0071019D02*
X0028121Y0071019D01*
X0028121Y0070421D02*
X0028721Y0070421D01*
X0028721Y0069822D02*
X0028121Y0069822D01*
X0034721Y0071019D02*
X0039205Y0071019D01*
X0038160Y0071618D02*
X0034721Y0071618D01*
X0034721Y0072216D02*
X0037562Y0072216D01*
X0037275Y0072815D02*
X0034721Y0072815D01*
X0034721Y0073413D02*
X0037027Y0073413D01*
X0036983Y0074012D02*
X0034721Y0074012D01*
X0034611Y0074610D02*
X0036983Y0074610D01*
X0037128Y0075209D02*
X0034051Y0075209D01*
X0039543Y0083736D02*
X0045350Y0083736D01*
X0045350Y0083506D01*
X0048537Y0086295D02*
X0039543Y0086295D01*
X0033666Y0090770D02*
X0023328Y0090770D01*
X0023328Y0091368D02*
X0037504Y0091368D01*
X0037251Y0091967D02*
X0023328Y0091967D01*
X0023328Y0090171D02*
X0033068Y0090171D01*
X0032469Y0089573D02*
X0023328Y0089573D01*
X0034424Y0092565D02*
X0037003Y0092565D01*
X0036983Y0093164D02*
X0034703Y0093164D01*
X0034721Y0093762D02*
X0036983Y0093762D01*
X0037152Y0094361D02*
X0034721Y0094361D01*
X0034721Y0094959D02*
X0037400Y0094959D01*
X0037863Y0095558D02*
X0034721Y0095558D01*
X0034721Y0096157D02*
X0038488Y0096157D01*
X0039976Y0097952D02*
X0034721Y0097952D01*
X0034721Y0097354D02*
X0040574Y0097354D01*
X0041173Y0096755D02*
X0034721Y0096755D01*
X0028721Y0099149D02*
X0028121Y0099149D01*
X0028121Y0099748D02*
X0028721Y0099748D01*
X0028721Y0100346D02*
X0028121Y0100346D01*
X0028121Y0100945D02*
X0028721Y0100945D01*
X0028721Y0101543D02*
X0028121Y0101543D01*
X0028121Y0102142D02*
X0028721Y0102142D01*
X0028721Y0102740D02*
X0028121Y0102740D01*
X0028121Y0103339D02*
X0028721Y0103339D01*
X0028721Y0103937D02*
X0028121Y0103937D01*
X0028121Y0104536D02*
X0028721Y0104536D01*
X0052909Y0084186D02*
X0054572Y0084186D01*
X0054572Y0083588D02*
X0053507Y0083588D01*
X0054106Y0082989D02*
X0054669Y0082989D01*
X0054704Y0082391D02*
X0054916Y0082391D01*
X0055303Y0081792D02*
X0055444Y0081792D01*
X0068057Y0074610D02*
X0073332Y0074610D01*
X0072733Y0074012D02*
X0068655Y0074012D01*
X0068698Y0073413D02*
X0072135Y0073413D01*
X0071536Y0072815D02*
X0068698Y0072815D01*
X0068698Y0072216D02*
X0071113Y0072216D01*
X0071113Y0071618D02*
X0068698Y0071618D01*
X0068698Y0071019D02*
X0071113Y0071019D01*
X0072713Y0067873D02*
X0071883Y0067043D01*
X0069917Y0067043D01*
X0069760Y0067004D01*
X0069760Y0059130D02*
X0068972Y0058343D01*
X0072713Y0052436D02*
X0076846Y0048303D01*
X0057669Y0047677D02*
X0023328Y0047677D01*
X0023328Y0047079D02*
X0057436Y0047079D01*
X0057436Y0046480D02*
X0023328Y0046480D01*
X0023328Y0045882D02*
X0057436Y0045882D01*
X0057436Y0045283D02*
X0023328Y0045283D01*
X0106191Y0054261D02*
X0112037Y0054261D01*
X0112636Y0054859D02*
X0106679Y0054859D01*
X0106927Y0055458D02*
X0113234Y0055458D01*
X0113833Y0056056D02*
X0106994Y0056056D01*
X0106993Y0056655D02*
X0114431Y0056655D01*
X0115030Y0057253D02*
X0106745Y0057253D01*
X0129996Y0050272D02*
X0131965Y0052240D01*
X0129996Y0050272D02*
X0129996Y0049681D01*
X0131820Y0048127D02*
X0131058Y0047365D01*
X0131820Y0048127D02*
X0133104Y0048127D01*
X0133343Y0048303D01*
X0135627Y0048028D02*
X0135627Y0047273D01*
X0134689Y0046335D01*
X0133343Y0046335D01*
X0135900Y0045283D02*
X0139247Y0045283D01*
X0139247Y0044685D02*
X0135627Y0044685D01*
X0136499Y0045882D02*
X0139247Y0045882D01*
X0139247Y0046480D02*
X0137097Y0046480D01*
X0137227Y0047079D02*
X0139247Y0047079D01*
X0139264Y0047677D02*
X0137538Y0047677D01*
X0138137Y0048276D02*
X0139862Y0048276D01*
X0141331Y0050071D02*
X0142987Y0050071D01*
X0142987Y0050670D02*
X0141929Y0050670D01*
X0142238Y0051268D02*
X0142987Y0051268D01*
X0142987Y0051867D02*
X0142428Y0051867D01*
X0142428Y0052465D02*
X0142987Y0052465D01*
X0142987Y0053064D02*
X0142300Y0053064D01*
X0142052Y0053662D02*
X0142987Y0053662D01*
X0142760Y0054261D02*
X0141479Y0054261D01*
X0139839Y0052240D02*
X0135627Y0048028D01*
X0154642Y0044366D02*
X0154996Y0044012D01*
X0154996Y0036492D01*
X0160756Y0032116D02*
X0171413Y0032116D01*
X0171413Y0032255D02*
X0171413Y0030022D01*
X0171501Y0029691D01*
X0171672Y0029395D01*
X0171914Y0029153D01*
X0172211Y0028982D01*
X0172541Y0028893D01*
X0174775Y0028893D01*
X0174775Y0032255D01*
X0175375Y0032255D01*
X0175375Y0032855D01*
X0178737Y0032855D01*
X0178737Y0035088D01*
X0178648Y0035419D01*
X0178477Y0035716D01*
X0178235Y0035958D01*
X0177939Y0036129D01*
X0177608Y0036217D01*
X0175375Y0036217D01*
X0175375Y0032855D01*
X0174775Y0032855D01*
X0174775Y0036217D01*
X0172541Y0036217D01*
X0172211Y0036129D01*
X0171914Y0035958D01*
X0171672Y0035716D01*
X0171501Y0035419D01*
X0171413Y0035088D01*
X0171413Y0032855D01*
X0174775Y0032855D01*
X0174775Y0032255D01*
X0171413Y0032255D01*
X0171413Y0031517D02*
X0160158Y0031517D01*
X0159559Y0030919D02*
X0171413Y0030919D01*
X0171413Y0030320D02*
X0158961Y0030320D01*
X0158461Y0029722D02*
X0171493Y0029722D01*
X0171965Y0029123D02*
X0158461Y0029123D01*
X0158461Y0028525D02*
X0187956Y0028525D01*
X0187358Y0027926D02*
X0158461Y0027926D01*
X0158461Y0027328D02*
X0186759Y0027328D01*
X0186474Y0029123D02*
X0188555Y0029123D01*
X0189153Y0029722D02*
X0187005Y0029722D01*
X0187005Y0030320D02*
X0189752Y0030320D01*
X0190351Y0030919D02*
X0187005Y0030919D01*
X0187005Y0031517D02*
X0190949Y0031517D01*
X0191548Y0032116D02*
X0187005Y0032116D01*
X0187005Y0032714D02*
X0192146Y0032714D01*
X0192745Y0033313D02*
X0187005Y0033313D01*
X0187005Y0033911D02*
X0192857Y0033911D01*
X0192857Y0034510D02*
X0187005Y0034510D01*
X0187005Y0035108D02*
X0192857Y0035108D01*
X0192857Y0035707D02*
X0186754Y0035707D01*
X0185601Y0037502D02*
X0192857Y0037502D01*
X0192857Y0036904D02*
X0184155Y0036904D01*
X0184155Y0036305D02*
X0192857Y0036305D01*
X0192857Y0038101D02*
X0186020Y0038101D01*
X0186020Y0038699D02*
X0192857Y0038699D01*
X0192857Y0039298D02*
X0186020Y0039298D01*
X0186020Y0039896D02*
X0192857Y0039896D01*
X0192857Y0040495D02*
X0186020Y0040495D01*
X0186020Y0041093D02*
X0192857Y0041093D01*
X0192857Y0041692D02*
X0186020Y0041692D01*
X0186020Y0042291D02*
X0192857Y0042291D01*
X0192857Y0042889D02*
X0186020Y0042889D01*
X0185469Y0043488D02*
X0192857Y0043488D01*
X0192857Y0044086D02*
X0165391Y0044086D01*
X0165391Y0043488D02*
X0172948Y0043488D01*
X0172397Y0042889D02*
X0168224Y0042889D01*
X0169198Y0042291D02*
X0172397Y0042291D01*
X0175862Y0040429D02*
X0167398Y0040429D01*
X0165598Y0042291D02*
X0165391Y0042291D01*
X0165391Y0042889D02*
X0166571Y0042889D01*
X0164816Y0039896D02*
X0163722Y0039896D01*
X0163722Y0039298D02*
X0165064Y0039298D01*
X0165466Y0038699D02*
X0163722Y0038699D01*
X0163722Y0038101D02*
X0166253Y0038101D01*
X0164444Y0036904D02*
X0180955Y0036904D01*
X0180955Y0036305D02*
X0164692Y0036305D01*
X0164711Y0035707D02*
X0171667Y0035707D01*
X0171418Y0035108D02*
X0164661Y0035108D01*
X0164413Y0034510D02*
X0171413Y0034510D01*
X0171413Y0033911D02*
X0163951Y0033911D01*
X0163018Y0033313D02*
X0171413Y0033313D01*
X0174775Y0033313D02*
X0175375Y0033313D01*
X0175375Y0033911D02*
X0174775Y0033911D01*
X0174775Y0034510D02*
X0175375Y0034510D01*
X0175375Y0035108D02*
X0174775Y0035108D01*
X0174775Y0035707D02*
X0175375Y0035707D01*
X0178482Y0035707D02*
X0179931Y0035707D01*
X0179680Y0035108D02*
X0178732Y0035108D01*
X0178737Y0034510D02*
X0179680Y0034510D01*
X0179680Y0033911D02*
X0178737Y0033911D01*
X0178737Y0033313D02*
X0179680Y0033313D01*
X0179680Y0032714D02*
X0175375Y0032714D01*
X0175375Y0032255D02*
X0178737Y0032255D01*
X0178737Y0030022D01*
X0178648Y0029691D01*
X0178477Y0029395D01*
X0178235Y0029153D01*
X0177939Y0028982D01*
X0177608Y0028893D01*
X0175375Y0028893D01*
X0175375Y0032255D01*
X0175375Y0032116D02*
X0174775Y0032116D01*
X0174775Y0032714D02*
X0161355Y0032714D01*
X0162122Y0035744D02*
X0162122Y0044366D01*
X0169329Y0038699D02*
X0172397Y0038699D01*
X0172397Y0038101D02*
X0168542Y0038101D01*
X0172817Y0037502D02*
X0164025Y0037502D01*
X0162122Y0035744D02*
X0154996Y0028618D01*
X0174775Y0029123D02*
X0175375Y0029123D01*
X0175375Y0029722D02*
X0174775Y0029722D01*
X0174775Y0030320D02*
X0175375Y0030320D01*
X0175375Y0030919D02*
X0174775Y0030919D01*
X0174775Y0031517D02*
X0175375Y0031517D01*
X0178737Y0031517D02*
X0179680Y0031517D01*
X0179680Y0030919D02*
X0178737Y0030919D01*
X0178737Y0030320D02*
X0179680Y0030320D01*
X0179680Y0029722D02*
X0178657Y0029722D01*
X0178184Y0029123D02*
X0180211Y0029123D01*
X0179680Y0032116D02*
X0178737Y0032116D01*
X0182555Y0033343D02*
X0183343Y0032555D01*
X0182555Y0033343D02*
X0182555Y0040429D01*
X0179509Y0037502D02*
X0178908Y0037502D01*
X0178776Y0043488D02*
X0179641Y0043488D01*
X0179611Y0045283D02*
X0178814Y0045283D01*
X0182255Y0045283D02*
X0182855Y0045283D01*
X0182855Y0045882D02*
X0182255Y0045882D01*
X0182255Y0046480D02*
X0182855Y0046480D01*
X0182855Y0047079D02*
X0182255Y0047079D01*
X0182255Y0047677D02*
X0182855Y0047677D01*
X0182855Y0048276D02*
X0192857Y0048276D01*
X0182855Y0048874D02*
X0182255Y0048874D01*
X0182255Y0049473D02*
X0182855Y0049473D01*
X0182855Y0050071D02*
X0182255Y0050071D01*
X0182255Y0050670D02*
X0182855Y0050670D01*
X0182855Y0051268D02*
X0182255Y0051268D01*
X0179548Y0051268D02*
X0178870Y0051268D01*
X0178721Y0053064D02*
X0179696Y0053064D01*
X0175862Y0056177D02*
X0175862Y0063461D01*
X0175272Y0064051D01*
X0177667Y0065034D02*
X0201231Y0065034D01*
X0201231Y0065632D02*
X0177352Y0065632D01*
X0176753Y0066231D02*
X0201231Y0066231D01*
X0201231Y0066829D02*
X0172935Y0066829D01*
X0172935Y0066231D02*
X0173790Y0066231D01*
X0173192Y0065632D02*
X0172935Y0065632D01*
X0172935Y0067428D02*
X0201231Y0067428D01*
X0201231Y0068026D02*
X0200808Y0068026D01*
X0200808Y0068625D02*
X0201231Y0068625D01*
X0201231Y0069224D02*
X0200808Y0069224D01*
X0200808Y0069822D02*
X0201231Y0069822D01*
X0201231Y0070421D02*
X0200808Y0070421D01*
X0200808Y0071019D02*
X0201231Y0071019D01*
X0201231Y0071618D02*
X0200808Y0071618D01*
X0200808Y0072216D02*
X0201231Y0072216D01*
X0201231Y0072815D02*
X0200808Y0072815D01*
X0200808Y0073413D02*
X0201231Y0073413D01*
X0201231Y0074012D02*
X0200808Y0074012D01*
X0200808Y0074610D02*
X0201231Y0074610D01*
X0201231Y0075209D02*
X0200808Y0075209D01*
X0200808Y0075807D02*
X0201231Y0075807D01*
X0201231Y0076406D02*
X0200808Y0076406D01*
X0200808Y0077004D02*
X0201231Y0077004D01*
X0201231Y0077603D02*
X0200808Y0077603D01*
X0200808Y0078201D02*
X0201231Y0078201D01*
X0201231Y0078800D02*
X0200808Y0078800D01*
X0200808Y0079398D02*
X0201231Y0079398D01*
X0201231Y0079997D02*
X0200808Y0079997D01*
X0200808Y0080595D02*
X0201231Y0080595D01*
X0201231Y0081194D02*
X0200808Y0081194D01*
X0200808Y0081792D02*
X0201231Y0081792D01*
X0201231Y0082391D02*
X0200808Y0082391D01*
X0200808Y0082989D02*
X0201231Y0082989D01*
X0201231Y0083588D02*
X0200808Y0083588D01*
X0200808Y0084186D02*
X0201231Y0084186D01*
X0201231Y0084785D02*
X0200808Y0084785D01*
X0200808Y0085383D02*
X0201231Y0085383D01*
X0201231Y0085982D02*
X0200808Y0085982D01*
X0200808Y0086580D02*
X0201231Y0086580D01*
X0201231Y0087179D02*
X0200808Y0087179D01*
X0200808Y0087777D02*
X0201231Y0087777D01*
X0201231Y0088376D02*
X0200808Y0088376D01*
X0200808Y0088974D02*
X0201231Y0088974D01*
X0201231Y0089573D02*
X0200808Y0089573D01*
X0200808Y0090171D02*
X0201231Y0090171D01*
X0201231Y0090770D02*
X0200808Y0090770D01*
X0200808Y0091368D02*
X0201231Y0091368D01*
X0201231Y0091967D02*
X0200808Y0091967D01*
X0200808Y0092565D02*
X0201231Y0092565D01*
X0201231Y0093164D02*
X0200808Y0093164D01*
X0200808Y0093762D02*
X0201231Y0093762D01*
X0201231Y0094361D02*
X0200808Y0094361D01*
X0200808Y0094959D02*
X0201231Y0094959D01*
X0201231Y0095558D02*
X0200808Y0095558D01*
X0200808Y0096157D02*
X0201231Y0096157D01*
X0201231Y0096755D02*
X0200808Y0096755D01*
X0200808Y0097354D02*
X0201231Y0097354D01*
X0201231Y0097952D02*
X0200808Y0097952D01*
X0200808Y0098551D02*
X0201231Y0098551D01*
X0201231Y0099149D02*
X0200808Y0099149D01*
X0200808Y0099748D02*
X0201231Y0099748D01*
X0201231Y0100346D02*
X0200808Y0100346D01*
X0200808Y0100945D02*
X0201231Y0100945D01*
X0201231Y0101543D02*
X0200808Y0101543D01*
X0200808Y0102142D02*
X0201231Y0102142D01*
X0201231Y0102740D02*
X0200808Y0102740D01*
X0200808Y0103339D02*
X0201231Y0103339D01*
X0201231Y0103937D02*
X0200808Y0103937D01*
X0200808Y0104536D02*
X0201231Y0104536D01*
X0201231Y0105134D02*
X0200808Y0105134D01*
X0200808Y0105733D02*
X0201231Y0105733D01*
X0201231Y0106331D02*
X0200808Y0106331D01*
X0200808Y0106930D02*
X0201231Y0106930D01*
X0201231Y0107528D02*
X0200808Y0107528D01*
X0200808Y0108127D02*
X0201231Y0108127D01*
X0201231Y0108725D02*
X0200808Y0108725D01*
X0200808Y0109324D02*
X0201231Y0109324D01*
X0201231Y0109922D02*
X0200808Y0109922D01*
X0200808Y0110521D02*
X0201231Y0110521D01*
X0201231Y0111119D02*
X0200808Y0111119D01*
X0200808Y0111718D02*
X0201231Y0111718D01*
X0201231Y0112316D02*
X0200808Y0112316D01*
X0200808Y0112915D02*
X0201231Y0112915D01*
X0201231Y0113513D02*
X0200808Y0113513D01*
X0200808Y0114112D02*
X0201231Y0114112D01*
X0201231Y0114710D02*
X0200808Y0114710D01*
X0200808Y0115309D02*
X0201231Y0115309D01*
X0201231Y0115907D02*
X0200808Y0115907D01*
X0200808Y0116506D02*
X0201231Y0116506D01*
X0201231Y0117104D02*
X0200808Y0117104D01*
X0200808Y0117703D02*
X0201231Y0117703D01*
X0201231Y0118301D02*
X0200808Y0118301D01*
X0200808Y0118900D02*
X0201231Y0118900D01*
X0201231Y0119498D02*
X0200808Y0119498D01*
X0200808Y0120097D02*
X0201231Y0120097D01*
X0201231Y0120695D02*
X0200808Y0120695D01*
X0200808Y0121294D02*
X0201231Y0121294D01*
X0201231Y0121893D02*
X0200808Y0121893D01*
X0200808Y0122491D02*
X0201231Y0122491D01*
X0201231Y0123090D02*
X0200808Y0123090D01*
X0200808Y0123688D02*
X0201231Y0123688D01*
X0201231Y0124287D02*
X0200808Y0124287D01*
X0200808Y0124885D02*
X0201231Y0124885D01*
X0201231Y0125484D02*
X0200808Y0125484D01*
X0200808Y0126082D02*
X0201231Y0126082D01*
X0201231Y0126681D02*
X0200808Y0126681D01*
X0200808Y0127279D02*
X0201231Y0127279D01*
X0201231Y0127878D02*
X0200808Y0127878D01*
X0200808Y0128476D02*
X0201231Y0128476D01*
X0201231Y0129075D02*
X0200808Y0129075D01*
X0200808Y0129673D02*
X0201231Y0129673D01*
X0201231Y0130272D02*
X0200808Y0130272D01*
X0200808Y0130870D02*
X0201231Y0130870D01*
X0201231Y0131469D02*
X0170705Y0131469D01*
X0170705Y0132067D02*
X0201231Y0132067D01*
X0201231Y0132666D02*
X0170705Y0132666D01*
X0170705Y0133264D02*
X0201231Y0133264D01*
X0172649Y0130870D02*
X0170705Y0130870D01*
X0170705Y0130272D02*
X0172649Y0130272D01*
X0172649Y0129673D02*
X0170705Y0129673D01*
X0170705Y0129075D02*
X0172649Y0129075D01*
X0172649Y0128476D02*
X0170705Y0128476D01*
X0170705Y0127878D02*
X0172649Y0127878D01*
X0172649Y0127279D02*
X0170705Y0127279D01*
X0170705Y0126681D02*
X0172649Y0126681D01*
X0172649Y0126082D02*
X0170705Y0126082D01*
X0170705Y0125484D02*
X0172649Y0125484D01*
X0172649Y0124885D02*
X0170705Y0124885D01*
X0170574Y0124287D02*
X0172649Y0124287D01*
X0172649Y0123688D02*
X0169975Y0123688D01*
X0208880Y0088548D02*
X0209021Y0088550D01*
X0209161Y0088556D01*
X0209302Y0088565D01*
X0209442Y0088578D01*
X0209582Y0088595D01*
X0209721Y0088615D01*
X0209859Y0088640D01*
X0209997Y0088668D01*
X0210134Y0088699D01*
X0210271Y0088735D01*
X0210406Y0088774D01*
X0210540Y0088816D01*
X0210673Y0088862D01*
X0210805Y0088912D01*
X0210935Y0088965D01*
X0211064Y0089021D01*
X0211191Y0089081D01*
X0210658Y0088903D02*
X0207102Y0091748D01*
X0206568Y0091571D02*
X0206502Y0091546D01*
X0206437Y0091518D01*
X0206373Y0091486D01*
X0206312Y0091451D01*
X0206252Y0091412D01*
X0206194Y0091371D01*
X0206139Y0091326D01*
X0206087Y0091278D01*
X0206037Y0091228D01*
X0205989Y0091175D01*
X0205945Y0091120D01*
X0205904Y0091062D01*
X0205866Y0091002D01*
X0205831Y0090940D01*
X0205800Y0090876D01*
X0205772Y0090811D01*
X0205747Y0090744D01*
X0205727Y0090677D01*
X0205710Y0090608D01*
X0205696Y0090538D01*
X0205687Y0090468D01*
X0205681Y0090397D01*
X0205679Y0090326D01*
X0205681Y0090255D01*
X0205687Y0090184D01*
X0205696Y0090114D01*
X0205710Y0090044D01*
X0205727Y0089975D01*
X0205747Y0089908D01*
X0205772Y0089841D01*
X0205800Y0089776D01*
X0205831Y0089712D01*
X0205866Y0089650D01*
X0205904Y0089590D01*
X0205945Y0089532D01*
X0205989Y0089477D01*
X0206037Y0089424D01*
X0206087Y0089374D01*
X0206139Y0089326D01*
X0206194Y0089281D01*
X0206252Y0089240D01*
X0206312Y0089201D01*
X0206373Y0089166D01*
X0206437Y0089134D01*
X0206502Y0089106D01*
X0206568Y0089081D01*
X0208880Y0082394D02*
X0209021Y0082396D01*
X0209161Y0082402D01*
X0209302Y0082411D01*
X0209442Y0082424D01*
X0209582Y0082441D01*
X0209721Y0082461D01*
X0209859Y0082486D01*
X0209997Y0082514D01*
X0210134Y0082545D01*
X0210271Y0082581D01*
X0210406Y0082620D01*
X0210540Y0082662D01*
X0210673Y0082708D01*
X0210805Y0082758D01*
X0210935Y0082811D01*
X0211064Y0082867D01*
X0211191Y0082927D01*
X0210658Y0082749D02*
X0207102Y0085594D01*
X0206568Y0085416D02*
X0206502Y0085391D01*
X0206437Y0085363D01*
X0206373Y0085331D01*
X0206312Y0085296D01*
X0206252Y0085257D01*
X0206194Y0085216D01*
X0206139Y0085171D01*
X0206087Y0085123D01*
X0206037Y0085073D01*
X0205989Y0085020D01*
X0205945Y0084965D01*
X0205904Y0084907D01*
X0205866Y0084847D01*
X0205831Y0084785D01*
X0205800Y0084721D01*
X0205772Y0084656D01*
X0205747Y0084589D01*
X0205727Y0084522D01*
X0205710Y0084453D01*
X0205696Y0084383D01*
X0205687Y0084313D01*
X0205681Y0084242D01*
X0205679Y0084171D01*
X0205681Y0084100D01*
X0205687Y0084029D01*
X0205696Y0083959D01*
X0205710Y0083889D01*
X0205727Y0083820D01*
X0205747Y0083753D01*
X0205772Y0083686D01*
X0205800Y0083621D01*
X0205831Y0083557D01*
X0205866Y0083495D01*
X0205904Y0083435D01*
X0205945Y0083377D01*
X0205989Y0083322D01*
X0206037Y0083269D01*
X0206087Y0083219D01*
X0206139Y0083171D01*
X0206194Y0083126D01*
X0206252Y0083085D01*
X0206312Y0083046D01*
X0206373Y0083011D01*
X0206437Y0082979D01*
X0206502Y0082951D01*
X0206568Y0082926D01*
X0206569Y0085416D02*
X0206696Y0085476D01*
X0206825Y0085532D01*
X0206955Y0085585D01*
X0207087Y0085635D01*
X0207220Y0085681D01*
X0207354Y0085723D01*
X0207489Y0085762D01*
X0207626Y0085798D01*
X0207763Y0085829D01*
X0207901Y0085857D01*
X0208039Y0085882D01*
X0208178Y0085902D01*
X0208318Y0085919D01*
X0208458Y0085932D01*
X0208599Y0085941D01*
X0208739Y0085947D01*
X0208880Y0085949D01*
X0211191Y0091570D02*
X0211064Y0091630D01*
X0210935Y0091686D01*
X0210805Y0091739D01*
X0210673Y0091789D01*
X0210540Y0091835D01*
X0210406Y0091877D01*
X0210271Y0091916D01*
X0210134Y0091952D01*
X0209997Y0091983D01*
X0209859Y0092011D01*
X0209721Y0092036D01*
X0209582Y0092056D01*
X0209442Y0092073D01*
X0209302Y0092086D01*
X0209161Y0092095D01*
X0209021Y0092101D01*
X0208880Y0092103D01*
X0208880Y0088548D02*
X0208739Y0088550D01*
X0208599Y0088556D01*
X0208458Y0088565D01*
X0208318Y0088578D01*
X0208178Y0088595D01*
X0208039Y0088615D01*
X0207901Y0088640D01*
X0207763Y0088668D01*
X0207626Y0088699D01*
X0207489Y0088735D01*
X0207354Y0088774D01*
X0207220Y0088816D01*
X0207087Y0088862D01*
X0206955Y0088912D01*
X0206825Y0088965D01*
X0206696Y0089021D01*
X0206569Y0089081D01*
X0206569Y0082927D02*
X0206696Y0082867D01*
X0206825Y0082811D01*
X0206955Y0082758D01*
X0207087Y0082708D01*
X0207220Y0082662D01*
X0207354Y0082620D01*
X0207489Y0082581D01*
X0207626Y0082545D01*
X0207763Y0082514D01*
X0207901Y0082486D01*
X0208039Y0082461D01*
X0208178Y0082441D01*
X0208318Y0082424D01*
X0208458Y0082411D01*
X0208599Y0082402D01*
X0208739Y0082396D01*
X0208880Y0082394D01*
X0208880Y0085949D02*
X0209021Y0085947D01*
X0209161Y0085941D01*
X0209302Y0085932D01*
X0209442Y0085919D01*
X0209582Y0085902D01*
X0209721Y0085882D01*
X0209859Y0085857D01*
X0209997Y0085829D01*
X0210134Y0085798D01*
X0210271Y0085762D01*
X0210406Y0085723D01*
X0210540Y0085681D01*
X0210673Y0085635D01*
X0210805Y0085585D01*
X0210935Y0085532D01*
X0211064Y0085476D01*
X0211191Y0085416D01*
X0211257Y0085391D01*
X0211322Y0085363D01*
X0211386Y0085331D01*
X0211447Y0085296D01*
X0211507Y0085257D01*
X0211565Y0085216D01*
X0211620Y0085171D01*
X0211672Y0085123D01*
X0211722Y0085073D01*
X0211770Y0085020D01*
X0211814Y0084964D01*
X0211855Y0084907D01*
X0211893Y0084847D01*
X0211928Y0084785D01*
X0211959Y0084721D01*
X0211987Y0084656D01*
X0212012Y0084589D01*
X0212032Y0084522D01*
X0212049Y0084453D01*
X0212063Y0084383D01*
X0212072Y0084313D01*
X0212078Y0084242D01*
X0212080Y0084171D01*
X0212078Y0084100D01*
X0212072Y0084029D01*
X0212063Y0083959D01*
X0212049Y0083889D01*
X0212032Y0083820D01*
X0212012Y0083753D01*
X0211987Y0083686D01*
X0211959Y0083621D01*
X0211928Y0083557D01*
X0211893Y0083495D01*
X0211855Y0083435D01*
X0211814Y0083377D01*
X0211770Y0083322D01*
X0211722Y0083269D01*
X0211672Y0083219D01*
X0211620Y0083171D01*
X0211565Y0083126D01*
X0211507Y0083085D01*
X0211447Y0083046D01*
X0211386Y0083011D01*
X0211322Y0082979D01*
X0211257Y0082951D01*
X0211191Y0082926D01*
X0211724Y0080041D02*
X0212080Y0080041D01*
X0212080Y0079686D01*
X0211724Y0079686D01*
X0211724Y0080041D01*
X0211191Y0074311D02*
X0211064Y0074251D01*
X0210935Y0074195D01*
X0210805Y0074142D01*
X0210673Y0074092D01*
X0210540Y0074046D01*
X0210406Y0074004D01*
X0210271Y0073965D01*
X0210134Y0073929D01*
X0209997Y0073898D01*
X0209859Y0073870D01*
X0209721Y0073845D01*
X0209582Y0073825D01*
X0209442Y0073808D01*
X0209302Y0073795D01*
X0209161Y0073786D01*
X0209021Y0073780D01*
X0208880Y0073778D01*
X0208880Y0077334D02*
X0208739Y0077332D01*
X0208599Y0077326D01*
X0208458Y0077317D01*
X0208318Y0077304D01*
X0208178Y0077287D01*
X0208039Y0077267D01*
X0207901Y0077242D01*
X0207763Y0077214D01*
X0207626Y0077183D01*
X0207489Y0077147D01*
X0207354Y0077108D01*
X0207220Y0077066D01*
X0207087Y0077020D01*
X0206955Y0076970D01*
X0206825Y0076917D01*
X0206696Y0076861D01*
X0206569Y0076801D01*
X0207102Y0076978D02*
X0210658Y0074134D01*
X0212080Y0075556D02*
X0212078Y0075627D01*
X0212072Y0075698D01*
X0212063Y0075768D01*
X0212049Y0075838D01*
X0212032Y0075907D01*
X0212012Y0075974D01*
X0211987Y0076041D01*
X0211959Y0076106D01*
X0211928Y0076170D01*
X0211893Y0076232D01*
X0211855Y0076292D01*
X0211814Y0076349D01*
X0211770Y0076405D01*
X0211722Y0076458D01*
X0211672Y0076508D01*
X0211620Y0076556D01*
X0211565Y0076601D01*
X0211507Y0076642D01*
X0211447Y0076681D01*
X0211386Y0076716D01*
X0211322Y0076748D01*
X0211257Y0076776D01*
X0211191Y0076801D01*
X0212080Y0075556D02*
X0212078Y0075485D01*
X0212072Y0075414D01*
X0212063Y0075344D01*
X0212049Y0075274D01*
X0212032Y0075205D01*
X0212012Y0075138D01*
X0211987Y0075071D01*
X0211959Y0075006D01*
X0211928Y0074942D01*
X0211893Y0074880D01*
X0211855Y0074820D01*
X0211814Y0074762D01*
X0211770Y0074707D01*
X0211722Y0074654D01*
X0211672Y0074604D01*
X0211620Y0074556D01*
X0211565Y0074511D01*
X0211507Y0074470D01*
X0211447Y0074431D01*
X0211386Y0074396D01*
X0211322Y0074364D01*
X0211257Y0074336D01*
X0211191Y0074311D01*
X0211191Y0076800D02*
X0211064Y0076860D01*
X0210935Y0076916D01*
X0210805Y0076969D01*
X0210673Y0077019D01*
X0210540Y0077065D01*
X0210406Y0077107D01*
X0210271Y0077146D01*
X0210134Y0077182D01*
X0209997Y0077213D01*
X0209859Y0077241D01*
X0209721Y0077266D01*
X0209582Y0077286D01*
X0209442Y0077303D01*
X0209302Y0077316D01*
X0209161Y0077325D01*
X0209021Y0077331D01*
X0208880Y0077333D01*
X0208880Y0073778D02*
X0208739Y0073780D01*
X0208599Y0073786D01*
X0208458Y0073795D01*
X0208318Y0073808D01*
X0208178Y0073825D01*
X0208039Y0073845D01*
X0207901Y0073870D01*
X0207763Y0073898D01*
X0207626Y0073929D01*
X0207489Y0073965D01*
X0207354Y0074004D01*
X0207220Y0074046D01*
X0207087Y0074092D01*
X0206955Y0074142D01*
X0206825Y0074195D01*
X0206696Y0074251D01*
X0206569Y0074311D01*
X0206568Y0074311D02*
X0206502Y0074336D01*
X0206437Y0074364D01*
X0206373Y0074396D01*
X0206312Y0074431D01*
X0206252Y0074470D01*
X0206194Y0074511D01*
X0206139Y0074556D01*
X0206087Y0074604D01*
X0206037Y0074654D01*
X0205989Y0074707D01*
X0205945Y0074762D01*
X0205904Y0074820D01*
X0205866Y0074880D01*
X0205831Y0074942D01*
X0205800Y0075006D01*
X0205772Y0075071D01*
X0205747Y0075138D01*
X0205727Y0075205D01*
X0205710Y0075274D01*
X0205696Y0075344D01*
X0205687Y0075414D01*
X0205681Y0075485D01*
X0205679Y0075556D01*
X0205681Y0075627D01*
X0205687Y0075698D01*
X0205696Y0075768D01*
X0205710Y0075838D01*
X0205727Y0075907D01*
X0205747Y0075974D01*
X0205772Y0076041D01*
X0205800Y0076106D01*
X0205831Y0076170D01*
X0205866Y0076232D01*
X0205904Y0076292D01*
X0205945Y0076350D01*
X0205989Y0076405D01*
X0206037Y0076458D01*
X0206087Y0076508D01*
X0206139Y0076556D01*
X0206194Y0076601D01*
X0206252Y0076642D01*
X0206312Y0076681D01*
X0206373Y0076716D01*
X0206437Y0076748D01*
X0206502Y0076776D01*
X0206568Y0076801D01*
X0205680Y0069757D02*
X0205682Y0069831D01*
X0205688Y0069906D01*
X0205698Y0069979D01*
X0205711Y0070053D01*
X0205728Y0070125D01*
X0205750Y0070196D01*
X0205774Y0070267D01*
X0205803Y0070335D01*
X0205835Y0070403D01*
X0205871Y0070468D01*
X0205909Y0070531D01*
X0205952Y0070593D01*
X0205997Y0070652D01*
X0206045Y0070709D01*
X0206096Y0070763D01*
X0206150Y0070814D01*
X0206207Y0070862D01*
X0206266Y0070907D01*
X0206328Y0070950D01*
X0206391Y0070988D01*
X0206456Y0071024D01*
X0206524Y0071056D01*
X0206592Y0071085D01*
X0206663Y0071109D01*
X0206734Y0071131D01*
X0206806Y0071148D01*
X0206880Y0071161D01*
X0206953Y0071171D01*
X0207028Y0071177D01*
X0207102Y0071179D01*
X0207176Y0071177D01*
X0207251Y0071171D01*
X0207324Y0071161D01*
X0207398Y0071148D01*
X0207470Y0071131D01*
X0207541Y0071109D01*
X0207612Y0071085D01*
X0207680Y0071056D01*
X0207748Y0071024D01*
X0207813Y0070988D01*
X0207876Y0070950D01*
X0207938Y0070907D01*
X0207997Y0070862D01*
X0208054Y0070814D01*
X0208108Y0070763D01*
X0208159Y0070709D01*
X0208207Y0070652D01*
X0208252Y0070593D01*
X0208295Y0070531D01*
X0208333Y0070468D01*
X0208369Y0070403D01*
X0208401Y0070335D01*
X0208430Y0070267D01*
X0208454Y0070196D01*
X0208476Y0070125D01*
X0208493Y0070053D01*
X0208506Y0069979D01*
X0208516Y0069906D01*
X0208522Y0069831D01*
X0208524Y0069757D01*
X0208524Y0068335D01*
X0208524Y0069402D02*
X0208526Y0069485D01*
X0208532Y0069568D01*
X0208542Y0069651D01*
X0208555Y0069734D01*
X0208573Y0069815D01*
X0208594Y0069896D01*
X0208619Y0069975D01*
X0208648Y0070053D01*
X0208680Y0070130D01*
X0208716Y0070205D01*
X0208755Y0070279D01*
X0208798Y0070350D01*
X0208844Y0070420D01*
X0208894Y0070487D01*
X0208946Y0070552D01*
X0209001Y0070614D01*
X0209060Y0070674D01*
X0209121Y0070731D01*
X0209184Y0070785D01*
X0209250Y0070836D01*
X0209319Y0070883D01*
X0209389Y0070928D01*
X0209462Y0070969D01*
X0209536Y0071006D01*
X0209612Y0071041D01*
X0209690Y0071071D01*
X0209768Y0071098D01*
X0209849Y0071121D01*
X0209930Y0071141D01*
X0210012Y0071156D01*
X0210094Y0071168D01*
X0210177Y0071176D01*
X0210260Y0071180D01*
X0210344Y0071180D01*
X0210427Y0071176D01*
X0210510Y0071168D01*
X0210592Y0071156D01*
X0210674Y0071141D01*
X0210755Y0071121D01*
X0210836Y0071098D01*
X0210914Y0071071D01*
X0210992Y0071041D01*
X0211068Y0071006D01*
X0211142Y0070969D01*
X0211215Y0070928D01*
X0211285Y0070883D01*
X0211354Y0070836D01*
X0211420Y0070785D01*
X0211483Y0070731D01*
X0211544Y0070674D01*
X0211603Y0070614D01*
X0211658Y0070552D01*
X0211710Y0070487D01*
X0211760Y0070420D01*
X0211806Y0070350D01*
X0211849Y0070279D01*
X0211888Y0070205D01*
X0211924Y0070130D01*
X0211956Y0070053D01*
X0211985Y0069975D01*
X0212010Y0069896D01*
X0212031Y0069815D01*
X0212049Y0069734D01*
X0212062Y0069651D01*
X0212072Y0069568D01*
X0212078Y0069485D01*
X0212080Y0069402D01*
X0212080Y0067624D01*
X0205680Y0067624D02*
X0205680Y0069757D01*
X0201231Y0064435D02*
X0177861Y0064435D01*
X0177861Y0063837D02*
X0201231Y0063837D01*
X0201231Y0063238D02*
X0177737Y0063238D01*
X0177489Y0062640D02*
X0201231Y0062640D01*
X0201231Y0062041D02*
X0177462Y0062041D01*
X0177462Y0061443D02*
X0201231Y0061443D01*
X0201231Y0060844D02*
X0177462Y0060844D01*
X0177462Y0060246D02*
X0201231Y0060246D01*
X0201231Y0059647D02*
X0177462Y0059647D01*
X0178963Y0059049D02*
X0179454Y0059049D01*
X0175862Y0056177D02*
X0175862Y0048303D01*
X0186020Y0058450D02*
X0201231Y0058450D01*
X0201231Y0059049D02*
X0185656Y0059049D01*
X0163381Y0070421D02*
X0162831Y0070421D01*
X0162831Y0071019D02*
X0163381Y0071019D01*
X0163002Y0071618D02*
X0162831Y0071618D01*
X0163461Y0073421D02*
X0163461Y0079799D01*
X0159524Y0083736D01*
X0155587Y0083736D01*
X0153219Y0084785D02*
X0152864Y0084785D01*
X0152312Y0085336D02*
X0152312Y0085336D01*
X0152265Y0085383D02*
X0153572Y0085383D01*
X0154243Y0085982D02*
X0151667Y0085982D01*
X0150224Y0088376D02*
X0169735Y0088376D01*
X0169735Y0088974D02*
X0149976Y0088974D01*
X0149474Y0089573D02*
X0169735Y0089573D01*
X0169735Y0090171D02*
X0148447Y0090171D01*
X0138357Y0078201D02*
X0138035Y0078201D01*
X0137705Y0077603D02*
X0137436Y0077603D01*
X0124897Y0118301D02*
X0122596Y0118301D01*
X0122743Y0118900D02*
X0125495Y0118900D01*
X0126073Y0119498D02*
X0122743Y0119498D01*
X0118687Y0116974D02*
X0117959Y0117703D01*
X0112522Y0149290D02*
X0112166Y0149290D01*
X0112166Y0149646D01*
X0112522Y0149646D01*
X0112522Y0149290D01*
X0115230Y0150712D02*
X0118074Y0154268D01*
X0117897Y0154802D02*
X0117872Y0154868D01*
X0117844Y0154933D01*
X0117812Y0154997D01*
X0117777Y0155058D01*
X0117738Y0155118D01*
X0117697Y0155176D01*
X0117652Y0155231D01*
X0117604Y0155283D01*
X0117554Y0155333D01*
X0117501Y0155381D01*
X0117446Y0155425D01*
X0117388Y0155466D01*
X0117328Y0155504D01*
X0117266Y0155539D01*
X0117202Y0155570D01*
X0117137Y0155598D01*
X0117070Y0155623D01*
X0117003Y0155643D01*
X0116934Y0155660D01*
X0116864Y0155674D01*
X0116794Y0155683D01*
X0116723Y0155689D01*
X0116652Y0155691D01*
X0116581Y0155689D01*
X0116510Y0155683D01*
X0116440Y0155674D01*
X0116370Y0155660D01*
X0116301Y0155643D01*
X0116234Y0155623D01*
X0116167Y0155598D01*
X0116102Y0155570D01*
X0116038Y0155539D01*
X0115976Y0155504D01*
X0115916Y0155466D01*
X0115858Y0155425D01*
X0115803Y0155381D01*
X0115750Y0155333D01*
X0115700Y0155283D01*
X0115652Y0155231D01*
X0115607Y0155176D01*
X0115566Y0155118D01*
X0115527Y0155058D01*
X0115492Y0154997D01*
X0115460Y0154933D01*
X0115432Y0154868D01*
X0115407Y0154802D01*
X0117896Y0154801D02*
X0117956Y0154674D01*
X0118012Y0154545D01*
X0118065Y0154415D01*
X0118115Y0154283D01*
X0118161Y0154150D01*
X0118203Y0154016D01*
X0118242Y0153881D01*
X0118278Y0153744D01*
X0118309Y0153607D01*
X0118337Y0153469D01*
X0118362Y0153331D01*
X0118382Y0153192D01*
X0118399Y0153052D01*
X0118412Y0152912D01*
X0118421Y0152771D01*
X0118427Y0152631D01*
X0118429Y0152490D01*
X0124050Y0150179D02*
X0124110Y0150306D01*
X0124166Y0150435D01*
X0124219Y0150565D01*
X0124269Y0150697D01*
X0124315Y0150830D01*
X0124357Y0150964D01*
X0124396Y0151099D01*
X0124432Y0151236D01*
X0124463Y0151373D01*
X0124491Y0151511D01*
X0124516Y0151649D01*
X0124536Y0151788D01*
X0124553Y0151928D01*
X0124566Y0152068D01*
X0124575Y0152209D01*
X0124581Y0152349D01*
X0124583Y0152490D01*
X0121028Y0152490D02*
X0121030Y0152631D01*
X0121036Y0152771D01*
X0121045Y0152912D01*
X0121058Y0153052D01*
X0121075Y0153192D01*
X0121095Y0153331D01*
X0121120Y0153469D01*
X0121148Y0153607D01*
X0121179Y0153744D01*
X0121215Y0153881D01*
X0121254Y0154016D01*
X0121296Y0154150D01*
X0121342Y0154283D01*
X0121392Y0154415D01*
X0121445Y0154545D01*
X0121501Y0154674D01*
X0121561Y0154801D01*
X0121561Y0154802D02*
X0121586Y0154868D01*
X0121614Y0154933D01*
X0121646Y0154997D01*
X0121681Y0155058D01*
X0121720Y0155118D01*
X0121761Y0155176D01*
X0121806Y0155231D01*
X0121854Y0155283D01*
X0121904Y0155333D01*
X0121957Y0155381D01*
X0122012Y0155425D01*
X0122070Y0155466D01*
X0122130Y0155504D01*
X0122192Y0155539D01*
X0122256Y0155570D01*
X0122321Y0155598D01*
X0122388Y0155623D01*
X0122455Y0155643D01*
X0122524Y0155660D01*
X0122594Y0155674D01*
X0122664Y0155683D01*
X0122735Y0155689D01*
X0122806Y0155691D01*
X0122877Y0155689D01*
X0122948Y0155683D01*
X0123018Y0155674D01*
X0123088Y0155660D01*
X0123157Y0155643D01*
X0123224Y0155623D01*
X0123291Y0155598D01*
X0123356Y0155570D01*
X0123420Y0155539D01*
X0123482Y0155504D01*
X0123542Y0155466D01*
X0123600Y0155425D01*
X0123655Y0155381D01*
X0123708Y0155333D01*
X0123758Y0155283D01*
X0123806Y0155231D01*
X0123851Y0155176D01*
X0123892Y0155118D01*
X0123931Y0155058D01*
X0123966Y0154997D01*
X0123998Y0154933D01*
X0124026Y0154868D01*
X0124051Y0154802D01*
X0124228Y0154268D02*
X0121384Y0150712D01*
X0122806Y0149290D02*
X0122877Y0149292D01*
X0122948Y0149298D01*
X0123018Y0149307D01*
X0123088Y0149321D01*
X0123157Y0149338D01*
X0123224Y0149358D01*
X0123291Y0149383D01*
X0123356Y0149411D01*
X0123420Y0149442D01*
X0123482Y0149477D01*
X0123542Y0149515D01*
X0123599Y0149556D01*
X0123655Y0149600D01*
X0123708Y0149648D01*
X0123758Y0149698D01*
X0123806Y0149750D01*
X0123851Y0149805D01*
X0123892Y0149863D01*
X0123931Y0149923D01*
X0123966Y0149984D01*
X0123998Y0150048D01*
X0124026Y0150113D01*
X0124051Y0150179D01*
X0122806Y0149290D02*
X0122735Y0149292D01*
X0122664Y0149298D01*
X0122594Y0149307D01*
X0122524Y0149321D01*
X0122455Y0149338D01*
X0122388Y0149358D01*
X0122321Y0149383D01*
X0122256Y0149411D01*
X0122192Y0149442D01*
X0122130Y0149477D01*
X0122070Y0149515D01*
X0122012Y0149556D01*
X0121957Y0149600D01*
X0121904Y0149648D01*
X0121854Y0149698D01*
X0121806Y0149750D01*
X0121761Y0149805D01*
X0121720Y0149863D01*
X0121681Y0149923D01*
X0121646Y0149984D01*
X0121614Y0150048D01*
X0121586Y0150113D01*
X0121561Y0150179D01*
X0115407Y0150179D02*
X0115347Y0150306D01*
X0115291Y0150435D01*
X0115238Y0150565D01*
X0115188Y0150697D01*
X0115142Y0150830D01*
X0115100Y0150964D01*
X0115061Y0151099D01*
X0115025Y0151236D01*
X0114994Y0151373D01*
X0114966Y0151511D01*
X0114941Y0151649D01*
X0114921Y0151788D01*
X0114904Y0151928D01*
X0114891Y0152068D01*
X0114882Y0152209D01*
X0114876Y0152349D01*
X0114874Y0152490D01*
X0118429Y0152490D02*
X0118427Y0152349D01*
X0118421Y0152209D01*
X0118412Y0152068D01*
X0118399Y0151928D01*
X0118382Y0151788D01*
X0118362Y0151649D01*
X0118337Y0151511D01*
X0118309Y0151373D01*
X0118278Y0151236D01*
X0118242Y0151099D01*
X0118203Y0150964D01*
X0118161Y0150830D01*
X0118115Y0150697D01*
X0118065Y0150565D01*
X0118012Y0150435D01*
X0117956Y0150306D01*
X0117896Y0150179D01*
X0117897Y0150179D02*
X0117872Y0150113D01*
X0117844Y0150048D01*
X0117812Y0149984D01*
X0117777Y0149923D01*
X0117738Y0149863D01*
X0117697Y0149805D01*
X0117652Y0149750D01*
X0117604Y0149698D01*
X0117554Y0149648D01*
X0117501Y0149600D01*
X0117445Y0149556D01*
X0117388Y0149515D01*
X0117328Y0149477D01*
X0117266Y0149442D01*
X0117202Y0149411D01*
X0117137Y0149383D01*
X0117070Y0149358D01*
X0117003Y0149338D01*
X0116934Y0149321D01*
X0116864Y0149307D01*
X0116794Y0149298D01*
X0116723Y0149292D01*
X0116652Y0149290D01*
X0116581Y0149292D01*
X0116510Y0149298D01*
X0116440Y0149307D01*
X0116370Y0149321D01*
X0116301Y0149338D01*
X0116234Y0149358D01*
X0116167Y0149383D01*
X0116102Y0149411D01*
X0116038Y0149442D01*
X0115976Y0149477D01*
X0115916Y0149515D01*
X0115858Y0149556D01*
X0115803Y0149600D01*
X0115750Y0149648D01*
X0115700Y0149698D01*
X0115652Y0149750D01*
X0115607Y0149805D01*
X0115566Y0149863D01*
X0115527Y0149923D01*
X0115492Y0149984D01*
X0115460Y0150048D01*
X0115432Y0150113D01*
X0115407Y0150179D01*
X0124584Y0152490D02*
X0124582Y0152631D01*
X0124576Y0152771D01*
X0124567Y0152912D01*
X0124554Y0153052D01*
X0124537Y0153192D01*
X0124517Y0153331D01*
X0124492Y0153469D01*
X0124464Y0153607D01*
X0124433Y0153744D01*
X0124397Y0153881D01*
X0124358Y0154016D01*
X0124316Y0154150D01*
X0124270Y0154283D01*
X0124220Y0154415D01*
X0124167Y0154545D01*
X0124111Y0154674D01*
X0124051Y0154801D01*
X0121028Y0152490D02*
X0121030Y0152349D01*
X0121036Y0152209D01*
X0121045Y0152068D01*
X0121058Y0151928D01*
X0121075Y0151788D01*
X0121095Y0151649D01*
X0121120Y0151511D01*
X0121148Y0151373D01*
X0121179Y0151236D01*
X0121215Y0151099D01*
X0121254Y0150964D01*
X0121296Y0150830D01*
X0121342Y0150697D01*
X0121392Y0150565D01*
X0121445Y0150435D01*
X0121501Y0150306D01*
X0121561Y0150179D01*
X0114874Y0152490D02*
X0114876Y0152631D01*
X0114882Y0152771D01*
X0114891Y0152912D01*
X0114904Y0153052D01*
X0114921Y0153192D01*
X0114941Y0153331D01*
X0114966Y0153469D01*
X0114994Y0153607D01*
X0115025Y0153744D01*
X0115061Y0153881D01*
X0115100Y0154016D01*
X0115142Y0154150D01*
X0115188Y0154283D01*
X0115238Y0154415D01*
X0115291Y0154545D01*
X0115347Y0154674D01*
X0115407Y0154801D01*
X0109814Y0151423D02*
X0109814Y0151068D01*
X0109814Y0151423D02*
X0109812Y0151497D01*
X0109806Y0151572D01*
X0109796Y0151645D01*
X0109783Y0151719D01*
X0109766Y0151791D01*
X0109744Y0151862D01*
X0109720Y0151933D01*
X0109691Y0152001D01*
X0109659Y0152069D01*
X0109623Y0152134D01*
X0109585Y0152197D01*
X0109542Y0152259D01*
X0109497Y0152318D01*
X0109449Y0152375D01*
X0109398Y0152429D01*
X0109344Y0152480D01*
X0109287Y0152528D01*
X0109228Y0152573D01*
X0109166Y0152616D01*
X0109103Y0152654D01*
X0109038Y0152690D01*
X0108970Y0152722D01*
X0108902Y0152751D01*
X0108831Y0152775D01*
X0108760Y0152797D01*
X0108688Y0152814D01*
X0108614Y0152827D01*
X0108541Y0152837D01*
X0108466Y0152843D01*
X0108392Y0152845D01*
X0108392Y0152846D02*
X0106258Y0152846D01*
X0106258Y0151068D01*
X0106260Y0150985D01*
X0106266Y0150902D01*
X0106276Y0150819D01*
X0106289Y0150736D01*
X0106307Y0150655D01*
X0106328Y0150574D01*
X0106353Y0150495D01*
X0106382Y0150417D01*
X0106414Y0150340D01*
X0106450Y0150265D01*
X0106489Y0150191D01*
X0106532Y0150120D01*
X0106578Y0150050D01*
X0106628Y0149983D01*
X0106680Y0149918D01*
X0106735Y0149856D01*
X0106794Y0149796D01*
X0106855Y0149739D01*
X0106918Y0149685D01*
X0106984Y0149634D01*
X0107053Y0149587D01*
X0107123Y0149542D01*
X0107196Y0149501D01*
X0107270Y0149464D01*
X0107346Y0149429D01*
X0107424Y0149399D01*
X0107502Y0149372D01*
X0107583Y0149349D01*
X0107664Y0149329D01*
X0107746Y0149314D01*
X0107828Y0149302D01*
X0107911Y0149294D01*
X0107994Y0149290D01*
X0108078Y0149290D01*
X0108161Y0149294D01*
X0108244Y0149302D01*
X0108326Y0149314D01*
X0108408Y0149329D01*
X0108489Y0149349D01*
X0108570Y0149372D01*
X0108648Y0149399D01*
X0108726Y0149429D01*
X0108802Y0149464D01*
X0108876Y0149501D01*
X0108949Y0149542D01*
X0109019Y0149587D01*
X0109088Y0149634D01*
X0109154Y0149685D01*
X0109217Y0149739D01*
X0109278Y0149796D01*
X0109337Y0149856D01*
X0109392Y0149918D01*
X0109444Y0149983D01*
X0109494Y0150050D01*
X0109540Y0150120D01*
X0109583Y0150191D01*
X0109622Y0150265D01*
X0109658Y0150340D01*
X0109690Y0150417D01*
X0109719Y0150495D01*
X0109744Y0150574D01*
X0109765Y0150655D01*
X0109783Y0150736D01*
X0109796Y0150819D01*
X0109806Y0150902D01*
X0109812Y0150985D01*
X0109814Y0151068D01*
X0106259Y0152846D02*
X0106261Y0152952D01*
X0106267Y0153059D01*
X0106277Y0153164D01*
X0106291Y0153270D01*
X0106309Y0153375D01*
X0106330Y0153479D01*
X0106356Y0153582D01*
X0106385Y0153684D01*
X0106419Y0153785D01*
X0106456Y0153885D01*
X0106496Y0153983D01*
X0106541Y0154080D01*
X0106589Y0154175D01*
X0106640Y0154268D01*
X0106695Y0154359D01*
X0106753Y0154448D01*
X0106815Y0154535D01*
X0106879Y0154619D01*
X0106947Y0154701D01*
X0107018Y0154780D01*
X0107092Y0154857D01*
X0107169Y0154931D01*
X0107248Y0155002D01*
X0107330Y0155070D01*
X0107414Y0155134D01*
X0107501Y0155196D01*
X0107590Y0155254D01*
X0107681Y0155309D01*
X0107774Y0155360D01*
X0107869Y0155408D01*
X0107966Y0155453D01*
X0108064Y0155493D01*
X0108164Y0155530D01*
X0108265Y0155564D01*
X0108367Y0155593D01*
X0108470Y0155619D01*
X0108574Y0155640D01*
X0108679Y0155658D01*
X0108785Y0155672D01*
X0108890Y0155682D01*
X0108997Y0155688D01*
X0109103Y0155690D01*
X0103660Y0150712D02*
X0100104Y0150712D01*
X0101527Y0155690D01*
X0102593Y0152135D02*
X0102593Y0149290D01*
X0206569Y0091570D02*
X0206696Y0091630D01*
X0206825Y0091686D01*
X0206955Y0091739D01*
X0207087Y0091789D01*
X0207220Y0091835D01*
X0207354Y0091877D01*
X0207489Y0091916D01*
X0207626Y0091952D01*
X0207763Y0091983D01*
X0207901Y0092011D01*
X0208039Y0092036D01*
X0208178Y0092056D01*
X0208318Y0092073D01*
X0208458Y0092086D01*
X0208599Y0092095D01*
X0208739Y0092101D01*
X0208880Y0092103D01*
X0211191Y0091571D02*
X0211257Y0091546D01*
X0211322Y0091518D01*
X0211386Y0091486D01*
X0211447Y0091451D01*
X0211507Y0091412D01*
X0211565Y0091371D01*
X0211620Y0091326D01*
X0211672Y0091278D01*
X0211722Y0091228D01*
X0211770Y0091175D01*
X0211814Y0091119D01*
X0211855Y0091062D01*
X0211893Y0091002D01*
X0211928Y0090940D01*
X0211959Y0090876D01*
X0211987Y0090811D01*
X0212012Y0090744D01*
X0212032Y0090677D01*
X0212049Y0090608D01*
X0212063Y0090538D01*
X0212072Y0090468D01*
X0212078Y0090397D01*
X0212080Y0090326D01*
X0212078Y0090255D01*
X0212072Y0090184D01*
X0212063Y0090114D01*
X0212049Y0090044D01*
X0212032Y0089975D01*
X0212012Y0089908D01*
X0211987Y0089841D01*
X0211959Y0089776D01*
X0211928Y0089712D01*
X0211893Y0089650D01*
X0211855Y0089590D01*
X0211814Y0089532D01*
X0211770Y0089477D01*
X0211722Y0089424D01*
X0211672Y0089374D01*
X0211620Y0089326D01*
X0211565Y0089281D01*
X0211507Y0089240D01*
X0211447Y0089201D01*
X0211386Y0089166D01*
X0211322Y0089134D01*
X0211257Y0089106D01*
X0211191Y0089081D01*
D11*
X0021472Y0008933D02*
X0001256Y0008933D01*
X0011492Y0008421D02*
X0021472Y0008933D01*
X0011492Y0007909D01*
X0011492Y0007676D02*
X0021472Y0008933D01*
X0011492Y0009957D01*
X0011492Y0010190D02*
X0011492Y0007676D01*
X0011492Y0009445D02*
X0021472Y0008933D01*
X0011492Y0010190D01*
X0021728Y0001256D02*
X0021728Y0020744D01*
X0033539Y0020744D02*
X0033539Y0001256D01*
X0033795Y0008933D02*
X0043776Y0007909D01*
X0043776Y0007676D02*
X0033795Y0008933D01*
X0043776Y0009957D01*
X0043776Y0010190D02*
X0043776Y0007676D01*
X0043776Y0008421D02*
X0033795Y0008933D01*
X0043776Y0009445D01*
X0043776Y0010190D02*
X0033795Y0008933D01*
X0063244Y0008933D01*
X0021728Y0083736D02*
X0006177Y0083736D01*
X0013854Y0083992D02*
X0014878Y0093972D01*
X0015111Y0093972D02*
X0013854Y0083992D01*
X0012831Y0093972D01*
X0012597Y0093972D02*
X0015111Y0093972D01*
X0014366Y0093972D02*
X0013854Y0083992D01*
X0013343Y0093972D01*
X0012597Y0093972D02*
X0013854Y0083992D01*
X0013854Y0138598D01*
X0014878Y0128618D01*
X0015111Y0128618D02*
X0013854Y0138598D01*
X0012831Y0128618D01*
X0012597Y0128618D02*
X0015111Y0128618D01*
X0014366Y0128618D02*
X0013854Y0138598D01*
X0013343Y0128618D01*
X0012597Y0128618D02*
X0013854Y0138598D01*
X0006177Y0138854D02*
X0021728Y0138854D01*
X0021728Y0154406D01*
X0021984Y0146728D02*
X0031965Y0145705D01*
X0031965Y0145471D02*
X0021984Y0146728D01*
X0031965Y0147752D01*
X0031965Y0147985D02*
X0031965Y0145471D01*
X0031965Y0146217D02*
X0021984Y0146728D01*
X0031965Y0147240D01*
X0031965Y0147985D02*
X0021984Y0146728D01*
X0202575Y0146728D01*
X0192594Y0145705D01*
X0192594Y0145471D02*
X0202575Y0146728D01*
X0192594Y0147752D01*
X0192594Y0147985D02*
X0192594Y0145471D01*
X0192594Y0146217D02*
X0202575Y0146728D01*
X0192594Y0147240D01*
X0192594Y0147985D02*
X0202575Y0146728D01*
X0202831Y0154406D02*
X0202831Y0138854D01*
X0222319Y0138854D01*
X0214642Y0138598D02*
X0215665Y0128618D01*
X0215899Y0128618D02*
X0214642Y0138598D01*
X0213618Y0128618D01*
X0213385Y0128618D02*
X0215899Y0128618D01*
X0215154Y0128618D02*
X0214642Y0138598D01*
X0214130Y0128618D01*
X0213385Y0128618D02*
X0214642Y0138598D01*
X0214642Y0021000D01*
X0215665Y0030980D01*
X0215899Y0030980D02*
X0214642Y0021000D01*
X0213618Y0030980D01*
X0213385Y0030980D02*
X0215899Y0030980D01*
X0215154Y0030980D02*
X0214642Y0021000D01*
X0214130Y0030980D01*
X0213385Y0030980D02*
X0214642Y0021000D01*
X0222319Y0020744D02*
X0202831Y0020744D01*
D12*
X0092594Y0091807D03*
X0092594Y0099287D03*
D13*
X0073264Y0118382D03*
X0065783Y0118382D03*
X0091965Y0130193D03*
X0099445Y0130193D03*
D14*
X0067673Y0110193D03*
X0053106Y0110193D03*
X0045429Y0110193D03*
X0030862Y0110193D03*
D15*
X0061882Y0064055D03*
D16*
X0055469Y0064563D02*
X0052555Y0064563D01*
X0052555Y0065507D01*
X0055469Y0065507D01*
X0055469Y0064563D01*
X0055469Y0064798D02*
X0052555Y0064798D01*
X0052555Y0065033D02*
X0055469Y0065033D01*
X0055469Y0065268D02*
X0052555Y0065268D01*
X0052555Y0065503D02*
X0055469Y0065503D01*
X0055469Y0066532D02*
X0052555Y0066532D01*
X0052555Y0067476D01*
X0055469Y0067476D01*
X0055469Y0066532D01*
X0055469Y0066767D02*
X0052555Y0066767D01*
X0052555Y0067002D02*
X0055469Y0067002D01*
X0055469Y0067237D02*
X0052555Y0067237D01*
X0052555Y0067472D02*
X0055469Y0067472D01*
X0055469Y0068500D02*
X0052555Y0068500D01*
X0052555Y0069444D01*
X0055469Y0069444D01*
X0055469Y0068500D01*
X0055469Y0068735D02*
X0052555Y0068735D01*
X0052555Y0068970D02*
X0055469Y0068970D01*
X0055469Y0069205D02*
X0052555Y0069205D01*
X0052555Y0069440D02*
X0055469Y0069440D01*
X0057437Y0070468D02*
X0057437Y0073382D01*
X0057437Y0070468D02*
X0056493Y0070468D01*
X0056493Y0073382D01*
X0057437Y0073382D01*
X0057437Y0070703D02*
X0056493Y0070703D01*
X0056493Y0070938D02*
X0057437Y0070938D01*
X0057437Y0071173D02*
X0056493Y0071173D01*
X0056493Y0071408D02*
X0057437Y0071408D01*
X0057437Y0071643D02*
X0056493Y0071643D01*
X0056493Y0071878D02*
X0057437Y0071878D01*
X0057437Y0072113D02*
X0056493Y0072113D01*
X0056493Y0072348D02*
X0057437Y0072348D01*
X0057437Y0072583D02*
X0056493Y0072583D01*
X0056493Y0072818D02*
X0057437Y0072818D01*
X0057437Y0073053D02*
X0056493Y0073053D01*
X0056493Y0073288D02*
X0057437Y0073288D01*
X0059405Y0073382D02*
X0059405Y0070468D01*
X0058461Y0070468D01*
X0058461Y0073382D01*
X0059405Y0073382D01*
X0059405Y0070703D02*
X0058461Y0070703D01*
X0058461Y0070938D02*
X0059405Y0070938D01*
X0059405Y0071173D02*
X0058461Y0071173D01*
X0058461Y0071408D02*
X0059405Y0071408D01*
X0059405Y0071643D02*
X0058461Y0071643D01*
X0058461Y0071878D02*
X0059405Y0071878D01*
X0059405Y0072113D02*
X0058461Y0072113D01*
X0058461Y0072348D02*
X0059405Y0072348D01*
X0059405Y0072583D02*
X0058461Y0072583D01*
X0058461Y0072818D02*
X0059405Y0072818D01*
X0059405Y0073053D02*
X0058461Y0073053D01*
X0058461Y0073288D02*
X0059405Y0073288D01*
X0061374Y0073382D02*
X0061374Y0070468D01*
X0060430Y0070468D01*
X0060430Y0073382D01*
X0061374Y0073382D01*
X0061374Y0070703D02*
X0060430Y0070703D01*
X0060430Y0070938D02*
X0061374Y0070938D01*
X0061374Y0071173D02*
X0060430Y0071173D01*
X0060430Y0071408D02*
X0061374Y0071408D01*
X0061374Y0071643D02*
X0060430Y0071643D01*
X0060430Y0071878D02*
X0061374Y0071878D01*
X0061374Y0072113D02*
X0060430Y0072113D01*
X0060430Y0072348D02*
X0061374Y0072348D01*
X0061374Y0072583D02*
X0060430Y0072583D01*
X0060430Y0072818D02*
X0061374Y0072818D01*
X0061374Y0073053D02*
X0060430Y0073053D01*
X0060430Y0073288D02*
X0061374Y0073288D01*
X0063342Y0073382D02*
X0063342Y0070468D01*
X0062398Y0070468D01*
X0062398Y0073382D01*
X0063342Y0073382D01*
X0063342Y0070703D02*
X0062398Y0070703D01*
X0062398Y0070938D02*
X0063342Y0070938D01*
X0063342Y0071173D02*
X0062398Y0071173D01*
X0062398Y0071408D02*
X0063342Y0071408D01*
X0063342Y0071643D02*
X0062398Y0071643D01*
X0062398Y0071878D02*
X0063342Y0071878D01*
X0063342Y0072113D02*
X0062398Y0072113D01*
X0062398Y0072348D02*
X0063342Y0072348D01*
X0063342Y0072583D02*
X0062398Y0072583D01*
X0062398Y0072818D02*
X0063342Y0072818D01*
X0063342Y0073053D02*
X0062398Y0073053D01*
X0062398Y0073288D02*
X0063342Y0073288D01*
X0065311Y0073382D02*
X0065311Y0070468D01*
X0064367Y0070468D01*
X0064367Y0073382D01*
X0065311Y0073382D01*
X0065311Y0070703D02*
X0064367Y0070703D01*
X0064367Y0070938D02*
X0065311Y0070938D01*
X0065311Y0071173D02*
X0064367Y0071173D01*
X0064367Y0071408D02*
X0065311Y0071408D01*
X0065311Y0071643D02*
X0064367Y0071643D01*
X0064367Y0071878D02*
X0065311Y0071878D01*
X0065311Y0072113D02*
X0064367Y0072113D01*
X0064367Y0072348D02*
X0065311Y0072348D01*
X0065311Y0072583D02*
X0064367Y0072583D01*
X0064367Y0072818D02*
X0065311Y0072818D01*
X0065311Y0073053D02*
X0064367Y0073053D01*
X0064367Y0073288D02*
X0065311Y0073288D01*
X0067279Y0073382D02*
X0067279Y0070468D01*
X0066335Y0070468D01*
X0066335Y0073382D01*
X0067279Y0073382D01*
X0067279Y0070703D02*
X0066335Y0070703D01*
X0066335Y0070938D02*
X0067279Y0070938D01*
X0067279Y0071173D02*
X0066335Y0071173D01*
X0066335Y0071408D02*
X0067279Y0071408D01*
X0067279Y0071643D02*
X0066335Y0071643D01*
X0066335Y0071878D02*
X0067279Y0071878D01*
X0067279Y0072113D02*
X0066335Y0072113D01*
X0066335Y0072348D02*
X0067279Y0072348D01*
X0067279Y0072583D02*
X0066335Y0072583D01*
X0066335Y0072818D02*
X0067279Y0072818D01*
X0067279Y0073053D02*
X0066335Y0073053D01*
X0066335Y0073288D02*
X0067279Y0073288D01*
X0068303Y0069444D02*
X0071217Y0069444D01*
X0071217Y0068500D01*
X0068303Y0068500D01*
X0068303Y0069444D01*
X0068303Y0068735D02*
X0071217Y0068735D01*
X0071217Y0068970D02*
X0068303Y0068970D01*
X0068303Y0069205D02*
X0071217Y0069205D01*
X0071217Y0069440D02*
X0068303Y0069440D01*
X0068303Y0067476D02*
X0071217Y0067476D01*
X0071217Y0066532D01*
X0068303Y0066532D01*
X0068303Y0067476D01*
X0068303Y0066767D02*
X0071217Y0066767D01*
X0071217Y0067002D02*
X0068303Y0067002D01*
X0068303Y0067237D02*
X0071217Y0067237D01*
X0071217Y0067472D02*
X0068303Y0067472D01*
X0068303Y0065507D02*
X0071217Y0065507D01*
X0071217Y0064563D01*
X0068303Y0064563D01*
X0068303Y0065507D01*
X0068303Y0064798D02*
X0071217Y0064798D01*
X0071217Y0065033D02*
X0068303Y0065033D01*
X0068303Y0065268D02*
X0071217Y0065268D01*
X0071217Y0065503D02*
X0068303Y0065503D01*
X0068303Y0063539D02*
X0071217Y0063539D01*
X0071217Y0062595D01*
X0068303Y0062595D01*
X0068303Y0063539D01*
X0068303Y0062830D02*
X0071217Y0062830D01*
X0071217Y0063065D02*
X0068303Y0063065D01*
X0068303Y0063300D02*
X0071217Y0063300D01*
X0071217Y0063535D02*
X0068303Y0063535D01*
X0068303Y0061570D02*
X0071217Y0061570D01*
X0071217Y0060626D01*
X0068303Y0060626D01*
X0068303Y0061570D01*
X0068303Y0060861D02*
X0071217Y0060861D01*
X0071217Y0061096D02*
X0068303Y0061096D01*
X0068303Y0061331D02*
X0071217Y0061331D01*
X0071217Y0061566D02*
X0068303Y0061566D01*
X0068303Y0059602D02*
X0071217Y0059602D01*
X0071217Y0058658D01*
X0068303Y0058658D01*
X0068303Y0059602D01*
X0068303Y0058893D02*
X0071217Y0058893D01*
X0071217Y0059128D02*
X0068303Y0059128D01*
X0068303Y0059363D02*
X0071217Y0059363D01*
X0071217Y0059598D02*
X0068303Y0059598D01*
X0066335Y0057634D02*
X0066335Y0054720D01*
X0066335Y0057634D02*
X0067279Y0057634D01*
X0067279Y0054720D01*
X0066335Y0054720D01*
X0066335Y0054955D02*
X0067279Y0054955D01*
X0067279Y0055190D02*
X0066335Y0055190D01*
X0066335Y0055425D02*
X0067279Y0055425D01*
X0067279Y0055660D02*
X0066335Y0055660D01*
X0066335Y0055895D02*
X0067279Y0055895D01*
X0067279Y0056130D02*
X0066335Y0056130D01*
X0066335Y0056365D02*
X0067279Y0056365D01*
X0067279Y0056600D02*
X0066335Y0056600D01*
X0066335Y0056835D02*
X0067279Y0056835D01*
X0067279Y0057070D02*
X0066335Y0057070D01*
X0066335Y0057305D02*
X0067279Y0057305D01*
X0067279Y0057540D02*
X0066335Y0057540D01*
X0064367Y0057634D02*
X0064367Y0054720D01*
X0064367Y0057634D02*
X0065311Y0057634D01*
X0065311Y0054720D01*
X0064367Y0054720D01*
X0064367Y0054955D02*
X0065311Y0054955D01*
X0065311Y0055190D02*
X0064367Y0055190D01*
X0064367Y0055425D02*
X0065311Y0055425D01*
X0065311Y0055660D02*
X0064367Y0055660D01*
X0064367Y0055895D02*
X0065311Y0055895D01*
X0065311Y0056130D02*
X0064367Y0056130D01*
X0064367Y0056365D02*
X0065311Y0056365D01*
X0065311Y0056600D02*
X0064367Y0056600D01*
X0064367Y0056835D02*
X0065311Y0056835D01*
X0065311Y0057070D02*
X0064367Y0057070D01*
X0064367Y0057305D02*
X0065311Y0057305D01*
X0065311Y0057540D02*
X0064367Y0057540D01*
X0062398Y0057634D02*
X0062398Y0054720D01*
X0062398Y0057634D02*
X0063342Y0057634D01*
X0063342Y0054720D01*
X0062398Y0054720D01*
X0062398Y0054955D02*
X0063342Y0054955D01*
X0063342Y0055190D02*
X0062398Y0055190D01*
X0062398Y0055425D02*
X0063342Y0055425D01*
X0063342Y0055660D02*
X0062398Y0055660D01*
X0062398Y0055895D02*
X0063342Y0055895D01*
X0063342Y0056130D02*
X0062398Y0056130D01*
X0062398Y0056365D02*
X0063342Y0056365D01*
X0063342Y0056600D02*
X0062398Y0056600D01*
X0062398Y0056835D02*
X0063342Y0056835D01*
X0063342Y0057070D02*
X0062398Y0057070D01*
X0062398Y0057305D02*
X0063342Y0057305D01*
X0063342Y0057540D02*
X0062398Y0057540D01*
X0060430Y0057634D02*
X0060430Y0054720D01*
X0060430Y0057634D02*
X0061374Y0057634D01*
X0061374Y0054720D01*
X0060430Y0054720D01*
X0060430Y0054955D02*
X0061374Y0054955D01*
X0061374Y0055190D02*
X0060430Y0055190D01*
X0060430Y0055425D02*
X0061374Y0055425D01*
X0061374Y0055660D02*
X0060430Y0055660D01*
X0060430Y0055895D02*
X0061374Y0055895D01*
X0061374Y0056130D02*
X0060430Y0056130D01*
X0060430Y0056365D02*
X0061374Y0056365D01*
X0061374Y0056600D02*
X0060430Y0056600D01*
X0060430Y0056835D02*
X0061374Y0056835D01*
X0061374Y0057070D02*
X0060430Y0057070D01*
X0060430Y0057305D02*
X0061374Y0057305D01*
X0061374Y0057540D02*
X0060430Y0057540D01*
X0058461Y0057634D02*
X0058461Y0054720D01*
X0058461Y0057634D02*
X0059405Y0057634D01*
X0059405Y0054720D01*
X0058461Y0054720D01*
X0058461Y0054955D02*
X0059405Y0054955D01*
X0059405Y0055190D02*
X0058461Y0055190D01*
X0058461Y0055425D02*
X0059405Y0055425D01*
X0059405Y0055660D02*
X0058461Y0055660D01*
X0058461Y0055895D02*
X0059405Y0055895D01*
X0059405Y0056130D02*
X0058461Y0056130D01*
X0058461Y0056365D02*
X0059405Y0056365D01*
X0059405Y0056600D02*
X0058461Y0056600D01*
X0058461Y0056835D02*
X0059405Y0056835D01*
X0059405Y0057070D02*
X0058461Y0057070D01*
X0058461Y0057305D02*
X0059405Y0057305D01*
X0059405Y0057540D02*
X0058461Y0057540D01*
X0056493Y0057634D02*
X0056493Y0054720D01*
X0056493Y0057634D02*
X0057437Y0057634D01*
X0057437Y0054720D01*
X0056493Y0054720D01*
X0056493Y0054955D02*
X0057437Y0054955D01*
X0057437Y0055190D02*
X0056493Y0055190D01*
X0056493Y0055425D02*
X0057437Y0055425D01*
X0057437Y0055660D02*
X0056493Y0055660D01*
X0056493Y0055895D02*
X0057437Y0055895D01*
X0057437Y0056130D02*
X0056493Y0056130D01*
X0056493Y0056365D02*
X0057437Y0056365D01*
X0057437Y0056600D02*
X0056493Y0056600D01*
X0056493Y0056835D02*
X0057437Y0056835D01*
X0057437Y0057070D02*
X0056493Y0057070D01*
X0056493Y0057305D02*
X0057437Y0057305D01*
X0057437Y0057540D02*
X0056493Y0057540D01*
X0055469Y0058658D02*
X0052555Y0058658D01*
X0052555Y0059602D01*
X0055469Y0059602D01*
X0055469Y0058658D01*
X0055469Y0058893D02*
X0052555Y0058893D01*
X0052555Y0059128D02*
X0055469Y0059128D01*
X0055469Y0059363D02*
X0052555Y0059363D01*
X0052555Y0059598D02*
X0055469Y0059598D01*
X0055469Y0060626D02*
X0052555Y0060626D01*
X0052555Y0061570D01*
X0055469Y0061570D01*
X0055469Y0060626D01*
X0055469Y0060861D02*
X0052555Y0060861D01*
X0052555Y0061096D02*
X0055469Y0061096D01*
X0055469Y0061331D02*
X0052555Y0061331D01*
X0052555Y0061566D02*
X0055469Y0061566D01*
X0055469Y0062595D02*
X0052555Y0062595D01*
X0052555Y0063539D01*
X0055469Y0063539D01*
X0055469Y0062595D01*
X0055469Y0062830D02*
X0052555Y0062830D01*
X0052555Y0063065D02*
X0055469Y0063065D01*
X0055469Y0063300D02*
X0052555Y0063300D01*
X0052555Y0063535D02*
X0055469Y0063535D01*
D17*
X0059523Y0061688D02*
X0059523Y0066414D01*
X0064249Y0066414D01*
X0064249Y0061688D01*
X0059523Y0061688D01*
X0059523Y0062868D02*
X0064249Y0062868D01*
X0064249Y0064048D02*
X0059523Y0064048D01*
X0059523Y0065228D02*
X0064249Y0065228D01*
X0064249Y0066408D02*
X0059523Y0066408D01*
D18*
X0061295Y0086492D03*
X0068776Y0086492D03*
X0068776Y0096728D03*
X0065035Y0096728D03*
X0061295Y0096728D03*
D19*
X0049287Y0122909D03*
X0049287Y0131177D03*
X0061098Y0044563D03*
X0061098Y0036295D03*
X0175075Y0032555D03*
X0183343Y0032555D03*
D20*
X0100469Y0092201D03*
X0100469Y0098894D03*
X0084720Y0098894D03*
X0076846Y0098894D03*
X0076846Y0092201D03*
X0084720Y0092201D03*
X0057161Y0123697D03*
X0057161Y0130390D03*
D21*
X0175862Y0056177D03*
X0182555Y0056177D03*
X0182555Y0048303D03*
X0175862Y0048303D03*
X0175862Y0040429D03*
X0182555Y0040429D03*
X0154996Y0036492D03*
X0148303Y0036492D03*
X0148303Y0028618D03*
X0154996Y0028618D03*
X0080193Y0028618D03*
X0073500Y0028618D03*
D22*
X0142516Y0044366D03*
X0149996Y0044366D03*
X0154642Y0044366D03*
X0162122Y0044366D03*
X0158382Y0053028D03*
X0146256Y0053028D03*
D23*
X0133343Y0048303D03*
X0133343Y0046335D03*
X0133343Y0044366D03*
X0133343Y0042398D03*
X0133343Y0040429D03*
X0122713Y0040429D03*
X0122713Y0042398D03*
X0122713Y0044366D03*
X0122713Y0046335D03*
X0122713Y0048303D03*
D24*
X0126059Y0049681D03*
X0128028Y0049681D03*
X0129996Y0049681D03*
X0129996Y0039051D03*
X0128028Y0039051D03*
X0126059Y0039051D03*
D25*
X0094760Y0115390D03*
X0094760Y0122870D03*
X0084523Y0122870D03*
X0084523Y0119130D03*
X0084523Y0115390D03*
D26*
X0111925Y0128894D03*
X0119799Y0128894D03*
X0127673Y0128894D03*
X0135547Y0128894D03*
X0143421Y0128894D03*
X0151295Y0128894D03*
X0159169Y0128894D03*
X0167043Y0128894D03*
X0167043Y0069839D03*
X0159169Y0069839D03*
X0151295Y0069839D03*
X0143421Y0069839D03*
X0135547Y0069839D03*
X0127673Y0069839D03*
X0119799Y0069839D03*
X0111925Y0069839D03*
D27*
X0112083Y0041634D03*
X0104602Y0041634D03*
X0104602Y0031350D03*
X0108343Y0031350D03*
X0112083Y0031350D03*
D28*
X0093677Y0037280D03*
X0091118Y0037280D03*
X0088559Y0037280D03*
X0086000Y0037280D03*
X0083441Y0037280D03*
X0080882Y0037280D03*
X0078323Y0037280D03*
X0075764Y0037280D03*
X0075764Y0059327D03*
X0078323Y0059327D03*
X0080882Y0059327D03*
X0083441Y0059327D03*
X0086000Y0059327D03*
X0088559Y0059327D03*
X0091118Y0059327D03*
X0093677Y0059327D03*
D29*
X0039543Y0078618D03*
X0039543Y0081177D03*
X0039543Y0083736D03*
X0039543Y0086295D03*
X0039543Y0088854D03*
D30*
X0028421Y0098402D03*
X0028421Y0069071D03*
D31*
X0038283Y0074189D02*
X0038285Y0074280D01*
X0038291Y0074370D01*
X0038301Y0074461D01*
X0038315Y0074550D01*
X0038333Y0074639D01*
X0038354Y0074728D01*
X0038380Y0074815D01*
X0038409Y0074901D01*
X0038443Y0074985D01*
X0038479Y0075068D01*
X0038520Y0075150D01*
X0038564Y0075229D01*
X0038611Y0075307D01*
X0038662Y0075382D01*
X0038716Y0075455D01*
X0038773Y0075525D01*
X0038833Y0075593D01*
X0038896Y0075659D01*
X0038962Y0075721D01*
X0039031Y0075780D01*
X0039102Y0075837D01*
X0039176Y0075890D01*
X0039252Y0075940D01*
X0039330Y0075987D01*
X0039410Y0076030D01*
X0039491Y0076069D01*
X0039575Y0076105D01*
X0039660Y0076137D01*
X0039746Y0076166D01*
X0039833Y0076190D01*
X0039922Y0076211D01*
X0040011Y0076228D01*
X0040101Y0076241D01*
X0040191Y0076250D01*
X0040282Y0076255D01*
X0040373Y0076256D01*
X0040463Y0076253D01*
X0040554Y0076246D01*
X0040644Y0076235D01*
X0040734Y0076220D01*
X0040823Y0076201D01*
X0040911Y0076179D01*
X0040997Y0076152D01*
X0041083Y0076122D01*
X0041167Y0076088D01*
X0041250Y0076050D01*
X0041331Y0076009D01*
X0041410Y0075964D01*
X0041487Y0075915D01*
X0041561Y0075864D01*
X0041634Y0075809D01*
X0041704Y0075751D01*
X0041771Y0075690D01*
X0041835Y0075626D01*
X0041897Y0075560D01*
X0041956Y0075490D01*
X0042011Y0075419D01*
X0042064Y0075344D01*
X0042113Y0075268D01*
X0042159Y0075190D01*
X0042201Y0075109D01*
X0042240Y0075027D01*
X0042275Y0074943D01*
X0042306Y0074858D01*
X0042333Y0074771D01*
X0042357Y0074684D01*
X0042377Y0074595D01*
X0042393Y0074506D01*
X0042405Y0074416D01*
X0042413Y0074325D01*
X0042417Y0074234D01*
X0042417Y0074144D01*
X0042413Y0074053D01*
X0042405Y0073962D01*
X0042393Y0073872D01*
X0042377Y0073783D01*
X0042357Y0073694D01*
X0042333Y0073607D01*
X0042306Y0073520D01*
X0042275Y0073435D01*
X0042240Y0073351D01*
X0042201Y0073269D01*
X0042159Y0073188D01*
X0042113Y0073110D01*
X0042064Y0073034D01*
X0042011Y0072959D01*
X0041956Y0072888D01*
X0041897Y0072818D01*
X0041835Y0072752D01*
X0041771Y0072688D01*
X0041704Y0072627D01*
X0041634Y0072569D01*
X0041561Y0072514D01*
X0041487Y0072463D01*
X0041410Y0072414D01*
X0041331Y0072369D01*
X0041250Y0072328D01*
X0041167Y0072290D01*
X0041083Y0072256D01*
X0040997Y0072226D01*
X0040911Y0072199D01*
X0040823Y0072177D01*
X0040734Y0072158D01*
X0040644Y0072143D01*
X0040554Y0072132D01*
X0040463Y0072125D01*
X0040373Y0072122D01*
X0040282Y0072123D01*
X0040191Y0072128D01*
X0040101Y0072137D01*
X0040011Y0072150D01*
X0039922Y0072167D01*
X0039833Y0072188D01*
X0039746Y0072212D01*
X0039660Y0072241D01*
X0039575Y0072273D01*
X0039491Y0072309D01*
X0039410Y0072348D01*
X0039330Y0072391D01*
X0039252Y0072438D01*
X0039176Y0072488D01*
X0039102Y0072541D01*
X0039031Y0072598D01*
X0038962Y0072657D01*
X0038896Y0072719D01*
X0038833Y0072785D01*
X0038773Y0072853D01*
X0038716Y0072923D01*
X0038662Y0072996D01*
X0038611Y0073071D01*
X0038564Y0073149D01*
X0038520Y0073228D01*
X0038479Y0073310D01*
X0038443Y0073393D01*
X0038409Y0073477D01*
X0038380Y0073563D01*
X0038354Y0073650D01*
X0038333Y0073739D01*
X0038315Y0073828D01*
X0038301Y0073917D01*
X0038291Y0074008D01*
X0038285Y0074098D01*
X0038283Y0074189D01*
X0038283Y0093283D02*
X0038285Y0093374D01*
X0038291Y0093464D01*
X0038301Y0093555D01*
X0038315Y0093644D01*
X0038333Y0093733D01*
X0038354Y0093822D01*
X0038380Y0093909D01*
X0038409Y0093995D01*
X0038443Y0094079D01*
X0038479Y0094162D01*
X0038520Y0094244D01*
X0038564Y0094323D01*
X0038611Y0094401D01*
X0038662Y0094476D01*
X0038716Y0094549D01*
X0038773Y0094619D01*
X0038833Y0094687D01*
X0038896Y0094753D01*
X0038962Y0094815D01*
X0039031Y0094874D01*
X0039102Y0094931D01*
X0039176Y0094984D01*
X0039252Y0095034D01*
X0039330Y0095081D01*
X0039410Y0095124D01*
X0039491Y0095163D01*
X0039575Y0095199D01*
X0039660Y0095231D01*
X0039746Y0095260D01*
X0039833Y0095284D01*
X0039922Y0095305D01*
X0040011Y0095322D01*
X0040101Y0095335D01*
X0040191Y0095344D01*
X0040282Y0095349D01*
X0040373Y0095350D01*
X0040463Y0095347D01*
X0040554Y0095340D01*
X0040644Y0095329D01*
X0040734Y0095314D01*
X0040823Y0095295D01*
X0040911Y0095273D01*
X0040997Y0095246D01*
X0041083Y0095216D01*
X0041167Y0095182D01*
X0041250Y0095144D01*
X0041331Y0095103D01*
X0041410Y0095058D01*
X0041487Y0095009D01*
X0041561Y0094958D01*
X0041634Y0094903D01*
X0041704Y0094845D01*
X0041771Y0094784D01*
X0041835Y0094720D01*
X0041897Y0094654D01*
X0041956Y0094584D01*
X0042011Y0094513D01*
X0042064Y0094438D01*
X0042113Y0094362D01*
X0042159Y0094284D01*
X0042201Y0094203D01*
X0042240Y0094121D01*
X0042275Y0094037D01*
X0042306Y0093952D01*
X0042333Y0093865D01*
X0042357Y0093778D01*
X0042377Y0093689D01*
X0042393Y0093600D01*
X0042405Y0093510D01*
X0042413Y0093419D01*
X0042417Y0093328D01*
X0042417Y0093238D01*
X0042413Y0093147D01*
X0042405Y0093056D01*
X0042393Y0092966D01*
X0042377Y0092877D01*
X0042357Y0092788D01*
X0042333Y0092701D01*
X0042306Y0092614D01*
X0042275Y0092529D01*
X0042240Y0092445D01*
X0042201Y0092363D01*
X0042159Y0092282D01*
X0042113Y0092204D01*
X0042064Y0092128D01*
X0042011Y0092053D01*
X0041956Y0091982D01*
X0041897Y0091912D01*
X0041835Y0091846D01*
X0041771Y0091782D01*
X0041704Y0091721D01*
X0041634Y0091663D01*
X0041561Y0091608D01*
X0041487Y0091557D01*
X0041410Y0091508D01*
X0041331Y0091463D01*
X0041250Y0091422D01*
X0041167Y0091384D01*
X0041083Y0091350D01*
X0040997Y0091320D01*
X0040911Y0091293D01*
X0040823Y0091271D01*
X0040734Y0091252D01*
X0040644Y0091237D01*
X0040554Y0091226D01*
X0040463Y0091219D01*
X0040373Y0091216D01*
X0040282Y0091217D01*
X0040191Y0091222D01*
X0040101Y0091231D01*
X0040011Y0091244D01*
X0039922Y0091261D01*
X0039833Y0091282D01*
X0039746Y0091306D01*
X0039660Y0091335D01*
X0039575Y0091367D01*
X0039491Y0091403D01*
X0039410Y0091442D01*
X0039330Y0091485D01*
X0039252Y0091532D01*
X0039176Y0091582D01*
X0039102Y0091635D01*
X0039031Y0091692D01*
X0038962Y0091751D01*
X0038896Y0091813D01*
X0038833Y0091879D01*
X0038773Y0091947D01*
X0038716Y0092017D01*
X0038662Y0092090D01*
X0038611Y0092165D01*
X0038564Y0092243D01*
X0038520Y0092322D01*
X0038479Y0092404D01*
X0038443Y0092487D01*
X0038409Y0092571D01*
X0038380Y0092657D01*
X0038354Y0092744D01*
X0038333Y0092833D01*
X0038315Y0092922D01*
X0038301Y0093011D01*
X0038291Y0093102D01*
X0038285Y0093192D01*
X0038283Y0093283D01*
D32*
X0093382Y0083736D03*
X0099681Y0083736D03*
X0099681Y0067988D03*
X0093382Y0067988D03*
D33*
X0033539Y0032555D03*
X0033539Y0127043D03*
D34*
X0065035Y0129406D03*
X0076846Y0129406D03*
D35*
X0082273Y0122870D02*
X0084523Y0122870D01*
X0091846Y0130193D01*
X0091965Y0130193D01*
X0094996Y0123106D02*
X0094760Y0122870D01*
X0100469Y0122870D01*
X0100469Y0105007D01*
X0092594Y0091807D02*
X0084720Y0083933D01*
X0084720Y0064431D01*
X0083511Y0063222D01*
X0083511Y0060114D01*
X0083441Y0060044D01*
X0083441Y0059327D01*
X0083511Y0059257D01*
X0083511Y0055432D01*
X0084470Y0054473D01*
X0084470Y0049521D01*
X0087788Y0046203D01*
X0088579Y0046203D01*
X0093607Y0041175D01*
X0093607Y0040429D01*
X0094146Y0040968D01*
X0103936Y0040968D01*
X0093677Y0040359D02*
X0093677Y0037280D01*
X0093677Y0031897D01*
X0095680Y0029894D01*
X0095680Y0029470D01*
X0100469Y0024681D01*
X0116217Y0024681D01*
X0124091Y0032555D01*
X0125735Y0034200D01*
X0129167Y0034200D01*
X0131712Y0036745D01*
X0132288Y0037321D01*
X0116217Y0024681D02*
X0187083Y0024681D01*
X0194957Y0032555D01*
X0194957Y0052240D01*
X0191020Y0056177D01*
X0182555Y0056177D01*
X0093677Y0040359D02*
X0093607Y0040429D01*
X0093677Y0037280D02*
X0093677Y0036492D01*
X0054012Y0067426D02*
X0054012Y0068972D01*
X0054012Y0070747D01*
X0053029Y0071730D01*
X0054012Y0070747D01*
X0053029Y0071730D02*
X0050176Y0074583D01*
X0050176Y0074973D01*
X0049287Y0075862D01*
X0061295Y0086492D02*
X0065769Y0090966D01*
X0067526Y0090966D01*
X0068171Y0091610D01*
X0072909Y0091610D01*
X0076256Y0091610D01*
X0072909Y0091610D02*
X0072909Y0111295D01*
X0075243Y0113629D01*
X0076568Y0113629D01*
X0080361Y0117422D01*
X0080361Y0120958D01*
X0082273Y0122870D01*
X0065783Y0118382D02*
X0065783Y0112083D01*
X0065803Y0112063D01*
X0065883Y0111983D01*
X0065883Y0104269D01*
X0061098Y0099484D01*
X0061098Y0096925D01*
X0061295Y0096728D01*
X0053106Y0094681D02*
X0061295Y0086492D01*
X0053106Y0094681D02*
X0053106Y0110193D01*
X0065803Y0112063D02*
X0067673Y0110193D01*
X0065883Y0104701D02*
X0065883Y0104269D01*
X0065783Y0118382D02*
X0065783Y0128657D01*
X0065035Y0129406D01*
X0100469Y0122870D02*
X0104169Y0122870D01*
X0104406Y0123106D01*
X0106138Y0123106D01*
X0111925Y0128894D01*
X0092594Y0091807D02*
X0092594Y0084524D01*
X0093382Y0083736D01*
X0045350Y0091610D02*
X0045350Y0095547D01*
X0030862Y0110035D01*
X0030862Y0110193D01*
X0045350Y0091610D02*
X0042594Y0088854D01*
X0039543Y0088854D01*
X0034720Y0088854D01*
X0033539Y0087673D01*
X0033539Y0083736D01*
D36*
X0054012Y0067426D02*
X0054012Y0067004D01*
X0092594Y0091807D02*
X0096116Y0095328D01*
X0096127Y0095328D01*
X0097100Y0096301D01*
X0097100Y0101639D01*
X0100469Y0105007D01*
X0133343Y0040429D02*
X0133343Y0038376D01*
X0131712Y0036745D01*
X0126059Y0034524D02*
X0126059Y0039051D01*
X0126059Y0034524D02*
X0124091Y0032555D01*
D37*
X0118185Y0032555D03*
X0116217Y0040429D03*
X0108343Y0044366D03*
X0104406Y0048303D03*
X0104406Y0056136D03*
X0104406Y0060114D03*
X0106378Y0066016D03*
X0124091Y0060114D03*
X0131965Y0052240D03*
X0139839Y0052240D03*
X0137870Y0044366D03*
X0128028Y0044366D03*
X0143776Y0032555D03*
X0162122Y0035744D03*
X0167398Y0032555D03*
X0167398Y0040429D03*
X0191020Y0044366D03*
X0191020Y0060114D03*
X0175272Y0064051D03*
X0155587Y0060114D03*
X0144757Y0061096D03*
X0135902Y0060114D03*
X0139732Y0075969D03*
X0147713Y0079799D03*
X0155587Y0083736D03*
X0147713Y0087673D03*
X0163461Y0095547D03*
X0155587Y0107358D03*
X0171335Y0115232D03*
X0131965Y0095547D03*
X0120154Y0103421D03*
X0120157Y0111299D03*
X0112280Y0115232D03*
X0120154Y0119169D03*
X0108343Y0107358D03*
X0092594Y0107358D03*
X0088657Y0111295D03*
X0076846Y0107358D03*
X0068972Y0103421D03*
X0057161Y0083736D03*
X0053265Y0075862D03*
X0049287Y0075862D03*
X0045350Y0083506D03*
X0033539Y0083736D03*
X0029602Y0087673D03*
X0029602Y0079799D03*
X0041413Y0064051D03*
X0061886Y0064051D03*
X0076846Y0067988D03*
X0076846Y0075862D03*
X0080652Y0079799D03*
X0088657Y0075862D03*
X0068972Y0079799D03*
X0065035Y0052240D03*
X0076846Y0048303D03*
X0080652Y0052240D03*
X0068972Y0040429D03*
X0053224Y0028618D03*
X0128028Y0079799D03*
X0112280Y0083736D03*
X0070547Y0123894D03*
X0084720Y0130980D03*
X0104406Y0130980D03*
X0037476Y0115232D03*
D38*
X0045429Y0110193D02*
X0053106Y0110193D01*
M02*
