%
M48
M72
T01C0.01378
T02C0.03346
T03C0.09843
%
T01
X17589Y20985
X22707Y32796
X33380Y34021
X45148Y20985
X37274Y17048
X55698Y22954
X64833Y20985
X80581Y20985
X88455Y17048
X97960Y23291
X104203Y20985
X108140Y9174
X121919Y5237
X139636Y17048
X151447Y32796
X147510Y56418
X135699Y76103
X127825Y80040
X116014Y91851
X124208Y99725
X124208Y103662
X131762Y99725
X131762Y115473
X135699Y123347
X127825Y123347
X112077Y123347
X104203Y107599
X96008Y103662
X92392Y99725
X92392Y91851
X104203Y83977
X100266Y64372
X108140Y64292
X112077Y60355
X116014Y60355
X104203Y52481
X92392Y52481
X84518Y48544
X76644Y44607
X64833Y36733
X84518Y32796
X88455Y24922
X100266Y36733
X84518Y64292
X80581Y64292
X72707Y76103
X72707Y80040
X72707Y83977
X72707Y87914
X72707Y91851
X72707Y95788
X64833Y99725
X56959Y103662
X49085Y99725
X41211Y103554
X41211Y95788
X29400Y107599
X25463Y111536
X17589Y111536
X9715Y111536
X25463Y119410
X33337Y119410
X41211Y119410
X56959Y115473
X68770Y111536
X56959Y91851
X56959Y80040
X56959Y76103
X45148Y80040
X44754Y71379
X41576Y71379
X33337Y68229
X41211Y60355
X29400Y56418
X13652Y64292
X33337Y79765
X17589Y91851
X5778Y91851
X60896Y56418
X68770Y131221
T02
X18376Y75709
X18376Y60749
T03
X10896Y10355
X10896Y126103
M30
