G75*
%MOIN*%
%OFA0B0*%
%FSLAX25Y25*%
%IPPOS*%
%LPD*%
%AMOC8*
5,1,8,0,0,1.08239X$1,22.5*
%
%ADD10C,0.00000*%
%ADD11R,0.03943X0.03156*%
%ADD12R,0.03156X0.03943*%
%ADD13R,0.04337X0.05912*%
%ADD14R,0.06693X0.07874*%
%ADD15R,0.05912X0.01975*%
%ADD16C,0.03746*%
%ADD17R,0.01581X0.02762*%
%ADD18R,0.02762X0.01581*%
%ADD19R,0.11030X0.11030*%
%ADD20R,0.02565X0.05124*%
%ADD21R,0.05124X0.08274*%
%ADD22R,0.03156X0.05124*%
%ADD23R,0.03550X0.03550*%
%ADD24R,0.03746X0.01502*%
%ADD25R,0.08471X0.12408*%
%ADD26R,0.01502X0.03746*%
%ADD27R,0.03550X0.01384*%
%ADD28R,0.01384X0.03550*%
%ADD29R,0.02762X0.05124*%
%ADD30R,0.06699X0.01778*%
%ADD31R,0.05400X0.10400*%
%ADD32R,0.04337X0.04337*%
%ADD33C,0.14243*%
%ADD34R,0.04731X0.04337*%
%ADD35R,0.04337X0.04731*%
D10*
X0001841Y0001300D02*
X0001841Y0135158D01*
X0171132Y0135158D01*
X0171132Y0001300D01*
X0001841Y0001300D01*
X0016703Y0060749D02*
X0016705Y0060830D01*
X0016711Y0060912D01*
X0016721Y0060993D01*
X0016735Y0061073D01*
X0016752Y0061152D01*
X0016774Y0061231D01*
X0016799Y0061308D01*
X0016828Y0061385D01*
X0016861Y0061459D01*
X0016898Y0061532D01*
X0016937Y0061603D01*
X0016981Y0061672D01*
X0017027Y0061739D01*
X0017077Y0061803D01*
X0017130Y0061865D01*
X0017186Y0061925D01*
X0017244Y0061981D01*
X0017306Y0062035D01*
X0017370Y0062086D01*
X0017436Y0062133D01*
X0017504Y0062177D01*
X0017575Y0062218D01*
X0017647Y0062255D01*
X0017722Y0062289D01*
X0017797Y0062319D01*
X0017875Y0062345D01*
X0017953Y0062368D01*
X0018032Y0062386D01*
X0018112Y0062401D01*
X0018193Y0062412D01*
X0018274Y0062419D01*
X0018356Y0062422D01*
X0018437Y0062421D01*
X0018518Y0062416D01*
X0018599Y0062407D01*
X0018680Y0062394D01*
X0018760Y0062377D01*
X0018838Y0062357D01*
X0018916Y0062332D01*
X0018993Y0062304D01*
X0019068Y0062272D01*
X0019141Y0062237D01*
X0019212Y0062198D01*
X0019282Y0062155D01*
X0019349Y0062110D01*
X0019415Y0062061D01*
X0019477Y0062009D01*
X0019537Y0061953D01*
X0019594Y0061895D01*
X0019649Y0061835D01*
X0019700Y0061771D01*
X0019748Y0061706D01*
X0019793Y0061638D01*
X0019835Y0061568D01*
X0019873Y0061496D01*
X0019908Y0061422D01*
X0019939Y0061347D01*
X0019966Y0061270D01*
X0019989Y0061192D01*
X0020009Y0061113D01*
X0020025Y0061033D01*
X0020037Y0060952D01*
X0020045Y0060871D01*
X0020049Y0060790D01*
X0020049Y0060708D01*
X0020045Y0060627D01*
X0020037Y0060546D01*
X0020025Y0060465D01*
X0020009Y0060385D01*
X0019989Y0060306D01*
X0019966Y0060228D01*
X0019939Y0060151D01*
X0019908Y0060076D01*
X0019873Y0060002D01*
X0019835Y0059930D01*
X0019793Y0059860D01*
X0019748Y0059792D01*
X0019700Y0059727D01*
X0019649Y0059663D01*
X0019594Y0059603D01*
X0019537Y0059545D01*
X0019477Y0059489D01*
X0019415Y0059437D01*
X0019349Y0059388D01*
X0019282Y0059343D01*
X0019213Y0059300D01*
X0019141Y0059261D01*
X0019068Y0059226D01*
X0018993Y0059194D01*
X0018916Y0059166D01*
X0018838Y0059141D01*
X0018760Y0059121D01*
X0018680Y0059104D01*
X0018599Y0059091D01*
X0018518Y0059082D01*
X0018437Y0059077D01*
X0018356Y0059076D01*
X0018274Y0059079D01*
X0018193Y0059086D01*
X0018112Y0059097D01*
X0018032Y0059112D01*
X0017953Y0059130D01*
X0017875Y0059153D01*
X0017797Y0059179D01*
X0017722Y0059209D01*
X0017647Y0059243D01*
X0017575Y0059280D01*
X0017504Y0059321D01*
X0017436Y0059365D01*
X0017370Y0059412D01*
X0017306Y0059463D01*
X0017244Y0059517D01*
X0017186Y0059573D01*
X0017130Y0059633D01*
X0017077Y0059695D01*
X0017027Y0059759D01*
X0016981Y0059826D01*
X0016937Y0059895D01*
X0016898Y0059966D01*
X0016861Y0060039D01*
X0016828Y0060113D01*
X0016799Y0060190D01*
X0016774Y0060267D01*
X0016752Y0060346D01*
X0016735Y0060425D01*
X0016721Y0060505D01*
X0016711Y0060586D01*
X0016705Y0060668D01*
X0016703Y0060749D01*
X0016703Y0075709D02*
X0016705Y0075790D01*
X0016711Y0075872D01*
X0016721Y0075953D01*
X0016735Y0076033D01*
X0016752Y0076112D01*
X0016774Y0076191D01*
X0016799Y0076268D01*
X0016828Y0076345D01*
X0016861Y0076419D01*
X0016898Y0076492D01*
X0016937Y0076563D01*
X0016981Y0076632D01*
X0017027Y0076699D01*
X0017077Y0076763D01*
X0017130Y0076825D01*
X0017186Y0076885D01*
X0017244Y0076941D01*
X0017306Y0076995D01*
X0017370Y0077046D01*
X0017436Y0077093D01*
X0017504Y0077137D01*
X0017575Y0077178D01*
X0017647Y0077215D01*
X0017722Y0077249D01*
X0017797Y0077279D01*
X0017875Y0077305D01*
X0017953Y0077328D01*
X0018032Y0077346D01*
X0018112Y0077361D01*
X0018193Y0077372D01*
X0018274Y0077379D01*
X0018356Y0077382D01*
X0018437Y0077381D01*
X0018518Y0077376D01*
X0018599Y0077367D01*
X0018680Y0077354D01*
X0018760Y0077337D01*
X0018838Y0077317D01*
X0018916Y0077292D01*
X0018993Y0077264D01*
X0019068Y0077232D01*
X0019141Y0077197D01*
X0019212Y0077158D01*
X0019282Y0077115D01*
X0019349Y0077070D01*
X0019415Y0077021D01*
X0019477Y0076969D01*
X0019537Y0076913D01*
X0019594Y0076855D01*
X0019649Y0076795D01*
X0019700Y0076731D01*
X0019748Y0076666D01*
X0019793Y0076598D01*
X0019835Y0076528D01*
X0019873Y0076456D01*
X0019908Y0076382D01*
X0019939Y0076307D01*
X0019966Y0076230D01*
X0019989Y0076152D01*
X0020009Y0076073D01*
X0020025Y0075993D01*
X0020037Y0075912D01*
X0020045Y0075831D01*
X0020049Y0075750D01*
X0020049Y0075668D01*
X0020045Y0075587D01*
X0020037Y0075506D01*
X0020025Y0075425D01*
X0020009Y0075345D01*
X0019989Y0075266D01*
X0019966Y0075188D01*
X0019939Y0075111D01*
X0019908Y0075036D01*
X0019873Y0074962D01*
X0019835Y0074890D01*
X0019793Y0074820D01*
X0019748Y0074752D01*
X0019700Y0074687D01*
X0019649Y0074623D01*
X0019594Y0074563D01*
X0019537Y0074505D01*
X0019477Y0074449D01*
X0019415Y0074397D01*
X0019349Y0074348D01*
X0019282Y0074303D01*
X0019213Y0074260D01*
X0019141Y0074221D01*
X0019068Y0074186D01*
X0018993Y0074154D01*
X0018916Y0074126D01*
X0018838Y0074101D01*
X0018760Y0074081D01*
X0018680Y0074064D01*
X0018599Y0074051D01*
X0018518Y0074042D01*
X0018437Y0074037D01*
X0018356Y0074036D01*
X0018274Y0074039D01*
X0018193Y0074046D01*
X0018112Y0074057D01*
X0018032Y0074072D01*
X0017953Y0074090D01*
X0017875Y0074113D01*
X0017797Y0074139D01*
X0017722Y0074169D01*
X0017647Y0074203D01*
X0017575Y0074240D01*
X0017504Y0074281D01*
X0017436Y0074325D01*
X0017370Y0074372D01*
X0017306Y0074423D01*
X0017244Y0074477D01*
X0017186Y0074533D01*
X0017130Y0074593D01*
X0017077Y0074655D01*
X0017027Y0074719D01*
X0016981Y0074786D01*
X0016937Y0074855D01*
X0016898Y0074926D01*
X0016861Y0074999D01*
X0016828Y0075073D01*
X0016799Y0075150D01*
X0016774Y0075227D01*
X0016752Y0075306D01*
X0016735Y0075385D01*
X0016721Y0075465D01*
X0016711Y0075546D01*
X0016705Y0075628D01*
X0016703Y0075709D01*
D11*
X0005778Y0097166D03*
X0005778Y0102284D03*
X0005778Y0108977D03*
X0005778Y0114095D03*
X0013652Y0114095D03*
X0013652Y0108977D03*
X0060896Y0124725D03*
X0060896Y0129843D03*
X0068770Y0129843D03*
X0068770Y0124725D03*
X0068770Y0098347D03*
X0068770Y0093229D03*
X0064833Y0070788D03*
X0064833Y0065670D03*
X0064833Y0055040D03*
X0064833Y0049922D03*
X0072707Y0049922D03*
X0072707Y0055040D03*
X0060896Y0011733D03*
X0060896Y0006615D03*
X0053022Y0006615D03*
X0053022Y0011733D03*
X0045148Y0011733D03*
X0045148Y0006615D03*
X0092392Y0006615D03*
X0092392Y0011733D03*
D12*
X0075266Y0017048D03*
X0070148Y0017048D03*
X0070148Y0024922D03*
X0075266Y0024922D03*
X0075266Y0032796D03*
X0070148Y0032796D03*
X0070148Y0040670D03*
X0075266Y0040670D03*
X0085896Y0060355D03*
X0091014Y0060355D03*
X0049636Y0075434D03*
X0044518Y0075434D03*
X0037510Y0075434D03*
X0032392Y0075434D03*
X0054400Y0095788D03*
X0059518Y0095788D03*
X0051644Y0103662D03*
X0046526Y0103662D03*
X0046526Y0111536D03*
X0051644Y0111536D03*
X0028022Y0036733D03*
X0022904Y0036733D03*
X0022904Y0028859D03*
X0028022Y0028859D03*
X0028022Y0020985D03*
X0022904Y0020985D03*
X0160699Y0064292D03*
X0165817Y0064292D03*
D13*
X0051250Y0084410D03*
X0043770Y0084410D03*
X0035817Y0084410D03*
X0028337Y0084410D03*
X0032077Y0093072D03*
X0047510Y0093072D03*
D14*
X0009715Y0082733D03*
X0009715Y0053725D03*
D15*
X0020344Y0063111D03*
X0020344Y0065670D03*
X0020344Y0068229D03*
X0020344Y0070788D03*
X0020344Y0073347D03*
D16*
X0018376Y0075709D03*
X0018376Y0060749D03*
D17*
X0036289Y0067737D03*
X0038258Y0067737D03*
X0040226Y0067737D03*
X0042195Y0067737D03*
X0044163Y0067737D03*
X0046132Y0067737D03*
X0046132Y0052973D03*
X0044163Y0052973D03*
X0042195Y0052973D03*
X0040226Y0052973D03*
X0038258Y0052973D03*
X0036289Y0052973D03*
D18*
X0033829Y0055434D03*
X0033829Y0057402D03*
X0033829Y0059371D03*
X0033829Y0061339D03*
X0033829Y0063308D03*
X0033829Y0065276D03*
X0048593Y0065276D03*
X0048593Y0063308D03*
X0048593Y0061339D03*
X0048593Y0059371D03*
X0048593Y0057402D03*
X0048593Y0055434D03*
D19*
X0041211Y0060355D03*
D20*
X0037077Y0102481D03*
X0029596Y0102481D03*
X0029596Y0112717D03*
X0033337Y0112717D03*
X0037077Y0112717D03*
X0045344Y0118229D03*
X0049085Y0118229D03*
X0052825Y0118229D03*
X0052825Y0128466D03*
X0045344Y0128466D03*
D21*
X0082549Y0129253D03*
X0090423Y0129253D03*
X0098297Y0129253D03*
X0106171Y0129253D03*
X0114045Y0129253D03*
X0121919Y0129253D03*
X0129793Y0129253D03*
X0137667Y0129253D03*
X0137667Y0070198D03*
X0129793Y0070198D03*
X0121919Y0070198D03*
X0114045Y0070198D03*
X0106171Y0070198D03*
X0098297Y0070198D03*
X0090423Y0070198D03*
X0082549Y0070198D03*
D22*
X0021526Y0100316D03*
X0021526Y0114883D03*
D23*
X0013652Y0102678D03*
X0013652Y0096772D03*
X0056959Y0071182D03*
X0056959Y0065276D03*
X0056959Y0055434D03*
X0056959Y0049528D03*
X0084518Y0012127D03*
X0084518Y0006221D03*
X0160305Y0056418D03*
X0166211Y0056418D03*
D24*
X0052136Y0036733D03*
X0052136Y0034765D03*
X0052136Y0032796D03*
X0052136Y0030828D03*
X0052136Y0028859D03*
X0052136Y0026891D03*
X0052136Y0024922D03*
X0052136Y0022954D03*
X0038356Y0022954D03*
X0038356Y0024922D03*
X0038356Y0026891D03*
X0038356Y0028859D03*
X0038356Y0030828D03*
X0038356Y0032796D03*
X0038356Y0034765D03*
X0038356Y0036733D03*
D25*
X0045148Y0029843D03*
D26*
X0048100Y0021083D03*
X0042195Y0021083D03*
X0042195Y0038603D03*
X0048100Y0038603D03*
D27*
X0098494Y0048544D03*
X0098494Y0050513D03*
X0098494Y0052481D03*
X0098494Y0054450D03*
X0098494Y0056418D03*
X0109911Y0056418D03*
X0109911Y0054450D03*
X0109911Y0052481D03*
X0109911Y0050513D03*
X0109911Y0048544D03*
D28*
X0106171Y0046772D03*
X0104203Y0046772D03*
X0102234Y0046772D03*
X0102234Y0058190D03*
X0104203Y0058190D03*
X0106171Y0058190D03*
D29*
X0068573Y0106394D03*
X0061093Y0106394D03*
X0061093Y0116678D03*
X0064833Y0116678D03*
X0068573Y0116678D03*
D30*
X0093179Y0037816D03*
X0093179Y0035257D03*
X0093179Y0032698D03*
X0093179Y0030139D03*
X0093179Y0027580D03*
X0093179Y0025020D03*
X0093179Y0022461D03*
X0093179Y0019902D03*
X0115226Y0019902D03*
X0115226Y0022461D03*
X0115226Y0025020D03*
X0115226Y0027580D03*
X0115226Y0030139D03*
X0115226Y0032698D03*
X0115226Y0035257D03*
X0115226Y0037816D03*
D31*
X0123888Y0044607D03*
X0139636Y0056418D03*
X0139636Y0009174D03*
X0127825Y0009174D03*
X0116014Y0009174D03*
X0037274Y0009174D03*
X0025463Y0009174D03*
X0005778Y0040670D03*
X0025463Y0048544D03*
X0025463Y0127284D03*
X0037274Y0127284D03*
D32*
X0151447Y0047757D03*
X0151447Y0041457D03*
X0167195Y0041457D03*
X0167195Y0047757D03*
D33*
X0010896Y0010355D03*
X0010896Y0126103D03*
D34*
X0041801Y0044607D03*
X0048494Y0044607D03*
X0069360Y0009174D03*
X0076053Y0009174D03*
D35*
X0013652Y0037324D03*
X0013652Y0044017D03*
M02*
