G75*
%MOIN*%
%OFA0B0*%
%FSLAX25Y25*%
%IPPOS*%
%LPD*%
%AMOC8*
5,1,8,0,0,1.08239X$1,22.5*
%
%ADD10C,0.00000*%
%ADD11R,0.03543X0.02756*%
%ADD12R,0.02756X0.03543*%
%ADD13R,0.03937X0.05512*%
%ADD14R,0.05906X0.07087*%
%ADD15R,0.05512X0.01575*%
%ADD16R,0.01181X0.02362*%
%ADD17R,0.02362X0.01181*%
%ADD18R,0.10630X0.10630*%
%ADD19R,0.02165X0.04724*%
%ADD20R,0.04724X0.07874*%
%ADD21R,0.02756X0.04724*%
%ADD22R,0.03150X0.03150*%
%ADD23R,0.03346X0.01102*%
%ADD24R,0.08071X0.12008*%
%ADD25R,0.01102X0.03346*%
%ADD26R,0.03150X0.00984*%
%ADD27R,0.00984X0.03150*%
%ADD28R,0.02362X0.04724*%
%ADD29R,0.06299X0.01378*%
%ADD30R,0.05000X0.10000*%
%ADD31R,0.03937X0.03937*%
%ADD32C,0.13843*%
%ADD33R,0.04331X0.03937*%
%ADD34R,0.03937X0.04331*%
%ADD35C,0.00800*%
%ADD36C,0.02578*%
%ADD37C,0.01600*%
%ADD38C,0.00600*%
%ADD39C,0.01200*%
D10*
X0001841Y0001300D02*
X0001841Y0135158D01*
X0171132Y0135158D01*
X0171132Y0001300D01*
X0001841Y0001300D01*
X0016703Y0060749D02*
X0016705Y0060830D01*
X0016711Y0060912D01*
X0016721Y0060993D01*
X0016735Y0061073D01*
X0016752Y0061152D01*
X0016774Y0061231D01*
X0016799Y0061308D01*
X0016828Y0061385D01*
X0016861Y0061459D01*
X0016898Y0061532D01*
X0016937Y0061603D01*
X0016981Y0061672D01*
X0017027Y0061739D01*
X0017077Y0061803D01*
X0017130Y0061865D01*
X0017186Y0061925D01*
X0017244Y0061981D01*
X0017306Y0062035D01*
X0017370Y0062086D01*
X0017436Y0062133D01*
X0017504Y0062177D01*
X0017575Y0062218D01*
X0017647Y0062255D01*
X0017722Y0062289D01*
X0017797Y0062319D01*
X0017875Y0062345D01*
X0017953Y0062368D01*
X0018032Y0062386D01*
X0018112Y0062401D01*
X0018193Y0062412D01*
X0018274Y0062419D01*
X0018356Y0062422D01*
X0018437Y0062421D01*
X0018518Y0062416D01*
X0018599Y0062407D01*
X0018680Y0062394D01*
X0018760Y0062377D01*
X0018838Y0062357D01*
X0018916Y0062332D01*
X0018993Y0062304D01*
X0019068Y0062272D01*
X0019141Y0062237D01*
X0019212Y0062198D01*
X0019282Y0062155D01*
X0019349Y0062110D01*
X0019415Y0062061D01*
X0019477Y0062009D01*
X0019537Y0061953D01*
X0019594Y0061895D01*
X0019649Y0061835D01*
X0019700Y0061771D01*
X0019748Y0061706D01*
X0019793Y0061638D01*
X0019835Y0061568D01*
X0019873Y0061496D01*
X0019908Y0061422D01*
X0019939Y0061347D01*
X0019966Y0061270D01*
X0019989Y0061192D01*
X0020009Y0061113D01*
X0020025Y0061033D01*
X0020037Y0060952D01*
X0020045Y0060871D01*
X0020049Y0060790D01*
X0020049Y0060708D01*
X0020045Y0060627D01*
X0020037Y0060546D01*
X0020025Y0060465D01*
X0020009Y0060385D01*
X0019989Y0060306D01*
X0019966Y0060228D01*
X0019939Y0060151D01*
X0019908Y0060076D01*
X0019873Y0060002D01*
X0019835Y0059930D01*
X0019793Y0059860D01*
X0019748Y0059792D01*
X0019700Y0059727D01*
X0019649Y0059663D01*
X0019594Y0059603D01*
X0019537Y0059545D01*
X0019477Y0059489D01*
X0019415Y0059437D01*
X0019349Y0059388D01*
X0019282Y0059343D01*
X0019213Y0059300D01*
X0019141Y0059261D01*
X0019068Y0059226D01*
X0018993Y0059194D01*
X0018916Y0059166D01*
X0018838Y0059141D01*
X0018760Y0059121D01*
X0018680Y0059104D01*
X0018599Y0059091D01*
X0018518Y0059082D01*
X0018437Y0059077D01*
X0018356Y0059076D01*
X0018274Y0059079D01*
X0018193Y0059086D01*
X0018112Y0059097D01*
X0018032Y0059112D01*
X0017953Y0059130D01*
X0017875Y0059153D01*
X0017797Y0059179D01*
X0017722Y0059209D01*
X0017647Y0059243D01*
X0017575Y0059280D01*
X0017504Y0059321D01*
X0017436Y0059365D01*
X0017370Y0059412D01*
X0017306Y0059463D01*
X0017244Y0059517D01*
X0017186Y0059573D01*
X0017130Y0059633D01*
X0017077Y0059695D01*
X0017027Y0059759D01*
X0016981Y0059826D01*
X0016937Y0059895D01*
X0016898Y0059966D01*
X0016861Y0060039D01*
X0016828Y0060113D01*
X0016799Y0060190D01*
X0016774Y0060267D01*
X0016752Y0060346D01*
X0016735Y0060425D01*
X0016721Y0060505D01*
X0016711Y0060586D01*
X0016705Y0060668D01*
X0016703Y0060749D01*
X0016703Y0075709D02*
X0016705Y0075790D01*
X0016711Y0075872D01*
X0016721Y0075953D01*
X0016735Y0076033D01*
X0016752Y0076112D01*
X0016774Y0076191D01*
X0016799Y0076268D01*
X0016828Y0076345D01*
X0016861Y0076419D01*
X0016898Y0076492D01*
X0016937Y0076563D01*
X0016981Y0076632D01*
X0017027Y0076699D01*
X0017077Y0076763D01*
X0017130Y0076825D01*
X0017186Y0076885D01*
X0017244Y0076941D01*
X0017306Y0076995D01*
X0017370Y0077046D01*
X0017436Y0077093D01*
X0017504Y0077137D01*
X0017575Y0077178D01*
X0017647Y0077215D01*
X0017722Y0077249D01*
X0017797Y0077279D01*
X0017875Y0077305D01*
X0017953Y0077328D01*
X0018032Y0077346D01*
X0018112Y0077361D01*
X0018193Y0077372D01*
X0018274Y0077379D01*
X0018356Y0077382D01*
X0018437Y0077381D01*
X0018518Y0077376D01*
X0018599Y0077367D01*
X0018680Y0077354D01*
X0018760Y0077337D01*
X0018838Y0077317D01*
X0018916Y0077292D01*
X0018993Y0077264D01*
X0019068Y0077232D01*
X0019141Y0077197D01*
X0019212Y0077158D01*
X0019282Y0077115D01*
X0019349Y0077070D01*
X0019415Y0077021D01*
X0019477Y0076969D01*
X0019537Y0076913D01*
X0019594Y0076855D01*
X0019649Y0076795D01*
X0019700Y0076731D01*
X0019748Y0076666D01*
X0019793Y0076598D01*
X0019835Y0076528D01*
X0019873Y0076456D01*
X0019908Y0076382D01*
X0019939Y0076307D01*
X0019966Y0076230D01*
X0019989Y0076152D01*
X0020009Y0076073D01*
X0020025Y0075993D01*
X0020037Y0075912D01*
X0020045Y0075831D01*
X0020049Y0075750D01*
X0020049Y0075668D01*
X0020045Y0075587D01*
X0020037Y0075506D01*
X0020025Y0075425D01*
X0020009Y0075345D01*
X0019989Y0075266D01*
X0019966Y0075188D01*
X0019939Y0075111D01*
X0019908Y0075036D01*
X0019873Y0074962D01*
X0019835Y0074890D01*
X0019793Y0074820D01*
X0019748Y0074752D01*
X0019700Y0074687D01*
X0019649Y0074623D01*
X0019594Y0074563D01*
X0019537Y0074505D01*
X0019477Y0074449D01*
X0019415Y0074397D01*
X0019349Y0074348D01*
X0019282Y0074303D01*
X0019213Y0074260D01*
X0019141Y0074221D01*
X0019068Y0074186D01*
X0018993Y0074154D01*
X0018916Y0074126D01*
X0018838Y0074101D01*
X0018760Y0074081D01*
X0018680Y0074064D01*
X0018599Y0074051D01*
X0018518Y0074042D01*
X0018437Y0074037D01*
X0018356Y0074036D01*
X0018274Y0074039D01*
X0018193Y0074046D01*
X0018112Y0074057D01*
X0018032Y0074072D01*
X0017953Y0074090D01*
X0017875Y0074113D01*
X0017797Y0074139D01*
X0017722Y0074169D01*
X0017647Y0074203D01*
X0017575Y0074240D01*
X0017504Y0074281D01*
X0017436Y0074325D01*
X0017370Y0074372D01*
X0017306Y0074423D01*
X0017244Y0074477D01*
X0017186Y0074533D01*
X0017130Y0074593D01*
X0017077Y0074655D01*
X0017027Y0074719D01*
X0016981Y0074786D01*
X0016937Y0074855D01*
X0016898Y0074926D01*
X0016861Y0074999D01*
X0016828Y0075073D01*
X0016799Y0075150D01*
X0016774Y0075227D01*
X0016752Y0075306D01*
X0016735Y0075385D01*
X0016721Y0075465D01*
X0016711Y0075546D01*
X0016705Y0075628D01*
X0016703Y0075709D01*
D11*
X0005778Y0097166D03*
X0005778Y0102284D03*
X0005778Y0108977D03*
X0005778Y0114095D03*
X0013652Y0114095D03*
X0013652Y0108977D03*
X0060896Y0124725D03*
X0060896Y0129843D03*
X0068770Y0129843D03*
X0068770Y0124725D03*
X0068770Y0098347D03*
X0068770Y0093229D03*
X0064833Y0070788D03*
X0064833Y0065670D03*
X0064833Y0055040D03*
X0064833Y0049922D03*
X0072707Y0049922D03*
X0072707Y0055040D03*
X0060896Y0011733D03*
X0060896Y0006615D03*
X0053022Y0006615D03*
X0053022Y0011733D03*
X0045148Y0011733D03*
X0045148Y0006615D03*
X0092392Y0006615D03*
X0092392Y0011733D03*
D12*
X0075266Y0017048D03*
X0070148Y0017048D03*
X0070148Y0024922D03*
X0075266Y0024922D03*
X0075266Y0032796D03*
X0070148Y0032796D03*
X0070148Y0040670D03*
X0075266Y0040670D03*
X0085896Y0060355D03*
X0091014Y0060355D03*
X0049636Y0075434D03*
X0044518Y0075434D03*
X0037510Y0075434D03*
X0032392Y0075434D03*
X0054400Y0095788D03*
X0059518Y0095788D03*
X0051644Y0103662D03*
X0046526Y0103662D03*
X0046526Y0111536D03*
X0051644Y0111536D03*
X0028022Y0036733D03*
X0022904Y0036733D03*
X0022904Y0028859D03*
X0028022Y0028859D03*
X0028022Y0020985D03*
X0022904Y0020985D03*
X0160699Y0064292D03*
X0165817Y0064292D03*
D13*
X0051250Y0084410D03*
X0043770Y0084410D03*
X0035817Y0084410D03*
X0028337Y0084410D03*
X0032077Y0093072D03*
X0047510Y0093072D03*
D14*
X0009715Y0082733D03*
X0009715Y0053725D03*
D15*
X0020344Y0063111D03*
X0020344Y0065670D03*
X0020344Y0068229D03*
X0020344Y0070788D03*
X0020344Y0073347D03*
D16*
X0036289Y0067737D03*
X0038258Y0067737D03*
X0040226Y0067737D03*
X0042195Y0067737D03*
X0044163Y0067737D03*
X0046132Y0067737D03*
X0046132Y0052973D03*
X0044163Y0052973D03*
X0042195Y0052973D03*
X0040226Y0052973D03*
X0038258Y0052973D03*
X0036289Y0052973D03*
D17*
X0033829Y0055434D03*
X0033829Y0057402D03*
X0033829Y0059371D03*
X0033829Y0061339D03*
X0033829Y0063308D03*
X0033829Y0065276D03*
X0048593Y0065276D03*
X0048593Y0063308D03*
X0048593Y0061339D03*
X0048593Y0059371D03*
X0048593Y0057402D03*
X0048593Y0055434D03*
D18*
X0041211Y0060355D03*
D19*
X0037077Y0102481D03*
X0029596Y0102481D03*
X0029596Y0112717D03*
X0033337Y0112717D03*
X0037077Y0112717D03*
X0045344Y0118229D03*
X0049085Y0118229D03*
X0052825Y0118229D03*
X0052825Y0128466D03*
X0045344Y0128466D03*
D20*
X0082549Y0129253D03*
X0090423Y0129253D03*
X0098297Y0129253D03*
X0106171Y0129253D03*
X0114045Y0129253D03*
X0121919Y0129253D03*
X0129793Y0129253D03*
X0137667Y0129253D03*
X0137667Y0070198D03*
X0129793Y0070198D03*
X0121919Y0070198D03*
X0114045Y0070198D03*
X0106171Y0070198D03*
X0098297Y0070198D03*
X0090423Y0070198D03*
X0082549Y0070198D03*
D21*
X0021526Y0100316D03*
X0021526Y0114883D03*
D22*
X0013652Y0102678D03*
X0013652Y0096772D03*
X0056959Y0071182D03*
X0056959Y0065276D03*
X0056959Y0055434D03*
X0056959Y0049528D03*
X0084518Y0012127D03*
X0084518Y0006221D03*
X0160305Y0056418D03*
X0166211Y0056418D03*
D23*
X0052136Y0036733D03*
X0052136Y0034765D03*
X0052136Y0032796D03*
X0052136Y0030828D03*
X0052136Y0028859D03*
X0052136Y0026891D03*
X0052136Y0024922D03*
X0052136Y0022954D03*
X0038356Y0022954D03*
X0038356Y0024922D03*
X0038356Y0026891D03*
X0038356Y0028859D03*
X0038356Y0030828D03*
X0038356Y0032796D03*
X0038356Y0034765D03*
X0038356Y0036733D03*
D24*
X0045148Y0029843D03*
D25*
X0048100Y0021083D03*
X0042195Y0021083D03*
X0042195Y0038603D03*
X0048100Y0038603D03*
D26*
X0098494Y0048544D03*
X0098494Y0050513D03*
X0098494Y0052481D03*
X0098494Y0054450D03*
X0098494Y0056418D03*
X0109911Y0056418D03*
X0109911Y0054450D03*
X0109911Y0052481D03*
X0109911Y0050513D03*
X0109911Y0048544D03*
D27*
X0106171Y0046772D03*
X0104203Y0046772D03*
X0102234Y0046772D03*
X0102234Y0058190D03*
X0104203Y0058190D03*
X0106171Y0058190D03*
D28*
X0068573Y0106394D03*
X0061093Y0106394D03*
X0061093Y0116678D03*
X0064833Y0116678D03*
X0068573Y0116678D03*
D29*
X0093179Y0037816D03*
X0093179Y0035257D03*
X0093179Y0032698D03*
X0093179Y0030139D03*
X0093179Y0027580D03*
X0093179Y0025020D03*
X0093179Y0022461D03*
X0093179Y0019902D03*
X0115226Y0019902D03*
X0115226Y0022461D03*
X0115226Y0025020D03*
X0115226Y0027580D03*
X0115226Y0030139D03*
X0115226Y0032698D03*
X0115226Y0035257D03*
X0115226Y0037816D03*
D30*
X0123888Y0044607D03*
X0139636Y0056418D03*
X0139636Y0009174D03*
X0127825Y0009174D03*
X0116014Y0009174D03*
X0037274Y0009174D03*
X0025463Y0009174D03*
X0005778Y0040670D03*
X0025463Y0048544D03*
X0025463Y0127284D03*
X0037274Y0127284D03*
D31*
X0151447Y0047757D03*
X0151447Y0041457D03*
X0167195Y0041457D03*
X0167195Y0047757D03*
D32*
X0010896Y0010355D03*
X0010896Y0126103D03*
D33*
X0041801Y0044607D03*
X0048494Y0044607D03*
X0069360Y0009174D03*
X0076053Y0009174D03*
D34*
X0013652Y0037324D03*
X0013652Y0044017D03*
D35*
X0028022Y0036733D02*
X0028022Y0036143D01*
X0033337Y0030828D01*
X0038356Y0030828D01*
X0038356Y0028859D02*
X0028022Y0028859D01*
X0033337Y0033977D02*
X0033380Y0034021D01*
X0033337Y0033977D02*
X0034518Y0032796D01*
X0038356Y0032796D01*
X0038356Y0026891D02*
X0038339Y0026873D01*
X0036092Y0026873D01*
X0036518Y0024754D02*
X0032749Y0020985D01*
X0028022Y0020985D01*
X0036518Y0024754D02*
X0038188Y0024754D01*
X0038356Y0024922D01*
X0038356Y0022954D02*
X0038356Y0022068D01*
X0048458Y0011733D02*
X0050836Y0014111D01*
X0053420Y0014111D01*
X0058096Y0018787D01*
X0058096Y0025742D01*
X0056947Y0026891D01*
X0052136Y0026891D01*
X0052136Y0024922D02*
X0052304Y0024754D01*
X0053974Y0024754D01*
X0054809Y0023919D01*
X0054809Y0023843D01*
X0055698Y0022954D01*
X0059496Y0026322D02*
X0059496Y0018207D01*
X0053022Y0011733D01*
X0048458Y0011733D02*
X0045148Y0011733D01*
X0060896Y0011733D02*
X0060896Y0028859D01*
X0058927Y0030828D01*
X0052136Y0030828D01*
X0052136Y0028859D02*
X0056959Y0028859D01*
X0059496Y0026322D01*
X0064833Y0020985D02*
X0070148Y0020985D01*
X0070148Y0024922D01*
X0070148Y0020985D02*
X0070148Y0017048D01*
X0070148Y0009961D01*
X0069360Y0009174D01*
X0084518Y0006221D02*
X0091998Y0006221D01*
X0092392Y0006615D01*
X0092392Y0011733D02*
X0093770Y0013111D01*
X0108140Y0013111D01*
X0114931Y0019902D01*
X0115226Y0019902D01*
X0116014Y0009174D02*
X0108140Y0009174D01*
X0121919Y0005237D02*
X0127825Y0009174D01*
X0139636Y0009174D02*
X0139636Y0017048D01*
X0136486Y0047757D02*
X0127825Y0056418D01*
X0127825Y0064453D01*
X0125536Y0066742D01*
X0125536Y0080988D01*
X0127825Y0083277D01*
X0127825Y0095788D01*
X0124208Y0099405D01*
X0124208Y0099725D01*
X0124208Y0103662D02*
X0139636Y0103662D01*
X0143173Y0100125D01*
X0143173Y0068229D01*
X0143173Y0068063D01*
X0146944Y0064292D01*
X0160699Y0064292D01*
X0165817Y0064292D02*
X0166211Y0063898D01*
X0166211Y0056418D01*
X0151447Y0047757D02*
X0136486Y0047757D01*
X0139636Y0056418D02*
X0139636Y0064453D01*
X0141030Y0065846D01*
X0141030Y0090457D01*
X0131762Y0099725D01*
X0112077Y0111536D02*
X0112077Y0075943D01*
X0110683Y0074549D01*
X0110683Y0066835D01*
X0108140Y0064292D01*
X0114045Y0066064D02*
X0114045Y0070198D01*
X0114045Y0066064D02*
X0106171Y0058190D01*
X0107404Y0055942D02*
X0107078Y0055615D01*
X0106565Y0055615D01*
X0107404Y0055942D02*
X0109435Y0055942D01*
X0109911Y0056418D01*
X0109911Y0054450D02*
X0114045Y0054450D01*
X0121919Y0062324D01*
X0121919Y0070198D01*
X0118557Y0074549D02*
X0118557Y0062898D01*
X0116014Y0060355D01*
X0106171Y0070198D02*
X0106171Y0082009D01*
X0104203Y0083977D01*
X0101659Y0088500D02*
X0101659Y0065846D01*
X0100266Y0064453D01*
X0100266Y0064372D01*
X0100266Y0064292D01*
X0098297Y0070198D02*
X0098297Y0089883D01*
X0096329Y0091851D01*
X0092392Y0091851D01*
X0088455Y0095788D02*
X0088455Y0076103D01*
X0090423Y0074135D01*
X0090423Y0070198D01*
X0091014Y0069607D01*
X0091014Y0060355D01*
X0092392Y0052481D02*
X0098494Y0052481D01*
X0084518Y0048544D02*
X0084518Y0036733D01*
X0084518Y0036033D01*
X0082229Y0033744D01*
X0082229Y0023274D01*
X0088455Y0017048D01*
X0093179Y0022461D02*
X0097130Y0022461D01*
X0097960Y0023291D01*
X0093179Y0025020D02*
X0088553Y0025020D01*
X0088455Y0024922D01*
X0087175Y0030139D02*
X0093179Y0030139D01*
X0093179Y0032698D02*
X0088553Y0032698D01*
X0084518Y0036733D01*
X0084518Y0032796D02*
X0087175Y0030139D01*
X0080581Y0028859D02*
X0080581Y0047166D01*
X0072707Y0055040D01*
X0072707Y0049922D02*
X0063455Y0040670D01*
X0059321Y0036733D01*
X0052136Y0036733D01*
X0052136Y0034765D02*
X0059304Y0034765D01*
X0064035Y0039270D01*
X0064433Y0039668D01*
X0064840Y0040056D01*
X0064841Y0040076D01*
X0065331Y0040566D01*
X0070044Y0040566D01*
X0070148Y0040670D01*
X0070148Y0032796D02*
X0075266Y0027678D01*
X0075266Y0024922D01*
X0076644Y0024922D01*
X0080581Y0028859D01*
X0070148Y0032796D02*
X0052136Y0032796D01*
X0056959Y0049528D02*
X0064439Y0049528D01*
X0064833Y0049922D01*
X0064833Y0055040D02*
X0063455Y0056418D01*
X0060896Y0056418D01*
X0064833Y0056418D02*
X0064833Y0055040D01*
X0064833Y0056418D02*
X0074085Y0065670D01*
X0064833Y0065670D01*
X0064833Y0070788D02*
X0064439Y0071182D01*
X0056959Y0071182D01*
X0056959Y0076103D02*
X0072707Y0076103D01*
X0072707Y0080040D02*
X0056959Y0080040D01*
X0057822Y0083977D02*
X0053633Y0088166D01*
X0041746Y0088166D01*
X0040346Y0089566D01*
X0035622Y0089566D01*
X0032116Y0093072D01*
X0032077Y0093072D01*
X0029108Y0095497D02*
X0029108Y0096242D01*
X0035348Y0102481D01*
X0037077Y0102481D01*
X0041211Y0103554D02*
X0041211Y0103662D01*
X0046526Y0103662D01*
X0051644Y0103662D02*
X0059518Y0095788D01*
X0072707Y0095788D01*
X0072707Y0091851D02*
X0070148Y0091851D01*
X0068770Y0093229D01*
X0072707Y0087914D02*
X0055865Y0087914D01*
X0054213Y0089566D01*
X0051015Y0089566D01*
X0047510Y0093072D01*
X0038910Y0087456D02*
X0038910Y0081042D01*
X0044518Y0075434D01*
X0044754Y0071379D02*
X0044163Y0070788D01*
X0044163Y0067737D01*
X0042195Y0067737D02*
X0041817Y0068115D01*
X0041817Y0069332D01*
X0041604Y0069545D01*
X0041604Y0070985D01*
X0041576Y0071013D01*
X0041576Y0071379D01*
X0038258Y0074686D02*
X0037510Y0075434D01*
X0037510Y0082717D01*
X0035817Y0084410D01*
X0038910Y0087456D02*
X0038200Y0088166D01*
X0033434Y0088166D01*
X0029678Y0084410D01*
X0028337Y0084410D01*
X0033337Y0079765D02*
X0032392Y0078820D01*
X0032392Y0075434D01*
X0029400Y0074146D02*
X0029400Y0064292D01*
X0032352Y0061339D01*
X0033829Y0061339D01*
X0033632Y0059568D02*
X0031762Y0059568D01*
X0028000Y0063330D01*
X0028000Y0072166D01*
X0028000Y0073566D01*
X0025463Y0076103D01*
X0021526Y0080040D01*
X0017589Y0080040D01*
X0013652Y0076103D01*
X0013652Y0072166D01*
X0015030Y0070788D01*
X0020344Y0070788D01*
X0020344Y0068229D02*
X0013652Y0068229D01*
X0012252Y0069629D01*
X0012252Y0072166D01*
X0012252Y0076683D01*
X0017009Y0081440D01*
X0022106Y0081440D01*
X0029400Y0074146D01*
X0023100Y0073347D02*
X0021526Y0073347D01*
X0020344Y0073347D01*
X0012252Y0072166D02*
X0012252Y0071586D01*
X0019951Y0063505D02*
X0020344Y0063111D01*
X0022707Y0063111D01*
X0022707Y0060355D01*
X0029400Y0056418D02*
X0030384Y0057402D01*
X0033829Y0057402D01*
X0033829Y0059371D02*
X0033632Y0059568D01*
X0034207Y0062930D02*
X0035424Y0062930D01*
X0037999Y0060355D01*
X0041211Y0060355D01*
X0034207Y0062930D02*
X0033829Y0063308D01*
X0033451Y0063686D01*
X0032233Y0063686D01*
X0031648Y0064272D01*
X0031648Y0066281D01*
X0033337Y0067970D01*
X0033337Y0068229D01*
X0038258Y0067737D02*
X0038258Y0074686D01*
X0045148Y0080040D02*
X0045148Y0083032D01*
X0043770Y0084410D01*
X0049636Y0082796D02*
X0051250Y0084410D01*
X0049636Y0082796D02*
X0049636Y0075434D01*
X0049085Y0074883D01*
X0049085Y0072166D01*
X0046132Y0069213D01*
X0046132Y0067737D01*
X0048593Y0057402D02*
X0052825Y0057402D01*
X0056959Y0061536D01*
X0056959Y0065276D01*
X0056959Y0055434D02*
X0048593Y0055434D01*
X0038258Y0052973D02*
X0036289Y0052973D01*
X0033829Y0055434D01*
X0057822Y0083977D02*
X0072707Y0083977D01*
X0088455Y0095788D02*
X0092392Y0099725D01*
X0092392Y0103662D02*
X0090423Y0105631D01*
X0090423Y0129253D01*
X0098297Y0129253D02*
X0098297Y0091863D01*
X0101659Y0088500D01*
X0118557Y0074549D02*
X0121919Y0077911D01*
X0121919Y0129253D01*
X0114045Y0129253D02*
X0112077Y0127284D01*
X0112077Y0123347D01*
X0106171Y0117442D02*
X0112077Y0111536D01*
X0106171Y0117442D02*
X0106171Y0129253D01*
X0127825Y0123347D02*
X0129793Y0125316D01*
X0129793Y0129253D01*
X0137667Y0129253D02*
X0137667Y0125316D01*
X0135699Y0123347D01*
X0096897Y0103662D02*
X0096008Y0103662D01*
X0092392Y0103662D01*
X0068770Y0111536D02*
X0066990Y0113316D01*
X0066978Y0113316D01*
X0066392Y0113902D01*
X0066392Y0113914D01*
X0064833Y0115473D01*
X0064833Y0116678D01*
X0052825Y0118229D02*
X0052825Y0112717D01*
X0051644Y0111536D01*
X0061093Y0106394D02*
X0064833Y0104347D01*
X0064833Y0099725D01*
X0037077Y0111339D02*
X0037077Y0112717D01*
X0037077Y0111339D02*
X0033337Y0107599D01*
X0029400Y0107599D01*
X0029108Y0095497D02*
X0025463Y0091851D01*
X0017589Y0091851D01*
X0005778Y0091851D02*
X0005778Y0097166D01*
X0013652Y0102678D02*
X0007352Y0108977D01*
X0005778Y0108977D01*
X0008337Y0111536D02*
X0009715Y0111536D01*
X0008337Y0111536D02*
X0005778Y0114095D01*
X0021526Y0119410D02*
X0025463Y0119410D01*
X0076644Y0068229D02*
X0074085Y0065670D01*
X0100266Y0036733D02*
X0098789Y0035257D01*
X0093179Y0035257D01*
X0129793Y0070198D02*
X0129793Y0078072D01*
X0127825Y0080040D01*
X0135699Y0076103D02*
X0137667Y0074135D01*
X0137667Y0070198D01*
X0143173Y0068229D02*
X0143173Y0068063D01*
D36*
X0135699Y0076103D03*
X0127825Y0080040D03*
X0116014Y0091851D03*
X0124208Y0099725D03*
X0124208Y0103662D03*
X0131762Y0099725D03*
X0131762Y0115473D03*
X0135699Y0123347D03*
X0127825Y0123347D03*
X0112077Y0123347D03*
X0104203Y0107599D03*
X0096008Y0103662D03*
X0092392Y0099725D03*
X0084518Y0103662D03*
X0072707Y0095788D03*
X0072707Y0091851D03*
X0072707Y0087914D03*
X0072707Y0083977D03*
X0072707Y0080040D03*
X0072707Y0076103D03*
X0080581Y0064292D03*
X0084518Y0064292D03*
X0092392Y0052481D03*
X0084518Y0048544D03*
X0076644Y0044607D03*
X0064833Y0036733D03*
X0056959Y0044607D03*
X0045148Y0040670D03*
X0033337Y0040670D03*
X0033380Y0034021D03*
X0022707Y0032796D03*
X0013652Y0028859D03*
X0022904Y0017048D03*
X0037274Y0017048D03*
X0045148Y0020985D03*
X0045148Y0028859D03*
X0055698Y0022954D03*
X0064833Y0020985D03*
X0080581Y0020985D03*
X0088455Y0017048D03*
X0097960Y0023291D03*
X0104203Y0020985D03*
X0108140Y0009174D03*
X0121919Y0005237D03*
X0139636Y0017048D03*
X0127825Y0024922D03*
X0151447Y0032796D03*
X0147510Y0056418D03*
X0116014Y0060355D03*
X0112077Y0060355D03*
X0108140Y0064292D03*
X0100266Y0064372D03*
X0104203Y0052481D03*
X0092392Y0040670D03*
X0100266Y0036733D03*
X0088455Y0024922D03*
X0084518Y0032796D03*
X0060896Y0056418D03*
X0060896Y0060355D03*
X0044754Y0071379D03*
X0041576Y0071379D03*
X0033337Y0068229D03*
X0041211Y0060355D03*
X0029400Y0056418D03*
X0013652Y0064292D03*
X0033337Y0079765D03*
X0045148Y0080040D03*
X0056959Y0080040D03*
X0056959Y0076103D03*
X0056959Y0091851D03*
X0064833Y0099725D03*
X0056959Y0103662D03*
X0049085Y0099725D03*
X0041211Y0103554D03*
X0041211Y0095788D03*
X0029400Y0107599D03*
X0025463Y0111536D03*
X0017589Y0111536D03*
X0009715Y0111536D03*
X0025463Y0119410D03*
X0033337Y0119410D03*
X0041211Y0119410D03*
X0056959Y0115473D03*
X0068770Y0111536D03*
X0084518Y0119410D03*
X0068770Y0131221D03*
X0092392Y0091851D03*
X0104203Y0083977D03*
X0017589Y0087914D03*
X0017589Y0091851D03*
X0005778Y0091851D03*
D37*
X0005362Y0086856D02*
X0005362Y0048960D01*
X0009715Y0044607D01*
X0005778Y0040670D01*
X0009715Y0044607D02*
X0013061Y0044607D01*
X0013652Y0044017D01*
X0016998Y0040670D01*
X0017589Y0040670D01*
X0017589Y0028859D01*
X0021526Y0024922D01*
X0034141Y0024922D01*
X0036092Y0026873D01*
X0038356Y0022068D02*
X0025463Y0009174D01*
X0022904Y0011733D01*
X0022904Y0017048D01*
X0022904Y0020985D01*
X0022904Y0028859D02*
X0022904Y0032599D01*
X0022707Y0032796D01*
X0022904Y0032993D01*
X0022904Y0036733D01*
X0037408Y0044607D02*
X0041801Y0044607D01*
X0037408Y0044607D02*
X0028375Y0053640D01*
X0035622Y0053640D01*
X0036289Y0052973D01*
X0028375Y0053640D02*
X0026200Y0055815D01*
X0026200Y0056418D01*
X0026200Y0049281D01*
X0025463Y0048544D01*
X0026200Y0056418D02*
X0026200Y0072821D01*
X0025673Y0073347D01*
X0021526Y0073347D01*
X0005362Y0086856D02*
X0013652Y0095146D01*
X0013652Y0096772D01*
X0017982Y0096772D01*
X0021526Y0100316D01*
X0027431Y0100316D01*
X0029596Y0102481D01*
X0031652Y0102481D01*
X0035414Y0106243D01*
X0041233Y0106243D01*
X0046526Y0111536D01*
X0046526Y0114095D01*
X0045148Y0115473D01*
X0045148Y0118032D01*
X0045344Y0118229D01*
X0051162Y0124704D02*
X0056194Y0124704D01*
X0056215Y0124725D01*
X0060896Y0124725D01*
X0068770Y0124725D01*
X0072707Y0124725D01*
X0076644Y0120788D01*
X0076644Y0111536D01*
X0071502Y0106394D01*
X0068573Y0106394D01*
X0068770Y0106198D01*
X0068770Y0098347D01*
X0076289Y0107599D02*
X0076644Y0107599D01*
X0076644Y0111536D01*
X0076644Y0107599D02*
X0076644Y0068229D01*
X0076644Y0064292D01*
X0100266Y0040670D01*
X0104203Y0040670D01*
X0104203Y0032796D01*
X0098986Y0027580D01*
X0093179Y0027580D01*
X0104203Y0040670D02*
X0105231Y0041698D01*
X0102311Y0044618D01*
X0102311Y0046696D01*
X0102234Y0046772D01*
X0105231Y0041698D02*
X0109113Y0037816D01*
X0112077Y0037816D01*
X0116014Y0041753D01*
X0116014Y0044607D01*
X0112077Y0048544D01*
X0109911Y0048544D01*
X0112077Y0037816D02*
X0115226Y0037816D01*
X0117096Y0037816D01*
X0123888Y0044607D01*
X0115226Y0037816D02*
X0147805Y0037816D01*
X0151447Y0041457D01*
X0060896Y0006615D02*
X0053022Y0006615D01*
X0045148Y0006615D01*
X0039833Y0006615D01*
X0037274Y0009174D01*
X0037274Y0013111D01*
X0041211Y0017048D01*
X0048269Y0017048D01*
X0051841Y0020619D01*
X0051841Y0020985D01*
X0029596Y0112717D02*
X0027431Y0114883D01*
X0021526Y0114883D01*
X0014439Y0114883D01*
X0013652Y0114095D01*
X0021526Y0114883D02*
X0021526Y0119410D01*
X0021526Y0123347D01*
X0025463Y0127284D01*
X0045344Y0128466D02*
X0047400Y0128466D01*
X0051162Y0124704D01*
X0072707Y0124725D02*
X0078022Y0124725D01*
X0082549Y0129253D01*
D38*
X0079287Y0129381D02*
X0071841Y0129381D01*
X0071841Y0129543D02*
X0069070Y0129543D01*
X0069070Y0130143D01*
X0071841Y0130143D01*
X0071841Y0131392D01*
X0071753Y0131723D01*
X0071582Y0132019D01*
X0071340Y0132262D01*
X0071043Y0132433D01*
X0070712Y0132521D01*
X0069070Y0132521D01*
X0069070Y0130143D01*
X0068470Y0130143D01*
X0068470Y0132521D01*
X0066827Y0132521D01*
X0066496Y0132433D01*
X0066200Y0132262D01*
X0065958Y0132019D01*
X0065787Y0131723D01*
X0065698Y0131392D01*
X0065698Y0130143D01*
X0068470Y0130143D01*
X0068470Y0129543D01*
X0069070Y0129543D01*
X0069070Y0127165D01*
X0070712Y0127165D01*
X0071043Y0127254D01*
X0071340Y0127425D01*
X0071582Y0127667D01*
X0071753Y0127964D01*
X0071841Y0128294D01*
X0071841Y0129543D01*
X0071841Y0128783D02*
X0079287Y0128783D01*
X0079287Y0128395D02*
X0077317Y0126425D01*
X0071441Y0126425D01*
X0071441Y0126476D01*
X0070914Y0127003D01*
X0066625Y0127003D01*
X0066098Y0126476D01*
X0066098Y0126425D01*
X0063567Y0126425D01*
X0063567Y0126476D01*
X0063040Y0127003D01*
X0058751Y0127003D01*
X0058224Y0126476D01*
X0058224Y0126425D01*
X0055511Y0126425D01*
X0055490Y0126404D01*
X0054807Y0126404D01*
X0054807Y0131201D01*
X0054280Y0131728D01*
X0051369Y0131728D01*
X0050842Y0131201D01*
X0050842Y0127428D01*
X0048104Y0130166D01*
X0047327Y0130166D01*
X0047327Y0131201D01*
X0046800Y0131728D01*
X0043889Y0131728D01*
X0043362Y0131201D01*
X0043362Y0125731D01*
X0043889Y0125204D01*
X0046800Y0125204D01*
X0047327Y0125731D01*
X0047327Y0126134D01*
X0049462Y0123999D01*
X0050458Y0123004D01*
X0056898Y0123004D01*
X0056920Y0123025D01*
X0058224Y0123025D01*
X0058224Y0122974D01*
X0058751Y0122447D01*
X0063040Y0122447D01*
X0063567Y0122974D01*
X0063567Y0123025D01*
X0066098Y0123025D01*
X0066098Y0122974D01*
X0066625Y0122447D01*
X0070914Y0122447D01*
X0071441Y0122974D01*
X0071441Y0123025D01*
X0072003Y0123025D01*
X0074944Y0120084D01*
X0074944Y0112240D01*
X0070798Y0108094D01*
X0070654Y0108094D01*
X0070654Y0109129D01*
X0070127Y0109657D01*
X0069986Y0109657D01*
X0070959Y0110630D01*
X0070959Y0112443D01*
X0069986Y0113416D01*
X0070127Y0113416D01*
X0070654Y0113943D01*
X0070654Y0119413D01*
X0070127Y0119940D01*
X0067019Y0119940D01*
X0066703Y0119624D01*
X0066387Y0119940D01*
X0063279Y0119940D01*
X0063245Y0119907D01*
X0063072Y0120080D01*
X0062775Y0120252D01*
X0062445Y0120340D01*
X0061383Y0120340D01*
X0061383Y0116969D01*
X0060802Y0116969D01*
X0060802Y0120340D01*
X0059740Y0120340D01*
X0059410Y0120252D01*
X0059113Y0120080D01*
X0058871Y0119838D01*
X0058700Y0119542D01*
X0058611Y0119211D01*
X0058611Y0116969D01*
X0060802Y0116969D01*
X0060802Y0116387D01*
X0061383Y0116387D01*
X0061383Y0113016D01*
X0062445Y0113016D01*
X0062775Y0113104D01*
X0063072Y0113275D01*
X0063245Y0113449D01*
X0063279Y0113416D01*
X0065052Y0113416D01*
X0065092Y0113376D01*
X0065092Y0113363D01*
X0065678Y0112777D01*
X0066439Y0112016D01*
X0066452Y0112016D01*
X0066581Y0111887D01*
X0066581Y0110630D01*
X0067554Y0109657D01*
X0067019Y0109657D01*
X0066492Y0109129D01*
X0066492Y0103659D01*
X0067019Y0103132D01*
X0067070Y0103132D01*
X0067070Y0100625D01*
X0067022Y0100625D01*
X0067022Y0100632D01*
X0066133Y0101521D01*
X0066133Y0104015D01*
X0066232Y0104195D01*
X0066133Y0104533D01*
X0066133Y0104886D01*
X0065987Y0105031D01*
X0065929Y0105229D01*
X0065620Y0105398D01*
X0065371Y0105647D01*
X0065165Y0105647D01*
X0063174Y0106737D01*
X0063174Y0109129D01*
X0062646Y0109657D01*
X0059539Y0109657D01*
X0059011Y0109129D01*
X0059011Y0103659D01*
X0059539Y0103132D01*
X0062646Y0103132D01*
X0063174Y0103659D01*
X0063174Y0103773D01*
X0063533Y0103577D01*
X0063533Y0101521D01*
X0062644Y0100632D01*
X0062644Y0098818D01*
X0063926Y0097536D01*
X0065739Y0097536D01*
X0066098Y0097895D01*
X0066098Y0097088D01*
X0061796Y0097088D01*
X0061796Y0097933D01*
X0061268Y0098460D01*
X0058685Y0098460D01*
X0053922Y0103223D01*
X0053922Y0105807D01*
X0053394Y0106334D01*
X0049893Y0106334D01*
X0049366Y0105807D01*
X0049366Y0101518D01*
X0049893Y0100991D01*
X0052477Y0100991D01*
X0054700Y0098768D01*
X0054700Y0096088D01*
X0057078Y0096088D01*
X0057078Y0096390D01*
X0057240Y0096228D01*
X0057240Y0093644D01*
X0057767Y0093117D01*
X0061268Y0093117D01*
X0061796Y0093644D01*
X0061796Y0094488D01*
X0066098Y0094488D01*
X0066098Y0091478D01*
X0066625Y0090951D01*
X0069209Y0090951D01*
X0069609Y0090551D01*
X0070911Y0090551D01*
X0071580Y0089883D01*
X0070911Y0089214D01*
X0056403Y0089214D01*
X0054751Y0090866D01*
X0051554Y0090866D01*
X0050378Y0092042D01*
X0050378Y0096200D01*
X0049851Y0096728D01*
X0045169Y0096728D01*
X0044641Y0096200D01*
X0044641Y0089943D01*
X0045118Y0089466D01*
X0042285Y0089466D01*
X0041646Y0090105D01*
X0040885Y0090866D01*
X0036160Y0090866D01*
X0034945Y0092081D01*
X0034945Y0096200D01*
X0034418Y0096728D01*
X0031432Y0096728D01*
X0035094Y0100389D01*
X0035094Y0099746D01*
X0035621Y0099219D01*
X0038532Y0099219D01*
X0039059Y0099746D01*
X0039059Y0102610D01*
X0040304Y0101365D01*
X0042117Y0101365D01*
X0043114Y0102362D01*
X0044248Y0102362D01*
X0044248Y0101518D01*
X0044775Y0100991D01*
X0048276Y0100991D01*
X0048804Y0101518D01*
X0048804Y0105807D01*
X0048276Y0106334D01*
X0044775Y0106334D01*
X0044248Y0105807D01*
X0044248Y0104962D01*
X0042898Y0104962D01*
X0042627Y0105234D01*
X0042933Y0105539D01*
X0046258Y0108865D01*
X0048276Y0108865D01*
X0048804Y0109392D01*
X0048804Y0113681D01*
X0048276Y0114208D01*
X0048226Y0114208D01*
X0048226Y0114567D01*
X0048843Y0114567D01*
X0048843Y0117987D01*
X0049326Y0117987D01*
X0049326Y0114567D01*
X0050338Y0114567D01*
X0050669Y0114655D01*
X0050966Y0114826D01*
X0051208Y0115068D01*
X0051230Y0115106D01*
X0051369Y0114967D01*
X0051525Y0114967D01*
X0051525Y0114208D01*
X0049893Y0114208D01*
X0049366Y0113681D01*
X0049366Y0109392D01*
X0049893Y0108865D01*
X0053394Y0108865D01*
X0053922Y0109392D01*
X0053922Y0111976D01*
X0054125Y0112179D01*
X0054125Y0114967D01*
X0054280Y0114967D01*
X0054807Y0115494D01*
X0054807Y0120964D01*
X0054280Y0121491D01*
X0051369Y0121491D01*
X0051230Y0121351D01*
X0051208Y0121389D01*
X0050966Y0121631D01*
X0050669Y0121802D01*
X0050338Y0121891D01*
X0049326Y0121891D01*
X0049326Y0118470D01*
X0048843Y0118470D01*
X0048843Y0121891D01*
X0047831Y0121891D01*
X0047500Y0121802D01*
X0047204Y0121631D01*
X0046962Y0121389D01*
X0046940Y0121351D01*
X0046800Y0121491D01*
X0043889Y0121491D01*
X0043362Y0120964D01*
X0043362Y0115494D01*
X0043448Y0115408D01*
X0043448Y0114769D01*
X0044392Y0113825D01*
X0044248Y0113681D01*
X0044248Y0111662D01*
X0040529Y0107943D01*
X0035519Y0107943D01*
X0037031Y0109455D01*
X0038532Y0109455D01*
X0039059Y0109982D01*
X0039059Y0115452D01*
X0038532Y0115980D01*
X0035621Y0115980D01*
X0035481Y0115840D01*
X0035460Y0115878D01*
X0035218Y0116120D01*
X0034921Y0116291D01*
X0034590Y0116380D01*
X0033578Y0116380D01*
X0033578Y0112959D01*
X0033095Y0112959D01*
X0033095Y0116380D01*
X0032083Y0116380D01*
X0031752Y0116291D01*
X0031456Y0116120D01*
X0031214Y0115878D01*
X0031192Y0115840D01*
X0031052Y0115980D01*
X0028738Y0115980D01*
X0028135Y0116583D01*
X0023804Y0116583D01*
X0023804Y0117618D01*
X0023311Y0118110D01*
X0023667Y0118110D01*
X0024556Y0117221D01*
X0026369Y0117221D01*
X0027652Y0118504D01*
X0027652Y0120317D01*
X0026584Y0121384D01*
X0028335Y0121384D01*
X0028863Y0121911D01*
X0028863Y0132657D01*
X0028335Y0133184D01*
X0022590Y0133184D01*
X0022063Y0132657D01*
X0022063Y0126288D01*
X0019826Y0124051D01*
X0019826Y0118145D01*
X0019775Y0118145D01*
X0019248Y0117618D01*
X0019248Y0116583D01*
X0013735Y0116583D01*
X0013525Y0116373D01*
X0011507Y0116373D01*
X0010980Y0115846D01*
X0010980Y0113367D01*
X0010621Y0113725D01*
X0008808Y0113725D01*
X0008449Y0113367D01*
X0008449Y0115846D01*
X0007922Y0116373D01*
X0003633Y0116373D01*
X0003141Y0115881D01*
X0003141Y0123836D01*
X0003371Y0122753D01*
X0005384Y0119982D01*
X0008350Y0118269D01*
X0011757Y0117911D01*
X0015014Y0118970D01*
X0017560Y0121262D01*
X0018953Y0124391D01*
X0018953Y0127816D01*
X0017560Y0130945D01*
X0015014Y0133237D01*
X0013101Y0133858D01*
X0079583Y0133858D01*
X0079287Y0133563D01*
X0079287Y0128395D01*
X0079077Y0128184D02*
X0071812Y0128184D01*
X0071500Y0127586D02*
X0078478Y0127586D01*
X0077880Y0126987D02*
X0070930Y0126987D01*
X0069070Y0127586D02*
X0068470Y0127586D01*
X0068470Y0127165D02*
X0068470Y0129543D01*
X0065698Y0129543D01*
X0065698Y0128294D01*
X0065787Y0127964D01*
X0065958Y0127667D01*
X0066200Y0127425D01*
X0066496Y0127254D01*
X0066827Y0127165D01*
X0068470Y0127165D01*
X0068470Y0128184D02*
X0069070Y0128184D01*
X0069070Y0128783D02*
X0068470Y0128783D01*
X0068470Y0129381D02*
X0069070Y0129381D01*
X0069070Y0129980D02*
X0079287Y0129980D01*
X0079287Y0130578D02*
X0071841Y0130578D01*
X0071841Y0131177D02*
X0079287Y0131177D01*
X0079287Y0131775D02*
X0071722Y0131775D01*
X0071145Y0132374D02*
X0079287Y0132374D01*
X0079287Y0132972D02*
X0040877Y0132972D01*
X0040814Y0133082D02*
X0040572Y0133324D01*
X0040275Y0133496D01*
X0039945Y0133584D01*
X0037574Y0133584D01*
X0037574Y0127584D01*
X0041074Y0127584D01*
X0041074Y0132455D01*
X0040985Y0132786D01*
X0040814Y0133082D01*
X0041074Y0132374D02*
X0058521Y0132374D01*
X0058622Y0132433D02*
X0058326Y0132262D01*
X0058084Y0132019D01*
X0057913Y0131723D01*
X0057824Y0131392D01*
X0057824Y0130143D01*
X0060596Y0130143D01*
X0060596Y0132521D01*
X0058953Y0132521D01*
X0058622Y0132433D01*
X0057943Y0131775D02*
X0041074Y0131775D01*
X0041074Y0131177D02*
X0043362Y0131177D01*
X0043362Y0130578D02*
X0041074Y0130578D01*
X0041074Y0129980D02*
X0043362Y0129980D01*
X0043362Y0129381D02*
X0041074Y0129381D01*
X0041074Y0128783D02*
X0043362Y0128783D01*
X0043362Y0128184D02*
X0041074Y0128184D01*
X0041074Y0127586D02*
X0043362Y0127586D01*
X0043362Y0126987D02*
X0037574Y0126987D01*
X0037574Y0126984D02*
X0037574Y0127584D01*
X0036974Y0127584D01*
X0036974Y0133584D01*
X0034602Y0133584D01*
X0034272Y0133496D01*
X0033975Y0133324D01*
X0033733Y0133082D01*
X0033562Y0132786D01*
X0033474Y0132455D01*
X0033474Y0127584D01*
X0036974Y0127584D01*
X0036974Y0126984D01*
X0037574Y0126984D01*
X0041074Y0126984D01*
X0041074Y0122113D01*
X0040985Y0121782D01*
X0040814Y0121486D01*
X0040572Y0121244D01*
X0040275Y0121073D01*
X0039945Y0120984D01*
X0037574Y0120984D01*
X0037574Y0126984D01*
X0037574Y0126389D02*
X0036974Y0126389D01*
X0036974Y0126984D02*
X0036974Y0120984D01*
X0034602Y0120984D01*
X0034272Y0121073D01*
X0033975Y0121244D01*
X0033733Y0121486D01*
X0033562Y0121782D01*
X0033474Y0122113D01*
X0033474Y0126984D01*
X0036974Y0126984D01*
X0036974Y0126987D02*
X0028863Y0126987D01*
X0028863Y0126389D02*
X0033474Y0126389D01*
X0033474Y0125790D02*
X0028863Y0125790D01*
X0028863Y0125192D02*
X0033474Y0125192D01*
X0033474Y0124593D02*
X0028863Y0124593D01*
X0028863Y0123995D02*
X0033474Y0123995D01*
X0033474Y0123396D02*
X0028863Y0123396D01*
X0028863Y0122798D02*
X0033474Y0122798D01*
X0033474Y0122199D02*
X0028863Y0122199D01*
X0028552Y0121601D02*
X0033667Y0121601D01*
X0034535Y0121002D02*
X0026966Y0121002D01*
X0027565Y0120404D02*
X0043362Y0120404D01*
X0043362Y0119805D02*
X0027652Y0119805D01*
X0027652Y0119207D02*
X0043362Y0119207D01*
X0043362Y0118608D02*
X0027652Y0118608D01*
X0027158Y0118010D02*
X0043362Y0118010D01*
X0043362Y0117411D02*
X0026559Y0117411D01*
X0024366Y0117411D02*
X0023804Y0117411D01*
X0023804Y0116813D02*
X0043362Y0116813D01*
X0043362Y0116214D02*
X0035054Y0116214D01*
X0033578Y0116214D02*
X0033095Y0116214D01*
X0033095Y0115616D02*
X0033578Y0115616D01*
X0033578Y0115017D02*
X0033095Y0115017D01*
X0033095Y0114419D02*
X0033578Y0114419D01*
X0033578Y0113820D02*
X0033095Y0113820D01*
X0033095Y0113222D02*
X0033578Y0113222D01*
X0031619Y0116214D02*
X0028504Y0116214D01*
X0026727Y0113183D02*
X0023804Y0113183D01*
X0023804Y0112148D01*
X0023276Y0111620D01*
X0019775Y0111620D01*
X0019248Y0112148D01*
X0019248Y0113183D01*
X0016323Y0113183D01*
X0016323Y0112345D01*
X0015796Y0111817D01*
X0011904Y0111817D01*
X0011904Y0111655D01*
X0013352Y0111655D01*
X0013352Y0109277D01*
X0013952Y0109277D01*
X0016723Y0109277D01*
X0016723Y0110526D01*
X0016635Y0110857D01*
X0016463Y0111153D01*
X0016221Y0111395D01*
X0015925Y0111567D01*
X0015594Y0111655D01*
X0013952Y0111655D01*
X0013952Y0109277D01*
X0013952Y0108677D01*
X0016723Y0108677D01*
X0016723Y0107428D01*
X0016635Y0107097D01*
X0016463Y0106801D01*
X0016221Y0106559D01*
X0015925Y0106388D01*
X0015594Y0106299D01*
X0013952Y0106299D01*
X0013952Y0108677D01*
X0013352Y0108677D01*
X0013352Y0106299D01*
X0011869Y0106299D01*
X0013015Y0105153D01*
X0015599Y0105153D01*
X0016126Y0104626D01*
X0016126Y0100730D01*
X0015599Y0100203D01*
X0011704Y0100203D01*
X0011177Y0100730D01*
X0011177Y0103314D01*
X0007792Y0106699D01*
X0003633Y0106699D01*
X0003141Y0107192D01*
X0003141Y0104635D01*
X0003208Y0104702D01*
X0003504Y0104874D01*
X0003835Y0104962D01*
X0005478Y0104962D01*
X0005478Y0102584D01*
X0006078Y0102584D01*
X0008849Y0102584D01*
X0008849Y0103833D01*
X0008761Y0104164D01*
X0008589Y0104460D01*
X0008347Y0104702D01*
X0008051Y0104874D01*
X0007720Y0104962D01*
X0006078Y0104962D01*
X0006078Y0102584D01*
X0006078Y0101984D01*
X0008849Y0101984D01*
X0008849Y0100735D01*
X0008761Y0100405D01*
X0008589Y0100108D01*
X0008347Y0099866D01*
X0008051Y0099695D01*
X0007720Y0099606D01*
X0006078Y0099606D01*
X0006078Y0101984D01*
X0005478Y0101984D01*
X0005478Y0099606D01*
X0003835Y0099606D01*
X0003504Y0099695D01*
X0003208Y0099866D01*
X0003141Y0099933D01*
X0003141Y0098952D01*
X0003633Y0099444D01*
X0007922Y0099444D01*
X0008449Y0098917D01*
X0008449Y0095415D01*
X0007922Y0094888D01*
X0007078Y0094888D01*
X0007078Y0093647D01*
X0007967Y0092758D01*
X0007967Y0091865D01*
X0011177Y0095075D01*
X0011177Y0098720D01*
X0011704Y0099247D01*
X0015599Y0099247D01*
X0016126Y0098720D01*
X0016126Y0098472D01*
X0017278Y0098472D01*
X0019248Y0100442D01*
X0019248Y0103051D01*
X0019775Y0103578D01*
X0023276Y0103578D01*
X0023804Y0103051D01*
X0023804Y0102016D01*
X0026727Y0102016D01*
X0027614Y0102903D01*
X0027614Y0105216D01*
X0028141Y0105743D01*
X0028160Y0105743D01*
X0027211Y0106693D01*
X0027211Y0108506D01*
X0028160Y0109455D01*
X0028141Y0109455D01*
X0027614Y0109982D01*
X0027614Y0112296D01*
X0026727Y0113183D01*
X0027287Y0112623D02*
X0023804Y0112623D01*
X0023680Y0112025D02*
X0027614Y0112025D01*
X0027614Y0111426D02*
X0016168Y0111426D01*
X0016003Y0112025D02*
X0019371Y0112025D01*
X0019248Y0112623D02*
X0016323Y0112623D01*
X0016642Y0110828D02*
X0027614Y0110828D01*
X0027614Y0110229D02*
X0016723Y0110229D01*
X0016723Y0109631D02*
X0027966Y0109631D01*
X0027737Y0109032D02*
X0013952Y0109032D01*
X0013952Y0108434D02*
X0013352Y0108434D01*
X0013352Y0108677D02*
X0010580Y0108677D01*
X0010580Y0107588D01*
X0008821Y0109347D01*
X0010580Y0109347D01*
X0010580Y0109277D01*
X0013352Y0109277D01*
X0013352Y0108677D01*
X0013352Y0109032D02*
X0009136Y0109032D01*
X0009734Y0108434D02*
X0010580Y0108434D01*
X0010580Y0107835D02*
X0010333Y0107835D01*
X0007853Y0106638D02*
X0003141Y0106638D01*
X0003141Y0106039D02*
X0008452Y0106039D01*
X0009050Y0105441D02*
X0003141Y0105441D01*
X0003141Y0104842D02*
X0003450Y0104842D01*
X0005478Y0104842D02*
X0006078Y0104842D01*
X0006078Y0104244D02*
X0005478Y0104244D01*
X0005478Y0103645D02*
X0006078Y0103645D01*
X0006078Y0103047D02*
X0005478Y0103047D01*
X0006078Y0102448D02*
X0011177Y0102448D01*
X0011177Y0101850D02*
X0008849Y0101850D01*
X0008849Y0101251D02*
X0011177Y0101251D01*
X0011254Y0100653D02*
X0008827Y0100653D01*
X0008536Y0100054D02*
X0018860Y0100054D01*
X0019248Y0100653D02*
X0016049Y0100653D01*
X0016126Y0101251D02*
X0019248Y0101251D01*
X0019248Y0101850D02*
X0016126Y0101850D01*
X0016126Y0102448D02*
X0019248Y0102448D01*
X0019248Y0103047D02*
X0016126Y0103047D01*
X0016126Y0103645D02*
X0027614Y0103645D01*
X0027614Y0103047D02*
X0023804Y0103047D01*
X0023804Y0102448D02*
X0027160Y0102448D01*
X0027614Y0104244D02*
X0016126Y0104244D01*
X0015909Y0104842D02*
X0027614Y0104842D01*
X0027839Y0105441D02*
X0012727Y0105441D01*
X0012129Y0106039D02*
X0027864Y0106039D01*
X0027265Y0106638D02*
X0016300Y0106638D01*
X0016672Y0107237D02*
X0027211Y0107237D01*
X0027211Y0107835D02*
X0016723Y0107835D01*
X0016723Y0108434D02*
X0027211Y0108434D01*
X0036009Y0108434D02*
X0041019Y0108434D01*
X0041617Y0109032D02*
X0036608Y0109032D01*
X0038708Y0109631D02*
X0042216Y0109631D01*
X0042814Y0110229D02*
X0039059Y0110229D01*
X0039059Y0110828D02*
X0043413Y0110828D01*
X0044011Y0111426D02*
X0039059Y0111426D01*
X0039059Y0112025D02*
X0044248Y0112025D01*
X0044248Y0112623D02*
X0039059Y0112623D01*
X0039059Y0113222D02*
X0044248Y0113222D01*
X0044387Y0113820D02*
X0039059Y0113820D01*
X0039059Y0114419D02*
X0043798Y0114419D01*
X0043448Y0115017D02*
X0039059Y0115017D01*
X0038896Y0115616D02*
X0043362Y0115616D01*
X0048226Y0114419D02*
X0051525Y0114419D01*
X0051319Y0115017D02*
X0051156Y0115017D01*
X0049326Y0115017D02*
X0048843Y0115017D01*
X0048843Y0115616D02*
X0049326Y0115616D01*
X0049326Y0116214D02*
X0048843Y0116214D01*
X0048843Y0116813D02*
X0049326Y0116813D01*
X0049326Y0117411D02*
X0048843Y0117411D01*
X0048843Y0118608D02*
X0049326Y0118608D01*
X0049326Y0119207D02*
X0048843Y0119207D01*
X0048843Y0119805D02*
X0049326Y0119805D01*
X0049326Y0120404D02*
X0048843Y0120404D01*
X0048843Y0121002D02*
X0049326Y0121002D01*
X0049326Y0121601D02*
X0048843Y0121601D01*
X0047173Y0121601D02*
X0040880Y0121601D01*
X0041074Y0122199D02*
X0072828Y0122199D01*
X0072230Y0122798D02*
X0071265Y0122798D01*
X0073427Y0121601D02*
X0050996Y0121601D01*
X0050065Y0123396D02*
X0041074Y0123396D01*
X0041074Y0122798D02*
X0058401Y0122798D01*
X0058852Y0119805D02*
X0054807Y0119805D01*
X0054807Y0119207D02*
X0058611Y0119207D01*
X0058611Y0118608D02*
X0054807Y0118608D01*
X0054807Y0118010D02*
X0058611Y0118010D01*
X0058611Y0117411D02*
X0054807Y0117411D01*
X0054807Y0116813D02*
X0060802Y0116813D01*
X0060802Y0116387D02*
X0058611Y0116387D01*
X0058611Y0114145D01*
X0058700Y0113814D01*
X0058871Y0113518D01*
X0059113Y0113275D01*
X0059410Y0113104D01*
X0059740Y0113016D01*
X0060802Y0113016D01*
X0060802Y0116387D01*
X0060802Y0116214D02*
X0061383Y0116214D01*
X0061383Y0115616D02*
X0060802Y0115616D01*
X0060802Y0115017D02*
X0061383Y0115017D01*
X0061383Y0114419D02*
X0060802Y0114419D01*
X0060802Y0113820D02*
X0061383Y0113820D01*
X0061383Y0113222D02*
X0060802Y0113222D01*
X0059206Y0113222D02*
X0054125Y0113222D01*
X0054125Y0113820D02*
X0058698Y0113820D01*
X0058611Y0114419D02*
X0054125Y0114419D01*
X0054331Y0115017D02*
X0058611Y0115017D01*
X0058611Y0115616D02*
X0054807Y0115616D01*
X0054807Y0116214D02*
X0058611Y0116214D01*
X0060802Y0117411D02*
X0061383Y0117411D01*
X0061383Y0118010D02*
X0060802Y0118010D01*
X0060802Y0118608D02*
X0061383Y0118608D01*
X0061383Y0119207D02*
X0060802Y0119207D01*
X0060802Y0119805D02*
X0061383Y0119805D01*
X0063391Y0122798D02*
X0066275Y0122798D01*
X0066521Y0119805D02*
X0066884Y0119805D01*
X0070262Y0119805D02*
X0074944Y0119805D01*
X0074944Y0119207D02*
X0070654Y0119207D01*
X0070654Y0118608D02*
X0074944Y0118608D01*
X0074944Y0118010D02*
X0070654Y0118010D01*
X0070654Y0117411D02*
X0074944Y0117411D01*
X0074944Y0116813D02*
X0070654Y0116813D01*
X0070654Y0116214D02*
X0074944Y0116214D01*
X0074944Y0115616D02*
X0070654Y0115616D01*
X0070654Y0115017D02*
X0074944Y0115017D01*
X0074944Y0114419D02*
X0070654Y0114419D01*
X0070531Y0113820D02*
X0074944Y0113820D01*
X0074944Y0113222D02*
X0070180Y0113222D01*
X0070778Y0112623D02*
X0074944Y0112623D01*
X0074728Y0112025D02*
X0070959Y0112025D01*
X0070959Y0111426D02*
X0074129Y0111426D01*
X0073531Y0110828D02*
X0070959Y0110828D01*
X0070558Y0110229D02*
X0072932Y0110229D01*
X0072334Y0109631D02*
X0070153Y0109631D01*
X0070654Y0109032D02*
X0071735Y0109032D01*
X0071137Y0108434D02*
X0070654Y0108434D01*
X0073551Y0106039D02*
X0074944Y0106039D01*
X0074944Y0106541D02*
X0074944Y0068368D01*
X0073546Y0066970D01*
X0067504Y0066970D01*
X0067504Y0067421D01*
X0066977Y0067948D01*
X0062688Y0067948D01*
X0062161Y0067421D01*
X0062161Y0063919D01*
X0062688Y0063392D01*
X0066977Y0063392D01*
X0067504Y0063919D01*
X0067504Y0064370D01*
X0070946Y0064370D01*
X0064294Y0057718D01*
X0064144Y0057568D01*
X0063993Y0057718D01*
X0062691Y0057718D01*
X0061802Y0058607D01*
X0059989Y0058607D01*
X0059098Y0057716D01*
X0058906Y0057909D01*
X0055170Y0057909D01*
X0058259Y0060998D01*
X0058259Y0062802D01*
X0058906Y0062802D01*
X0059433Y0063329D01*
X0059433Y0067224D01*
X0058906Y0067751D01*
X0055011Y0067751D01*
X0054484Y0067224D01*
X0054484Y0063329D01*
X0055011Y0062802D01*
X0055659Y0062802D01*
X0055659Y0062075D01*
X0052286Y0058702D01*
X0050674Y0058702D01*
X0050674Y0060334D01*
X0050653Y0060355D01*
X0050674Y0060376D01*
X0050674Y0062303D01*
X0050653Y0062324D01*
X0050674Y0062345D01*
X0050674Y0064271D01*
X0050653Y0064292D01*
X0050674Y0064313D01*
X0050674Y0066240D01*
X0050146Y0066767D01*
X0047622Y0066767D01*
X0047622Y0068865D01*
X0049623Y0070866D01*
X0050385Y0071628D01*
X0050385Y0072762D01*
X0051387Y0072762D01*
X0051914Y0073289D01*
X0051914Y0077578D01*
X0051387Y0078105D01*
X0050936Y0078105D01*
X0050936Y0080754D01*
X0053591Y0080754D01*
X0054118Y0081282D01*
X0054118Y0085842D01*
X0057283Y0082677D01*
X0070911Y0082677D01*
X0071580Y0082009D01*
X0070911Y0081340D01*
X0058754Y0081340D01*
X0057865Y0082229D01*
X0056052Y0082229D01*
X0054770Y0080947D01*
X0054770Y0079133D01*
X0055831Y0078072D01*
X0054770Y0077010D01*
X0054770Y0075196D01*
X0056052Y0073914D01*
X0057865Y0073914D01*
X0058754Y0074803D01*
X0070911Y0074803D01*
X0071800Y0073914D01*
X0073613Y0073914D01*
X0074896Y0075196D01*
X0074896Y0077010D01*
X0073834Y0078072D01*
X0074896Y0079133D01*
X0074896Y0080947D01*
X0073834Y0082009D01*
X0074896Y0083070D01*
X0074896Y0084884D01*
X0073834Y0085946D01*
X0074896Y0087007D01*
X0074896Y0088821D01*
X0073834Y0089883D01*
X0074896Y0090944D01*
X0074896Y0092758D01*
X0073834Y0093820D01*
X0074896Y0094881D01*
X0074896Y0096695D01*
X0073613Y0097977D01*
X0071800Y0097977D01*
X0071441Y0097618D01*
X0071441Y0100098D01*
X0070914Y0100625D01*
X0070470Y0100625D01*
X0070470Y0103475D01*
X0070654Y0103659D01*
X0070654Y0104694D01*
X0072206Y0104694D01*
X0074589Y0107078D01*
X0074589Y0106895D01*
X0074944Y0106541D01*
X0074846Y0106638D02*
X0074150Y0106638D01*
X0074944Y0105441D02*
X0072953Y0105441D01*
X0072354Y0104842D02*
X0074944Y0104842D01*
X0074944Y0104244D02*
X0070654Y0104244D01*
X0070640Y0103645D02*
X0074944Y0103645D01*
X0074944Y0103047D02*
X0070470Y0103047D01*
X0070470Y0102448D02*
X0074944Y0102448D01*
X0074944Y0101850D02*
X0070470Y0101850D01*
X0070470Y0101251D02*
X0074944Y0101251D01*
X0074944Y0100653D02*
X0070470Y0100653D01*
X0071441Y0100054D02*
X0074944Y0100054D01*
X0074944Y0099456D02*
X0071441Y0099456D01*
X0071441Y0098857D02*
X0074944Y0098857D01*
X0074944Y0098259D02*
X0071441Y0098259D01*
X0071441Y0097660D02*
X0071483Y0097660D01*
X0073930Y0097660D02*
X0074944Y0097660D01*
X0074944Y0097062D02*
X0074529Y0097062D01*
X0074896Y0096463D02*
X0074944Y0096463D01*
X0074944Y0095865D02*
X0074896Y0095865D01*
X0074896Y0095266D02*
X0074944Y0095266D01*
X0074944Y0094668D02*
X0074682Y0094668D01*
X0074944Y0094069D02*
X0074083Y0094069D01*
X0074183Y0093471D02*
X0074944Y0093471D01*
X0074944Y0092872D02*
X0074781Y0092872D01*
X0074896Y0092274D02*
X0074944Y0092274D01*
X0074944Y0091675D02*
X0074896Y0091675D01*
X0074896Y0091077D02*
X0074944Y0091077D01*
X0074944Y0090478D02*
X0074429Y0090478D01*
X0074944Y0089880D02*
X0073837Y0089880D01*
X0074435Y0089281D02*
X0074944Y0089281D01*
X0074944Y0088683D02*
X0074896Y0088683D01*
X0074896Y0088084D02*
X0074944Y0088084D01*
X0074944Y0087486D02*
X0074896Y0087486D01*
X0074944Y0086887D02*
X0074775Y0086887D01*
X0074944Y0086289D02*
X0074177Y0086289D01*
X0074089Y0085690D02*
X0074944Y0085690D01*
X0074944Y0085092D02*
X0074688Y0085092D01*
X0074896Y0084493D02*
X0074944Y0084493D01*
X0074944Y0083895D02*
X0074896Y0083895D01*
X0074896Y0083296D02*
X0074944Y0083296D01*
X0074944Y0082698D02*
X0074523Y0082698D01*
X0074944Y0082099D02*
X0073924Y0082099D01*
X0074342Y0081501D02*
X0074944Y0081501D01*
X0074944Y0080902D02*
X0074896Y0080902D01*
X0074896Y0080303D02*
X0074944Y0080303D01*
X0074944Y0079705D02*
X0074896Y0079705D01*
X0074869Y0079106D02*
X0074944Y0079106D01*
X0074944Y0078508D02*
X0074270Y0078508D01*
X0073996Y0077909D02*
X0074944Y0077909D01*
X0074944Y0077311D02*
X0074595Y0077311D01*
X0074896Y0076712D02*
X0074944Y0076712D01*
X0074944Y0076114D02*
X0074896Y0076114D01*
X0074896Y0075515D02*
X0074944Y0075515D01*
X0074944Y0074917D02*
X0074616Y0074917D01*
X0074944Y0074318D02*
X0074018Y0074318D01*
X0074944Y0073720D02*
X0051914Y0073720D01*
X0051914Y0074318D02*
X0055648Y0074318D01*
X0055049Y0074917D02*
X0051914Y0074917D01*
X0051914Y0075515D02*
X0054770Y0075515D01*
X0054770Y0076114D02*
X0051914Y0076114D01*
X0051914Y0076712D02*
X0054770Y0076712D01*
X0055071Y0077311D02*
X0051914Y0077311D01*
X0051583Y0077909D02*
X0055669Y0077909D01*
X0055395Y0078508D02*
X0050936Y0078508D01*
X0050936Y0079106D02*
X0054797Y0079106D01*
X0054770Y0079705D02*
X0050936Y0079705D01*
X0050936Y0080303D02*
X0054770Y0080303D01*
X0054770Y0080902D02*
X0053739Y0080902D01*
X0054118Y0081501D02*
X0055323Y0081501D01*
X0055922Y0082099D02*
X0054118Y0082099D01*
X0054118Y0082698D02*
X0057263Y0082698D01*
X0056664Y0083296D02*
X0054118Y0083296D01*
X0054118Y0083895D02*
X0056066Y0083895D01*
X0055467Y0084493D02*
X0054118Y0084493D01*
X0054118Y0085092D02*
X0054869Y0085092D01*
X0054270Y0085690D02*
X0054118Y0085690D01*
X0057995Y0082099D02*
X0071489Y0082099D01*
X0071071Y0081501D02*
X0058594Y0081501D01*
X0058270Y0074318D02*
X0071396Y0074318D01*
X0074944Y0073121D02*
X0059433Y0073121D01*
X0059433Y0073129D02*
X0058906Y0073657D01*
X0055011Y0073657D01*
X0054484Y0073129D01*
X0054484Y0069234D01*
X0055011Y0068707D01*
X0058906Y0068707D01*
X0059433Y0069234D01*
X0059433Y0069882D01*
X0062161Y0069882D01*
X0062161Y0069037D01*
X0062688Y0068510D01*
X0066977Y0068510D01*
X0067504Y0069037D01*
X0067504Y0072539D01*
X0066977Y0073066D01*
X0062688Y0073066D01*
X0062161Y0072539D01*
X0062161Y0072482D01*
X0059433Y0072482D01*
X0059433Y0073129D01*
X0059433Y0072523D02*
X0062161Y0072523D01*
X0062161Y0069530D02*
X0059433Y0069530D01*
X0059131Y0068932D02*
X0062267Y0068932D01*
X0062475Y0067735D02*
X0058923Y0067735D01*
X0059433Y0067136D02*
X0062161Y0067136D01*
X0062161Y0066538D02*
X0059433Y0066538D01*
X0059433Y0065939D02*
X0062161Y0065939D01*
X0062161Y0065341D02*
X0059433Y0065341D01*
X0059433Y0064742D02*
X0062161Y0064742D01*
X0062161Y0064144D02*
X0059433Y0064144D01*
X0059433Y0063545D02*
X0062535Y0063545D01*
X0059051Y0062947D02*
X0069523Y0062947D01*
X0070121Y0063545D02*
X0067130Y0063545D01*
X0067504Y0064144D02*
X0070720Y0064144D01*
X0073200Y0062947D02*
X0075585Y0062947D01*
X0074986Y0063545D02*
X0073798Y0063545D01*
X0074397Y0064144D02*
X0074944Y0064144D01*
X0074944Y0064691D02*
X0074944Y0063588D01*
X0098566Y0039966D01*
X0099562Y0038970D01*
X0102503Y0038970D01*
X0102503Y0033500D01*
X0098282Y0029280D01*
X0097229Y0029280D01*
X0097229Y0031200D01*
X0097011Y0031418D01*
X0097229Y0031636D01*
X0097229Y0033759D01*
X0097031Y0033957D01*
X0099328Y0033957D01*
X0099915Y0034544D01*
X0101172Y0034544D01*
X0102455Y0035826D01*
X0102455Y0037640D01*
X0101172Y0038922D01*
X0099359Y0038922D01*
X0098077Y0037640D01*
X0098077Y0036557D01*
X0097031Y0036557D01*
X0097229Y0036754D01*
X0097229Y0038878D01*
X0096702Y0039405D01*
X0089657Y0039405D01*
X0089130Y0038878D01*
X0089130Y0036754D01*
X0089347Y0036536D01*
X0089130Y0036318D01*
X0089130Y0034195D01*
X0089327Y0033998D01*
X0089092Y0033998D01*
X0085818Y0037272D01*
X0085818Y0046748D01*
X0086707Y0047637D01*
X0086707Y0049451D01*
X0085424Y0050733D01*
X0083611Y0050733D01*
X0082329Y0049451D01*
X0082329Y0047637D01*
X0083218Y0046748D01*
X0083218Y0036572D01*
X0081881Y0035235D01*
X0081881Y0047705D01*
X0081119Y0048466D01*
X0075378Y0054207D01*
X0075378Y0056791D01*
X0074851Y0057318D01*
X0070562Y0057318D01*
X0070035Y0056791D01*
X0070035Y0053289D01*
X0070562Y0052762D01*
X0073146Y0052762D01*
X0073708Y0052200D01*
X0070562Y0052200D01*
X0070035Y0051673D01*
X0070035Y0049089D01*
X0062547Y0041601D01*
X0058801Y0038033D01*
X0054333Y0038033D01*
X0054182Y0038184D01*
X0050090Y0038184D01*
X0049563Y0037657D01*
X0049563Y0037091D01*
X0049552Y0037094D01*
X0049552Y0040649D01*
X0049024Y0041176D01*
X0047176Y0041176D01*
X0046649Y0040649D01*
X0046649Y0037147D01*
X0045448Y0037147D01*
X0045448Y0030143D01*
X0044848Y0030143D01*
X0044848Y0037147D01*
X0043646Y0037147D01*
X0043646Y0040649D01*
X0043119Y0041176D01*
X0041271Y0041176D01*
X0040744Y0040649D01*
X0040744Y0038373D01*
X0040531Y0038496D01*
X0040201Y0038584D01*
X0038356Y0038584D01*
X0036512Y0038584D01*
X0036181Y0038496D01*
X0035885Y0038324D01*
X0035643Y0038082D01*
X0035472Y0037786D01*
X0035383Y0037455D01*
X0035383Y0036733D01*
X0035383Y0036011D01*
X0035472Y0035680D01*
X0035643Y0035384D01*
X0035783Y0035243D01*
X0035783Y0034096D01*
X0035569Y0034096D01*
X0035569Y0034928D01*
X0034287Y0036210D01*
X0032474Y0036210D01*
X0031191Y0034928D01*
X0031191Y0034811D01*
X0030300Y0035703D01*
X0030300Y0038878D01*
X0029772Y0039405D01*
X0026271Y0039405D01*
X0025744Y0038878D01*
X0025744Y0034589D01*
X0026271Y0034061D01*
X0028264Y0034061D01*
X0032167Y0030159D01*
X0030300Y0030159D01*
X0030300Y0031003D01*
X0029772Y0031531D01*
X0026271Y0031531D01*
X0025744Y0031003D01*
X0025744Y0026715D01*
X0025836Y0026622D01*
X0025089Y0026622D01*
X0025181Y0026715D01*
X0025181Y0031003D01*
X0024654Y0031531D01*
X0024604Y0031531D01*
X0024604Y0031597D01*
X0024896Y0031889D01*
X0024896Y0033703D01*
X0024604Y0033995D01*
X0024604Y0034061D01*
X0024654Y0034061D01*
X0025181Y0034589D01*
X0025181Y0038878D01*
X0024654Y0039405D01*
X0021153Y0039405D01*
X0020626Y0038878D01*
X0020626Y0034589D01*
X0021015Y0034200D01*
X0020518Y0033703D01*
X0020518Y0031889D01*
X0021015Y0031392D01*
X0020626Y0031003D01*
X0020626Y0028226D01*
X0019289Y0029563D01*
X0019289Y0041374D01*
X0018293Y0042370D01*
X0017702Y0042370D01*
X0016520Y0043552D01*
X0016520Y0046555D01*
X0015993Y0047082D01*
X0011310Y0047082D01*
X0010783Y0046555D01*
X0010783Y0046307D01*
X0010419Y0046307D01*
X0007444Y0049282D01*
X0013040Y0049282D01*
X0013567Y0049809D01*
X0013567Y0057641D01*
X0013040Y0058168D01*
X0007062Y0058168D01*
X0007062Y0078290D01*
X0012020Y0078290D01*
X0010952Y0077222D01*
X0010952Y0069091D01*
X0011713Y0068329D01*
X0013113Y0066929D01*
X0016787Y0066929D01*
X0016689Y0066830D01*
X0016689Y0064837D01*
X0016548Y0064697D01*
X0016377Y0064400D01*
X0016289Y0064070D01*
X0016289Y0063205D01*
X0016627Y0063205D01*
X0016440Y0063017D01*
X0016289Y0063017D01*
X0016289Y0062866D01*
X0015855Y0062433D01*
X0015403Y0061340D01*
X0015403Y0060157D01*
X0015855Y0059065D01*
X0016692Y0058228D01*
X0017785Y0057776D01*
X0018967Y0057776D01*
X0020060Y0058228D01*
X0020897Y0059065D01*
X0021349Y0060157D01*
X0021349Y0061024D01*
X0023272Y0061024D01*
X0023602Y0061112D01*
X0023899Y0061283D01*
X0024141Y0061525D01*
X0024312Y0061822D01*
X0024400Y0062152D01*
X0024400Y0063017D01*
X0020438Y0063017D01*
X0020438Y0063205D01*
X0024400Y0063205D01*
X0024400Y0064070D01*
X0024312Y0064400D01*
X0024141Y0064697D01*
X0024000Y0064837D01*
X0024000Y0066830D01*
X0023881Y0066950D01*
X0024000Y0067069D01*
X0024000Y0069389D01*
X0023881Y0069509D01*
X0024000Y0069628D01*
X0024000Y0071647D01*
X0024500Y0071647D01*
X0024500Y0054444D01*
X0022590Y0054444D01*
X0022063Y0053917D01*
X0022063Y0043171D01*
X0022590Y0042644D01*
X0028335Y0042644D01*
X0028863Y0043171D01*
X0028863Y0050748D01*
X0035708Y0043903D01*
X0036704Y0042907D01*
X0038736Y0042907D01*
X0038736Y0042266D01*
X0039263Y0041739D01*
X0044339Y0041739D01*
X0044867Y0042266D01*
X0044867Y0046948D01*
X0044339Y0047476D01*
X0039263Y0047476D01*
X0038736Y0046948D01*
X0038736Y0046307D01*
X0038112Y0046307D01*
X0032479Y0051940D01*
X0034799Y0051940D01*
X0034799Y0051419D01*
X0035326Y0050892D01*
X0037253Y0050892D01*
X0037274Y0050913D01*
X0037295Y0050892D01*
X0039221Y0050892D01*
X0039242Y0050913D01*
X0039263Y0050892D01*
X0041190Y0050892D01*
X0041211Y0050913D01*
X0041232Y0050892D01*
X0043158Y0050892D01*
X0043179Y0050913D01*
X0043200Y0050892D01*
X0045127Y0050892D01*
X0045148Y0050913D01*
X0045169Y0050892D01*
X0047095Y0050892D01*
X0047622Y0051419D01*
X0047622Y0053943D01*
X0050146Y0053943D01*
X0050337Y0054134D01*
X0054484Y0054134D01*
X0054484Y0053486D01*
X0055011Y0052959D01*
X0058906Y0052959D01*
X0059433Y0053486D01*
X0059433Y0054785D01*
X0059989Y0054229D01*
X0061802Y0054229D01*
X0062161Y0054588D01*
X0062161Y0053289D01*
X0062688Y0052762D01*
X0066977Y0052762D01*
X0067504Y0053289D01*
X0067504Y0056791D01*
X0067274Y0057021D01*
X0074944Y0064691D01*
X0076184Y0062348D02*
X0072601Y0062348D01*
X0072003Y0061750D02*
X0076782Y0061750D01*
X0077381Y0061151D02*
X0071404Y0061151D01*
X0070806Y0060553D02*
X0077979Y0060553D01*
X0078578Y0059954D02*
X0070207Y0059954D01*
X0069609Y0059356D02*
X0079176Y0059356D01*
X0079775Y0058757D02*
X0069010Y0058757D01*
X0068412Y0058159D02*
X0080373Y0058159D01*
X0080972Y0057560D02*
X0067813Y0057560D01*
X0067334Y0056962D02*
X0070206Y0056962D01*
X0070035Y0056363D02*
X0067504Y0056363D01*
X0067504Y0055765D02*
X0070035Y0055765D01*
X0070035Y0055166D02*
X0067504Y0055166D01*
X0067504Y0054568D02*
X0070035Y0054568D01*
X0070035Y0053969D02*
X0067504Y0053969D01*
X0067504Y0053370D02*
X0070035Y0053370D01*
X0070552Y0052772D02*
X0066987Y0052772D01*
X0066977Y0052200D02*
X0067504Y0051673D01*
X0067504Y0048171D01*
X0066977Y0047644D01*
X0062688Y0047644D01*
X0062161Y0048171D01*
X0062161Y0048228D01*
X0059433Y0048228D01*
X0059433Y0047581D01*
X0058906Y0047054D01*
X0055011Y0047054D01*
X0054484Y0047581D01*
X0054484Y0051476D01*
X0055011Y0052003D01*
X0058906Y0052003D01*
X0059433Y0051476D01*
X0059433Y0050828D01*
X0062161Y0050828D01*
X0062161Y0051673D01*
X0062688Y0052200D01*
X0066977Y0052200D01*
X0067004Y0052173D02*
X0070536Y0052173D01*
X0070035Y0051575D02*
X0067504Y0051575D01*
X0067504Y0050976D02*
X0070035Y0050976D01*
X0070035Y0050378D02*
X0067504Y0050378D01*
X0067504Y0049779D02*
X0070035Y0049779D01*
X0070035Y0049181D02*
X0067504Y0049181D01*
X0067504Y0048582D02*
X0069529Y0048582D01*
X0068930Y0047984D02*
X0067317Y0047984D01*
X0068332Y0047385D02*
X0059238Y0047385D01*
X0059433Y0047984D02*
X0062348Y0047984D01*
X0062161Y0050976D02*
X0059433Y0050976D01*
X0059334Y0051575D02*
X0062161Y0051575D01*
X0062662Y0052173D02*
X0047622Y0052173D01*
X0047622Y0051575D02*
X0054583Y0051575D01*
X0054484Y0050976D02*
X0047180Y0050976D01*
X0047622Y0052772D02*
X0062678Y0052772D01*
X0062161Y0053370D02*
X0059318Y0053370D01*
X0059433Y0053969D02*
X0062161Y0053969D01*
X0062141Y0054568D02*
X0062161Y0054568D01*
X0059651Y0054568D02*
X0059433Y0054568D01*
X0059540Y0058159D02*
X0055419Y0058159D01*
X0056018Y0058757D02*
X0065333Y0058757D01*
X0064735Y0058159D02*
X0062251Y0058159D01*
X0065932Y0059356D02*
X0056616Y0059356D01*
X0057215Y0059954D02*
X0066530Y0059954D01*
X0067129Y0060553D02*
X0057814Y0060553D01*
X0058259Y0061151D02*
X0067727Y0061151D01*
X0068326Y0061750D02*
X0058259Y0061750D01*
X0058259Y0062348D02*
X0068924Y0062348D01*
X0067504Y0067136D02*
X0073712Y0067136D01*
X0074311Y0067735D02*
X0067190Y0067735D01*
X0067399Y0068932D02*
X0074944Y0068932D01*
X0074944Y0069530D02*
X0067504Y0069530D01*
X0067504Y0070129D02*
X0074944Y0070129D01*
X0074944Y0070727D02*
X0067504Y0070727D01*
X0067504Y0071326D02*
X0074944Y0071326D01*
X0074944Y0071924D02*
X0067504Y0071924D01*
X0067504Y0072523D02*
X0074944Y0072523D01*
X0078344Y0072523D02*
X0078887Y0072523D01*
X0078887Y0073121D02*
X0078344Y0073121D01*
X0078344Y0073720D02*
X0078887Y0073720D01*
X0078887Y0074306D02*
X0078887Y0070498D01*
X0082249Y0070498D01*
X0082249Y0075435D01*
X0080016Y0075435D01*
X0079685Y0075346D01*
X0079389Y0075175D01*
X0079147Y0074933D01*
X0078976Y0074636D01*
X0078887Y0074306D01*
X0078890Y0074318D02*
X0078344Y0074318D01*
X0078344Y0074917D02*
X0079138Y0074917D01*
X0078344Y0075515D02*
X0087204Y0075515D01*
X0087155Y0075565D02*
X0087687Y0075033D01*
X0087161Y0074507D01*
X0087161Y0065888D01*
X0087688Y0065361D01*
X0089714Y0065361D01*
X0089714Y0063027D01*
X0089263Y0063027D01*
X0088736Y0062500D01*
X0088736Y0058211D01*
X0089263Y0057683D01*
X0092765Y0057683D01*
X0093292Y0058211D01*
X0093292Y0062500D01*
X0092765Y0063027D01*
X0092314Y0063027D01*
X0092314Y0065361D01*
X0093158Y0065361D01*
X0093685Y0065888D01*
X0093685Y0074507D01*
X0093158Y0075035D01*
X0091362Y0075035D01*
X0090962Y0075435D01*
X0089755Y0076642D01*
X0089755Y0095250D01*
X0092041Y0097536D01*
X0093298Y0097536D01*
X0094581Y0098818D01*
X0094581Y0100632D01*
X0093298Y0101914D01*
X0091485Y0101914D01*
X0090203Y0100632D01*
X0090203Y0099375D01*
X0087916Y0097088D01*
X0087155Y0096327D01*
X0087155Y0075565D01*
X0087155Y0076114D02*
X0078344Y0076114D01*
X0078344Y0076712D02*
X0087155Y0076712D01*
X0087155Y0077311D02*
X0078344Y0077311D01*
X0078344Y0077909D02*
X0087155Y0077909D01*
X0087155Y0078508D02*
X0078344Y0078508D01*
X0078344Y0079106D02*
X0087155Y0079106D01*
X0087155Y0079705D02*
X0078344Y0079705D01*
X0078344Y0080303D02*
X0087155Y0080303D01*
X0087155Y0080902D02*
X0078344Y0080902D01*
X0078344Y0081501D02*
X0087155Y0081501D01*
X0087155Y0082099D02*
X0078344Y0082099D01*
X0078344Y0082698D02*
X0087155Y0082698D01*
X0087155Y0083296D02*
X0078344Y0083296D01*
X0078344Y0083895D02*
X0087155Y0083895D01*
X0087155Y0084493D02*
X0078344Y0084493D01*
X0078344Y0085092D02*
X0087155Y0085092D01*
X0087155Y0085690D02*
X0078344Y0085690D01*
X0078344Y0086289D02*
X0087155Y0086289D01*
X0087155Y0086887D02*
X0078344Y0086887D01*
X0078344Y0087486D02*
X0087155Y0087486D01*
X0087155Y0088084D02*
X0078344Y0088084D01*
X0078344Y0088683D02*
X0087155Y0088683D01*
X0087155Y0089281D02*
X0078344Y0089281D01*
X0078344Y0089880D02*
X0087155Y0089880D01*
X0087155Y0090478D02*
X0078344Y0090478D01*
X0078344Y0091077D02*
X0087155Y0091077D01*
X0087155Y0091675D02*
X0078344Y0091675D01*
X0078344Y0092274D02*
X0087155Y0092274D01*
X0087155Y0092872D02*
X0078344Y0092872D01*
X0078344Y0093471D02*
X0087155Y0093471D01*
X0087155Y0094069D02*
X0078344Y0094069D01*
X0078344Y0094668D02*
X0087155Y0094668D01*
X0087155Y0095266D02*
X0078344Y0095266D01*
X0078344Y0095865D02*
X0087155Y0095865D01*
X0087291Y0096463D02*
X0078344Y0096463D01*
X0078344Y0097062D02*
X0087890Y0097062D01*
X0088488Y0097660D02*
X0078344Y0097660D01*
X0078344Y0098259D02*
X0089087Y0098259D01*
X0089685Y0098857D02*
X0078344Y0098857D01*
X0078344Y0099456D02*
X0090203Y0099456D01*
X0090203Y0100054D02*
X0078344Y0100054D01*
X0078344Y0100653D02*
X0090224Y0100653D01*
X0090822Y0101251D02*
X0078344Y0101251D01*
X0078344Y0101850D02*
X0091421Y0101850D01*
X0091853Y0102362D02*
X0094213Y0102362D01*
X0095102Y0101473D01*
X0096915Y0101473D01*
X0096997Y0101556D01*
X0096997Y0093021D01*
X0096867Y0093151D01*
X0094187Y0093151D01*
X0093298Y0094040D01*
X0091485Y0094040D01*
X0090203Y0092758D01*
X0090203Y0090944D01*
X0091485Y0089662D01*
X0093298Y0089662D01*
X0094187Y0090551D01*
X0095790Y0090551D01*
X0096997Y0089344D01*
X0096997Y0075035D01*
X0095562Y0075035D01*
X0095035Y0074507D01*
X0095035Y0065888D01*
X0095562Y0065361D01*
X0098159Y0065361D01*
X0098077Y0065278D01*
X0098077Y0063465D01*
X0099359Y0062183D01*
X0101172Y0062183D01*
X0102455Y0063465D01*
X0102455Y0064803D01*
X0102959Y0065308D01*
X0102959Y0065837D01*
X0103436Y0065361D01*
X0106113Y0065361D01*
X0105951Y0065199D01*
X0105951Y0063385D01*
X0107233Y0062103D01*
X0108246Y0062103D01*
X0106808Y0060665D01*
X0105306Y0060665D01*
X0105187Y0060545D01*
X0105068Y0060665D01*
X0103338Y0060665D01*
X0103218Y0060545D01*
X0103099Y0060665D01*
X0101369Y0060665D01*
X0100842Y0060137D01*
X0100842Y0057410D01*
X0100442Y0057810D01*
X0096546Y0057810D01*
X0096019Y0057283D01*
X0096019Y0055880D01*
X0095879Y0055740D01*
X0095708Y0055444D01*
X0095619Y0055113D01*
X0095619Y0054450D01*
X0098494Y0054450D01*
X0098494Y0054450D01*
X0101369Y0054450D01*
X0101369Y0055113D01*
X0101280Y0055444D01*
X0101109Y0055740D01*
X0100969Y0055880D01*
X0100969Y0056115D01*
X0101369Y0055715D01*
X0103099Y0055715D01*
X0103218Y0055834D01*
X0103338Y0055715D01*
X0105068Y0055715D01*
X0105187Y0055834D01*
X0105306Y0055715D01*
X0107036Y0055715D01*
X0107045Y0055724D01*
X0107125Y0055424D01*
X0107296Y0055128D01*
X0107437Y0054987D01*
X0107437Y0053585D01*
X0107556Y0053465D01*
X0107437Y0053346D01*
X0107437Y0051616D01*
X0107556Y0051497D01*
X0107437Y0051378D01*
X0107437Y0049648D01*
X0107556Y0049528D01*
X0107437Y0049409D01*
X0107437Y0048847D01*
X0107036Y0049247D01*
X0105306Y0049247D01*
X0105187Y0049128D01*
X0105068Y0049247D01*
X0103338Y0049247D01*
X0103218Y0049128D01*
X0103099Y0049247D01*
X0101369Y0049247D01*
X0100969Y0048847D01*
X0100969Y0049082D01*
X0101109Y0049222D01*
X0101280Y0049519D01*
X0101369Y0049849D01*
X0101369Y0050513D01*
X0101369Y0051176D01*
X0101280Y0051506D01*
X0101109Y0051803D01*
X0100969Y0051943D01*
X0100969Y0053019D01*
X0101109Y0053159D01*
X0101280Y0053456D01*
X0101369Y0053786D01*
X0101369Y0054450D01*
X0098494Y0054450D01*
X0098494Y0054450D01*
X0095619Y0054450D01*
X0095619Y0053786D01*
X0095621Y0053781D01*
X0094187Y0053781D01*
X0093298Y0054670D01*
X0091485Y0054670D01*
X0090203Y0053388D01*
X0090203Y0053137D01*
X0085596Y0057744D01*
X0085596Y0060055D01*
X0086196Y0060055D01*
X0086196Y0060655D01*
X0088574Y0060655D01*
X0088574Y0062298D01*
X0088485Y0062629D01*
X0088314Y0062925D01*
X0088072Y0063167D01*
X0087775Y0063338D01*
X0087445Y0063427D01*
X0086196Y0063427D01*
X0086196Y0060655D01*
X0085596Y0060655D01*
X0085596Y0063427D01*
X0084347Y0063427D01*
X0084016Y0063338D01*
X0083719Y0063167D01*
X0083477Y0062925D01*
X0083306Y0062629D01*
X0083218Y0062298D01*
X0083218Y0060655D01*
X0085596Y0060655D01*
X0085596Y0060055D01*
X0083285Y0060055D01*
X0078344Y0064996D01*
X0078344Y0121492D01*
X0077348Y0122488D01*
X0076811Y0123025D01*
X0078726Y0123025D01*
X0080116Y0124416D01*
X0085284Y0124416D01*
X0085811Y0124943D01*
X0085811Y0133563D01*
X0085516Y0133858D01*
X0087457Y0133858D01*
X0087161Y0133563D01*
X0087161Y0124943D01*
X0087688Y0124416D01*
X0089123Y0124416D01*
X0089123Y0105092D01*
X0089885Y0104331D01*
X0091853Y0102362D01*
X0091767Y0102448D02*
X0078344Y0102448D01*
X0078344Y0103047D02*
X0091169Y0103047D01*
X0090570Y0103645D02*
X0078344Y0103645D01*
X0078344Y0104244D02*
X0089972Y0104244D01*
X0089373Y0104842D02*
X0078344Y0104842D01*
X0078344Y0105441D02*
X0089123Y0105441D01*
X0089123Y0106039D02*
X0078344Y0106039D01*
X0078344Y0106638D02*
X0089123Y0106638D01*
X0089123Y0107237D02*
X0078344Y0107237D01*
X0078344Y0107835D02*
X0089123Y0107835D01*
X0089123Y0108434D02*
X0078344Y0108434D01*
X0078344Y0109032D02*
X0089123Y0109032D01*
X0089123Y0109631D02*
X0078344Y0109631D01*
X0078344Y0110229D02*
X0089123Y0110229D01*
X0089123Y0110828D02*
X0078344Y0110828D01*
X0078344Y0111426D02*
X0089123Y0111426D01*
X0089123Y0112025D02*
X0078344Y0112025D01*
X0078344Y0112623D02*
X0089123Y0112623D01*
X0089123Y0113222D02*
X0078344Y0113222D01*
X0078344Y0113820D02*
X0089123Y0113820D01*
X0089123Y0114419D02*
X0078344Y0114419D01*
X0078344Y0115017D02*
X0089123Y0115017D01*
X0089123Y0115616D02*
X0078344Y0115616D01*
X0078344Y0116214D02*
X0089123Y0116214D01*
X0089123Y0116813D02*
X0078344Y0116813D01*
X0078344Y0117411D02*
X0089123Y0117411D01*
X0089123Y0118010D02*
X0078344Y0118010D01*
X0078344Y0118608D02*
X0089123Y0118608D01*
X0089123Y0119207D02*
X0078344Y0119207D01*
X0078344Y0119805D02*
X0089123Y0119805D01*
X0089123Y0120404D02*
X0078344Y0120404D01*
X0078344Y0121002D02*
X0089123Y0121002D01*
X0089123Y0121601D02*
X0078235Y0121601D01*
X0077637Y0122199D02*
X0089123Y0122199D01*
X0089123Y0122798D02*
X0077038Y0122798D01*
X0079097Y0123396D02*
X0089123Y0123396D01*
X0089123Y0123995D02*
X0079695Y0123995D01*
X0085462Y0124593D02*
X0087511Y0124593D01*
X0087161Y0125192D02*
X0085811Y0125192D01*
X0085811Y0125790D02*
X0087161Y0125790D01*
X0087161Y0126389D02*
X0085811Y0126389D01*
X0085811Y0126987D02*
X0087161Y0126987D01*
X0087161Y0127586D02*
X0085811Y0127586D01*
X0085811Y0128184D02*
X0087161Y0128184D01*
X0087161Y0128783D02*
X0085811Y0128783D01*
X0085811Y0129381D02*
X0087161Y0129381D01*
X0087161Y0129980D02*
X0085811Y0129980D01*
X0085811Y0130578D02*
X0087161Y0130578D01*
X0087161Y0131177D02*
X0085811Y0131177D01*
X0085811Y0131775D02*
X0087161Y0131775D01*
X0087161Y0132374D02*
X0085811Y0132374D01*
X0085811Y0132972D02*
X0087161Y0132972D01*
X0087169Y0133571D02*
X0085803Y0133571D01*
X0079295Y0133571D02*
X0039994Y0133571D01*
X0037574Y0133571D02*
X0036974Y0133571D01*
X0036974Y0132972D02*
X0037574Y0132972D01*
X0037574Y0132374D02*
X0036974Y0132374D01*
X0036974Y0131775D02*
X0037574Y0131775D01*
X0037574Y0131177D02*
X0036974Y0131177D01*
X0036974Y0130578D02*
X0037574Y0130578D01*
X0037574Y0129980D02*
X0036974Y0129980D01*
X0036974Y0129381D02*
X0037574Y0129381D01*
X0037574Y0128783D02*
X0036974Y0128783D01*
X0036974Y0128184D02*
X0037574Y0128184D01*
X0037574Y0127586D02*
X0036974Y0127586D01*
X0036974Y0125790D02*
X0037574Y0125790D01*
X0037574Y0125192D02*
X0036974Y0125192D01*
X0036974Y0124593D02*
X0037574Y0124593D01*
X0037574Y0123995D02*
X0036974Y0123995D01*
X0036974Y0123396D02*
X0037574Y0123396D01*
X0037574Y0122798D02*
X0036974Y0122798D01*
X0036974Y0122199D02*
X0037574Y0122199D01*
X0037574Y0121601D02*
X0036974Y0121601D01*
X0036974Y0121002D02*
X0037574Y0121002D01*
X0040012Y0121002D02*
X0043400Y0121002D01*
X0041074Y0123995D02*
X0049467Y0123995D01*
X0048868Y0124593D02*
X0041074Y0124593D01*
X0041074Y0125192D02*
X0048270Y0125192D01*
X0047671Y0125790D02*
X0047327Y0125790D01*
X0050086Y0128184D02*
X0050842Y0128184D01*
X0050842Y0127586D02*
X0050684Y0127586D01*
X0050842Y0128783D02*
X0049487Y0128783D01*
X0048888Y0129381D02*
X0050842Y0129381D01*
X0050842Y0129980D02*
X0048290Y0129980D01*
X0047327Y0130578D02*
X0050842Y0130578D01*
X0050842Y0131177D02*
X0047327Y0131177D01*
X0043362Y0126389D02*
X0041074Y0126389D01*
X0041074Y0125790D02*
X0043362Y0125790D01*
X0034553Y0133571D02*
X0013985Y0133571D01*
X0015307Y0132972D02*
X0022378Y0132972D01*
X0022063Y0132374D02*
X0015972Y0132374D01*
X0016637Y0131775D02*
X0022063Y0131775D01*
X0022063Y0131177D02*
X0017302Y0131177D01*
X0017723Y0130578D02*
X0022063Y0130578D01*
X0022063Y0129980D02*
X0017989Y0129980D01*
X0018256Y0129381D02*
X0022063Y0129381D01*
X0022063Y0128783D02*
X0018522Y0128783D01*
X0018789Y0128184D02*
X0022063Y0128184D01*
X0022063Y0127586D02*
X0018953Y0127586D01*
X0018953Y0126987D02*
X0022063Y0126987D01*
X0022063Y0126389D02*
X0018953Y0126389D01*
X0018953Y0125790D02*
X0021565Y0125790D01*
X0020966Y0125192D02*
X0018953Y0125192D01*
X0018953Y0124593D02*
X0020368Y0124593D01*
X0019826Y0123995D02*
X0018776Y0123995D01*
X0018510Y0123396D02*
X0019826Y0123396D01*
X0019826Y0122798D02*
X0018244Y0122798D01*
X0017977Y0122199D02*
X0019826Y0122199D01*
X0019826Y0121601D02*
X0017711Y0121601D01*
X0017272Y0121002D02*
X0019826Y0121002D01*
X0019826Y0120404D02*
X0016607Y0120404D01*
X0015942Y0119805D02*
X0019826Y0119805D01*
X0019826Y0119207D02*
X0015277Y0119207D01*
X0013902Y0118608D02*
X0019826Y0118608D01*
X0019640Y0118010D02*
X0012060Y0118010D01*
X0010820Y0118010D02*
X0003141Y0118010D01*
X0003141Y0118608D02*
X0007763Y0118608D01*
X0006727Y0119207D02*
X0003141Y0119207D01*
X0003141Y0119805D02*
X0005690Y0119805D01*
X0005077Y0120404D02*
X0003141Y0120404D01*
X0003141Y0121002D02*
X0004643Y0121002D01*
X0004208Y0121601D02*
X0003141Y0121601D01*
X0003141Y0122199D02*
X0003773Y0122199D01*
X0003361Y0122798D02*
X0003141Y0122798D01*
X0003141Y0123396D02*
X0003234Y0123396D01*
X0003141Y0117411D02*
X0019248Y0117411D01*
X0019248Y0116813D02*
X0003141Y0116813D01*
X0003141Y0116214D02*
X0003474Y0116214D01*
X0008081Y0116214D02*
X0011348Y0116214D01*
X0010980Y0115616D02*
X0008449Y0115616D01*
X0008449Y0115017D02*
X0010980Y0115017D01*
X0010980Y0114419D02*
X0008449Y0114419D01*
X0008449Y0113820D02*
X0010980Y0113820D01*
X0013352Y0111426D02*
X0013952Y0111426D01*
X0013952Y0110828D02*
X0013352Y0110828D01*
X0013352Y0110229D02*
X0013952Y0110229D01*
X0013952Y0109631D02*
X0013352Y0109631D01*
X0013352Y0107835D02*
X0013952Y0107835D01*
X0013952Y0107237D02*
X0013352Y0107237D01*
X0013352Y0106638D02*
X0013952Y0106638D01*
X0010846Y0103645D02*
X0008849Y0103645D01*
X0008849Y0103047D02*
X0011177Y0103047D01*
X0010247Y0104244D02*
X0008714Y0104244D01*
X0008105Y0104842D02*
X0009649Y0104842D01*
X0006078Y0101850D02*
X0005478Y0101850D01*
X0005478Y0101251D02*
X0006078Y0101251D01*
X0006078Y0100653D02*
X0005478Y0100653D01*
X0005478Y0100054D02*
X0006078Y0100054D01*
X0008449Y0098857D02*
X0011314Y0098857D01*
X0011177Y0098259D02*
X0008449Y0098259D01*
X0008449Y0097660D02*
X0011177Y0097660D01*
X0011177Y0097062D02*
X0008449Y0097062D01*
X0008449Y0096463D02*
X0011177Y0096463D01*
X0011177Y0095865D02*
X0008449Y0095865D01*
X0008300Y0095266D02*
X0011177Y0095266D01*
X0010769Y0094668D02*
X0007078Y0094668D01*
X0007078Y0094069D02*
X0010171Y0094069D01*
X0009572Y0093471D02*
X0007254Y0093471D01*
X0007852Y0092872D02*
X0008974Y0092872D01*
X0008375Y0092274D02*
X0007967Y0092274D01*
X0010789Y0089880D02*
X0016464Y0089880D01*
X0016682Y0089662D02*
X0018495Y0089662D01*
X0019384Y0090551D01*
X0026001Y0090551D01*
X0029208Y0093758D01*
X0029208Y0089943D01*
X0029735Y0089416D01*
X0032845Y0089416D01*
X0031087Y0087657D01*
X0030678Y0088066D01*
X0025995Y0088066D01*
X0025468Y0087539D01*
X0025468Y0081282D01*
X0025995Y0080754D01*
X0030678Y0080754D01*
X0031205Y0081282D01*
X0031205Y0084099D01*
X0032948Y0085842D01*
X0032948Y0081954D01*
X0032430Y0081954D01*
X0031148Y0080672D01*
X0031148Y0079415D01*
X0031092Y0079359D01*
X0031092Y0078105D01*
X0030641Y0078105D01*
X0030114Y0077578D01*
X0030114Y0075270D01*
X0029938Y0075446D01*
X0023405Y0081979D01*
X0022644Y0082740D01*
X0016470Y0082740D01*
X0015709Y0081979D01*
X0013567Y0079837D01*
X0013567Y0086649D01*
X0013040Y0087176D01*
X0008086Y0087176D01*
X0015207Y0094298D01*
X0015599Y0094298D01*
X0016126Y0094825D01*
X0016126Y0095072D01*
X0018686Y0095072D01*
X0020668Y0097054D01*
X0023276Y0097054D01*
X0023804Y0097581D01*
X0023804Y0098616D01*
X0028135Y0098616D01*
X0028738Y0099219D01*
X0030247Y0099219D01*
X0027808Y0096780D01*
X0027808Y0096035D01*
X0024924Y0093151D01*
X0019384Y0093151D01*
X0018495Y0094040D01*
X0016682Y0094040D01*
X0015400Y0092758D01*
X0015400Y0090944D01*
X0016682Y0089662D01*
X0015866Y0090478D02*
X0011388Y0090478D01*
X0011986Y0091077D02*
X0015400Y0091077D01*
X0015400Y0091675D02*
X0012585Y0091675D01*
X0013183Y0092274D02*
X0015400Y0092274D01*
X0015514Y0092872D02*
X0013782Y0092872D01*
X0014380Y0093471D02*
X0016112Y0093471D01*
X0015969Y0094668D02*
X0026441Y0094668D01*
X0027039Y0095266D02*
X0018880Y0095266D01*
X0019479Y0095865D02*
X0027638Y0095865D01*
X0027808Y0096463D02*
X0020077Y0096463D01*
X0019065Y0093471D02*
X0025244Y0093471D01*
X0025842Y0094069D02*
X0014979Y0094069D01*
X0018713Y0089880D02*
X0029272Y0089880D01*
X0029208Y0090478D02*
X0019311Y0090478D01*
X0025468Y0087486D02*
X0008395Y0087486D01*
X0008994Y0088084D02*
X0031514Y0088084D01*
X0032112Y0088683D02*
X0009592Y0088683D01*
X0010191Y0089281D02*
X0032711Y0089281D01*
X0035351Y0091675D02*
X0044641Y0091675D01*
X0044641Y0091077D02*
X0035950Y0091077D01*
X0034945Y0092274D02*
X0044641Y0092274D01*
X0044641Y0092872D02*
X0034945Y0092872D01*
X0034945Y0093471D02*
X0044641Y0093471D01*
X0044641Y0094069D02*
X0034945Y0094069D01*
X0034945Y0094668D02*
X0044641Y0094668D01*
X0044641Y0095266D02*
X0034945Y0095266D01*
X0034945Y0095865D02*
X0044641Y0095865D01*
X0044904Y0096463D02*
X0034682Y0096463D01*
X0032964Y0098259D02*
X0051924Y0098259D01*
X0051981Y0098358D02*
X0051810Y0098062D01*
X0051722Y0097731D01*
X0051722Y0096088D01*
X0054100Y0096088D01*
X0054100Y0098860D01*
X0052850Y0098860D01*
X0052520Y0098771D01*
X0052223Y0098600D01*
X0051981Y0098358D01*
X0051722Y0097660D02*
X0032365Y0097660D01*
X0031767Y0097062D02*
X0051722Y0097062D01*
X0051722Y0096463D02*
X0050115Y0096463D01*
X0050378Y0095865D02*
X0054100Y0095865D01*
X0054100Y0096088D02*
X0054100Y0095488D01*
X0054700Y0095488D01*
X0054700Y0096088D01*
X0054100Y0096088D01*
X0054100Y0096463D02*
X0054700Y0096463D01*
X0054700Y0095865D02*
X0057240Y0095865D01*
X0057078Y0095488D02*
X0054700Y0095488D01*
X0054700Y0092717D01*
X0055949Y0092717D01*
X0056279Y0092805D01*
X0056576Y0092976D01*
X0056818Y0093218D01*
X0056989Y0093515D01*
X0057078Y0093845D01*
X0057078Y0095488D01*
X0057078Y0095266D02*
X0057240Y0095266D01*
X0057240Y0094668D02*
X0057078Y0094668D01*
X0057078Y0094069D02*
X0057240Y0094069D01*
X0057413Y0093471D02*
X0056964Y0093471D01*
X0056396Y0092872D02*
X0066098Y0092872D01*
X0066098Y0092274D02*
X0050378Y0092274D01*
X0050378Y0092872D02*
X0052404Y0092872D01*
X0052520Y0092805D02*
X0052850Y0092717D01*
X0054100Y0092717D01*
X0054100Y0095488D01*
X0051722Y0095488D01*
X0051722Y0093845D01*
X0051810Y0093515D01*
X0051981Y0093218D01*
X0052223Y0092976D01*
X0052520Y0092805D01*
X0051836Y0093471D02*
X0050378Y0093471D01*
X0050378Y0094069D02*
X0051722Y0094069D01*
X0051722Y0094668D02*
X0050378Y0094668D01*
X0050378Y0095266D02*
X0051722Y0095266D01*
X0054100Y0095266D02*
X0054700Y0095266D01*
X0054700Y0094668D02*
X0054100Y0094668D01*
X0054100Y0094069D02*
X0054700Y0094069D01*
X0054700Y0093471D02*
X0054100Y0093471D01*
X0054100Y0092872D02*
X0054700Y0092872D01*
X0055139Y0090478D02*
X0070984Y0090478D01*
X0071577Y0089880D02*
X0055738Y0089880D01*
X0056336Y0089281D02*
X0070978Y0089281D01*
X0066500Y0091077D02*
X0051343Y0091077D01*
X0050745Y0091675D02*
X0066098Y0091675D01*
X0066098Y0093471D02*
X0061623Y0093471D01*
X0061796Y0094069D02*
X0066098Y0094069D01*
X0066098Y0097660D02*
X0065863Y0097660D01*
X0063802Y0097660D02*
X0061796Y0097660D01*
X0061469Y0098259D02*
X0063203Y0098259D01*
X0062644Y0098857D02*
X0058287Y0098857D01*
X0057688Y0099456D02*
X0062644Y0099456D01*
X0062644Y0100054D02*
X0057090Y0100054D01*
X0056491Y0100653D02*
X0062665Y0100653D01*
X0063263Y0101251D02*
X0055893Y0101251D01*
X0055294Y0101850D02*
X0063533Y0101850D01*
X0063533Y0102448D02*
X0054696Y0102448D01*
X0054097Y0103047D02*
X0063533Y0103047D01*
X0063407Y0103645D02*
X0063160Y0103645D01*
X0064449Y0106039D02*
X0066492Y0106039D01*
X0066492Y0105441D02*
X0065577Y0105441D01*
X0066133Y0104842D02*
X0066492Y0104842D01*
X0066492Y0104244D02*
X0066217Y0104244D01*
X0066133Y0103645D02*
X0066506Y0103645D01*
X0066133Y0103047D02*
X0067070Y0103047D01*
X0067070Y0102448D02*
X0066133Y0102448D01*
X0066133Y0101850D02*
X0067070Y0101850D01*
X0067070Y0101251D02*
X0066402Y0101251D01*
X0067001Y0100653D02*
X0067070Y0100653D01*
X0059025Y0103645D02*
X0053922Y0103645D01*
X0053922Y0104244D02*
X0059011Y0104244D01*
X0059011Y0104842D02*
X0053922Y0104842D01*
X0053922Y0105441D02*
X0059011Y0105441D01*
X0059011Y0106039D02*
X0053689Y0106039D01*
X0053562Y0109032D02*
X0059011Y0109032D01*
X0059011Y0108434D02*
X0045827Y0108434D01*
X0045229Y0107835D02*
X0059011Y0107835D01*
X0059011Y0107237D02*
X0044630Y0107237D01*
X0044032Y0106638D02*
X0059011Y0106638D01*
X0059512Y0109631D02*
X0053922Y0109631D01*
X0053922Y0110229D02*
X0066981Y0110229D01*
X0066993Y0109631D02*
X0062673Y0109631D01*
X0063174Y0109032D02*
X0066492Y0109032D01*
X0066492Y0108434D02*
X0063174Y0108434D01*
X0063174Y0107835D02*
X0066492Y0107835D01*
X0066492Y0107237D02*
X0063174Y0107237D01*
X0063355Y0106638D02*
X0066492Y0106638D01*
X0066581Y0110828D02*
X0053922Y0110828D01*
X0053922Y0111426D02*
X0066581Y0111426D01*
X0066430Y0112025D02*
X0053971Y0112025D01*
X0054125Y0112623D02*
X0065832Y0112623D01*
X0065233Y0113222D02*
X0062979Y0113222D01*
X0054807Y0120404D02*
X0074624Y0120404D01*
X0074025Y0121002D02*
X0054769Y0121002D01*
X0054807Y0126987D02*
X0058735Y0126987D01*
X0058953Y0127165D02*
X0060596Y0127165D01*
X0060596Y0129543D01*
X0061196Y0129543D01*
X0061196Y0130143D01*
X0063967Y0130143D01*
X0063967Y0131392D01*
X0063879Y0131723D01*
X0063708Y0132019D01*
X0063466Y0132262D01*
X0063169Y0132433D01*
X0062838Y0132521D01*
X0061196Y0132521D01*
X0061196Y0130143D01*
X0060596Y0130143D01*
X0060596Y0129543D01*
X0057824Y0129543D01*
X0057824Y0128294D01*
X0057913Y0127964D01*
X0058084Y0127667D01*
X0058326Y0127425D01*
X0058622Y0127254D01*
X0058953Y0127165D01*
X0058165Y0127586D02*
X0054807Y0127586D01*
X0054807Y0128184D02*
X0057853Y0128184D01*
X0057824Y0128783D02*
X0054807Y0128783D01*
X0054807Y0129381D02*
X0057824Y0129381D01*
X0057824Y0130578D02*
X0054807Y0130578D01*
X0054807Y0129980D02*
X0060596Y0129980D01*
X0060596Y0130578D02*
X0061196Y0130578D01*
X0061196Y0129980D02*
X0068470Y0129980D01*
X0068470Y0130578D02*
X0069070Y0130578D01*
X0069070Y0131177D02*
X0068470Y0131177D01*
X0068470Y0131775D02*
X0069070Y0131775D01*
X0069070Y0132374D02*
X0068470Y0132374D01*
X0066395Y0132374D02*
X0063271Y0132374D01*
X0063848Y0131775D02*
X0065817Y0131775D01*
X0065698Y0131177D02*
X0063967Y0131177D01*
X0063967Y0130578D02*
X0065698Y0130578D01*
X0065698Y0129381D02*
X0063967Y0129381D01*
X0063967Y0129543D02*
X0061196Y0129543D01*
X0061196Y0127165D01*
X0062838Y0127165D01*
X0063169Y0127254D01*
X0063466Y0127425D01*
X0063708Y0127667D01*
X0063879Y0127964D01*
X0063967Y0128294D01*
X0063967Y0129543D01*
X0063967Y0128783D02*
X0065698Y0128783D01*
X0065727Y0128184D02*
X0063938Y0128184D01*
X0063626Y0127586D02*
X0066039Y0127586D01*
X0066609Y0126987D02*
X0063056Y0126987D01*
X0061196Y0127586D02*
X0060596Y0127586D01*
X0060596Y0128184D02*
X0061196Y0128184D01*
X0061196Y0128783D02*
X0060596Y0128783D01*
X0060596Y0129381D02*
X0061196Y0129381D01*
X0061196Y0131177D02*
X0060596Y0131177D01*
X0060596Y0131775D02*
X0061196Y0131775D01*
X0061196Y0132374D02*
X0060596Y0132374D01*
X0057824Y0131177D02*
X0054807Y0131177D01*
X0033670Y0132972D02*
X0028547Y0132972D01*
X0028863Y0132374D02*
X0033474Y0132374D01*
X0033474Y0131775D02*
X0028863Y0131775D01*
X0028863Y0131177D02*
X0033474Y0131177D01*
X0033474Y0130578D02*
X0028863Y0130578D01*
X0028863Y0129980D02*
X0033474Y0129980D01*
X0033474Y0129381D02*
X0028863Y0129381D01*
X0028863Y0128783D02*
X0033474Y0128783D01*
X0033474Y0128184D02*
X0028863Y0128184D01*
X0028863Y0127586D02*
X0033474Y0127586D01*
X0023767Y0118010D02*
X0023411Y0118010D01*
X0039059Y0102448D02*
X0039221Y0102448D01*
X0039059Y0101850D02*
X0039819Y0101850D01*
X0039059Y0101251D02*
X0044514Y0101251D01*
X0044248Y0101850D02*
X0042602Y0101850D01*
X0039059Y0100653D02*
X0052815Y0100653D01*
X0053413Y0100054D02*
X0039059Y0100054D01*
X0038769Y0099456D02*
X0054012Y0099456D01*
X0054100Y0098857D02*
X0054610Y0098857D01*
X0054700Y0098259D02*
X0054100Y0098259D01*
X0054100Y0097660D02*
X0054700Y0097660D01*
X0054700Y0097062D02*
X0054100Y0097062D01*
X0052841Y0098857D02*
X0033562Y0098857D01*
X0034161Y0099456D02*
X0035384Y0099456D01*
X0035094Y0100054D02*
X0034759Y0100054D01*
X0029885Y0098857D02*
X0028377Y0098857D01*
X0029287Y0098259D02*
X0023804Y0098259D01*
X0023804Y0097660D02*
X0028688Y0097660D01*
X0028090Y0097062D02*
X0023285Y0097062D01*
X0018262Y0099456D02*
X0003141Y0099456D01*
X0015989Y0098857D02*
X0017663Y0098857D01*
X0027125Y0091675D02*
X0029208Y0091675D01*
X0029208Y0091077D02*
X0026527Y0091077D01*
X0027724Y0092274D02*
X0029208Y0092274D01*
X0029208Y0092872D02*
X0028322Y0092872D01*
X0028921Y0093471D02*
X0029208Y0093471D01*
X0025468Y0086887D02*
X0013329Y0086887D01*
X0013567Y0086289D02*
X0025468Y0086289D01*
X0025468Y0085690D02*
X0013567Y0085690D01*
X0013567Y0085092D02*
X0025468Y0085092D01*
X0025468Y0084493D02*
X0013567Y0084493D01*
X0013567Y0083895D02*
X0025468Y0083895D01*
X0025468Y0083296D02*
X0013567Y0083296D01*
X0013567Y0082698D02*
X0016428Y0082698D01*
X0015829Y0082099D02*
X0013567Y0082099D01*
X0013567Y0081501D02*
X0015231Y0081501D01*
X0014632Y0080902D02*
X0013567Y0080902D01*
X0013567Y0080303D02*
X0014034Y0080303D01*
X0011639Y0077909D02*
X0007062Y0077909D01*
X0007062Y0077311D02*
X0011041Y0077311D01*
X0010952Y0076712D02*
X0007062Y0076712D01*
X0007062Y0076114D02*
X0010952Y0076114D01*
X0010952Y0075515D02*
X0007062Y0075515D01*
X0007062Y0074917D02*
X0010952Y0074917D01*
X0010952Y0074318D02*
X0007062Y0074318D01*
X0007062Y0073720D02*
X0010952Y0073720D01*
X0010952Y0073121D02*
X0007062Y0073121D01*
X0007062Y0072523D02*
X0010952Y0072523D01*
X0010952Y0071924D02*
X0007062Y0071924D01*
X0007062Y0071326D02*
X0010952Y0071326D01*
X0010952Y0070727D02*
X0007062Y0070727D01*
X0007062Y0070129D02*
X0010952Y0070129D01*
X0010952Y0069530D02*
X0007062Y0069530D01*
X0007062Y0068932D02*
X0011110Y0068932D01*
X0011709Y0068333D02*
X0007062Y0068333D01*
X0007062Y0067735D02*
X0012307Y0067735D01*
X0012906Y0067136D02*
X0007062Y0067136D01*
X0007062Y0066538D02*
X0016689Y0066538D01*
X0016689Y0065939D02*
X0007062Y0065939D01*
X0007062Y0065341D02*
X0016689Y0065341D01*
X0016594Y0064742D02*
X0007062Y0064742D01*
X0007062Y0064144D02*
X0016308Y0064144D01*
X0016289Y0063545D02*
X0007062Y0063545D01*
X0007062Y0062947D02*
X0016289Y0062947D01*
X0015820Y0062348D02*
X0007062Y0062348D01*
X0007062Y0061750D02*
X0015572Y0061750D01*
X0015403Y0061151D02*
X0007062Y0061151D01*
X0007062Y0060553D02*
X0015403Y0060553D01*
X0015487Y0059954D02*
X0007062Y0059954D01*
X0007062Y0059356D02*
X0015735Y0059356D01*
X0016163Y0058757D02*
X0007062Y0058757D01*
X0013050Y0058159D02*
X0016860Y0058159D01*
X0019892Y0058159D02*
X0024500Y0058159D01*
X0024500Y0058757D02*
X0020589Y0058757D01*
X0021017Y0059356D02*
X0024500Y0059356D01*
X0024500Y0059954D02*
X0021265Y0059954D01*
X0021349Y0060553D02*
X0024500Y0060553D01*
X0024500Y0061151D02*
X0023670Y0061151D01*
X0024270Y0061750D02*
X0024500Y0061750D01*
X0024500Y0062348D02*
X0024400Y0062348D01*
X0024400Y0062947D02*
X0024500Y0062947D01*
X0024500Y0063545D02*
X0024400Y0063545D01*
X0024381Y0064144D02*
X0024500Y0064144D01*
X0024500Y0064742D02*
X0024095Y0064742D01*
X0024000Y0065341D02*
X0024500Y0065341D01*
X0024500Y0065939D02*
X0024000Y0065939D01*
X0024000Y0066538D02*
X0024500Y0066538D01*
X0024500Y0067136D02*
X0024000Y0067136D01*
X0024000Y0067735D02*
X0024500Y0067735D01*
X0024500Y0068333D02*
X0024000Y0068333D01*
X0024000Y0068932D02*
X0024500Y0068932D01*
X0024500Y0069530D02*
X0023903Y0069530D01*
X0024000Y0070129D02*
X0024500Y0070129D01*
X0024500Y0070727D02*
X0024000Y0070727D01*
X0024000Y0071326D02*
X0024500Y0071326D01*
X0030700Y0071326D02*
X0036958Y0071326D01*
X0036958Y0071924D02*
X0030700Y0071924D01*
X0030700Y0072523D02*
X0036958Y0072523D01*
X0036958Y0072762D02*
X0036958Y0069818D01*
X0035326Y0069818D01*
X0034799Y0069291D01*
X0034799Y0066767D01*
X0032275Y0066767D01*
X0031748Y0066240D01*
X0031748Y0064837D01*
X0031607Y0064697D01*
X0031436Y0064400D01*
X0031372Y0064159D01*
X0030700Y0064831D01*
X0030700Y0072762D01*
X0034142Y0072762D01*
X0034670Y0073289D01*
X0034670Y0077578D01*
X0034457Y0077791D01*
X0035526Y0078859D01*
X0035526Y0080672D01*
X0035443Y0080754D01*
X0036210Y0080754D01*
X0036210Y0078105D01*
X0035759Y0078105D01*
X0035232Y0077578D01*
X0035232Y0073289D01*
X0035759Y0072762D01*
X0036958Y0072762D01*
X0035400Y0073121D02*
X0034502Y0073121D01*
X0034670Y0073720D02*
X0035232Y0073720D01*
X0035232Y0074318D02*
X0034670Y0074318D01*
X0034670Y0074917D02*
X0035232Y0074917D01*
X0035232Y0075515D02*
X0034670Y0075515D01*
X0034670Y0076114D02*
X0035232Y0076114D01*
X0035232Y0076712D02*
X0034670Y0076712D01*
X0034670Y0077311D02*
X0035232Y0077311D01*
X0035563Y0077909D02*
X0034576Y0077909D01*
X0035175Y0078508D02*
X0036210Y0078508D01*
X0036210Y0079106D02*
X0035526Y0079106D01*
X0035526Y0079705D02*
X0036210Y0079705D01*
X0036210Y0080303D02*
X0035526Y0080303D01*
X0032948Y0082099D02*
X0031205Y0082099D01*
X0031205Y0081501D02*
X0031976Y0081501D01*
X0031378Y0080902D02*
X0030826Y0080902D01*
X0031148Y0080303D02*
X0025081Y0080303D01*
X0025679Y0079705D02*
X0031148Y0079705D01*
X0031092Y0079106D02*
X0026278Y0079106D01*
X0026876Y0078508D02*
X0031092Y0078508D01*
X0030445Y0077909D02*
X0027475Y0077909D01*
X0028073Y0077311D02*
X0030114Y0077311D01*
X0030114Y0076712D02*
X0028672Y0076712D01*
X0029270Y0076114D02*
X0030114Y0076114D01*
X0030114Y0075515D02*
X0029869Y0075515D01*
X0030700Y0070727D02*
X0036958Y0070727D01*
X0036958Y0070129D02*
X0030700Y0070129D01*
X0030700Y0069530D02*
X0035038Y0069530D01*
X0034799Y0068932D02*
X0030700Y0068932D01*
X0030700Y0068333D02*
X0034799Y0068333D01*
X0034799Y0067735D02*
X0030700Y0067735D01*
X0030700Y0067136D02*
X0034799Y0067136D01*
X0032046Y0066538D02*
X0030700Y0066538D01*
X0030700Y0065939D02*
X0031748Y0065939D01*
X0031748Y0065341D02*
X0030700Y0065341D01*
X0030788Y0064742D02*
X0031653Y0064742D01*
X0035910Y0060655D02*
X0040911Y0060655D01*
X0040911Y0065656D01*
X0041190Y0065656D01*
X0041211Y0065677D01*
X0041232Y0065656D01*
X0041511Y0065656D01*
X0041511Y0060655D01*
X0046511Y0060655D01*
X0046511Y0060376D01*
X0046532Y0060355D01*
X0046511Y0060334D01*
X0046511Y0060055D01*
X0041511Y0060055D01*
X0041511Y0060655D01*
X0040911Y0060655D01*
X0040911Y0060055D01*
X0041511Y0060055D01*
X0041511Y0055054D01*
X0041232Y0055054D01*
X0041211Y0055033D01*
X0041190Y0055054D01*
X0040911Y0055054D01*
X0040911Y0060055D01*
X0035910Y0060055D01*
X0035910Y0060334D01*
X0035889Y0060355D01*
X0035910Y0060376D01*
X0035910Y0060655D01*
X0035910Y0060553D02*
X0040911Y0060553D01*
X0040911Y0061151D02*
X0041511Y0061151D01*
X0041511Y0060553D02*
X0046511Y0060553D01*
X0041511Y0059954D02*
X0040911Y0059954D01*
X0040911Y0059356D02*
X0041511Y0059356D01*
X0041511Y0058757D02*
X0040911Y0058757D01*
X0040911Y0058159D02*
X0041511Y0058159D01*
X0041511Y0057560D02*
X0040911Y0057560D01*
X0040911Y0056962D02*
X0041511Y0056962D01*
X0041511Y0056363D02*
X0040911Y0056363D01*
X0040911Y0055765D02*
X0041511Y0055765D01*
X0041511Y0055166D02*
X0040911Y0055166D01*
X0035242Y0050976D02*
X0033443Y0050976D01*
X0034041Y0050378D02*
X0054484Y0050378D01*
X0054484Y0049779D02*
X0034640Y0049779D01*
X0035238Y0049181D02*
X0054484Y0049181D01*
X0054484Y0048582D02*
X0035837Y0048582D01*
X0036435Y0047984D02*
X0054484Y0047984D01*
X0054679Y0047385D02*
X0051688Y0047385D01*
X0051700Y0047374D02*
X0051458Y0047616D01*
X0051161Y0047787D01*
X0050831Y0047876D01*
X0048794Y0047876D01*
X0048794Y0044907D01*
X0048194Y0044907D01*
X0048194Y0044307D01*
X0045029Y0044307D01*
X0045029Y0042467D01*
X0045117Y0042137D01*
X0045288Y0041840D01*
X0045531Y0041598D01*
X0045827Y0041427D01*
X0046158Y0041339D01*
X0048194Y0041339D01*
X0048194Y0044307D01*
X0048794Y0044307D01*
X0048794Y0041339D01*
X0050831Y0041339D01*
X0051161Y0041427D01*
X0051458Y0041598D01*
X0051700Y0041840D01*
X0051871Y0042137D01*
X0051959Y0042467D01*
X0051959Y0044307D01*
X0048794Y0044307D01*
X0048794Y0044907D01*
X0051959Y0044907D01*
X0051959Y0046747D01*
X0051871Y0047077D01*
X0051700Y0047374D01*
X0051949Y0046787D02*
X0067733Y0046787D01*
X0067135Y0046188D02*
X0051959Y0046188D01*
X0051959Y0045590D02*
X0066536Y0045590D01*
X0065938Y0044991D02*
X0051959Y0044991D01*
X0051959Y0043794D02*
X0064740Y0043794D01*
X0064142Y0043196D02*
X0051959Y0043196D01*
X0051959Y0042597D02*
X0063543Y0042597D01*
X0062945Y0041999D02*
X0051791Y0041999D01*
X0051061Y0041400D02*
X0062336Y0041400D01*
X0061708Y0040802D02*
X0049399Y0040802D01*
X0049552Y0040203D02*
X0061080Y0040203D01*
X0060451Y0039605D02*
X0049552Y0039605D01*
X0049552Y0039006D02*
X0059823Y0039006D01*
X0059194Y0038408D02*
X0049552Y0038408D01*
X0049552Y0037809D02*
X0049715Y0037809D01*
X0049563Y0037211D02*
X0049552Y0037211D01*
X0046649Y0037211D02*
X0043646Y0037211D01*
X0043646Y0037809D02*
X0046649Y0037809D01*
X0046649Y0038408D02*
X0043646Y0038408D01*
X0043646Y0039006D02*
X0046649Y0039006D01*
X0046649Y0039605D02*
X0043646Y0039605D01*
X0043646Y0040203D02*
X0046649Y0040203D01*
X0046802Y0040802D02*
X0043493Y0040802D01*
X0044600Y0041999D02*
X0045197Y0041999D01*
X0045029Y0042597D02*
X0044867Y0042597D01*
X0044867Y0043196D02*
X0045029Y0043196D01*
X0045029Y0043794D02*
X0044867Y0043794D01*
X0044867Y0044393D02*
X0048194Y0044393D01*
X0048194Y0044907D02*
X0045029Y0044907D01*
X0045029Y0046747D01*
X0045117Y0047077D01*
X0045288Y0047374D01*
X0045531Y0047616D01*
X0045827Y0047787D01*
X0046158Y0047876D01*
X0048194Y0047876D01*
X0048194Y0044907D01*
X0048194Y0044991D02*
X0048794Y0044991D01*
X0048794Y0044393D02*
X0065339Y0044393D01*
X0067220Y0042597D02*
X0067870Y0042597D01*
X0067870Y0042815D02*
X0067870Y0041866D01*
X0066489Y0041866D01*
X0072267Y0047644D01*
X0074851Y0047644D01*
X0075378Y0048171D01*
X0075378Y0050530D01*
X0079281Y0046628D01*
X0079281Y0029398D01*
X0077247Y0027363D01*
X0077016Y0027594D01*
X0076566Y0027594D01*
X0076566Y0028216D01*
X0075804Y0028978D01*
X0074966Y0029816D01*
X0074966Y0032496D01*
X0075566Y0032496D01*
X0075566Y0033096D01*
X0077944Y0033096D01*
X0077944Y0034739D01*
X0077855Y0035069D01*
X0077684Y0035366D01*
X0077442Y0035608D01*
X0077145Y0035779D01*
X0076815Y0035868D01*
X0075566Y0035868D01*
X0075566Y0033096D01*
X0074966Y0033096D01*
X0074966Y0035868D01*
X0073717Y0035868D01*
X0073386Y0035779D01*
X0073090Y0035608D01*
X0072848Y0035366D01*
X0072676Y0035069D01*
X0072588Y0034739D01*
X0072588Y0033096D01*
X0074966Y0033096D01*
X0074966Y0032496D01*
X0072588Y0032496D01*
X0072588Y0032194D01*
X0072426Y0032357D01*
X0072426Y0034941D01*
X0071898Y0035468D01*
X0068397Y0035468D01*
X0067870Y0034941D01*
X0067870Y0034096D01*
X0060487Y0034096D01*
X0064555Y0037970D01*
X0064573Y0037970D01*
X0064943Y0038340D01*
X0065321Y0038700D01*
X0065322Y0038718D01*
X0065341Y0038738D01*
X0065347Y0038744D01*
X0065347Y0038744D01*
X0065747Y0039125D01*
X0065895Y0039266D01*
X0067870Y0039266D01*
X0067870Y0038526D01*
X0068397Y0037998D01*
X0071898Y0037998D01*
X0072426Y0038526D01*
X0072426Y0042815D01*
X0071898Y0043342D01*
X0068397Y0043342D01*
X0067870Y0042815D01*
X0067819Y0043196D02*
X0068251Y0043196D01*
X0068417Y0043794D02*
X0079281Y0043794D01*
X0079281Y0043196D02*
X0077709Y0043196D01*
X0077684Y0043240D02*
X0077442Y0043482D01*
X0077145Y0043653D01*
X0076815Y0043742D01*
X0075566Y0043742D01*
X0075566Y0040970D01*
X0077944Y0040970D01*
X0077944Y0042613D01*
X0077855Y0042944D01*
X0077684Y0043240D01*
X0077944Y0042597D02*
X0079281Y0042597D01*
X0079281Y0041999D02*
X0077944Y0041999D01*
X0077944Y0041400D02*
X0079281Y0041400D01*
X0079281Y0040802D02*
X0075566Y0040802D01*
X0075566Y0040970D02*
X0075566Y0040370D01*
X0077944Y0040370D01*
X0077944Y0038727D01*
X0077855Y0038397D01*
X0077684Y0038100D01*
X0077442Y0037858D01*
X0077145Y0037687D01*
X0076815Y0037598D01*
X0075566Y0037598D01*
X0075566Y0040370D01*
X0074966Y0040370D01*
X0074966Y0037598D01*
X0073717Y0037598D01*
X0073386Y0037687D01*
X0073090Y0037858D01*
X0072848Y0038100D01*
X0072676Y0038397D01*
X0072588Y0038727D01*
X0072588Y0040370D01*
X0074966Y0040370D01*
X0074966Y0040970D01*
X0074966Y0043742D01*
X0073717Y0043742D01*
X0073386Y0043653D01*
X0073090Y0043482D01*
X0072848Y0043240D01*
X0072676Y0042944D01*
X0072588Y0042613D01*
X0072588Y0040970D01*
X0074966Y0040970D01*
X0075566Y0040970D01*
X0075566Y0041400D02*
X0074966Y0041400D01*
X0074966Y0040802D02*
X0072426Y0040802D01*
X0072426Y0041400D02*
X0072588Y0041400D01*
X0072588Y0041999D02*
X0072426Y0041999D01*
X0072426Y0042597D02*
X0072588Y0042597D01*
X0072822Y0043196D02*
X0072044Y0043196D01*
X0069614Y0044991D02*
X0079281Y0044991D01*
X0079281Y0044393D02*
X0069016Y0044393D01*
X0070213Y0045590D02*
X0079281Y0045590D01*
X0079281Y0046188D02*
X0070811Y0046188D01*
X0071410Y0046787D02*
X0079122Y0046787D01*
X0078523Y0047385D02*
X0072008Y0047385D01*
X0075191Y0047984D02*
X0077924Y0047984D01*
X0077326Y0048582D02*
X0075378Y0048582D01*
X0075378Y0049181D02*
X0076727Y0049181D01*
X0076129Y0049779D02*
X0075378Y0049779D01*
X0075378Y0050378D02*
X0075530Y0050378D01*
X0077412Y0052173D02*
X0086358Y0052173D01*
X0086957Y0051575D02*
X0078010Y0051575D01*
X0078609Y0050976D02*
X0087555Y0050976D01*
X0088154Y0050378D02*
X0085780Y0050378D01*
X0086378Y0049779D02*
X0088752Y0049779D01*
X0089351Y0049181D02*
X0086707Y0049181D01*
X0086707Y0048582D02*
X0089949Y0048582D01*
X0090548Y0047984D02*
X0086707Y0047984D01*
X0086455Y0047385D02*
X0091146Y0047385D01*
X0091745Y0046787D02*
X0085856Y0046787D01*
X0085818Y0046188D02*
X0092343Y0046188D01*
X0092942Y0045590D02*
X0085818Y0045590D01*
X0085818Y0044991D02*
X0093540Y0044991D01*
X0094139Y0044393D02*
X0085818Y0044393D01*
X0085818Y0043794D02*
X0094737Y0043794D01*
X0095336Y0043196D02*
X0085818Y0043196D01*
X0085818Y0042597D02*
X0095934Y0042597D01*
X0096533Y0041999D02*
X0085818Y0041999D01*
X0085818Y0041400D02*
X0097131Y0041400D01*
X0097730Y0040802D02*
X0085818Y0040802D01*
X0085818Y0040203D02*
X0098328Y0040203D01*
X0098927Y0039605D02*
X0085818Y0039605D01*
X0085818Y0039006D02*
X0089258Y0039006D01*
X0089130Y0038408D02*
X0085818Y0038408D01*
X0085818Y0037809D02*
X0089130Y0037809D01*
X0089130Y0037211D02*
X0085879Y0037211D01*
X0086477Y0036612D02*
X0089271Y0036612D01*
X0089130Y0036014D02*
X0087076Y0036014D01*
X0087674Y0035415D02*
X0089130Y0035415D01*
X0089130Y0034817D02*
X0088273Y0034817D01*
X0088871Y0034218D02*
X0089130Y0034218D01*
X0085447Y0030029D02*
X0083529Y0030029D01*
X0083611Y0030607D02*
X0084868Y0030607D01*
X0086637Y0028839D01*
X0089327Y0028839D01*
X0089130Y0028641D01*
X0089130Y0027111D01*
X0087548Y0027111D01*
X0086266Y0025829D01*
X0086266Y0024015D01*
X0087548Y0022733D01*
X0089130Y0022733D01*
X0089130Y0021530D01*
X0088989Y0021390D01*
X0088818Y0021093D01*
X0088730Y0020762D01*
X0088730Y0019947D01*
X0093135Y0019947D01*
X0093135Y0019858D01*
X0093224Y0019858D01*
X0093224Y0019947D01*
X0097629Y0019947D01*
X0097629Y0020762D01*
X0097540Y0021093D01*
X0097535Y0021102D01*
X0098866Y0021102D01*
X0100149Y0022384D01*
X0100149Y0024198D01*
X0098866Y0025480D01*
X0097229Y0025480D01*
X0097229Y0025880D01*
X0099690Y0025880D01*
X0100686Y0026875D01*
X0104907Y0031096D01*
X0105903Y0032092D01*
X0105903Y0038621D01*
X0108408Y0036116D01*
X0111177Y0036116D01*
X0111177Y0034195D01*
X0111395Y0033977D01*
X0111177Y0033759D01*
X0111177Y0031636D01*
X0111395Y0031418D01*
X0111177Y0031200D01*
X0111177Y0029077D01*
X0111395Y0028859D01*
X0111177Y0028641D01*
X0111177Y0026518D01*
X0111395Y0026300D01*
X0111177Y0026082D01*
X0111177Y0023959D01*
X0111395Y0023741D01*
X0111177Y0023523D01*
X0111177Y0021400D01*
X0111395Y0021182D01*
X0111177Y0020964D01*
X0111177Y0018841D01*
X0111604Y0018414D01*
X0107601Y0014411D01*
X0093231Y0014411D01*
X0092831Y0014011D01*
X0090247Y0014011D01*
X0089720Y0013484D01*
X0089720Y0009982D01*
X0090247Y0009455D01*
X0094536Y0009455D01*
X0095063Y0009982D01*
X0095063Y0011811D01*
X0108678Y0011811D01*
X0115181Y0018313D01*
X0118749Y0018313D01*
X0119276Y0018841D01*
X0119276Y0020964D01*
X0119058Y0021182D01*
X0119276Y0021400D01*
X0119276Y0023523D01*
X0119058Y0023741D01*
X0119276Y0023959D01*
X0119276Y0026082D01*
X0119058Y0026300D01*
X0119276Y0026518D01*
X0119276Y0028641D01*
X0119058Y0028859D01*
X0119276Y0029077D01*
X0119276Y0031200D01*
X0119058Y0031418D01*
X0119276Y0031636D01*
X0119276Y0033759D01*
X0119058Y0033977D01*
X0119276Y0034195D01*
X0119276Y0036116D01*
X0148509Y0036116D01*
X0150983Y0038589D01*
X0153788Y0038589D01*
X0154315Y0039116D01*
X0154315Y0043799D01*
X0153788Y0044326D01*
X0149106Y0044326D01*
X0148578Y0043799D01*
X0148578Y0040993D01*
X0147101Y0039516D01*
X0127288Y0039516D01*
X0127288Y0049980D01*
X0126761Y0050507D01*
X0121015Y0050507D01*
X0120488Y0049980D01*
X0120488Y0043611D01*
X0116392Y0039516D01*
X0116181Y0039516D01*
X0116718Y0040053D01*
X0117714Y0041049D01*
X0117714Y0045311D01*
X0113777Y0049248D01*
X0112781Y0050244D01*
X0112386Y0050244D01*
X0112386Y0051378D01*
X0112267Y0051497D01*
X0112386Y0051616D01*
X0112386Y0053150D01*
X0114584Y0053150D01*
X0123219Y0061785D01*
X0123219Y0065361D01*
X0124654Y0065361D01*
X0124866Y0065573D01*
X0124997Y0065442D01*
X0126525Y0063914D01*
X0126525Y0055880D01*
X0127286Y0055118D01*
X0135948Y0046457D01*
X0148578Y0046457D01*
X0148578Y0045415D01*
X0149106Y0044888D01*
X0153788Y0044888D01*
X0154315Y0045415D01*
X0154315Y0050098D01*
X0153788Y0050625D01*
X0149106Y0050625D01*
X0148578Y0050098D01*
X0148578Y0049057D01*
X0137025Y0049057D01*
X0129125Y0056957D01*
X0129125Y0064991D01*
X0128755Y0065361D01*
X0132528Y0065361D01*
X0133055Y0065888D01*
X0133055Y0074507D01*
X0132528Y0075035D01*
X0131093Y0075035D01*
X0131093Y0078610D01*
X0130014Y0079690D01*
X0130014Y0080947D01*
X0128731Y0082229D01*
X0128615Y0082229D01*
X0129125Y0082739D01*
X0129125Y0096327D01*
X0126397Y0099054D01*
X0126397Y0100632D01*
X0125335Y0101694D01*
X0126004Y0102362D01*
X0139097Y0102362D01*
X0141873Y0099587D01*
X0141873Y0091453D01*
X0141568Y0091757D01*
X0133951Y0099375D01*
X0133951Y0100632D01*
X0132669Y0101914D01*
X0130855Y0101914D01*
X0129573Y0100632D01*
X0129573Y0098818D01*
X0130855Y0097536D01*
X0132112Y0097536D01*
X0139730Y0089919D01*
X0139730Y0075035D01*
X0138606Y0075035D01*
X0138206Y0075435D01*
X0137888Y0075753D01*
X0137888Y0077010D01*
X0136606Y0078292D01*
X0134792Y0078292D01*
X0133510Y0077010D01*
X0133510Y0075196D01*
X0134405Y0074301D01*
X0134405Y0065888D01*
X0134932Y0065361D01*
X0138705Y0065361D01*
X0138336Y0064991D01*
X0138336Y0062318D01*
X0136763Y0062318D01*
X0136236Y0061791D01*
X0136236Y0051045D01*
X0136763Y0050518D01*
X0142509Y0050518D01*
X0143036Y0051045D01*
X0143036Y0061791D01*
X0142509Y0062318D01*
X0140936Y0062318D01*
X0140936Y0063914D01*
X0141568Y0064546D01*
X0142330Y0065308D01*
X0142330Y0067068D01*
X0145644Y0063754D01*
X0146406Y0062992D01*
X0158421Y0062992D01*
X0158421Y0062148D01*
X0158948Y0061620D01*
X0162450Y0061620D01*
X0162977Y0062148D01*
X0162977Y0066437D01*
X0162450Y0066964D01*
X0158948Y0066964D01*
X0158421Y0066437D01*
X0158421Y0065592D01*
X0147483Y0065592D01*
X0145146Y0067929D01*
X0169832Y0067929D01*
X0169832Y0050329D01*
X0169536Y0050625D01*
X0164854Y0050625D01*
X0164326Y0050098D01*
X0164326Y0045415D01*
X0164854Y0044888D01*
X0169536Y0044888D01*
X0169832Y0045184D01*
X0169832Y0044030D01*
X0169536Y0044326D01*
X0164854Y0044326D01*
X0164326Y0043799D01*
X0164326Y0039116D01*
X0164854Y0038589D01*
X0169536Y0038589D01*
X0169832Y0038885D01*
X0169832Y0002600D01*
X0013101Y0002600D01*
X0015014Y0003222D01*
X0017560Y0005514D01*
X0018953Y0008643D01*
X0018953Y0012068D01*
X0017560Y0015197D01*
X0015014Y0017489D01*
X0011757Y0018547D01*
X0008350Y0018189D01*
X0005384Y0016476D01*
X0003371Y0013705D01*
X0003141Y0012622D01*
X0003141Y0034770D01*
X0008650Y0034770D01*
X0009178Y0035297D01*
X0009178Y0041666D01*
X0010419Y0042907D01*
X0010783Y0042907D01*
X0010783Y0041478D01*
X0011310Y0040951D01*
X0014313Y0040951D01*
X0014475Y0040789D01*
X0013952Y0040789D01*
X0013952Y0037624D01*
X0013352Y0037624D01*
X0013352Y0040789D01*
X0011512Y0040789D01*
X0011181Y0040700D01*
X0010885Y0040529D01*
X0010643Y0040287D01*
X0010472Y0039991D01*
X0010383Y0039660D01*
X0010383Y0037624D01*
X0013352Y0037624D01*
X0013352Y0037024D01*
X0013952Y0037024D01*
X0013952Y0033858D01*
X0015791Y0033858D01*
X0015889Y0033884D01*
X0015889Y0028155D01*
X0016884Y0027159D01*
X0019826Y0024218D01*
X0020770Y0023274D01*
X0020626Y0023129D01*
X0020626Y0018841D01*
X0021113Y0018353D01*
X0020715Y0017955D01*
X0020715Y0016141D01*
X0021204Y0015652D01*
X0021204Y0011029D01*
X0022063Y0010170D01*
X0022063Y0003801D01*
X0022590Y0003274D01*
X0028335Y0003274D01*
X0028863Y0003801D01*
X0028863Y0010170D01*
X0040056Y0021364D01*
X0040056Y0021502D01*
X0040344Y0021502D01*
X0040344Y0021084D01*
X0042195Y0021084D01*
X0044046Y0021084D01*
X0044046Y0022539D01*
X0044848Y0022539D01*
X0044848Y0029543D01*
X0045448Y0029543D01*
X0045448Y0022539D01*
X0046249Y0022539D01*
X0046249Y0021084D01*
X0048100Y0021084D01*
X0048100Y0021083D01*
X0046249Y0021083D01*
X0046249Y0019239D01*
X0046338Y0018908D01*
X0046430Y0018748D01*
X0043865Y0018748D01*
X0043957Y0018908D01*
X0044046Y0019239D01*
X0044046Y0021083D01*
X0042195Y0021083D01*
X0042195Y0021084D01*
X0042195Y0021083D01*
X0040344Y0021083D01*
X0040344Y0019239D01*
X0040432Y0018908D01*
X0040525Y0018748D01*
X0040506Y0018748D01*
X0036832Y0015074D01*
X0034401Y0015074D01*
X0033874Y0014547D01*
X0033874Y0003801D01*
X0034401Y0003274D01*
X0040146Y0003274D01*
X0040674Y0003801D01*
X0040674Y0004915D01*
X0042476Y0004915D01*
X0042476Y0004864D01*
X0043003Y0004337D01*
X0047292Y0004337D01*
X0047819Y0004864D01*
X0047819Y0004915D01*
X0050350Y0004915D01*
X0050350Y0004864D01*
X0050877Y0004337D01*
X0055166Y0004337D01*
X0055693Y0004864D01*
X0055693Y0004915D01*
X0058224Y0004915D01*
X0058224Y0004864D01*
X0058751Y0004337D01*
X0063040Y0004337D01*
X0063567Y0004864D01*
X0063567Y0008366D01*
X0063040Y0008893D01*
X0058751Y0008893D01*
X0058224Y0008366D01*
X0058224Y0008315D01*
X0055693Y0008315D01*
X0055693Y0008366D01*
X0055166Y0008893D01*
X0050877Y0008893D01*
X0050350Y0008366D01*
X0050350Y0008315D01*
X0047819Y0008315D01*
X0047819Y0008366D01*
X0047292Y0008893D01*
X0043003Y0008893D01*
X0042476Y0008366D01*
X0042476Y0008315D01*
X0040674Y0008315D01*
X0040674Y0014107D01*
X0041915Y0015348D01*
X0048973Y0015348D01*
X0052545Y0018919D01*
X0053541Y0019915D01*
X0053541Y0021502D01*
X0054054Y0021502D01*
X0054791Y0020765D01*
X0056605Y0020765D01*
X0056796Y0020956D01*
X0056796Y0019325D01*
X0052881Y0015411D01*
X0050297Y0015411D01*
X0049536Y0014649D01*
X0047919Y0013033D01*
X0047819Y0013033D01*
X0047819Y0013484D01*
X0047292Y0014011D01*
X0043003Y0014011D01*
X0042476Y0013484D01*
X0042476Y0009982D01*
X0043003Y0009455D01*
X0047292Y0009455D01*
X0047819Y0009982D01*
X0047819Y0010433D01*
X0048996Y0010433D01*
X0049758Y0011195D01*
X0050350Y0011787D01*
X0050350Y0009982D01*
X0050877Y0009455D01*
X0055166Y0009455D01*
X0055693Y0009982D01*
X0055693Y0012566D01*
X0059596Y0016469D01*
X0059596Y0014011D01*
X0058751Y0014011D01*
X0058224Y0013484D01*
X0058224Y0009982D01*
X0058751Y0009455D01*
X0063040Y0009455D01*
X0063567Y0009982D01*
X0063567Y0013484D01*
X0063040Y0014011D01*
X0062196Y0014011D01*
X0062196Y0029398D01*
X0061434Y0030159D01*
X0060227Y0031366D01*
X0060097Y0031496D01*
X0067870Y0031496D01*
X0067870Y0030652D01*
X0068397Y0030124D01*
X0070981Y0030124D01*
X0073513Y0027592D01*
X0072988Y0027066D01*
X0072988Y0022778D01*
X0073515Y0022250D01*
X0077016Y0022250D01*
X0077544Y0022778D01*
X0077544Y0023984D01*
X0077944Y0024384D01*
X0080929Y0027369D01*
X0080929Y0022736D01*
X0086266Y0017399D01*
X0086266Y0016141D01*
X0087548Y0014859D01*
X0089361Y0014859D01*
X0090644Y0016141D01*
X0090644Y0017913D01*
X0093135Y0017913D01*
X0093135Y0019858D01*
X0088730Y0019858D01*
X0088730Y0019237D01*
X0088104Y0019237D01*
X0083529Y0023812D01*
X0083529Y0030689D01*
X0083611Y0030607D01*
X0083591Y0030627D02*
X0083529Y0030627D01*
X0083529Y0029430D02*
X0086045Y0029430D01*
X0083529Y0028832D02*
X0089320Y0028832D01*
X0089130Y0028233D02*
X0083529Y0028233D01*
X0083529Y0027634D02*
X0089130Y0027634D01*
X0087473Y0027036D02*
X0083529Y0027036D01*
X0083529Y0026437D02*
X0086874Y0026437D01*
X0086276Y0025839D02*
X0083529Y0025839D01*
X0083529Y0025240D02*
X0086266Y0025240D01*
X0086266Y0024642D02*
X0083529Y0024642D01*
X0083529Y0024043D02*
X0086266Y0024043D01*
X0086836Y0023445D02*
X0083896Y0023445D01*
X0084495Y0022846D02*
X0087435Y0022846D01*
X0089130Y0022248D02*
X0085093Y0022248D01*
X0085692Y0021649D02*
X0089130Y0021649D01*
X0088807Y0021051D02*
X0086290Y0021051D01*
X0086889Y0020452D02*
X0088730Y0020452D01*
X0088730Y0019854D02*
X0087487Y0019854D01*
X0088086Y0019255D02*
X0088730Y0019255D01*
X0090644Y0017460D02*
X0110650Y0017460D01*
X0111249Y0018058D02*
X0096928Y0018058D01*
X0096831Y0018002D02*
X0097127Y0018173D01*
X0097369Y0018415D01*
X0097540Y0018712D01*
X0097629Y0019042D01*
X0097629Y0019858D01*
X0093224Y0019858D01*
X0093224Y0017913D01*
X0096500Y0017913D01*
X0096831Y0018002D01*
X0097509Y0018657D02*
X0111361Y0018657D01*
X0111177Y0019255D02*
X0097629Y0019255D01*
X0097629Y0019854D02*
X0111177Y0019854D01*
X0111177Y0020452D02*
X0097629Y0020452D01*
X0097551Y0021051D02*
X0111264Y0021051D01*
X0111177Y0021649D02*
X0099414Y0021649D01*
X0100012Y0022248D02*
X0111177Y0022248D01*
X0111177Y0022846D02*
X0100149Y0022846D01*
X0100149Y0023445D02*
X0111177Y0023445D01*
X0111177Y0024043D02*
X0100149Y0024043D01*
X0099705Y0024642D02*
X0111177Y0024642D01*
X0111177Y0025240D02*
X0099106Y0025240D01*
X0100248Y0026437D02*
X0111257Y0026437D01*
X0111177Y0025839D02*
X0097229Y0025839D01*
X0100847Y0027036D02*
X0111177Y0027036D01*
X0111177Y0027634D02*
X0101445Y0027634D01*
X0102044Y0028233D02*
X0111177Y0028233D01*
X0111367Y0028832D02*
X0102642Y0028832D01*
X0103241Y0029430D02*
X0111177Y0029430D01*
X0111177Y0030029D02*
X0103839Y0030029D01*
X0104438Y0030627D02*
X0111177Y0030627D01*
X0111202Y0031226D02*
X0105036Y0031226D01*
X0105635Y0031824D02*
X0111177Y0031824D01*
X0111177Y0032423D02*
X0105903Y0032423D01*
X0105903Y0033021D02*
X0111177Y0033021D01*
X0111177Y0033620D02*
X0105903Y0033620D01*
X0105903Y0034218D02*
X0111177Y0034218D01*
X0111177Y0034817D02*
X0105903Y0034817D01*
X0105903Y0035415D02*
X0111177Y0035415D01*
X0111177Y0036014D02*
X0105903Y0036014D01*
X0105903Y0036612D02*
X0107912Y0036612D01*
X0107314Y0037211D02*
X0105903Y0037211D01*
X0105903Y0037809D02*
X0106715Y0037809D01*
X0106116Y0038408D02*
X0105903Y0038408D01*
X0102503Y0038408D02*
X0101687Y0038408D01*
X0102285Y0037809D02*
X0102503Y0037809D01*
X0102503Y0037211D02*
X0102455Y0037211D01*
X0102455Y0036612D02*
X0102503Y0036612D01*
X0102503Y0036014D02*
X0102455Y0036014D01*
X0102503Y0035415D02*
X0102043Y0035415D01*
X0102503Y0034817D02*
X0101445Y0034817D01*
X0102503Y0034218D02*
X0099589Y0034218D01*
X0097229Y0033620D02*
X0102503Y0033620D01*
X0102024Y0033021D02*
X0097229Y0033021D01*
X0097229Y0032423D02*
X0101425Y0032423D01*
X0100827Y0031824D02*
X0097229Y0031824D01*
X0097204Y0031226D02*
X0100228Y0031226D01*
X0099630Y0030627D02*
X0097229Y0030627D01*
X0097229Y0030029D02*
X0099031Y0030029D01*
X0098433Y0029430D02*
X0097229Y0029430D01*
X0097087Y0036612D02*
X0098077Y0036612D01*
X0098077Y0037211D02*
X0097229Y0037211D01*
X0097229Y0037809D02*
X0098246Y0037809D01*
X0098845Y0038408D02*
X0097229Y0038408D01*
X0097100Y0039006D02*
X0099525Y0039006D01*
X0100970Y0042370D02*
X0093048Y0050292D01*
X0093298Y0050292D01*
X0094187Y0051181D01*
X0095621Y0051181D01*
X0095619Y0051176D01*
X0095619Y0050513D01*
X0098494Y0050513D01*
X0098494Y0050513D01*
X0101369Y0050513D01*
X0098494Y0050513D01*
X0098494Y0050513D01*
X0095619Y0050513D01*
X0095619Y0049849D01*
X0095708Y0049519D01*
X0095879Y0049222D01*
X0096019Y0049082D01*
X0096019Y0047679D01*
X0096546Y0047152D01*
X0100442Y0047152D01*
X0100534Y0047245D01*
X0100534Y0046068D01*
X0100611Y0045992D01*
X0100611Y0043914D01*
X0102154Y0042370D01*
X0100970Y0042370D01*
X0100743Y0042597D02*
X0101927Y0042597D01*
X0101328Y0043196D02*
X0100144Y0043196D01*
X0100730Y0043794D02*
X0099546Y0043794D01*
X0098947Y0044393D02*
X0100611Y0044393D01*
X0100611Y0044991D02*
X0098349Y0044991D01*
X0097750Y0045590D02*
X0100611Y0045590D01*
X0100534Y0046188D02*
X0097152Y0046188D01*
X0096553Y0046787D02*
X0100534Y0046787D01*
X0101068Y0049181D02*
X0101303Y0049181D01*
X0101350Y0049779D02*
X0107437Y0049779D01*
X0107437Y0049181D02*
X0107102Y0049181D01*
X0107437Y0050378D02*
X0101369Y0050378D01*
X0101369Y0050976D02*
X0107437Y0050976D01*
X0107478Y0051575D02*
X0101241Y0051575D01*
X0100969Y0052173D02*
X0107437Y0052173D01*
X0107437Y0052772D02*
X0100969Y0052772D01*
X0101231Y0053370D02*
X0107461Y0053370D01*
X0107437Y0053969D02*
X0101369Y0053969D01*
X0101369Y0054568D02*
X0107437Y0054568D01*
X0107274Y0055166D02*
X0101355Y0055166D01*
X0101320Y0055765D02*
X0101085Y0055765D01*
X0103149Y0055765D02*
X0103288Y0055765D01*
X0105117Y0055765D02*
X0105257Y0055765D01*
X0107981Y0058161D02*
X0114584Y0064764D01*
X0115181Y0065361D01*
X0116780Y0065361D01*
X0117257Y0065837D01*
X0117257Y0063437D01*
X0116364Y0062544D01*
X0115107Y0062544D01*
X0113825Y0061262D01*
X0113825Y0059448D01*
X0115107Y0058166D01*
X0115923Y0058166D01*
X0113507Y0055750D01*
X0112785Y0055750D01*
X0112786Y0055755D01*
X0112786Y0056418D01*
X0109912Y0056418D01*
X0109912Y0056418D01*
X0112786Y0056418D01*
X0112786Y0057081D01*
X0112698Y0057412D01*
X0112526Y0057708D01*
X0112284Y0057950D01*
X0111988Y0058122D01*
X0111657Y0058210D01*
X0109911Y0058210D01*
X0108165Y0058210D01*
X0107981Y0058161D01*
X0108577Y0058757D02*
X0114516Y0058757D01*
X0113918Y0059356D02*
X0109176Y0059356D01*
X0109774Y0059954D02*
X0113825Y0059954D01*
X0113825Y0060553D02*
X0110373Y0060553D01*
X0110971Y0061151D02*
X0113825Y0061151D01*
X0114313Y0061750D02*
X0111570Y0061750D01*
X0112168Y0062348D02*
X0114911Y0062348D01*
X0116767Y0062947D02*
X0112767Y0062947D01*
X0113365Y0063545D02*
X0117257Y0063545D01*
X0117257Y0064144D02*
X0113964Y0064144D01*
X0114562Y0064742D02*
X0117257Y0064742D01*
X0117257Y0065341D02*
X0115161Y0065341D01*
X0107893Y0061750D02*
X0093292Y0061750D01*
X0093292Y0062348D02*
X0099194Y0062348D01*
X0098595Y0062947D02*
X0092845Y0062947D01*
X0092314Y0063545D02*
X0098077Y0063545D01*
X0098077Y0064144D02*
X0092314Y0064144D01*
X0092314Y0064742D02*
X0098077Y0064742D01*
X0098139Y0065341D02*
X0092314Y0065341D01*
X0093685Y0065939D02*
X0095035Y0065939D01*
X0095035Y0066538D02*
X0093685Y0066538D01*
X0093685Y0067136D02*
X0095035Y0067136D01*
X0095035Y0067735D02*
X0093685Y0067735D01*
X0093685Y0068333D02*
X0095035Y0068333D01*
X0095035Y0068932D02*
X0093685Y0068932D01*
X0093685Y0069530D02*
X0095035Y0069530D01*
X0095035Y0070129D02*
X0093685Y0070129D01*
X0093685Y0070727D02*
X0095035Y0070727D01*
X0095035Y0071326D02*
X0093685Y0071326D01*
X0093685Y0071924D02*
X0095035Y0071924D01*
X0095035Y0072523D02*
X0093685Y0072523D01*
X0093685Y0073121D02*
X0095035Y0073121D01*
X0095035Y0073720D02*
X0093685Y0073720D01*
X0093685Y0074318D02*
X0095035Y0074318D01*
X0095445Y0074917D02*
X0093276Y0074917D01*
X0090881Y0075515D02*
X0096997Y0075515D01*
X0096997Y0076114D02*
X0090282Y0076114D01*
X0089755Y0076712D02*
X0096997Y0076712D01*
X0096997Y0077311D02*
X0089755Y0077311D01*
X0089755Y0077909D02*
X0096997Y0077909D01*
X0096997Y0078508D02*
X0089755Y0078508D01*
X0089755Y0079106D02*
X0096997Y0079106D01*
X0096997Y0079705D02*
X0089755Y0079705D01*
X0089755Y0080303D02*
X0096997Y0080303D01*
X0096997Y0080902D02*
X0089755Y0080902D01*
X0089755Y0081501D02*
X0096997Y0081501D01*
X0096997Y0082099D02*
X0089755Y0082099D01*
X0089755Y0082698D02*
X0096997Y0082698D01*
X0096997Y0083296D02*
X0089755Y0083296D01*
X0089755Y0083895D02*
X0096997Y0083895D01*
X0096997Y0084493D02*
X0089755Y0084493D01*
X0089755Y0085092D02*
X0096997Y0085092D01*
X0096997Y0085690D02*
X0089755Y0085690D01*
X0089755Y0086289D02*
X0096997Y0086289D01*
X0096997Y0086887D02*
X0089755Y0086887D01*
X0089755Y0087486D02*
X0096997Y0087486D01*
X0096997Y0088084D02*
X0089755Y0088084D01*
X0089755Y0088683D02*
X0096997Y0088683D01*
X0096997Y0089281D02*
X0089755Y0089281D01*
X0089755Y0089880D02*
X0091268Y0089880D01*
X0090669Y0090478D02*
X0089755Y0090478D01*
X0089755Y0091077D02*
X0090203Y0091077D01*
X0090203Y0091675D02*
X0089755Y0091675D01*
X0089755Y0092274D02*
X0090203Y0092274D01*
X0090317Y0092872D02*
X0089755Y0092872D01*
X0089755Y0093471D02*
X0090916Y0093471D01*
X0089755Y0094069D02*
X0096997Y0094069D01*
X0096997Y0093471D02*
X0093868Y0093471D01*
X0094114Y0090478D02*
X0095863Y0090478D01*
X0096462Y0089880D02*
X0093516Y0089880D01*
X0099597Y0092401D02*
X0102198Y0089800D01*
X0102959Y0089039D01*
X0102959Y0085830D01*
X0103296Y0086166D01*
X0105109Y0086166D01*
X0106392Y0084884D01*
X0106392Y0083627D01*
X0106710Y0083309D01*
X0107471Y0082547D01*
X0107471Y0075035D01*
X0108906Y0075035D01*
X0109383Y0074558D01*
X0109383Y0075087D01*
X0110777Y0076481D01*
X0110777Y0110998D01*
X0104871Y0116903D01*
X0104871Y0124416D01*
X0103436Y0124416D01*
X0102909Y0124943D01*
X0102909Y0133563D01*
X0103205Y0133858D01*
X0101264Y0133858D01*
X0101559Y0133563D01*
X0101559Y0124943D01*
X0101032Y0124416D01*
X0099597Y0124416D01*
X0099597Y0092401D01*
X0099725Y0092274D02*
X0110777Y0092274D01*
X0110777Y0092872D02*
X0099597Y0092872D01*
X0099597Y0093471D02*
X0110777Y0093471D01*
X0110777Y0094069D02*
X0099597Y0094069D01*
X0099597Y0094668D02*
X0110777Y0094668D01*
X0110777Y0095266D02*
X0099597Y0095266D01*
X0099597Y0095865D02*
X0110777Y0095865D01*
X0110777Y0096463D02*
X0099597Y0096463D01*
X0099597Y0097062D02*
X0110777Y0097062D01*
X0110777Y0097660D02*
X0099597Y0097660D01*
X0099597Y0098259D02*
X0110777Y0098259D01*
X0110777Y0098857D02*
X0099597Y0098857D01*
X0099597Y0099456D02*
X0110777Y0099456D01*
X0110777Y0100054D02*
X0099597Y0100054D01*
X0099597Y0100653D02*
X0110777Y0100653D01*
X0110777Y0101251D02*
X0099597Y0101251D01*
X0099597Y0101850D02*
X0110777Y0101850D01*
X0110777Y0102448D02*
X0099597Y0102448D01*
X0099597Y0103047D02*
X0110777Y0103047D01*
X0110777Y0103645D02*
X0099597Y0103645D01*
X0099597Y0104244D02*
X0110777Y0104244D01*
X0110777Y0104842D02*
X0099597Y0104842D01*
X0099597Y0105441D02*
X0110777Y0105441D01*
X0110777Y0106039D02*
X0099597Y0106039D01*
X0099597Y0106638D02*
X0110777Y0106638D01*
X0110777Y0107237D02*
X0099597Y0107237D01*
X0099597Y0107835D02*
X0110777Y0107835D01*
X0110777Y0108434D02*
X0099597Y0108434D01*
X0099597Y0109032D02*
X0110777Y0109032D01*
X0110777Y0109631D02*
X0099597Y0109631D01*
X0099597Y0110229D02*
X0110777Y0110229D01*
X0110777Y0110828D02*
X0099597Y0110828D01*
X0099597Y0111426D02*
X0110348Y0111426D01*
X0109750Y0112025D02*
X0099597Y0112025D01*
X0099597Y0112623D02*
X0109151Y0112623D01*
X0108553Y0113222D02*
X0099597Y0113222D01*
X0099597Y0113820D02*
X0107954Y0113820D01*
X0107356Y0114419D02*
X0099597Y0114419D01*
X0099597Y0115017D02*
X0106757Y0115017D01*
X0106159Y0115616D02*
X0099597Y0115616D01*
X0099597Y0116214D02*
X0105560Y0116214D01*
X0104962Y0116813D02*
X0099597Y0116813D01*
X0099597Y0117411D02*
X0104871Y0117411D01*
X0104871Y0118010D02*
X0099597Y0118010D01*
X0099597Y0118608D02*
X0104871Y0118608D01*
X0104871Y0119207D02*
X0099597Y0119207D01*
X0099597Y0119805D02*
X0104871Y0119805D01*
X0104871Y0120404D02*
X0099597Y0120404D01*
X0099597Y0121002D02*
X0104871Y0121002D01*
X0104871Y0121601D02*
X0099597Y0121601D01*
X0099597Y0122199D02*
X0104871Y0122199D01*
X0104871Y0122798D02*
X0099597Y0122798D01*
X0099597Y0123396D02*
X0104871Y0123396D01*
X0104871Y0123995D02*
X0099597Y0123995D01*
X0101210Y0124593D02*
X0103259Y0124593D01*
X0102909Y0125192D02*
X0101559Y0125192D01*
X0101559Y0125790D02*
X0102909Y0125790D01*
X0102909Y0126389D02*
X0101559Y0126389D01*
X0101559Y0126987D02*
X0102909Y0126987D01*
X0102909Y0127586D02*
X0101559Y0127586D01*
X0101559Y0128184D02*
X0102909Y0128184D01*
X0102909Y0128783D02*
X0101559Y0128783D01*
X0101559Y0129381D02*
X0102909Y0129381D01*
X0102909Y0129980D02*
X0101559Y0129980D01*
X0101559Y0130578D02*
X0102909Y0130578D01*
X0102909Y0131177D02*
X0101559Y0131177D01*
X0101559Y0131775D02*
X0102909Y0131775D01*
X0102909Y0132374D02*
X0101559Y0132374D01*
X0101559Y0132972D02*
X0102909Y0132972D01*
X0102918Y0133571D02*
X0101551Y0133571D01*
X0109138Y0133858D02*
X0109433Y0133563D01*
X0109433Y0124943D01*
X0108906Y0124416D01*
X0107471Y0124416D01*
X0107471Y0117980D01*
X0112615Y0112836D01*
X0113377Y0112075D01*
X0113377Y0075404D01*
X0113007Y0075035D01*
X0116780Y0075035D01*
X0117257Y0074558D01*
X0117257Y0075087D01*
X0118019Y0075849D01*
X0120619Y0078450D01*
X0120619Y0124416D01*
X0119184Y0124416D01*
X0118657Y0124943D01*
X0118657Y0133563D01*
X0118953Y0133858D01*
X0117012Y0133858D01*
X0117307Y0133563D01*
X0117307Y0124943D01*
X0116780Y0124416D01*
X0114104Y0124416D01*
X0114266Y0124254D01*
X0114266Y0122441D01*
X0112983Y0121158D01*
X0111170Y0121158D01*
X0109888Y0122441D01*
X0109888Y0124254D01*
X0110777Y0125143D01*
X0110777Y0127823D01*
X0110783Y0127829D01*
X0110783Y0133563D01*
X0111079Y0133858D01*
X0109138Y0133858D01*
X0109425Y0133571D02*
X0110792Y0133571D01*
X0110783Y0132972D02*
X0109433Y0132972D01*
X0109433Y0132374D02*
X0110783Y0132374D01*
X0110783Y0131775D02*
X0109433Y0131775D01*
X0109433Y0131177D02*
X0110783Y0131177D01*
X0110783Y0130578D02*
X0109433Y0130578D01*
X0109433Y0129980D02*
X0110783Y0129980D01*
X0110783Y0129381D02*
X0109433Y0129381D01*
X0109433Y0128783D02*
X0110783Y0128783D01*
X0110783Y0128184D02*
X0109433Y0128184D01*
X0109433Y0127586D02*
X0110777Y0127586D01*
X0110777Y0126987D02*
X0109433Y0126987D01*
X0109433Y0126389D02*
X0110777Y0126389D01*
X0110777Y0125790D02*
X0109433Y0125790D01*
X0109433Y0125192D02*
X0110777Y0125192D01*
X0110227Y0124593D02*
X0109084Y0124593D01*
X0109888Y0123995D02*
X0107471Y0123995D01*
X0107471Y0123396D02*
X0109888Y0123396D01*
X0109888Y0122798D02*
X0107471Y0122798D01*
X0107471Y0122199D02*
X0110129Y0122199D01*
X0110728Y0121601D02*
X0107471Y0121601D01*
X0107471Y0121002D02*
X0120619Y0121002D01*
X0120619Y0120404D02*
X0107471Y0120404D01*
X0107471Y0119805D02*
X0120619Y0119805D01*
X0120619Y0119207D02*
X0107471Y0119207D01*
X0107471Y0118608D02*
X0120619Y0118608D01*
X0120619Y0118010D02*
X0107471Y0118010D01*
X0108040Y0117411D02*
X0120619Y0117411D01*
X0120619Y0116813D02*
X0108639Y0116813D01*
X0109237Y0116214D02*
X0120619Y0116214D01*
X0120619Y0115616D02*
X0109836Y0115616D01*
X0110434Y0115017D02*
X0120619Y0115017D01*
X0120619Y0114419D02*
X0111033Y0114419D01*
X0111631Y0113820D02*
X0120619Y0113820D01*
X0120619Y0113222D02*
X0112230Y0113222D01*
X0112828Y0112623D02*
X0120619Y0112623D01*
X0120619Y0112025D02*
X0113377Y0112025D01*
X0113377Y0111426D02*
X0120619Y0111426D01*
X0120619Y0110828D02*
X0113377Y0110828D01*
X0113377Y0110229D02*
X0120619Y0110229D01*
X0120619Y0109631D02*
X0113377Y0109631D01*
X0113377Y0109032D02*
X0120619Y0109032D01*
X0120619Y0108434D02*
X0113377Y0108434D01*
X0113377Y0107835D02*
X0120619Y0107835D01*
X0120619Y0107237D02*
X0113377Y0107237D01*
X0113377Y0106638D02*
X0120619Y0106638D01*
X0120619Y0106039D02*
X0113377Y0106039D01*
X0113377Y0105441D02*
X0120619Y0105441D01*
X0120619Y0104842D02*
X0113377Y0104842D01*
X0113377Y0104244D02*
X0120619Y0104244D01*
X0120619Y0103645D02*
X0113377Y0103645D01*
X0113377Y0103047D02*
X0120619Y0103047D01*
X0120619Y0102448D02*
X0113377Y0102448D01*
X0113377Y0101850D02*
X0120619Y0101850D01*
X0120619Y0101251D02*
X0113377Y0101251D01*
X0113377Y0100653D02*
X0120619Y0100653D01*
X0120619Y0100054D02*
X0113377Y0100054D01*
X0113377Y0099456D02*
X0120619Y0099456D01*
X0120619Y0098857D02*
X0113377Y0098857D01*
X0113377Y0098259D02*
X0120619Y0098259D01*
X0120619Y0097660D02*
X0113377Y0097660D01*
X0113377Y0097062D02*
X0120619Y0097062D01*
X0120619Y0096463D02*
X0113377Y0096463D01*
X0113377Y0095865D02*
X0120619Y0095865D01*
X0120619Y0095266D02*
X0113377Y0095266D01*
X0113377Y0094668D02*
X0120619Y0094668D01*
X0120619Y0094069D02*
X0113377Y0094069D01*
X0113377Y0093471D02*
X0120619Y0093471D01*
X0120619Y0092872D02*
X0113377Y0092872D01*
X0113377Y0092274D02*
X0120619Y0092274D01*
X0120619Y0091675D02*
X0113377Y0091675D01*
X0113377Y0091077D02*
X0120619Y0091077D01*
X0120619Y0090478D02*
X0113377Y0090478D01*
X0113377Y0089880D02*
X0120619Y0089880D01*
X0120619Y0089281D02*
X0113377Y0089281D01*
X0113377Y0088683D02*
X0120619Y0088683D01*
X0120619Y0088084D02*
X0113377Y0088084D01*
X0113377Y0087486D02*
X0120619Y0087486D01*
X0120619Y0086887D02*
X0113377Y0086887D01*
X0113377Y0086289D02*
X0120619Y0086289D01*
X0120619Y0085690D02*
X0113377Y0085690D01*
X0113377Y0085092D02*
X0120619Y0085092D01*
X0120619Y0084493D02*
X0113377Y0084493D01*
X0113377Y0083895D02*
X0120619Y0083895D01*
X0120619Y0083296D02*
X0113377Y0083296D01*
X0113377Y0082698D02*
X0120619Y0082698D01*
X0120619Y0082099D02*
X0113377Y0082099D01*
X0113377Y0081501D02*
X0120619Y0081501D01*
X0120619Y0080902D02*
X0113377Y0080902D01*
X0113377Y0080303D02*
X0120619Y0080303D01*
X0120619Y0079705D02*
X0113377Y0079705D01*
X0113377Y0079106D02*
X0120619Y0079106D01*
X0120619Y0078508D02*
X0113377Y0078508D01*
X0113377Y0077909D02*
X0120079Y0077909D01*
X0119481Y0077311D02*
X0113377Y0077311D01*
X0113377Y0076712D02*
X0118882Y0076712D01*
X0118284Y0076114D02*
X0113377Y0076114D01*
X0113377Y0075515D02*
X0117685Y0075515D01*
X0117257Y0074917D02*
X0116898Y0074917D01*
X0110777Y0076712D02*
X0107471Y0076712D01*
X0107471Y0076114D02*
X0110410Y0076114D01*
X0109811Y0075515D02*
X0107471Y0075515D01*
X0109024Y0074917D02*
X0109383Y0074917D01*
X0110777Y0077311D02*
X0107471Y0077311D01*
X0107471Y0077909D02*
X0110777Y0077909D01*
X0110777Y0078508D02*
X0107471Y0078508D01*
X0107471Y0079106D02*
X0110777Y0079106D01*
X0110777Y0079705D02*
X0107471Y0079705D01*
X0107471Y0080303D02*
X0110777Y0080303D01*
X0110777Y0080902D02*
X0107471Y0080902D01*
X0107471Y0081501D02*
X0110777Y0081501D01*
X0110777Y0082099D02*
X0107471Y0082099D01*
X0107321Y0082698D02*
X0110777Y0082698D01*
X0110777Y0083296D02*
X0106722Y0083296D01*
X0106392Y0083895D02*
X0110777Y0083895D01*
X0110777Y0084493D02*
X0106392Y0084493D01*
X0106184Y0085092D02*
X0110777Y0085092D01*
X0110777Y0085690D02*
X0105585Y0085690D01*
X0102959Y0086289D02*
X0110777Y0086289D01*
X0110777Y0086887D02*
X0102959Y0086887D01*
X0102959Y0087486D02*
X0110777Y0087486D01*
X0110777Y0088084D02*
X0102959Y0088084D01*
X0102959Y0088683D02*
X0110777Y0088683D01*
X0110777Y0089281D02*
X0102717Y0089281D01*
X0102119Y0089880D02*
X0110777Y0089880D01*
X0110777Y0090478D02*
X0101520Y0090478D01*
X0100922Y0091077D02*
X0110777Y0091077D01*
X0110777Y0091675D02*
X0100323Y0091675D01*
X0096997Y0094668D02*
X0089755Y0094668D01*
X0089771Y0095266D02*
X0096997Y0095266D01*
X0096997Y0095865D02*
X0090370Y0095865D01*
X0090968Y0096463D02*
X0096997Y0096463D01*
X0096997Y0097062D02*
X0091567Y0097062D01*
X0093423Y0097660D02*
X0096997Y0097660D01*
X0096997Y0098259D02*
X0094021Y0098259D01*
X0094581Y0098857D02*
X0096997Y0098857D01*
X0096997Y0099456D02*
X0094581Y0099456D01*
X0094581Y0100054D02*
X0096997Y0100054D01*
X0096997Y0100653D02*
X0094560Y0100653D01*
X0093961Y0101251D02*
X0096997Y0101251D01*
X0094725Y0101850D02*
X0093363Y0101850D01*
X0113426Y0121601D02*
X0120619Y0121601D01*
X0120619Y0122199D02*
X0114024Y0122199D01*
X0114266Y0122798D02*
X0120619Y0122798D01*
X0120619Y0123396D02*
X0114266Y0123396D01*
X0114266Y0123995D02*
X0120619Y0123995D01*
X0119007Y0124593D02*
X0116958Y0124593D01*
X0117307Y0125192D02*
X0118657Y0125192D01*
X0118657Y0125790D02*
X0117307Y0125790D01*
X0117307Y0126389D02*
X0118657Y0126389D01*
X0118657Y0126987D02*
X0117307Y0126987D01*
X0117307Y0127586D02*
X0118657Y0127586D01*
X0118657Y0128184D02*
X0117307Y0128184D01*
X0117307Y0128783D02*
X0118657Y0128783D01*
X0118657Y0129381D02*
X0117307Y0129381D01*
X0117307Y0129980D02*
X0118657Y0129980D01*
X0118657Y0130578D02*
X0117307Y0130578D01*
X0117307Y0131177D02*
X0118657Y0131177D01*
X0118657Y0131775D02*
X0117307Y0131775D01*
X0117307Y0132374D02*
X0118657Y0132374D01*
X0118657Y0132972D02*
X0117307Y0132972D01*
X0117299Y0133571D02*
X0118666Y0133571D01*
X0124886Y0133858D02*
X0125181Y0133563D01*
X0125181Y0124943D01*
X0124654Y0124416D01*
X0123219Y0124416D01*
X0123219Y0105769D01*
X0123302Y0105851D01*
X0125115Y0105851D01*
X0126004Y0104962D01*
X0140174Y0104962D01*
X0140936Y0104201D01*
X0140936Y0104201D01*
X0143273Y0101864D01*
X0143273Y0131346D01*
X0143449Y0131521D01*
X0169832Y0131521D01*
X0169832Y0133858D01*
X0140634Y0133858D01*
X0140930Y0133563D01*
X0140930Y0124943D01*
X0140402Y0124416D01*
X0138606Y0124416D01*
X0138206Y0124016D01*
X0137888Y0123698D01*
X0137888Y0122441D01*
X0136606Y0121158D01*
X0134792Y0121158D01*
X0133510Y0122441D01*
X0133510Y0124254D01*
X0134405Y0125149D01*
X0134405Y0133563D01*
X0134701Y0133858D01*
X0132760Y0133858D01*
X0133055Y0133563D01*
X0133055Y0124943D01*
X0132528Y0124416D01*
X0130732Y0124416D01*
X0130332Y0124016D01*
X0130014Y0123698D01*
X0130014Y0122441D01*
X0128731Y0121158D01*
X0126918Y0121158D01*
X0125636Y0122441D01*
X0125636Y0124254D01*
X0126531Y0125149D01*
X0126531Y0133563D01*
X0126827Y0133858D01*
X0124886Y0133858D01*
X0125173Y0133571D02*
X0126540Y0133571D01*
X0126531Y0132972D02*
X0125181Y0132972D01*
X0125181Y0132374D02*
X0126531Y0132374D01*
X0126531Y0131775D02*
X0125181Y0131775D01*
X0125181Y0131177D02*
X0126531Y0131177D01*
X0126531Y0130578D02*
X0125181Y0130578D01*
X0125181Y0129980D02*
X0126531Y0129980D01*
X0126531Y0129381D02*
X0125181Y0129381D01*
X0125181Y0128783D02*
X0126531Y0128783D01*
X0126531Y0128184D02*
X0125181Y0128184D01*
X0125181Y0127586D02*
X0126531Y0127586D01*
X0126531Y0126987D02*
X0125181Y0126987D01*
X0125181Y0126389D02*
X0126531Y0126389D01*
X0126531Y0125790D02*
X0125181Y0125790D01*
X0125181Y0125192D02*
X0126531Y0125192D01*
X0125975Y0124593D02*
X0124832Y0124593D01*
X0125636Y0123995D02*
X0123219Y0123995D01*
X0123219Y0123396D02*
X0125636Y0123396D01*
X0125636Y0122798D02*
X0123219Y0122798D01*
X0123219Y0122199D02*
X0125877Y0122199D01*
X0126476Y0121601D02*
X0123219Y0121601D01*
X0123219Y0121002D02*
X0143273Y0121002D01*
X0143273Y0120404D02*
X0123219Y0120404D01*
X0123219Y0119805D02*
X0143273Y0119805D01*
X0143273Y0119207D02*
X0123219Y0119207D01*
X0123219Y0118608D02*
X0143273Y0118608D01*
X0143273Y0118010D02*
X0123219Y0118010D01*
X0123219Y0117411D02*
X0143273Y0117411D01*
X0143273Y0116813D02*
X0123219Y0116813D01*
X0123219Y0116214D02*
X0143273Y0116214D01*
X0143273Y0115616D02*
X0123219Y0115616D01*
X0123219Y0115017D02*
X0143273Y0115017D01*
X0143273Y0114419D02*
X0123219Y0114419D01*
X0123219Y0113820D02*
X0143273Y0113820D01*
X0143273Y0113222D02*
X0123219Y0113222D01*
X0123219Y0112623D02*
X0143273Y0112623D01*
X0143273Y0112025D02*
X0123219Y0112025D01*
X0123219Y0111426D02*
X0143273Y0111426D01*
X0143273Y0110828D02*
X0123219Y0110828D01*
X0123219Y0110229D02*
X0143273Y0110229D01*
X0143273Y0109631D02*
X0123219Y0109631D01*
X0123219Y0109032D02*
X0143273Y0109032D01*
X0143273Y0108434D02*
X0123219Y0108434D01*
X0123219Y0107835D02*
X0143273Y0107835D01*
X0143273Y0107237D02*
X0123219Y0107237D01*
X0123219Y0106638D02*
X0143273Y0106638D01*
X0143273Y0106039D02*
X0123219Y0106039D01*
X0125525Y0105441D02*
X0143273Y0105441D01*
X0143273Y0104842D02*
X0140294Y0104842D01*
X0140893Y0104244D02*
X0143273Y0104244D01*
X0143273Y0103645D02*
X0141491Y0103645D01*
X0142090Y0103047D02*
X0143273Y0103047D01*
X0143273Y0102448D02*
X0142688Y0102448D01*
X0140208Y0101251D02*
X0133331Y0101251D01*
X0133930Y0100653D02*
X0140807Y0100653D01*
X0141405Y0100054D02*
X0133951Y0100054D01*
X0133951Y0099456D02*
X0141873Y0099456D01*
X0141873Y0098857D02*
X0134468Y0098857D01*
X0135067Y0098259D02*
X0141873Y0098259D01*
X0141873Y0097660D02*
X0135665Y0097660D01*
X0136264Y0097062D02*
X0141873Y0097062D01*
X0141873Y0096463D02*
X0136862Y0096463D01*
X0137461Y0095865D02*
X0141873Y0095865D01*
X0141873Y0095266D02*
X0138059Y0095266D01*
X0138658Y0094668D02*
X0141873Y0094668D01*
X0141873Y0094069D02*
X0139256Y0094069D01*
X0139855Y0093471D02*
X0141873Y0093471D01*
X0141873Y0092872D02*
X0140453Y0092872D01*
X0141052Y0092274D02*
X0141873Y0092274D01*
X0141873Y0091675D02*
X0141650Y0091675D01*
X0139730Y0089880D02*
X0129125Y0089880D01*
X0129125Y0090478D02*
X0139170Y0090478D01*
X0138572Y0091077D02*
X0129125Y0091077D01*
X0129125Y0091675D02*
X0137973Y0091675D01*
X0137375Y0092274D02*
X0129125Y0092274D01*
X0129125Y0092872D02*
X0136776Y0092872D01*
X0136178Y0093471D02*
X0129125Y0093471D01*
X0129125Y0094069D02*
X0135579Y0094069D01*
X0134981Y0094668D02*
X0129125Y0094668D01*
X0129125Y0095266D02*
X0134382Y0095266D01*
X0133784Y0095865D02*
X0129125Y0095865D01*
X0128988Y0096463D02*
X0133185Y0096463D01*
X0132587Y0097062D02*
X0128390Y0097062D01*
X0127791Y0097660D02*
X0130731Y0097660D01*
X0130132Y0098259D02*
X0127193Y0098259D01*
X0126594Y0098857D02*
X0129573Y0098857D01*
X0129573Y0099456D02*
X0126397Y0099456D01*
X0126397Y0100054D02*
X0129573Y0100054D01*
X0129594Y0100653D02*
X0126376Y0100653D01*
X0125778Y0101251D02*
X0130192Y0101251D01*
X0130791Y0101850D02*
X0125492Y0101850D01*
X0132733Y0101850D02*
X0139610Y0101850D01*
X0139730Y0089281D02*
X0129125Y0089281D01*
X0129125Y0088683D02*
X0139730Y0088683D01*
X0139730Y0088084D02*
X0129125Y0088084D01*
X0129125Y0087486D02*
X0139730Y0087486D01*
X0139730Y0086887D02*
X0129125Y0086887D01*
X0129125Y0086289D02*
X0139730Y0086289D01*
X0139730Y0085690D02*
X0129125Y0085690D01*
X0129125Y0085092D02*
X0139730Y0085092D01*
X0139730Y0084493D02*
X0129125Y0084493D01*
X0129125Y0083895D02*
X0139730Y0083895D01*
X0139730Y0083296D02*
X0129125Y0083296D01*
X0129084Y0082698D02*
X0139730Y0082698D01*
X0139730Y0082099D02*
X0128862Y0082099D01*
X0129460Y0081501D02*
X0139730Y0081501D01*
X0139730Y0080902D02*
X0130014Y0080902D01*
X0130014Y0080303D02*
X0139730Y0080303D01*
X0139730Y0079705D02*
X0130014Y0079705D01*
X0130597Y0079106D02*
X0139730Y0079106D01*
X0139730Y0078508D02*
X0131093Y0078508D01*
X0131093Y0077909D02*
X0134409Y0077909D01*
X0133811Y0077311D02*
X0131093Y0077311D01*
X0131093Y0076712D02*
X0133510Y0076712D01*
X0133510Y0076114D02*
X0131093Y0076114D01*
X0131093Y0075515D02*
X0133510Y0075515D01*
X0133789Y0074917D02*
X0132646Y0074917D01*
X0133055Y0074318D02*
X0134388Y0074318D01*
X0134405Y0073720D02*
X0133055Y0073720D01*
X0133055Y0073121D02*
X0134405Y0073121D01*
X0134405Y0072523D02*
X0133055Y0072523D01*
X0133055Y0071924D02*
X0134405Y0071924D01*
X0134405Y0071326D02*
X0133055Y0071326D01*
X0133055Y0070727D02*
X0134405Y0070727D01*
X0134405Y0070129D02*
X0133055Y0070129D01*
X0133055Y0069530D02*
X0134405Y0069530D01*
X0134405Y0068932D02*
X0133055Y0068932D01*
X0133055Y0068333D02*
X0134405Y0068333D01*
X0134405Y0067735D02*
X0133055Y0067735D01*
X0133055Y0067136D02*
X0134405Y0067136D01*
X0134405Y0066538D02*
X0133055Y0066538D01*
X0133055Y0065939D02*
X0134405Y0065939D01*
X0138336Y0064742D02*
X0129125Y0064742D01*
X0129125Y0064144D02*
X0138336Y0064144D01*
X0138336Y0063545D02*
X0129125Y0063545D01*
X0129125Y0062947D02*
X0138336Y0062947D01*
X0138336Y0062348D02*
X0129125Y0062348D01*
X0129125Y0061750D02*
X0136236Y0061750D01*
X0136236Y0061151D02*
X0129125Y0061151D01*
X0129125Y0060553D02*
X0136236Y0060553D01*
X0136236Y0059954D02*
X0129125Y0059954D01*
X0129125Y0059356D02*
X0136236Y0059356D01*
X0136236Y0058757D02*
X0129125Y0058757D01*
X0129125Y0058159D02*
X0136236Y0058159D01*
X0136236Y0057560D02*
X0129125Y0057560D01*
X0129125Y0056962D02*
X0136236Y0056962D01*
X0136236Y0056363D02*
X0129718Y0056363D01*
X0130317Y0055765D02*
X0136236Y0055765D01*
X0136236Y0055166D02*
X0130915Y0055166D01*
X0131514Y0054568D02*
X0136236Y0054568D01*
X0136236Y0053969D02*
X0132112Y0053969D01*
X0132711Y0053370D02*
X0136236Y0053370D01*
X0136236Y0052772D02*
X0133309Y0052772D01*
X0133908Y0052173D02*
X0136236Y0052173D01*
X0136236Y0051575D02*
X0134506Y0051575D01*
X0135105Y0050976D02*
X0136305Y0050976D01*
X0135703Y0050378D02*
X0148858Y0050378D01*
X0148578Y0049779D02*
X0136302Y0049779D01*
X0136900Y0049181D02*
X0148578Y0049181D01*
X0148578Y0046188D02*
X0127288Y0046188D01*
X0127288Y0045590D02*
X0148578Y0045590D01*
X0149002Y0044991D02*
X0127288Y0044991D01*
X0127288Y0044393D02*
X0169832Y0044393D01*
X0169832Y0044991D02*
X0169639Y0044991D01*
X0164750Y0044991D02*
X0153891Y0044991D01*
X0154315Y0045590D02*
X0164326Y0045590D01*
X0164326Y0046188D02*
X0154315Y0046188D01*
X0154315Y0046787D02*
X0164326Y0046787D01*
X0164326Y0047385D02*
X0154315Y0047385D01*
X0154315Y0047984D02*
X0164326Y0047984D01*
X0164326Y0048582D02*
X0154315Y0048582D01*
X0154315Y0049181D02*
X0164326Y0049181D01*
X0164326Y0049779D02*
X0154315Y0049779D01*
X0154035Y0050378D02*
X0164606Y0050378D01*
X0164263Y0053943D02*
X0163736Y0054471D01*
X0163736Y0058366D01*
X0164263Y0058893D01*
X0164911Y0058893D01*
X0164911Y0061620D01*
X0164066Y0061620D01*
X0163539Y0062148D01*
X0163539Y0066437D01*
X0164066Y0066964D01*
X0167568Y0066964D01*
X0168095Y0066437D01*
X0168095Y0062148D01*
X0167568Y0061620D01*
X0167511Y0061620D01*
X0167511Y0058893D01*
X0168158Y0058893D01*
X0168685Y0058366D01*
X0168685Y0054471D01*
X0168158Y0053943D01*
X0164263Y0053943D01*
X0164237Y0053969D02*
X0162844Y0053969D01*
X0162920Y0054045D02*
X0163091Y0054342D01*
X0163180Y0054672D01*
X0163180Y0056118D01*
X0160605Y0056118D01*
X0160605Y0053543D01*
X0162051Y0053543D01*
X0162382Y0053632D01*
X0162678Y0053803D01*
X0162920Y0054045D01*
X0163152Y0054568D02*
X0163736Y0054568D01*
X0163736Y0055166D02*
X0163180Y0055166D01*
X0163180Y0055765D02*
X0163736Y0055765D01*
X0163736Y0056363D02*
X0160605Y0056363D01*
X0160605Y0056118D02*
X0160605Y0056718D01*
X0160005Y0056718D01*
X0160005Y0056118D01*
X0157430Y0056118D01*
X0157430Y0054672D01*
X0157519Y0054342D01*
X0157690Y0054045D01*
X0157932Y0053803D01*
X0158229Y0053632D01*
X0158559Y0053543D01*
X0160005Y0053543D01*
X0160005Y0056118D01*
X0160605Y0056118D01*
X0160605Y0055765D02*
X0160005Y0055765D01*
X0160005Y0056363D02*
X0143036Y0056363D01*
X0143036Y0055765D02*
X0157430Y0055765D01*
X0157430Y0055166D02*
X0143036Y0055166D01*
X0143036Y0054568D02*
X0157458Y0054568D01*
X0157766Y0053969D02*
X0143036Y0053969D01*
X0143036Y0053370D02*
X0169832Y0053370D01*
X0169832Y0052772D02*
X0143036Y0052772D01*
X0143036Y0052173D02*
X0169832Y0052173D01*
X0169832Y0051575D02*
X0143036Y0051575D01*
X0142967Y0050976D02*
X0169832Y0050976D01*
X0169832Y0050378D02*
X0169783Y0050378D01*
X0169832Y0053969D02*
X0168184Y0053969D01*
X0168685Y0054568D02*
X0169832Y0054568D01*
X0169832Y0055166D02*
X0168685Y0055166D01*
X0168685Y0055765D02*
X0169832Y0055765D01*
X0169832Y0056363D02*
X0168685Y0056363D01*
X0168685Y0056962D02*
X0169832Y0056962D01*
X0169832Y0057560D02*
X0168685Y0057560D01*
X0168685Y0058159D02*
X0169832Y0058159D01*
X0169832Y0058757D02*
X0168294Y0058757D01*
X0167511Y0059356D02*
X0169832Y0059356D01*
X0169832Y0059954D02*
X0167511Y0059954D01*
X0167511Y0060553D02*
X0169832Y0060553D01*
X0169832Y0061151D02*
X0167511Y0061151D01*
X0167697Y0061750D02*
X0169832Y0061750D01*
X0169832Y0062348D02*
X0168095Y0062348D01*
X0168095Y0062947D02*
X0169832Y0062947D01*
X0169832Y0063545D02*
X0168095Y0063545D01*
X0168095Y0064144D02*
X0169832Y0064144D01*
X0169832Y0064742D02*
X0168095Y0064742D01*
X0168095Y0065341D02*
X0169832Y0065341D01*
X0169832Y0065939D02*
X0168095Y0065939D01*
X0167994Y0066538D02*
X0169832Y0066538D01*
X0169832Y0067136D02*
X0145939Y0067136D01*
X0146537Y0066538D02*
X0158522Y0066538D01*
X0158421Y0065939D02*
X0147136Y0065939D01*
X0145340Y0067735D02*
X0169832Y0067735D01*
X0163640Y0066538D02*
X0162876Y0066538D01*
X0162977Y0065939D02*
X0163539Y0065939D01*
X0163539Y0065341D02*
X0162977Y0065341D01*
X0162977Y0064742D02*
X0163539Y0064742D01*
X0163539Y0064144D02*
X0162977Y0064144D01*
X0162977Y0063545D02*
X0163539Y0063545D01*
X0163539Y0062947D02*
X0162977Y0062947D01*
X0162977Y0062348D02*
X0163539Y0062348D01*
X0163937Y0061750D02*
X0162579Y0061750D01*
X0164911Y0061151D02*
X0143036Y0061151D01*
X0143036Y0060553D02*
X0164911Y0060553D01*
X0164911Y0059954D02*
X0143036Y0059954D01*
X0143036Y0059356D02*
X0164911Y0059356D01*
X0164127Y0058757D02*
X0162940Y0058757D01*
X0162920Y0058791D02*
X0162678Y0059033D01*
X0162382Y0059204D01*
X0162051Y0059293D01*
X0160605Y0059293D01*
X0160605Y0056718D01*
X0163180Y0056718D01*
X0163180Y0058164D01*
X0163091Y0058495D01*
X0162920Y0058791D01*
X0163180Y0058159D02*
X0163736Y0058159D01*
X0163736Y0057560D02*
X0163180Y0057560D01*
X0163180Y0056962D02*
X0163736Y0056962D01*
X0160605Y0056962D02*
X0160005Y0056962D01*
X0160005Y0056718D02*
X0160005Y0059293D01*
X0158559Y0059293D01*
X0158229Y0059204D01*
X0157932Y0059033D01*
X0157690Y0058791D01*
X0157519Y0058495D01*
X0157430Y0058164D01*
X0157430Y0056718D01*
X0160005Y0056718D01*
X0160005Y0057560D02*
X0160605Y0057560D01*
X0160605Y0058159D02*
X0160005Y0058159D01*
X0160005Y0058757D02*
X0160605Y0058757D01*
X0157670Y0058757D02*
X0143036Y0058757D01*
X0143036Y0058159D02*
X0157430Y0058159D01*
X0157430Y0057560D02*
X0143036Y0057560D01*
X0143036Y0056962D02*
X0157430Y0056962D01*
X0160005Y0055166D02*
X0160605Y0055166D01*
X0160605Y0054568D02*
X0160005Y0054568D01*
X0160005Y0053969D02*
X0160605Y0053969D01*
X0158819Y0061750D02*
X0143036Y0061750D01*
X0140936Y0062348D02*
X0158421Y0062348D01*
X0158421Y0062947D02*
X0140936Y0062947D01*
X0140936Y0063545D02*
X0145853Y0063545D01*
X0145254Y0064144D02*
X0141165Y0064144D01*
X0141764Y0064742D02*
X0144656Y0064742D01*
X0144057Y0065341D02*
X0142330Y0065341D01*
X0142330Y0065939D02*
X0143459Y0065939D01*
X0142860Y0066538D02*
X0142330Y0066538D01*
X0138685Y0065341D02*
X0128775Y0065341D01*
X0126295Y0064144D02*
X0123219Y0064144D01*
X0123219Y0064742D02*
X0125697Y0064742D01*
X0125098Y0065341D02*
X0123219Y0065341D01*
X0123219Y0063545D02*
X0126525Y0063545D01*
X0126525Y0062947D02*
X0123219Y0062947D01*
X0123219Y0062348D02*
X0126525Y0062348D01*
X0126525Y0061750D02*
X0123184Y0061750D01*
X0122585Y0061151D02*
X0126525Y0061151D01*
X0126525Y0060553D02*
X0121987Y0060553D01*
X0121388Y0059954D02*
X0126525Y0059954D01*
X0126525Y0059356D02*
X0120790Y0059356D01*
X0120191Y0058757D02*
X0126525Y0058757D01*
X0126525Y0058159D02*
X0119593Y0058159D01*
X0118994Y0057560D02*
X0126525Y0057560D01*
X0126525Y0056962D02*
X0118396Y0056962D01*
X0117797Y0056363D02*
X0126525Y0056363D01*
X0126640Y0055765D02*
X0117199Y0055765D01*
X0116600Y0055166D02*
X0127238Y0055166D01*
X0127837Y0054568D02*
X0116002Y0054568D01*
X0115403Y0053969D02*
X0128435Y0053969D01*
X0129034Y0053370D02*
X0114805Y0053370D01*
X0112386Y0052772D02*
X0129632Y0052772D01*
X0130231Y0052173D02*
X0112386Y0052173D01*
X0112345Y0051575D02*
X0130829Y0051575D01*
X0131428Y0050976D02*
X0112386Y0050976D01*
X0112386Y0050378D02*
X0120886Y0050378D01*
X0120488Y0049779D02*
X0113246Y0049779D01*
X0113844Y0049181D02*
X0120488Y0049181D01*
X0120488Y0048582D02*
X0114443Y0048582D01*
X0115041Y0047984D02*
X0120488Y0047984D01*
X0120488Y0047385D02*
X0115640Y0047385D01*
X0116238Y0046787D02*
X0120488Y0046787D01*
X0120488Y0046188D02*
X0116837Y0046188D01*
X0117435Y0045590D02*
X0120488Y0045590D01*
X0120488Y0044991D02*
X0117714Y0044991D01*
X0117714Y0044393D02*
X0120488Y0044393D01*
X0120488Y0043794D02*
X0117714Y0043794D01*
X0117714Y0043196D02*
X0120072Y0043196D01*
X0119474Y0042597D02*
X0117714Y0042597D01*
X0117714Y0041999D02*
X0118875Y0041999D01*
X0118277Y0041400D02*
X0117714Y0041400D01*
X0117678Y0040802D02*
X0117467Y0040802D01*
X0117080Y0040203D02*
X0116868Y0040203D01*
X0116481Y0039605D02*
X0116270Y0039605D01*
X0119276Y0036014D02*
X0169832Y0036014D01*
X0169832Y0036612D02*
X0149006Y0036612D01*
X0149604Y0037211D02*
X0169832Y0037211D01*
X0169832Y0037809D02*
X0150203Y0037809D01*
X0150801Y0038408D02*
X0169832Y0038408D01*
X0169832Y0035415D02*
X0119276Y0035415D01*
X0119276Y0034817D02*
X0169832Y0034817D01*
X0169832Y0034218D02*
X0119276Y0034218D01*
X0119276Y0033620D02*
X0169832Y0033620D01*
X0169832Y0033021D02*
X0119276Y0033021D01*
X0119276Y0032423D02*
X0169832Y0032423D01*
X0169832Y0031824D02*
X0119276Y0031824D01*
X0119251Y0031226D02*
X0169832Y0031226D01*
X0169832Y0030627D02*
X0119276Y0030627D01*
X0119276Y0030029D02*
X0169832Y0030029D01*
X0169832Y0029430D02*
X0119276Y0029430D01*
X0119086Y0028832D02*
X0169832Y0028832D01*
X0169832Y0028233D02*
X0119276Y0028233D01*
X0119276Y0027634D02*
X0169832Y0027634D01*
X0169832Y0027036D02*
X0119276Y0027036D01*
X0119196Y0026437D02*
X0169832Y0026437D01*
X0169832Y0025839D02*
X0119276Y0025839D01*
X0119276Y0025240D02*
X0169832Y0025240D01*
X0169832Y0024642D02*
X0119276Y0024642D01*
X0119276Y0024043D02*
X0169832Y0024043D01*
X0169832Y0023445D02*
X0119276Y0023445D01*
X0119276Y0022846D02*
X0169832Y0022846D01*
X0169832Y0022248D02*
X0119276Y0022248D01*
X0119276Y0021649D02*
X0169832Y0021649D01*
X0169832Y0021051D02*
X0119189Y0021051D01*
X0119276Y0020452D02*
X0169832Y0020452D01*
X0169832Y0019854D02*
X0119276Y0019854D01*
X0119276Y0019255D02*
X0169832Y0019255D01*
X0169832Y0018657D02*
X0141123Y0018657D01*
X0140543Y0019237D02*
X0138729Y0019237D01*
X0137447Y0017955D01*
X0137447Y0016141D01*
X0138336Y0015252D01*
X0138336Y0015074D01*
X0136763Y0015074D01*
X0136236Y0014547D01*
X0136236Y0003801D01*
X0136763Y0003274D01*
X0142509Y0003274D01*
X0143036Y0003801D01*
X0143036Y0014547D01*
X0142509Y0015074D01*
X0140936Y0015074D01*
X0140936Y0015252D01*
X0141825Y0016141D01*
X0141825Y0017955D01*
X0140543Y0019237D01*
X0141721Y0018058D02*
X0169832Y0018058D01*
X0169832Y0017460D02*
X0141825Y0017460D01*
X0141825Y0016861D02*
X0169832Y0016861D01*
X0169832Y0016263D02*
X0141825Y0016263D01*
X0141348Y0015664D02*
X0169832Y0015664D01*
X0169832Y0015066D02*
X0142517Y0015066D01*
X0143036Y0014467D02*
X0169832Y0014467D01*
X0169832Y0013869D02*
X0143036Y0013869D01*
X0143036Y0013270D02*
X0169832Y0013270D01*
X0169832Y0012672D02*
X0143036Y0012672D01*
X0143036Y0012073D02*
X0169832Y0012073D01*
X0169832Y0011475D02*
X0143036Y0011475D01*
X0143036Y0010876D02*
X0169832Y0010876D01*
X0169832Y0010278D02*
X0143036Y0010278D01*
X0143036Y0009679D02*
X0169832Y0009679D01*
X0169832Y0009081D02*
X0143036Y0009081D01*
X0143036Y0008482D02*
X0169832Y0008482D01*
X0169832Y0007884D02*
X0143036Y0007884D01*
X0143036Y0007285D02*
X0169832Y0007285D01*
X0169832Y0006687D02*
X0143036Y0006687D01*
X0143036Y0006088D02*
X0169832Y0006088D01*
X0169832Y0005490D02*
X0143036Y0005490D01*
X0143036Y0004891D02*
X0169832Y0004891D01*
X0169832Y0004293D02*
X0143036Y0004293D01*
X0142929Y0003694D02*
X0169832Y0003694D01*
X0169832Y0003096D02*
X0122873Y0003096D01*
X0122826Y0003048D02*
X0124108Y0004330D01*
X0124108Y0005134D01*
X0124425Y0005345D01*
X0124425Y0003801D01*
X0124952Y0003274D01*
X0130698Y0003274D01*
X0131225Y0003801D01*
X0131225Y0014547D01*
X0130698Y0015074D01*
X0124952Y0015074D01*
X0124425Y0014547D01*
X0124425Y0008470D01*
X0122839Y0007413D01*
X0122826Y0007426D01*
X0121013Y0007426D01*
X0119730Y0006144D01*
X0119730Y0004330D01*
X0121013Y0003048D01*
X0122826Y0003048D01*
X0123472Y0003694D02*
X0124532Y0003694D01*
X0124425Y0004293D02*
X0124071Y0004293D01*
X0124108Y0004891D02*
X0124425Y0004891D01*
X0123546Y0007884D02*
X0119414Y0007884D01*
X0119414Y0008482D02*
X0124425Y0008482D01*
X0124425Y0009081D02*
X0119414Y0009081D01*
X0119414Y0009679D02*
X0124425Y0009679D01*
X0124425Y0010278D02*
X0119414Y0010278D01*
X0119414Y0010876D02*
X0124425Y0010876D01*
X0124425Y0011475D02*
X0119414Y0011475D01*
X0119414Y0012073D02*
X0124425Y0012073D01*
X0124425Y0012672D02*
X0119414Y0012672D01*
X0119414Y0013270D02*
X0124425Y0013270D01*
X0124425Y0013869D02*
X0119414Y0013869D01*
X0119414Y0014467D02*
X0124425Y0014467D01*
X0124944Y0015066D02*
X0118895Y0015066D01*
X0118887Y0015074D02*
X0113141Y0015074D01*
X0112614Y0014547D01*
X0112614Y0010474D01*
X0109935Y0010474D01*
X0109046Y0011363D01*
X0107233Y0011363D01*
X0105951Y0010081D01*
X0105951Y0008267D01*
X0107233Y0006985D01*
X0109046Y0006985D01*
X0109935Y0007874D01*
X0112614Y0007874D01*
X0112614Y0003801D01*
X0113141Y0003274D01*
X0118887Y0003274D01*
X0119414Y0003801D01*
X0119414Y0014547D01*
X0118887Y0015074D01*
X0119092Y0018657D02*
X0138149Y0018657D01*
X0137550Y0018058D02*
X0114926Y0018058D01*
X0114327Y0017460D02*
X0137447Y0017460D01*
X0137447Y0016861D02*
X0113728Y0016861D01*
X0113130Y0016263D02*
X0137447Y0016263D01*
X0137924Y0015664D02*
X0112531Y0015664D01*
X0111933Y0015066D02*
X0113133Y0015066D01*
X0112614Y0014467D02*
X0111334Y0014467D01*
X0110736Y0013869D02*
X0112614Y0013869D01*
X0112614Y0013270D02*
X0110137Y0013270D01*
X0109539Y0012672D02*
X0112614Y0012672D01*
X0112614Y0012073D02*
X0108940Y0012073D01*
X0109533Y0010876D02*
X0112614Y0010876D01*
X0112614Y0011475D02*
X0095063Y0011475D01*
X0095063Y0010876D02*
X0106746Y0010876D01*
X0106148Y0010278D02*
X0095063Y0010278D01*
X0094760Y0009679D02*
X0105951Y0009679D01*
X0105951Y0009081D02*
X0076353Y0009081D01*
X0076353Y0008874D02*
X0076353Y0009474D01*
X0075753Y0009474D01*
X0075753Y0008874D01*
X0072588Y0008874D01*
X0072588Y0007034D01*
X0072676Y0006704D01*
X0072848Y0006407D01*
X0073090Y0006165D01*
X0073386Y0005994D01*
X0073717Y0005906D01*
X0075753Y0005906D01*
X0075753Y0008874D01*
X0076353Y0008874D01*
X0076353Y0005906D01*
X0078390Y0005906D01*
X0078720Y0005994D01*
X0079017Y0006165D01*
X0079259Y0006407D01*
X0079430Y0006704D01*
X0079518Y0007034D01*
X0079518Y0008874D01*
X0076353Y0008874D01*
X0076353Y0008482D02*
X0075753Y0008482D01*
X0075753Y0007884D02*
X0076353Y0007884D01*
X0076353Y0007285D02*
X0075753Y0007285D01*
X0075753Y0006687D02*
X0076353Y0006687D01*
X0076353Y0006088D02*
X0075753Y0006088D01*
X0073223Y0006088D02*
X0063567Y0006088D01*
X0063567Y0005490D02*
X0082043Y0005490D01*
X0082043Y0006088D02*
X0078883Y0006088D01*
X0079420Y0006687D02*
X0082043Y0006687D01*
X0082043Y0007285D02*
X0079518Y0007285D01*
X0079518Y0007884D02*
X0082043Y0007884D01*
X0082043Y0008169D02*
X0082043Y0004274D01*
X0082570Y0003746D01*
X0086465Y0003746D01*
X0086993Y0004274D01*
X0086993Y0004921D01*
X0089720Y0004921D01*
X0089720Y0004864D01*
X0090247Y0004337D01*
X0094536Y0004337D01*
X0095063Y0004864D01*
X0095063Y0008366D01*
X0094536Y0008893D01*
X0090247Y0008893D01*
X0089720Y0008366D01*
X0089720Y0007521D01*
X0086993Y0007521D01*
X0086993Y0008169D01*
X0086465Y0008696D01*
X0082570Y0008696D01*
X0082043Y0008169D01*
X0082356Y0008482D02*
X0079518Y0008482D01*
X0079518Y0009474D02*
X0079518Y0011314D01*
X0079430Y0011644D01*
X0079259Y0011941D01*
X0079017Y0012183D01*
X0078720Y0012354D01*
X0078390Y0012443D01*
X0076353Y0012443D01*
X0076353Y0009474D01*
X0079518Y0009474D01*
X0079518Y0009679D02*
X0081977Y0009679D01*
X0081903Y0009754D02*
X0082145Y0009512D01*
X0082441Y0009341D01*
X0082772Y0009252D01*
X0084218Y0009252D01*
X0084218Y0011827D01*
X0084818Y0011827D01*
X0084818Y0012427D01*
X0087393Y0012427D01*
X0087393Y0013873D01*
X0087304Y0014203D01*
X0087133Y0014500D01*
X0086891Y0014742D01*
X0086594Y0014913D01*
X0086264Y0015002D01*
X0084818Y0015002D01*
X0084818Y0012427D01*
X0084218Y0012427D01*
X0084218Y0015002D01*
X0082772Y0015002D01*
X0082441Y0014913D01*
X0082145Y0014742D01*
X0081903Y0014500D01*
X0081732Y0014203D01*
X0081643Y0013873D01*
X0081643Y0012427D01*
X0084218Y0012427D01*
X0084218Y0011827D01*
X0081643Y0011827D01*
X0081643Y0010381D01*
X0081732Y0010050D01*
X0081903Y0009754D01*
X0081671Y0010278D02*
X0079518Y0010278D01*
X0079518Y0010876D02*
X0081643Y0010876D01*
X0081643Y0011475D02*
X0079475Y0011475D01*
X0079126Y0012073D02*
X0084218Y0012073D01*
X0084218Y0011475D02*
X0084818Y0011475D01*
X0084818Y0011827D02*
X0084818Y0009252D01*
X0086264Y0009252D01*
X0086594Y0009341D01*
X0086891Y0009512D01*
X0087133Y0009754D01*
X0087304Y0010050D01*
X0087393Y0010381D01*
X0087393Y0011827D01*
X0084818Y0011827D01*
X0084818Y0012073D02*
X0089720Y0012073D01*
X0089720Y0011475D02*
X0087393Y0011475D01*
X0087393Y0010876D02*
X0089720Y0010876D01*
X0089720Y0010278D02*
X0087365Y0010278D01*
X0087058Y0009679D02*
X0090023Y0009679D01*
X0089837Y0008482D02*
X0086679Y0008482D01*
X0086993Y0007884D02*
X0089720Y0007884D01*
X0089720Y0004891D02*
X0086993Y0004891D01*
X0086993Y0004293D02*
X0112614Y0004293D01*
X0112614Y0004891D02*
X0095063Y0004891D01*
X0095063Y0005490D02*
X0112614Y0005490D01*
X0112614Y0006088D02*
X0095063Y0006088D01*
X0095063Y0006687D02*
X0112614Y0006687D01*
X0112614Y0007285D02*
X0109347Y0007285D01*
X0106933Y0007285D02*
X0095063Y0007285D01*
X0095063Y0007884D02*
X0106334Y0007884D01*
X0105951Y0008482D02*
X0094947Y0008482D01*
X0089720Y0012672D02*
X0087393Y0012672D01*
X0087393Y0013270D02*
X0089720Y0013270D01*
X0090105Y0013869D02*
X0087393Y0013869D01*
X0087152Y0014467D02*
X0107658Y0014467D01*
X0108256Y0015066D02*
X0089568Y0015066D01*
X0090167Y0015664D02*
X0108855Y0015664D01*
X0109453Y0016263D02*
X0090644Y0016263D01*
X0090644Y0016861D02*
X0110052Y0016861D01*
X0119414Y0007285D02*
X0120872Y0007285D01*
X0120273Y0006687D02*
X0119414Y0006687D01*
X0119414Y0006088D02*
X0119730Y0006088D01*
X0119730Y0005490D02*
X0119414Y0005490D01*
X0119414Y0004891D02*
X0119730Y0004891D01*
X0119768Y0004293D02*
X0119414Y0004293D01*
X0119307Y0003694D02*
X0120367Y0003694D01*
X0120965Y0003096D02*
X0014626Y0003096D01*
X0015539Y0003694D02*
X0022170Y0003694D01*
X0022063Y0004293D02*
X0016204Y0004293D01*
X0016868Y0004891D02*
X0022063Y0004891D01*
X0022063Y0005490D02*
X0017533Y0005490D01*
X0017815Y0006088D02*
X0022063Y0006088D01*
X0022063Y0006687D02*
X0018082Y0006687D01*
X0018348Y0007285D02*
X0022063Y0007285D01*
X0022063Y0007884D02*
X0018615Y0007884D01*
X0018881Y0008482D02*
X0022063Y0008482D01*
X0022063Y0009081D02*
X0018953Y0009081D01*
X0018953Y0009679D02*
X0022063Y0009679D01*
X0021955Y0010278D02*
X0018953Y0010278D01*
X0018953Y0010876D02*
X0021356Y0010876D01*
X0021204Y0011475D02*
X0018953Y0011475D01*
X0018950Y0012073D02*
X0021204Y0012073D01*
X0021204Y0012672D02*
X0018684Y0012672D01*
X0018417Y0013270D02*
X0021204Y0013270D01*
X0021204Y0013869D02*
X0018151Y0013869D01*
X0017884Y0014467D02*
X0021204Y0014467D01*
X0021204Y0015066D02*
X0017618Y0015066D01*
X0017040Y0015664D02*
X0021192Y0015664D01*
X0020715Y0016263D02*
X0016376Y0016263D01*
X0015711Y0016861D02*
X0020715Y0016861D01*
X0020715Y0017460D02*
X0015046Y0017460D01*
X0013261Y0018058D02*
X0020818Y0018058D01*
X0020809Y0018657D02*
X0003141Y0018657D01*
X0003141Y0019255D02*
X0020626Y0019255D01*
X0020626Y0019854D02*
X0003141Y0019854D01*
X0003141Y0020452D02*
X0020626Y0020452D01*
X0020626Y0021051D02*
X0003141Y0021051D01*
X0003141Y0021649D02*
X0020626Y0021649D01*
X0020626Y0022248D02*
X0003141Y0022248D01*
X0003141Y0022846D02*
X0020626Y0022846D01*
X0020599Y0023445D02*
X0003141Y0023445D01*
X0003141Y0024043D02*
X0020000Y0024043D01*
X0019826Y0024218D02*
X0019826Y0024218D01*
X0019402Y0024642D02*
X0003141Y0024642D01*
X0003141Y0025240D02*
X0018803Y0025240D01*
X0018205Y0025839D02*
X0003141Y0025839D01*
X0003141Y0026437D02*
X0017606Y0026437D01*
X0017007Y0027036D02*
X0003141Y0027036D01*
X0003141Y0027634D02*
X0016409Y0027634D01*
X0015889Y0028233D02*
X0003141Y0028233D01*
X0003141Y0028832D02*
X0015889Y0028832D01*
X0015889Y0029430D02*
X0003141Y0029430D01*
X0003141Y0030029D02*
X0015889Y0030029D01*
X0015889Y0030627D02*
X0003141Y0030627D01*
X0003141Y0031226D02*
X0015889Y0031226D01*
X0015889Y0031824D02*
X0003141Y0031824D01*
X0003141Y0032423D02*
X0015889Y0032423D01*
X0015889Y0033021D02*
X0003141Y0033021D01*
X0003141Y0033620D02*
X0015889Y0033620D01*
X0013952Y0034218D02*
X0013352Y0034218D01*
X0013352Y0033858D02*
X0011512Y0033858D01*
X0011181Y0033947D01*
X0010885Y0034118D01*
X0010643Y0034360D01*
X0010472Y0034656D01*
X0010383Y0034987D01*
X0010383Y0037024D01*
X0013352Y0037024D01*
X0013352Y0033858D01*
X0013352Y0034817D02*
X0013952Y0034817D01*
X0013952Y0035415D02*
X0013352Y0035415D01*
X0013352Y0036014D02*
X0013952Y0036014D01*
X0013952Y0036612D02*
X0013352Y0036612D01*
X0013352Y0037211D02*
X0009178Y0037211D01*
X0009178Y0037809D02*
X0010383Y0037809D01*
X0010383Y0038408D02*
X0009178Y0038408D01*
X0009178Y0039006D02*
X0010383Y0039006D01*
X0010383Y0039605D02*
X0009178Y0039605D01*
X0009178Y0040203D02*
X0010594Y0040203D01*
X0010861Y0041400D02*
X0009178Y0041400D01*
X0009178Y0040802D02*
X0014462Y0040802D01*
X0013952Y0040203D02*
X0013352Y0040203D01*
X0013352Y0039605D02*
X0013952Y0039605D01*
X0013952Y0039006D02*
X0013352Y0039006D01*
X0013352Y0038408D02*
X0013952Y0038408D01*
X0013952Y0037809D02*
X0013352Y0037809D01*
X0010383Y0036612D02*
X0009178Y0036612D01*
X0009178Y0036014D02*
X0010383Y0036014D01*
X0010383Y0035415D02*
X0009178Y0035415D01*
X0008697Y0034817D02*
X0010429Y0034817D01*
X0010785Y0034218D02*
X0003141Y0034218D01*
X0009510Y0041999D02*
X0010783Y0041999D01*
X0010783Y0042597D02*
X0010109Y0042597D01*
X0009939Y0046787D02*
X0011015Y0046787D01*
X0009340Y0047385D02*
X0022063Y0047385D01*
X0022063Y0046787D02*
X0016288Y0046787D01*
X0016520Y0046188D02*
X0022063Y0046188D01*
X0022063Y0045590D02*
X0016520Y0045590D01*
X0016520Y0044991D02*
X0022063Y0044991D01*
X0022063Y0044393D02*
X0016520Y0044393D01*
X0016520Y0043794D02*
X0022063Y0043794D01*
X0022063Y0043196D02*
X0016876Y0043196D01*
X0017475Y0042597D02*
X0038736Y0042597D01*
X0039003Y0041999D02*
X0018664Y0041999D01*
X0019263Y0041400D02*
X0045927Y0041400D01*
X0048194Y0041400D02*
X0048794Y0041400D01*
X0048794Y0041999D02*
X0048194Y0041999D01*
X0048194Y0042597D02*
X0048794Y0042597D01*
X0048794Y0043196D02*
X0048194Y0043196D01*
X0048194Y0043794D02*
X0048794Y0043794D01*
X0048794Y0045590D02*
X0048194Y0045590D01*
X0048194Y0046188D02*
X0048794Y0046188D01*
X0048794Y0046787D02*
X0048194Y0046787D01*
X0048194Y0047385D02*
X0048794Y0047385D01*
X0045300Y0047385D02*
X0044430Y0047385D01*
X0044867Y0046787D02*
X0045039Y0046787D01*
X0045029Y0046188D02*
X0044867Y0046188D01*
X0044867Y0045590D02*
X0045029Y0045590D01*
X0045029Y0044991D02*
X0044867Y0044991D01*
X0040896Y0040802D02*
X0019289Y0040802D01*
X0019289Y0040203D02*
X0040744Y0040203D01*
X0040744Y0039605D02*
X0019289Y0039605D01*
X0019289Y0039006D02*
X0020754Y0039006D01*
X0020626Y0038408D02*
X0019289Y0038408D01*
X0019289Y0037809D02*
X0020626Y0037809D01*
X0020626Y0037211D02*
X0019289Y0037211D01*
X0019289Y0036612D02*
X0020626Y0036612D01*
X0020626Y0036014D02*
X0019289Y0036014D01*
X0019289Y0035415D02*
X0020626Y0035415D01*
X0020626Y0034817D02*
X0019289Y0034817D01*
X0019289Y0034218D02*
X0020996Y0034218D01*
X0020518Y0033620D02*
X0019289Y0033620D01*
X0019289Y0033021D02*
X0020518Y0033021D01*
X0020518Y0032423D02*
X0019289Y0032423D01*
X0019289Y0031824D02*
X0020583Y0031824D01*
X0020848Y0031226D02*
X0019289Y0031226D01*
X0019289Y0030627D02*
X0020626Y0030627D01*
X0020626Y0030029D02*
X0019289Y0030029D01*
X0019422Y0029430D02*
X0020626Y0029430D01*
X0020626Y0028832D02*
X0020020Y0028832D01*
X0020619Y0028233D02*
X0020626Y0028233D01*
X0025181Y0028233D02*
X0025744Y0028233D01*
X0025744Y0027634D02*
X0025181Y0027634D01*
X0025181Y0027036D02*
X0025744Y0027036D01*
X0025744Y0028832D02*
X0025181Y0028832D01*
X0025181Y0029430D02*
X0025744Y0029430D01*
X0025744Y0030029D02*
X0025181Y0030029D01*
X0025181Y0030627D02*
X0025744Y0030627D01*
X0025966Y0031226D02*
X0024959Y0031226D01*
X0024830Y0031824D02*
X0030502Y0031824D01*
X0030078Y0031226D02*
X0031100Y0031226D01*
X0031699Y0030627D02*
X0030300Y0030627D01*
X0029903Y0032423D02*
X0024896Y0032423D01*
X0024896Y0033021D02*
X0029305Y0033021D01*
X0028706Y0033620D02*
X0024896Y0033620D01*
X0024811Y0034218D02*
X0026114Y0034218D01*
X0025744Y0034817D02*
X0025181Y0034817D01*
X0025181Y0035415D02*
X0025744Y0035415D01*
X0025744Y0036014D02*
X0025181Y0036014D01*
X0025181Y0036612D02*
X0025744Y0036612D01*
X0025744Y0037211D02*
X0025181Y0037211D01*
X0025181Y0037809D02*
X0025744Y0037809D01*
X0025744Y0038408D02*
X0025181Y0038408D01*
X0025053Y0039006D02*
X0025872Y0039006D01*
X0030171Y0039006D02*
X0040744Y0039006D01*
X0040744Y0038408D02*
X0040684Y0038408D01*
X0038356Y0038408D02*
X0038356Y0038408D01*
X0038356Y0038584D02*
X0038356Y0036733D01*
X0035383Y0036733D01*
X0038356Y0036733D01*
X0038356Y0036733D01*
X0038356Y0036733D01*
X0038356Y0038584D01*
X0038356Y0037809D02*
X0038356Y0037809D01*
X0038356Y0037211D02*
X0038356Y0037211D01*
X0036029Y0038408D02*
X0030300Y0038408D01*
X0030300Y0037809D02*
X0035485Y0037809D01*
X0035383Y0037211D02*
X0030300Y0037211D01*
X0030300Y0036612D02*
X0035383Y0036612D01*
X0035383Y0036014D02*
X0034483Y0036014D01*
X0035082Y0035415D02*
X0035625Y0035415D01*
X0035569Y0034817D02*
X0035783Y0034817D01*
X0035783Y0034218D02*
X0035569Y0034218D01*
X0032277Y0036014D02*
X0030300Y0036014D01*
X0030587Y0035415D02*
X0031679Y0035415D01*
X0031191Y0034817D02*
X0031186Y0034817D01*
X0028863Y0043196D02*
X0036415Y0043196D01*
X0035816Y0043794D02*
X0028863Y0043794D01*
X0028863Y0044393D02*
X0035218Y0044393D01*
X0034619Y0044991D02*
X0028863Y0044991D01*
X0028863Y0045590D02*
X0034021Y0045590D01*
X0033422Y0046188D02*
X0028863Y0046188D01*
X0028863Y0046787D02*
X0032824Y0046787D01*
X0032225Y0047385D02*
X0028863Y0047385D01*
X0028863Y0047984D02*
X0031627Y0047984D01*
X0031028Y0048582D02*
X0028863Y0048582D01*
X0028863Y0049181D02*
X0030430Y0049181D01*
X0029831Y0049779D02*
X0028863Y0049779D01*
X0028863Y0050378D02*
X0029233Y0050378D01*
X0032844Y0051575D02*
X0034799Y0051575D01*
X0037034Y0047385D02*
X0039173Y0047385D01*
X0038736Y0046787D02*
X0037632Y0046787D01*
X0047622Y0053370D02*
X0054600Y0053370D01*
X0054484Y0053969D02*
X0050172Y0053969D01*
X0050674Y0058757D02*
X0052341Y0058757D01*
X0052940Y0059356D02*
X0050674Y0059356D01*
X0050674Y0059954D02*
X0053538Y0059954D01*
X0054137Y0060553D02*
X0050674Y0060553D01*
X0050674Y0061151D02*
X0054735Y0061151D01*
X0055334Y0061750D02*
X0050674Y0061750D01*
X0050674Y0062348D02*
X0055659Y0062348D01*
X0054866Y0062947D02*
X0050674Y0062947D01*
X0050674Y0063545D02*
X0054484Y0063545D01*
X0054484Y0064144D02*
X0050674Y0064144D01*
X0050674Y0064742D02*
X0054484Y0064742D01*
X0054484Y0065341D02*
X0050674Y0065341D01*
X0050674Y0065939D02*
X0054484Y0065939D01*
X0054484Y0066538D02*
X0050376Y0066538D01*
X0047622Y0067136D02*
X0054484Y0067136D01*
X0054995Y0067735D02*
X0047622Y0067735D01*
X0047622Y0068333D02*
X0074909Y0068333D01*
X0078344Y0068333D02*
X0078887Y0068333D01*
X0078887Y0067735D02*
X0078344Y0067735D01*
X0078344Y0067136D02*
X0078887Y0067136D01*
X0078887Y0066538D02*
X0078344Y0066538D01*
X0078344Y0065939D02*
X0078927Y0065939D01*
X0078887Y0066089D02*
X0078976Y0065759D01*
X0079147Y0065462D01*
X0079389Y0065220D01*
X0079685Y0065049D01*
X0080016Y0064961D01*
X0082249Y0064961D01*
X0082249Y0069898D01*
X0078887Y0069898D01*
X0078887Y0066089D01*
X0079268Y0065341D02*
X0078344Y0065341D01*
X0078598Y0064742D02*
X0089714Y0064742D01*
X0089714Y0064144D02*
X0079196Y0064144D01*
X0079795Y0063545D02*
X0089714Y0063545D01*
X0089183Y0062947D02*
X0088292Y0062947D01*
X0088560Y0062348D02*
X0088736Y0062348D01*
X0088736Y0061750D02*
X0088574Y0061750D01*
X0088574Y0061151D02*
X0088736Y0061151D01*
X0088736Y0060553D02*
X0086196Y0060553D01*
X0086196Y0060055D02*
X0088574Y0060055D01*
X0088574Y0058412D01*
X0088485Y0058082D01*
X0088314Y0057785D01*
X0088072Y0057543D01*
X0087775Y0057372D01*
X0087445Y0057283D01*
X0086196Y0057283D01*
X0086196Y0060055D01*
X0086196Y0059954D02*
X0085596Y0059954D01*
X0085596Y0059356D02*
X0086196Y0059356D01*
X0086196Y0058757D02*
X0085596Y0058757D01*
X0085596Y0058159D02*
X0086196Y0058159D01*
X0086196Y0057560D02*
X0085780Y0057560D01*
X0086378Y0056962D02*
X0096019Y0056962D01*
X0096019Y0056363D02*
X0086977Y0056363D01*
X0087575Y0055765D02*
X0095904Y0055765D01*
X0095634Y0055166D02*
X0088174Y0055166D01*
X0088772Y0054568D02*
X0091382Y0054568D01*
X0090784Y0053969D02*
X0089371Y0053969D01*
X0089969Y0053370D02*
X0090203Y0053370D01*
X0093401Y0054568D02*
X0095619Y0054568D01*
X0095619Y0053969D02*
X0093999Y0053969D01*
X0093983Y0050976D02*
X0095619Y0050976D01*
X0095619Y0050378D02*
X0093384Y0050378D01*
X0093561Y0049779D02*
X0095638Y0049779D01*
X0095920Y0049181D02*
X0094159Y0049181D01*
X0094758Y0048582D02*
X0096019Y0048582D01*
X0096019Y0047984D02*
X0095356Y0047984D01*
X0095955Y0047385D02*
X0096313Y0047385D01*
X0103165Y0049181D02*
X0103272Y0049181D01*
X0105134Y0049181D02*
X0105240Y0049181D01*
X0112786Y0055765D02*
X0113522Y0055765D01*
X0114120Y0056363D02*
X0112786Y0056363D01*
X0112786Y0056962D02*
X0114719Y0056962D01*
X0115317Y0057560D02*
X0112612Y0057560D01*
X0111850Y0058159D02*
X0115916Y0058159D01*
X0109911Y0058159D02*
X0109911Y0058159D01*
X0109911Y0058210D02*
X0109911Y0056418D01*
X0109911Y0056418D01*
X0109911Y0058210D01*
X0109911Y0057560D02*
X0109911Y0057560D01*
X0109911Y0056962D02*
X0109911Y0056962D01*
X0107294Y0061151D02*
X0093292Y0061151D01*
X0093292Y0060553D02*
X0101257Y0060553D01*
X0100842Y0059954D02*
X0093292Y0059954D01*
X0093292Y0059356D02*
X0100842Y0059356D01*
X0100842Y0058757D02*
X0093292Y0058757D01*
X0093240Y0058159D02*
X0100842Y0058159D01*
X0100842Y0057560D02*
X0100692Y0057560D01*
X0103211Y0060553D02*
X0103226Y0060553D01*
X0105180Y0060553D02*
X0105194Y0060553D01*
X0106988Y0062348D02*
X0101338Y0062348D01*
X0101936Y0062947D02*
X0106390Y0062947D01*
X0105951Y0063545D02*
X0102455Y0063545D01*
X0102455Y0064144D02*
X0105951Y0064144D01*
X0105951Y0064742D02*
X0102455Y0064742D01*
X0102959Y0065341D02*
X0106093Y0065341D01*
X0096296Y0057560D02*
X0088089Y0057560D01*
X0088506Y0058159D02*
X0088788Y0058159D01*
X0088736Y0058757D02*
X0088574Y0058757D01*
X0088574Y0059356D02*
X0088736Y0059356D01*
X0088736Y0059954D02*
X0088574Y0059954D01*
X0086196Y0061151D02*
X0085596Y0061151D01*
X0085596Y0060553D02*
X0082787Y0060553D01*
X0083218Y0061151D02*
X0082189Y0061151D01*
X0081590Y0061750D02*
X0083218Y0061750D01*
X0083231Y0062348D02*
X0080992Y0062348D01*
X0080393Y0062947D02*
X0083499Y0062947D01*
X0085596Y0062947D02*
X0086196Y0062947D01*
X0086196Y0062348D02*
X0085596Y0062348D01*
X0085596Y0061750D02*
X0086196Y0061750D01*
X0085413Y0065049D02*
X0085710Y0065220D01*
X0085952Y0065462D01*
X0086123Y0065759D01*
X0086211Y0066089D01*
X0086211Y0069898D01*
X0082849Y0069898D01*
X0082849Y0070498D01*
X0082249Y0070498D01*
X0082249Y0069898D01*
X0082849Y0069898D01*
X0082849Y0064961D01*
X0085083Y0064961D01*
X0085413Y0065049D01*
X0085830Y0065341D02*
X0089714Y0065341D01*
X0087161Y0065939D02*
X0086171Y0065939D01*
X0086211Y0066538D02*
X0087161Y0066538D01*
X0087161Y0067136D02*
X0086211Y0067136D01*
X0086211Y0067735D02*
X0087161Y0067735D01*
X0087161Y0068333D02*
X0086211Y0068333D01*
X0086211Y0068932D02*
X0087161Y0068932D01*
X0087161Y0069530D02*
X0086211Y0069530D01*
X0086211Y0070498D02*
X0082849Y0070498D01*
X0082849Y0075435D01*
X0085083Y0075435D01*
X0085413Y0075346D01*
X0085710Y0075175D01*
X0085952Y0074933D01*
X0086123Y0074636D01*
X0086211Y0074306D01*
X0086211Y0070498D01*
X0086211Y0070727D02*
X0087161Y0070727D01*
X0087161Y0070129D02*
X0082849Y0070129D01*
X0082849Y0070727D02*
X0082249Y0070727D01*
X0082249Y0070129D02*
X0078344Y0070129D01*
X0078344Y0070727D02*
X0078887Y0070727D01*
X0078887Y0071326D02*
X0078344Y0071326D01*
X0078344Y0071924D02*
X0078887Y0071924D01*
X0078887Y0069530D02*
X0078344Y0069530D01*
X0078344Y0068932D02*
X0078887Y0068932D01*
X0082249Y0068932D02*
X0082849Y0068932D01*
X0082849Y0069530D02*
X0082249Y0069530D01*
X0082249Y0068333D02*
X0082849Y0068333D01*
X0082849Y0067735D02*
X0082249Y0067735D01*
X0082249Y0067136D02*
X0082849Y0067136D01*
X0082849Y0066538D02*
X0082249Y0066538D01*
X0082249Y0065939D02*
X0082849Y0065939D01*
X0082849Y0065341D02*
X0082249Y0065341D01*
X0082249Y0071326D02*
X0082849Y0071326D01*
X0082849Y0071924D02*
X0082249Y0071924D01*
X0082249Y0072523D02*
X0082849Y0072523D01*
X0082849Y0073121D02*
X0082249Y0073121D01*
X0082249Y0073720D02*
X0082849Y0073720D01*
X0082849Y0074318D02*
X0082249Y0074318D01*
X0082249Y0074917D02*
X0082849Y0074917D01*
X0085961Y0074917D02*
X0087570Y0074917D01*
X0087161Y0074318D02*
X0086208Y0074318D01*
X0086211Y0073720D02*
X0087161Y0073720D01*
X0087161Y0073121D02*
X0086211Y0073121D01*
X0086211Y0072523D02*
X0087161Y0072523D01*
X0087161Y0071924D02*
X0086211Y0071924D01*
X0086211Y0071326D02*
X0087161Y0071326D01*
X0081570Y0056962D02*
X0075208Y0056962D01*
X0075378Y0056363D02*
X0082169Y0056363D01*
X0082767Y0055765D02*
X0075378Y0055765D01*
X0075378Y0055166D02*
X0083366Y0055166D01*
X0083964Y0054568D02*
X0075378Y0054568D01*
X0075616Y0053969D02*
X0084563Y0053969D01*
X0085161Y0053370D02*
X0076215Y0053370D01*
X0076813Y0052772D02*
X0085760Y0052772D01*
X0083256Y0050378D02*
X0079207Y0050378D01*
X0079806Y0049779D02*
X0082657Y0049779D01*
X0082329Y0049181D02*
X0080404Y0049181D01*
X0081003Y0048582D02*
X0082329Y0048582D01*
X0082329Y0047984D02*
X0081601Y0047984D01*
X0081881Y0047385D02*
X0082581Y0047385D01*
X0083179Y0046787D02*
X0081881Y0046787D01*
X0081881Y0046188D02*
X0083218Y0046188D01*
X0083218Y0045590D02*
X0081881Y0045590D01*
X0081881Y0044991D02*
X0083218Y0044991D01*
X0083218Y0044393D02*
X0081881Y0044393D01*
X0081881Y0043794D02*
X0083218Y0043794D01*
X0083218Y0043196D02*
X0081881Y0043196D01*
X0081881Y0042597D02*
X0083218Y0042597D01*
X0083218Y0041999D02*
X0081881Y0041999D01*
X0081881Y0041400D02*
X0083218Y0041400D01*
X0083218Y0040802D02*
X0081881Y0040802D01*
X0081881Y0040203D02*
X0083218Y0040203D01*
X0083218Y0039605D02*
X0081881Y0039605D01*
X0081881Y0039006D02*
X0083218Y0039006D01*
X0083218Y0038408D02*
X0081881Y0038408D01*
X0081881Y0037809D02*
X0083218Y0037809D01*
X0083218Y0037211D02*
X0081881Y0037211D01*
X0081881Y0036612D02*
X0083218Y0036612D01*
X0082660Y0036014D02*
X0081881Y0036014D01*
X0081881Y0035415D02*
X0082061Y0035415D01*
X0079281Y0035415D02*
X0077635Y0035415D01*
X0077923Y0034817D02*
X0079281Y0034817D01*
X0079281Y0034218D02*
X0077944Y0034218D01*
X0077944Y0033620D02*
X0079281Y0033620D01*
X0079281Y0033021D02*
X0075566Y0033021D01*
X0075566Y0032496D02*
X0077944Y0032496D01*
X0077944Y0030853D01*
X0077855Y0030523D01*
X0077684Y0030226D01*
X0077442Y0029984D01*
X0077145Y0029813D01*
X0076815Y0029724D01*
X0075566Y0029724D01*
X0075566Y0032496D01*
X0075566Y0032423D02*
X0074966Y0032423D01*
X0074966Y0033021D02*
X0072426Y0033021D01*
X0072426Y0032423D02*
X0072588Y0032423D01*
X0072588Y0033620D02*
X0072426Y0033620D01*
X0072426Y0034218D02*
X0072588Y0034218D01*
X0072609Y0034817D02*
X0072426Y0034817D01*
X0072897Y0035415D02*
X0071951Y0035415D01*
X0073174Y0037809D02*
X0064386Y0037809D01*
X0065014Y0038408D02*
X0067988Y0038408D01*
X0067870Y0039006D02*
X0065623Y0039006D01*
X0063757Y0037211D02*
X0079281Y0037211D01*
X0079281Y0037809D02*
X0077357Y0037809D01*
X0077858Y0038408D02*
X0079281Y0038408D01*
X0079281Y0039006D02*
X0077944Y0039006D01*
X0077944Y0039605D02*
X0079281Y0039605D01*
X0079281Y0040203D02*
X0077944Y0040203D01*
X0075566Y0040203D02*
X0074966Y0040203D01*
X0074966Y0039605D02*
X0075566Y0039605D01*
X0075566Y0039006D02*
X0074966Y0039006D01*
X0074966Y0038408D02*
X0075566Y0038408D01*
X0075566Y0037809D02*
X0074966Y0037809D01*
X0072673Y0038408D02*
X0072308Y0038408D01*
X0072426Y0039006D02*
X0072588Y0039006D01*
X0072588Y0039605D02*
X0072426Y0039605D01*
X0072426Y0040203D02*
X0072588Y0040203D01*
X0074966Y0041999D02*
X0075566Y0041999D01*
X0075566Y0042597D02*
X0074966Y0042597D01*
X0074966Y0043196D02*
X0075566Y0043196D01*
X0081119Y0048466D02*
X0081119Y0048466D01*
X0067870Y0041999D02*
X0066622Y0041999D01*
X0063129Y0036612D02*
X0079281Y0036612D01*
X0079281Y0036014D02*
X0062500Y0036014D01*
X0061872Y0035415D02*
X0068344Y0035415D01*
X0067870Y0034817D02*
X0061244Y0034817D01*
X0060615Y0034218D02*
X0067870Y0034218D01*
X0067870Y0031226D02*
X0060368Y0031226D01*
X0060966Y0030627D02*
X0067894Y0030627D01*
X0068397Y0027594D02*
X0067870Y0027066D01*
X0067870Y0022778D01*
X0068362Y0022285D01*
X0066628Y0022285D01*
X0065739Y0023174D01*
X0063926Y0023174D01*
X0062644Y0021892D01*
X0062644Y0020078D01*
X0063926Y0018796D01*
X0065739Y0018796D01*
X0066628Y0019685D01*
X0068362Y0019685D01*
X0067870Y0019192D01*
X0067870Y0014904D01*
X0068397Y0014376D01*
X0068848Y0014376D01*
X0068848Y0012043D01*
X0066822Y0012043D01*
X0066295Y0011515D01*
X0066295Y0006833D01*
X0066822Y0006306D01*
X0071898Y0006306D01*
X0072426Y0006833D01*
X0072426Y0011515D01*
X0071898Y0012043D01*
X0071448Y0012043D01*
X0071448Y0014376D01*
X0071898Y0014376D01*
X0072426Y0014904D01*
X0072426Y0019192D01*
X0071898Y0019720D01*
X0071448Y0019720D01*
X0071448Y0022250D01*
X0071898Y0022250D01*
X0072426Y0022778D01*
X0072426Y0027066D01*
X0071898Y0027594D01*
X0068397Y0027594D01*
X0067870Y0027036D02*
X0062196Y0027036D01*
X0062196Y0027634D02*
X0073471Y0027634D01*
X0072988Y0027036D02*
X0072426Y0027036D01*
X0072426Y0026437D02*
X0072988Y0026437D01*
X0072988Y0025839D02*
X0072426Y0025839D01*
X0072426Y0025240D02*
X0072988Y0025240D01*
X0072988Y0024642D02*
X0072426Y0024642D01*
X0072426Y0024043D02*
X0072988Y0024043D01*
X0072988Y0023445D02*
X0072426Y0023445D01*
X0072426Y0022846D02*
X0072988Y0022846D01*
X0071448Y0022248D02*
X0081416Y0022248D01*
X0080929Y0022846D02*
X0077544Y0022846D01*
X0077544Y0023445D02*
X0080929Y0023445D01*
X0080929Y0024043D02*
X0077604Y0024043D01*
X0078202Y0024642D02*
X0080929Y0024642D01*
X0080929Y0025240D02*
X0078801Y0025240D01*
X0079399Y0025839D02*
X0080929Y0025839D01*
X0080929Y0026437D02*
X0079998Y0026437D01*
X0080596Y0027036D02*
X0080929Y0027036D01*
X0078116Y0028233D02*
X0076549Y0028233D01*
X0076566Y0027634D02*
X0077518Y0027634D01*
X0078715Y0028832D02*
X0075951Y0028832D01*
X0075352Y0029430D02*
X0079281Y0029430D01*
X0079281Y0030029D02*
X0077486Y0030029D01*
X0077883Y0030627D02*
X0079281Y0030627D01*
X0079281Y0031226D02*
X0077944Y0031226D01*
X0077944Y0031824D02*
X0079281Y0031824D01*
X0079281Y0032423D02*
X0077944Y0032423D01*
X0075566Y0031824D02*
X0074966Y0031824D01*
X0074966Y0031226D02*
X0075566Y0031226D01*
X0075566Y0030627D02*
X0074966Y0030627D01*
X0074966Y0030029D02*
X0075566Y0030029D01*
X0072872Y0028233D02*
X0062196Y0028233D01*
X0062196Y0028832D02*
X0072274Y0028832D01*
X0071675Y0029430D02*
X0062163Y0029430D01*
X0061565Y0030029D02*
X0071077Y0030029D01*
X0074966Y0033620D02*
X0075566Y0033620D01*
X0075566Y0034218D02*
X0074966Y0034218D01*
X0074966Y0034817D02*
X0075566Y0034817D01*
X0075566Y0035415D02*
X0074966Y0035415D01*
X0067870Y0026437D02*
X0062196Y0026437D01*
X0062196Y0025839D02*
X0067870Y0025839D01*
X0067870Y0025240D02*
X0062196Y0025240D01*
X0062196Y0024642D02*
X0067870Y0024642D01*
X0067870Y0024043D02*
X0062196Y0024043D01*
X0062196Y0023445D02*
X0067870Y0023445D01*
X0067870Y0022846D02*
X0066067Y0022846D01*
X0063598Y0022846D02*
X0062196Y0022846D01*
X0062196Y0022248D02*
X0063000Y0022248D01*
X0062644Y0021649D02*
X0062196Y0021649D01*
X0062196Y0021051D02*
X0062644Y0021051D01*
X0062644Y0020452D02*
X0062196Y0020452D01*
X0062196Y0019854D02*
X0062868Y0019854D01*
X0063467Y0019255D02*
X0062196Y0019255D01*
X0062196Y0018657D02*
X0067870Y0018657D01*
X0067870Y0018058D02*
X0062196Y0018058D01*
X0062196Y0017460D02*
X0067870Y0017460D01*
X0067870Y0016861D02*
X0062196Y0016861D01*
X0062196Y0016263D02*
X0067870Y0016263D01*
X0067870Y0015664D02*
X0062196Y0015664D01*
X0062196Y0015066D02*
X0067870Y0015066D01*
X0068306Y0014467D02*
X0062196Y0014467D01*
X0063182Y0013869D02*
X0068848Y0013869D01*
X0068848Y0013270D02*
X0063567Y0013270D01*
X0063567Y0012672D02*
X0068848Y0012672D01*
X0068848Y0012073D02*
X0063567Y0012073D01*
X0063567Y0011475D02*
X0066295Y0011475D01*
X0066295Y0010876D02*
X0063567Y0010876D01*
X0063567Y0010278D02*
X0066295Y0010278D01*
X0066295Y0009679D02*
X0063264Y0009679D01*
X0063451Y0008482D02*
X0066295Y0008482D01*
X0066295Y0007884D02*
X0063567Y0007884D01*
X0063567Y0007285D02*
X0066295Y0007285D01*
X0066441Y0006687D02*
X0063567Y0006687D01*
X0063567Y0004891D02*
X0082043Y0004891D01*
X0082043Y0004293D02*
X0040674Y0004293D01*
X0040674Y0004891D02*
X0042476Y0004891D01*
X0040566Y0003694D02*
X0112721Y0003694D01*
X0130706Y0015066D02*
X0136755Y0015066D01*
X0136236Y0014467D02*
X0131225Y0014467D01*
X0131225Y0013869D02*
X0136236Y0013869D01*
X0136236Y0013270D02*
X0131225Y0013270D01*
X0131225Y0012672D02*
X0136236Y0012672D01*
X0136236Y0012073D02*
X0131225Y0012073D01*
X0131225Y0011475D02*
X0136236Y0011475D01*
X0136236Y0010876D02*
X0131225Y0010876D01*
X0131225Y0010278D02*
X0136236Y0010278D01*
X0136236Y0009679D02*
X0131225Y0009679D01*
X0131225Y0009081D02*
X0136236Y0009081D01*
X0136236Y0008482D02*
X0131225Y0008482D01*
X0131225Y0007884D02*
X0136236Y0007884D01*
X0136236Y0007285D02*
X0131225Y0007285D01*
X0131225Y0006687D02*
X0136236Y0006687D01*
X0136236Y0006088D02*
X0131225Y0006088D01*
X0131225Y0005490D02*
X0136236Y0005490D01*
X0136236Y0004891D02*
X0131225Y0004891D01*
X0131225Y0004293D02*
X0136236Y0004293D01*
X0136343Y0003694D02*
X0131118Y0003694D01*
X0093224Y0018058D02*
X0093135Y0018058D01*
X0093135Y0018657D02*
X0093224Y0018657D01*
X0093224Y0019255D02*
X0093135Y0019255D01*
X0093135Y0019854D02*
X0093224Y0019854D01*
X0086266Y0016861D02*
X0075566Y0016861D01*
X0075566Y0016748D02*
X0075566Y0017348D01*
X0077944Y0017348D01*
X0077944Y0018991D01*
X0077855Y0019321D01*
X0077684Y0019618D01*
X0077442Y0019860D01*
X0077145Y0020031D01*
X0076815Y0020120D01*
X0075566Y0020120D01*
X0075566Y0017348D01*
X0074966Y0017348D01*
X0074966Y0020120D01*
X0073717Y0020120D01*
X0073386Y0020031D01*
X0073090Y0019860D01*
X0072848Y0019618D01*
X0072676Y0019321D01*
X0072588Y0018991D01*
X0072588Y0017348D01*
X0074966Y0017348D01*
X0074966Y0016748D01*
X0075566Y0016748D01*
X0077944Y0016748D01*
X0077944Y0015105D01*
X0077855Y0014775D01*
X0077684Y0014478D01*
X0077442Y0014236D01*
X0077145Y0014065D01*
X0076815Y0013976D01*
X0075566Y0013976D01*
X0075566Y0016748D01*
X0075566Y0016263D02*
X0074966Y0016263D01*
X0074966Y0016748D02*
X0074966Y0013976D01*
X0073717Y0013976D01*
X0073386Y0014065D01*
X0073090Y0014236D01*
X0072848Y0014478D01*
X0072676Y0014775D01*
X0072588Y0015105D01*
X0072588Y0016748D01*
X0074966Y0016748D01*
X0074966Y0016861D02*
X0072426Y0016861D01*
X0072426Y0016263D02*
X0072588Y0016263D01*
X0072588Y0015664D02*
X0072426Y0015664D01*
X0072426Y0015066D02*
X0072598Y0015066D01*
X0072858Y0014467D02*
X0071989Y0014467D01*
X0071448Y0013869D02*
X0081643Y0013869D01*
X0081643Y0013270D02*
X0071448Y0013270D01*
X0071448Y0012672D02*
X0081643Y0012672D01*
X0081884Y0014467D02*
X0077673Y0014467D01*
X0077933Y0015066D02*
X0087341Y0015066D01*
X0086743Y0015664D02*
X0077944Y0015664D01*
X0077944Y0016263D02*
X0086266Y0016263D01*
X0086204Y0017460D02*
X0077944Y0017460D01*
X0077944Y0018058D02*
X0085606Y0018058D01*
X0085007Y0018657D02*
X0077944Y0018657D01*
X0077873Y0019255D02*
X0084409Y0019255D01*
X0083810Y0019854D02*
X0077448Y0019854D01*
X0075566Y0019854D02*
X0074966Y0019854D01*
X0074966Y0019255D02*
X0075566Y0019255D01*
X0075566Y0018657D02*
X0074966Y0018657D01*
X0074966Y0018058D02*
X0075566Y0018058D01*
X0075566Y0017460D02*
X0074966Y0017460D01*
X0074966Y0015664D02*
X0075566Y0015664D01*
X0075566Y0015066D02*
X0074966Y0015066D01*
X0074966Y0014467D02*
X0075566Y0014467D01*
X0075753Y0012443D02*
X0073717Y0012443D01*
X0073386Y0012354D01*
X0073090Y0012183D01*
X0072848Y0011941D01*
X0072676Y0011644D01*
X0072588Y0011314D01*
X0072588Y0009474D01*
X0075753Y0009474D01*
X0075753Y0012443D01*
X0075753Y0012073D02*
X0076353Y0012073D01*
X0076353Y0011475D02*
X0075753Y0011475D01*
X0075753Y0010876D02*
X0076353Y0010876D01*
X0076353Y0010278D02*
X0075753Y0010278D01*
X0075753Y0009679D02*
X0076353Y0009679D01*
X0075753Y0009081D02*
X0072426Y0009081D01*
X0072426Y0009679D02*
X0072588Y0009679D01*
X0072588Y0010278D02*
X0072426Y0010278D01*
X0072426Y0010876D02*
X0072588Y0010876D01*
X0072631Y0011475D02*
X0072426Y0011475D01*
X0072980Y0012073D02*
X0071448Y0012073D01*
X0072426Y0008482D02*
X0072588Y0008482D01*
X0072588Y0007884D02*
X0072426Y0007884D01*
X0072426Y0007285D02*
X0072588Y0007285D01*
X0072686Y0006687D02*
X0072279Y0006687D01*
X0066295Y0009081D02*
X0040674Y0009081D01*
X0040674Y0009679D02*
X0042779Y0009679D01*
X0042476Y0010278D02*
X0040674Y0010278D01*
X0040674Y0010876D02*
X0042476Y0010876D01*
X0042476Y0011475D02*
X0040674Y0011475D01*
X0040674Y0012073D02*
X0042476Y0012073D01*
X0042476Y0012672D02*
X0040674Y0012672D01*
X0040674Y0013270D02*
X0042476Y0013270D01*
X0042861Y0013869D02*
X0040674Y0013869D01*
X0041034Y0014467D02*
X0049354Y0014467D01*
X0049536Y0014649D02*
X0049536Y0014649D01*
X0049952Y0015066D02*
X0041633Y0015066D01*
X0039218Y0017460D02*
X0036153Y0017460D01*
X0036751Y0018058D02*
X0039817Y0018058D01*
X0040415Y0018657D02*
X0037350Y0018657D01*
X0037948Y0019255D02*
X0040344Y0019255D01*
X0040344Y0019854D02*
X0038547Y0019854D01*
X0039145Y0020452D02*
X0040344Y0020452D01*
X0040344Y0021051D02*
X0039744Y0021051D01*
X0044046Y0021051D02*
X0046249Y0021051D01*
X0046249Y0021649D02*
X0044046Y0021649D01*
X0044046Y0022248D02*
X0046249Y0022248D01*
X0045448Y0022846D02*
X0044848Y0022846D01*
X0044848Y0023445D02*
X0045448Y0023445D01*
X0045448Y0024043D02*
X0044848Y0024043D01*
X0044848Y0024642D02*
X0045448Y0024642D01*
X0045448Y0025240D02*
X0044848Y0025240D01*
X0044848Y0025839D02*
X0045448Y0025839D01*
X0045448Y0026437D02*
X0044848Y0026437D01*
X0044848Y0027036D02*
X0045448Y0027036D01*
X0045448Y0027634D02*
X0044848Y0027634D01*
X0044848Y0028233D02*
X0045448Y0028233D01*
X0045448Y0028832D02*
X0044848Y0028832D01*
X0044848Y0029430D02*
X0045448Y0029430D01*
X0045448Y0030627D02*
X0044848Y0030627D01*
X0044848Y0031226D02*
X0045448Y0031226D01*
X0045448Y0031824D02*
X0044848Y0031824D01*
X0044848Y0032423D02*
X0045448Y0032423D01*
X0045448Y0033021D02*
X0044848Y0033021D01*
X0044848Y0033620D02*
X0045448Y0033620D01*
X0045448Y0034218D02*
X0044848Y0034218D01*
X0044848Y0034817D02*
X0045448Y0034817D01*
X0045448Y0035415D02*
X0044848Y0035415D01*
X0044848Y0036014D02*
X0045448Y0036014D01*
X0045448Y0036612D02*
X0044848Y0036612D01*
X0053541Y0021051D02*
X0054505Y0021051D01*
X0053541Y0020452D02*
X0056796Y0020452D01*
X0056796Y0019854D02*
X0053479Y0019854D01*
X0052881Y0019255D02*
X0056726Y0019255D01*
X0056127Y0018657D02*
X0052282Y0018657D01*
X0051684Y0018058D02*
X0055529Y0018058D01*
X0054930Y0017460D02*
X0051085Y0017460D01*
X0050487Y0016861D02*
X0054331Y0016861D01*
X0053733Y0016263D02*
X0049888Y0016263D01*
X0049290Y0015664D02*
X0053134Y0015664D01*
X0055799Y0012672D02*
X0058224Y0012672D01*
X0058224Y0013270D02*
X0056397Y0013270D01*
X0056996Y0013869D02*
X0058609Y0013869D01*
X0059596Y0014467D02*
X0057594Y0014467D01*
X0058193Y0015066D02*
X0059596Y0015066D01*
X0059596Y0015664D02*
X0058791Y0015664D01*
X0059390Y0016263D02*
X0059596Y0016263D01*
X0058224Y0012073D02*
X0055693Y0012073D01*
X0055693Y0011475D02*
X0058224Y0011475D01*
X0058224Y0010876D02*
X0055693Y0010876D01*
X0055693Y0010278D02*
X0058224Y0010278D01*
X0058527Y0009679D02*
X0055390Y0009679D01*
X0055577Y0008482D02*
X0058340Y0008482D01*
X0058224Y0004891D02*
X0055693Y0004891D01*
X0050350Y0004891D02*
X0047819Y0004891D01*
X0047703Y0008482D02*
X0050466Y0008482D01*
X0050653Y0009679D02*
X0047516Y0009679D01*
X0047819Y0010278D02*
X0050350Y0010278D01*
X0050350Y0010876D02*
X0049439Y0010876D01*
X0049758Y0011195D02*
X0049758Y0011195D01*
X0050038Y0011475D02*
X0050350Y0011475D01*
X0048157Y0013270D02*
X0047819Y0013270D01*
X0047434Y0013869D02*
X0048755Y0013869D01*
X0046249Y0019255D02*
X0044046Y0019255D01*
X0044046Y0019854D02*
X0046249Y0019854D01*
X0046249Y0020452D02*
X0044046Y0020452D01*
X0038620Y0016861D02*
X0035554Y0016861D01*
X0034956Y0016263D02*
X0038021Y0016263D01*
X0037423Y0015664D02*
X0034357Y0015664D01*
X0034393Y0015066D02*
X0033758Y0015066D01*
X0033874Y0014467D02*
X0033160Y0014467D01*
X0032561Y0013869D02*
X0033874Y0013869D01*
X0033874Y0013270D02*
X0031963Y0013270D01*
X0031364Y0012672D02*
X0033874Y0012672D01*
X0033874Y0012073D02*
X0030766Y0012073D01*
X0030167Y0011475D02*
X0033874Y0011475D01*
X0033874Y0010876D02*
X0029569Y0010876D01*
X0028970Y0010278D02*
X0033874Y0010278D01*
X0033874Y0009679D02*
X0028863Y0009679D01*
X0028863Y0009081D02*
X0033874Y0009081D01*
X0033874Y0008482D02*
X0028863Y0008482D01*
X0028863Y0007884D02*
X0033874Y0007884D01*
X0033874Y0007285D02*
X0028863Y0007285D01*
X0028863Y0006687D02*
X0033874Y0006687D01*
X0033874Y0006088D02*
X0028863Y0006088D01*
X0028863Y0005490D02*
X0033874Y0005490D01*
X0033874Y0004891D02*
X0028863Y0004891D01*
X0028863Y0004293D02*
X0033874Y0004293D01*
X0033981Y0003694D02*
X0028755Y0003694D01*
X0040674Y0008482D02*
X0042592Y0008482D01*
X0066199Y0019255D02*
X0067933Y0019255D01*
X0071448Y0019854D02*
X0073083Y0019854D01*
X0072659Y0019255D02*
X0072363Y0019255D01*
X0072426Y0018657D02*
X0072588Y0018657D01*
X0072588Y0018058D02*
X0072426Y0018058D01*
X0072426Y0017460D02*
X0072588Y0017460D01*
X0071448Y0020452D02*
X0083212Y0020452D01*
X0082613Y0021051D02*
X0071448Y0021051D01*
X0071448Y0021649D02*
X0082015Y0021649D01*
X0084218Y0014467D02*
X0084818Y0014467D01*
X0084818Y0013869D02*
X0084218Y0013869D01*
X0084218Y0013270D02*
X0084818Y0013270D01*
X0084818Y0012672D02*
X0084218Y0012672D01*
X0084218Y0010876D02*
X0084818Y0010876D01*
X0084818Y0010278D02*
X0084218Y0010278D01*
X0084218Y0009679D02*
X0084818Y0009679D01*
X0127288Y0039605D02*
X0147190Y0039605D01*
X0147788Y0040203D02*
X0127288Y0040203D01*
X0127288Y0040802D02*
X0148387Y0040802D01*
X0148578Y0041400D02*
X0127288Y0041400D01*
X0127288Y0041999D02*
X0148578Y0041999D01*
X0148578Y0042597D02*
X0127288Y0042597D01*
X0127288Y0043196D02*
X0148578Y0043196D01*
X0148578Y0043794D02*
X0127288Y0043794D01*
X0127288Y0046787D02*
X0135618Y0046787D01*
X0135019Y0047385D02*
X0127288Y0047385D01*
X0127288Y0047984D02*
X0134421Y0047984D01*
X0133822Y0048582D02*
X0127288Y0048582D01*
X0127288Y0049181D02*
X0133224Y0049181D01*
X0132625Y0049779D02*
X0127288Y0049779D01*
X0126890Y0050378D02*
X0132027Y0050378D01*
X0154315Y0043794D02*
X0164326Y0043794D01*
X0164326Y0043196D02*
X0154315Y0043196D01*
X0154315Y0042597D02*
X0164326Y0042597D01*
X0164326Y0041999D02*
X0154315Y0041999D01*
X0154315Y0041400D02*
X0164326Y0041400D01*
X0164326Y0040802D02*
X0154315Y0040802D01*
X0154315Y0040203D02*
X0164326Y0040203D01*
X0164326Y0039605D02*
X0154315Y0039605D01*
X0154205Y0039006D02*
X0164436Y0039006D01*
X0139730Y0075515D02*
X0138125Y0075515D01*
X0137888Y0076114D02*
X0139730Y0076114D01*
X0139730Y0076712D02*
X0137888Y0076712D01*
X0137587Y0077311D02*
X0139730Y0077311D01*
X0139730Y0077909D02*
X0136988Y0077909D01*
X0137048Y0121601D02*
X0143273Y0121601D01*
X0143273Y0122199D02*
X0137647Y0122199D01*
X0137888Y0122798D02*
X0143273Y0122798D01*
X0143273Y0123396D02*
X0137888Y0123396D01*
X0138185Y0123995D02*
X0143273Y0123995D01*
X0143273Y0124593D02*
X0140580Y0124593D01*
X0140930Y0125192D02*
X0143273Y0125192D01*
X0143273Y0125790D02*
X0140930Y0125790D01*
X0140930Y0126389D02*
X0143273Y0126389D01*
X0143273Y0126987D02*
X0140930Y0126987D01*
X0140930Y0127586D02*
X0143273Y0127586D01*
X0143273Y0128184D02*
X0140930Y0128184D01*
X0140930Y0128783D02*
X0143273Y0128783D01*
X0143273Y0129381D02*
X0140930Y0129381D01*
X0140930Y0129980D02*
X0143273Y0129980D01*
X0143273Y0130578D02*
X0140930Y0130578D01*
X0140930Y0131177D02*
X0143273Y0131177D01*
X0140930Y0131775D02*
X0169832Y0131775D01*
X0169832Y0132374D02*
X0140930Y0132374D01*
X0140930Y0132972D02*
X0169832Y0132972D01*
X0169832Y0133571D02*
X0140921Y0133571D01*
X0134414Y0133571D02*
X0133047Y0133571D01*
X0133055Y0132972D02*
X0134405Y0132972D01*
X0134405Y0132374D02*
X0133055Y0132374D01*
X0133055Y0131775D02*
X0134405Y0131775D01*
X0134405Y0131177D02*
X0133055Y0131177D01*
X0133055Y0130578D02*
X0134405Y0130578D01*
X0134405Y0129980D02*
X0133055Y0129980D01*
X0133055Y0129381D02*
X0134405Y0129381D01*
X0134405Y0128783D02*
X0133055Y0128783D01*
X0133055Y0128184D02*
X0134405Y0128184D01*
X0134405Y0127586D02*
X0133055Y0127586D01*
X0133055Y0126987D02*
X0134405Y0126987D01*
X0134405Y0126389D02*
X0133055Y0126389D01*
X0133055Y0125790D02*
X0134405Y0125790D01*
X0134405Y0125192D02*
X0133055Y0125192D01*
X0132706Y0124593D02*
X0133849Y0124593D01*
X0133510Y0123995D02*
X0130311Y0123995D01*
X0130014Y0123396D02*
X0133510Y0123396D01*
X0133510Y0122798D02*
X0130014Y0122798D01*
X0129773Y0122199D02*
X0133751Y0122199D01*
X0134350Y0121601D02*
X0129174Y0121601D01*
X0054484Y0073121D02*
X0051746Y0073121D01*
X0050385Y0072523D02*
X0054484Y0072523D01*
X0054484Y0071924D02*
X0050385Y0071924D01*
X0050083Y0071326D02*
X0054484Y0071326D01*
X0054484Y0070727D02*
X0049484Y0070727D01*
X0048886Y0070129D02*
X0054484Y0070129D01*
X0054484Y0069530D02*
X0048287Y0069530D01*
X0047689Y0068932D02*
X0054786Y0068932D01*
X0041511Y0065341D02*
X0040911Y0065341D01*
X0040911Y0064742D02*
X0041511Y0064742D01*
X0041511Y0064144D02*
X0040911Y0064144D01*
X0040911Y0063545D02*
X0041511Y0063545D01*
X0041511Y0062947D02*
X0040911Y0062947D01*
X0040911Y0062348D02*
X0041511Y0062348D01*
X0041511Y0061750D02*
X0040911Y0061750D01*
X0024500Y0057560D02*
X0013567Y0057560D01*
X0013567Y0056962D02*
X0024500Y0056962D01*
X0024500Y0056363D02*
X0013567Y0056363D01*
X0013567Y0055765D02*
X0024500Y0055765D01*
X0024500Y0055166D02*
X0013567Y0055166D01*
X0013567Y0054568D02*
X0024500Y0054568D01*
X0022115Y0053969D02*
X0013567Y0053969D01*
X0013567Y0053370D02*
X0022063Y0053370D01*
X0022063Y0052772D02*
X0013567Y0052772D01*
X0013567Y0052173D02*
X0022063Y0052173D01*
X0022063Y0051575D02*
X0013567Y0051575D01*
X0013567Y0050976D02*
X0022063Y0050976D01*
X0022063Y0050378D02*
X0013567Y0050378D01*
X0013538Y0049779D02*
X0022063Y0049779D01*
X0022063Y0049181D02*
X0007545Y0049181D01*
X0008143Y0048582D02*
X0022063Y0048582D01*
X0022063Y0047984D02*
X0008742Y0047984D01*
X0008124Y0018058D02*
X0003141Y0018058D01*
X0003141Y0017460D02*
X0007087Y0017460D01*
X0006051Y0016861D02*
X0003141Y0016861D01*
X0003141Y0016263D02*
X0005229Y0016263D01*
X0004794Y0015664D02*
X0003141Y0015664D01*
X0003141Y0015066D02*
X0004359Y0015066D01*
X0003924Y0014467D02*
X0003141Y0014467D01*
X0003141Y0013869D02*
X0003489Y0013869D01*
X0003278Y0013270D02*
X0003141Y0013270D01*
X0003141Y0012672D02*
X0003151Y0012672D01*
X0024482Y0080902D02*
X0025848Y0080902D01*
X0025468Y0081501D02*
X0023884Y0081501D01*
X0023285Y0082099D02*
X0025468Y0082099D01*
X0025468Y0082698D02*
X0022687Y0082698D01*
X0031205Y0082698D02*
X0032948Y0082698D01*
X0032948Y0083296D02*
X0031205Y0083296D01*
X0031205Y0083895D02*
X0032948Y0083895D01*
X0032948Y0084493D02*
X0031600Y0084493D01*
X0032198Y0085092D02*
X0032948Y0085092D01*
X0032948Y0085690D02*
X0032797Y0085690D01*
X0041272Y0090478D02*
X0044641Y0090478D01*
X0044705Y0089880D02*
X0041871Y0089880D01*
X0041646Y0090105D02*
X0041646Y0090105D01*
X0048537Y0101251D02*
X0049632Y0101251D01*
X0049366Y0101850D02*
X0048804Y0101850D01*
X0048804Y0102448D02*
X0049366Y0102448D01*
X0049366Y0103047D02*
X0048804Y0103047D01*
X0048804Y0103645D02*
X0049366Y0103645D01*
X0049366Y0104244D02*
X0048804Y0104244D01*
X0048804Y0104842D02*
X0049366Y0104842D01*
X0049366Y0105441D02*
X0048804Y0105441D01*
X0048571Y0106039D02*
X0049599Y0106039D01*
X0049725Y0109032D02*
X0048444Y0109032D01*
X0048804Y0109631D02*
X0049366Y0109631D01*
X0049366Y0110229D02*
X0048804Y0110229D01*
X0048804Y0110828D02*
X0049366Y0110828D01*
X0049366Y0111426D02*
X0048804Y0111426D01*
X0048804Y0112025D02*
X0049366Y0112025D01*
X0049366Y0112623D02*
X0048804Y0112623D01*
X0048804Y0113222D02*
X0049366Y0113222D01*
X0049505Y0113820D02*
X0048664Y0113820D01*
X0044480Y0106039D02*
X0043433Y0106039D01*
X0042834Y0105441D02*
X0044248Y0105441D01*
D39*
X0052136Y0022954D02*
X0051841Y0022658D01*
X0051841Y0020985D01*
M02*
