%
M48
M72
T01C0.01378
T02C0.03346
T03C0.09843
%
T01
X80040Y17048
X80040Y24922
X80040Y36733
X80040Y40670
X80040Y48544
X80040Y52481
X64292Y60355
X52481Y72166
X80040Y80040
X80040Y87914
X91851Y87914
X98150Y92639
X98150Y95394
X91851Y99725
X87914Y99725
X77230Y104789
X68229Y99725
X58614Y104703
X68229Y111536
X64292Y115473
X64292Y127284
X87914Y131221
X95788Y127284
X103237Y123772
X109304Y127284
X115473Y127284
X115473Y123347
X111536Y111536
X103662Y111536
X87914Y119410
X127284Y107599
X131221Y107599
X128859Y99725
X118623Y92245
X127284Y87914
X124922Y83977
X129070Y81542
X120198Y82796
X103662Y80040
X87914Y64292
X111536Y62914
X119410Y62914
X135158Y56418
X139095Y56418
X131221Y48544
X131221Y40670
X139095Y32796
X123347Y24922
X123347Y20985
X119410Y40670
X111536Y40670
X107599Y40670
X99725Y40670
X99725Y48544
X139095Y83977
X174528Y99725
X182402Y99725
X184371Y105631
X194213Y111536
X194213Y119410
X186339Y123347
X177540Y120527
X166654Y119410
X150906Y131221
X146969Y131221
X146969Y135158
X150906Y135158
X146957Y116784
X186339Y131221
X198150Y127284
X194534Y99725
X194213Y95788
X178465Y64292
X186339Y60355
X158780Y36733
X190276Y24922
X198150Y24922
T02
X61143Y68623
X61143Y83583
T03
X56418Y17048
X213898Y17048
X213898Y135158
X56418Y135158
M30
