M48
;GenerationSoftware,Autodesk,EAGLE,9.0.0*%
;CreationDate,2018-06-03T13:08:20Z*%
FMAT,2
ICI,OFF
METRIC,TZ,000.000
T2C0.350
T1C1.000
%
G90
M71
T1
X26730Y4000
X26730Y32000
X29270Y32000
X29270Y4000
T2
X37000Y32000
X36000Y32000
X21000Y34000
X16500Y34000
X12000Y29000
X22000Y25000
X24600Y9000
X23200Y12500
X24000Y3000
X18700Y9500
X16800Y9500
X15400Y9000
X20000Y9000
X15200Y10900
X11000Y9000
X11000Y11000
X22000Y3000
X40000Y27000
X32000Y32000
X23200Y13500
X11000Y13000
X28000Y33000
X28000Y32000
X42000Y27000
X36000Y34000
X17000Y27000
X23000Y29000
X23000Y30000
X11000Y7000
X28000Y31000
X31000Y34000
X24500Y12500
X16800Y8500
X28000Y15300
X11000Y3000
X11000Y5000
X14000Y21000
X13000Y23000
X11000Y14900
X11000Y22000
X12000Y25000
X15600Y25100
X11000Y20000
X20000Y20000
X25000Y28000
X18700Y8500
X16000Y21000
X17000Y25000
X16500Y33000
X24500Y13500
X36000Y19000
X25000Y3000
X31000Y4800
X32000Y3000
X32000Y2200
X34000Y2000
X40000Y5000
X42000Y2000
X39200Y5000
X35800Y1600
X36000Y5000
X37000Y5000
X23000Y1000
X24000Y1000
X28000Y4000
X31000Y8000
X29600Y6700
X2000Y28000
X14000Y5000
X15000Y27000
X21683Y9317
X38500Y3000
X30300Y8500
X8000Y2000
X21500Y31050
X28000Y28000
X11000Y16000
X33489Y25489
X31500Y25500
X2000Y8000
X32000Y27873
X29500Y25500
X32000Y33000
X22000Y23000
X18000Y23000
X15959Y3709
X35500Y25500
X17000Y19000
X33000Y18000
X21000Y13653
X17000Y14650
X40000Y7033
X37500Y2500
X34000Y4333
X34000Y2954
X13000Y31500
X23000Y28000
X2000Y22000
X27000Y9000
M30