%
M48
M72
T01C0.01378
%
T01
X52481Y36733
X87914Y32796
X87914Y24922
X95788Y19607
X103662Y20001
X87914Y17048
X110749Y38702
X105237Y40670
X110749Y42639
X104056Y48150
X118229Y42639
X123347Y40670
X118229Y38702
X141457Y40670
X148347Y36733
X156745Y30760
X165276Y36733
X166654Y24922
X166654Y13111
X186339Y28859
X198150Y32796
X206024Y24922
X154843Y65473
X141064Y58387
X141064Y54450
X135946Y54450
X135946Y58387
X123347Y62914
X115473Y62914
X95788Y68229
X87914Y63898
X87914Y56418
X87914Y48544
X87914Y40670
X135158Y17442
X140276Y17442
X186339Y80040
X170591Y91851
X170591Y98077
X168623Y105631
X176453Y105587
X184371Y105631
X168229Y117048
X186339Y127284
X194213Y123347
X194213Y119410
X198150Y131221
X198150Y139095
X190276Y139095
X170591Y135158
X166654Y135158
X166654Y131221
X170591Y131221
X146969Y115473
X135158Y115473
X135158Y123347
X135158Y127284
X132402Y131418
X127284Y139095
X109568Y139095
X109568Y135158
X95788Y132599
X108781Y115276
X111536Y111536
X111536Y103662
X119410Y99725
X111536Y95788
X103662Y87914
X95788Y95788
X87914Y91851
X87914Y83977
X102087Y104056
X91851Y107599
X91851Y111536
X52481Y111536
X52481Y91851
X131221Y103662
X137127Y105631
X217835Y111536
M30
