G75*
%MOIN*%
%OFA0B0*%
%FSLAX25Y25*%
%IPPOS*%
%LPD*%
%AMOC8*
5,1,8,0,0,1.08239X$1,22.5*
%
%ADD10C,0.13843*%
%ADD11R,0.06000X0.06000*%
%ADD12C,0.06000*%
%ADD13C,0.02578*%
%ADD14C,0.00800*%
%ADD15C,0.01600*%
%ADD16C,0.00600*%
%ADD17C,0.01200*%
D10*
X0056418Y0017048D03*
X0213898Y0017048D03*
X0213898Y0135158D03*
X0056418Y0135158D03*
D11*
X0060355Y0119410D03*
X0060355Y0111536D03*
D12*
X0068229Y0111536D03*
X0076103Y0111536D03*
X0083977Y0111536D03*
X0091851Y0111536D03*
X0091851Y0119410D03*
X0083977Y0119410D03*
X0076103Y0119410D03*
X0068229Y0119410D03*
D13*
X0064292Y0127284D03*
X0052481Y0123347D03*
X0052481Y0115473D03*
X0083977Y0131221D03*
X0087914Y0131221D03*
X0099725Y0135158D03*
X0111536Y0127284D03*
X0115473Y0127284D03*
X0115473Y0123347D03*
X0112718Y0115276D03*
X0115473Y0111536D03*
X0119410Y0107599D03*
X0123347Y0107599D03*
X0131221Y0107599D03*
X0128859Y0099725D03*
X0118623Y0092245D03*
X0127284Y0087914D03*
X0124922Y0083977D03*
X0120434Y0083032D03*
X0129070Y0081542D03*
X0139095Y0083977D03*
X0162717Y0080040D03*
X0178465Y0064292D03*
X0186339Y0060355D03*
X0188308Y0054450D03*
X0158780Y0036733D03*
X0150906Y0032796D03*
X0146969Y0024922D03*
X0131221Y0040670D03*
X0127284Y0044607D03*
X0131221Y0048544D03*
X0119410Y0040670D03*
X0111536Y0040670D03*
X0107599Y0040670D03*
X0099725Y0040670D03*
X0099725Y0048544D03*
X0080040Y0048544D03*
X0080040Y0040670D03*
X0080040Y0032796D03*
X0080040Y0024922D03*
X0080040Y0017048D03*
X0091851Y0013111D03*
X0123347Y0020985D03*
X0123347Y0024922D03*
X0135158Y0056418D03*
X0139095Y0056418D03*
X0119410Y0062914D03*
X0111536Y0062914D03*
X0099725Y0080040D03*
X0099725Y0083977D03*
X0107599Y0083977D03*
X0100513Y0090670D03*
X0098150Y0095394D03*
X0115473Y0103662D03*
X0107599Y0111536D03*
X0101262Y0123347D03*
X0146957Y0116784D03*
X0166654Y0119410D03*
X0177540Y0120527D03*
X0178465Y0127284D03*
X0186339Y0123347D03*
X0194213Y0119410D03*
X0194213Y0111536D03*
X0184371Y0105631D03*
X0182402Y0099725D03*
X0174528Y0099725D03*
X0194534Y0099725D03*
X0194213Y0095788D03*
X0186339Y0080040D03*
X0217835Y0119410D03*
X0198150Y0127284D03*
X0186339Y0131221D03*
X0172581Y0133510D03*
X0150906Y0135158D03*
X0146969Y0135158D03*
X0146969Y0131221D03*
X0150906Y0131221D03*
X0080040Y0083977D03*
X0080040Y0060355D03*
X0068229Y0044607D03*
X0056418Y0040670D03*
X0182402Y0024922D03*
X0190276Y0024922D03*
X0198150Y0024922D03*
D14*
X0158780Y0036733D02*
X0080040Y0036733D01*
X0060355Y0056418D01*
X0060355Y0111536D01*
X0068229Y0111536D02*
X0068229Y0064292D01*
X0080040Y0052481D01*
X0186339Y0052481D01*
X0188308Y0054450D01*
X0194213Y0060355D01*
X0194213Y0095788D01*
X0194534Y0099725D02*
X0182402Y0099725D01*
X0178465Y0095788D01*
X0103662Y0095788D01*
X0091851Y0107599D01*
X0091851Y0111536D01*
X0083977Y0111536D02*
X0083977Y0109494D01*
X0095788Y0097683D01*
X0099099Y0097683D01*
X0132490Y0064292D01*
X0178465Y0064292D01*
X0186339Y0060355D02*
X0127197Y0060355D01*
X0095861Y0091690D01*
X0095861Y0091778D01*
X0076103Y0111536D01*
X0101262Y0123347D02*
X0107599Y0123347D01*
X0111536Y0127284D01*
X0131221Y0107599D02*
X0128411Y0104789D01*
X0131221Y0107599D02*
X0146969Y0123347D01*
X0174719Y0123347D01*
X0177540Y0120527D01*
X0192093Y0120527D01*
X0193265Y0121699D01*
X0215546Y0121699D01*
X0217835Y0119410D01*
X0194213Y0111536D02*
X0193513Y0111536D01*
X0185319Y0103342D01*
X0178145Y0103342D01*
X0174528Y0099725D01*
X0184371Y0105631D02*
X0173217Y0116784D01*
X0146957Y0116784D01*
X0172581Y0133510D02*
X0178465Y0127626D01*
X0178465Y0127284D01*
X0135158Y0087914D02*
X0127284Y0087914D01*
X0127284Y0087822D01*
X0135158Y0087914D02*
X0139095Y0083977D01*
X0129070Y0081542D02*
X0121452Y0081542D01*
X0120434Y0082560D01*
X0120434Y0083032D01*
X0150906Y0032796D02*
X0080040Y0032796D01*
D15*
X0105530Y0115276D02*
X0112718Y0115276D01*
X0105530Y0115276D02*
X0098573Y0122233D01*
X0098573Y0124500D01*
X0087914Y0135158D01*
X0083977Y0135158D01*
X0080040Y0131221D01*
X0080040Y0123347D01*
X0083977Y0119410D01*
X0091851Y0119410D02*
X0083977Y0127284D01*
X0083977Y0131221D01*
D16*
X0045907Y0063471D02*
X0045907Y0013932D01*
X0053302Y0006537D01*
X0122384Y0006537D01*
X0130559Y0014711D01*
X0139758Y0014711D01*
X0140695Y0013774D01*
X0147932Y0006537D01*
X0217014Y0006537D01*
X0224409Y0013932D01*
X0224409Y0044307D01*
X0198026Y0044307D01*
X0197850Y0044483D01*
X0197850Y0107723D01*
X0198026Y0107899D01*
X0224409Y0107899D01*
X0224409Y0138274D01*
X0217014Y0145669D01*
X0147932Y0145669D01*
X0139758Y0137495D01*
X0130559Y0137495D01*
X0129621Y0138433D01*
X0122384Y0145669D01*
X0053302Y0145669D01*
X0045907Y0138274D01*
X0045907Y0088735D01*
X0053981Y0080661D01*
X0053981Y0071545D01*
X0045907Y0063471D01*
X0045907Y0063293D02*
X0059055Y0063293D01*
X0059055Y0063891D02*
X0046327Y0063891D01*
X0046926Y0064490D02*
X0059055Y0064490D01*
X0059055Y0065088D02*
X0047524Y0065088D01*
X0048123Y0065687D02*
X0059055Y0065687D01*
X0059055Y0066285D02*
X0048721Y0066285D01*
X0049320Y0066884D02*
X0059055Y0066884D01*
X0059055Y0067482D02*
X0049918Y0067482D01*
X0050517Y0068081D02*
X0059055Y0068081D01*
X0059055Y0068679D02*
X0051115Y0068679D01*
X0051714Y0069278D02*
X0059055Y0069278D01*
X0059055Y0069876D02*
X0052313Y0069876D01*
X0052911Y0070475D02*
X0059055Y0070475D01*
X0059055Y0071073D02*
X0053510Y0071073D01*
X0053981Y0071672D02*
X0059055Y0071672D01*
X0059055Y0072270D02*
X0053981Y0072270D01*
X0053981Y0072869D02*
X0059055Y0072869D01*
X0059055Y0073467D02*
X0053981Y0073467D01*
X0053981Y0074066D02*
X0059055Y0074066D01*
X0059055Y0074664D02*
X0053981Y0074664D01*
X0053981Y0075263D02*
X0059055Y0075263D01*
X0059055Y0075861D02*
X0053981Y0075861D01*
X0053981Y0076460D02*
X0059055Y0076460D01*
X0059055Y0077058D02*
X0053981Y0077058D01*
X0053981Y0077657D02*
X0059055Y0077657D01*
X0059055Y0078255D02*
X0053981Y0078255D01*
X0053981Y0078854D02*
X0059055Y0078854D01*
X0059055Y0079452D02*
X0053981Y0079452D01*
X0053981Y0080051D02*
X0059055Y0080051D01*
X0059055Y0080649D02*
X0053981Y0080649D01*
X0053395Y0081248D02*
X0059055Y0081248D01*
X0059055Y0081846D02*
X0052796Y0081846D01*
X0052198Y0082445D02*
X0059055Y0082445D01*
X0059055Y0083043D02*
X0051599Y0083043D01*
X0051001Y0083642D02*
X0059055Y0083642D01*
X0059055Y0084241D02*
X0050402Y0084241D01*
X0049804Y0084839D02*
X0059055Y0084839D01*
X0059055Y0085438D02*
X0049205Y0085438D01*
X0048607Y0086036D02*
X0059055Y0086036D01*
X0059055Y0086635D02*
X0048008Y0086635D01*
X0047410Y0087233D02*
X0059055Y0087233D01*
X0059055Y0087832D02*
X0046811Y0087832D01*
X0046212Y0088430D02*
X0059055Y0088430D01*
X0059055Y0089029D02*
X0045907Y0089029D01*
X0045907Y0089627D02*
X0059055Y0089627D01*
X0059055Y0090226D02*
X0045907Y0090226D01*
X0045907Y0090824D02*
X0059055Y0090824D01*
X0059055Y0091423D02*
X0045907Y0091423D01*
X0045907Y0092021D02*
X0059055Y0092021D01*
X0059055Y0092620D02*
X0045907Y0092620D01*
X0045907Y0093218D02*
X0059055Y0093218D01*
X0059055Y0093817D02*
X0045907Y0093817D01*
X0045907Y0094415D02*
X0059055Y0094415D01*
X0059055Y0095014D02*
X0045907Y0095014D01*
X0045907Y0095612D02*
X0059055Y0095612D01*
X0059055Y0096211D02*
X0045907Y0096211D01*
X0045907Y0096809D02*
X0059055Y0096809D01*
X0059055Y0097408D02*
X0045907Y0097408D01*
X0045907Y0098006D02*
X0059055Y0098006D01*
X0059055Y0098605D02*
X0045907Y0098605D01*
X0045907Y0099203D02*
X0059055Y0099203D01*
X0059055Y0099802D02*
X0045907Y0099802D01*
X0045907Y0100400D02*
X0059055Y0100400D01*
X0059055Y0100999D02*
X0045907Y0100999D01*
X0045907Y0101597D02*
X0059055Y0101597D01*
X0059055Y0102196D02*
X0045907Y0102196D01*
X0045907Y0102794D02*
X0059055Y0102794D01*
X0059055Y0103393D02*
X0045907Y0103393D01*
X0045907Y0103991D02*
X0059055Y0103991D01*
X0059055Y0104590D02*
X0045907Y0104590D01*
X0045907Y0105188D02*
X0059055Y0105188D01*
X0059055Y0105787D02*
X0045907Y0105787D01*
X0045907Y0106385D02*
X0059055Y0106385D01*
X0059055Y0106984D02*
X0045907Y0106984D01*
X0045907Y0107582D02*
X0059055Y0107582D01*
X0059055Y0107636D02*
X0059055Y0055880D01*
X0059817Y0055118D01*
X0079502Y0035433D01*
X0080579Y0035433D01*
X0156985Y0035433D01*
X0157874Y0034544D01*
X0159687Y0034544D01*
X0160969Y0035826D01*
X0160969Y0037640D01*
X0159687Y0038922D01*
X0157874Y0038922D01*
X0156985Y0038033D01*
X0080579Y0038033D01*
X0061655Y0056957D01*
X0061655Y0107636D01*
X0063728Y0107636D01*
X0064255Y0108163D01*
X0064255Y0114909D01*
X0063926Y0115239D01*
X0064153Y0115370D01*
X0064395Y0115612D01*
X0064567Y0115908D01*
X0064655Y0116239D01*
X0064655Y0117848D01*
X0064923Y0117201D01*
X0066020Y0116104D01*
X0067453Y0115510D01*
X0069005Y0115510D01*
X0070438Y0116104D01*
X0071535Y0117201D01*
X0072129Y0118634D01*
X0072129Y0120186D01*
X0071535Y0121619D01*
X0070438Y0122716D01*
X0069005Y0123310D01*
X0067453Y0123310D01*
X0066020Y0122716D01*
X0064923Y0121619D01*
X0064655Y0120973D01*
X0064655Y0122581D01*
X0064567Y0122912D01*
X0064395Y0123208D01*
X0064153Y0123450D01*
X0063857Y0123622D01*
X0063526Y0123710D01*
X0060655Y0123710D01*
X0060655Y0119710D01*
X0060055Y0119710D01*
X0060055Y0119110D01*
X0056055Y0119110D01*
X0056055Y0116239D01*
X0056144Y0115908D01*
X0056315Y0115612D01*
X0056557Y0115370D01*
X0056785Y0115239D01*
X0056455Y0114909D01*
X0056455Y0108163D01*
X0056982Y0107636D01*
X0059055Y0107636D01*
X0061655Y0107582D02*
X0066929Y0107582D01*
X0066929Y0107853D02*
X0066929Y0063754D01*
X0067691Y0062992D01*
X0079502Y0051181D01*
X0186878Y0051181D01*
X0187957Y0052261D01*
X0189215Y0052261D01*
X0190497Y0053543D01*
X0190497Y0054800D01*
X0194752Y0059055D01*
X0195513Y0059817D01*
X0195513Y0093993D01*
X0196402Y0094881D01*
X0196402Y0096695D01*
X0195501Y0097596D01*
X0196723Y0098818D01*
X0196723Y0100632D01*
X0195441Y0101914D01*
X0193627Y0101914D01*
X0192738Y0101025D01*
X0184198Y0101025D01*
X0183309Y0101914D01*
X0181496Y0101914D01*
X0180213Y0100632D01*
X0180213Y0099375D01*
X0177927Y0097088D01*
X0104201Y0097088D01*
X0093352Y0107937D01*
X0094060Y0108230D01*
X0095157Y0109327D01*
X0095751Y0110760D01*
X0095751Y0112312D01*
X0095157Y0113745D01*
X0094060Y0114842D01*
X0092627Y0115436D01*
X0091075Y0115436D01*
X0089642Y0114842D01*
X0088545Y0113745D01*
X0087951Y0112312D01*
X0087951Y0110760D01*
X0088545Y0109327D01*
X0089642Y0108230D01*
X0090551Y0107853D01*
X0090551Y0107061D01*
X0091313Y0106299D01*
X0098628Y0098983D01*
X0096327Y0098983D01*
X0086633Y0108677D01*
X0087283Y0109327D01*
X0087877Y0110760D01*
X0087877Y0112312D01*
X0087283Y0113745D01*
X0086186Y0114842D01*
X0084753Y0115436D01*
X0083201Y0115436D01*
X0081768Y0114842D01*
X0080671Y0113745D01*
X0080077Y0112312D01*
X0080077Y0110760D01*
X0080671Y0109327D01*
X0081768Y0108230D01*
X0083201Y0107636D01*
X0083997Y0107636D01*
X0095250Y0096383D01*
X0098560Y0096383D01*
X0131951Y0062992D01*
X0176670Y0062992D01*
X0177559Y0062103D01*
X0179372Y0062103D01*
X0180654Y0063385D01*
X0180654Y0065199D01*
X0179372Y0066481D01*
X0177559Y0066481D01*
X0176670Y0065592D01*
X0133028Y0065592D01*
X0104132Y0094488D01*
X0179004Y0094488D01*
X0179765Y0095250D01*
X0182052Y0097536D01*
X0183309Y0097536D01*
X0184198Y0098425D01*
X0192738Y0098425D01*
X0193246Y0097917D01*
X0192024Y0096695D01*
X0192024Y0094881D01*
X0192913Y0093993D01*
X0192913Y0060894D01*
X0188658Y0056639D01*
X0187401Y0056639D01*
X0186119Y0055356D01*
X0186119Y0054099D01*
X0185801Y0053781D01*
X0080579Y0053781D01*
X0069529Y0064831D01*
X0069529Y0107853D01*
X0070438Y0108230D01*
X0071535Y0109327D01*
X0072129Y0110760D01*
X0072129Y0112312D01*
X0071535Y0113745D01*
X0070438Y0114842D01*
X0069005Y0115436D01*
X0067453Y0115436D01*
X0066020Y0114842D01*
X0064923Y0113745D01*
X0064329Y0112312D01*
X0064329Y0110760D01*
X0064923Y0109327D01*
X0066020Y0108230D01*
X0066929Y0107853D01*
X0066138Y0108181D02*
X0064255Y0108181D01*
X0064255Y0108779D02*
X0065470Y0108779D01*
X0064902Y0109378D02*
X0064255Y0109378D01*
X0064255Y0109976D02*
X0064654Y0109976D01*
X0064406Y0110575D02*
X0064255Y0110575D01*
X0064255Y0111174D02*
X0064329Y0111174D01*
X0064329Y0111772D02*
X0064255Y0111772D01*
X0064255Y0112371D02*
X0064353Y0112371D01*
X0064255Y0112969D02*
X0064601Y0112969D01*
X0064849Y0113568D02*
X0064255Y0113568D01*
X0064255Y0114166D02*
X0065344Y0114166D01*
X0065942Y0114765D02*
X0064255Y0114765D01*
X0064141Y0115363D02*
X0067277Y0115363D01*
X0066364Y0115962D02*
X0064581Y0115962D01*
X0064655Y0116560D02*
X0065564Y0116560D01*
X0064965Y0117159D02*
X0064655Y0117159D01*
X0064655Y0117757D02*
X0064693Y0117757D01*
X0064655Y0121348D02*
X0064811Y0121348D01*
X0064655Y0121947D02*
X0065250Y0121947D01*
X0064655Y0122545D02*
X0065849Y0122545D01*
X0067051Y0123144D02*
X0064433Y0123144D01*
X0060655Y0123144D02*
X0060055Y0123144D01*
X0060055Y0123710D02*
X0057184Y0123710D01*
X0056853Y0123622D01*
X0056557Y0123450D01*
X0056315Y0123208D01*
X0056144Y0122912D01*
X0056055Y0122581D01*
X0056055Y0119710D01*
X0060055Y0119710D01*
X0060055Y0123710D01*
X0060055Y0122545D02*
X0060655Y0122545D01*
X0060655Y0121947D02*
X0060055Y0121947D01*
X0060055Y0121348D02*
X0060655Y0121348D01*
X0060655Y0120750D02*
X0060055Y0120750D01*
X0060055Y0120151D02*
X0060655Y0120151D01*
X0060055Y0119553D02*
X0045907Y0119553D01*
X0045907Y0120151D02*
X0056055Y0120151D01*
X0056055Y0120750D02*
X0045907Y0120750D01*
X0045907Y0121348D02*
X0056055Y0121348D01*
X0056055Y0121947D02*
X0045907Y0121947D01*
X0045907Y0122545D02*
X0056055Y0122545D01*
X0056278Y0123144D02*
X0045907Y0123144D01*
X0045907Y0123742D02*
X0078340Y0123742D01*
X0078340Y0123144D02*
X0077281Y0123144D01*
X0076879Y0123310D02*
X0078312Y0122716D01*
X0078340Y0122689D01*
X0078340Y0131925D01*
X0079336Y0132921D01*
X0079336Y0132921D01*
X0082277Y0135862D01*
X0083273Y0136858D01*
X0088618Y0136858D01*
X0099277Y0126200D01*
X0100148Y0125329D01*
X0100355Y0125536D01*
X0102169Y0125536D01*
X0103058Y0124647D01*
X0107061Y0124647D01*
X0109347Y0126934D01*
X0109347Y0128191D01*
X0110630Y0129473D01*
X0112443Y0129473D01*
X0113725Y0128191D01*
X0113725Y0126378D01*
X0112443Y0125095D01*
X0111186Y0125095D01*
X0108138Y0122047D01*
X0103058Y0122047D01*
X0102169Y0121158D01*
X0102052Y0121158D01*
X0106234Y0116976D01*
X0111322Y0116976D01*
X0111811Y0117465D01*
X0113624Y0117465D01*
X0114907Y0116183D01*
X0114907Y0114370D01*
X0113624Y0113087D01*
X0111811Y0113087D01*
X0111322Y0113576D01*
X0104826Y0113576D01*
X0103830Y0114572D01*
X0096873Y0121529D01*
X0096873Y0123795D01*
X0087210Y0133458D01*
X0084681Y0133458D01*
X0084633Y0133410D01*
X0084884Y0133410D01*
X0086166Y0132128D01*
X0086166Y0130315D01*
X0085677Y0129826D01*
X0085677Y0127988D01*
X0090566Y0123099D01*
X0091075Y0123310D01*
X0092627Y0123310D01*
X0094060Y0122716D01*
X0095157Y0121619D01*
X0095751Y0120186D01*
X0095751Y0118634D01*
X0095157Y0117201D01*
X0094060Y0116104D01*
X0092627Y0115510D01*
X0091075Y0115510D01*
X0089642Y0116104D01*
X0088545Y0117201D01*
X0087951Y0118634D01*
X0087951Y0120186D01*
X0088162Y0120695D01*
X0087316Y0121542D01*
X0087877Y0120186D01*
X0087877Y0118634D01*
X0087283Y0117201D01*
X0086186Y0116104D01*
X0084753Y0115510D01*
X0083201Y0115510D01*
X0081768Y0116104D01*
X0080671Y0117201D01*
X0080077Y0118634D01*
X0080077Y0120186D01*
X0080288Y0120695D01*
X0079442Y0121542D01*
X0080003Y0120186D01*
X0080003Y0118634D01*
X0079409Y0117201D01*
X0078312Y0116104D01*
X0076879Y0115510D01*
X0075327Y0115510D01*
X0073894Y0116104D01*
X0072797Y0117201D01*
X0072203Y0118634D01*
X0072203Y0120186D01*
X0072797Y0121619D01*
X0073894Y0122716D01*
X0075327Y0123310D01*
X0076879Y0123310D01*
X0078340Y0124341D02*
X0045907Y0124341D01*
X0045907Y0124939D02*
X0078340Y0124939D01*
X0078340Y0125538D02*
X0045907Y0125538D01*
X0045907Y0126136D02*
X0078340Y0126136D01*
X0078340Y0126735D02*
X0045907Y0126735D01*
X0045907Y0127333D02*
X0053857Y0127333D01*
X0053873Y0127324D02*
X0057279Y0126966D01*
X0060537Y0128025D01*
X0063082Y0130317D01*
X0064475Y0133446D01*
X0064475Y0136871D01*
X0063082Y0140000D01*
X0060537Y0142292D01*
X0057279Y0143350D01*
X0053873Y0142992D01*
X0050906Y0141280D01*
X0048893Y0138509D01*
X0048181Y0135158D01*
X0048893Y0131808D01*
X0050906Y0129037D01*
X0053873Y0127324D01*
X0052821Y0127932D02*
X0045907Y0127932D01*
X0045907Y0128530D02*
X0051784Y0128530D01*
X0050840Y0129129D02*
X0045907Y0129129D01*
X0045907Y0129727D02*
X0050405Y0129727D01*
X0049970Y0130326D02*
X0045907Y0130326D01*
X0045907Y0130924D02*
X0049535Y0130924D01*
X0049100Y0131523D02*
X0045907Y0131523D01*
X0045907Y0132121D02*
X0048827Y0132121D01*
X0048699Y0132720D02*
X0045907Y0132720D01*
X0045907Y0133318D02*
X0048572Y0133318D01*
X0048445Y0133917D02*
X0045907Y0133917D01*
X0045907Y0134515D02*
X0048318Y0134515D01*
X0048191Y0135114D02*
X0045907Y0135114D01*
X0045907Y0135712D02*
X0048299Y0135712D01*
X0048426Y0136311D02*
X0045907Y0136311D01*
X0045907Y0136909D02*
X0048553Y0136909D01*
X0048681Y0137508D02*
X0045907Y0137508D01*
X0045907Y0138107D02*
X0048808Y0138107D01*
X0049036Y0138705D02*
X0046338Y0138705D01*
X0046937Y0139304D02*
X0049471Y0139304D01*
X0049906Y0139902D02*
X0047535Y0139902D01*
X0048134Y0140501D02*
X0050341Y0140501D01*
X0050775Y0141099D02*
X0048732Y0141099D01*
X0049331Y0141698D02*
X0051631Y0141698D01*
X0052667Y0142296D02*
X0049929Y0142296D01*
X0050528Y0142895D02*
X0053704Y0142895D01*
X0051725Y0144092D02*
X0123962Y0144092D01*
X0123364Y0144690D02*
X0052323Y0144690D01*
X0052922Y0145289D02*
X0122765Y0145289D01*
X0124561Y0143493D02*
X0051126Y0143493D01*
X0058681Y0142895D02*
X0125159Y0142895D01*
X0125758Y0142296D02*
X0060523Y0142296D01*
X0061196Y0141698D02*
X0126356Y0141698D01*
X0126955Y0141099D02*
X0061861Y0141099D01*
X0062526Y0140501D02*
X0127553Y0140501D01*
X0128152Y0139902D02*
X0063126Y0139902D01*
X0063392Y0139304D02*
X0128750Y0139304D01*
X0129349Y0138705D02*
X0063658Y0138705D01*
X0063925Y0138107D02*
X0129947Y0138107D01*
X0130546Y0137508D02*
X0064191Y0137508D01*
X0064458Y0136909D02*
X0206034Y0136909D01*
X0205906Y0136311D02*
X0089166Y0136311D01*
X0089764Y0135712D02*
X0205779Y0135712D01*
X0205661Y0135158D02*
X0206374Y0138509D01*
X0208387Y0141280D01*
X0211353Y0142992D01*
X0214759Y0143350D01*
X0218017Y0142292D01*
X0220562Y0140000D01*
X0221955Y0136871D01*
X0221955Y0133446D01*
X0220562Y0130317D01*
X0218017Y0128025D01*
X0214759Y0126966D01*
X0211353Y0127324D01*
X0208387Y0129037D01*
X0206374Y0131808D01*
X0205661Y0135158D01*
X0205671Y0135114D02*
X0174073Y0135114D01*
X0173488Y0135699D02*
X0174770Y0134417D01*
X0174770Y0133160D01*
X0178457Y0129473D01*
X0179372Y0129473D01*
X0180654Y0128191D01*
X0180654Y0126378D01*
X0179372Y0125095D01*
X0177559Y0125095D01*
X0176276Y0126378D01*
X0176276Y0127976D01*
X0172932Y0131321D01*
X0171674Y0131321D01*
X0170392Y0132604D01*
X0170392Y0134417D01*
X0171674Y0135699D01*
X0173488Y0135699D01*
X0174672Y0134515D02*
X0205798Y0134515D01*
X0205925Y0133917D02*
X0174770Y0133917D01*
X0174770Y0133318D02*
X0206052Y0133318D01*
X0206180Y0132720D02*
X0175210Y0132720D01*
X0175808Y0132121D02*
X0206307Y0132121D01*
X0206581Y0131523D02*
X0176407Y0131523D01*
X0177005Y0130924D02*
X0207016Y0130924D01*
X0207450Y0130326D02*
X0177604Y0130326D01*
X0178202Y0129727D02*
X0207885Y0129727D01*
X0208320Y0129129D02*
X0179716Y0129129D01*
X0180315Y0128530D02*
X0209264Y0128530D01*
X0210301Y0127932D02*
X0180654Y0127932D01*
X0180654Y0127333D02*
X0211338Y0127333D01*
X0215889Y0127333D02*
X0224409Y0127333D01*
X0224409Y0126735D02*
X0180654Y0126735D01*
X0180413Y0126136D02*
X0224409Y0126136D01*
X0224409Y0125538D02*
X0179815Y0125538D01*
X0177116Y0125538D02*
X0112885Y0125538D01*
X0113484Y0126136D02*
X0176518Y0126136D01*
X0176276Y0126735D02*
X0113725Y0126735D01*
X0113725Y0127333D02*
X0176276Y0127333D01*
X0176276Y0127932D02*
X0113725Y0127932D01*
X0113386Y0128530D02*
X0175722Y0128530D01*
X0175124Y0129129D02*
X0112787Y0129129D01*
X0110285Y0129129D02*
X0096348Y0129129D01*
X0096946Y0128530D02*
X0109687Y0128530D01*
X0109347Y0127932D02*
X0097545Y0127932D01*
X0098143Y0127333D02*
X0109347Y0127333D01*
X0109148Y0126735D02*
X0098742Y0126735D01*
X0099340Y0126136D02*
X0108550Y0126136D01*
X0107951Y0125538D02*
X0099939Y0125538D01*
X0102766Y0124939D02*
X0107353Y0124939D01*
X0109833Y0123742D02*
X0145526Y0123742D01*
X0145669Y0123886D02*
X0131572Y0109788D01*
X0130315Y0109788D01*
X0129032Y0108506D01*
X0129032Y0107249D01*
X0127111Y0105327D01*
X0127111Y0104250D01*
X0127872Y0103489D01*
X0128949Y0103489D01*
X0130871Y0105410D01*
X0132128Y0105410D01*
X0133410Y0106693D01*
X0133410Y0107950D01*
X0147508Y0122047D01*
X0174181Y0122047D01*
X0175351Y0120877D01*
X0175351Y0119620D01*
X0176633Y0118338D01*
X0178447Y0118338D01*
X0179336Y0119227D01*
X0192631Y0119227D01*
X0193804Y0120399D01*
X0215008Y0120399D01*
X0215646Y0119761D01*
X0215646Y0118504D01*
X0216929Y0117221D01*
X0218742Y0117221D01*
X0220024Y0118504D01*
X0220024Y0120317D01*
X0218742Y0121599D01*
X0217485Y0121599D01*
X0216085Y0122999D01*
X0192727Y0122999D01*
X0191965Y0122238D01*
X0191554Y0121827D01*
X0179336Y0121827D01*
X0178447Y0122715D01*
X0177190Y0122715D01*
X0176019Y0123886D01*
X0175258Y0124647D01*
X0146431Y0124647D01*
X0145669Y0123886D01*
X0146124Y0124341D02*
X0110431Y0124341D01*
X0111030Y0124939D02*
X0224409Y0124939D01*
X0224409Y0124341D02*
X0175564Y0124341D01*
X0176163Y0123742D02*
X0224409Y0123742D01*
X0224409Y0123144D02*
X0176761Y0123144D01*
X0178617Y0122545D02*
X0192273Y0122545D01*
X0191674Y0121947D02*
X0179216Y0121947D01*
X0179063Y0118954D02*
X0215646Y0118954D01*
X0215646Y0119553D02*
X0192957Y0119553D01*
X0193556Y0120151D02*
X0215256Y0120151D01*
X0215794Y0118356D02*
X0178465Y0118356D01*
X0176615Y0118356D02*
X0148482Y0118356D01*
X0148753Y0118084D02*
X0147864Y0118973D01*
X0146051Y0118973D01*
X0144768Y0117691D01*
X0144768Y0115878D01*
X0146051Y0114595D01*
X0147864Y0114595D01*
X0148753Y0115484D01*
X0172679Y0115484D01*
X0182182Y0105981D01*
X0182182Y0104724D01*
X0182264Y0104642D01*
X0177606Y0104642D01*
X0176845Y0103880D01*
X0174879Y0101914D01*
X0173622Y0101914D01*
X0172339Y0100632D01*
X0172339Y0098818D01*
X0173622Y0097536D01*
X0175435Y0097536D01*
X0176717Y0098818D01*
X0176717Y0100076D01*
X0178683Y0102042D01*
X0185857Y0102042D01*
X0193235Y0109419D01*
X0193307Y0109347D01*
X0195120Y0109347D01*
X0196402Y0110630D01*
X0196402Y0112443D01*
X0195120Y0113725D01*
X0193307Y0113725D01*
X0192024Y0112443D01*
X0192024Y0111886D01*
X0186560Y0106421D01*
X0186560Y0106537D01*
X0185278Y0107820D01*
X0184020Y0107820D01*
X0173756Y0118084D01*
X0148753Y0118084D01*
X0147883Y0118954D02*
X0176017Y0118954D01*
X0175418Y0119553D02*
X0145013Y0119553D01*
X0145612Y0120151D02*
X0175351Y0120151D01*
X0175351Y0120750D02*
X0146210Y0120750D01*
X0146809Y0121348D02*
X0174880Y0121348D01*
X0174281Y0121947D02*
X0147407Y0121947D01*
X0144927Y0123144D02*
X0109234Y0123144D01*
X0108636Y0122545D02*
X0144329Y0122545D01*
X0143730Y0121947D02*
X0102957Y0121947D01*
X0102359Y0121348D02*
X0143132Y0121348D01*
X0142533Y0120750D02*
X0102461Y0120750D01*
X0103059Y0120151D02*
X0141935Y0120151D01*
X0141336Y0119553D02*
X0103658Y0119553D01*
X0104256Y0118954D02*
X0140738Y0118954D01*
X0140139Y0118356D02*
X0104855Y0118356D01*
X0105453Y0117757D02*
X0139541Y0117757D01*
X0138942Y0117159D02*
X0113931Y0117159D01*
X0114530Y0116560D02*
X0138344Y0116560D01*
X0137745Y0115962D02*
X0114907Y0115962D01*
X0114907Y0115363D02*
X0137147Y0115363D01*
X0136548Y0114765D02*
X0114907Y0114765D01*
X0114703Y0114166D02*
X0135950Y0114166D01*
X0135351Y0113568D02*
X0114105Y0113568D01*
X0111331Y0113568D02*
X0095231Y0113568D01*
X0095479Y0112969D02*
X0134753Y0112969D01*
X0134154Y0112371D02*
X0095727Y0112371D01*
X0095751Y0111772D02*
X0133556Y0111772D01*
X0132957Y0111174D02*
X0095751Y0111174D01*
X0095674Y0110575D02*
X0132359Y0110575D01*
X0131760Y0109976D02*
X0095426Y0109976D01*
X0095179Y0109378D02*
X0129904Y0109378D01*
X0129306Y0108779D02*
X0094610Y0108779D01*
X0093942Y0108181D02*
X0129032Y0108181D01*
X0129032Y0107582D02*
X0093706Y0107582D01*
X0094305Y0106984D02*
X0128768Y0106984D01*
X0128169Y0106385D02*
X0094903Y0106385D01*
X0095502Y0105787D02*
X0127570Y0105787D01*
X0127111Y0105188D02*
X0096100Y0105188D01*
X0096699Y0104590D02*
X0127111Y0104590D01*
X0127369Y0103991D02*
X0097297Y0103991D01*
X0097896Y0103393D02*
X0176358Y0103393D01*
X0176956Y0103991D02*
X0129452Y0103991D01*
X0130050Y0104590D02*
X0177555Y0104590D01*
X0175759Y0102794D02*
X0098495Y0102794D01*
X0099093Y0102196D02*
X0175161Y0102196D01*
X0173305Y0101597D02*
X0099692Y0101597D01*
X0100290Y0100999D02*
X0172706Y0100999D01*
X0172339Y0100400D02*
X0100889Y0100400D01*
X0101487Y0099802D02*
X0172339Y0099802D01*
X0172339Y0099203D02*
X0102086Y0099203D01*
X0102684Y0098605D02*
X0172553Y0098605D01*
X0173152Y0098006D02*
X0103283Y0098006D01*
X0103881Y0097408D02*
X0178246Y0097408D01*
X0178845Y0098006D02*
X0175905Y0098006D01*
X0176504Y0098605D02*
X0179443Y0098605D01*
X0180042Y0099203D02*
X0176717Y0099203D01*
X0176717Y0099802D02*
X0180213Y0099802D01*
X0180213Y0100400D02*
X0177042Y0100400D01*
X0177640Y0100999D02*
X0180580Y0100999D01*
X0181179Y0101597D02*
X0178239Y0101597D01*
X0183626Y0101597D02*
X0193310Y0101597D01*
X0195757Y0101597D02*
X0197850Y0101597D01*
X0197850Y0100999D02*
X0196356Y0100999D01*
X0196723Y0100400D02*
X0197850Y0100400D01*
X0197850Y0099802D02*
X0196723Y0099802D01*
X0196723Y0099203D02*
X0197850Y0099203D01*
X0197850Y0098605D02*
X0196509Y0098605D01*
X0195911Y0098006D02*
X0197850Y0098006D01*
X0197850Y0097408D02*
X0195689Y0097408D01*
X0196288Y0096809D02*
X0197850Y0096809D01*
X0197850Y0096211D02*
X0196402Y0096211D01*
X0196402Y0095612D02*
X0197850Y0095612D01*
X0197850Y0095014D02*
X0196402Y0095014D01*
X0195936Y0094415D02*
X0197850Y0094415D01*
X0197850Y0093817D02*
X0195513Y0093817D01*
X0195513Y0093218D02*
X0197850Y0093218D01*
X0197850Y0092620D02*
X0195513Y0092620D01*
X0195513Y0092021D02*
X0197850Y0092021D01*
X0197850Y0091423D02*
X0195513Y0091423D01*
X0195513Y0090824D02*
X0197850Y0090824D01*
X0197850Y0090226D02*
X0195513Y0090226D01*
X0195513Y0089627D02*
X0197850Y0089627D01*
X0197850Y0089029D02*
X0195513Y0089029D01*
X0195513Y0088430D02*
X0197850Y0088430D01*
X0197850Y0087832D02*
X0195513Y0087832D01*
X0195513Y0087233D02*
X0197850Y0087233D01*
X0197850Y0086635D02*
X0195513Y0086635D01*
X0195513Y0086036D02*
X0197850Y0086036D01*
X0197850Y0085438D02*
X0195513Y0085438D01*
X0195513Y0084839D02*
X0197850Y0084839D01*
X0197850Y0084241D02*
X0195513Y0084241D01*
X0195513Y0083642D02*
X0197850Y0083642D01*
X0197850Y0083043D02*
X0195513Y0083043D01*
X0195513Y0082445D02*
X0197850Y0082445D01*
X0197850Y0081846D02*
X0195513Y0081846D01*
X0195513Y0081248D02*
X0197850Y0081248D01*
X0197850Y0080649D02*
X0195513Y0080649D01*
X0195513Y0080051D02*
X0197850Y0080051D01*
X0197850Y0079452D02*
X0195513Y0079452D01*
X0195513Y0078854D02*
X0197850Y0078854D01*
X0197850Y0078255D02*
X0195513Y0078255D01*
X0195513Y0077657D02*
X0197850Y0077657D01*
X0197850Y0077058D02*
X0195513Y0077058D01*
X0195513Y0076460D02*
X0197850Y0076460D01*
X0197850Y0075861D02*
X0195513Y0075861D01*
X0195513Y0075263D02*
X0197850Y0075263D01*
X0197850Y0074664D02*
X0195513Y0074664D01*
X0195513Y0074066D02*
X0197850Y0074066D01*
X0197850Y0073467D02*
X0195513Y0073467D01*
X0195513Y0072869D02*
X0197850Y0072869D01*
X0197850Y0072270D02*
X0195513Y0072270D01*
X0195513Y0071672D02*
X0197850Y0071672D01*
X0197850Y0071073D02*
X0195513Y0071073D01*
X0195513Y0070475D02*
X0197850Y0070475D01*
X0197850Y0069876D02*
X0195513Y0069876D01*
X0195513Y0069278D02*
X0197850Y0069278D01*
X0197850Y0068679D02*
X0195513Y0068679D01*
X0195513Y0068081D02*
X0197850Y0068081D01*
X0197850Y0067482D02*
X0195513Y0067482D01*
X0195513Y0066884D02*
X0197850Y0066884D01*
X0197850Y0066285D02*
X0195513Y0066285D01*
X0195513Y0065687D02*
X0197850Y0065687D01*
X0197850Y0065088D02*
X0195513Y0065088D01*
X0195513Y0064490D02*
X0197850Y0064490D01*
X0197850Y0063891D02*
X0195513Y0063891D01*
X0195513Y0063293D02*
X0197850Y0063293D01*
X0197850Y0062694D02*
X0195513Y0062694D01*
X0195513Y0062096D02*
X0197850Y0062096D01*
X0197850Y0061497D02*
X0195513Y0061497D01*
X0195513Y0060899D02*
X0197850Y0060899D01*
X0197850Y0060300D02*
X0195513Y0060300D01*
X0195398Y0059702D02*
X0197850Y0059702D01*
X0197850Y0059103D02*
X0194800Y0059103D01*
X0194201Y0058505D02*
X0197850Y0058505D01*
X0197850Y0057906D02*
X0193603Y0057906D01*
X0193004Y0057307D02*
X0197850Y0057307D01*
X0197850Y0056709D02*
X0192406Y0056709D01*
X0191807Y0056110D02*
X0197850Y0056110D01*
X0197850Y0055512D02*
X0191209Y0055512D01*
X0190610Y0054913D02*
X0197850Y0054913D01*
X0197850Y0054315D02*
X0190497Y0054315D01*
X0190497Y0053716D02*
X0197850Y0053716D01*
X0197850Y0053118D02*
X0190072Y0053118D01*
X0189473Y0052519D02*
X0197850Y0052519D01*
X0197850Y0051921D02*
X0187618Y0051921D01*
X0187019Y0051322D02*
X0197850Y0051322D01*
X0197850Y0050724D02*
X0067888Y0050724D01*
X0068486Y0050125D02*
X0197850Y0050125D01*
X0197850Y0049527D02*
X0069085Y0049527D01*
X0069683Y0048928D02*
X0197850Y0048928D01*
X0197850Y0048330D02*
X0070282Y0048330D01*
X0070880Y0047731D02*
X0197850Y0047731D01*
X0197850Y0047133D02*
X0071479Y0047133D01*
X0072077Y0046534D02*
X0197850Y0046534D01*
X0197850Y0045936D02*
X0072676Y0045936D01*
X0073274Y0045337D02*
X0197850Y0045337D01*
X0197850Y0044739D02*
X0073873Y0044739D01*
X0074471Y0044140D02*
X0224409Y0044140D01*
X0224409Y0043542D02*
X0075070Y0043542D01*
X0075668Y0042943D02*
X0224409Y0042943D01*
X0224409Y0042345D02*
X0076267Y0042345D01*
X0076865Y0041746D02*
X0224409Y0041746D01*
X0224409Y0041148D02*
X0077464Y0041148D01*
X0078063Y0040549D02*
X0224409Y0040549D01*
X0224409Y0039951D02*
X0078661Y0039951D01*
X0079260Y0039352D02*
X0224409Y0039352D01*
X0224409Y0038754D02*
X0159855Y0038754D01*
X0160454Y0038155D02*
X0224409Y0038155D01*
X0224409Y0037557D02*
X0160969Y0037557D01*
X0160969Y0036958D02*
X0224409Y0036958D01*
X0224409Y0036360D02*
X0160969Y0036360D01*
X0160904Y0035761D02*
X0224409Y0035761D01*
X0224409Y0035163D02*
X0160305Y0035163D01*
X0159707Y0034564D02*
X0224409Y0034564D01*
X0224409Y0033966D02*
X0152832Y0033966D01*
X0153095Y0033703D02*
X0151813Y0034985D01*
X0150000Y0034985D01*
X0149111Y0034096D01*
X0081836Y0034096D01*
X0080947Y0034985D01*
X0079133Y0034985D01*
X0077851Y0033703D01*
X0077851Y0031889D01*
X0079133Y0030607D01*
X0080947Y0030607D01*
X0081836Y0031496D01*
X0149111Y0031496D01*
X0150000Y0030607D01*
X0151813Y0030607D01*
X0153095Y0031889D01*
X0153095Y0033703D01*
X0153095Y0033367D02*
X0224409Y0033367D01*
X0224409Y0032769D02*
X0153095Y0032769D01*
X0153095Y0032170D02*
X0224409Y0032170D01*
X0224409Y0031572D02*
X0152777Y0031572D01*
X0152179Y0030973D02*
X0224409Y0030973D01*
X0224409Y0030374D02*
X0045907Y0030374D01*
X0045907Y0029776D02*
X0224409Y0029776D01*
X0224409Y0029177D02*
X0045907Y0029177D01*
X0045907Y0028579D02*
X0224409Y0028579D01*
X0224409Y0027980D02*
X0045907Y0027980D01*
X0045907Y0027382D02*
X0224409Y0027382D01*
X0224409Y0026783D02*
X0045907Y0026783D01*
X0045907Y0026185D02*
X0224409Y0026185D01*
X0224409Y0025586D02*
X0045907Y0025586D01*
X0045907Y0024988D02*
X0054881Y0024988D01*
X0053873Y0024882D02*
X0050906Y0023169D01*
X0048893Y0020398D01*
X0048181Y0017048D01*
X0048893Y0013698D01*
X0050906Y0010927D01*
X0053873Y0009214D01*
X0057279Y0008856D01*
X0060537Y0009915D01*
X0063082Y0012206D01*
X0064475Y0015335D01*
X0064475Y0018761D01*
X0063082Y0021890D01*
X0060537Y0024181D01*
X0057279Y0025240D01*
X0053873Y0024882D01*
X0053020Y0024389D02*
X0045907Y0024389D01*
X0045907Y0023791D02*
X0051983Y0023791D01*
X0050946Y0023192D02*
X0045907Y0023192D01*
X0045907Y0022594D02*
X0050488Y0022594D01*
X0050054Y0021995D02*
X0045907Y0021995D01*
X0045907Y0021397D02*
X0049619Y0021397D01*
X0049184Y0020798D02*
X0045907Y0020798D01*
X0045907Y0020200D02*
X0048851Y0020200D01*
X0048724Y0019601D02*
X0045907Y0019601D01*
X0045907Y0019003D02*
X0048597Y0019003D01*
X0048469Y0018404D02*
X0045907Y0018404D01*
X0045907Y0017806D02*
X0048342Y0017806D01*
X0048215Y0017207D02*
X0045907Y0017207D01*
X0045907Y0016609D02*
X0048274Y0016609D01*
X0048402Y0016010D02*
X0045907Y0016010D01*
X0045907Y0015412D02*
X0048529Y0015412D01*
X0048656Y0014813D02*
X0045907Y0014813D01*
X0045907Y0014215D02*
X0048783Y0014215D01*
X0048952Y0013616D02*
X0046223Y0013616D01*
X0046822Y0013018D02*
X0049387Y0013018D01*
X0049822Y0012419D02*
X0047420Y0012419D01*
X0048019Y0011821D02*
X0050257Y0011821D01*
X0050692Y0011222D02*
X0048617Y0011222D01*
X0049216Y0010624D02*
X0051431Y0010624D01*
X0052468Y0010025D02*
X0049814Y0010025D01*
X0050413Y0009427D02*
X0053505Y0009427D01*
X0052208Y0007631D02*
X0123479Y0007631D01*
X0124077Y0008230D02*
X0051610Y0008230D01*
X0051011Y0008828D02*
X0124676Y0008828D01*
X0125274Y0009427D02*
X0059035Y0009427D01*
X0060659Y0010025D02*
X0125873Y0010025D01*
X0126471Y0010624D02*
X0061324Y0010624D01*
X0061989Y0011222D02*
X0127070Y0011222D01*
X0127668Y0011821D02*
X0062653Y0011821D01*
X0063177Y0012419D02*
X0128267Y0012419D01*
X0128865Y0013018D02*
X0063443Y0013018D01*
X0063710Y0013616D02*
X0129464Y0013616D01*
X0130062Y0014215D02*
X0063976Y0014215D01*
X0064243Y0014813D02*
X0206136Y0014813D01*
X0206264Y0014215D02*
X0140254Y0014215D01*
X0140853Y0013616D02*
X0206433Y0013616D01*
X0206374Y0013698D02*
X0208387Y0010927D01*
X0211353Y0009214D01*
X0214759Y0008856D01*
X0218017Y0009915D01*
X0220562Y0012206D01*
X0221955Y0015335D01*
X0221955Y0018761D01*
X0220562Y0021890D01*
X0218017Y0024181D01*
X0214759Y0025240D01*
X0211353Y0024882D01*
X0208387Y0023169D01*
X0206374Y0020398D01*
X0205661Y0017048D01*
X0206374Y0013698D01*
X0206868Y0013018D02*
X0141451Y0013018D01*
X0142050Y0012419D02*
X0207302Y0012419D01*
X0207737Y0011821D02*
X0142648Y0011821D01*
X0143247Y0011222D02*
X0208172Y0011222D01*
X0208912Y0010624D02*
X0143845Y0010624D01*
X0144444Y0010025D02*
X0209948Y0010025D01*
X0210985Y0009427D02*
X0145042Y0009427D01*
X0145641Y0008828D02*
X0219305Y0008828D01*
X0218707Y0008230D02*
X0146239Y0008230D01*
X0146838Y0007631D02*
X0218108Y0007631D01*
X0217510Y0007033D02*
X0147436Y0007033D01*
X0122880Y0007033D02*
X0052807Y0007033D01*
X0064475Y0015412D02*
X0206009Y0015412D01*
X0205882Y0016010D02*
X0064475Y0016010D01*
X0064475Y0016609D02*
X0205755Y0016609D01*
X0205695Y0017207D02*
X0064475Y0017207D01*
X0064475Y0017806D02*
X0205822Y0017806D01*
X0205950Y0018404D02*
X0064475Y0018404D01*
X0064367Y0019003D02*
X0206077Y0019003D01*
X0206204Y0019601D02*
X0064101Y0019601D01*
X0063834Y0020200D02*
X0206331Y0020200D01*
X0206664Y0020798D02*
X0063568Y0020798D01*
X0063301Y0021397D02*
X0207099Y0021397D01*
X0207534Y0021995D02*
X0062965Y0021995D01*
X0062300Y0022594D02*
X0207969Y0022594D01*
X0208427Y0023192D02*
X0061635Y0023192D01*
X0060970Y0023791D02*
X0209463Y0023791D01*
X0210500Y0024389D02*
X0059897Y0024389D01*
X0058055Y0024988D02*
X0212362Y0024988D01*
X0215535Y0024988D02*
X0224409Y0024988D01*
X0224409Y0024389D02*
X0217377Y0024389D01*
X0218451Y0023791D02*
X0224409Y0023791D01*
X0224409Y0023192D02*
X0219115Y0023192D01*
X0219780Y0022594D02*
X0224409Y0022594D01*
X0224409Y0021995D02*
X0220445Y0021995D01*
X0220782Y0021397D02*
X0224409Y0021397D01*
X0224409Y0020798D02*
X0221048Y0020798D01*
X0221315Y0020200D02*
X0224409Y0020200D01*
X0224409Y0019601D02*
X0221581Y0019601D01*
X0221848Y0019003D02*
X0224409Y0019003D01*
X0224409Y0018404D02*
X0221955Y0018404D01*
X0221955Y0017806D02*
X0224409Y0017806D01*
X0224409Y0017207D02*
X0221955Y0017207D01*
X0221955Y0016609D02*
X0224409Y0016609D01*
X0224409Y0016010D02*
X0221955Y0016010D01*
X0221955Y0015412D02*
X0224409Y0015412D01*
X0224409Y0014813D02*
X0221723Y0014813D01*
X0221456Y0014215D02*
X0224409Y0014215D01*
X0224093Y0013616D02*
X0221190Y0013616D01*
X0220923Y0013018D02*
X0223495Y0013018D01*
X0222896Y0012419D02*
X0220657Y0012419D01*
X0220134Y0011821D02*
X0222298Y0011821D01*
X0221699Y0011222D02*
X0219469Y0011222D01*
X0218804Y0010624D02*
X0221101Y0010624D01*
X0220502Y0010025D02*
X0218140Y0010025D01*
X0216515Y0009427D02*
X0219904Y0009427D01*
X0157854Y0034564D02*
X0152234Y0034564D01*
X0149579Y0034564D02*
X0081368Y0034564D01*
X0079174Y0035761D02*
X0045907Y0035761D01*
X0045907Y0035163D02*
X0157255Y0035163D01*
X0157107Y0038155D02*
X0080457Y0038155D01*
X0079858Y0038754D02*
X0157705Y0038754D01*
X0149634Y0030973D02*
X0081313Y0030973D01*
X0078768Y0030973D02*
X0045907Y0030973D01*
X0045907Y0031572D02*
X0078169Y0031572D01*
X0077851Y0032170D02*
X0045907Y0032170D01*
X0045907Y0032769D02*
X0077851Y0032769D01*
X0077851Y0033367D02*
X0045907Y0033367D01*
X0045907Y0033966D02*
X0078114Y0033966D01*
X0078712Y0034564D02*
X0045907Y0034564D01*
X0045907Y0036360D02*
X0078575Y0036360D01*
X0077977Y0036958D02*
X0045907Y0036958D01*
X0045907Y0037557D02*
X0077378Y0037557D01*
X0076780Y0038155D02*
X0045907Y0038155D01*
X0045907Y0038754D02*
X0076181Y0038754D01*
X0075583Y0039352D02*
X0045907Y0039352D01*
X0045907Y0039951D02*
X0074984Y0039951D01*
X0074386Y0040549D02*
X0045907Y0040549D01*
X0045907Y0041148D02*
X0073787Y0041148D01*
X0073189Y0041746D02*
X0045907Y0041746D01*
X0045907Y0042345D02*
X0072590Y0042345D01*
X0071992Y0042943D02*
X0045907Y0042943D01*
X0045907Y0043542D02*
X0071393Y0043542D01*
X0070795Y0044140D02*
X0045907Y0044140D01*
X0045907Y0044739D02*
X0070196Y0044739D01*
X0069597Y0045337D02*
X0045907Y0045337D01*
X0045907Y0045936D02*
X0068999Y0045936D01*
X0068400Y0046534D02*
X0045907Y0046534D01*
X0045907Y0047133D02*
X0067802Y0047133D01*
X0067203Y0047731D02*
X0045907Y0047731D01*
X0045907Y0048330D02*
X0066605Y0048330D01*
X0066006Y0048928D02*
X0045907Y0048928D01*
X0045907Y0049527D02*
X0065408Y0049527D01*
X0064809Y0050125D02*
X0045907Y0050125D01*
X0045907Y0050724D02*
X0064211Y0050724D01*
X0063612Y0051322D02*
X0045907Y0051322D01*
X0045907Y0051921D02*
X0063014Y0051921D01*
X0062415Y0052519D02*
X0045907Y0052519D01*
X0045907Y0053118D02*
X0061817Y0053118D01*
X0061218Y0053716D02*
X0045907Y0053716D01*
X0045907Y0054315D02*
X0060620Y0054315D01*
X0060021Y0054913D02*
X0045907Y0054913D01*
X0045907Y0055512D02*
X0059423Y0055512D01*
X0059055Y0056110D02*
X0045907Y0056110D01*
X0045907Y0056709D02*
X0059055Y0056709D01*
X0059055Y0057307D02*
X0045907Y0057307D01*
X0045907Y0057906D02*
X0059055Y0057906D01*
X0059055Y0058505D02*
X0045907Y0058505D01*
X0045907Y0059103D02*
X0059055Y0059103D01*
X0059055Y0059702D02*
X0045907Y0059702D01*
X0045907Y0060300D02*
X0059055Y0060300D01*
X0059055Y0060899D02*
X0045907Y0060899D01*
X0045907Y0061497D02*
X0059055Y0061497D01*
X0059055Y0062096D02*
X0045907Y0062096D01*
X0045907Y0062694D02*
X0059055Y0062694D01*
X0061655Y0062694D02*
X0067989Y0062694D01*
X0068587Y0062096D02*
X0061655Y0062096D01*
X0061655Y0061497D02*
X0069186Y0061497D01*
X0069784Y0060899D02*
X0061655Y0060899D01*
X0061655Y0060300D02*
X0070383Y0060300D01*
X0070981Y0059702D02*
X0061655Y0059702D01*
X0061655Y0059103D02*
X0071580Y0059103D01*
X0072178Y0058505D02*
X0061655Y0058505D01*
X0061655Y0057906D02*
X0072777Y0057906D01*
X0073375Y0057307D02*
X0061655Y0057307D01*
X0061903Y0056709D02*
X0073974Y0056709D01*
X0074572Y0056110D02*
X0062501Y0056110D01*
X0063100Y0055512D02*
X0075171Y0055512D01*
X0075769Y0054913D02*
X0063698Y0054913D01*
X0064297Y0054315D02*
X0076368Y0054315D01*
X0076966Y0053716D02*
X0064895Y0053716D01*
X0065494Y0053118D02*
X0077565Y0053118D01*
X0078163Y0052519D02*
X0066092Y0052519D01*
X0066691Y0051921D02*
X0078762Y0051921D01*
X0079360Y0051322D02*
X0067289Y0051322D01*
X0077052Y0057307D02*
X0189327Y0057307D01*
X0188729Y0056709D02*
X0077651Y0056709D01*
X0078249Y0056110D02*
X0186873Y0056110D01*
X0186275Y0055512D02*
X0078848Y0055512D01*
X0079446Y0054913D02*
X0186119Y0054913D01*
X0186119Y0054315D02*
X0080045Y0054315D01*
X0076454Y0057906D02*
X0189926Y0057906D01*
X0190524Y0058505D02*
X0187584Y0058505D01*
X0187246Y0058166D02*
X0188528Y0059448D01*
X0188528Y0061262D01*
X0187246Y0062544D01*
X0185433Y0062544D01*
X0184544Y0061655D01*
X0127735Y0061655D01*
X0097161Y0092229D01*
X0097161Y0092316D01*
X0079627Y0109851D01*
X0080003Y0110760D01*
X0080003Y0112312D01*
X0079409Y0113745D01*
X0078312Y0114842D01*
X0076879Y0115436D01*
X0075327Y0115436D01*
X0073894Y0114842D01*
X0072797Y0113745D01*
X0072203Y0112312D01*
X0072203Y0110760D01*
X0072797Y0109327D01*
X0073894Y0108230D01*
X0075327Y0107636D01*
X0076879Y0107636D01*
X0077788Y0108013D01*
X0094561Y0091239D01*
X0094561Y0091152D01*
X0125897Y0059817D01*
X0126658Y0059055D01*
X0184544Y0059055D01*
X0185433Y0058166D01*
X0187246Y0058166D01*
X0188183Y0059103D02*
X0191123Y0059103D01*
X0191721Y0059702D02*
X0188528Y0059702D01*
X0188528Y0060300D02*
X0192320Y0060300D01*
X0192913Y0060899D02*
X0188528Y0060899D01*
X0188293Y0061497D02*
X0192913Y0061497D01*
X0192913Y0062096D02*
X0187695Y0062096D01*
X0184984Y0062096D02*
X0127295Y0062096D01*
X0126696Y0062694D02*
X0176968Y0062694D01*
X0179963Y0062694D02*
X0192913Y0062694D01*
X0192913Y0063293D02*
X0180562Y0063293D01*
X0180654Y0063891D02*
X0192913Y0063891D01*
X0192913Y0064490D02*
X0180654Y0064490D01*
X0180654Y0065088D02*
X0192913Y0065088D01*
X0192913Y0065687D02*
X0180166Y0065687D01*
X0179568Y0066285D02*
X0192913Y0066285D01*
X0192913Y0066884D02*
X0131737Y0066884D01*
X0131138Y0067482D02*
X0192913Y0067482D01*
X0192913Y0068081D02*
X0130540Y0068081D01*
X0129941Y0068679D02*
X0192913Y0068679D01*
X0192913Y0069278D02*
X0129343Y0069278D01*
X0128744Y0069876D02*
X0192913Y0069876D01*
X0192913Y0070475D02*
X0128146Y0070475D01*
X0127547Y0071073D02*
X0192913Y0071073D01*
X0192913Y0071672D02*
X0126949Y0071672D01*
X0126350Y0072270D02*
X0192913Y0072270D01*
X0192913Y0072869D02*
X0125752Y0072869D01*
X0125153Y0073467D02*
X0192913Y0073467D01*
X0192913Y0074066D02*
X0124555Y0074066D01*
X0123956Y0074664D02*
X0192913Y0074664D01*
X0192913Y0075263D02*
X0123358Y0075263D01*
X0122759Y0075861D02*
X0192913Y0075861D01*
X0192913Y0076460D02*
X0122161Y0076460D01*
X0121562Y0077058D02*
X0192913Y0077058D01*
X0192913Y0077657D02*
X0120964Y0077657D01*
X0120365Y0078255D02*
X0192913Y0078255D01*
X0192913Y0078854D02*
X0119767Y0078854D01*
X0119168Y0079452D02*
X0128064Y0079452D01*
X0128163Y0079353D02*
X0129977Y0079353D01*
X0131259Y0080635D01*
X0131259Y0082448D01*
X0129977Y0083731D01*
X0128163Y0083731D01*
X0127274Y0082842D01*
X0122623Y0082842D01*
X0122623Y0083939D01*
X0121341Y0085221D01*
X0119527Y0085221D01*
X0118245Y0083939D01*
X0118245Y0082126D01*
X0119527Y0080843D01*
X0120312Y0080843D01*
X0120913Y0080242D01*
X0121990Y0080242D01*
X0127274Y0080242D01*
X0128163Y0079353D01*
X0127465Y0080051D02*
X0118570Y0080051D01*
X0117971Y0080649D02*
X0120506Y0080649D01*
X0119123Y0081248D02*
X0117373Y0081248D01*
X0116774Y0081846D02*
X0118524Y0081846D01*
X0118245Y0082445D02*
X0116175Y0082445D01*
X0115577Y0083043D02*
X0118245Y0083043D01*
X0118245Y0083642D02*
X0114978Y0083642D01*
X0114380Y0084241D02*
X0118546Y0084241D01*
X0119145Y0084839D02*
X0113781Y0084839D01*
X0113183Y0085438D02*
X0135796Y0085438D01*
X0135198Y0086036D02*
X0128502Y0086036D01*
X0128191Y0085725D02*
X0129080Y0086614D01*
X0134620Y0086614D01*
X0136906Y0084328D01*
X0136906Y0083070D01*
X0138189Y0081788D01*
X0140002Y0081788D01*
X0141284Y0083070D01*
X0141284Y0084884D01*
X0140002Y0086166D01*
X0138745Y0086166D01*
X0135697Y0089214D01*
X0129080Y0089214D01*
X0128191Y0090103D01*
X0126378Y0090103D01*
X0125095Y0088821D01*
X0125095Y0087007D01*
X0126378Y0085725D01*
X0128191Y0085725D01*
X0126067Y0086036D02*
X0112584Y0086036D01*
X0111986Y0086635D02*
X0125468Y0086635D01*
X0125095Y0087233D02*
X0111387Y0087233D01*
X0110789Y0087832D02*
X0125095Y0087832D01*
X0125095Y0088430D02*
X0110190Y0088430D01*
X0109592Y0089029D02*
X0125303Y0089029D01*
X0125902Y0089627D02*
X0108993Y0089627D01*
X0108395Y0090226D02*
X0192913Y0090226D01*
X0192913Y0090824D02*
X0107796Y0090824D01*
X0107198Y0091423D02*
X0192913Y0091423D01*
X0192913Y0092021D02*
X0106599Y0092021D01*
X0106001Y0092620D02*
X0192913Y0092620D01*
X0192913Y0093218D02*
X0105402Y0093218D01*
X0104804Y0093817D02*
X0192913Y0093817D01*
X0192491Y0094415D02*
X0104205Y0094415D01*
X0101725Y0093218D02*
X0096260Y0093218D01*
X0096858Y0092620D02*
X0102324Y0092620D01*
X0102922Y0092021D02*
X0097369Y0092021D01*
X0097968Y0091423D02*
X0103521Y0091423D01*
X0104119Y0090824D02*
X0098566Y0090824D01*
X0099165Y0090226D02*
X0104718Y0090226D01*
X0105316Y0089627D02*
X0099763Y0089627D01*
X0100362Y0089029D02*
X0105915Y0089029D01*
X0106513Y0088430D02*
X0100960Y0088430D01*
X0101559Y0087832D02*
X0107112Y0087832D01*
X0107710Y0087233D02*
X0102157Y0087233D01*
X0102756Y0086635D02*
X0108309Y0086635D01*
X0108907Y0086036D02*
X0103354Y0086036D01*
X0103953Y0085438D02*
X0109506Y0085438D01*
X0110104Y0084839D02*
X0104551Y0084839D01*
X0105150Y0084241D02*
X0110703Y0084241D01*
X0111302Y0083642D02*
X0105748Y0083642D01*
X0106347Y0083043D02*
X0111900Y0083043D01*
X0112499Y0082445D02*
X0106945Y0082445D01*
X0107544Y0081846D02*
X0113097Y0081846D01*
X0113696Y0081248D02*
X0108142Y0081248D01*
X0108741Y0080649D02*
X0114294Y0080649D01*
X0114893Y0080051D02*
X0109339Y0080051D01*
X0109938Y0079452D02*
X0115491Y0079452D01*
X0116090Y0078854D02*
X0110536Y0078854D01*
X0111135Y0078255D02*
X0116688Y0078255D01*
X0117287Y0077657D02*
X0111733Y0077657D01*
X0112332Y0077058D02*
X0117885Y0077058D01*
X0118484Y0076460D02*
X0112930Y0076460D01*
X0113529Y0075861D02*
X0119082Y0075861D01*
X0119681Y0075263D02*
X0114127Y0075263D01*
X0114726Y0074664D02*
X0120279Y0074664D01*
X0120878Y0074066D02*
X0115325Y0074066D01*
X0115923Y0073467D02*
X0121476Y0073467D01*
X0122075Y0072869D02*
X0116522Y0072869D01*
X0117120Y0072270D02*
X0122673Y0072270D01*
X0123272Y0071672D02*
X0117719Y0071672D01*
X0118317Y0071073D02*
X0123870Y0071073D01*
X0124469Y0070475D02*
X0118916Y0070475D01*
X0119514Y0069876D02*
X0125067Y0069876D01*
X0125666Y0069278D02*
X0120113Y0069278D01*
X0120711Y0068679D02*
X0126264Y0068679D01*
X0126863Y0068081D02*
X0121310Y0068081D01*
X0121908Y0067482D02*
X0127461Y0067482D01*
X0128060Y0066884D02*
X0122507Y0066884D01*
X0123105Y0066285D02*
X0128658Y0066285D01*
X0129257Y0065687D02*
X0123704Y0065687D01*
X0124302Y0065088D02*
X0129855Y0065088D01*
X0130454Y0064490D02*
X0124901Y0064490D01*
X0125499Y0063891D02*
X0131052Y0063891D01*
X0131651Y0063293D02*
X0126098Y0063293D01*
X0124216Y0061497D02*
X0121089Y0061497D01*
X0121599Y0062007D02*
X0120317Y0060725D01*
X0118504Y0060725D01*
X0117815Y0061414D01*
X0113132Y0061414D01*
X0112443Y0060725D01*
X0110630Y0060725D01*
X0109347Y0062007D01*
X0109347Y0063821D01*
X0110630Y0065103D01*
X0112443Y0065103D01*
X0113132Y0064414D01*
X0117815Y0064414D01*
X0118504Y0065103D01*
X0120317Y0065103D01*
X0121599Y0063821D01*
X0121599Y0062007D01*
X0121599Y0062096D02*
X0123618Y0062096D01*
X0123019Y0062694D02*
X0121599Y0062694D01*
X0121599Y0063293D02*
X0122421Y0063293D01*
X0121822Y0063891D02*
X0121529Y0063891D01*
X0121224Y0064490D02*
X0120930Y0064490D01*
X0120625Y0065088D02*
X0120332Y0065088D01*
X0120027Y0065687D02*
X0069529Y0065687D01*
X0069529Y0066285D02*
X0119428Y0066285D01*
X0118830Y0066884D02*
X0069529Y0066884D01*
X0069529Y0067482D02*
X0118231Y0067482D01*
X0117633Y0068081D02*
X0069529Y0068081D01*
X0069529Y0068679D02*
X0117034Y0068679D01*
X0116436Y0069278D02*
X0069529Y0069278D01*
X0069529Y0069876D02*
X0115837Y0069876D01*
X0115239Y0070475D02*
X0069529Y0070475D01*
X0069529Y0071073D02*
X0114640Y0071073D01*
X0114042Y0071672D02*
X0069529Y0071672D01*
X0069529Y0072270D02*
X0113443Y0072270D01*
X0112845Y0072869D02*
X0069529Y0072869D01*
X0069529Y0073467D02*
X0112246Y0073467D01*
X0111648Y0074066D02*
X0069529Y0074066D01*
X0069529Y0074664D02*
X0111049Y0074664D01*
X0110451Y0075263D02*
X0069529Y0075263D01*
X0069529Y0075861D02*
X0109852Y0075861D01*
X0109254Y0076460D02*
X0069529Y0076460D01*
X0069529Y0077058D02*
X0108655Y0077058D01*
X0108057Y0077657D02*
X0069529Y0077657D01*
X0069529Y0078255D02*
X0107458Y0078255D01*
X0106859Y0078854D02*
X0069529Y0078854D01*
X0069529Y0079452D02*
X0106261Y0079452D01*
X0105662Y0080051D02*
X0069529Y0080051D01*
X0069529Y0080649D02*
X0105064Y0080649D01*
X0104465Y0081248D02*
X0069529Y0081248D01*
X0069529Y0081846D02*
X0103867Y0081846D01*
X0103268Y0082445D02*
X0069529Y0082445D01*
X0069529Y0083043D02*
X0102670Y0083043D01*
X0102071Y0083642D02*
X0069529Y0083642D01*
X0069529Y0084241D02*
X0101473Y0084241D01*
X0100874Y0084839D02*
X0069529Y0084839D01*
X0069529Y0085438D02*
X0100276Y0085438D01*
X0099677Y0086036D02*
X0069529Y0086036D01*
X0069529Y0086635D02*
X0099079Y0086635D01*
X0098480Y0087233D02*
X0069529Y0087233D01*
X0069529Y0087832D02*
X0097882Y0087832D01*
X0097283Y0088430D02*
X0069529Y0088430D01*
X0069529Y0089029D02*
X0096685Y0089029D01*
X0096086Y0089627D02*
X0069529Y0089627D01*
X0069529Y0090226D02*
X0095488Y0090226D01*
X0094889Y0090824D02*
X0069529Y0090824D01*
X0069529Y0091423D02*
X0094378Y0091423D01*
X0093780Y0092021D02*
X0069529Y0092021D01*
X0069529Y0092620D02*
X0093181Y0092620D01*
X0092583Y0093218D02*
X0069529Y0093218D01*
X0069529Y0093817D02*
X0091984Y0093817D01*
X0091386Y0094415D02*
X0069529Y0094415D01*
X0069529Y0095014D02*
X0090787Y0095014D01*
X0090189Y0095612D02*
X0069529Y0095612D01*
X0069529Y0096211D02*
X0089590Y0096211D01*
X0088992Y0096809D02*
X0069529Y0096809D01*
X0069529Y0097408D02*
X0088393Y0097408D01*
X0087795Y0098006D02*
X0069529Y0098006D01*
X0069529Y0098605D02*
X0087196Y0098605D01*
X0086598Y0099203D02*
X0069529Y0099203D01*
X0069529Y0099802D02*
X0085999Y0099802D01*
X0085401Y0100400D02*
X0069529Y0100400D01*
X0069529Y0100999D02*
X0084802Y0100999D01*
X0084204Y0101597D02*
X0069529Y0101597D01*
X0069529Y0102196D02*
X0083605Y0102196D01*
X0083007Y0102794D02*
X0069529Y0102794D01*
X0069529Y0103393D02*
X0082408Y0103393D01*
X0081810Y0103991D02*
X0069529Y0103991D01*
X0069529Y0104590D02*
X0081211Y0104590D01*
X0080612Y0105188D02*
X0069529Y0105188D01*
X0069529Y0105787D02*
X0080014Y0105787D01*
X0079415Y0106385D02*
X0069529Y0106385D01*
X0069529Y0106984D02*
X0078817Y0106984D01*
X0078218Y0107582D02*
X0069529Y0107582D01*
X0070320Y0108181D02*
X0074012Y0108181D01*
X0073344Y0108779D02*
X0070988Y0108779D01*
X0071556Y0109378D02*
X0072776Y0109378D01*
X0072528Y0109976D02*
X0071804Y0109976D01*
X0072052Y0110575D02*
X0072280Y0110575D01*
X0072203Y0111174D02*
X0072129Y0111174D01*
X0072129Y0111772D02*
X0072203Y0111772D01*
X0072227Y0112371D02*
X0072105Y0112371D01*
X0071857Y0112969D02*
X0072475Y0112969D01*
X0072723Y0113568D02*
X0071609Y0113568D01*
X0071115Y0114166D02*
X0073218Y0114166D01*
X0073816Y0114765D02*
X0070516Y0114765D01*
X0070095Y0115962D02*
X0074238Y0115962D01*
X0073438Y0116560D02*
X0070894Y0116560D01*
X0071493Y0117159D02*
X0072839Y0117159D01*
X0072567Y0117757D02*
X0071766Y0117757D01*
X0072014Y0118356D02*
X0072319Y0118356D01*
X0072203Y0118954D02*
X0072129Y0118954D01*
X0072129Y0119553D02*
X0072203Y0119553D01*
X0072203Y0120151D02*
X0072129Y0120151D01*
X0071896Y0120750D02*
X0072437Y0120750D01*
X0072685Y0121348D02*
X0071648Y0121348D01*
X0071208Y0121947D02*
X0073124Y0121947D01*
X0073723Y0122545D02*
X0070610Y0122545D01*
X0069407Y0123144D02*
X0074925Y0123144D01*
X0079522Y0121348D02*
X0079635Y0121348D01*
X0079770Y0120750D02*
X0080234Y0120750D01*
X0080077Y0120151D02*
X0080003Y0120151D01*
X0080003Y0119553D02*
X0080077Y0119553D01*
X0080077Y0118954D02*
X0080003Y0118954D01*
X0079888Y0118356D02*
X0080193Y0118356D01*
X0080441Y0117757D02*
X0079640Y0117757D01*
X0079367Y0117159D02*
X0080713Y0117159D01*
X0081312Y0116560D02*
X0078768Y0116560D01*
X0077969Y0115962D02*
X0082112Y0115962D01*
X0083025Y0115363D02*
X0077055Y0115363D01*
X0078390Y0114765D02*
X0081690Y0114765D01*
X0081092Y0114166D02*
X0078989Y0114166D01*
X0079483Y0113568D02*
X0080597Y0113568D01*
X0080349Y0112969D02*
X0079731Y0112969D01*
X0079979Y0112371D02*
X0080101Y0112371D01*
X0080077Y0111772D02*
X0080003Y0111772D01*
X0080003Y0111174D02*
X0080077Y0111174D01*
X0080154Y0110575D02*
X0079926Y0110575D01*
X0079678Y0109976D02*
X0080402Y0109976D01*
X0080650Y0109378D02*
X0080100Y0109378D01*
X0080698Y0108779D02*
X0081218Y0108779D01*
X0081297Y0108181D02*
X0081886Y0108181D01*
X0081895Y0107582D02*
X0084051Y0107582D01*
X0084649Y0106984D02*
X0082494Y0106984D01*
X0083092Y0106385D02*
X0085248Y0106385D01*
X0085846Y0105787D02*
X0083691Y0105787D01*
X0084289Y0105188D02*
X0086445Y0105188D01*
X0087043Y0104590D02*
X0084888Y0104590D01*
X0085486Y0103991D02*
X0087642Y0103991D01*
X0088240Y0103393D02*
X0086085Y0103393D01*
X0086683Y0102794D02*
X0088839Y0102794D01*
X0089437Y0102196D02*
X0087282Y0102196D01*
X0087880Y0101597D02*
X0090036Y0101597D01*
X0090634Y0100999D02*
X0088479Y0100999D01*
X0089078Y0100400D02*
X0091233Y0100400D01*
X0091831Y0099802D02*
X0089676Y0099802D01*
X0090275Y0099203D02*
X0092430Y0099203D01*
X0093028Y0098605D02*
X0090873Y0098605D01*
X0091472Y0098006D02*
X0093627Y0098006D01*
X0094225Y0097408D02*
X0092070Y0097408D01*
X0092669Y0096809D02*
X0094824Y0096809D01*
X0093866Y0095612D02*
X0099331Y0095612D01*
X0098733Y0096211D02*
X0093267Y0096211D01*
X0094464Y0095014D02*
X0099930Y0095014D01*
X0100528Y0094415D02*
X0095063Y0094415D01*
X0095661Y0093817D02*
X0101127Y0093817D01*
X0098409Y0099203D02*
X0096107Y0099203D01*
X0095508Y0099802D02*
X0097810Y0099802D01*
X0097212Y0100400D02*
X0094910Y0100400D01*
X0094311Y0100999D02*
X0096613Y0100999D01*
X0096015Y0101597D02*
X0093713Y0101597D01*
X0093114Y0102196D02*
X0095416Y0102196D01*
X0094818Y0102794D02*
X0092516Y0102794D01*
X0091917Y0103393D02*
X0094219Y0103393D01*
X0093621Y0103991D02*
X0091319Y0103991D01*
X0090720Y0104590D02*
X0093022Y0104590D01*
X0092424Y0105188D02*
X0090122Y0105188D01*
X0089523Y0105787D02*
X0091825Y0105787D01*
X0091226Y0106385D02*
X0088925Y0106385D01*
X0088326Y0106984D02*
X0090628Y0106984D01*
X0090551Y0107582D02*
X0087728Y0107582D01*
X0087129Y0108181D02*
X0089760Y0108181D01*
X0089092Y0108779D02*
X0086736Y0108779D01*
X0087305Y0109378D02*
X0088524Y0109378D01*
X0088276Y0109976D02*
X0087552Y0109976D01*
X0087800Y0110575D02*
X0088028Y0110575D01*
X0087951Y0111174D02*
X0087877Y0111174D01*
X0087877Y0111772D02*
X0087951Y0111772D01*
X0087975Y0112371D02*
X0087853Y0112371D01*
X0087605Y0112969D02*
X0088223Y0112969D01*
X0088471Y0113568D02*
X0087357Y0113568D01*
X0086863Y0114166D02*
X0088966Y0114166D01*
X0089564Y0114765D02*
X0086264Y0114765D01*
X0085843Y0115962D02*
X0089986Y0115962D01*
X0089186Y0116560D02*
X0086642Y0116560D01*
X0087241Y0117159D02*
X0088587Y0117159D01*
X0088315Y0117757D02*
X0087514Y0117757D01*
X0087762Y0118356D02*
X0088067Y0118356D01*
X0087951Y0118954D02*
X0087877Y0118954D01*
X0087877Y0119553D02*
X0087951Y0119553D01*
X0087951Y0120151D02*
X0087877Y0120151D01*
X0088108Y0120750D02*
X0087644Y0120750D01*
X0087509Y0121348D02*
X0087396Y0121348D01*
X0089923Y0123742D02*
X0096873Y0123742D01*
X0096873Y0123144D02*
X0093029Y0123144D01*
X0094232Y0122545D02*
X0096873Y0122545D01*
X0096873Y0121947D02*
X0094830Y0121947D01*
X0095270Y0121348D02*
X0097054Y0121348D01*
X0097652Y0120750D02*
X0095518Y0120750D01*
X0095751Y0120151D02*
X0098251Y0120151D01*
X0098849Y0119553D02*
X0095751Y0119553D01*
X0095751Y0118954D02*
X0099448Y0118954D01*
X0100047Y0118356D02*
X0095636Y0118356D01*
X0095388Y0117757D02*
X0100645Y0117757D01*
X0101244Y0117159D02*
X0095115Y0117159D01*
X0094516Y0116560D02*
X0101842Y0116560D01*
X0102441Y0115962D02*
X0093717Y0115962D01*
X0092803Y0115363D02*
X0103039Y0115363D01*
X0103638Y0114765D02*
X0094138Y0114765D01*
X0094737Y0114166D02*
X0104236Y0114166D01*
X0106052Y0117159D02*
X0111504Y0117159D01*
X0096328Y0124341D02*
X0089325Y0124341D01*
X0088726Y0124939D02*
X0095729Y0124939D01*
X0095130Y0125538D02*
X0088128Y0125538D01*
X0087529Y0126136D02*
X0094532Y0126136D01*
X0093933Y0126735D02*
X0086931Y0126735D01*
X0086332Y0127333D02*
X0093335Y0127333D01*
X0092736Y0127932D02*
X0085734Y0127932D01*
X0085677Y0128530D02*
X0092138Y0128530D01*
X0091539Y0129129D02*
X0085677Y0129129D01*
X0085677Y0129727D02*
X0090941Y0129727D01*
X0090342Y0130326D02*
X0086166Y0130326D01*
X0086166Y0130924D02*
X0089744Y0130924D01*
X0089145Y0131523D02*
X0086166Y0131523D01*
X0086166Y0132121D02*
X0088547Y0132121D01*
X0087948Y0132720D02*
X0085574Y0132720D01*
X0084976Y0133318D02*
X0087350Y0133318D01*
X0090363Y0135114D02*
X0171089Y0135114D01*
X0170491Y0134515D02*
X0090961Y0134515D01*
X0091560Y0133917D02*
X0170392Y0133917D01*
X0170392Y0133318D02*
X0092158Y0133318D01*
X0092757Y0132720D02*
X0170392Y0132720D01*
X0170874Y0132121D02*
X0093355Y0132121D01*
X0093954Y0131523D02*
X0171473Y0131523D01*
X0173328Y0130924D02*
X0094552Y0130924D01*
X0095151Y0130326D02*
X0173927Y0130326D01*
X0174525Y0129727D02*
X0095749Y0129727D01*
X0090673Y0123144D02*
X0090522Y0123144D01*
X0090899Y0115363D02*
X0084929Y0115363D01*
X0075151Y0115363D02*
X0069181Y0115363D01*
X0066929Y0106984D02*
X0061655Y0106984D01*
X0061655Y0106385D02*
X0066929Y0106385D01*
X0066929Y0105787D02*
X0061655Y0105787D01*
X0061655Y0105188D02*
X0066929Y0105188D01*
X0066929Y0104590D02*
X0061655Y0104590D01*
X0061655Y0103991D02*
X0066929Y0103991D01*
X0066929Y0103393D02*
X0061655Y0103393D01*
X0061655Y0102794D02*
X0066929Y0102794D01*
X0066929Y0102196D02*
X0061655Y0102196D01*
X0061655Y0101597D02*
X0066929Y0101597D01*
X0066929Y0100999D02*
X0061655Y0100999D01*
X0061655Y0100400D02*
X0066929Y0100400D01*
X0066929Y0099802D02*
X0061655Y0099802D01*
X0061655Y0099203D02*
X0066929Y0099203D01*
X0066929Y0098605D02*
X0061655Y0098605D01*
X0061655Y0098006D02*
X0066929Y0098006D01*
X0066929Y0097408D02*
X0061655Y0097408D01*
X0061655Y0096809D02*
X0066929Y0096809D01*
X0066929Y0096211D02*
X0061655Y0096211D01*
X0061655Y0095612D02*
X0066929Y0095612D01*
X0066929Y0095014D02*
X0061655Y0095014D01*
X0061655Y0094415D02*
X0066929Y0094415D01*
X0066929Y0093817D02*
X0061655Y0093817D01*
X0061655Y0093218D02*
X0066929Y0093218D01*
X0066929Y0092620D02*
X0061655Y0092620D01*
X0061655Y0092021D02*
X0066929Y0092021D01*
X0066929Y0091423D02*
X0061655Y0091423D01*
X0061655Y0090824D02*
X0066929Y0090824D01*
X0066929Y0090226D02*
X0061655Y0090226D01*
X0061655Y0089627D02*
X0066929Y0089627D01*
X0066929Y0089029D02*
X0061655Y0089029D01*
X0061655Y0088430D02*
X0066929Y0088430D01*
X0066929Y0087832D02*
X0061655Y0087832D01*
X0061655Y0087233D02*
X0066929Y0087233D01*
X0066929Y0086635D02*
X0061655Y0086635D01*
X0061655Y0086036D02*
X0066929Y0086036D01*
X0066929Y0085438D02*
X0061655Y0085438D01*
X0061655Y0084839D02*
X0066929Y0084839D01*
X0066929Y0084241D02*
X0061655Y0084241D01*
X0061655Y0083642D02*
X0066929Y0083642D01*
X0066929Y0083043D02*
X0061655Y0083043D01*
X0061655Y0082445D02*
X0066929Y0082445D01*
X0066929Y0081846D02*
X0061655Y0081846D01*
X0061655Y0081248D02*
X0066929Y0081248D01*
X0066929Y0080649D02*
X0061655Y0080649D01*
X0061655Y0080051D02*
X0066929Y0080051D01*
X0066929Y0079452D02*
X0061655Y0079452D01*
X0061655Y0078854D02*
X0066929Y0078854D01*
X0066929Y0078255D02*
X0061655Y0078255D01*
X0061655Y0077657D02*
X0066929Y0077657D01*
X0066929Y0077058D02*
X0061655Y0077058D01*
X0061655Y0076460D02*
X0066929Y0076460D01*
X0066929Y0075861D02*
X0061655Y0075861D01*
X0061655Y0075263D02*
X0066929Y0075263D01*
X0066929Y0074664D02*
X0061655Y0074664D01*
X0061655Y0074066D02*
X0066929Y0074066D01*
X0066929Y0073467D02*
X0061655Y0073467D01*
X0061655Y0072869D02*
X0066929Y0072869D01*
X0066929Y0072270D02*
X0061655Y0072270D01*
X0061655Y0071672D02*
X0066929Y0071672D01*
X0066929Y0071073D02*
X0061655Y0071073D01*
X0061655Y0070475D02*
X0066929Y0070475D01*
X0066929Y0069876D02*
X0061655Y0069876D01*
X0061655Y0069278D02*
X0066929Y0069278D01*
X0066929Y0068679D02*
X0061655Y0068679D01*
X0061655Y0068081D02*
X0066929Y0068081D01*
X0066929Y0067482D02*
X0061655Y0067482D01*
X0061655Y0066884D02*
X0066929Y0066884D01*
X0066929Y0066285D02*
X0061655Y0066285D01*
X0061655Y0065687D02*
X0066929Y0065687D01*
X0066929Y0065088D02*
X0061655Y0065088D01*
X0061655Y0064490D02*
X0066929Y0064490D01*
X0066929Y0063891D02*
X0061655Y0063891D01*
X0061655Y0063293D02*
X0067390Y0063293D01*
X0069870Y0064490D02*
X0110016Y0064490D01*
X0110615Y0065088D02*
X0069529Y0065088D01*
X0070469Y0063891D02*
X0109417Y0063891D01*
X0109347Y0063293D02*
X0071067Y0063293D01*
X0071666Y0062694D02*
X0109347Y0062694D01*
X0109347Y0062096D02*
X0072264Y0062096D01*
X0072863Y0061497D02*
X0109858Y0061497D01*
X0110456Y0060899D02*
X0073461Y0060899D01*
X0074060Y0060300D02*
X0125413Y0060300D01*
X0124815Y0060899D02*
X0120490Y0060899D01*
X0118330Y0060899D02*
X0112616Y0060899D01*
X0113056Y0064490D02*
X0117890Y0064490D01*
X0118489Y0065088D02*
X0112458Y0065088D01*
X0126012Y0059702D02*
X0074658Y0059702D01*
X0075257Y0059103D02*
X0126610Y0059103D01*
X0132934Y0065687D02*
X0176764Y0065687D01*
X0177363Y0066285D02*
X0132335Y0066285D01*
X0130077Y0079452D02*
X0192913Y0079452D01*
X0192913Y0080051D02*
X0130675Y0080051D01*
X0131259Y0080649D02*
X0192913Y0080649D01*
X0192913Y0081248D02*
X0131259Y0081248D01*
X0131259Y0081846D02*
X0138130Y0081846D01*
X0137532Y0082445D02*
X0131259Y0082445D01*
X0130664Y0083043D02*
X0136933Y0083043D01*
X0136906Y0083642D02*
X0130066Y0083642D01*
X0128075Y0083642D02*
X0122623Y0083642D01*
X0122623Y0083043D02*
X0127476Y0083043D01*
X0122321Y0084241D02*
X0136906Y0084241D01*
X0136395Y0084839D02*
X0121723Y0084839D01*
X0128667Y0089627D02*
X0192913Y0089627D01*
X0192913Y0089029D02*
X0135882Y0089029D01*
X0136481Y0088430D02*
X0192913Y0088430D01*
X0192913Y0087832D02*
X0137079Y0087832D01*
X0137678Y0087233D02*
X0192913Y0087233D01*
X0192913Y0086635D02*
X0138276Y0086635D01*
X0140132Y0086036D02*
X0192913Y0086036D01*
X0192913Y0085438D02*
X0140731Y0085438D01*
X0141284Y0084839D02*
X0192913Y0084839D01*
X0192913Y0084241D02*
X0141284Y0084241D01*
X0141284Y0083642D02*
X0192913Y0083642D01*
X0192913Y0083043D02*
X0141257Y0083043D01*
X0140659Y0082445D02*
X0192913Y0082445D01*
X0192913Y0081846D02*
X0140060Y0081846D01*
X0132505Y0105787D02*
X0182182Y0105787D01*
X0182182Y0105188D02*
X0130649Y0105188D01*
X0133103Y0106385D02*
X0181778Y0106385D01*
X0181179Y0106984D02*
X0133410Y0106984D01*
X0133410Y0107582D02*
X0180581Y0107582D01*
X0179982Y0108181D02*
X0133641Y0108181D01*
X0134240Y0108779D02*
X0179384Y0108779D01*
X0178785Y0109378D02*
X0134838Y0109378D01*
X0135437Y0109976D02*
X0178187Y0109976D01*
X0177588Y0110575D02*
X0136036Y0110575D01*
X0136634Y0111174D02*
X0176990Y0111174D01*
X0176391Y0111772D02*
X0137233Y0111772D01*
X0137831Y0112371D02*
X0175793Y0112371D01*
X0175194Y0112969D02*
X0138430Y0112969D01*
X0139028Y0113568D02*
X0174596Y0113568D01*
X0173997Y0114166D02*
X0139627Y0114166D01*
X0140225Y0114765D02*
X0145881Y0114765D01*
X0145283Y0115363D02*
X0140824Y0115363D01*
X0141422Y0115962D02*
X0144768Y0115962D01*
X0144768Y0116560D02*
X0142021Y0116560D01*
X0142619Y0117159D02*
X0144768Y0117159D01*
X0144835Y0117757D02*
X0143218Y0117757D01*
X0143816Y0118356D02*
X0145433Y0118356D01*
X0146032Y0118954D02*
X0144415Y0118954D01*
X0148033Y0114765D02*
X0173399Y0114765D01*
X0172800Y0115363D02*
X0148632Y0115363D01*
X0174083Y0117757D02*
X0216393Y0117757D01*
X0219278Y0117757D02*
X0224409Y0117757D01*
X0224409Y0117159D02*
X0174681Y0117159D01*
X0175280Y0116560D02*
X0224409Y0116560D01*
X0224409Y0115962D02*
X0175878Y0115962D01*
X0176477Y0115363D02*
X0224409Y0115363D01*
X0224409Y0114765D02*
X0177075Y0114765D01*
X0177674Y0114166D02*
X0224409Y0114166D01*
X0224409Y0113568D02*
X0195278Y0113568D01*
X0195876Y0112969D02*
X0224409Y0112969D01*
X0224409Y0112371D02*
X0196402Y0112371D01*
X0196402Y0111772D02*
X0224409Y0111772D01*
X0224409Y0111174D02*
X0196402Y0111174D01*
X0196348Y0110575D02*
X0224409Y0110575D01*
X0224409Y0109976D02*
X0195749Y0109976D01*
X0195151Y0109378D02*
X0224409Y0109378D01*
X0224409Y0108779D02*
X0192595Y0108779D01*
X0191997Y0108181D02*
X0224409Y0108181D01*
X0224409Y0118356D02*
X0219877Y0118356D01*
X0220024Y0118954D02*
X0224409Y0118954D01*
X0224409Y0119553D02*
X0220024Y0119553D01*
X0220024Y0120151D02*
X0224409Y0120151D01*
X0224409Y0120750D02*
X0219592Y0120750D01*
X0218993Y0121348D02*
X0224409Y0121348D01*
X0224409Y0121947D02*
X0217137Y0121947D01*
X0216539Y0122545D02*
X0224409Y0122545D01*
X0224409Y0127932D02*
X0217731Y0127932D01*
X0218578Y0128530D02*
X0224409Y0128530D01*
X0224409Y0129129D02*
X0219243Y0129129D01*
X0219908Y0129727D02*
X0224409Y0129727D01*
X0224409Y0130326D02*
X0220566Y0130326D01*
X0220833Y0130924D02*
X0224409Y0130924D01*
X0224409Y0131523D02*
X0221099Y0131523D01*
X0221366Y0132121D02*
X0224409Y0132121D01*
X0224409Y0132720D02*
X0221632Y0132720D01*
X0221899Y0133318D02*
X0224409Y0133318D01*
X0224409Y0133917D02*
X0221955Y0133917D01*
X0221955Y0134515D02*
X0224409Y0134515D01*
X0224409Y0135114D02*
X0221955Y0135114D01*
X0221955Y0135712D02*
X0224409Y0135712D01*
X0224409Y0136311D02*
X0221955Y0136311D01*
X0221938Y0136909D02*
X0224409Y0136909D01*
X0224409Y0137508D02*
X0221672Y0137508D01*
X0221405Y0138107D02*
X0224409Y0138107D01*
X0223978Y0138705D02*
X0221139Y0138705D01*
X0220872Y0139304D02*
X0223380Y0139304D01*
X0222781Y0139902D02*
X0220606Y0139902D01*
X0220006Y0140501D02*
X0222183Y0140501D01*
X0221584Y0141099D02*
X0219341Y0141099D01*
X0218677Y0141698D02*
X0220986Y0141698D01*
X0220387Y0142296D02*
X0218003Y0142296D01*
X0219190Y0143493D02*
X0145756Y0143493D01*
X0146354Y0144092D02*
X0218592Y0144092D01*
X0217993Y0144690D02*
X0146953Y0144690D01*
X0147551Y0145289D02*
X0217395Y0145289D01*
X0216161Y0142895D02*
X0219789Y0142895D01*
X0211184Y0142895D02*
X0145157Y0142895D01*
X0144559Y0142296D02*
X0210148Y0142296D01*
X0209111Y0141698D02*
X0143960Y0141698D01*
X0143362Y0141099D02*
X0208256Y0141099D01*
X0207821Y0140501D02*
X0142763Y0140501D01*
X0142165Y0139902D02*
X0207386Y0139902D01*
X0206951Y0139304D02*
X0141566Y0139304D01*
X0140968Y0138705D02*
X0206516Y0138705D01*
X0206288Y0138107D02*
X0140369Y0138107D01*
X0139771Y0137508D02*
X0206161Y0137508D01*
X0193149Y0113568D02*
X0178272Y0113568D01*
X0178871Y0112969D02*
X0192551Y0112969D01*
X0192024Y0112371D02*
X0179470Y0112371D01*
X0180068Y0111772D02*
X0191911Y0111772D01*
X0191312Y0111174D02*
X0180667Y0111174D01*
X0181265Y0110575D02*
X0190714Y0110575D01*
X0190115Y0109976D02*
X0181864Y0109976D01*
X0182462Y0109378D02*
X0189517Y0109378D01*
X0188918Y0108779D02*
X0183061Y0108779D01*
X0183659Y0108181D02*
X0188320Y0108181D01*
X0187721Y0107582D02*
X0185515Y0107582D01*
X0186113Y0106984D02*
X0187123Y0106984D01*
X0189004Y0105188D02*
X0197850Y0105188D01*
X0197850Y0104590D02*
X0188406Y0104590D01*
X0187807Y0103991D02*
X0197850Y0103991D01*
X0197850Y0103393D02*
X0187209Y0103393D01*
X0186610Y0102794D02*
X0197850Y0102794D01*
X0197850Y0102196D02*
X0186012Y0102196D01*
X0189603Y0105787D02*
X0197850Y0105787D01*
X0197850Y0106385D02*
X0190201Y0106385D01*
X0190800Y0106984D02*
X0197850Y0106984D01*
X0197850Y0107582D02*
X0191398Y0107582D01*
X0193194Y0109378D02*
X0193276Y0109378D01*
X0193157Y0098006D02*
X0183779Y0098006D01*
X0181923Y0097408D02*
X0192737Y0097408D01*
X0192139Y0096809D02*
X0181325Y0096809D01*
X0180726Y0096211D02*
X0192024Y0096211D01*
X0192024Y0095612D02*
X0180128Y0095612D01*
X0179529Y0095014D02*
X0192024Y0095014D01*
X0185094Y0058505D02*
X0075855Y0058505D01*
X0056455Y0108181D02*
X0045907Y0108181D01*
X0045907Y0108779D02*
X0056455Y0108779D01*
X0056455Y0109378D02*
X0045907Y0109378D01*
X0045907Y0109976D02*
X0056455Y0109976D01*
X0056455Y0110575D02*
X0045907Y0110575D01*
X0045907Y0111174D02*
X0056455Y0111174D01*
X0056455Y0111772D02*
X0045907Y0111772D01*
X0045907Y0112371D02*
X0056455Y0112371D01*
X0056455Y0112969D02*
X0045907Y0112969D01*
X0045907Y0113568D02*
X0056455Y0113568D01*
X0056455Y0114166D02*
X0045907Y0114166D01*
X0045907Y0114765D02*
X0056455Y0114765D01*
X0056569Y0115363D02*
X0045907Y0115363D01*
X0045907Y0115962D02*
X0056129Y0115962D01*
X0056055Y0116560D02*
X0045907Y0116560D01*
X0045907Y0117159D02*
X0056055Y0117159D01*
X0056055Y0117757D02*
X0045907Y0117757D01*
X0045907Y0118356D02*
X0056055Y0118356D01*
X0056055Y0118954D02*
X0045907Y0118954D01*
X0058408Y0127333D02*
X0078340Y0127333D01*
X0078340Y0127932D02*
X0060250Y0127932D01*
X0061098Y0128530D02*
X0078340Y0128530D01*
X0078340Y0129129D02*
X0061763Y0129129D01*
X0062427Y0129727D02*
X0078340Y0129727D01*
X0078340Y0130326D02*
X0063086Y0130326D01*
X0063353Y0130924D02*
X0078340Y0130924D01*
X0078340Y0131523D02*
X0063619Y0131523D01*
X0063885Y0132121D02*
X0078536Y0132121D01*
X0079135Y0132720D02*
X0064152Y0132720D01*
X0064418Y0133318D02*
X0079733Y0133318D01*
X0080332Y0133917D02*
X0064475Y0133917D01*
X0064475Y0134515D02*
X0080930Y0134515D01*
X0081529Y0135114D02*
X0064475Y0135114D01*
X0064475Y0135712D02*
X0082127Y0135712D01*
X0082726Y0136311D02*
X0064475Y0136311D01*
D17*
X0111536Y0062914D02*
X0119410Y0062914D01*
M02*
