G75*
%MOIN*%
%OFA0B0*%
%FSLAX25Y25*%
%IPPOS*%
%LPD*%
%AMOC8*
5,1,8,0,0,1.08239X$1,22.5*
%
%ADD10C,0.00000*%
%ADD11C,0.00600*%
%ADD12C,0.00400*%
%ADD13C,0.00800*%
%ADD14C,0.00500*%
%ADD15C,0.00100*%
%ADD16C,0.01000*%
%ADD17C,0.00300*%
%ADD18C,0.01600*%
%ADD19C,0.00700*%
D10*
X0044607Y0013111D02*
X0044607Y0064292D01*
X0044607Y0087914D02*
X0044607Y0139095D01*
X0052481Y0146969D02*
X0123347Y0146969D01*
X0146969Y0146969D02*
X0217835Y0146969D01*
X0225709Y0139095D02*
X0225709Y0013111D01*
X0217835Y0005237D02*
X0146969Y0005237D01*
X0123347Y0005237D02*
X0052481Y0005237D01*
D11*
X0068173Y0022579D02*
X0068173Y0023301D01*
X0068175Y0023354D01*
X0068181Y0023406D01*
X0068190Y0023458D01*
X0068204Y0023509D01*
X0068221Y0023559D01*
X0068241Y0023607D01*
X0068265Y0023654D01*
X0068293Y0023699D01*
X0068324Y0023742D01*
X0068357Y0023783D01*
X0068394Y0023821D01*
X0068433Y0023856D01*
X0068475Y0023888D01*
X0068519Y0023917D01*
X0068565Y0023943D01*
X0068613Y0023965D01*
X0068662Y0023984D01*
X0068712Y0024000D01*
X0068764Y0024011D01*
X0068816Y0024019D01*
X0068869Y0024023D01*
X0068921Y0024023D01*
X0068974Y0024019D01*
X0069026Y0024011D01*
X0069078Y0024000D01*
X0069128Y0023984D01*
X0069177Y0023965D01*
X0069225Y0023943D01*
X0069271Y0023917D01*
X0069315Y0023888D01*
X0069357Y0023856D01*
X0069396Y0023821D01*
X0069433Y0023783D01*
X0069466Y0023742D01*
X0069497Y0023699D01*
X0069525Y0023654D01*
X0069549Y0023607D01*
X0069569Y0023559D01*
X0069586Y0023509D01*
X0069600Y0023458D01*
X0069609Y0023406D01*
X0069615Y0023354D01*
X0069617Y0023301D01*
X0069617Y0022579D01*
X0069617Y0023445D02*
X0070773Y0024023D01*
X0070773Y0025428D02*
X0070773Y0026872D01*
X0070773Y0026150D02*
X0068173Y0026150D01*
X0068751Y0025428D01*
X0068173Y0022579D02*
X0070773Y0022579D01*
X0080046Y0022449D02*
X0080046Y0023171D01*
X0080048Y0023223D01*
X0080053Y0023274D01*
X0080063Y0023324D01*
X0080075Y0023374D01*
X0080092Y0023423D01*
X0080111Y0023471D01*
X0080134Y0023517D01*
X0080161Y0023561D01*
X0080190Y0023604D01*
X0080222Y0023644D01*
X0080257Y0023682D01*
X0080295Y0023717D01*
X0080335Y0023749D01*
X0080378Y0023778D01*
X0080422Y0023805D01*
X0080468Y0023828D01*
X0080516Y0023847D01*
X0080565Y0023864D01*
X0080615Y0023877D01*
X0080665Y0023886D01*
X0080717Y0023891D01*
X0080768Y0023893D01*
X0081923Y0023893D01*
X0081975Y0023891D01*
X0082026Y0023886D01*
X0082076Y0023877D01*
X0082126Y0023864D01*
X0082175Y0023847D01*
X0082223Y0023828D01*
X0082269Y0023805D01*
X0082313Y0023778D01*
X0082356Y0023749D01*
X0082396Y0023717D01*
X0082434Y0023682D01*
X0082469Y0023644D01*
X0082501Y0023604D01*
X0082530Y0023561D01*
X0082557Y0023517D01*
X0082580Y0023471D01*
X0082599Y0023423D01*
X0082616Y0023374D01*
X0082629Y0023324D01*
X0082638Y0023274D01*
X0082643Y0023223D01*
X0082645Y0023171D01*
X0082646Y0023171D02*
X0082646Y0022449D01*
X0080046Y0022449D01*
X0080046Y0021118D02*
X0080046Y0019962D01*
X0082646Y0019962D01*
X0082646Y0021118D01*
X0081201Y0020829D02*
X0081201Y0019962D01*
X0082646Y0018622D02*
X0082646Y0017466D01*
X0080046Y0017466D01*
X0087464Y0012482D02*
X0087464Y0011904D01*
X0087466Y0011856D01*
X0087472Y0011809D01*
X0087482Y0011762D01*
X0087495Y0011716D01*
X0087513Y0011672D01*
X0087534Y0011629D01*
X0087558Y0011588D01*
X0087586Y0011549D01*
X0087617Y0011513D01*
X0087651Y0011479D01*
X0087687Y0011448D01*
X0087726Y0011420D01*
X0087767Y0011396D01*
X0087810Y0011375D01*
X0087854Y0011357D01*
X0087900Y0011344D01*
X0087947Y0011334D01*
X0087994Y0011328D01*
X0088042Y0011326D01*
X0088042Y0011327D02*
X0089486Y0011327D01*
X0089486Y0011326D02*
X0089534Y0011328D01*
X0089581Y0011334D01*
X0089628Y0011344D01*
X0089674Y0011357D01*
X0089718Y0011375D01*
X0089761Y0011396D01*
X0089802Y0011420D01*
X0089841Y0011448D01*
X0089877Y0011479D01*
X0089911Y0011513D01*
X0089942Y0011549D01*
X0089970Y0011588D01*
X0089994Y0011629D01*
X0090015Y0011672D01*
X0090033Y0011716D01*
X0090046Y0011762D01*
X0090056Y0011809D01*
X0090062Y0011856D01*
X0090064Y0011904D01*
X0090064Y0012482D01*
X0090065Y0014029D02*
X0090063Y0014096D01*
X0090057Y0014163D01*
X0090047Y0014230D01*
X0090034Y0014296D01*
X0090016Y0014361D01*
X0089995Y0014424D01*
X0089970Y0014487D01*
X0089942Y0014548D01*
X0089910Y0014607D01*
X0089875Y0014664D01*
X0089836Y0014719D01*
X0089795Y0014772D01*
X0089750Y0014822D01*
X0089702Y0014870D01*
X0089652Y0014915D01*
X0089599Y0014956D01*
X0089544Y0014995D01*
X0089487Y0015030D01*
X0089428Y0015062D01*
X0089367Y0015090D01*
X0089304Y0015115D01*
X0089241Y0015136D01*
X0089176Y0015154D01*
X0089110Y0015167D01*
X0089043Y0015177D01*
X0088976Y0015183D01*
X0088909Y0015185D01*
X0088186Y0015185D01*
X0088133Y0015183D01*
X0088081Y0015177D01*
X0088029Y0015168D01*
X0087978Y0015154D01*
X0087928Y0015137D01*
X0087880Y0015117D01*
X0087833Y0015093D01*
X0087788Y0015065D01*
X0087745Y0015034D01*
X0087704Y0015001D01*
X0087666Y0014964D01*
X0087631Y0014925D01*
X0087599Y0014883D01*
X0087570Y0014839D01*
X0087544Y0014793D01*
X0087522Y0014745D01*
X0087503Y0014696D01*
X0087487Y0014646D01*
X0087476Y0014594D01*
X0087468Y0014542D01*
X0087464Y0014489D01*
X0087464Y0014437D01*
X0087468Y0014384D01*
X0087476Y0014332D01*
X0087487Y0014280D01*
X0087503Y0014230D01*
X0087522Y0014181D01*
X0087544Y0014133D01*
X0087570Y0014087D01*
X0087599Y0014043D01*
X0087631Y0014001D01*
X0087666Y0013962D01*
X0087704Y0013925D01*
X0087745Y0013892D01*
X0087788Y0013861D01*
X0087833Y0013833D01*
X0087880Y0013809D01*
X0087928Y0013789D01*
X0087978Y0013772D01*
X0088029Y0013758D01*
X0088081Y0013749D01*
X0088133Y0013743D01*
X0088186Y0013741D01*
X0088331Y0013741D01*
X0088331Y0013740D02*
X0088376Y0013742D01*
X0088421Y0013747D01*
X0088466Y0013756D01*
X0088510Y0013768D01*
X0088552Y0013784D01*
X0088593Y0013803D01*
X0088633Y0013825D01*
X0088671Y0013850D01*
X0088706Y0013878D01*
X0088740Y0013909D01*
X0088771Y0013943D01*
X0088799Y0013978D01*
X0088824Y0014016D01*
X0088846Y0014056D01*
X0088865Y0014097D01*
X0088881Y0014139D01*
X0088893Y0014183D01*
X0088902Y0014228D01*
X0088907Y0014273D01*
X0088909Y0014318D01*
X0088909Y0015185D01*
X0095339Y0014463D02*
X0095341Y0014507D01*
X0095346Y0014551D01*
X0095355Y0014594D01*
X0095368Y0014636D01*
X0095384Y0014678D01*
X0095403Y0014717D01*
X0095426Y0014755D01*
X0095452Y0014791D01*
X0095480Y0014825D01*
X0095511Y0014856D01*
X0095545Y0014885D01*
X0095581Y0014910D01*
X0095619Y0014933D01*
X0095659Y0014952D01*
X0095700Y0014968D01*
X0095916Y0015041D02*
X0097360Y0013885D01*
X0097938Y0014463D02*
X0097936Y0014507D01*
X0097931Y0014551D01*
X0097922Y0014594D01*
X0097909Y0014636D01*
X0097893Y0014678D01*
X0097874Y0014717D01*
X0097851Y0014755D01*
X0097825Y0014791D01*
X0097797Y0014825D01*
X0097766Y0014856D01*
X0097732Y0014884D01*
X0097696Y0014910D01*
X0097658Y0014933D01*
X0097618Y0014952D01*
X0097577Y0014968D01*
X0097938Y0014463D02*
X0097936Y0014419D01*
X0097931Y0014375D01*
X0097922Y0014332D01*
X0097909Y0014290D01*
X0097893Y0014248D01*
X0097874Y0014209D01*
X0097851Y0014171D01*
X0097825Y0014135D01*
X0097797Y0014101D01*
X0097766Y0014070D01*
X0097732Y0014042D01*
X0097696Y0014016D01*
X0097658Y0013993D01*
X0097618Y0013974D01*
X0097577Y0013958D01*
X0096638Y0015186D02*
X0096550Y0015184D01*
X0096461Y0015179D01*
X0096374Y0015170D01*
X0096286Y0015157D01*
X0096199Y0015141D01*
X0096113Y0015121D01*
X0096028Y0015097D01*
X0095944Y0015070D01*
X0095861Y0015040D01*
X0095779Y0015006D01*
X0095699Y0014969D01*
X0095339Y0014463D02*
X0095341Y0014419D01*
X0095346Y0014375D01*
X0095355Y0014332D01*
X0095368Y0014290D01*
X0095384Y0014248D01*
X0095403Y0014209D01*
X0095426Y0014171D01*
X0095452Y0014135D01*
X0095480Y0014101D01*
X0095511Y0014070D01*
X0095545Y0014042D01*
X0095581Y0014016D01*
X0095619Y0013993D01*
X0095659Y0013974D01*
X0095700Y0013958D01*
X0096638Y0015185D02*
X0096726Y0015183D01*
X0096815Y0015178D01*
X0096902Y0015169D01*
X0096990Y0015156D01*
X0097077Y0015140D01*
X0097163Y0015120D01*
X0097248Y0015096D01*
X0097332Y0015069D01*
X0097415Y0015039D01*
X0097497Y0015005D01*
X0097577Y0014968D01*
X0096638Y0013740D02*
X0096550Y0013742D01*
X0096461Y0013747D01*
X0096374Y0013756D01*
X0096286Y0013769D01*
X0096199Y0013785D01*
X0096113Y0013805D01*
X0096028Y0013829D01*
X0095944Y0013856D01*
X0095861Y0013886D01*
X0095779Y0013920D01*
X0095699Y0013957D01*
X0096638Y0013740D02*
X0096726Y0013742D01*
X0096815Y0013747D01*
X0096902Y0013756D01*
X0096990Y0013769D01*
X0097077Y0013785D01*
X0097163Y0013805D01*
X0097248Y0013829D01*
X0097332Y0013856D01*
X0097415Y0013886D01*
X0097497Y0013920D01*
X0097577Y0013957D01*
X0097938Y0012305D02*
X0097938Y0010861D01*
X0097938Y0011583D02*
X0095338Y0011583D01*
X0095916Y0010861D01*
X0095338Y0009602D02*
X0095338Y0009024D01*
X0095340Y0008976D01*
X0095346Y0008929D01*
X0095356Y0008882D01*
X0095369Y0008836D01*
X0095387Y0008792D01*
X0095408Y0008749D01*
X0095432Y0008708D01*
X0095460Y0008669D01*
X0095491Y0008633D01*
X0095525Y0008599D01*
X0095561Y0008568D01*
X0095600Y0008540D01*
X0095641Y0008516D01*
X0095684Y0008495D01*
X0095728Y0008477D01*
X0095774Y0008464D01*
X0095821Y0008454D01*
X0095868Y0008448D01*
X0095916Y0008446D01*
X0095916Y0008447D02*
X0097360Y0008447D01*
X0097360Y0008446D02*
X0097408Y0008448D01*
X0097455Y0008454D01*
X0097502Y0008464D01*
X0097548Y0008477D01*
X0097592Y0008495D01*
X0097635Y0008516D01*
X0097676Y0008540D01*
X0097715Y0008568D01*
X0097751Y0008599D01*
X0097785Y0008633D01*
X0097816Y0008669D01*
X0097844Y0008708D01*
X0097868Y0008749D01*
X0097889Y0008792D01*
X0097907Y0008836D01*
X0097920Y0008882D01*
X0097930Y0008929D01*
X0097936Y0008976D01*
X0097938Y0009024D01*
X0097938Y0009602D01*
X0103212Y0009602D02*
X0103212Y0009024D01*
X0103214Y0008976D01*
X0103220Y0008929D01*
X0103230Y0008882D01*
X0103243Y0008836D01*
X0103261Y0008792D01*
X0103282Y0008749D01*
X0103306Y0008708D01*
X0103334Y0008669D01*
X0103365Y0008633D01*
X0103399Y0008599D01*
X0103435Y0008568D01*
X0103474Y0008540D01*
X0103515Y0008516D01*
X0103558Y0008495D01*
X0103602Y0008477D01*
X0103648Y0008464D01*
X0103695Y0008454D01*
X0103742Y0008448D01*
X0103790Y0008446D01*
X0103790Y0008447D02*
X0105234Y0008447D01*
X0105234Y0008446D02*
X0105282Y0008448D01*
X0105329Y0008454D01*
X0105376Y0008464D01*
X0105422Y0008477D01*
X0105466Y0008495D01*
X0105509Y0008516D01*
X0105550Y0008540D01*
X0105589Y0008568D01*
X0105625Y0008599D01*
X0105659Y0008633D01*
X0105690Y0008669D01*
X0105718Y0008708D01*
X0105742Y0008749D01*
X0105763Y0008792D01*
X0105781Y0008836D01*
X0105794Y0008882D01*
X0105804Y0008929D01*
X0105810Y0008976D01*
X0105812Y0009024D01*
X0105812Y0009602D01*
X0105812Y0010861D02*
X0105812Y0012305D01*
X0105812Y0011583D02*
X0103212Y0011583D01*
X0103790Y0010861D01*
X0105812Y0013741D02*
X0105812Y0015185D01*
X0105812Y0013741D02*
X0104368Y0014968D01*
X0103212Y0014535D02*
X0103214Y0014480D01*
X0103219Y0014425D01*
X0103228Y0014370D01*
X0103241Y0014317D01*
X0103257Y0014264D01*
X0103277Y0014212D01*
X0103300Y0014162D01*
X0103326Y0014113D01*
X0103356Y0014066D01*
X0103388Y0014022D01*
X0103424Y0013979D01*
X0103462Y0013939D01*
X0103503Y0013902D01*
X0103546Y0013867D01*
X0103591Y0013836D01*
X0103638Y0013807D01*
X0103687Y0013782D01*
X0103738Y0013759D01*
X0103790Y0013741D01*
X0104367Y0014968D02*
X0104331Y0015004D01*
X0104291Y0015037D01*
X0104250Y0015067D01*
X0104206Y0015094D01*
X0104160Y0015118D01*
X0104113Y0015138D01*
X0104065Y0015155D01*
X0104015Y0015168D01*
X0103964Y0015177D01*
X0103913Y0015183D01*
X0103862Y0015185D01*
X0103813Y0015183D01*
X0103765Y0015178D01*
X0103717Y0015169D01*
X0103670Y0015156D01*
X0103625Y0015140D01*
X0103580Y0015121D01*
X0103537Y0015098D01*
X0103496Y0015072D01*
X0103457Y0015043D01*
X0103420Y0015011D01*
X0103386Y0014977D01*
X0103354Y0014940D01*
X0103325Y0014901D01*
X0103299Y0014860D01*
X0103276Y0014817D01*
X0103257Y0014772D01*
X0103241Y0014727D01*
X0103228Y0014680D01*
X0103219Y0014632D01*
X0103214Y0014584D01*
X0103212Y0014535D01*
X0108599Y0011799D02*
X0108599Y0011221D01*
X0108601Y0011173D01*
X0108607Y0011126D01*
X0108617Y0011079D01*
X0108630Y0011033D01*
X0108648Y0010989D01*
X0108669Y0010946D01*
X0108693Y0010905D01*
X0108721Y0010866D01*
X0108752Y0010830D01*
X0108786Y0010796D01*
X0108822Y0010765D01*
X0108861Y0010737D01*
X0108902Y0010713D01*
X0108945Y0010692D01*
X0108989Y0010674D01*
X0109035Y0010661D01*
X0109082Y0010651D01*
X0109129Y0010645D01*
X0109177Y0010643D01*
X0110621Y0010643D01*
X0110669Y0010645D01*
X0110716Y0010651D01*
X0110763Y0010661D01*
X0110809Y0010674D01*
X0110853Y0010692D01*
X0110896Y0010713D01*
X0110937Y0010737D01*
X0110976Y0010765D01*
X0111012Y0010796D01*
X0111046Y0010830D01*
X0111077Y0010866D01*
X0111105Y0010905D01*
X0111129Y0010946D01*
X0111150Y0010989D01*
X0111168Y0011033D01*
X0111181Y0011079D01*
X0111191Y0011126D01*
X0111197Y0011173D01*
X0111199Y0011221D01*
X0111199Y0011799D01*
X0110477Y0013057D02*
X0109754Y0013057D01*
X0109754Y0013924D01*
X0109754Y0013057D02*
X0109687Y0013059D01*
X0109620Y0013065D01*
X0109553Y0013075D01*
X0109487Y0013088D01*
X0109422Y0013106D01*
X0109359Y0013127D01*
X0109296Y0013152D01*
X0109235Y0013180D01*
X0109176Y0013212D01*
X0109119Y0013247D01*
X0109064Y0013286D01*
X0109011Y0013327D01*
X0108961Y0013372D01*
X0108913Y0013420D01*
X0108868Y0013470D01*
X0108827Y0013523D01*
X0108788Y0013578D01*
X0108753Y0013635D01*
X0108721Y0013694D01*
X0108693Y0013755D01*
X0108668Y0013818D01*
X0108647Y0013881D01*
X0108629Y0013946D01*
X0108616Y0014012D01*
X0108606Y0014079D01*
X0108600Y0014146D01*
X0108598Y0014213D01*
X0110332Y0014502D02*
X0110477Y0014502D01*
X0110332Y0014502D02*
X0110287Y0014500D01*
X0110242Y0014495D01*
X0110197Y0014486D01*
X0110153Y0014474D01*
X0110111Y0014458D01*
X0110070Y0014439D01*
X0110030Y0014417D01*
X0109992Y0014392D01*
X0109957Y0014364D01*
X0109923Y0014333D01*
X0109892Y0014299D01*
X0109864Y0014264D01*
X0109839Y0014226D01*
X0109817Y0014186D01*
X0109798Y0014145D01*
X0109782Y0014103D01*
X0109770Y0014059D01*
X0109761Y0014014D01*
X0109756Y0013969D01*
X0109754Y0013924D01*
X0110477Y0014502D02*
X0110530Y0014500D01*
X0110582Y0014494D01*
X0110634Y0014485D01*
X0110685Y0014471D01*
X0110735Y0014454D01*
X0110783Y0014434D01*
X0110830Y0014410D01*
X0110875Y0014382D01*
X0110918Y0014351D01*
X0110959Y0014318D01*
X0110997Y0014281D01*
X0111032Y0014242D01*
X0111064Y0014200D01*
X0111093Y0014156D01*
X0111119Y0014110D01*
X0111141Y0014062D01*
X0111160Y0014013D01*
X0111176Y0013963D01*
X0111187Y0013911D01*
X0111195Y0013859D01*
X0111199Y0013806D01*
X0111199Y0013754D01*
X0111195Y0013701D01*
X0111187Y0013649D01*
X0111176Y0013597D01*
X0111160Y0013547D01*
X0111141Y0013498D01*
X0111119Y0013450D01*
X0111093Y0013404D01*
X0111064Y0013360D01*
X0111032Y0013318D01*
X0110997Y0013279D01*
X0110959Y0013242D01*
X0110918Y0013209D01*
X0110875Y0013178D01*
X0110830Y0013150D01*
X0110783Y0013126D01*
X0110735Y0013106D01*
X0110685Y0013089D01*
X0110634Y0013075D01*
X0110582Y0013066D01*
X0110530Y0013060D01*
X0110477Y0013058D01*
X0116223Y0013640D02*
X0118823Y0012917D01*
X0118823Y0010937D02*
X0118823Y0010359D01*
X0118821Y0010311D01*
X0118815Y0010264D01*
X0118805Y0010217D01*
X0118792Y0010171D01*
X0118774Y0010127D01*
X0118753Y0010084D01*
X0118729Y0010043D01*
X0118701Y0010004D01*
X0118670Y0009968D01*
X0118636Y0009934D01*
X0118600Y0009903D01*
X0118561Y0009875D01*
X0118520Y0009851D01*
X0118477Y0009830D01*
X0118433Y0009812D01*
X0118387Y0009799D01*
X0118340Y0009789D01*
X0118293Y0009783D01*
X0118245Y0009781D01*
X0116801Y0009781D01*
X0116753Y0009783D01*
X0116706Y0009789D01*
X0116659Y0009799D01*
X0116613Y0009812D01*
X0116569Y0009830D01*
X0116526Y0009851D01*
X0116485Y0009875D01*
X0116446Y0009903D01*
X0116410Y0009934D01*
X0116376Y0009968D01*
X0116345Y0010004D01*
X0116317Y0010043D01*
X0116293Y0010084D01*
X0116272Y0010127D01*
X0116254Y0010171D01*
X0116241Y0010217D01*
X0116231Y0010264D01*
X0116225Y0010311D01*
X0116223Y0010359D01*
X0116223Y0010937D01*
X0116223Y0012195D02*
X0116223Y0013640D01*
X0116223Y0012195D02*
X0116512Y0012195D01*
X0123347Y0005237D02*
X0131221Y0013111D01*
X0139095Y0013111D01*
X0146969Y0005237D01*
X0152629Y0009474D02*
X0154051Y0013741D01*
X0155473Y0009474D01*
X0156895Y0015874D01*
X0159193Y0012318D02*
X0159193Y0010896D01*
X0159195Y0010822D01*
X0159201Y0010747D01*
X0159211Y0010674D01*
X0159224Y0010600D01*
X0159241Y0010528D01*
X0159263Y0010457D01*
X0159287Y0010386D01*
X0159316Y0010318D01*
X0159348Y0010250D01*
X0159384Y0010185D01*
X0159422Y0010122D01*
X0159465Y0010060D01*
X0159510Y0010001D01*
X0159558Y0009944D01*
X0159609Y0009890D01*
X0159663Y0009839D01*
X0159720Y0009791D01*
X0159779Y0009746D01*
X0159841Y0009703D01*
X0159904Y0009665D01*
X0159969Y0009629D01*
X0160037Y0009597D01*
X0160105Y0009568D01*
X0160176Y0009544D01*
X0160247Y0009522D01*
X0160319Y0009505D01*
X0160393Y0009492D01*
X0160466Y0009482D01*
X0160541Y0009476D01*
X0160615Y0009474D01*
X0160689Y0009476D01*
X0160764Y0009482D01*
X0160837Y0009492D01*
X0160911Y0009505D01*
X0160983Y0009522D01*
X0161054Y0009544D01*
X0161125Y0009568D01*
X0161193Y0009597D01*
X0161261Y0009629D01*
X0161326Y0009665D01*
X0161389Y0009703D01*
X0161451Y0009746D01*
X0161510Y0009791D01*
X0161567Y0009839D01*
X0161621Y0009890D01*
X0161672Y0009944D01*
X0161720Y0010001D01*
X0161765Y0010060D01*
X0161808Y0010122D01*
X0161846Y0010185D01*
X0161882Y0010250D01*
X0161914Y0010318D01*
X0161943Y0010386D01*
X0161967Y0010457D01*
X0161989Y0010528D01*
X0162006Y0010600D01*
X0162019Y0010674D01*
X0162029Y0010747D01*
X0162035Y0010822D01*
X0162037Y0010896D01*
X0162037Y0012318D01*
X0162035Y0012392D01*
X0162029Y0012467D01*
X0162019Y0012540D01*
X0162006Y0012614D01*
X0161989Y0012686D01*
X0161967Y0012757D01*
X0161943Y0012828D01*
X0161914Y0012896D01*
X0161882Y0012964D01*
X0161846Y0013029D01*
X0161808Y0013092D01*
X0161765Y0013154D01*
X0161720Y0013213D01*
X0161672Y0013270D01*
X0161621Y0013324D01*
X0161567Y0013375D01*
X0161510Y0013423D01*
X0161451Y0013468D01*
X0161389Y0013511D01*
X0161326Y0013549D01*
X0161261Y0013585D01*
X0161193Y0013617D01*
X0161125Y0013646D01*
X0161054Y0013670D01*
X0160983Y0013692D01*
X0160911Y0013709D01*
X0160837Y0013722D01*
X0160764Y0013732D01*
X0160689Y0013738D01*
X0160615Y0013740D01*
X0160541Y0013738D01*
X0160466Y0013732D01*
X0160393Y0013722D01*
X0160319Y0013709D01*
X0160247Y0013692D01*
X0160176Y0013670D01*
X0160105Y0013646D01*
X0160037Y0013617D01*
X0159969Y0013585D01*
X0159904Y0013549D01*
X0159841Y0013511D01*
X0159779Y0013468D01*
X0159720Y0013423D01*
X0159663Y0013375D01*
X0159609Y0013324D01*
X0159558Y0013270D01*
X0159510Y0013213D01*
X0159465Y0013154D01*
X0159422Y0013092D01*
X0159384Y0013029D01*
X0159348Y0012964D01*
X0159316Y0012896D01*
X0159287Y0012828D01*
X0159263Y0012757D01*
X0159241Y0012686D01*
X0159224Y0012614D01*
X0159211Y0012540D01*
X0159201Y0012467D01*
X0159195Y0012392D01*
X0159193Y0012318D01*
X0152629Y0009474D02*
X0151206Y0015874D01*
X0151206Y0019974D02*
X0151206Y0026374D01*
X0153340Y0022818D01*
X0155473Y0026374D01*
X0155473Y0019974D01*
X0159492Y0019974D02*
X0161092Y0019974D01*
X0161092Y0023174D01*
X0161092Y0022463D02*
X0159492Y0022463D01*
X0161092Y0023174D02*
X0161090Y0023238D01*
X0161084Y0023303D01*
X0161075Y0023366D01*
X0161061Y0023429D01*
X0161044Y0023491D01*
X0161023Y0023552D01*
X0160998Y0023612D01*
X0160970Y0023670D01*
X0160938Y0023726D01*
X0160903Y0023780D01*
X0160865Y0023832D01*
X0160824Y0023882D01*
X0160779Y0023928D01*
X0160733Y0023973D01*
X0160683Y0024014D01*
X0160631Y0024052D01*
X0160577Y0024087D01*
X0160521Y0024119D01*
X0160463Y0024147D01*
X0160403Y0024172D01*
X0160342Y0024193D01*
X0160280Y0024210D01*
X0160217Y0024224D01*
X0160154Y0024233D01*
X0160089Y0024239D01*
X0160025Y0024241D01*
X0158603Y0024241D01*
X0159492Y0022462D02*
X0159422Y0022460D01*
X0159353Y0022454D01*
X0159284Y0022444D01*
X0159215Y0022431D01*
X0159148Y0022413D01*
X0159081Y0022392D01*
X0159016Y0022367D01*
X0158952Y0022339D01*
X0158890Y0022307D01*
X0158830Y0022271D01*
X0158772Y0022233D01*
X0158716Y0022191D01*
X0158663Y0022146D01*
X0158612Y0022098D01*
X0158564Y0022047D01*
X0158519Y0021994D01*
X0158477Y0021938D01*
X0158439Y0021880D01*
X0158403Y0021820D01*
X0158371Y0021758D01*
X0158343Y0021694D01*
X0158318Y0021629D01*
X0158297Y0021562D01*
X0158279Y0021495D01*
X0158266Y0021426D01*
X0158256Y0021357D01*
X0158250Y0021288D01*
X0158248Y0021218D01*
X0158250Y0021148D01*
X0158256Y0021079D01*
X0158266Y0021010D01*
X0158279Y0020941D01*
X0158297Y0020874D01*
X0158318Y0020807D01*
X0158343Y0020742D01*
X0158371Y0020678D01*
X0158403Y0020616D01*
X0158439Y0020556D01*
X0158477Y0020498D01*
X0158519Y0020442D01*
X0158564Y0020389D01*
X0158612Y0020338D01*
X0158663Y0020290D01*
X0158716Y0020245D01*
X0158772Y0020203D01*
X0158830Y0020165D01*
X0158890Y0020129D01*
X0158952Y0020097D01*
X0159016Y0020069D01*
X0159081Y0020044D01*
X0159148Y0020023D01*
X0159215Y0020005D01*
X0159284Y0019992D01*
X0159353Y0019982D01*
X0159422Y0019976D01*
X0159492Y0019974D01*
X0164054Y0019974D02*
X0164054Y0024241D01*
X0166187Y0024241D01*
X0166187Y0023530D01*
X0168109Y0024241D02*
X0168109Y0019974D01*
X0170790Y0021041D02*
X0170790Y0024241D01*
X0173634Y0024241D02*
X0173634Y0019974D01*
X0171856Y0019974D01*
X0171792Y0019976D01*
X0171727Y0019982D01*
X0171664Y0019991D01*
X0171601Y0020005D01*
X0171539Y0020022D01*
X0171478Y0020043D01*
X0171418Y0020068D01*
X0171360Y0020096D01*
X0171304Y0020128D01*
X0171250Y0020163D01*
X0171198Y0020201D01*
X0171148Y0020242D01*
X0171102Y0020287D01*
X0171057Y0020333D01*
X0171016Y0020383D01*
X0170978Y0020435D01*
X0170943Y0020489D01*
X0170911Y0020545D01*
X0170883Y0020603D01*
X0170858Y0020663D01*
X0170837Y0020724D01*
X0170820Y0020786D01*
X0170806Y0020849D01*
X0170797Y0020912D01*
X0170791Y0020977D01*
X0170789Y0021041D01*
X0170265Y0015874D02*
X0170265Y0010541D01*
X0170267Y0010477D01*
X0170273Y0010412D01*
X0170282Y0010349D01*
X0170296Y0010286D01*
X0170313Y0010224D01*
X0170334Y0010163D01*
X0170359Y0010103D01*
X0170387Y0010045D01*
X0170419Y0009989D01*
X0170454Y0009935D01*
X0170492Y0009883D01*
X0170533Y0009833D01*
X0170578Y0009787D01*
X0170624Y0009742D01*
X0170674Y0009701D01*
X0170726Y0009663D01*
X0170780Y0009628D01*
X0170836Y0009596D01*
X0170894Y0009568D01*
X0170954Y0009543D01*
X0171015Y0009522D01*
X0171077Y0009505D01*
X0171140Y0009491D01*
X0171203Y0009482D01*
X0171268Y0009476D01*
X0171332Y0009474D01*
X0171688Y0009474D01*
X0174234Y0009474D02*
X0174234Y0015874D01*
X0171688Y0013741D02*
X0169554Y0013741D01*
X0167342Y0013741D02*
X0165564Y0013741D01*
X0165500Y0013739D01*
X0165435Y0013733D01*
X0165372Y0013724D01*
X0165309Y0013710D01*
X0165247Y0013693D01*
X0165186Y0013672D01*
X0165126Y0013647D01*
X0165068Y0013619D01*
X0165012Y0013587D01*
X0164958Y0013552D01*
X0164906Y0013514D01*
X0164856Y0013473D01*
X0164810Y0013428D01*
X0164765Y0013382D01*
X0164724Y0013332D01*
X0164686Y0013280D01*
X0164651Y0013226D01*
X0164619Y0013170D01*
X0164591Y0013112D01*
X0164566Y0013052D01*
X0164545Y0012991D01*
X0164528Y0012929D01*
X0164514Y0012866D01*
X0164505Y0012803D01*
X0164499Y0012738D01*
X0164497Y0012674D01*
X0164497Y0010541D01*
X0164499Y0010477D01*
X0164505Y0010412D01*
X0164514Y0010349D01*
X0164528Y0010286D01*
X0164545Y0010224D01*
X0164566Y0010163D01*
X0164591Y0010103D01*
X0164619Y0010045D01*
X0164651Y0009989D01*
X0164686Y0009935D01*
X0164724Y0009883D01*
X0164765Y0009833D01*
X0164810Y0009787D01*
X0164856Y0009742D01*
X0164906Y0009701D01*
X0164958Y0009663D01*
X0165012Y0009628D01*
X0165068Y0009596D01*
X0165126Y0009568D01*
X0165186Y0009543D01*
X0165247Y0009522D01*
X0165309Y0009505D01*
X0165372Y0009491D01*
X0165435Y0009482D01*
X0165500Y0009476D01*
X0165564Y0009474D01*
X0167342Y0009474D01*
X0167342Y0015874D01*
X0174234Y0011607D02*
X0177078Y0013741D01*
X0175478Y0012496D02*
X0177078Y0009474D01*
X0179296Y0010541D02*
X0179296Y0012318D01*
X0179296Y0011607D02*
X0182140Y0011607D01*
X0182140Y0012318D01*
X0182138Y0012392D01*
X0182132Y0012467D01*
X0182122Y0012540D01*
X0182109Y0012614D01*
X0182092Y0012686D01*
X0182070Y0012757D01*
X0182046Y0012828D01*
X0182017Y0012896D01*
X0181985Y0012964D01*
X0181949Y0013029D01*
X0181911Y0013092D01*
X0181868Y0013154D01*
X0181823Y0013213D01*
X0181775Y0013270D01*
X0181724Y0013324D01*
X0181670Y0013375D01*
X0181613Y0013423D01*
X0181554Y0013468D01*
X0181492Y0013511D01*
X0181429Y0013549D01*
X0181364Y0013585D01*
X0181296Y0013617D01*
X0181228Y0013646D01*
X0181157Y0013670D01*
X0181086Y0013692D01*
X0181014Y0013709D01*
X0180940Y0013722D01*
X0180867Y0013732D01*
X0180792Y0013738D01*
X0180718Y0013740D01*
X0180644Y0013738D01*
X0180569Y0013732D01*
X0180496Y0013722D01*
X0180422Y0013709D01*
X0180350Y0013692D01*
X0180279Y0013670D01*
X0180208Y0013646D01*
X0180140Y0013617D01*
X0180072Y0013585D01*
X0180007Y0013549D01*
X0179944Y0013511D01*
X0179882Y0013468D01*
X0179823Y0013423D01*
X0179766Y0013375D01*
X0179712Y0013324D01*
X0179661Y0013270D01*
X0179613Y0013213D01*
X0179568Y0013154D01*
X0179525Y0013092D01*
X0179487Y0013029D01*
X0179451Y0012964D01*
X0179419Y0012896D01*
X0179390Y0012828D01*
X0179366Y0012757D01*
X0179344Y0012686D01*
X0179327Y0012614D01*
X0179314Y0012540D01*
X0179304Y0012467D01*
X0179298Y0012392D01*
X0179296Y0012318D01*
X0179296Y0010541D02*
X0179298Y0010477D01*
X0179304Y0010412D01*
X0179313Y0010349D01*
X0179327Y0010286D01*
X0179344Y0010224D01*
X0179365Y0010163D01*
X0179390Y0010103D01*
X0179418Y0010045D01*
X0179450Y0009989D01*
X0179485Y0009935D01*
X0179523Y0009883D01*
X0179564Y0009833D01*
X0179609Y0009787D01*
X0179655Y0009742D01*
X0179705Y0009701D01*
X0179757Y0009663D01*
X0179811Y0009628D01*
X0179867Y0009596D01*
X0179925Y0009568D01*
X0179985Y0009543D01*
X0180046Y0009522D01*
X0180108Y0009505D01*
X0180171Y0009491D01*
X0180234Y0009482D01*
X0180299Y0009476D01*
X0180363Y0009474D01*
X0182140Y0009474D01*
X0188313Y0012348D02*
X0190913Y0012348D01*
X0190913Y0013504D01*
X0190913Y0014844D02*
X0188313Y0014844D01*
X0188313Y0016000D01*
X0189469Y0015711D02*
X0189469Y0014844D01*
X0190913Y0014844D02*
X0190913Y0016000D01*
X0190913Y0017330D02*
X0188313Y0017330D01*
X0188313Y0018053D01*
X0188314Y0018053D02*
X0188316Y0018105D01*
X0188321Y0018156D01*
X0188331Y0018206D01*
X0188343Y0018256D01*
X0188360Y0018305D01*
X0188379Y0018353D01*
X0188402Y0018399D01*
X0188429Y0018443D01*
X0188458Y0018486D01*
X0188490Y0018526D01*
X0188525Y0018564D01*
X0188563Y0018599D01*
X0188603Y0018631D01*
X0188646Y0018660D01*
X0188690Y0018687D01*
X0188736Y0018710D01*
X0188784Y0018729D01*
X0188833Y0018746D01*
X0188883Y0018759D01*
X0188933Y0018768D01*
X0188985Y0018773D01*
X0189036Y0018775D01*
X0190191Y0018775D01*
X0190243Y0018773D01*
X0190294Y0018768D01*
X0190344Y0018759D01*
X0190394Y0018746D01*
X0190443Y0018729D01*
X0190491Y0018710D01*
X0190537Y0018687D01*
X0190581Y0018660D01*
X0190624Y0018631D01*
X0190664Y0018599D01*
X0190702Y0018564D01*
X0190737Y0018526D01*
X0190769Y0018486D01*
X0190798Y0018443D01*
X0190825Y0018399D01*
X0190848Y0018353D01*
X0190867Y0018305D01*
X0190884Y0018256D01*
X0190897Y0018206D01*
X0190906Y0018156D01*
X0190911Y0018105D01*
X0190913Y0018053D01*
X0190913Y0017330D01*
X0190913Y0020306D02*
X0190913Y0021173D01*
X0190914Y0021173D02*
X0190912Y0021221D01*
X0190906Y0021268D01*
X0190896Y0021315D01*
X0190883Y0021361D01*
X0190865Y0021405D01*
X0190844Y0021448D01*
X0190820Y0021489D01*
X0190792Y0021528D01*
X0190761Y0021564D01*
X0190727Y0021598D01*
X0190691Y0021629D01*
X0190652Y0021657D01*
X0190611Y0021681D01*
X0190568Y0021702D01*
X0190524Y0021720D01*
X0190478Y0021733D01*
X0190431Y0021743D01*
X0190384Y0021749D01*
X0190336Y0021751D01*
X0190047Y0021751D01*
X0190002Y0021749D01*
X0189957Y0021744D01*
X0189912Y0021735D01*
X0189868Y0021723D01*
X0189826Y0021707D01*
X0189785Y0021688D01*
X0189745Y0021666D01*
X0189707Y0021641D01*
X0189672Y0021613D01*
X0189638Y0021582D01*
X0189607Y0021548D01*
X0189579Y0021513D01*
X0189554Y0021475D01*
X0189532Y0021435D01*
X0189513Y0021394D01*
X0189497Y0021352D01*
X0189485Y0021308D01*
X0189476Y0021263D01*
X0189471Y0021218D01*
X0189469Y0021173D01*
X0189469Y0020306D01*
X0188313Y0020306D01*
X0188313Y0021751D01*
X0178639Y0021752D02*
X0176862Y0022463D01*
X0176807Y0022487D01*
X0176754Y0022514D01*
X0176703Y0022545D01*
X0176654Y0022579D01*
X0176608Y0022616D01*
X0176564Y0022656D01*
X0176522Y0022698D01*
X0176484Y0022744D01*
X0176448Y0022791D01*
X0176416Y0022841D01*
X0176386Y0022893D01*
X0176361Y0022947D01*
X0176338Y0023002D01*
X0176320Y0023058D01*
X0176305Y0023116D01*
X0176293Y0023174D01*
X0176286Y0023233D01*
X0176282Y0023293D01*
X0176283Y0023352D01*
X0176287Y0023412D01*
X0176295Y0023471D01*
X0176306Y0023529D01*
X0176322Y0023586D01*
X0176341Y0023643D01*
X0176363Y0023698D01*
X0176390Y0023751D01*
X0176419Y0023803D01*
X0176452Y0023852D01*
X0176488Y0023900D01*
X0176527Y0023945D01*
X0176569Y0023987D01*
X0176613Y0024027D01*
X0176660Y0024063D01*
X0176709Y0024097D01*
X0176760Y0024127D01*
X0176813Y0024154D01*
X0176868Y0024178D01*
X0176924Y0024197D01*
X0176981Y0024214D01*
X0177040Y0024226D01*
X0177098Y0024235D01*
X0177158Y0024240D01*
X0177217Y0024241D01*
X0176328Y0020329D02*
X0176473Y0020279D01*
X0176620Y0020233D01*
X0176767Y0020190D01*
X0176916Y0020151D01*
X0177066Y0020116D01*
X0177216Y0020084D01*
X0177367Y0020057D01*
X0177519Y0020033D01*
X0177671Y0020014D01*
X0177824Y0019998D01*
X0177977Y0019986D01*
X0178130Y0019978D01*
X0178284Y0019974D01*
X0178343Y0019975D01*
X0178403Y0019980D01*
X0178461Y0019989D01*
X0178520Y0020001D01*
X0178577Y0020018D01*
X0178633Y0020037D01*
X0178688Y0020061D01*
X0178741Y0020088D01*
X0178792Y0020118D01*
X0178841Y0020152D01*
X0178888Y0020188D01*
X0178932Y0020228D01*
X0178974Y0020270D01*
X0179013Y0020315D01*
X0179049Y0020363D01*
X0179082Y0020412D01*
X0179111Y0020464D01*
X0179138Y0020517D01*
X0179160Y0020572D01*
X0179179Y0020629D01*
X0179195Y0020686D01*
X0179206Y0020744D01*
X0179214Y0020803D01*
X0179218Y0020863D01*
X0179219Y0020922D01*
X0179215Y0020982D01*
X0179208Y0021041D01*
X0179196Y0021099D01*
X0179181Y0021157D01*
X0179163Y0021213D01*
X0179140Y0021268D01*
X0179115Y0021322D01*
X0179085Y0021374D01*
X0179053Y0021424D01*
X0179017Y0021471D01*
X0178979Y0021517D01*
X0178937Y0021559D01*
X0178893Y0021599D01*
X0178847Y0021636D01*
X0178798Y0021670D01*
X0178747Y0021701D01*
X0178694Y0021728D01*
X0178639Y0021752D01*
X0178818Y0023885D02*
X0178710Y0023932D01*
X0178600Y0023975D01*
X0178489Y0024016D01*
X0178377Y0024053D01*
X0178265Y0024087D01*
X0178151Y0024118D01*
X0178036Y0024145D01*
X0177920Y0024169D01*
X0177804Y0024189D01*
X0177688Y0024206D01*
X0177571Y0024220D01*
X0177453Y0024230D01*
X0177336Y0024237D01*
X0177218Y0024241D01*
X0168287Y0026018D02*
X0167932Y0026018D01*
X0167932Y0026374D01*
X0168287Y0026374D01*
X0168287Y0026018D01*
X0166472Y0030378D02*
X0166472Y0031533D01*
X0166905Y0030955D02*
X0165461Y0030955D01*
X0166039Y0032978D01*
X0163334Y0032978D02*
X0162612Y0032978D01*
X0162612Y0030378D01*
X0162612Y0031533D02*
X0163334Y0031533D01*
X0163478Y0031533D02*
X0164056Y0030378D01*
X0163334Y0031533D02*
X0163387Y0031535D01*
X0163439Y0031541D01*
X0163491Y0031550D01*
X0163542Y0031564D01*
X0163592Y0031581D01*
X0163640Y0031601D01*
X0163687Y0031625D01*
X0163732Y0031653D01*
X0163775Y0031684D01*
X0163816Y0031717D01*
X0163854Y0031754D01*
X0163889Y0031793D01*
X0163921Y0031835D01*
X0163950Y0031879D01*
X0163976Y0031925D01*
X0163998Y0031973D01*
X0164017Y0032022D01*
X0164033Y0032072D01*
X0164044Y0032124D01*
X0164052Y0032176D01*
X0164056Y0032229D01*
X0164056Y0032281D01*
X0164052Y0032334D01*
X0164044Y0032386D01*
X0164033Y0032438D01*
X0164017Y0032488D01*
X0163998Y0032537D01*
X0163976Y0032585D01*
X0163950Y0032631D01*
X0163921Y0032675D01*
X0163889Y0032717D01*
X0163854Y0032756D01*
X0163816Y0032793D01*
X0163775Y0032826D01*
X0163732Y0032857D01*
X0163687Y0032885D01*
X0163640Y0032909D01*
X0163592Y0032929D01*
X0163542Y0032946D01*
X0163491Y0032960D01*
X0163439Y0032969D01*
X0163387Y0032975D01*
X0163334Y0032977D01*
X0152587Y0033246D02*
X0151864Y0030646D01*
X0149738Y0030646D02*
X0149160Y0031802D01*
X0149015Y0031802D02*
X0148293Y0031802D01*
X0149015Y0031802D02*
X0149068Y0031804D01*
X0149120Y0031810D01*
X0149172Y0031819D01*
X0149223Y0031833D01*
X0149273Y0031850D01*
X0149321Y0031870D01*
X0149368Y0031894D01*
X0149413Y0031922D01*
X0149456Y0031953D01*
X0149497Y0031986D01*
X0149535Y0032023D01*
X0149570Y0032062D01*
X0149602Y0032104D01*
X0149631Y0032148D01*
X0149657Y0032194D01*
X0149679Y0032242D01*
X0149698Y0032291D01*
X0149714Y0032341D01*
X0149725Y0032393D01*
X0149733Y0032445D01*
X0149737Y0032498D01*
X0149737Y0032550D01*
X0149733Y0032603D01*
X0149725Y0032655D01*
X0149714Y0032707D01*
X0149698Y0032757D01*
X0149679Y0032806D01*
X0149657Y0032854D01*
X0149631Y0032900D01*
X0149602Y0032944D01*
X0149570Y0032986D01*
X0149535Y0033025D01*
X0149497Y0033062D01*
X0149456Y0033095D01*
X0149413Y0033126D01*
X0149368Y0033154D01*
X0149321Y0033178D01*
X0149273Y0033198D01*
X0149223Y0033215D01*
X0149172Y0033229D01*
X0149120Y0033238D01*
X0149068Y0033244D01*
X0149015Y0033246D01*
X0148293Y0033246D01*
X0148293Y0030646D01*
X0151142Y0032957D02*
X0151142Y0033246D01*
X0152587Y0033246D01*
X0140776Y0031119D02*
X0140776Y0030975D01*
X0140776Y0031119D02*
X0140774Y0031164D01*
X0140769Y0031209D01*
X0140760Y0031254D01*
X0140748Y0031298D01*
X0140732Y0031340D01*
X0140713Y0031381D01*
X0140691Y0031421D01*
X0140666Y0031459D01*
X0140638Y0031494D01*
X0140607Y0031528D01*
X0140573Y0031559D01*
X0140538Y0031587D01*
X0140500Y0031612D01*
X0140460Y0031634D01*
X0140419Y0031653D01*
X0140377Y0031669D01*
X0140333Y0031681D01*
X0140288Y0031690D01*
X0140243Y0031695D01*
X0140198Y0031697D01*
X0139331Y0031697D01*
X0139331Y0030975D01*
X0139333Y0030922D01*
X0139339Y0030870D01*
X0139348Y0030818D01*
X0139362Y0030767D01*
X0139379Y0030717D01*
X0139399Y0030669D01*
X0139423Y0030622D01*
X0139451Y0030577D01*
X0139482Y0030534D01*
X0139515Y0030493D01*
X0139552Y0030455D01*
X0139591Y0030420D01*
X0139633Y0030388D01*
X0139677Y0030359D01*
X0139723Y0030333D01*
X0139771Y0030311D01*
X0139820Y0030292D01*
X0139870Y0030276D01*
X0139922Y0030265D01*
X0139974Y0030257D01*
X0140027Y0030253D01*
X0140079Y0030253D01*
X0140132Y0030257D01*
X0140184Y0030265D01*
X0140236Y0030276D01*
X0140286Y0030292D01*
X0140335Y0030311D01*
X0140383Y0030333D01*
X0140429Y0030359D01*
X0140473Y0030388D01*
X0140515Y0030420D01*
X0140554Y0030455D01*
X0140591Y0030493D01*
X0140624Y0030534D01*
X0140655Y0030577D01*
X0140683Y0030622D01*
X0140707Y0030669D01*
X0140727Y0030717D01*
X0140744Y0030767D01*
X0140758Y0030818D01*
X0140767Y0030870D01*
X0140773Y0030922D01*
X0140775Y0030975D01*
X0139331Y0031697D02*
X0139333Y0031764D01*
X0139339Y0031831D01*
X0139349Y0031898D01*
X0139362Y0031964D01*
X0139380Y0032029D01*
X0139401Y0032092D01*
X0139426Y0032155D01*
X0139454Y0032216D01*
X0139486Y0032275D01*
X0139521Y0032332D01*
X0139560Y0032387D01*
X0139601Y0032440D01*
X0139646Y0032490D01*
X0139694Y0032538D01*
X0139744Y0032583D01*
X0139797Y0032624D01*
X0139852Y0032663D01*
X0139909Y0032698D01*
X0139968Y0032730D01*
X0140029Y0032758D01*
X0140092Y0032783D01*
X0140155Y0032804D01*
X0140220Y0032822D01*
X0140286Y0032835D01*
X0140353Y0032845D01*
X0140420Y0032851D01*
X0140487Y0032853D01*
X0137204Y0032852D02*
X0136482Y0032852D01*
X0136482Y0030252D01*
X0136482Y0031408D02*
X0137204Y0031408D01*
X0137349Y0031408D02*
X0137927Y0030252D01*
X0137204Y0031408D02*
X0137257Y0031410D01*
X0137309Y0031416D01*
X0137361Y0031425D01*
X0137412Y0031439D01*
X0137462Y0031456D01*
X0137510Y0031476D01*
X0137557Y0031500D01*
X0137602Y0031528D01*
X0137645Y0031559D01*
X0137686Y0031592D01*
X0137724Y0031629D01*
X0137759Y0031668D01*
X0137791Y0031710D01*
X0137820Y0031754D01*
X0137846Y0031800D01*
X0137868Y0031848D01*
X0137887Y0031897D01*
X0137903Y0031947D01*
X0137914Y0031999D01*
X0137922Y0032051D01*
X0137926Y0032104D01*
X0137926Y0032156D01*
X0137922Y0032209D01*
X0137914Y0032261D01*
X0137903Y0032313D01*
X0137887Y0032363D01*
X0137868Y0032412D01*
X0137846Y0032460D01*
X0137820Y0032506D01*
X0137791Y0032550D01*
X0137759Y0032592D01*
X0137724Y0032631D01*
X0137686Y0032668D01*
X0137645Y0032701D01*
X0137602Y0032732D01*
X0137557Y0032760D01*
X0137510Y0032784D01*
X0137462Y0032804D01*
X0137412Y0032821D01*
X0137361Y0032835D01*
X0137309Y0032844D01*
X0137257Y0032850D01*
X0137204Y0032852D01*
X0179396Y0033246D02*
X0179396Y0030646D01*
X0179396Y0031802D02*
X0180118Y0031802D01*
X0180262Y0031802D02*
X0180840Y0030646D01*
X0182245Y0030646D02*
X0183111Y0030646D01*
X0183159Y0030648D01*
X0183206Y0030654D01*
X0183253Y0030664D01*
X0183299Y0030677D01*
X0183343Y0030695D01*
X0183386Y0030716D01*
X0183427Y0030740D01*
X0183466Y0030768D01*
X0183502Y0030799D01*
X0183536Y0030833D01*
X0183567Y0030869D01*
X0183595Y0030908D01*
X0183619Y0030949D01*
X0183640Y0030992D01*
X0183658Y0031036D01*
X0183671Y0031082D01*
X0183681Y0031129D01*
X0183687Y0031176D01*
X0183689Y0031224D01*
X0183689Y0031513D01*
X0183687Y0031558D01*
X0183682Y0031603D01*
X0183673Y0031648D01*
X0183661Y0031692D01*
X0183645Y0031734D01*
X0183626Y0031775D01*
X0183604Y0031815D01*
X0183579Y0031853D01*
X0183551Y0031888D01*
X0183520Y0031922D01*
X0183486Y0031953D01*
X0183451Y0031981D01*
X0183413Y0032006D01*
X0183373Y0032028D01*
X0183332Y0032047D01*
X0183290Y0032063D01*
X0183246Y0032075D01*
X0183201Y0032084D01*
X0183156Y0032089D01*
X0183111Y0032091D01*
X0182245Y0032091D01*
X0182245Y0033246D01*
X0183689Y0033246D01*
X0180118Y0033246D02*
X0179396Y0033246D01*
X0180118Y0033246D02*
X0180171Y0033244D01*
X0180223Y0033238D01*
X0180275Y0033229D01*
X0180326Y0033215D01*
X0180376Y0033198D01*
X0180424Y0033178D01*
X0180471Y0033154D01*
X0180516Y0033126D01*
X0180559Y0033095D01*
X0180600Y0033062D01*
X0180638Y0033025D01*
X0180673Y0032986D01*
X0180705Y0032944D01*
X0180734Y0032900D01*
X0180760Y0032854D01*
X0180782Y0032806D01*
X0180801Y0032757D01*
X0180817Y0032707D01*
X0180828Y0032655D01*
X0180836Y0032603D01*
X0180840Y0032550D01*
X0180840Y0032498D01*
X0180836Y0032445D01*
X0180828Y0032393D01*
X0180817Y0032341D01*
X0180801Y0032291D01*
X0180782Y0032242D01*
X0180760Y0032194D01*
X0180734Y0032148D01*
X0180705Y0032104D01*
X0180673Y0032062D01*
X0180638Y0032023D01*
X0180600Y0031986D01*
X0180559Y0031953D01*
X0180516Y0031922D01*
X0180471Y0031894D01*
X0180424Y0031870D01*
X0180376Y0031850D01*
X0180326Y0031833D01*
X0180275Y0031819D01*
X0180223Y0031810D01*
X0180171Y0031804D01*
X0180118Y0031802D01*
X0193497Y0033490D02*
X0191364Y0039890D01*
X0195630Y0039890D02*
X0193497Y0033490D01*
X0200896Y0034379D02*
X0200956Y0034506D01*
X0201012Y0034635D01*
X0201065Y0034765D01*
X0201115Y0034897D01*
X0201161Y0035030D01*
X0201203Y0035164D01*
X0201242Y0035299D01*
X0201278Y0035436D01*
X0201309Y0035573D01*
X0201337Y0035711D01*
X0201362Y0035849D01*
X0201382Y0035988D01*
X0201399Y0036128D01*
X0201412Y0036268D01*
X0201421Y0036409D01*
X0201427Y0036549D01*
X0201429Y0036690D01*
X0197873Y0036690D02*
X0197875Y0036831D01*
X0197881Y0036971D01*
X0197890Y0037112D01*
X0197903Y0037252D01*
X0197920Y0037392D01*
X0197940Y0037531D01*
X0197965Y0037669D01*
X0197993Y0037807D01*
X0198024Y0037944D01*
X0198060Y0038081D01*
X0198099Y0038216D01*
X0198141Y0038350D01*
X0198187Y0038483D01*
X0198237Y0038615D01*
X0198290Y0038745D01*
X0198346Y0038874D01*
X0198406Y0039001D01*
X0199651Y0039890D02*
X0199722Y0039888D01*
X0199793Y0039882D01*
X0199863Y0039873D01*
X0199933Y0039859D01*
X0200002Y0039842D01*
X0200069Y0039822D01*
X0200136Y0039797D01*
X0200201Y0039769D01*
X0200265Y0039738D01*
X0200327Y0039703D01*
X0200387Y0039665D01*
X0200445Y0039624D01*
X0200500Y0039580D01*
X0200553Y0039532D01*
X0200603Y0039482D01*
X0200651Y0039430D01*
X0200696Y0039375D01*
X0200737Y0039317D01*
X0200776Y0039257D01*
X0200811Y0039196D01*
X0200843Y0039132D01*
X0200871Y0039067D01*
X0200896Y0039001D01*
X0201073Y0038468D02*
X0198229Y0034912D01*
X0199651Y0033489D02*
X0199722Y0033491D01*
X0199793Y0033497D01*
X0199863Y0033506D01*
X0199933Y0033520D01*
X0200002Y0033537D01*
X0200069Y0033557D01*
X0200136Y0033582D01*
X0200201Y0033610D01*
X0200265Y0033641D01*
X0200327Y0033676D01*
X0200387Y0033714D01*
X0200444Y0033755D01*
X0200500Y0033799D01*
X0200553Y0033847D01*
X0200603Y0033897D01*
X0200651Y0033949D01*
X0200696Y0034004D01*
X0200737Y0034062D01*
X0200776Y0034122D01*
X0200811Y0034183D01*
X0200843Y0034247D01*
X0200871Y0034312D01*
X0200896Y0034378D01*
X0199651Y0033489D02*
X0199580Y0033491D01*
X0199509Y0033497D01*
X0199439Y0033506D01*
X0199369Y0033520D01*
X0199300Y0033537D01*
X0199233Y0033557D01*
X0199166Y0033582D01*
X0199101Y0033610D01*
X0199037Y0033641D01*
X0198975Y0033676D01*
X0198915Y0033714D01*
X0198857Y0033755D01*
X0198802Y0033799D01*
X0198749Y0033847D01*
X0198699Y0033897D01*
X0198651Y0033949D01*
X0198606Y0034004D01*
X0198565Y0034062D01*
X0198526Y0034122D01*
X0198491Y0034183D01*
X0198459Y0034247D01*
X0198431Y0034312D01*
X0198406Y0034378D01*
X0201429Y0036690D02*
X0201427Y0036831D01*
X0201421Y0036971D01*
X0201412Y0037112D01*
X0201399Y0037252D01*
X0201382Y0037392D01*
X0201362Y0037531D01*
X0201337Y0037669D01*
X0201309Y0037807D01*
X0201278Y0037944D01*
X0201242Y0038081D01*
X0201203Y0038216D01*
X0201161Y0038350D01*
X0201115Y0038483D01*
X0201065Y0038615D01*
X0201012Y0038745D01*
X0200956Y0038874D01*
X0200896Y0039001D01*
X0199651Y0039890D02*
X0199580Y0039888D01*
X0199509Y0039882D01*
X0199439Y0039873D01*
X0199369Y0039859D01*
X0199300Y0039842D01*
X0199233Y0039822D01*
X0199166Y0039797D01*
X0199101Y0039769D01*
X0199037Y0039738D01*
X0198975Y0039703D01*
X0198915Y0039665D01*
X0198857Y0039624D01*
X0198802Y0039580D01*
X0198749Y0039532D01*
X0198699Y0039482D01*
X0198651Y0039430D01*
X0198606Y0039375D01*
X0198565Y0039317D01*
X0198526Y0039257D01*
X0198491Y0039196D01*
X0198459Y0039132D01*
X0198431Y0039067D01*
X0198406Y0039001D01*
X0197874Y0036690D02*
X0197876Y0036549D01*
X0197882Y0036409D01*
X0197891Y0036268D01*
X0197904Y0036128D01*
X0197921Y0035988D01*
X0197941Y0035849D01*
X0197966Y0035711D01*
X0197994Y0035573D01*
X0198025Y0035436D01*
X0198061Y0035299D01*
X0198100Y0035164D01*
X0198142Y0035030D01*
X0198188Y0034897D01*
X0198238Y0034765D01*
X0198291Y0034635D01*
X0198347Y0034506D01*
X0198407Y0034379D01*
X0203781Y0033845D02*
X0204137Y0033845D01*
X0204137Y0033490D01*
X0203781Y0033490D01*
X0203781Y0033845D01*
X0206489Y0034912D02*
X0210045Y0034912D01*
X0208978Y0036334D02*
X0208978Y0033490D01*
X0206489Y0034912D02*
X0207911Y0039890D01*
X0203450Y0029752D02*
X0203450Y0028308D01*
X0203450Y0029030D02*
X0200850Y0029030D01*
X0201428Y0028308D01*
X0200850Y0026150D02*
X0203450Y0026150D01*
X0203450Y0025428D02*
X0203450Y0026872D01*
X0201428Y0025428D02*
X0200850Y0026150D01*
X0200850Y0023301D02*
X0200850Y0022579D01*
X0203450Y0022579D01*
X0202294Y0022579D02*
X0202294Y0023301D01*
X0202294Y0023445D02*
X0203450Y0024023D01*
X0202294Y0023301D02*
X0202292Y0023354D01*
X0202286Y0023406D01*
X0202277Y0023458D01*
X0202263Y0023509D01*
X0202246Y0023559D01*
X0202226Y0023607D01*
X0202202Y0023654D01*
X0202174Y0023699D01*
X0202143Y0023742D01*
X0202110Y0023783D01*
X0202073Y0023821D01*
X0202034Y0023856D01*
X0201992Y0023888D01*
X0201948Y0023917D01*
X0201902Y0023943D01*
X0201854Y0023965D01*
X0201805Y0023984D01*
X0201755Y0024000D01*
X0201703Y0024011D01*
X0201651Y0024019D01*
X0201598Y0024023D01*
X0201546Y0024023D01*
X0201493Y0024019D01*
X0201441Y0024011D01*
X0201389Y0024000D01*
X0201339Y0023984D01*
X0201290Y0023965D01*
X0201242Y0023943D01*
X0201196Y0023917D01*
X0201152Y0023888D01*
X0201110Y0023856D01*
X0201071Y0023821D01*
X0201034Y0023783D01*
X0201001Y0023742D01*
X0200970Y0023699D01*
X0200942Y0023654D01*
X0200918Y0023607D01*
X0200898Y0023559D01*
X0200881Y0023509D01*
X0200867Y0023458D01*
X0200858Y0023406D01*
X0200852Y0023354D01*
X0200850Y0023301D01*
X0209406Y0063514D02*
X0205006Y0064981D01*
X0209406Y0066447D01*
X0208306Y0066081D02*
X0208306Y0063881D01*
X0209406Y0068353D02*
X0206472Y0068353D01*
X0206472Y0069575D01*
X0206474Y0069627D01*
X0206479Y0069679D01*
X0206489Y0069731D01*
X0206502Y0069782D01*
X0206518Y0069831D01*
X0206538Y0069880D01*
X0206562Y0069926D01*
X0206588Y0069971D01*
X0206618Y0070014D01*
X0206651Y0070055D01*
X0206687Y0070093D01*
X0206725Y0070129D01*
X0206766Y0070162D01*
X0206809Y0070192D01*
X0206854Y0070218D01*
X0206901Y0070242D01*
X0206949Y0070262D01*
X0206998Y0070278D01*
X0207049Y0070291D01*
X0207101Y0070301D01*
X0207153Y0070306D01*
X0207205Y0070308D01*
X0207206Y0070309D02*
X0209406Y0070309D01*
X0208672Y0072491D02*
X0205006Y0072491D01*
X0206472Y0072002D02*
X0206472Y0073469D01*
X0207450Y0075253D02*
X0208672Y0075253D01*
X0207939Y0075253D02*
X0207939Y0077209D01*
X0207450Y0077209D01*
X0207389Y0077207D01*
X0207327Y0077201D01*
X0207267Y0077192D01*
X0207207Y0077178D01*
X0207148Y0077161D01*
X0207090Y0077140D01*
X0207034Y0077116D01*
X0206979Y0077088D01*
X0206926Y0077057D01*
X0206875Y0077022D01*
X0206827Y0076985D01*
X0206781Y0076944D01*
X0206737Y0076900D01*
X0206696Y0076854D01*
X0206659Y0076806D01*
X0206624Y0076755D01*
X0206593Y0076702D01*
X0206565Y0076647D01*
X0206541Y0076591D01*
X0206520Y0076533D01*
X0206503Y0076474D01*
X0206489Y0076414D01*
X0206480Y0076354D01*
X0206474Y0076292D01*
X0206472Y0076231D01*
X0206474Y0076170D01*
X0206480Y0076108D01*
X0206489Y0076048D01*
X0206503Y0075988D01*
X0206520Y0075929D01*
X0206541Y0075871D01*
X0206565Y0075815D01*
X0206593Y0075760D01*
X0206624Y0075707D01*
X0206659Y0075656D01*
X0206696Y0075608D01*
X0206737Y0075562D01*
X0206781Y0075518D01*
X0206827Y0075477D01*
X0206875Y0075440D01*
X0206926Y0075405D01*
X0206979Y0075374D01*
X0207034Y0075346D01*
X0207090Y0075322D01*
X0207148Y0075301D01*
X0207207Y0075284D01*
X0207267Y0075270D01*
X0207327Y0075261D01*
X0207389Y0075255D01*
X0207450Y0075253D01*
X0208672Y0075253D02*
X0208724Y0075255D01*
X0208776Y0075260D01*
X0208828Y0075270D01*
X0208879Y0075283D01*
X0208928Y0075299D01*
X0208977Y0075319D01*
X0209023Y0075343D01*
X0209068Y0075369D01*
X0209111Y0075399D01*
X0209152Y0075432D01*
X0209190Y0075468D01*
X0209226Y0075506D01*
X0209259Y0075547D01*
X0209289Y0075590D01*
X0209315Y0075635D01*
X0209339Y0075682D01*
X0209359Y0075730D01*
X0209375Y0075779D01*
X0209388Y0075830D01*
X0209398Y0075882D01*
X0209403Y0075934D01*
X0209405Y0075986D01*
X0209406Y0075986D02*
X0209406Y0077209D01*
X0209406Y0079303D02*
X0206472Y0079303D01*
X0206472Y0080525D01*
X0206474Y0080577D01*
X0206479Y0080629D01*
X0206489Y0080681D01*
X0206502Y0080732D01*
X0206518Y0080781D01*
X0206538Y0080830D01*
X0206562Y0080876D01*
X0206588Y0080921D01*
X0206618Y0080964D01*
X0206651Y0081005D01*
X0206687Y0081043D01*
X0206725Y0081079D01*
X0206766Y0081112D01*
X0206809Y0081142D01*
X0206854Y0081168D01*
X0206901Y0081192D01*
X0206949Y0081212D01*
X0206998Y0081228D01*
X0207049Y0081241D01*
X0207101Y0081251D01*
X0207153Y0081256D01*
X0207205Y0081258D01*
X0207206Y0081259D02*
X0209406Y0081259D01*
X0209406Y0083503D02*
X0206472Y0083503D01*
X0206472Y0084725D01*
X0206474Y0084777D01*
X0206479Y0084829D01*
X0206489Y0084881D01*
X0206502Y0084932D01*
X0206518Y0084981D01*
X0206538Y0085030D01*
X0206562Y0085076D01*
X0206588Y0085121D01*
X0206618Y0085164D01*
X0206651Y0085205D01*
X0206687Y0085243D01*
X0206725Y0085279D01*
X0206766Y0085312D01*
X0206809Y0085342D01*
X0206854Y0085368D01*
X0206901Y0085392D01*
X0206949Y0085412D01*
X0206998Y0085428D01*
X0207049Y0085441D01*
X0207101Y0085451D01*
X0207153Y0085456D01*
X0207205Y0085458D01*
X0207206Y0085459D02*
X0209406Y0085459D01*
X0206472Y0087768D02*
X0206472Y0088746D01*
X0206473Y0088746D02*
X0206475Y0088798D01*
X0206480Y0088850D01*
X0206490Y0088902D01*
X0206503Y0088953D01*
X0206519Y0089002D01*
X0206539Y0089051D01*
X0206563Y0089097D01*
X0206589Y0089142D01*
X0206619Y0089185D01*
X0206652Y0089226D01*
X0206688Y0089264D01*
X0206726Y0089300D01*
X0206767Y0089333D01*
X0206810Y0089363D01*
X0206855Y0089389D01*
X0206902Y0089413D01*
X0206950Y0089433D01*
X0206999Y0089449D01*
X0207050Y0089462D01*
X0207102Y0089472D01*
X0207154Y0089477D01*
X0207206Y0089479D01*
X0207206Y0089480D02*
X0209406Y0089480D01*
X0209406Y0088380D01*
X0209404Y0088323D01*
X0209398Y0088266D01*
X0209389Y0088209D01*
X0209376Y0088154D01*
X0209359Y0088099D01*
X0209338Y0088046D01*
X0209314Y0087994D01*
X0209287Y0087944D01*
X0209256Y0087896D01*
X0209222Y0087849D01*
X0209185Y0087806D01*
X0209145Y0087765D01*
X0209103Y0087726D01*
X0209058Y0087691D01*
X0209011Y0087658D01*
X0208961Y0087629D01*
X0208910Y0087604D01*
X0208858Y0087581D01*
X0208804Y0087562D01*
X0208748Y0087547D01*
X0208692Y0087536D01*
X0208636Y0087528D01*
X0208579Y0087524D01*
X0208521Y0087524D01*
X0208464Y0087528D01*
X0208408Y0087536D01*
X0208352Y0087547D01*
X0208296Y0087562D01*
X0208242Y0087581D01*
X0208190Y0087604D01*
X0208139Y0087629D01*
X0208089Y0087658D01*
X0208042Y0087691D01*
X0207997Y0087726D01*
X0207955Y0087765D01*
X0207915Y0087806D01*
X0207878Y0087849D01*
X0207844Y0087896D01*
X0207813Y0087944D01*
X0207786Y0087994D01*
X0207762Y0088046D01*
X0207741Y0088099D01*
X0207724Y0088154D01*
X0207711Y0088209D01*
X0207702Y0088266D01*
X0207696Y0088323D01*
X0207694Y0088380D01*
X0207694Y0089480D01*
X0209406Y0073469D02*
X0209406Y0073224D01*
X0209405Y0073224D02*
X0209403Y0073172D01*
X0209398Y0073120D01*
X0209388Y0073068D01*
X0209375Y0073017D01*
X0209359Y0072968D01*
X0209339Y0072920D01*
X0209315Y0072873D01*
X0209289Y0072828D01*
X0209259Y0072785D01*
X0209226Y0072744D01*
X0209190Y0072706D01*
X0209152Y0072670D01*
X0209111Y0072637D01*
X0209068Y0072607D01*
X0209023Y0072581D01*
X0208977Y0072557D01*
X0208928Y0072537D01*
X0208879Y0072521D01*
X0208828Y0072508D01*
X0208776Y0072498D01*
X0208724Y0072493D01*
X0208672Y0072491D01*
X0150766Y0110604D02*
X0148166Y0110604D01*
X0148166Y0111326D01*
X0148168Y0111379D01*
X0148174Y0111431D01*
X0148183Y0111483D01*
X0148197Y0111534D01*
X0148214Y0111584D01*
X0148234Y0111632D01*
X0148258Y0111679D01*
X0148286Y0111724D01*
X0148317Y0111767D01*
X0148350Y0111808D01*
X0148387Y0111846D01*
X0148426Y0111881D01*
X0148468Y0111913D01*
X0148512Y0111942D01*
X0148558Y0111968D01*
X0148606Y0111990D01*
X0148655Y0112009D01*
X0148705Y0112025D01*
X0148757Y0112036D01*
X0148809Y0112044D01*
X0148862Y0112048D01*
X0148914Y0112048D01*
X0148967Y0112044D01*
X0149019Y0112036D01*
X0149071Y0112025D01*
X0149121Y0112009D01*
X0149170Y0111990D01*
X0149218Y0111968D01*
X0149264Y0111942D01*
X0149308Y0111913D01*
X0149350Y0111881D01*
X0149389Y0111846D01*
X0149426Y0111808D01*
X0149459Y0111767D01*
X0149490Y0111724D01*
X0149518Y0111679D01*
X0149542Y0111632D01*
X0149562Y0111584D01*
X0149579Y0111534D01*
X0149593Y0111483D01*
X0149602Y0111431D01*
X0149608Y0111379D01*
X0149610Y0111326D01*
X0149610Y0110604D01*
X0149610Y0111471D02*
X0150766Y0112048D01*
X0150766Y0113453D02*
X0150766Y0114897D01*
X0150766Y0114175D02*
X0148166Y0114175D01*
X0148744Y0113453D01*
X0148166Y0116333D02*
X0148166Y0117200D01*
X0148168Y0117247D01*
X0148173Y0117293D01*
X0148183Y0117338D01*
X0148196Y0117383D01*
X0148212Y0117427D01*
X0148232Y0117469D01*
X0148255Y0117509D01*
X0148282Y0117547D01*
X0148311Y0117583D01*
X0148344Y0117617D01*
X0148378Y0117648D01*
X0148416Y0117676D01*
X0148455Y0117701D01*
X0148496Y0117722D01*
X0148539Y0117740D01*
X0148583Y0117755D01*
X0148628Y0117766D01*
X0148674Y0117774D01*
X0148721Y0117778D01*
X0148767Y0117778D01*
X0148814Y0117774D01*
X0148860Y0117766D01*
X0148905Y0117755D01*
X0148949Y0117740D01*
X0148992Y0117722D01*
X0149033Y0117701D01*
X0149072Y0117676D01*
X0149110Y0117648D01*
X0149144Y0117617D01*
X0149177Y0117583D01*
X0149206Y0117547D01*
X0149233Y0117509D01*
X0149256Y0117469D01*
X0149276Y0117427D01*
X0149292Y0117383D01*
X0149305Y0117338D01*
X0149315Y0117293D01*
X0149320Y0117247D01*
X0149322Y0117200D01*
X0149321Y0117200D02*
X0149321Y0116622D01*
X0149322Y0117055D02*
X0149324Y0117108D01*
X0149330Y0117160D01*
X0149339Y0117212D01*
X0149353Y0117263D01*
X0149370Y0117313D01*
X0149390Y0117361D01*
X0149414Y0117408D01*
X0149442Y0117453D01*
X0149473Y0117496D01*
X0149506Y0117537D01*
X0149543Y0117575D01*
X0149582Y0117610D01*
X0149624Y0117642D01*
X0149668Y0117671D01*
X0149714Y0117697D01*
X0149762Y0117719D01*
X0149811Y0117738D01*
X0149861Y0117754D01*
X0149913Y0117765D01*
X0149965Y0117773D01*
X0150018Y0117777D01*
X0150070Y0117777D01*
X0150123Y0117773D01*
X0150175Y0117765D01*
X0150227Y0117754D01*
X0150277Y0117738D01*
X0150326Y0117719D01*
X0150374Y0117697D01*
X0150420Y0117671D01*
X0150464Y0117642D01*
X0150506Y0117610D01*
X0150545Y0117575D01*
X0150582Y0117537D01*
X0150615Y0117496D01*
X0150646Y0117453D01*
X0150674Y0117408D01*
X0150698Y0117361D01*
X0150718Y0117313D01*
X0150735Y0117263D01*
X0150749Y0117212D01*
X0150758Y0117160D01*
X0150764Y0117108D01*
X0150766Y0117055D01*
X0150766Y0116333D01*
X0166002Y0124763D02*
X0166002Y0126641D01*
X0167446Y0126641D02*
X0167446Y0124763D01*
X0167444Y0124710D01*
X0167438Y0124658D01*
X0167429Y0124606D01*
X0167415Y0124555D01*
X0167398Y0124505D01*
X0167378Y0124457D01*
X0167354Y0124410D01*
X0167326Y0124365D01*
X0167295Y0124322D01*
X0167262Y0124281D01*
X0167225Y0124243D01*
X0167186Y0124208D01*
X0167144Y0124176D01*
X0167100Y0124147D01*
X0167054Y0124121D01*
X0167006Y0124099D01*
X0166957Y0124080D01*
X0166907Y0124064D01*
X0166855Y0124053D01*
X0166803Y0124045D01*
X0166750Y0124041D01*
X0166698Y0124041D01*
X0166645Y0124045D01*
X0166593Y0124053D01*
X0166541Y0124064D01*
X0166491Y0124080D01*
X0166442Y0124099D01*
X0166394Y0124121D01*
X0166348Y0124147D01*
X0166304Y0124176D01*
X0166262Y0124208D01*
X0166223Y0124243D01*
X0166186Y0124281D01*
X0166153Y0124322D01*
X0166122Y0124365D01*
X0166094Y0124410D01*
X0166070Y0124457D01*
X0166050Y0124505D01*
X0166033Y0124555D01*
X0166019Y0124606D01*
X0166010Y0124658D01*
X0166004Y0124710D01*
X0166002Y0124763D01*
X0168978Y0124619D02*
X0169555Y0126641D01*
X0169989Y0125196D02*
X0169989Y0124041D01*
X0170422Y0124619D02*
X0168978Y0124619D01*
X0191214Y0141639D02*
X0192370Y0141639D01*
X0191214Y0141639D02*
X0191214Y0144239D01*
X0193710Y0144239D02*
X0193710Y0141639D01*
X0194866Y0141639D01*
X0196197Y0141639D02*
X0196919Y0141639D01*
X0196197Y0141639D02*
X0196197Y0144239D01*
X0196919Y0144239D01*
X0196971Y0144237D01*
X0197022Y0144232D01*
X0197072Y0144223D01*
X0197122Y0144210D01*
X0197171Y0144193D01*
X0197219Y0144174D01*
X0197265Y0144151D01*
X0197309Y0144124D01*
X0197352Y0144095D01*
X0197392Y0144063D01*
X0197430Y0144028D01*
X0197465Y0143990D01*
X0197497Y0143950D01*
X0197526Y0143907D01*
X0197553Y0143863D01*
X0197576Y0143817D01*
X0197595Y0143769D01*
X0197612Y0143720D01*
X0197625Y0143670D01*
X0197634Y0143620D01*
X0197639Y0143569D01*
X0197641Y0143517D01*
X0197641Y0142362D01*
X0197639Y0142310D01*
X0197634Y0142259D01*
X0197625Y0142209D01*
X0197612Y0142159D01*
X0197595Y0142110D01*
X0197576Y0142062D01*
X0197553Y0142016D01*
X0197526Y0141972D01*
X0197497Y0141929D01*
X0197465Y0141889D01*
X0197430Y0141851D01*
X0197392Y0141816D01*
X0197352Y0141784D01*
X0197309Y0141755D01*
X0197265Y0141728D01*
X0197219Y0141705D01*
X0197171Y0141686D01*
X0197122Y0141669D01*
X0197072Y0141656D01*
X0197022Y0141647D01*
X0196971Y0141642D01*
X0196919Y0141640D01*
X0199173Y0142217D02*
X0199750Y0144239D01*
X0200184Y0142795D02*
X0200184Y0141639D01*
X0200617Y0142217D02*
X0199173Y0142217D01*
X0201637Y0142531D02*
X0202360Y0142531D01*
X0202504Y0142531D02*
X0203082Y0141376D01*
X0204486Y0141376D02*
X0205931Y0141376D01*
X0205209Y0141376D02*
X0205209Y0143976D01*
X0204486Y0143398D01*
X0202360Y0143975D02*
X0202413Y0143973D01*
X0202465Y0143967D01*
X0202517Y0143958D01*
X0202568Y0143944D01*
X0202618Y0143927D01*
X0202666Y0143907D01*
X0202713Y0143883D01*
X0202758Y0143855D01*
X0202801Y0143824D01*
X0202842Y0143791D01*
X0202880Y0143754D01*
X0202915Y0143715D01*
X0202947Y0143673D01*
X0202976Y0143629D01*
X0203002Y0143583D01*
X0203024Y0143535D01*
X0203043Y0143486D01*
X0203059Y0143436D01*
X0203070Y0143384D01*
X0203078Y0143332D01*
X0203082Y0143279D01*
X0203082Y0143227D01*
X0203078Y0143174D01*
X0203070Y0143122D01*
X0203059Y0143070D01*
X0203043Y0143020D01*
X0203024Y0142971D01*
X0203002Y0142923D01*
X0202976Y0142877D01*
X0202947Y0142833D01*
X0202915Y0142791D01*
X0202880Y0142752D01*
X0202842Y0142715D01*
X0202801Y0142682D01*
X0202758Y0142651D01*
X0202713Y0142623D01*
X0202666Y0142599D01*
X0202618Y0142579D01*
X0202568Y0142562D01*
X0202517Y0142548D01*
X0202465Y0142539D01*
X0202413Y0142533D01*
X0202360Y0142531D01*
X0201637Y0141376D02*
X0201637Y0143976D01*
X0202360Y0143976D01*
X0208811Y0142676D02*
X0208809Y0142588D01*
X0208804Y0142499D01*
X0208795Y0142412D01*
X0208782Y0142324D01*
X0208766Y0142237D01*
X0208746Y0142151D01*
X0208722Y0142066D01*
X0208695Y0141982D01*
X0208665Y0141899D01*
X0208631Y0141817D01*
X0208594Y0141737D01*
X0208578Y0141696D01*
X0208559Y0141656D01*
X0208536Y0141618D01*
X0208511Y0141582D01*
X0208482Y0141548D01*
X0208451Y0141517D01*
X0208417Y0141489D01*
X0208381Y0141463D01*
X0208343Y0141440D01*
X0208304Y0141421D01*
X0208262Y0141405D01*
X0208220Y0141392D01*
X0208177Y0141383D01*
X0208133Y0141378D01*
X0208089Y0141376D01*
X0208045Y0141378D01*
X0208001Y0141383D01*
X0207958Y0141392D01*
X0207916Y0141405D01*
X0207874Y0141421D01*
X0207835Y0141440D01*
X0207797Y0141463D01*
X0207761Y0141489D01*
X0207727Y0141517D01*
X0207696Y0141548D01*
X0207668Y0141582D01*
X0207642Y0141618D01*
X0207619Y0141656D01*
X0207600Y0141696D01*
X0207584Y0141737D01*
X0207511Y0141953D02*
X0208666Y0143398D01*
X0208594Y0143614D02*
X0208578Y0143655D01*
X0208559Y0143695D01*
X0208536Y0143733D01*
X0208511Y0143769D01*
X0208482Y0143803D01*
X0208451Y0143834D01*
X0208417Y0143862D01*
X0208381Y0143888D01*
X0208343Y0143911D01*
X0208304Y0143930D01*
X0208262Y0143946D01*
X0208220Y0143959D01*
X0208177Y0143968D01*
X0208133Y0143973D01*
X0208089Y0143975D01*
X0208045Y0143973D01*
X0208001Y0143968D01*
X0207958Y0143959D01*
X0207916Y0143946D01*
X0207874Y0143930D01*
X0207835Y0143911D01*
X0207797Y0143888D01*
X0207761Y0143862D01*
X0207727Y0143834D01*
X0207696Y0143803D01*
X0207668Y0143769D01*
X0207642Y0143733D01*
X0207619Y0143695D01*
X0207600Y0143655D01*
X0207584Y0143614D01*
X0208594Y0143615D02*
X0208631Y0143535D01*
X0208665Y0143453D01*
X0208695Y0143370D01*
X0208722Y0143286D01*
X0208746Y0143201D01*
X0208766Y0143115D01*
X0208782Y0143028D01*
X0208795Y0142940D01*
X0208804Y0142853D01*
X0208809Y0142764D01*
X0208811Y0142676D01*
X0207366Y0142676D02*
X0207368Y0142764D01*
X0207373Y0142853D01*
X0207382Y0142940D01*
X0207395Y0143028D01*
X0207411Y0143115D01*
X0207431Y0143201D01*
X0207455Y0143286D01*
X0207482Y0143370D01*
X0207512Y0143453D01*
X0207546Y0143535D01*
X0207583Y0143615D01*
X0207366Y0142676D02*
X0207368Y0142588D01*
X0207373Y0142499D01*
X0207382Y0142412D01*
X0207395Y0142324D01*
X0207411Y0142237D01*
X0207431Y0142151D01*
X0207455Y0142066D01*
X0207482Y0141982D01*
X0207512Y0141899D01*
X0207546Y0141817D01*
X0207583Y0141737D01*
X0194866Y0144239D02*
X0193710Y0144239D01*
X0193710Y0143084D02*
X0194577Y0143084D01*
X0203950Y0125497D02*
X0204673Y0125497D01*
X0204726Y0125495D01*
X0204778Y0125489D01*
X0204830Y0125480D01*
X0204881Y0125466D01*
X0204931Y0125449D01*
X0204979Y0125429D01*
X0205026Y0125405D01*
X0205071Y0125377D01*
X0205114Y0125346D01*
X0205155Y0125313D01*
X0205193Y0125276D01*
X0205228Y0125237D01*
X0205260Y0125195D01*
X0205289Y0125151D01*
X0205315Y0125105D01*
X0205337Y0125057D01*
X0205356Y0125008D01*
X0205372Y0124958D01*
X0205383Y0124906D01*
X0205391Y0124854D01*
X0205395Y0124801D01*
X0205395Y0124749D01*
X0205391Y0124696D01*
X0205383Y0124644D01*
X0205372Y0124592D01*
X0205356Y0124542D01*
X0205337Y0124493D01*
X0205315Y0124445D01*
X0205289Y0124399D01*
X0205260Y0124355D01*
X0205228Y0124313D01*
X0205193Y0124274D01*
X0205155Y0124237D01*
X0205114Y0124204D01*
X0205071Y0124173D01*
X0205026Y0124145D01*
X0204979Y0124121D01*
X0204931Y0124101D01*
X0204881Y0124084D01*
X0204830Y0124070D01*
X0204778Y0124061D01*
X0204726Y0124055D01*
X0204673Y0124053D01*
X0203950Y0124053D01*
X0204817Y0124053D02*
X0205395Y0122897D01*
X0206799Y0122897D02*
X0208244Y0122897D01*
X0206799Y0122897D02*
X0208027Y0124342D01*
X0207594Y0125497D02*
X0207539Y0125495D01*
X0207484Y0125490D01*
X0207429Y0125481D01*
X0207376Y0125468D01*
X0207323Y0125452D01*
X0207271Y0125432D01*
X0207221Y0125409D01*
X0207172Y0125383D01*
X0207125Y0125353D01*
X0207081Y0125321D01*
X0207038Y0125285D01*
X0206998Y0125247D01*
X0206961Y0125206D01*
X0206926Y0125163D01*
X0206895Y0125118D01*
X0206866Y0125071D01*
X0206841Y0125022D01*
X0206818Y0124971D01*
X0206800Y0124919D01*
X0208027Y0124342D02*
X0208063Y0124378D01*
X0208096Y0124418D01*
X0208126Y0124459D01*
X0208153Y0124503D01*
X0208177Y0124549D01*
X0208197Y0124596D01*
X0208214Y0124644D01*
X0208227Y0124694D01*
X0208236Y0124745D01*
X0208242Y0124796D01*
X0208244Y0124847D01*
X0208242Y0124896D01*
X0208237Y0124944D01*
X0208228Y0124992D01*
X0208215Y0125039D01*
X0208199Y0125084D01*
X0208180Y0125129D01*
X0208157Y0125172D01*
X0208131Y0125213D01*
X0208102Y0125252D01*
X0208070Y0125289D01*
X0208036Y0125323D01*
X0207999Y0125355D01*
X0207960Y0125384D01*
X0207919Y0125410D01*
X0207876Y0125433D01*
X0207831Y0125452D01*
X0207786Y0125468D01*
X0207739Y0125481D01*
X0207691Y0125490D01*
X0207643Y0125495D01*
X0207594Y0125497D01*
X0211124Y0124197D02*
X0211122Y0124109D01*
X0211117Y0124020D01*
X0211108Y0123933D01*
X0211095Y0123845D01*
X0211079Y0123758D01*
X0211059Y0123672D01*
X0211035Y0123587D01*
X0211008Y0123503D01*
X0210978Y0123420D01*
X0210944Y0123338D01*
X0210907Y0123258D01*
X0210907Y0123259D02*
X0210891Y0123218D01*
X0210872Y0123178D01*
X0210849Y0123140D01*
X0210824Y0123104D01*
X0210795Y0123070D01*
X0210764Y0123039D01*
X0210730Y0123011D01*
X0210694Y0122985D01*
X0210656Y0122962D01*
X0210617Y0122943D01*
X0210575Y0122927D01*
X0210533Y0122914D01*
X0210490Y0122905D01*
X0210446Y0122900D01*
X0210402Y0122898D01*
X0210358Y0122900D01*
X0210314Y0122905D01*
X0210271Y0122914D01*
X0210229Y0122927D01*
X0210187Y0122943D01*
X0210148Y0122962D01*
X0210110Y0122985D01*
X0210074Y0123011D01*
X0210040Y0123039D01*
X0210009Y0123070D01*
X0209981Y0123104D01*
X0209955Y0123140D01*
X0209932Y0123178D01*
X0209913Y0123218D01*
X0209897Y0123259D01*
X0209824Y0123475D02*
X0210979Y0124919D01*
X0210907Y0125136D02*
X0210891Y0125177D01*
X0210872Y0125217D01*
X0210849Y0125255D01*
X0210824Y0125291D01*
X0210795Y0125325D01*
X0210764Y0125356D01*
X0210730Y0125384D01*
X0210694Y0125410D01*
X0210656Y0125433D01*
X0210617Y0125452D01*
X0210575Y0125468D01*
X0210533Y0125481D01*
X0210490Y0125490D01*
X0210446Y0125495D01*
X0210402Y0125497D01*
X0210358Y0125495D01*
X0210314Y0125490D01*
X0210271Y0125481D01*
X0210229Y0125468D01*
X0210187Y0125452D01*
X0210148Y0125433D01*
X0210110Y0125410D01*
X0210074Y0125384D01*
X0210040Y0125356D01*
X0210009Y0125325D01*
X0209981Y0125291D01*
X0209955Y0125255D01*
X0209932Y0125217D01*
X0209913Y0125177D01*
X0209897Y0125136D01*
X0210907Y0125136D02*
X0210944Y0125056D01*
X0210978Y0124974D01*
X0211008Y0124891D01*
X0211035Y0124807D01*
X0211059Y0124722D01*
X0211079Y0124636D01*
X0211095Y0124549D01*
X0211108Y0124461D01*
X0211117Y0124374D01*
X0211122Y0124285D01*
X0211124Y0124197D01*
X0209679Y0124197D02*
X0209681Y0124285D01*
X0209686Y0124374D01*
X0209695Y0124461D01*
X0209708Y0124549D01*
X0209724Y0124636D01*
X0209744Y0124722D01*
X0209768Y0124807D01*
X0209795Y0124891D01*
X0209825Y0124974D01*
X0209859Y0125056D01*
X0209896Y0125136D01*
X0209679Y0124197D02*
X0209681Y0124109D01*
X0209686Y0124020D01*
X0209695Y0123933D01*
X0209708Y0123845D01*
X0209724Y0123758D01*
X0209744Y0123672D01*
X0209768Y0123587D01*
X0209795Y0123503D01*
X0209825Y0123420D01*
X0209859Y0123338D01*
X0209896Y0123258D01*
X0203950Y0122897D02*
X0203950Y0125497D01*
X0203681Y0117498D02*
X0204403Y0117498D01*
X0203681Y0117498D02*
X0203681Y0114898D01*
X0203681Y0116054D02*
X0204403Y0116054D01*
X0204548Y0116054D02*
X0205125Y0114898D01*
X0206530Y0114898D02*
X0207974Y0114898D01*
X0207252Y0114898D02*
X0207252Y0117498D01*
X0206530Y0116920D01*
X0204403Y0117498D02*
X0204456Y0117496D01*
X0204508Y0117490D01*
X0204560Y0117481D01*
X0204611Y0117467D01*
X0204661Y0117450D01*
X0204709Y0117430D01*
X0204756Y0117406D01*
X0204801Y0117378D01*
X0204844Y0117347D01*
X0204885Y0117314D01*
X0204923Y0117277D01*
X0204958Y0117238D01*
X0204990Y0117196D01*
X0205019Y0117152D01*
X0205045Y0117106D01*
X0205067Y0117058D01*
X0205086Y0117009D01*
X0205102Y0116959D01*
X0205113Y0116907D01*
X0205121Y0116855D01*
X0205125Y0116802D01*
X0205125Y0116750D01*
X0205121Y0116697D01*
X0205113Y0116645D01*
X0205102Y0116593D01*
X0205086Y0116543D01*
X0205067Y0116494D01*
X0205045Y0116446D01*
X0205019Y0116400D01*
X0204990Y0116356D01*
X0204958Y0116314D01*
X0204923Y0116275D01*
X0204885Y0116238D01*
X0204844Y0116205D01*
X0204801Y0116174D01*
X0204756Y0116146D01*
X0204709Y0116122D01*
X0204661Y0116102D01*
X0204611Y0116085D01*
X0204560Y0116071D01*
X0204508Y0116062D01*
X0204456Y0116056D01*
X0204403Y0116054D01*
X0209410Y0116631D02*
X0209410Y0116776D01*
X0209410Y0116631D02*
X0209412Y0116586D01*
X0209417Y0116541D01*
X0209426Y0116496D01*
X0209438Y0116452D01*
X0209454Y0116410D01*
X0209473Y0116369D01*
X0209495Y0116329D01*
X0209520Y0116291D01*
X0209548Y0116256D01*
X0209579Y0116222D01*
X0209613Y0116191D01*
X0209648Y0116163D01*
X0209686Y0116138D01*
X0209726Y0116116D01*
X0209767Y0116097D01*
X0209809Y0116081D01*
X0209853Y0116069D01*
X0209898Y0116060D01*
X0209943Y0116055D01*
X0209988Y0116053D01*
X0209988Y0116054D02*
X0210854Y0116054D01*
X0210854Y0116776D01*
X0210852Y0116829D01*
X0210846Y0116881D01*
X0210837Y0116933D01*
X0210823Y0116984D01*
X0210806Y0117034D01*
X0210786Y0117082D01*
X0210762Y0117129D01*
X0210734Y0117174D01*
X0210703Y0117217D01*
X0210670Y0117258D01*
X0210633Y0117296D01*
X0210594Y0117331D01*
X0210552Y0117363D01*
X0210508Y0117392D01*
X0210462Y0117418D01*
X0210414Y0117440D01*
X0210365Y0117459D01*
X0210315Y0117475D01*
X0210263Y0117486D01*
X0210211Y0117494D01*
X0210158Y0117498D01*
X0210106Y0117498D01*
X0210053Y0117494D01*
X0210001Y0117486D01*
X0209949Y0117475D01*
X0209899Y0117459D01*
X0209850Y0117440D01*
X0209802Y0117418D01*
X0209756Y0117392D01*
X0209712Y0117363D01*
X0209670Y0117331D01*
X0209631Y0117296D01*
X0209594Y0117258D01*
X0209561Y0117217D01*
X0209530Y0117174D01*
X0209502Y0117129D01*
X0209478Y0117082D01*
X0209458Y0117034D01*
X0209441Y0116984D01*
X0209427Y0116933D01*
X0209418Y0116881D01*
X0209412Y0116829D01*
X0209410Y0116776D01*
X0210855Y0116054D02*
X0210853Y0115987D01*
X0210847Y0115920D01*
X0210837Y0115853D01*
X0210824Y0115787D01*
X0210806Y0115722D01*
X0210785Y0115659D01*
X0210760Y0115596D01*
X0210732Y0115535D01*
X0210700Y0115476D01*
X0210665Y0115419D01*
X0210626Y0115364D01*
X0210585Y0115311D01*
X0210540Y0115261D01*
X0210492Y0115213D01*
X0210442Y0115168D01*
X0210389Y0115127D01*
X0210334Y0115088D01*
X0210277Y0115053D01*
X0210218Y0115021D01*
X0210157Y0114993D01*
X0210094Y0114968D01*
X0210031Y0114947D01*
X0209966Y0114929D01*
X0209900Y0114916D01*
X0209833Y0114906D01*
X0209766Y0114900D01*
X0209699Y0114898D01*
X0146969Y0146969D02*
X0139095Y0139095D01*
X0131221Y0139095D01*
X0123347Y0146969D01*
X0110788Y0140757D02*
X0110788Y0140387D01*
X0110788Y0140757D02*
X0104410Y0140757D01*
X0104410Y0140387D01*
X0104410Y0137213D02*
X0104410Y0133103D01*
X0104410Y0129930D02*
X0104410Y0129560D01*
X0110788Y0129560D01*
X0110788Y0129930D01*
X0110788Y0133103D02*
X0110788Y0133473D01*
X0110788Y0136843D02*
X0110788Y0137213D01*
X0124525Y0136112D02*
X0127125Y0136112D01*
X0127125Y0135390D02*
X0127125Y0136835D01*
X0125103Y0135390D02*
X0124525Y0136112D01*
X0124525Y0134132D02*
X0124525Y0133554D01*
X0124527Y0133506D01*
X0124533Y0133459D01*
X0124543Y0133412D01*
X0124556Y0133366D01*
X0124574Y0133322D01*
X0124595Y0133279D01*
X0124619Y0133238D01*
X0124647Y0133199D01*
X0124678Y0133163D01*
X0124712Y0133129D01*
X0124748Y0133098D01*
X0124787Y0133070D01*
X0124828Y0133046D01*
X0124871Y0133025D01*
X0124915Y0133007D01*
X0124961Y0132994D01*
X0125008Y0132984D01*
X0125055Y0132978D01*
X0125103Y0132976D01*
X0126547Y0132976D01*
X0126595Y0132978D01*
X0126642Y0132984D01*
X0126689Y0132994D01*
X0126735Y0133007D01*
X0126779Y0133025D01*
X0126822Y0133046D01*
X0126863Y0133070D01*
X0126902Y0133098D01*
X0126938Y0133129D01*
X0126972Y0133163D01*
X0127003Y0133199D01*
X0127031Y0133238D01*
X0127055Y0133279D01*
X0127076Y0133322D01*
X0127094Y0133366D01*
X0127107Y0133412D01*
X0127117Y0133459D01*
X0127123Y0133506D01*
X0127125Y0133554D01*
X0127125Y0134132D01*
X0126844Y0119860D02*
X0126122Y0119860D01*
X0126122Y0117260D01*
X0126122Y0118416D02*
X0126844Y0118416D01*
X0126989Y0118416D02*
X0127566Y0117260D01*
X0128971Y0117260D02*
X0130415Y0117260D01*
X0129693Y0117260D02*
X0129693Y0119860D01*
X0128971Y0119282D01*
X0126844Y0119860D02*
X0126897Y0119858D01*
X0126949Y0119852D01*
X0127001Y0119843D01*
X0127052Y0119829D01*
X0127102Y0119812D01*
X0127150Y0119792D01*
X0127197Y0119768D01*
X0127242Y0119740D01*
X0127285Y0119709D01*
X0127326Y0119676D01*
X0127364Y0119639D01*
X0127399Y0119600D01*
X0127431Y0119558D01*
X0127460Y0119514D01*
X0127486Y0119468D01*
X0127508Y0119420D01*
X0127527Y0119371D01*
X0127543Y0119321D01*
X0127554Y0119269D01*
X0127562Y0119217D01*
X0127566Y0119164D01*
X0127566Y0119112D01*
X0127562Y0119059D01*
X0127554Y0119007D01*
X0127543Y0118955D01*
X0127527Y0118905D01*
X0127508Y0118856D01*
X0127486Y0118808D01*
X0127460Y0118762D01*
X0127431Y0118718D01*
X0127399Y0118676D01*
X0127364Y0118637D01*
X0127326Y0118600D01*
X0127285Y0118567D01*
X0127242Y0118536D01*
X0127197Y0118508D01*
X0127150Y0118484D01*
X0127102Y0118464D01*
X0127052Y0118447D01*
X0127001Y0118433D01*
X0126949Y0118424D01*
X0126897Y0118418D01*
X0126844Y0118416D01*
X0131851Y0117260D02*
X0133295Y0117260D01*
X0131851Y0117260D02*
X0133079Y0118705D01*
X0132645Y0119860D02*
X0132590Y0119858D01*
X0132535Y0119853D01*
X0132480Y0119844D01*
X0132427Y0119831D01*
X0132374Y0119815D01*
X0132322Y0119795D01*
X0132272Y0119772D01*
X0132223Y0119746D01*
X0132176Y0119716D01*
X0132132Y0119684D01*
X0132089Y0119648D01*
X0132049Y0119610D01*
X0132012Y0119569D01*
X0131977Y0119526D01*
X0131946Y0119481D01*
X0131917Y0119434D01*
X0131892Y0119385D01*
X0131869Y0119334D01*
X0131851Y0119282D01*
X0133078Y0118705D02*
X0133114Y0118741D01*
X0133147Y0118781D01*
X0133177Y0118822D01*
X0133204Y0118866D01*
X0133228Y0118912D01*
X0133248Y0118959D01*
X0133265Y0119007D01*
X0133278Y0119057D01*
X0133287Y0119108D01*
X0133293Y0119159D01*
X0133295Y0119210D01*
X0133293Y0119259D01*
X0133288Y0119307D01*
X0133279Y0119355D01*
X0133266Y0119402D01*
X0133250Y0119447D01*
X0133231Y0119492D01*
X0133208Y0119535D01*
X0133182Y0119576D01*
X0133153Y0119615D01*
X0133121Y0119652D01*
X0133087Y0119686D01*
X0133050Y0119718D01*
X0133011Y0119747D01*
X0132970Y0119773D01*
X0132927Y0119796D01*
X0132882Y0119815D01*
X0132837Y0119831D01*
X0132790Y0119844D01*
X0132742Y0119853D01*
X0132694Y0119858D01*
X0132645Y0119860D01*
X0128856Y0105736D02*
X0128568Y0105736D01*
X0128523Y0105734D01*
X0128478Y0105729D01*
X0128433Y0105720D01*
X0128389Y0105708D01*
X0128347Y0105692D01*
X0128306Y0105673D01*
X0128266Y0105651D01*
X0128228Y0105626D01*
X0128193Y0105598D01*
X0128159Y0105567D01*
X0128128Y0105533D01*
X0128100Y0105498D01*
X0128075Y0105460D01*
X0128053Y0105420D01*
X0128034Y0105379D01*
X0128018Y0105337D01*
X0128006Y0105293D01*
X0127997Y0105248D01*
X0127992Y0105203D01*
X0127990Y0105158D01*
X0127990Y0104292D01*
X0126834Y0104292D01*
X0126834Y0105736D01*
X0128856Y0105736D02*
X0128904Y0105734D01*
X0128951Y0105728D01*
X0128998Y0105718D01*
X0129044Y0105705D01*
X0129088Y0105687D01*
X0129131Y0105666D01*
X0129172Y0105642D01*
X0129211Y0105614D01*
X0129247Y0105583D01*
X0129281Y0105549D01*
X0129312Y0105513D01*
X0129340Y0105474D01*
X0129364Y0105433D01*
X0129385Y0105390D01*
X0129403Y0105346D01*
X0129416Y0105300D01*
X0129426Y0105253D01*
X0129432Y0105206D01*
X0129434Y0105158D01*
X0129434Y0104292D01*
X0129434Y0103033D02*
X0129434Y0102456D01*
X0129432Y0102408D01*
X0129426Y0102361D01*
X0129416Y0102314D01*
X0129403Y0102268D01*
X0129385Y0102224D01*
X0129364Y0102181D01*
X0129340Y0102140D01*
X0129312Y0102101D01*
X0129281Y0102065D01*
X0129247Y0102031D01*
X0129211Y0102000D01*
X0129172Y0101972D01*
X0129131Y0101948D01*
X0129088Y0101927D01*
X0129044Y0101909D01*
X0128998Y0101896D01*
X0128951Y0101886D01*
X0128904Y0101880D01*
X0128856Y0101878D01*
X0127412Y0101878D01*
X0127364Y0101880D01*
X0127317Y0101886D01*
X0127270Y0101896D01*
X0127224Y0101909D01*
X0127180Y0101927D01*
X0127137Y0101948D01*
X0127096Y0101972D01*
X0127057Y0102000D01*
X0127021Y0102031D01*
X0126987Y0102065D01*
X0126956Y0102101D01*
X0126928Y0102140D01*
X0126904Y0102181D01*
X0126883Y0102224D01*
X0126865Y0102268D01*
X0126852Y0102314D01*
X0126842Y0102361D01*
X0126836Y0102408D01*
X0126834Y0102456D01*
X0126834Y0103033D01*
X0121810Y0102792D02*
X0121810Y0104236D01*
X0121810Y0102792D02*
X0120366Y0104020D01*
X0119210Y0103586D02*
X0119212Y0103531D01*
X0119217Y0103476D01*
X0119226Y0103421D01*
X0119239Y0103368D01*
X0119255Y0103315D01*
X0119275Y0103263D01*
X0119298Y0103213D01*
X0119324Y0103164D01*
X0119354Y0103117D01*
X0119386Y0103073D01*
X0119422Y0103030D01*
X0119460Y0102990D01*
X0119501Y0102953D01*
X0119544Y0102918D01*
X0119589Y0102887D01*
X0119636Y0102858D01*
X0119685Y0102833D01*
X0119736Y0102810D01*
X0119788Y0102792D01*
X0120365Y0104019D02*
X0120329Y0104055D01*
X0120289Y0104088D01*
X0120248Y0104118D01*
X0120204Y0104145D01*
X0120158Y0104169D01*
X0120111Y0104189D01*
X0120063Y0104206D01*
X0120013Y0104219D01*
X0119962Y0104228D01*
X0119911Y0104234D01*
X0119860Y0104236D01*
X0119811Y0104234D01*
X0119763Y0104229D01*
X0119715Y0104220D01*
X0119668Y0104207D01*
X0119623Y0104191D01*
X0119578Y0104172D01*
X0119535Y0104149D01*
X0119494Y0104123D01*
X0119455Y0104094D01*
X0119418Y0104062D01*
X0119384Y0104028D01*
X0119352Y0103991D01*
X0119323Y0103952D01*
X0119297Y0103911D01*
X0119274Y0103868D01*
X0119255Y0103823D01*
X0119239Y0103778D01*
X0119226Y0103731D01*
X0119217Y0103683D01*
X0119212Y0103635D01*
X0119210Y0103586D01*
X0119210Y0101533D02*
X0119210Y0100956D01*
X0119212Y0100908D01*
X0119218Y0100861D01*
X0119228Y0100814D01*
X0119241Y0100768D01*
X0119259Y0100724D01*
X0119280Y0100681D01*
X0119304Y0100640D01*
X0119332Y0100601D01*
X0119363Y0100565D01*
X0119397Y0100531D01*
X0119433Y0100500D01*
X0119472Y0100472D01*
X0119513Y0100448D01*
X0119556Y0100427D01*
X0119600Y0100409D01*
X0119646Y0100396D01*
X0119693Y0100386D01*
X0119740Y0100380D01*
X0119788Y0100378D01*
X0121232Y0100378D01*
X0121280Y0100380D01*
X0121327Y0100386D01*
X0121374Y0100396D01*
X0121420Y0100409D01*
X0121464Y0100427D01*
X0121507Y0100448D01*
X0121548Y0100472D01*
X0121587Y0100500D01*
X0121623Y0100531D01*
X0121657Y0100565D01*
X0121688Y0100601D01*
X0121716Y0100640D01*
X0121740Y0100681D01*
X0121761Y0100724D01*
X0121779Y0100768D01*
X0121792Y0100814D01*
X0121802Y0100861D01*
X0121808Y0100908D01*
X0121810Y0100956D01*
X0121810Y0101533D01*
X0112468Y0103579D02*
X0112468Y0105024D01*
X0112468Y0104301D02*
X0109868Y0104301D01*
X0110445Y0103579D01*
X0109868Y0102048D02*
X0111745Y0102048D01*
X0111745Y0102047D02*
X0111798Y0102045D01*
X0111850Y0102039D01*
X0111902Y0102030D01*
X0111953Y0102016D01*
X0112003Y0101999D01*
X0112051Y0101979D01*
X0112098Y0101955D01*
X0112143Y0101927D01*
X0112186Y0101896D01*
X0112227Y0101863D01*
X0112265Y0101826D01*
X0112300Y0101787D01*
X0112332Y0101745D01*
X0112361Y0101701D01*
X0112387Y0101655D01*
X0112409Y0101607D01*
X0112428Y0101558D01*
X0112444Y0101508D01*
X0112455Y0101456D01*
X0112463Y0101404D01*
X0112467Y0101351D01*
X0112467Y0101299D01*
X0112463Y0101246D01*
X0112455Y0101194D01*
X0112444Y0101142D01*
X0112428Y0101092D01*
X0112409Y0101043D01*
X0112387Y0100995D01*
X0112361Y0100949D01*
X0112332Y0100905D01*
X0112300Y0100863D01*
X0112265Y0100824D01*
X0112227Y0100787D01*
X0112186Y0100754D01*
X0112143Y0100723D01*
X0112098Y0100695D01*
X0112051Y0100671D01*
X0112003Y0100651D01*
X0111953Y0100634D01*
X0111902Y0100620D01*
X0111850Y0100611D01*
X0111798Y0100605D01*
X0111745Y0100603D01*
X0109868Y0100603D01*
X0097036Y0101088D02*
X0097083Y0101086D01*
X0097129Y0101081D01*
X0097174Y0101071D01*
X0097219Y0101058D01*
X0097263Y0101042D01*
X0097305Y0101022D01*
X0097345Y0100999D01*
X0097383Y0100972D01*
X0097419Y0100943D01*
X0097453Y0100910D01*
X0097484Y0100876D01*
X0097512Y0100838D01*
X0097537Y0100799D01*
X0097558Y0100758D01*
X0097576Y0100715D01*
X0097591Y0100671D01*
X0097602Y0100626D01*
X0097610Y0100580D01*
X0097614Y0100533D01*
X0097614Y0100487D01*
X0097610Y0100440D01*
X0097602Y0100394D01*
X0097591Y0100349D01*
X0097576Y0100305D01*
X0097558Y0100262D01*
X0097537Y0100221D01*
X0097512Y0100182D01*
X0097484Y0100144D01*
X0097453Y0100110D01*
X0097419Y0100077D01*
X0097383Y0100048D01*
X0097345Y0100021D01*
X0097305Y0099998D01*
X0097263Y0099978D01*
X0097219Y0099962D01*
X0097174Y0099949D01*
X0097129Y0099939D01*
X0097083Y0099934D01*
X0097036Y0099932D01*
X0096458Y0099932D01*
X0096892Y0099932D02*
X0096945Y0099930D01*
X0096997Y0099924D01*
X0097049Y0099915D01*
X0097100Y0099901D01*
X0097150Y0099884D01*
X0097198Y0099864D01*
X0097245Y0099840D01*
X0097290Y0099812D01*
X0097333Y0099781D01*
X0097374Y0099748D01*
X0097412Y0099711D01*
X0097447Y0099672D01*
X0097479Y0099630D01*
X0097508Y0099586D01*
X0097534Y0099540D01*
X0097556Y0099492D01*
X0097575Y0099443D01*
X0097591Y0099393D01*
X0097602Y0099341D01*
X0097610Y0099289D01*
X0097614Y0099236D01*
X0097614Y0099184D01*
X0097610Y0099131D01*
X0097602Y0099079D01*
X0097591Y0099027D01*
X0097575Y0098977D01*
X0097556Y0098928D01*
X0097534Y0098880D01*
X0097508Y0098834D01*
X0097479Y0098790D01*
X0097447Y0098748D01*
X0097412Y0098709D01*
X0097374Y0098672D01*
X0097333Y0098639D01*
X0097290Y0098608D01*
X0097245Y0098580D01*
X0097198Y0098556D01*
X0097150Y0098536D01*
X0097100Y0098519D01*
X0097049Y0098505D01*
X0096997Y0098496D01*
X0096945Y0098490D01*
X0096892Y0098488D01*
X0096169Y0098488D01*
X0094765Y0098488D02*
X0094187Y0099643D01*
X0094043Y0099643D02*
X0093320Y0099643D01*
X0094043Y0099644D02*
X0094096Y0099646D01*
X0094148Y0099652D01*
X0094200Y0099661D01*
X0094251Y0099675D01*
X0094301Y0099692D01*
X0094349Y0099712D01*
X0094396Y0099736D01*
X0094441Y0099764D01*
X0094484Y0099795D01*
X0094525Y0099828D01*
X0094563Y0099865D01*
X0094598Y0099904D01*
X0094630Y0099946D01*
X0094659Y0099990D01*
X0094685Y0100036D01*
X0094707Y0100084D01*
X0094726Y0100133D01*
X0094742Y0100183D01*
X0094753Y0100235D01*
X0094761Y0100287D01*
X0094765Y0100340D01*
X0094765Y0100392D01*
X0094761Y0100445D01*
X0094753Y0100497D01*
X0094742Y0100549D01*
X0094726Y0100599D01*
X0094707Y0100648D01*
X0094685Y0100696D01*
X0094659Y0100742D01*
X0094630Y0100786D01*
X0094598Y0100828D01*
X0094563Y0100867D01*
X0094525Y0100904D01*
X0094484Y0100937D01*
X0094441Y0100968D01*
X0094396Y0100996D01*
X0094349Y0101020D01*
X0094301Y0101040D01*
X0094251Y0101057D01*
X0094200Y0101071D01*
X0094148Y0101080D01*
X0094096Y0101086D01*
X0094043Y0101088D01*
X0093320Y0101088D01*
X0093320Y0098488D01*
X0096169Y0101088D02*
X0097036Y0101088D01*
X0093820Y0107599D02*
X0089883Y0107599D01*
X0087914Y0109568D01*
X0087914Y0113505D01*
X0089883Y0115473D01*
X0087914Y0117442D01*
X0087914Y0121379D01*
X0089883Y0123347D01*
X0093820Y0123347D01*
X0095788Y0121379D01*
X0095788Y0117442D01*
X0093820Y0115473D01*
X0089883Y0115473D01*
X0093820Y0115473D01*
X0095788Y0113505D01*
X0095788Y0109568D01*
X0093820Y0107599D01*
X0087914Y0109568D02*
X0085946Y0107599D01*
X0082009Y0107599D01*
X0080040Y0109568D01*
X0080040Y0113505D01*
X0082009Y0115473D01*
X0080040Y0117442D01*
X0080040Y0121379D01*
X0082009Y0123347D01*
X0085946Y0123347D01*
X0087914Y0121379D01*
X0087914Y0117442D02*
X0085946Y0115473D01*
X0082009Y0115473D01*
X0085946Y0115473D01*
X0087914Y0113505D01*
X0080040Y0113505D02*
X0078072Y0115473D01*
X0074135Y0115473D01*
X0072166Y0117442D01*
X0072166Y0121379D01*
X0074135Y0123347D01*
X0078072Y0123347D01*
X0080040Y0121379D01*
X0080040Y0117442D02*
X0078072Y0115473D01*
X0074135Y0115473D01*
X0072166Y0113505D01*
X0072166Y0109568D01*
X0074135Y0107599D01*
X0078072Y0107599D01*
X0080040Y0109568D01*
X0072166Y0109568D02*
X0070198Y0107599D01*
X0066261Y0107599D01*
X0064292Y0109568D01*
X0064292Y0113505D01*
X0066261Y0115473D01*
X0064292Y0117442D01*
X0064292Y0121379D01*
X0066261Y0123347D01*
X0070198Y0123347D01*
X0072166Y0121379D01*
X0072166Y0117442D02*
X0070198Y0115473D01*
X0066261Y0115473D01*
X0070198Y0115473D01*
X0072166Y0113505D01*
X0064292Y0113505D02*
X0062324Y0115473D01*
X0058387Y0115473D01*
X0056418Y0117442D01*
X0056418Y0121379D01*
X0058387Y0123347D01*
X0062324Y0123347D01*
X0064292Y0121379D01*
X0064292Y0117442D02*
X0062324Y0115473D01*
X0058387Y0115473D01*
X0056418Y0113505D01*
X0056418Y0109568D01*
X0058387Y0107599D01*
X0062324Y0107599D01*
X0064292Y0109568D01*
X0072849Y0126077D02*
X0074005Y0126077D01*
X0072849Y0126077D02*
X0072849Y0128677D01*
X0075345Y0128677D02*
X0076501Y0128677D01*
X0075345Y0128677D02*
X0075345Y0126077D01*
X0076501Y0126077D01*
X0077832Y0126077D02*
X0078554Y0126077D01*
X0078606Y0126079D01*
X0078657Y0126084D01*
X0078707Y0126093D01*
X0078757Y0126106D01*
X0078806Y0126123D01*
X0078854Y0126142D01*
X0078900Y0126165D01*
X0078944Y0126192D01*
X0078987Y0126221D01*
X0079027Y0126253D01*
X0079065Y0126288D01*
X0079100Y0126326D01*
X0079132Y0126366D01*
X0079161Y0126409D01*
X0079188Y0126453D01*
X0079211Y0126499D01*
X0079230Y0126547D01*
X0079247Y0126596D01*
X0079260Y0126646D01*
X0079269Y0126696D01*
X0079274Y0126747D01*
X0079276Y0126799D01*
X0079276Y0127955D01*
X0079274Y0128007D01*
X0079269Y0128058D01*
X0079260Y0128108D01*
X0079247Y0128158D01*
X0079230Y0128207D01*
X0079211Y0128255D01*
X0079188Y0128301D01*
X0079161Y0128345D01*
X0079132Y0128388D01*
X0079100Y0128428D01*
X0079065Y0128466D01*
X0079027Y0128501D01*
X0078987Y0128533D01*
X0078944Y0128562D01*
X0078900Y0128589D01*
X0078854Y0128612D01*
X0078806Y0128631D01*
X0078757Y0128648D01*
X0078707Y0128661D01*
X0078657Y0128670D01*
X0078606Y0128675D01*
X0078554Y0128677D01*
X0077832Y0128677D01*
X0077832Y0126077D01*
X0076212Y0127522D02*
X0075345Y0127522D01*
X0070498Y0126415D02*
X0069053Y0126415D01*
X0069776Y0126415D02*
X0069776Y0129015D01*
X0069053Y0128437D01*
X0066927Y0129015D02*
X0066980Y0129013D01*
X0067032Y0129007D01*
X0067084Y0128998D01*
X0067135Y0128984D01*
X0067185Y0128967D01*
X0067233Y0128947D01*
X0067280Y0128923D01*
X0067325Y0128895D01*
X0067368Y0128864D01*
X0067409Y0128831D01*
X0067447Y0128794D01*
X0067482Y0128755D01*
X0067514Y0128713D01*
X0067543Y0128669D01*
X0067569Y0128623D01*
X0067591Y0128575D01*
X0067610Y0128526D01*
X0067626Y0128476D01*
X0067637Y0128424D01*
X0067645Y0128372D01*
X0067649Y0128319D01*
X0067649Y0128267D01*
X0067645Y0128214D01*
X0067637Y0128162D01*
X0067626Y0128110D01*
X0067610Y0128060D01*
X0067591Y0128011D01*
X0067569Y0127963D01*
X0067543Y0127917D01*
X0067514Y0127873D01*
X0067482Y0127831D01*
X0067447Y0127792D01*
X0067409Y0127755D01*
X0067368Y0127722D01*
X0067325Y0127691D01*
X0067280Y0127663D01*
X0067233Y0127639D01*
X0067185Y0127619D01*
X0067135Y0127602D01*
X0067084Y0127588D01*
X0067032Y0127579D01*
X0066980Y0127573D01*
X0066927Y0127571D01*
X0066204Y0127571D01*
X0067071Y0127571D02*
X0067649Y0126415D01*
X0066204Y0126415D02*
X0066204Y0129015D01*
X0066927Y0129015D01*
X0080808Y0128099D02*
X0081530Y0128677D01*
X0081530Y0126077D01*
X0080808Y0126077D02*
X0082252Y0126077D01*
X0093638Y0140958D02*
X0093638Y0141680D01*
X0093638Y0140958D02*
X0096238Y0140958D01*
X0095083Y0140958D02*
X0095083Y0141680D01*
X0095083Y0141825D02*
X0096238Y0142403D01*
X0096238Y0143807D02*
X0096238Y0145252D01*
X0096238Y0143807D02*
X0094794Y0145035D01*
X0093638Y0144602D02*
X0093640Y0144547D01*
X0093645Y0144492D01*
X0093654Y0144437D01*
X0093667Y0144384D01*
X0093683Y0144331D01*
X0093703Y0144279D01*
X0093726Y0144229D01*
X0093752Y0144180D01*
X0093782Y0144133D01*
X0093814Y0144089D01*
X0093850Y0144046D01*
X0093888Y0144006D01*
X0093929Y0143969D01*
X0093972Y0143934D01*
X0094017Y0143903D01*
X0094064Y0143874D01*
X0094113Y0143849D01*
X0094164Y0143826D01*
X0094216Y0143808D01*
X0094793Y0145035D02*
X0094757Y0145071D01*
X0094717Y0145104D01*
X0094676Y0145134D01*
X0094632Y0145161D01*
X0094586Y0145185D01*
X0094539Y0145205D01*
X0094491Y0145222D01*
X0094441Y0145235D01*
X0094390Y0145244D01*
X0094339Y0145250D01*
X0094288Y0145252D01*
X0094239Y0145250D01*
X0094191Y0145245D01*
X0094143Y0145236D01*
X0094096Y0145223D01*
X0094051Y0145207D01*
X0094006Y0145188D01*
X0093963Y0145165D01*
X0093922Y0145139D01*
X0093883Y0145110D01*
X0093846Y0145078D01*
X0093812Y0145044D01*
X0093780Y0145007D01*
X0093751Y0144968D01*
X0093725Y0144927D01*
X0093702Y0144884D01*
X0093683Y0144839D01*
X0093667Y0144794D01*
X0093654Y0144747D01*
X0093645Y0144699D01*
X0093640Y0144651D01*
X0093638Y0144602D01*
X0093638Y0141680D02*
X0093640Y0141733D01*
X0093646Y0141785D01*
X0093655Y0141837D01*
X0093669Y0141888D01*
X0093686Y0141938D01*
X0093706Y0141986D01*
X0093730Y0142033D01*
X0093758Y0142078D01*
X0093789Y0142121D01*
X0093822Y0142162D01*
X0093859Y0142200D01*
X0093898Y0142235D01*
X0093940Y0142267D01*
X0093984Y0142296D01*
X0094030Y0142322D01*
X0094078Y0142344D01*
X0094127Y0142363D01*
X0094177Y0142379D01*
X0094229Y0142390D01*
X0094281Y0142398D01*
X0094334Y0142402D01*
X0094386Y0142402D01*
X0094439Y0142398D01*
X0094491Y0142390D01*
X0094543Y0142379D01*
X0094593Y0142363D01*
X0094642Y0142344D01*
X0094690Y0142322D01*
X0094736Y0142296D01*
X0094780Y0142267D01*
X0094822Y0142235D01*
X0094861Y0142200D01*
X0094898Y0142162D01*
X0094931Y0142121D01*
X0094962Y0142078D01*
X0094990Y0142033D01*
X0095014Y0141986D01*
X0095034Y0141938D01*
X0095051Y0141888D01*
X0095065Y0141837D01*
X0095074Y0141785D01*
X0095080Y0141733D01*
X0095082Y0141680D01*
X0107298Y0090272D02*
X0107298Y0088828D01*
X0108453Y0088828D01*
X0108453Y0089695D01*
X0108455Y0089740D01*
X0108460Y0089785D01*
X0108469Y0089830D01*
X0108481Y0089874D01*
X0108497Y0089916D01*
X0108516Y0089957D01*
X0108538Y0089997D01*
X0108563Y0090035D01*
X0108591Y0090070D01*
X0108622Y0090104D01*
X0108656Y0090135D01*
X0108691Y0090163D01*
X0108729Y0090188D01*
X0108769Y0090210D01*
X0108810Y0090229D01*
X0108852Y0090245D01*
X0108896Y0090257D01*
X0108941Y0090266D01*
X0108986Y0090271D01*
X0109031Y0090273D01*
X0109031Y0090272D02*
X0109320Y0090272D01*
X0109320Y0090273D02*
X0109368Y0090271D01*
X0109415Y0090265D01*
X0109462Y0090255D01*
X0109508Y0090242D01*
X0109552Y0090224D01*
X0109595Y0090203D01*
X0109636Y0090179D01*
X0109675Y0090151D01*
X0109711Y0090120D01*
X0109745Y0090086D01*
X0109776Y0090050D01*
X0109804Y0090011D01*
X0109828Y0089970D01*
X0109849Y0089927D01*
X0109867Y0089883D01*
X0109880Y0089837D01*
X0109890Y0089790D01*
X0109896Y0089743D01*
X0109898Y0089695D01*
X0109898Y0088828D01*
X0109175Y0087296D02*
X0107298Y0087296D01*
X0107298Y0085852D02*
X0109175Y0085852D01*
X0109228Y0085854D01*
X0109280Y0085860D01*
X0109332Y0085869D01*
X0109383Y0085883D01*
X0109433Y0085900D01*
X0109481Y0085920D01*
X0109528Y0085944D01*
X0109573Y0085972D01*
X0109616Y0086003D01*
X0109657Y0086036D01*
X0109695Y0086073D01*
X0109730Y0086112D01*
X0109762Y0086154D01*
X0109791Y0086198D01*
X0109817Y0086244D01*
X0109839Y0086292D01*
X0109858Y0086341D01*
X0109874Y0086391D01*
X0109885Y0086443D01*
X0109893Y0086495D01*
X0109897Y0086548D01*
X0109897Y0086600D01*
X0109893Y0086653D01*
X0109885Y0086705D01*
X0109874Y0086757D01*
X0109858Y0086807D01*
X0109839Y0086856D01*
X0109817Y0086904D01*
X0109791Y0086950D01*
X0109762Y0086994D01*
X0109730Y0087036D01*
X0109695Y0087075D01*
X0109657Y0087112D01*
X0109616Y0087145D01*
X0109573Y0087176D01*
X0109528Y0087204D01*
X0109481Y0087228D01*
X0109433Y0087248D01*
X0109383Y0087265D01*
X0109332Y0087279D01*
X0109280Y0087288D01*
X0109228Y0087294D01*
X0109175Y0087296D01*
X0099925Y0086539D02*
X0099925Y0085817D01*
X0099925Y0086539D02*
X0099923Y0086592D01*
X0099917Y0086644D01*
X0099908Y0086696D01*
X0099894Y0086747D01*
X0099877Y0086797D01*
X0099857Y0086845D01*
X0099833Y0086892D01*
X0099805Y0086937D01*
X0099774Y0086980D01*
X0099741Y0087021D01*
X0099704Y0087059D01*
X0099665Y0087094D01*
X0099623Y0087126D01*
X0099579Y0087155D01*
X0099533Y0087181D01*
X0099485Y0087203D01*
X0099436Y0087222D01*
X0099386Y0087238D01*
X0099334Y0087249D01*
X0099282Y0087257D01*
X0099229Y0087261D01*
X0099177Y0087261D01*
X0099124Y0087257D01*
X0099072Y0087249D01*
X0099020Y0087238D01*
X0098970Y0087222D01*
X0098921Y0087203D01*
X0098873Y0087181D01*
X0098827Y0087155D01*
X0098783Y0087126D01*
X0098741Y0087094D01*
X0098702Y0087059D01*
X0098665Y0087021D01*
X0098632Y0086980D01*
X0098601Y0086937D01*
X0098573Y0086892D01*
X0098549Y0086845D01*
X0098529Y0086797D01*
X0098512Y0086747D01*
X0098498Y0086696D01*
X0098489Y0086644D01*
X0098483Y0086592D01*
X0098481Y0086539D01*
X0098481Y0086684D02*
X0098481Y0086106D01*
X0098481Y0086684D02*
X0098479Y0086731D01*
X0098474Y0086777D01*
X0098464Y0086822D01*
X0098451Y0086867D01*
X0098435Y0086911D01*
X0098415Y0086953D01*
X0098392Y0086993D01*
X0098365Y0087031D01*
X0098336Y0087067D01*
X0098303Y0087101D01*
X0098269Y0087132D01*
X0098231Y0087160D01*
X0098192Y0087185D01*
X0098151Y0087206D01*
X0098108Y0087224D01*
X0098064Y0087239D01*
X0098019Y0087250D01*
X0097973Y0087258D01*
X0097926Y0087262D01*
X0097880Y0087262D01*
X0097833Y0087258D01*
X0097787Y0087250D01*
X0097742Y0087239D01*
X0097698Y0087224D01*
X0097655Y0087206D01*
X0097614Y0087185D01*
X0097575Y0087160D01*
X0097537Y0087132D01*
X0097503Y0087101D01*
X0097470Y0087067D01*
X0097441Y0087031D01*
X0097414Y0086993D01*
X0097391Y0086953D01*
X0097371Y0086911D01*
X0097355Y0086867D01*
X0097342Y0086822D01*
X0097332Y0086777D01*
X0097327Y0086731D01*
X0097325Y0086684D01*
X0097325Y0085817D01*
X0097325Y0084559D02*
X0097325Y0083981D01*
X0097327Y0083933D01*
X0097333Y0083886D01*
X0097343Y0083839D01*
X0097356Y0083793D01*
X0097374Y0083749D01*
X0097395Y0083706D01*
X0097419Y0083665D01*
X0097447Y0083626D01*
X0097478Y0083590D01*
X0097512Y0083556D01*
X0097548Y0083525D01*
X0097587Y0083497D01*
X0097628Y0083473D01*
X0097671Y0083452D01*
X0097715Y0083434D01*
X0097761Y0083421D01*
X0097808Y0083411D01*
X0097855Y0083405D01*
X0097903Y0083403D01*
X0099347Y0083403D01*
X0099395Y0083405D01*
X0099442Y0083411D01*
X0099489Y0083421D01*
X0099535Y0083434D01*
X0099579Y0083452D01*
X0099622Y0083473D01*
X0099663Y0083497D01*
X0099702Y0083525D01*
X0099738Y0083556D01*
X0099772Y0083590D01*
X0099803Y0083626D01*
X0099831Y0083665D01*
X0099855Y0083706D01*
X0099876Y0083749D01*
X0099894Y0083793D01*
X0099907Y0083839D01*
X0099917Y0083886D01*
X0099923Y0083933D01*
X0099925Y0083981D01*
X0099925Y0084559D01*
X0098968Y0068779D02*
X0097524Y0068779D01*
X0097524Y0067623D01*
X0098391Y0067623D01*
X0098436Y0067621D01*
X0098481Y0067616D01*
X0098526Y0067607D01*
X0098570Y0067595D01*
X0098612Y0067579D01*
X0098653Y0067560D01*
X0098693Y0067538D01*
X0098731Y0067513D01*
X0098766Y0067485D01*
X0098800Y0067454D01*
X0098831Y0067420D01*
X0098859Y0067385D01*
X0098884Y0067347D01*
X0098906Y0067307D01*
X0098925Y0067266D01*
X0098941Y0067224D01*
X0098953Y0067180D01*
X0098962Y0067135D01*
X0098967Y0067090D01*
X0098969Y0067045D01*
X0098968Y0067045D02*
X0098968Y0066757D01*
X0098969Y0066757D02*
X0098967Y0066709D01*
X0098961Y0066662D01*
X0098951Y0066615D01*
X0098938Y0066569D01*
X0098920Y0066525D01*
X0098899Y0066482D01*
X0098875Y0066441D01*
X0098847Y0066402D01*
X0098816Y0066366D01*
X0098782Y0066332D01*
X0098746Y0066301D01*
X0098707Y0066273D01*
X0098666Y0066249D01*
X0098623Y0066228D01*
X0098579Y0066210D01*
X0098533Y0066197D01*
X0098486Y0066187D01*
X0098439Y0066181D01*
X0098391Y0066179D01*
X0097524Y0066179D01*
X0096088Y0066179D02*
X0094644Y0066179D01*
X0095366Y0066179D02*
X0095366Y0068779D01*
X0094644Y0068201D01*
X0092517Y0068779D02*
X0092570Y0068777D01*
X0092622Y0068771D01*
X0092674Y0068762D01*
X0092725Y0068748D01*
X0092775Y0068731D01*
X0092823Y0068711D01*
X0092870Y0068687D01*
X0092915Y0068659D01*
X0092958Y0068628D01*
X0092999Y0068595D01*
X0093037Y0068558D01*
X0093072Y0068519D01*
X0093104Y0068477D01*
X0093133Y0068433D01*
X0093159Y0068387D01*
X0093181Y0068339D01*
X0093200Y0068290D01*
X0093216Y0068240D01*
X0093227Y0068188D01*
X0093235Y0068136D01*
X0093239Y0068083D01*
X0093239Y0068031D01*
X0093235Y0067978D01*
X0093227Y0067926D01*
X0093216Y0067874D01*
X0093200Y0067824D01*
X0093181Y0067775D01*
X0093159Y0067727D01*
X0093133Y0067681D01*
X0093104Y0067637D01*
X0093072Y0067595D01*
X0093037Y0067556D01*
X0092999Y0067519D01*
X0092958Y0067486D01*
X0092915Y0067455D01*
X0092870Y0067427D01*
X0092823Y0067403D01*
X0092775Y0067383D01*
X0092725Y0067366D01*
X0092674Y0067352D01*
X0092622Y0067343D01*
X0092570Y0067337D01*
X0092517Y0067335D01*
X0092517Y0067334D02*
X0091795Y0067334D01*
X0092662Y0067334D02*
X0093239Y0066179D01*
X0091795Y0066179D02*
X0091795Y0068779D01*
X0092517Y0068779D01*
X0100130Y0068127D02*
X0100130Y0066682D01*
X0100129Y0066682D02*
X0100131Y0066637D01*
X0100136Y0066592D01*
X0100145Y0066547D01*
X0100157Y0066503D01*
X0100173Y0066461D01*
X0100192Y0066420D01*
X0100214Y0066380D01*
X0100239Y0066342D01*
X0100267Y0066307D01*
X0100298Y0066273D01*
X0100332Y0066242D01*
X0100367Y0066214D01*
X0100405Y0066189D01*
X0100445Y0066167D01*
X0100486Y0066148D01*
X0100528Y0066132D01*
X0100572Y0066120D01*
X0100617Y0066111D01*
X0100662Y0066106D01*
X0100707Y0066104D01*
X0100707Y0066105D02*
X0101285Y0066105D01*
X0102544Y0066105D02*
X0103988Y0066105D01*
X0103266Y0066105D02*
X0103266Y0068705D01*
X0102544Y0068127D01*
X0101285Y0068705D02*
X0100707Y0068705D01*
X0100659Y0068703D01*
X0100612Y0068697D01*
X0100565Y0068687D01*
X0100519Y0068674D01*
X0100475Y0068656D01*
X0100432Y0068635D01*
X0100391Y0068611D01*
X0100352Y0068583D01*
X0100316Y0068552D01*
X0100282Y0068518D01*
X0100251Y0068482D01*
X0100223Y0068443D01*
X0100199Y0068402D01*
X0100178Y0068359D01*
X0100160Y0068315D01*
X0100147Y0068269D01*
X0100137Y0068222D01*
X0100131Y0068175D01*
X0100129Y0068127D01*
X0105424Y0068127D02*
X0106146Y0068705D01*
X0106146Y0066105D01*
X0105424Y0066105D02*
X0106868Y0066105D01*
X0108330Y0066757D02*
X0108330Y0068201D01*
X0108332Y0068249D01*
X0108338Y0068296D01*
X0108348Y0068343D01*
X0108361Y0068389D01*
X0108379Y0068433D01*
X0108400Y0068476D01*
X0108424Y0068517D01*
X0108452Y0068556D01*
X0108483Y0068592D01*
X0108517Y0068626D01*
X0108553Y0068657D01*
X0108592Y0068685D01*
X0108633Y0068709D01*
X0108676Y0068730D01*
X0108720Y0068748D01*
X0108766Y0068761D01*
X0108813Y0068771D01*
X0108860Y0068777D01*
X0108908Y0068779D01*
X0109486Y0068779D01*
X0110744Y0068201D02*
X0111467Y0068779D01*
X0111467Y0066179D01*
X0112189Y0066179D02*
X0110744Y0066179D01*
X0109486Y0066179D02*
X0108908Y0066179D01*
X0108863Y0066181D01*
X0108818Y0066186D01*
X0108773Y0066195D01*
X0108729Y0066207D01*
X0108687Y0066223D01*
X0108646Y0066242D01*
X0108606Y0066264D01*
X0108568Y0066289D01*
X0108533Y0066317D01*
X0108499Y0066348D01*
X0108468Y0066382D01*
X0108440Y0066417D01*
X0108415Y0066455D01*
X0108393Y0066495D01*
X0108374Y0066536D01*
X0108358Y0066578D01*
X0108346Y0066622D01*
X0108337Y0066667D01*
X0108332Y0066712D01*
X0108330Y0066757D01*
X0113624Y0066179D02*
X0114347Y0066179D01*
X0114400Y0066181D01*
X0114452Y0066187D01*
X0114504Y0066196D01*
X0114555Y0066210D01*
X0114605Y0066227D01*
X0114653Y0066247D01*
X0114700Y0066271D01*
X0114745Y0066299D01*
X0114788Y0066330D01*
X0114829Y0066363D01*
X0114867Y0066400D01*
X0114902Y0066439D01*
X0114934Y0066481D01*
X0114963Y0066525D01*
X0114989Y0066571D01*
X0115011Y0066619D01*
X0115030Y0066668D01*
X0115046Y0066718D01*
X0115057Y0066770D01*
X0115065Y0066822D01*
X0115069Y0066875D01*
X0115069Y0066927D01*
X0115065Y0066980D01*
X0115057Y0067032D01*
X0115046Y0067084D01*
X0115030Y0067134D01*
X0115011Y0067183D01*
X0114989Y0067231D01*
X0114963Y0067277D01*
X0114934Y0067321D01*
X0114902Y0067363D01*
X0114867Y0067402D01*
X0114829Y0067439D01*
X0114788Y0067472D01*
X0114745Y0067503D01*
X0114700Y0067531D01*
X0114653Y0067555D01*
X0114605Y0067575D01*
X0114555Y0067592D01*
X0114504Y0067606D01*
X0114452Y0067615D01*
X0114400Y0067621D01*
X0114347Y0067623D01*
X0114491Y0067623D02*
X0113913Y0067623D01*
X0114491Y0067623D02*
X0114538Y0067625D01*
X0114584Y0067630D01*
X0114629Y0067640D01*
X0114674Y0067653D01*
X0114718Y0067669D01*
X0114760Y0067689D01*
X0114800Y0067712D01*
X0114838Y0067739D01*
X0114874Y0067768D01*
X0114908Y0067801D01*
X0114939Y0067835D01*
X0114967Y0067873D01*
X0114992Y0067912D01*
X0115013Y0067953D01*
X0115031Y0067996D01*
X0115046Y0068040D01*
X0115057Y0068085D01*
X0115065Y0068131D01*
X0115069Y0068178D01*
X0115069Y0068224D01*
X0115065Y0068271D01*
X0115057Y0068317D01*
X0115046Y0068362D01*
X0115031Y0068406D01*
X0115013Y0068449D01*
X0114992Y0068490D01*
X0114967Y0068529D01*
X0114939Y0068567D01*
X0114908Y0068601D01*
X0114874Y0068634D01*
X0114838Y0068663D01*
X0114800Y0068690D01*
X0114760Y0068713D01*
X0114718Y0068733D01*
X0114674Y0068749D01*
X0114629Y0068762D01*
X0114584Y0068772D01*
X0114538Y0068777D01*
X0114491Y0068779D01*
X0113624Y0068779D01*
X0118173Y0068201D02*
X0118173Y0066757D01*
X0118175Y0066712D01*
X0118180Y0066667D01*
X0118189Y0066622D01*
X0118201Y0066578D01*
X0118217Y0066536D01*
X0118236Y0066495D01*
X0118258Y0066455D01*
X0118283Y0066417D01*
X0118311Y0066382D01*
X0118342Y0066348D01*
X0118376Y0066317D01*
X0118411Y0066289D01*
X0118449Y0066264D01*
X0118489Y0066242D01*
X0118530Y0066223D01*
X0118572Y0066207D01*
X0118616Y0066195D01*
X0118661Y0066186D01*
X0118706Y0066181D01*
X0118751Y0066179D01*
X0119328Y0066179D01*
X0118173Y0068201D02*
X0118175Y0068249D01*
X0118181Y0068296D01*
X0118191Y0068343D01*
X0118204Y0068389D01*
X0118222Y0068433D01*
X0118243Y0068476D01*
X0118267Y0068517D01*
X0118295Y0068556D01*
X0118326Y0068592D01*
X0118360Y0068626D01*
X0118396Y0068657D01*
X0118435Y0068685D01*
X0118476Y0068709D01*
X0118519Y0068730D01*
X0118563Y0068748D01*
X0118609Y0068761D01*
X0118656Y0068771D01*
X0118703Y0068777D01*
X0118751Y0068779D01*
X0119328Y0068779D01*
X0120731Y0068201D02*
X0120733Y0068154D01*
X0120738Y0068108D01*
X0120748Y0068063D01*
X0120761Y0068018D01*
X0120777Y0067974D01*
X0120797Y0067932D01*
X0120820Y0067892D01*
X0120847Y0067854D01*
X0120876Y0067818D01*
X0120909Y0067784D01*
X0120943Y0067753D01*
X0120981Y0067725D01*
X0121020Y0067700D01*
X0121061Y0067679D01*
X0121104Y0067661D01*
X0121148Y0067646D01*
X0121193Y0067635D01*
X0121239Y0067627D01*
X0121286Y0067623D01*
X0121332Y0067623D01*
X0121379Y0067627D01*
X0121425Y0067635D01*
X0121470Y0067646D01*
X0121514Y0067661D01*
X0121557Y0067679D01*
X0121598Y0067700D01*
X0121637Y0067725D01*
X0121675Y0067753D01*
X0121709Y0067784D01*
X0121742Y0067818D01*
X0121771Y0067854D01*
X0121798Y0067892D01*
X0121821Y0067932D01*
X0121841Y0067974D01*
X0121857Y0068018D01*
X0121870Y0068063D01*
X0121880Y0068108D01*
X0121885Y0068154D01*
X0121887Y0068201D01*
X0121885Y0068248D01*
X0121880Y0068294D01*
X0121870Y0068339D01*
X0121857Y0068384D01*
X0121841Y0068428D01*
X0121821Y0068470D01*
X0121798Y0068510D01*
X0121771Y0068548D01*
X0121742Y0068584D01*
X0121709Y0068618D01*
X0121675Y0068649D01*
X0121637Y0068677D01*
X0121598Y0068702D01*
X0121557Y0068723D01*
X0121514Y0068741D01*
X0121470Y0068756D01*
X0121425Y0068767D01*
X0121379Y0068775D01*
X0121332Y0068779D01*
X0121286Y0068779D01*
X0121239Y0068775D01*
X0121193Y0068767D01*
X0121148Y0068756D01*
X0121104Y0068741D01*
X0121061Y0068723D01*
X0121020Y0068702D01*
X0120981Y0068677D01*
X0120943Y0068649D01*
X0120909Y0068618D01*
X0120876Y0068584D01*
X0120847Y0068548D01*
X0120820Y0068510D01*
X0120797Y0068470D01*
X0120777Y0068428D01*
X0120761Y0068384D01*
X0120748Y0068339D01*
X0120738Y0068294D01*
X0120733Y0068248D01*
X0120731Y0068201D01*
X0120587Y0066901D02*
X0120589Y0066848D01*
X0120595Y0066796D01*
X0120604Y0066744D01*
X0120618Y0066693D01*
X0120635Y0066643D01*
X0120655Y0066595D01*
X0120679Y0066548D01*
X0120707Y0066503D01*
X0120738Y0066460D01*
X0120771Y0066419D01*
X0120808Y0066381D01*
X0120847Y0066346D01*
X0120889Y0066314D01*
X0120933Y0066285D01*
X0120979Y0066259D01*
X0121027Y0066237D01*
X0121076Y0066218D01*
X0121126Y0066202D01*
X0121178Y0066191D01*
X0121230Y0066183D01*
X0121283Y0066179D01*
X0121335Y0066179D01*
X0121388Y0066183D01*
X0121440Y0066191D01*
X0121492Y0066202D01*
X0121542Y0066218D01*
X0121591Y0066237D01*
X0121639Y0066259D01*
X0121685Y0066285D01*
X0121729Y0066314D01*
X0121771Y0066346D01*
X0121810Y0066381D01*
X0121847Y0066419D01*
X0121880Y0066460D01*
X0121911Y0066503D01*
X0121939Y0066548D01*
X0121963Y0066595D01*
X0121983Y0066643D01*
X0122000Y0066693D01*
X0122014Y0066744D01*
X0122023Y0066796D01*
X0122029Y0066848D01*
X0122031Y0066901D01*
X0122029Y0066954D01*
X0122023Y0067006D01*
X0122014Y0067058D01*
X0122000Y0067109D01*
X0121983Y0067159D01*
X0121963Y0067207D01*
X0121939Y0067254D01*
X0121911Y0067299D01*
X0121880Y0067342D01*
X0121847Y0067383D01*
X0121810Y0067421D01*
X0121771Y0067456D01*
X0121729Y0067488D01*
X0121685Y0067517D01*
X0121639Y0067543D01*
X0121591Y0067565D01*
X0121542Y0067584D01*
X0121492Y0067600D01*
X0121440Y0067611D01*
X0121388Y0067619D01*
X0121335Y0067623D01*
X0121283Y0067623D01*
X0121230Y0067619D01*
X0121178Y0067611D01*
X0121126Y0067600D01*
X0121076Y0067584D01*
X0121027Y0067565D01*
X0120979Y0067543D01*
X0120933Y0067517D01*
X0120889Y0067488D01*
X0120847Y0067456D01*
X0120808Y0067421D01*
X0120771Y0067383D01*
X0120738Y0067342D01*
X0120707Y0067299D01*
X0120679Y0067254D01*
X0120655Y0067207D01*
X0120635Y0067159D01*
X0120618Y0067109D01*
X0120604Y0067058D01*
X0120595Y0067006D01*
X0120589Y0066954D01*
X0120587Y0066901D01*
X0126496Y0074865D02*
X0126496Y0077465D01*
X0127219Y0077465D01*
X0127266Y0077463D01*
X0127312Y0077458D01*
X0127357Y0077448D01*
X0127402Y0077435D01*
X0127446Y0077419D01*
X0127488Y0077399D01*
X0127528Y0077376D01*
X0127566Y0077349D01*
X0127602Y0077320D01*
X0127636Y0077287D01*
X0127667Y0077253D01*
X0127695Y0077215D01*
X0127720Y0077176D01*
X0127741Y0077135D01*
X0127759Y0077092D01*
X0127774Y0077048D01*
X0127785Y0077003D01*
X0127793Y0076957D01*
X0127797Y0076910D01*
X0127797Y0076864D01*
X0127793Y0076817D01*
X0127785Y0076771D01*
X0127774Y0076726D01*
X0127759Y0076682D01*
X0127741Y0076639D01*
X0127720Y0076598D01*
X0127695Y0076559D01*
X0127667Y0076521D01*
X0127636Y0076487D01*
X0127602Y0076454D01*
X0127566Y0076425D01*
X0127528Y0076398D01*
X0127488Y0076375D01*
X0127446Y0076355D01*
X0127402Y0076339D01*
X0127357Y0076326D01*
X0127312Y0076316D01*
X0127266Y0076311D01*
X0127219Y0076309D01*
X0126496Y0076309D01*
X0127219Y0076309D02*
X0127272Y0076307D01*
X0127324Y0076301D01*
X0127376Y0076292D01*
X0127427Y0076278D01*
X0127477Y0076261D01*
X0127525Y0076241D01*
X0127572Y0076217D01*
X0127617Y0076189D01*
X0127660Y0076158D01*
X0127701Y0076125D01*
X0127739Y0076088D01*
X0127774Y0076049D01*
X0127806Y0076007D01*
X0127835Y0075963D01*
X0127861Y0075917D01*
X0127883Y0075869D01*
X0127902Y0075820D01*
X0127918Y0075770D01*
X0127929Y0075718D01*
X0127937Y0075666D01*
X0127941Y0075613D01*
X0127941Y0075561D01*
X0127937Y0075508D01*
X0127929Y0075456D01*
X0127918Y0075404D01*
X0127902Y0075354D01*
X0127883Y0075305D01*
X0127861Y0075257D01*
X0127835Y0075211D01*
X0127806Y0075167D01*
X0127774Y0075125D01*
X0127739Y0075086D01*
X0127701Y0075049D01*
X0127660Y0075016D01*
X0127617Y0074985D01*
X0127572Y0074957D01*
X0127525Y0074933D01*
X0127477Y0074913D01*
X0127427Y0074896D01*
X0127376Y0074882D01*
X0127324Y0074873D01*
X0127272Y0074867D01*
X0127219Y0074865D01*
X0126496Y0074865D01*
X0129209Y0074865D02*
X0130654Y0074865D01*
X0129931Y0074865D02*
X0129931Y0077465D01*
X0129209Y0076887D01*
X0081990Y0049907D02*
X0081268Y0047307D01*
X0079110Y0047307D02*
X0077666Y0047307D01*
X0078388Y0047307D02*
X0078388Y0049907D01*
X0077666Y0049329D01*
X0075539Y0049906D02*
X0075592Y0049904D01*
X0075644Y0049898D01*
X0075696Y0049889D01*
X0075747Y0049875D01*
X0075797Y0049858D01*
X0075845Y0049838D01*
X0075892Y0049814D01*
X0075937Y0049786D01*
X0075980Y0049755D01*
X0076021Y0049722D01*
X0076059Y0049685D01*
X0076094Y0049646D01*
X0076126Y0049604D01*
X0076155Y0049560D01*
X0076181Y0049514D01*
X0076203Y0049466D01*
X0076222Y0049417D01*
X0076238Y0049367D01*
X0076249Y0049315D01*
X0076257Y0049263D01*
X0076261Y0049210D01*
X0076261Y0049158D01*
X0076257Y0049105D01*
X0076249Y0049053D01*
X0076238Y0049001D01*
X0076222Y0048951D01*
X0076203Y0048902D01*
X0076181Y0048854D01*
X0076155Y0048808D01*
X0076126Y0048764D01*
X0076094Y0048722D01*
X0076059Y0048683D01*
X0076021Y0048646D01*
X0075980Y0048613D01*
X0075937Y0048582D01*
X0075892Y0048554D01*
X0075845Y0048530D01*
X0075797Y0048510D01*
X0075747Y0048493D01*
X0075696Y0048479D01*
X0075644Y0048470D01*
X0075592Y0048464D01*
X0075539Y0048462D01*
X0074817Y0048462D01*
X0075683Y0048462D02*
X0076261Y0047307D01*
X0074817Y0047307D02*
X0074817Y0049907D01*
X0075539Y0049907D01*
X0080546Y0049907D02*
X0081990Y0049907D01*
X0080546Y0049907D02*
X0080546Y0049618D01*
X0078388Y0042033D02*
X0078388Y0039433D01*
X0077666Y0039433D02*
X0079110Y0039433D01*
X0080546Y0040155D02*
X0080546Y0040877D01*
X0081412Y0040877D01*
X0080545Y0040877D02*
X0080547Y0040944D01*
X0080553Y0041011D01*
X0080563Y0041078D01*
X0080576Y0041144D01*
X0080594Y0041209D01*
X0080615Y0041272D01*
X0080640Y0041335D01*
X0080668Y0041396D01*
X0080700Y0041455D01*
X0080735Y0041512D01*
X0080774Y0041567D01*
X0080815Y0041620D01*
X0080860Y0041670D01*
X0080908Y0041718D01*
X0080958Y0041763D01*
X0081011Y0041804D01*
X0081066Y0041843D01*
X0081123Y0041878D01*
X0081182Y0041910D01*
X0081243Y0041938D01*
X0081306Y0041963D01*
X0081369Y0041984D01*
X0081434Y0042002D01*
X0081500Y0042015D01*
X0081567Y0042025D01*
X0081634Y0042031D01*
X0081701Y0042033D01*
X0081412Y0040877D02*
X0081457Y0040875D01*
X0081502Y0040870D01*
X0081547Y0040861D01*
X0081591Y0040849D01*
X0081633Y0040833D01*
X0081674Y0040814D01*
X0081714Y0040792D01*
X0081752Y0040767D01*
X0081787Y0040739D01*
X0081821Y0040708D01*
X0081852Y0040674D01*
X0081880Y0040639D01*
X0081905Y0040601D01*
X0081927Y0040561D01*
X0081946Y0040520D01*
X0081962Y0040478D01*
X0081974Y0040434D01*
X0081983Y0040389D01*
X0081988Y0040344D01*
X0081990Y0040299D01*
X0081990Y0040155D01*
X0081988Y0040102D01*
X0081982Y0040050D01*
X0081973Y0039998D01*
X0081959Y0039947D01*
X0081942Y0039897D01*
X0081922Y0039849D01*
X0081898Y0039802D01*
X0081870Y0039757D01*
X0081839Y0039714D01*
X0081806Y0039673D01*
X0081769Y0039635D01*
X0081730Y0039600D01*
X0081688Y0039568D01*
X0081644Y0039539D01*
X0081598Y0039513D01*
X0081550Y0039491D01*
X0081501Y0039472D01*
X0081451Y0039456D01*
X0081399Y0039445D01*
X0081347Y0039437D01*
X0081294Y0039433D01*
X0081242Y0039433D01*
X0081189Y0039437D01*
X0081137Y0039445D01*
X0081085Y0039456D01*
X0081035Y0039472D01*
X0080986Y0039491D01*
X0080938Y0039513D01*
X0080892Y0039539D01*
X0080848Y0039568D01*
X0080806Y0039600D01*
X0080767Y0039635D01*
X0080730Y0039673D01*
X0080697Y0039714D01*
X0080666Y0039757D01*
X0080638Y0039802D01*
X0080614Y0039849D01*
X0080594Y0039897D01*
X0080577Y0039947D01*
X0080563Y0039998D01*
X0080554Y0040050D01*
X0080548Y0040102D01*
X0080546Y0040155D01*
X0078388Y0042033D02*
X0077666Y0041455D01*
X0075539Y0042032D02*
X0075592Y0042030D01*
X0075644Y0042024D01*
X0075696Y0042015D01*
X0075747Y0042001D01*
X0075797Y0041984D01*
X0075845Y0041964D01*
X0075892Y0041940D01*
X0075937Y0041912D01*
X0075980Y0041881D01*
X0076021Y0041848D01*
X0076059Y0041811D01*
X0076094Y0041772D01*
X0076126Y0041730D01*
X0076155Y0041686D01*
X0076181Y0041640D01*
X0076203Y0041592D01*
X0076222Y0041543D01*
X0076238Y0041493D01*
X0076249Y0041441D01*
X0076257Y0041389D01*
X0076261Y0041336D01*
X0076261Y0041284D01*
X0076257Y0041231D01*
X0076249Y0041179D01*
X0076238Y0041127D01*
X0076222Y0041077D01*
X0076203Y0041028D01*
X0076181Y0040980D01*
X0076155Y0040934D01*
X0076126Y0040890D01*
X0076094Y0040848D01*
X0076059Y0040809D01*
X0076021Y0040772D01*
X0075980Y0040739D01*
X0075937Y0040708D01*
X0075892Y0040680D01*
X0075845Y0040656D01*
X0075797Y0040636D01*
X0075747Y0040619D01*
X0075696Y0040605D01*
X0075644Y0040596D01*
X0075592Y0040590D01*
X0075539Y0040588D01*
X0074817Y0040588D01*
X0075683Y0040588D02*
X0076261Y0039433D01*
X0074817Y0039433D02*
X0074817Y0042033D01*
X0075539Y0042033D01*
X0075663Y0033246D02*
X0074941Y0033246D01*
X0074941Y0030646D01*
X0074941Y0031802D02*
X0075663Y0031802D01*
X0075807Y0031802D02*
X0076385Y0030646D01*
X0077790Y0030646D02*
X0079234Y0030646D01*
X0078512Y0030646D02*
X0078512Y0033246D01*
X0077790Y0032668D01*
X0075663Y0033246D02*
X0075716Y0033244D01*
X0075768Y0033238D01*
X0075820Y0033229D01*
X0075871Y0033215D01*
X0075921Y0033198D01*
X0075969Y0033178D01*
X0076016Y0033154D01*
X0076061Y0033126D01*
X0076104Y0033095D01*
X0076145Y0033062D01*
X0076183Y0033025D01*
X0076218Y0032986D01*
X0076250Y0032944D01*
X0076279Y0032900D01*
X0076305Y0032854D01*
X0076327Y0032806D01*
X0076346Y0032757D01*
X0076362Y0032707D01*
X0076373Y0032655D01*
X0076381Y0032603D01*
X0076385Y0032550D01*
X0076385Y0032498D01*
X0076381Y0032445D01*
X0076373Y0032393D01*
X0076362Y0032341D01*
X0076346Y0032291D01*
X0076327Y0032242D01*
X0076305Y0032194D01*
X0076279Y0032148D01*
X0076250Y0032104D01*
X0076218Y0032062D01*
X0076183Y0032023D01*
X0076145Y0031986D01*
X0076104Y0031953D01*
X0076061Y0031922D01*
X0076016Y0031894D01*
X0075969Y0031870D01*
X0075921Y0031850D01*
X0075871Y0031833D01*
X0075820Y0031819D01*
X0075768Y0031810D01*
X0075716Y0031804D01*
X0075663Y0031802D01*
X0080670Y0031224D02*
X0082114Y0031224D01*
X0081681Y0031802D02*
X0081681Y0030646D01*
X0080670Y0031224D02*
X0081248Y0033246D01*
X0081779Y0026869D02*
X0081923Y0026869D01*
X0081779Y0026869D02*
X0081734Y0026867D01*
X0081689Y0026862D01*
X0081644Y0026853D01*
X0081600Y0026841D01*
X0081558Y0026825D01*
X0081517Y0026806D01*
X0081477Y0026784D01*
X0081439Y0026759D01*
X0081404Y0026731D01*
X0081370Y0026700D01*
X0081339Y0026666D01*
X0081311Y0026631D01*
X0081286Y0026593D01*
X0081264Y0026553D01*
X0081245Y0026512D01*
X0081229Y0026470D01*
X0081217Y0026426D01*
X0081208Y0026381D01*
X0081203Y0026336D01*
X0081201Y0026291D01*
X0081201Y0025425D01*
X0081923Y0025425D01*
X0081976Y0025427D01*
X0082028Y0025433D01*
X0082080Y0025442D01*
X0082131Y0025456D01*
X0082181Y0025473D01*
X0082229Y0025493D01*
X0082276Y0025517D01*
X0082321Y0025545D01*
X0082364Y0025576D01*
X0082405Y0025609D01*
X0082443Y0025646D01*
X0082478Y0025685D01*
X0082510Y0025727D01*
X0082539Y0025771D01*
X0082565Y0025817D01*
X0082587Y0025865D01*
X0082606Y0025914D01*
X0082622Y0025964D01*
X0082633Y0026016D01*
X0082641Y0026068D01*
X0082645Y0026121D01*
X0082645Y0026173D01*
X0082641Y0026226D01*
X0082633Y0026278D01*
X0082622Y0026330D01*
X0082606Y0026380D01*
X0082587Y0026429D01*
X0082565Y0026477D01*
X0082539Y0026523D01*
X0082510Y0026567D01*
X0082478Y0026609D01*
X0082443Y0026648D01*
X0082405Y0026685D01*
X0082364Y0026718D01*
X0082321Y0026749D01*
X0082276Y0026777D01*
X0082229Y0026801D01*
X0082181Y0026821D01*
X0082131Y0026838D01*
X0082080Y0026852D01*
X0082028Y0026861D01*
X0081976Y0026867D01*
X0081923Y0026869D01*
X0081201Y0025424D02*
X0081134Y0025426D01*
X0081067Y0025432D01*
X0081000Y0025442D01*
X0080934Y0025455D01*
X0080869Y0025473D01*
X0080806Y0025494D01*
X0080743Y0025519D01*
X0080682Y0025547D01*
X0080623Y0025579D01*
X0080566Y0025614D01*
X0080511Y0025653D01*
X0080458Y0025694D01*
X0080408Y0025739D01*
X0080360Y0025787D01*
X0080315Y0025837D01*
X0080274Y0025890D01*
X0080235Y0025945D01*
X0080200Y0026002D01*
X0080168Y0026061D01*
X0080140Y0026122D01*
X0080115Y0026185D01*
X0080094Y0026248D01*
X0080076Y0026313D01*
X0080063Y0026379D01*
X0080053Y0026446D01*
X0080047Y0026513D01*
X0080045Y0026580D01*
X0070051Y0028308D02*
X0070104Y0028310D01*
X0070156Y0028316D01*
X0070208Y0028325D01*
X0070259Y0028339D01*
X0070309Y0028356D01*
X0070357Y0028376D01*
X0070404Y0028400D01*
X0070449Y0028428D01*
X0070492Y0028459D01*
X0070533Y0028492D01*
X0070571Y0028529D01*
X0070606Y0028568D01*
X0070638Y0028610D01*
X0070667Y0028654D01*
X0070693Y0028700D01*
X0070715Y0028748D01*
X0070734Y0028797D01*
X0070750Y0028847D01*
X0070761Y0028899D01*
X0070769Y0028951D01*
X0070773Y0029004D01*
X0070773Y0029056D01*
X0070769Y0029109D01*
X0070761Y0029161D01*
X0070750Y0029213D01*
X0070734Y0029263D01*
X0070715Y0029312D01*
X0070693Y0029360D01*
X0070667Y0029406D01*
X0070638Y0029450D01*
X0070606Y0029492D01*
X0070571Y0029531D01*
X0070533Y0029568D01*
X0070492Y0029601D01*
X0070449Y0029632D01*
X0070404Y0029660D01*
X0070357Y0029684D01*
X0070309Y0029704D01*
X0070259Y0029721D01*
X0070208Y0029735D01*
X0070156Y0029744D01*
X0070104Y0029750D01*
X0070051Y0029752D01*
X0069998Y0029750D01*
X0069946Y0029744D01*
X0069894Y0029735D01*
X0069843Y0029721D01*
X0069793Y0029704D01*
X0069745Y0029684D01*
X0069698Y0029660D01*
X0069653Y0029632D01*
X0069610Y0029601D01*
X0069569Y0029568D01*
X0069531Y0029531D01*
X0069496Y0029492D01*
X0069464Y0029450D01*
X0069435Y0029406D01*
X0069409Y0029360D01*
X0069387Y0029312D01*
X0069368Y0029263D01*
X0069352Y0029213D01*
X0069341Y0029161D01*
X0069333Y0029109D01*
X0069329Y0029056D01*
X0069329Y0029004D01*
X0069333Y0028951D01*
X0069341Y0028899D01*
X0069352Y0028847D01*
X0069368Y0028797D01*
X0069387Y0028748D01*
X0069409Y0028700D01*
X0069435Y0028654D01*
X0069464Y0028610D01*
X0069496Y0028568D01*
X0069531Y0028529D01*
X0069569Y0028492D01*
X0069610Y0028459D01*
X0069653Y0028428D01*
X0069698Y0028400D01*
X0069745Y0028376D01*
X0069793Y0028356D01*
X0069843Y0028339D01*
X0069894Y0028325D01*
X0069946Y0028316D01*
X0069998Y0028310D01*
X0070051Y0028308D01*
X0068751Y0028452D02*
X0068798Y0028454D01*
X0068844Y0028459D01*
X0068889Y0028469D01*
X0068934Y0028482D01*
X0068978Y0028498D01*
X0069020Y0028518D01*
X0069060Y0028541D01*
X0069098Y0028568D01*
X0069134Y0028597D01*
X0069168Y0028630D01*
X0069199Y0028664D01*
X0069227Y0028702D01*
X0069252Y0028741D01*
X0069273Y0028782D01*
X0069291Y0028825D01*
X0069306Y0028869D01*
X0069317Y0028914D01*
X0069325Y0028960D01*
X0069329Y0029007D01*
X0069329Y0029053D01*
X0069325Y0029100D01*
X0069317Y0029146D01*
X0069306Y0029191D01*
X0069291Y0029235D01*
X0069273Y0029278D01*
X0069252Y0029319D01*
X0069227Y0029358D01*
X0069199Y0029396D01*
X0069168Y0029430D01*
X0069134Y0029463D01*
X0069098Y0029492D01*
X0069060Y0029519D01*
X0069020Y0029542D01*
X0068978Y0029562D01*
X0068934Y0029578D01*
X0068889Y0029591D01*
X0068844Y0029601D01*
X0068798Y0029606D01*
X0068751Y0029608D01*
X0068704Y0029606D01*
X0068658Y0029601D01*
X0068613Y0029591D01*
X0068568Y0029578D01*
X0068524Y0029562D01*
X0068482Y0029542D01*
X0068442Y0029519D01*
X0068404Y0029492D01*
X0068368Y0029463D01*
X0068334Y0029430D01*
X0068303Y0029396D01*
X0068275Y0029358D01*
X0068250Y0029319D01*
X0068229Y0029278D01*
X0068211Y0029235D01*
X0068196Y0029191D01*
X0068185Y0029146D01*
X0068177Y0029100D01*
X0068173Y0029053D01*
X0068173Y0029007D01*
X0068177Y0028960D01*
X0068185Y0028914D01*
X0068196Y0028869D01*
X0068211Y0028825D01*
X0068229Y0028782D01*
X0068250Y0028741D01*
X0068275Y0028702D01*
X0068303Y0028664D01*
X0068334Y0028630D01*
X0068368Y0028597D01*
X0068404Y0028568D01*
X0068442Y0028541D01*
X0068482Y0028518D01*
X0068524Y0028498D01*
X0068568Y0028482D01*
X0068613Y0028469D01*
X0068658Y0028459D01*
X0068704Y0028454D01*
X0068751Y0028452D01*
D12*
X0052481Y0005237D02*
X0044607Y0013111D01*
X0044607Y0064292D02*
X0052481Y0072166D01*
X0052481Y0080040D01*
X0044607Y0087914D01*
X0079965Y0137720D02*
X0079965Y0140276D01*
X0079965Y0141965D02*
X0084565Y0143498D01*
X0079965Y0145032D01*
X0083031Y0140276D02*
X0083542Y0140276D01*
X0083604Y0140274D01*
X0083665Y0140269D01*
X0083726Y0140259D01*
X0083787Y0140246D01*
X0083846Y0140230D01*
X0083904Y0140210D01*
X0083961Y0140186D01*
X0084017Y0140159D01*
X0084071Y0140129D01*
X0084123Y0140095D01*
X0084172Y0140059D01*
X0084220Y0140019D01*
X0084265Y0139977D01*
X0084307Y0139932D01*
X0084347Y0139884D01*
X0084383Y0139835D01*
X0084417Y0139783D01*
X0084447Y0139729D01*
X0084474Y0139673D01*
X0084498Y0139616D01*
X0084518Y0139558D01*
X0084534Y0139499D01*
X0084547Y0139438D01*
X0084557Y0139377D01*
X0084562Y0139316D01*
X0084564Y0139254D01*
X0084565Y0139254D02*
X0084565Y0137720D01*
X0083031Y0140276D02*
X0082969Y0140274D01*
X0082908Y0140269D01*
X0082847Y0140259D01*
X0082786Y0140246D01*
X0082727Y0140230D01*
X0082669Y0140210D01*
X0082612Y0140186D01*
X0082556Y0140159D01*
X0082502Y0140129D01*
X0082450Y0140095D01*
X0082401Y0140059D01*
X0082353Y0140019D01*
X0082308Y0139977D01*
X0082266Y0139932D01*
X0082226Y0139884D01*
X0082190Y0139835D01*
X0082156Y0139783D01*
X0082126Y0139729D01*
X0082099Y0139673D01*
X0082075Y0139616D01*
X0082055Y0139558D01*
X0082039Y0139499D01*
X0082026Y0139438D01*
X0082016Y0139377D01*
X0082011Y0139316D01*
X0082009Y0139254D01*
X0082009Y0137720D01*
X0079965Y0137720D01*
X0103752Y0141362D02*
X0104775Y0141362D01*
X0104264Y0141362D02*
X0104264Y0145962D01*
X0104775Y0145962D02*
X0103752Y0145962D01*
X0106573Y0144940D02*
X0106573Y0142384D01*
X0106575Y0142322D01*
X0106580Y0142261D01*
X0106590Y0142200D01*
X0106603Y0142139D01*
X0106619Y0142080D01*
X0106639Y0142022D01*
X0106663Y0141965D01*
X0106690Y0141909D01*
X0106720Y0141855D01*
X0106754Y0141803D01*
X0106790Y0141754D01*
X0106830Y0141706D01*
X0106872Y0141661D01*
X0106917Y0141619D01*
X0106965Y0141579D01*
X0107014Y0141543D01*
X0107066Y0141509D01*
X0107120Y0141479D01*
X0107176Y0141452D01*
X0107233Y0141428D01*
X0107291Y0141408D01*
X0107350Y0141392D01*
X0107411Y0141379D01*
X0107472Y0141369D01*
X0107533Y0141364D01*
X0107595Y0141362D01*
X0108617Y0141362D01*
X0110336Y0141362D02*
X0112891Y0141362D01*
X0110336Y0141362D02*
X0112508Y0143918D01*
X0111741Y0145962D02*
X0111667Y0145960D01*
X0111593Y0145955D01*
X0111519Y0145945D01*
X0111446Y0145932D01*
X0111373Y0145916D01*
X0111302Y0145895D01*
X0111232Y0145871D01*
X0111163Y0145844D01*
X0111095Y0145813D01*
X0111029Y0145779D01*
X0110965Y0145742D01*
X0110903Y0145701D01*
X0110843Y0145657D01*
X0110785Y0145611D01*
X0110729Y0145561D01*
X0110676Y0145509D01*
X0110626Y0145454D01*
X0110579Y0145397D01*
X0110535Y0145337D01*
X0110493Y0145275D01*
X0110455Y0145212D01*
X0110420Y0145146D01*
X0110389Y0145079D01*
X0110361Y0145010D01*
X0110336Y0144940D01*
X0112508Y0143918D02*
X0112555Y0143965D01*
X0112599Y0144015D01*
X0112641Y0144067D01*
X0112680Y0144121D01*
X0112715Y0144177D01*
X0112748Y0144235D01*
X0112778Y0144295D01*
X0112804Y0144356D01*
X0112827Y0144419D01*
X0112846Y0144483D01*
X0112862Y0144547D01*
X0112875Y0144613D01*
X0112884Y0144679D01*
X0112889Y0144745D01*
X0112891Y0144812D01*
X0112889Y0144879D01*
X0112883Y0144946D01*
X0112874Y0145012D01*
X0112860Y0145077D01*
X0112843Y0145142D01*
X0112822Y0145205D01*
X0112797Y0145267D01*
X0112769Y0145328D01*
X0112737Y0145387D01*
X0112702Y0145444D01*
X0112663Y0145499D01*
X0112622Y0145551D01*
X0112577Y0145601D01*
X0112530Y0145648D01*
X0112480Y0145693D01*
X0112428Y0145734D01*
X0112373Y0145773D01*
X0112316Y0145808D01*
X0112257Y0145840D01*
X0112196Y0145868D01*
X0112134Y0145893D01*
X0112071Y0145914D01*
X0112006Y0145931D01*
X0111941Y0145945D01*
X0111875Y0145954D01*
X0111808Y0145960D01*
X0111741Y0145962D01*
X0108617Y0145962D02*
X0107595Y0145962D01*
X0107533Y0145960D01*
X0107472Y0145955D01*
X0107411Y0145945D01*
X0107350Y0145932D01*
X0107291Y0145916D01*
X0107233Y0145896D01*
X0107176Y0145872D01*
X0107120Y0145845D01*
X0107066Y0145815D01*
X0107014Y0145781D01*
X0106965Y0145744D01*
X0106917Y0145705D01*
X0106872Y0145663D01*
X0106830Y0145618D01*
X0106790Y0145570D01*
X0106754Y0145521D01*
X0106720Y0145469D01*
X0106690Y0145415D01*
X0106663Y0145359D01*
X0106639Y0145302D01*
X0106619Y0145244D01*
X0106603Y0145185D01*
X0106590Y0145124D01*
X0106580Y0145063D01*
X0106575Y0145002D01*
X0106573Y0144940D01*
X0123272Y0133011D02*
X0123272Y0130456D01*
X0123272Y0131734D02*
X0127872Y0131734D01*
X0127872Y0129067D02*
X0123272Y0127534D01*
X0127872Y0126000D01*
X0126722Y0126384D02*
X0126722Y0128684D01*
X0127872Y0123250D02*
X0127870Y0123320D01*
X0127864Y0123391D01*
X0127855Y0123460D01*
X0127841Y0123529D01*
X0127824Y0123598D01*
X0127803Y0123665D01*
X0127778Y0123731D01*
X0127750Y0123795D01*
X0127718Y0123858D01*
X0127683Y0123919D01*
X0127644Y0123978D01*
X0127603Y0124035D01*
X0127558Y0124089D01*
X0127510Y0124141D01*
X0127460Y0124190D01*
X0127406Y0124237D01*
X0127351Y0124280D01*
X0127293Y0124320D01*
X0127233Y0124357D01*
X0127171Y0124390D01*
X0127107Y0124420D01*
X0127042Y0124447D01*
X0126976Y0124470D01*
X0126908Y0124489D01*
X0126839Y0124504D01*
X0126770Y0124516D01*
X0126700Y0124524D01*
X0126629Y0124528D01*
X0126559Y0124528D01*
X0126488Y0124524D01*
X0126418Y0124516D01*
X0126349Y0124504D01*
X0126280Y0124489D01*
X0126212Y0124470D01*
X0126146Y0124447D01*
X0126081Y0124420D01*
X0126017Y0124390D01*
X0125955Y0124357D01*
X0125895Y0124320D01*
X0125837Y0124280D01*
X0125782Y0124237D01*
X0125728Y0124190D01*
X0125678Y0124141D01*
X0125630Y0124089D01*
X0125585Y0124035D01*
X0125544Y0123978D01*
X0125505Y0123919D01*
X0125470Y0123858D01*
X0125438Y0123795D01*
X0125410Y0123731D01*
X0125385Y0123665D01*
X0125364Y0123598D01*
X0125347Y0123529D01*
X0125333Y0123460D01*
X0125324Y0123391D01*
X0125318Y0123320D01*
X0125316Y0123250D01*
X0125316Y0121972D01*
X0125316Y0123250D02*
X0125314Y0123313D01*
X0125308Y0123376D01*
X0125299Y0123438D01*
X0125285Y0123499D01*
X0125268Y0123560D01*
X0125247Y0123619D01*
X0125222Y0123677D01*
X0125194Y0123734D01*
X0125163Y0123788D01*
X0125128Y0123840D01*
X0125090Y0123891D01*
X0125049Y0123939D01*
X0125005Y0123984D01*
X0124959Y0124026D01*
X0124910Y0124066D01*
X0124859Y0124102D01*
X0124805Y0124135D01*
X0124750Y0124165D01*
X0124692Y0124191D01*
X0124634Y0124214D01*
X0124574Y0124233D01*
X0124513Y0124248D01*
X0124451Y0124260D01*
X0124388Y0124268D01*
X0124325Y0124272D01*
X0124263Y0124272D01*
X0124200Y0124268D01*
X0124137Y0124260D01*
X0124075Y0124248D01*
X0124014Y0124233D01*
X0123954Y0124214D01*
X0123896Y0124191D01*
X0123838Y0124165D01*
X0123783Y0124135D01*
X0123729Y0124102D01*
X0123678Y0124066D01*
X0123629Y0124026D01*
X0123583Y0123984D01*
X0123539Y0123939D01*
X0123498Y0123891D01*
X0123460Y0123840D01*
X0123425Y0123788D01*
X0123394Y0123734D01*
X0123366Y0123677D01*
X0123341Y0123619D01*
X0123320Y0123560D01*
X0123303Y0123499D01*
X0123289Y0123438D01*
X0123280Y0123376D01*
X0123274Y0123313D01*
X0123272Y0123250D01*
X0123272Y0121972D01*
X0127872Y0121972D01*
X0127872Y0123250D01*
X0143350Y0129688D02*
X0143350Y0131221D01*
X0143351Y0129688D02*
X0143353Y0129626D01*
X0143358Y0129565D01*
X0143368Y0129504D01*
X0143381Y0129443D01*
X0143397Y0129384D01*
X0143417Y0129326D01*
X0143441Y0129269D01*
X0143468Y0129213D01*
X0143498Y0129159D01*
X0143532Y0129107D01*
X0143569Y0129058D01*
X0143608Y0129010D01*
X0143650Y0128965D01*
X0143695Y0128923D01*
X0143743Y0128883D01*
X0143792Y0128847D01*
X0143844Y0128813D01*
X0143898Y0128783D01*
X0143954Y0128756D01*
X0144011Y0128732D01*
X0144069Y0128712D01*
X0144128Y0128696D01*
X0144189Y0128683D01*
X0144250Y0128673D01*
X0144311Y0128668D01*
X0144373Y0128666D01*
X0144373Y0128665D02*
X0146928Y0128665D01*
X0146928Y0128666D02*
X0146990Y0128668D01*
X0147051Y0128673D01*
X0147112Y0128683D01*
X0147173Y0128696D01*
X0147232Y0128712D01*
X0147290Y0128732D01*
X0147347Y0128756D01*
X0147403Y0128783D01*
X0147457Y0128813D01*
X0147509Y0128847D01*
X0147558Y0128883D01*
X0147606Y0128923D01*
X0147651Y0128965D01*
X0147693Y0129010D01*
X0147733Y0129058D01*
X0147769Y0129107D01*
X0147803Y0129159D01*
X0147833Y0129213D01*
X0147860Y0129269D01*
X0147884Y0129326D01*
X0147904Y0129384D01*
X0147920Y0129443D01*
X0147933Y0129504D01*
X0147943Y0129565D01*
X0147948Y0129626D01*
X0147950Y0129688D01*
X0147950Y0131221D01*
X0145395Y0131221D01*
X0145395Y0130454D01*
X0143350Y0133465D02*
X0147950Y0136021D01*
X0143350Y0136021D01*
X0143350Y0138265D02*
X0143350Y0139543D01*
X0143350Y0138265D02*
X0147950Y0138265D01*
X0147950Y0139543D01*
X0147951Y0139543D02*
X0147949Y0139612D01*
X0147944Y0139681D01*
X0147934Y0139750D01*
X0147921Y0139818D01*
X0147904Y0139885D01*
X0147884Y0139951D01*
X0147860Y0140016D01*
X0147833Y0140080D01*
X0147802Y0140142D01*
X0147768Y0140202D01*
X0147731Y0140260D01*
X0147690Y0140316D01*
X0147647Y0140370D01*
X0147601Y0140422D01*
X0147552Y0140471D01*
X0147500Y0140517D01*
X0147446Y0140560D01*
X0147390Y0140601D01*
X0147332Y0140638D01*
X0147272Y0140672D01*
X0147210Y0140703D01*
X0147146Y0140730D01*
X0147081Y0140754D01*
X0147015Y0140774D01*
X0146948Y0140791D01*
X0146880Y0140804D01*
X0146811Y0140814D01*
X0146742Y0140819D01*
X0146673Y0140821D01*
X0144628Y0140821D01*
X0144559Y0140819D01*
X0144490Y0140814D01*
X0144421Y0140804D01*
X0144353Y0140791D01*
X0144286Y0140774D01*
X0144220Y0140754D01*
X0144155Y0140730D01*
X0144091Y0140703D01*
X0144029Y0140672D01*
X0143969Y0140638D01*
X0143911Y0140601D01*
X0143855Y0140560D01*
X0143801Y0140517D01*
X0143749Y0140471D01*
X0143700Y0140422D01*
X0143654Y0140370D01*
X0143611Y0140316D01*
X0143570Y0140260D01*
X0143533Y0140202D01*
X0143499Y0140142D01*
X0143468Y0140080D01*
X0143441Y0140016D01*
X0143417Y0139951D01*
X0143397Y0139885D01*
X0143380Y0139818D01*
X0143367Y0139750D01*
X0143357Y0139681D01*
X0143352Y0139612D01*
X0143350Y0139543D01*
X0150831Y0140391D02*
X0155431Y0141924D01*
X0150831Y0143458D01*
X0150831Y0137680D02*
X0150831Y0136146D01*
X0150831Y0137680D02*
X0150833Y0137743D01*
X0150839Y0137806D01*
X0150848Y0137868D01*
X0150862Y0137929D01*
X0150879Y0137990D01*
X0150900Y0138049D01*
X0150925Y0138107D01*
X0150953Y0138164D01*
X0150984Y0138218D01*
X0151019Y0138270D01*
X0151057Y0138321D01*
X0151098Y0138369D01*
X0151142Y0138414D01*
X0151188Y0138456D01*
X0151237Y0138496D01*
X0151288Y0138532D01*
X0151342Y0138565D01*
X0151397Y0138595D01*
X0151455Y0138621D01*
X0151513Y0138644D01*
X0151573Y0138663D01*
X0151634Y0138678D01*
X0151696Y0138690D01*
X0151759Y0138698D01*
X0151822Y0138702D01*
X0151884Y0138702D01*
X0151947Y0138698D01*
X0152010Y0138690D01*
X0152072Y0138678D01*
X0152133Y0138663D01*
X0152193Y0138644D01*
X0152251Y0138621D01*
X0152309Y0138595D01*
X0152364Y0138565D01*
X0152418Y0138532D01*
X0152469Y0138496D01*
X0152518Y0138456D01*
X0152564Y0138414D01*
X0152608Y0138369D01*
X0152649Y0138321D01*
X0152687Y0138270D01*
X0152722Y0138218D01*
X0152753Y0138164D01*
X0152781Y0138107D01*
X0152806Y0138049D01*
X0152827Y0137990D01*
X0152844Y0137929D01*
X0152858Y0137868D01*
X0152867Y0137806D01*
X0152873Y0137743D01*
X0152875Y0137680D01*
X0152875Y0136658D01*
X0152875Y0137424D02*
X0152877Y0137494D01*
X0152883Y0137565D01*
X0152892Y0137634D01*
X0152906Y0137703D01*
X0152923Y0137772D01*
X0152944Y0137839D01*
X0152969Y0137905D01*
X0152997Y0137969D01*
X0153029Y0138032D01*
X0153064Y0138093D01*
X0153103Y0138152D01*
X0153144Y0138209D01*
X0153189Y0138263D01*
X0153237Y0138315D01*
X0153287Y0138364D01*
X0153341Y0138411D01*
X0153396Y0138454D01*
X0153454Y0138494D01*
X0153514Y0138531D01*
X0153576Y0138564D01*
X0153640Y0138594D01*
X0153705Y0138621D01*
X0153771Y0138644D01*
X0153839Y0138663D01*
X0153908Y0138678D01*
X0153977Y0138690D01*
X0154047Y0138698D01*
X0154118Y0138702D01*
X0154188Y0138702D01*
X0154259Y0138698D01*
X0154329Y0138690D01*
X0154398Y0138678D01*
X0154467Y0138663D01*
X0154535Y0138644D01*
X0154601Y0138621D01*
X0154666Y0138594D01*
X0154730Y0138564D01*
X0154792Y0138531D01*
X0154852Y0138494D01*
X0154910Y0138454D01*
X0154965Y0138411D01*
X0155019Y0138364D01*
X0155069Y0138315D01*
X0155117Y0138263D01*
X0155162Y0138209D01*
X0155203Y0138152D01*
X0155242Y0138093D01*
X0155277Y0138032D01*
X0155309Y0137969D01*
X0155337Y0137905D01*
X0155362Y0137839D01*
X0155383Y0137772D01*
X0155400Y0137703D01*
X0155414Y0137634D01*
X0155423Y0137565D01*
X0155429Y0137494D01*
X0155431Y0137424D01*
X0155431Y0136146D01*
X0155431Y0134402D02*
X0155431Y0134146D01*
X0155175Y0134146D01*
X0155175Y0134402D01*
X0155431Y0134402D01*
X0155431Y0131124D02*
X0155431Y0129846D01*
X0155431Y0131124D02*
X0155429Y0131194D01*
X0155423Y0131265D01*
X0155414Y0131334D01*
X0155400Y0131403D01*
X0155383Y0131472D01*
X0155362Y0131539D01*
X0155337Y0131605D01*
X0155309Y0131669D01*
X0155277Y0131732D01*
X0155242Y0131793D01*
X0155203Y0131852D01*
X0155162Y0131909D01*
X0155117Y0131963D01*
X0155069Y0132015D01*
X0155019Y0132064D01*
X0154965Y0132111D01*
X0154910Y0132154D01*
X0154852Y0132194D01*
X0154792Y0132231D01*
X0154730Y0132264D01*
X0154666Y0132294D01*
X0154601Y0132321D01*
X0154535Y0132344D01*
X0154467Y0132363D01*
X0154398Y0132378D01*
X0154329Y0132390D01*
X0154259Y0132398D01*
X0154188Y0132402D01*
X0154118Y0132402D01*
X0154047Y0132398D01*
X0153977Y0132390D01*
X0153908Y0132378D01*
X0153839Y0132363D01*
X0153771Y0132344D01*
X0153705Y0132321D01*
X0153640Y0132294D01*
X0153576Y0132264D01*
X0153514Y0132231D01*
X0153454Y0132194D01*
X0153396Y0132154D01*
X0153341Y0132111D01*
X0153287Y0132064D01*
X0153237Y0132015D01*
X0153189Y0131963D01*
X0153144Y0131909D01*
X0153103Y0131852D01*
X0153064Y0131793D01*
X0153029Y0131732D01*
X0152997Y0131669D01*
X0152969Y0131605D01*
X0152944Y0131539D01*
X0152923Y0131472D01*
X0152906Y0131403D01*
X0152892Y0131334D01*
X0152883Y0131265D01*
X0152877Y0131194D01*
X0152875Y0131124D01*
X0152875Y0131380D02*
X0152875Y0130358D01*
X0152875Y0131380D02*
X0152873Y0131443D01*
X0152867Y0131506D01*
X0152858Y0131568D01*
X0152844Y0131629D01*
X0152827Y0131690D01*
X0152806Y0131749D01*
X0152781Y0131807D01*
X0152753Y0131864D01*
X0152722Y0131918D01*
X0152687Y0131970D01*
X0152649Y0132021D01*
X0152608Y0132069D01*
X0152564Y0132114D01*
X0152518Y0132156D01*
X0152469Y0132196D01*
X0152418Y0132232D01*
X0152364Y0132265D01*
X0152309Y0132295D01*
X0152251Y0132321D01*
X0152193Y0132344D01*
X0152133Y0132363D01*
X0152072Y0132378D01*
X0152010Y0132390D01*
X0151947Y0132398D01*
X0151884Y0132402D01*
X0151822Y0132402D01*
X0151759Y0132398D01*
X0151696Y0132390D01*
X0151634Y0132378D01*
X0151573Y0132363D01*
X0151513Y0132344D01*
X0151455Y0132321D01*
X0151397Y0132295D01*
X0151342Y0132265D01*
X0151288Y0132232D01*
X0151237Y0132196D01*
X0151188Y0132156D01*
X0151142Y0132114D01*
X0151098Y0132069D01*
X0151057Y0132021D01*
X0151019Y0131970D01*
X0150984Y0131918D01*
X0150953Y0131864D01*
X0150925Y0131807D01*
X0150900Y0131749D01*
X0150879Y0131690D01*
X0150862Y0131629D01*
X0150848Y0131568D01*
X0150839Y0131506D01*
X0150833Y0131443D01*
X0150831Y0131380D01*
X0150831Y0129846D01*
X0147950Y0133465D02*
X0143350Y0133465D01*
X0190520Y0134384D02*
X0194097Y0133362D01*
X0194097Y0135918D01*
X0193075Y0135151D02*
X0195120Y0135151D01*
X0194481Y0129245D02*
X0194377Y0129197D01*
X0194272Y0129151D01*
X0194166Y0129109D01*
X0194058Y0129070D01*
X0193949Y0129034D01*
X0193839Y0129002D01*
X0193728Y0128972D01*
X0193616Y0128947D01*
X0193504Y0128924D01*
X0193391Y0128905D01*
X0193277Y0128890D01*
X0193163Y0128878D01*
X0193049Y0128869D01*
X0192935Y0128864D01*
X0192820Y0128862D01*
X0192820Y0131418D02*
X0192705Y0131416D01*
X0192591Y0131411D01*
X0192477Y0131402D01*
X0192363Y0131390D01*
X0192249Y0131375D01*
X0192136Y0131356D01*
X0192024Y0131333D01*
X0191912Y0131308D01*
X0191801Y0131278D01*
X0191691Y0131246D01*
X0191582Y0131210D01*
X0191474Y0131171D01*
X0191368Y0131129D01*
X0191263Y0131083D01*
X0191159Y0131035D01*
X0191542Y0131162D02*
X0194097Y0129118D01*
X0195120Y0130140D02*
X0195118Y0130199D01*
X0195113Y0130257D01*
X0195104Y0130315D01*
X0195091Y0130372D01*
X0195075Y0130429D01*
X0195055Y0130484D01*
X0195032Y0130538D01*
X0195006Y0130590D01*
X0194976Y0130641D01*
X0194944Y0130690D01*
X0194908Y0130737D01*
X0194870Y0130781D01*
X0194829Y0130823D01*
X0194785Y0130862D01*
X0194739Y0130899D01*
X0194691Y0130932D01*
X0194641Y0130963D01*
X0194589Y0130990D01*
X0194536Y0131014D01*
X0194481Y0131035D01*
X0195120Y0130140D02*
X0195118Y0130081D01*
X0195113Y0130023D01*
X0195104Y0129965D01*
X0195091Y0129908D01*
X0195075Y0129851D01*
X0195055Y0129796D01*
X0195032Y0129742D01*
X0195006Y0129690D01*
X0194976Y0129639D01*
X0194944Y0129590D01*
X0194908Y0129543D01*
X0194870Y0129499D01*
X0194829Y0129457D01*
X0194785Y0129418D01*
X0194739Y0129381D01*
X0194691Y0129348D01*
X0194641Y0129317D01*
X0194589Y0129290D01*
X0194536Y0129266D01*
X0194481Y0129245D01*
X0194481Y0131035D02*
X0194377Y0131083D01*
X0194272Y0131129D01*
X0194166Y0131171D01*
X0194058Y0131210D01*
X0193949Y0131246D01*
X0193839Y0131278D01*
X0193728Y0131308D01*
X0193616Y0131333D01*
X0193504Y0131356D01*
X0193391Y0131375D01*
X0193277Y0131390D01*
X0193163Y0131402D01*
X0193049Y0131411D01*
X0192935Y0131416D01*
X0192820Y0131418D01*
X0192820Y0128862D02*
X0192705Y0128864D01*
X0192591Y0128869D01*
X0192477Y0128878D01*
X0192363Y0128890D01*
X0192249Y0128905D01*
X0192136Y0128924D01*
X0192024Y0128947D01*
X0191912Y0128972D01*
X0191801Y0129002D01*
X0191691Y0129034D01*
X0191582Y0129070D01*
X0191474Y0129109D01*
X0191368Y0129151D01*
X0191263Y0129197D01*
X0191159Y0129245D01*
X0190519Y0130140D02*
X0190521Y0130199D01*
X0190526Y0130257D01*
X0190535Y0130315D01*
X0190548Y0130372D01*
X0190564Y0130429D01*
X0190584Y0130484D01*
X0190607Y0130538D01*
X0190633Y0130590D01*
X0190663Y0130641D01*
X0190695Y0130690D01*
X0190731Y0130737D01*
X0190769Y0130781D01*
X0190810Y0130823D01*
X0190854Y0130862D01*
X0190900Y0130899D01*
X0190948Y0130932D01*
X0190998Y0130963D01*
X0191050Y0130990D01*
X0191103Y0131014D01*
X0191158Y0131035D01*
X0190519Y0130140D02*
X0190521Y0130081D01*
X0190526Y0130023D01*
X0190535Y0129965D01*
X0190548Y0129908D01*
X0190564Y0129851D01*
X0190584Y0129796D01*
X0190607Y0129742D01*
X0190633Y0129690D01*
X0190663Y0129639D01*
X0190695Y0129590D01*
X0190731Y0129543D01*
X0190769Y0129499D01*
X0190810Y0129457D01*
X0190854Y0129418D01*
X0190900Y0129381D01*
X0190948Y0129348D01*
X0190998Y0129317D01*
X0191050Y0129290D01*
X0191103Y0129266D01*
X0191158Y0129245D01*
X0193075Y0126151D02*
X0195120Y0126151D01*
X0194097Y0126918D02*
X0194097Y0124362D01*
X0190520Y0125384D01*
X0191797Y0122268D02*
X0193842Y0122268D01*
X0193911Y0122266D01*
X0193980Y0122261D01*
X0194049Y0122251D01*
X0194117Y0122238D01*
X0194184Y0122221D01*
X0194250Y0122201D01*
X0194315Y0122177D01*
X0194379Y0122150D01*
X0194441Y0122119D01*
X0194501Y0122085D01*
X0194559Y0122048D01*
X0194615Y0122007D01*
X0194669Y0121964D01*
X0194721Y0121918D01*
X0194770Y0121869D01*
X0194816Y0121817D01*
X0194859Y0121763D01*
X0194900Y0121707D01*
X0194937Y0121649D01*
X0194971Y0121589D01*
X0195002Y0121527D01*
X0195029Y0121463D01*
X0195053Y0121398D01*
X0195073Y0121332D01*
X0195090Y0121265D01*
X0195103Y0121197D01*
X0195113Y0121128D01*
X0195118Y0121059D01*
X0195120Y0120990D01*
X0195120Y0119712D01*
X0190520Y0119712D01*
X0190520Y0120990D01*
X0190519Y0120990D02*
X0190521Y0121059D01*
X0190526Y0121128D01*
X0190536Y0121197D01*
X0190549Y0121265D01*
X0190566Y0121332D01*
X0190586Y0121398D01*
X0190610Y0121463D01*
X0190637Y0121527D01*
X0190668Y0121589D01*
X0190702Y0121649D01*
X0190739Y0121707D01*
X0190780Y0121763D01*
X0190823Y0121817D01*
X0190869Y0121869D01*
X0190918Y0121918D01*
X0190970Y0121964D01*
X0191024Y0122007D01*
X0191080Y0122048D01*
X0191138Y0122085D01*
X0191198Y0122119D01*
X0191260Y0122150D01*
X0191324Y0122177D01*
X0191389Y0122201D01*
X0191455Y0122221D01*
X0191522Y0122238D01*
X0191590Y0122251D01*
X0191659Y0122261D01*
X0191728Y0122266D01*
X0191797Y0122268D01*
X0190520Y0117844D02*
X0190520Y0116821D01*
X0190522Y0116759D01*
X0190527Y0116698D01*
X0190537Y0116637D01*
X0190550Y0116576D01*
X0190566Y0116517D01*
X0190586Y0116459D01*
X0190610Y0116402D01*
X0190637Y0116346D01*
X0190667Y0116292D01*
X0190701Y0116240D01*
X0190738Y0116191D01*
X0190777Y0116143D01*
X0190819Y0116098D01*
X0190864Y0116056D01*
X0190912Y0116016D01*
X0190961Y0115980D01*
X0191013Y0115946D01*
X0191067Y0115916D01*
X0191123Y0115889D01*
X0191180Y0115865D01*
X0191238Y0115845D01*
X0191297Y0115829D01*
X0191358Y0115816D01*
X0191419Y0115806D01*
X0191480Y0115801D01*
X0191542Y0115799D01*
X0194097Y0115799D01*
X0194159Y0115801D01*
X0194220Y0115806D01*
X0194281Y0115816D01*
X0194342Y0115829D01*
X0194401Y0115845D01*
X0194459Y0115865D01*
X0194516Y0115889D01*
X0194572Y0115916D01*
X0194626Y0115946D01*
X0194678Y0115980D01*
X0194727Y0116016D01*
X0194775Y0116056D01*
X0194820Y0116098D01*
X0194862Y0116143D01*
X0194902Y0116191D01*
X0194938Y0116240D01*
X0194972Y0116292D01*
X0195002Y0116346D01*
X0195029Y0116402D01*
X0195053Y0116459D01*
X0195073Y0116517D01*
X0195089Y0116576D01*
X0195102Y0116637D01*
X0195112Y0116698D01*
X0195117Y0116759D01*
X0195119Y0116821D01*
X0195120Y0116821D02*
X0195120Y0117844D01*
X0212887Y0113357D02*
X0214292Y0112590D01*
X0213781Y0110674D02*
X0213691Y0110676D01*
X0213602Y0110681D01*
X0213513Y0110691D01*
X0213424Y0110704D01*
X0213336Y0110720D01*
X0213248Y0110741D01*
X0213162Y0110765D01*
X0213076Y0110792D01*
X0212992Y0110823D01*
X0212909Y0110858D01*
X0212828Y0110896D01*
X0212748Y0110937D01*
X0212671Y0110981D01*
X0212595Y0111029D01*
X0212521Y0111080D01*
X0212449Y0111134D01*
X0212380Y0111191D01*
X0212312Y0111250D01*
X0212248Y0111313D01*
X0214292Y0112589D02*
X0214346Y0112555D01*
X0214397Y0112518D01*
X0214446Y0112478D01*
X0214493Y0112435D01*
X0214536Y0112389D01*
X0214577Y0112341D01*
X0214615Y0112290D01*
X0214650Y0112237D01*
X0214682Y0112182D01*
X0214710Y0112125D01*
X0214734Y0112067D01*
X0214755Y0112007D01*
X0214772Y0111946D01*
X0214786Y0111884D01*
X0214795Y0111821D01*
X0214801Y0111758D01*
X0214803Y0111695D01*
X0214801Y0111633D01*
X0214796Y0111572D01*
X0214786Y0111511D01*
X0214773Y0111450D01*
X0214757Y0111391D01*
X0214737Y0111333D01*
X0214713Y0111276D01*
X0214686Y0111220D01*
X0214656Y0111166D01*
X0214622Y0111114D01*
X0214586Y0111065D01*
X0214546Y0111017D01*
X0214504Y0110972D01*
X0214459Y0110930D01*
X0214411Y0110890D01*
X0214362Y0110854D01*
X0214310Y0110820D01*
X0214256Y0110790D01*
X0214200Y0110763D01*
X0214143Y0110739D01*
X0214085Y0110719D01*
X0214026Y0110703D01*
X0213965Y0110690D01*
X0213904Y0110680D01*
X0213843Y0110675D01*
X0213781Y0110673D01*
X0216757Y0110673D02*
X0216757Y0115273D01*
X0218801Y0115273D01*
X0220198Y0115273D02*
X0222754Y0115273D01*
X0221476Y0115273D02*
X0221476Y0110673D01*
X0218801Y0110673D02*
X0216757Y0110673D01*
X0216757Y0113229D02*
X0218290Y0113229D01*
X0214548Y0114891D02*
X0214481Y0114939D01*
X0214413Y0114984D01*
X0214342Y0115026D01*
X0214269Y0115064D01*
X0214195Y0115100D01*
X0214120Y0115133D01*
X0214043Y0115162D01*
X0213965Y0115188D01*
X0213886Y0115211D01*
X0213806Y0115230D01*
X0213725Y0115246D01*
X0213644Y0115258D01*
X0213562Y0115267D01*
X0213480Y0115272D01*
X0213398Y0115274D01*
X0213398Y0115273D02*
X0213336Y0115271D01*
X0213275Y0115266D01*
X0213214Y0115256D01*
X0213153Y0115243D01*
X0213094Y0115227D01*
X0213036Y0115207D01*
X0212979Y0115183D01*
X0212923Y0115156D01*
X0212869Y0115126D01*
X0212817Y0115092D01*
X0212768Y0115056D01*
X0212720Y0115016D01*
X0212675Y0114974D01*
X0212633Y0114929D01*
X0212594Y0114881D01*
X0212557Y0114832D01*
X0212523Y0114780D01*
X0212493Y0114726D01*
X0212466Y0114670D01*
X0212442Y0114613D01*
X0212422Y0114555D01*
X0212406Y0114496D01*
X0212393Y0114435D01*
X0212383Y0114374D01*
X0212378Y0114313D01*
X0212376Y0114251D01*
X0212378Y0114188D01*
X0212384Y0114125D01*
X0212393Y0114062D01*
X0212407Y0114000D01*
X0212424Y0113939D01*
X0212445Y0113879D01*
X0212469Y0113821D01*
X0212497Y0113764D01*
X0212529Y0113709D01*
X0212564Y0113656D01*
X0212602Y0113605D01*
X0212643Y0113557D01*
X0212686Y0113511D01*
X0212733Y0113468D01*
X0212782Y0113428D01*
X0212833Y0113391D01*
X0212887Y0113357D01*
X0195120Y0137862D02*
X0195120Y0139140D01*
X0195118Y0139210D01*
X0195112Y0139281D01*
X0195103Y0139350D01*
X0195089Y0139419D01*
X0195072Y0139488D01*
X0195051Y0139555D01*
X0195026Y0139621D01*
X0194998Y0139685D01*
X0194966Y0139748D01*
X0194931Y0139809D01*
X0194892Y0139868D01*
X0194851Y0139925D01*
X0194806Y0139979D01*
X0194758Y0140031D01*
X0194708Y0140080D01*
X0194654Y0140127D01*
X0194599Y0140170D01*
X0194541Y0140210D01*
X0194481Y0140247D01*
X0194419Y0140280D01*
X0194355Y0140310D01*
X0194290Y0140337D01*
X0194224Y0140360D01*
X0194156Y0140379D01*
X0194087Y0140394D01*
X0194018Y0140406D01*
X0193948Y0140414D01*
X0193877Y0140418D01*
X0193807Y0140418D01*
X0193736Y0140414D01*
X0193666Y0140406D01*
X0193597Y0140394D01*
X0193528Y0140379D01*
X0193460Y0140360D01*
X0193394Y0140337D01*
X0193329Y0140310D01*
X0193265Y0140280D01*
X0193203Y0140247D01*
X0193143Y0140210D01*
X0193085Y0140170D01*
X0193030Y0140127D01*
X0192976Y0140080D01*
X0192926Y0140031D01*
X0192878Y0139979D01*
X0192833Y0139925D01*
X0192792Y0139868D01*
X0192753Y0139809D01*
X0192718Y0139748D01*
X0192686Y0139685D01*
X0192658Y0139621D01*
X0192633Y0139555D01*
X0192612Y0139488D01*
X0192595Y0139419D01*
X0192581Y0139350D01*
X0192572Y0139281D01*
X0192566Y0139210D01*
X0192564Y0139140D01*
X0192564Y0139396D02*
X0192564Y0138373D01*
X0192564Y0139396D02*
X0192562Y0139459D01*
X0192556Y0139522D01*
X0192547Y0139584D01*
X0192533Y0139645D01*
X0192516Y0139706D01*
X0192495Y0139765D01*
X0192470Y0139823D01*
X0192442Y0139880D01*
X0192411Y0139934D01*
X0192376Y0139986D01*
X0192338Y0140037D01*
X0192297Y0140085D01*
X0192253Y0140130D01*
X0192207Y0140172D01*
X0192158Y0140212D01*
X0192107Y0140248D01*
X0192053Y0140281D01*
X0191998Y0140311D01*
X0191940Y0140337D01*
X0191882Y0140360D01*
X0191822Y0140379D01*
X0191761Y0140394D01*
X0191699Y0140406D01*
X0191636Y0140414D01*
X0191573Y0140418D01*
X0191511Y0140418D01*
X0191448Y0140414D01*
X0191385Y0140406D01*
X0191323Y0140394D01*
X0191262Y0140379D01*
X0191202Y0140360D01*
X0191144Y0140337D01*
X0191086Y0140311D01*
X0191031Y0140281D01*
X0190977Y0140248D01*
X0190926Y0140212D01*
X0190877Y0140172D01*
X0190831Y0140130D01*
X0190787Y0140085D01*
X0190746Y0140037D01*
X0190708Y0139986D01*
X0190673Y0139934D01*
X0190642Y0139880D01*
X0190614Y0139823D01*
X0190589Y0139765D01*
X0190568Y0139706D01*
X0190551Y0139645D01*
X0190537Y0139584D01*
X0190528Y0139522D01*
X0190522Y0139459D01*
X0190520Y0139396D01*
X0190520Y0137862D01*
X0217835Y0146969D02*
X0225709Y0139095D01*
X0223444Y0031021D02*
X0223444Y0026421D01*
X0222166Y0026421D02*
X0224722Y0026421D01*
X0222166Y0029999D02*
X0223444Y0031021D01*
X0220072Y0029743D02*
X0220072Y0027699D01*
X0220070Y0027630D01*
X0220065Y0027561D01*
X0220055Y0027492D01*
X0220042Y0027424D01*
X0220025Y0027357D01*
X0220005Y0027291D01*
X0219981Y0027226D01*
X0219954Y0027162D01*
X0219923Y0027100D01*
X0219889Y0027040D01*
X0219852Y0026982D01*
X0219811Y0026926D01*
X0219768Y0026872D01*
X0219722Y0026820D01*
X0219673Y0026771D01*
X0219621Y0026725D01*
X0219567Y0026682D01*
X0219511Y0026641D01*
X0219453Y0026604D01*
X0219393Y0026570D01*
X0219331Y0026539D01*
X0219267Y0026512D01*
X0219202Y0026488D01*
X0219136Y0026468D01*
X0219069Y0026451D01*
X0219001Y0026438D01*
X0218932Y0026428D01*
X0218863Y0026423D01*
X0218794Y0026421D01*
X0217517Y0026421D01*
X0217517Y0031021D01*
X0218794Y0031021D01*
X0218863Y0031019D01*
X0218932Y0031014D01*
X0219001Y0031004D01*
X0219069Y0030991D01*
X0219136Y0030974D01*
X0219202Y0030954D01*
X0219267Y0030930D01*
X0219331Y0030903D01*
X0219393Y0030872D01*
X0219453Y0030838D01*
X0219511Y0030801D01*
X0219567Y0030760D01*
X0219621Y0030717D01*
X0219673Y0030671D01*
X0219722Y0030622D01*
X0219768Y0030570D01*
X0219811Y0030516D01*
X0219852Y0030460D01*
X0219889Y0030402D01*
X0219923Y0030342D01*
X0219954Y0030280D01*
X0219981Y0030216D01*
X0220005Y0030151D01*
X0220025Y0030085D01*
X0220042Y0030018D01*
X0220055Y0029950D01*
X0220065Y0029881D01*
X0220070Y0029812D01*
X0220072Y0029743D01*
X0215272Y0031021D02*
X0215272Y0026421D01*
X0212717Y0031021D01*
X0212717Y0026421D01*
X0210472Y0026421D02*
X0208939Y0026421D01*
X0208877Y0026423D01*
X0208816Y0026428D01*
X0208755Y0026438D01*
X0208694Y0026451D01*
X0208635Y0026467D01*
X0208577Y0026487D01*
X0208520Y0026511D01*
X0208464Y0026538D01*
X0208410Y0026568D01*
X0208358Y0026602D01*
X0208309Y0026638D01*
X0208261Y0026678D01*
X0208216Y0026720D01*
X0208174Y0026765D01*
X0208134Y0026813D01*
X0208098Y0026862D01*
X0208064Y0026914D01*
X0208034Y0026968D01*
X0208007Y0027024D01*
X0207983Y0027081D01*
X0207963Y0027139D01*
X0207947Y0027198D01*
X0207934Y0027259D01*
X0207924Y0027320D01*
X0207919Y0027381D01*
X0207917Y0027443D01*
X0207917Y0029999D01*
X0207919Y0030061D01*
X0207924Y0030122D01*
X0207934Y0030183D01*
X0207947Y0030244D01*
X0207963Y0030303D01*
X0207983Y0030361D01*
X0208007Y0030418D01*
X0208034Y0030474D01*
X0208064Y0030528D01*
X0208098Y0030580D01*
X0208134Y0030629D01*
X0208174Y0030677D01*
X0208216Y0030722D01*
X0208261Y0030764D01*
X0208309Y0030803D01*
X0208358Y0030840D01*
X0208410Y0030874D01*
X0208464Y0030904D01*
X0208520Y0030931D01*
X0208577Y0030955D01*
X0208635Y0030975D01*
X0208694Y0030991D01*
X0208755Y0031004D01*
X0208816Y0031014D01*
X0208877Y0031019D01*
X0208939Y0031021D01*
X0210472Y0031021D01*
X0210472Y0028977D02*
X0209705Y0028977D01*
X0210472Y0028977D02*
X0210472Y0026421D01*
X0225709Y0013111D02*
X0217835Y0005237D01*
X0147163Y0013311D02*
X0142563Y0014844D01*
X0147163Y0016378D01*
X0146013Y0015994D02*
X0146013Y0013694D01*
X0146141Y0018054D02*
X0143585Y0018054D01*
X0143523Y0018056D01*
X0143462Y0018061D01*
X0143401Y0018071D01*
X0143340Y0018084D01*
X0143281Y0018100D01*
X0143223Y0018120D01*
X0143166Y0018144D01*
X0143110Y0018171D01*
X0143056Y0018201D01*
X0143004Y0018235D01*
X0142955Y0018271D01*
X0142907Y0018311D01*
X0142862Y0018353D01*
X0142820Y0018398D01*
X0142781Y0018446D01*
X0142744Y0018495D01*
X0142710Y0018547D01*
X0142680Y0018601D01*
X0142653Y0018657D01*
X0142629Y0018714D01*
X0142609Y0018772D01*
X0142593Y0018831D01*
X0142580Y0018892D01*
X0142570Y0018953D01*
X0142565Y0019014D01*
X0142563Y0019076D01*
X0142563Y0020098D01*
X0143585Y0021817D02*
X0142563Y0023094D01*
X0147163Y0023094D01*
X0147163Y0021817D02*
X0147163Y0024372D01*
X0147163Y0020098D02*
X0147163Y0019076D01*
X0147161Y0019014D01*
X0147156Y0018953D01*
X0147146Y0018892D01*
X0147133Y0018831D01*
X0147117Y0018772D01*
X0147097Y0018714D01*
X0147073Y0018657D01*
X0147046Y0018601D01*
X0147016Y0018547D01*
X0146982Y0018495D01*
X0146946Y0018446D01*
X0146906Y0018398D01*
X0146864Y0018353D01*
X0146819Y0018311D01*
X0146771Y0018271D01*
X0146722Y0018235D01*
X0146670Y0018201D01*
X0146616Y0018171D01*
X0146560Y0018144D01*
X0146503Y0018120D01*
X0146445Y0018100D01*
X0146386Y0018084D01*
X0146325Y0018071D01*
X0146264Y0018061D01*
X0146203Y0018056D01*
X0146141Y0018054D01*
X0127872Y0018523D02*
X0127872Y0017501D01*
X0127871Y0017501D02*
X0127869Y0017439D01*
X0127864Y0017378D01*
X0127854Y0017317D01*
X0127841Y0017256D01*
X0127825Y0017197D01*
X0127805Y0017139D01*
X0127781Y0017082D01*
X0127754Y0017026D01*
X0127724Y0016972D01*
X0127690Y0016920D01*
X0127654Y0016871D01*
X0127614Y0016823D01*
X0127572Y0016778D01*
X0127527Y0016736D01*
X0127479Y0016696D01*
X0127430Y0016660D01*
X0127378Y0016626D01*
X0127324Y0016596D01*
X0127268Y0016569D01*
X0127211Y0016545D01*
X0127153Y0016525D01*
X0127094Y0016509D01*
X0127033Y0016496D01*
X0126972Y0016486D01*
X0126911Y0016481D01*
X0126849Y0016479D01*
X0124294Y0016479D01*
X0124232Y0016481D01*
X0124171Y0016486D01*
X0124110Y0016496D01*
X0124049Y0016509D01*
X0123990Y0016525D01*
X0123932Y0016545D01*
X0123875Y0016569D01*
X0123819Y0016596D01*
X0123765Y0016626D01*
X0123713Y0016660D01*
X0123664Y0016696D01*
X0123616Y0016736D01*
X0123571Y0016778D01*
X0123529Y0016823D01*
X0123490Y0016871D01*
X0123453Y0016920D01*
X0123419Y0016972D01*
X0123389Y0017026D01*
X0123362Y0017082D01*
X0123338Y0017139D01*
X0123318Y0017197D01*
X0123302Y0017256D01*
X0123289Y0017317D01*
X0123279Y0017378D01*
X0123274Y0017439D01*
X0123272Y0017501D01*
X0123272Y0018523D01*
X0125316Y0022414D02*
X0125269Y0022461D01*
X0125219Y0022505D01*
X0125167Y0022547D01*
X0125113Y0022586D01*
X0125057Y0022621D01*
X0124999Y0022654D01*
X0124939Y0022684D01*
X0124878Y0022710D01*
X0124815Y0022733D01*
X0124751Y0022752D01*
X0124687Y0022768D01*
X0124621Y0022781D01*
X0124555Y0022790D01*
X0124489Y0022795D01*
X0124422Y0022797D01*
X0125316Y0022414D02*
X0127872Y0020242D01*
X0127872Y0022797D01*
X0124294Y0020242D02*
X0124224Y0020267D01*
X0124155Y0020295D01*
X0124088Y0020326D01*
X0124022Y0020361D01*
X0123959Y0020399D01*
X0123897Y0020441D01*
X0123837Y0020485D01*
X0123780Y0020532D01*
X0123725Y0020582D01*
X0123673Y0020635D01*
X0123623Y0020691D01*
X0123577Y0020748D01*
X0123533Y0020809D01*
X0123492Y0020871D01*
X0123455Y0020935D01*
X0123421Y0021001D01*
X0123390Y0021069D01*
X0123363Y0021138D01*
X0123339Y0021208D01*
X0123318Y0021279D01*
X0123302Y0021352D01*
X0123289Y0021425D01*
X0123279Y0021499D01*
X0123274Y0021573D01*
X0123272Y0021647D01*
X0123274Y0021714D01*
X0123280Y0021781D01*
X0123289Y0021847D01*
X0123303Y0021912D01*
X0123320Y0021977D01*
X0123341Y0022040D01*
X0123366Y0022102D01*
X0123394Y0022163D01*
X0123426Y0022222D01*
X0123461Y0022279D01*
X0123500Y0022334D01*
X0123541Y0022386D01*
X0123586Y0022436D01*
X0123633Y0022483D01*
X0123683Y0022528D01*
X0123735Y0022569D01*
X0123790Y0022608D01*
X0123847Y0022643D01*
X0123906Y0022675D01*
X0123967Y0022703D01*
X0124029Y0022728D01*
X0124092Y0022749D01*
X0124157Y0022766D01*
X0124222Y0022780D01*
X0124288Y0022789D01*
X0124355Y0022795D01*
X0124422Y0022797D01*
X0126722Y0014420D02*
X0126722Y0012120D01*
X0127872Y0011736D02*
X0123272Y0013270D01*
X0127872Y0014803D01*
X0044607Y0139095D02*
X0052481Y0146969D01*
D13*
X0065729Y0140158D02*
X0065729Y0130158D01*
X0070729Y0130158D01*
X0070729Y0140158D01*
X0065729Y0140158D01*
X0073544Y0140670D02*
X0078662Y0140670D01*
X0078662Y0129646D01*
X0073544Y0129646D01*
X0073544Y0140670D01*
X0074528Y0135946D02*
X0076103Y0135946D01*
X0077678Y0134371D01*
X0074528Y0134371D01*
X0076103Y0135946D01*
X0077678Y0135946D01*
X0093288Y0140158D02*
X0093288Y0130158D01*
X0098288Y0130158D01*
X0098288Y0140158D01*
X0093288Y0140158D01*
X0117639Y0142166D02*
X0117639Y0129568D01*
X0123150Y0129568D01*
X0123150Y0142166D01*
X0117639Y0142166D01*
X0145454Y0128308D02*
X0150454Y0128308D01*
X0150454Y0118308D01*
X0145454Y0118308D01*
X0145454Y0128308D01*
X0144095Y0121910D02*
X0134095Y0121910D01*
X0134095Y0116910D01*
X0144095Y0116910D01*
X0144095Y0121910D01*
X0152993Y0120591D02*
X0152993Y0126891D01*
X0156930Y0126891D02*
X0160473Y0126891D01*
X0164410Y0126891D02*
X0164410Y0120591D01*
X0191654Y0129646D02*
X0196772Y0129646D01*
X0196772Y0140670D01*
X0191654Y0140670D01*
X0191654Y0129646D01*
X0193150Y0125847D02*
X0203150Y0125847D01*
X0203150Y0120847D01*
X0193150Y0120847D01*
X0193150Y0125847D01*
X0199587Y0130158D02*
X0199587Y0140158D01*
X0204587Y0140158D01*
X0204587Y0130158D01*
X0199587Y0130158D01*
X0195788Y0134371D02*
X0194213Y0134371D01*
X0192639Y0135946D01*
X0195788Y0135946D01*
X0194213Y0134371D01*
X0192639Y0134371D01*
X0207008Y0135158D02*
X0207010Y0135327D01*
X0207016Y0135496D01*
X0207027Y0135665D01*
X0207041Y0135833D01*
X0207060Y0136001D01*
X0207083Y0136169D01*
X0207109Y0136336D01*
X0207140Y0136502D01*
X0207175Y0136668D01*
X0207214Y0136832D01*
X0207258Y0136996D01*
X0207305Y0137158D01*
X0207356Y0137319D01*
X0207411Y0137479D01*
X0207470Y0137638D01*
X0207532Y0137795D01*
X0207599Y0137950D01*
X0207670Y0138104D01*
X0207744Y0138256D01*
X0207822Y0138406D01*
X0207903Y0138554D01*
X0207988Y0138700D01*
X0208077Y0138844D01*
X0208169Y0138986D01*
X0208265Y0139125D01*
X0208364Y0139262D01*
X0208466Y0139397D01*
X0208572Y0139529D01*
X0208681Y0139658D01*
X0208793Y0139785D01*
X0208908Y0139909D01*
X0209026Y0140030D01*
X0209147Y0140148D01*
X0209271Y0140263D01*
X0209398Y0140375D01*
X0209527Y0140484D01*
X0209659Y0140590D01*
X0209794Y0140692D01*
X0209931Y0140791D01*
X0210070Y0140887D01*
X0210212Y0140979D01*
X0210356Y0141068D01*
X0210502Y0141153D01*
X0210650Y0141234D01*
X0210800Y0141312D01*
X0210952Y0141386D01*
X0211106Y0141457D01*
X0211261Y0141524D01*
X0211418Y0141586D01*
X0211577Y0141645D01*
X0211737Y0141700D01*
X0211898Y0141751D01*
X0212060Y0141798D01*
X0212224Y0141842D01*
X0212388Y0141881D01*
X0212554Y0141916D01*
X0212720Y0141947D01*
X0212887Y0141973D01*
X0213055Y0141996D01*
X0213223Y0142015D01*
X0213391Y0142029D01*
X0213560Y0142040D01*
X0213729Y0142046D01*
X0213898Y0142048D01*
X0214067Y0142046D01*
X0214236Y0142040D01*
X0214405Y0142029D01*
X0214573Y0142015D01*
X0214741Y0141996D01*
X0214909Y0141973D01*
X0215076Y0141947D01*
X0215242Y0141916D01*
X0215408Y0141881D01*
X0215572Y0141842D01*
X0215736Y0141798D01*
X0215898Y0141751D01*
X0216059Y0141700D01*
X0216219Y0141645D01*
X0216378Y0141586D01*
X0216535Y0141524D01*
X0216690Y0141457D01*
X0216844Y0141386D01*
X0216996Y0141312D01*
X0217146Y0141234D01*
X0217294Y0141153D01*
X0217440Y0141068D01*
X0217584Y0140979D01*
X0217726Y0140887D01*
X0217865Y0140791D01*
X0218002Y0140692D01*
X0218137Y0140590D01*
X0218269Y0140484D01*
X0218398Y0140375D01*
X0218525Y0140263D01*
X0218649Y0140148D01*
X0218770Y0140030D01*
X0218888Y0139909D01*
X0219003Y0139785D01*
X0219115Y0139658D01*
X0219224Y0139529D01*
X0219330Y0139397D01*
X0219432Y0139262D01*
X0219531Y0139125D01*
X0219627Y0138986D01*
X0219719Y0138844D01*
X0219808Y0138700D01*
X0219893Y0138554D01*
X0219974Y0138406D01*
X0220052Y0138256D01*
X0220126Y0138104D01*
X0220197Y0137950D01*
X0220264Y0137795D01*
X0220326Y0137638D01*
X0220385Y0137479D01*
X0220440Y0137319D01*
X0220491Y0137158D01*
X0220538Y0136996D01*
X0220582Y0136832D01*
X0220621Y0136668D01*
X0220656Y0136502D01*
X0220687Y0136336D01*
X0220713Y0136169D01*
X0220736Y0136001D01*
X0220755Y0135833D01*
X0220769Y0135665D01*
X0220780Y0135496D01*
X0220786Y0135327D01*
X0220788Y0135158D01*
X0220786Y0134989D01*
X0220780Y0134820D01*
X0220769Y0134651D01*
X0220755Y0134483D01*
X0220736Y0134315D01*
X0220713Y0134147D01*
X0220687Y0133980D01*
X0220656Y0133814D01*
X0220621Y0133648D01*
X0220582Y0133484D01*
X0220538Y0133320D01*
X0220491Y0133158D01*
X0220440Y0132997D01*
X0220385Y0132837D01*
X0220326Y0132678D01*
X0220264Y0132521D01*
X0220197Y0132366D01*
X0220126Y0132212D01*
X0220052Y0132060D01*
X0219974Y0131910D01*
X0219893Y0131762D01*
X0219808Y0131616D01*
X0219719Y0131472D01*
X0219627Y0131330D01*
X0219531Y0131191D01*
X0219432Y0131054D01*
X0219330Y0130919D01*
X0219224Y0130787D01*
X0219115Y0130658D01*
X0219003Y0130531D01*
X0218888Y0130407D01*
X0218770Y0130286D01*
X0218649Y0130168D01*
X0218525Y0130053D01*
X0218398Y0129941D01*
X0218269Y0129832D01*
X0218137Y0129726D01*
X0218002Y0129624D01*
X0217865Y0129525D01*
X0217726Y0129429D01*
X0217584Y0129337D01*
X0217440Y0129248D01*
X0217294Y0129163D01*
X0217146Y0129082D01*
X0216996Y0129004D01*
X0216844Y0128930D01*
X0216690Y0128859D01*
X0216535Y0128792D01*
X0216378Y0128730D01*
X0216219Y0128671D01*
X0216059Y0128616D01*
X0215898Y0128565D01*
X0215736Y0128518D01*
X0215572Y0128474D01*
X0215408Y0128435D01*
X0215242Y0128400D01*
X0215076Y0128369D01*
X0214909Y0128343D01*
X0214741Y0128320D01*
X0214573Y0128301D01*
X0214405Y0128287D01*
X0214236Y0128276D01*
X0214067Y0128270D01*
X0213898Y0128268D01*
X0213729Y0128270D01*
X0213560Y0128276D01*
X0213391Y0128287D01*
X0213223Y0128301D01*
X0213055Y0128320D01*
X0212887Y0128343D01*
X0212720Y0128369D01*
X0212554Y0128400D01*
X0212388Y0128435D01*
X0212224Y0128474D01*
X0212060Y0128518D01*
X0211898Y0128565D01*
X0211737Y0128616D01*
X0211577Y0128671D01*
X0211418Y0128730D01*
X0211261Y0128792D01*
X0211106Y0128859D01*
X0210952Y0128930D01*
X0210800Y0129004D01*
X0210650Y0129082D01*
X0210502Y0129163D01*
X0210356Y0129248D01*
X0210212Y0129337D01*
X0210070Y0129429D01*
X0209931Y0129525D01*
X0209794Y0129624D01*
X0209659Y0129726D01*
X0209527Y0129832D01*
X0209398Y0129941D01*
X0209271Y0130053D01*
X0209147Y0130168D01*
X0209026Y0130286D01*
X0208908Y0130407D01*
X0208793Y0130531D01*
X0208681Y0130658D01*
X0208572Y0130787D01*
X0208466Y0130919D01*
X0208364Y0131054D01*
X0208265Y0131191D01*
X0208169Y0131330D01*
X0208077Y0131472D01*
X0207988Y0131616D01*
X0207903Y0131762D01*
X0207822Y0131910D01*
X0207744Y0132060D01*
X0207670Y0132212D01*
X0207599Y0132366D01*
X0207532Y0132521D01*
X0207470Y0132678D01*
X0207411Y0132837D01*
X0207356Y0132997D01*
X0207305Y0133158D01*
X0207258Y0133320D01*
X0207214Y0133484D01*
X0207175Y0133648D01*
X0207140Y0133814D01*
X0207109Y0133980D01*
X0207083Y0134147D01*
X0207060Y0134315D01*
X0207041Y0134483D01*
X0207027Y0134651D01*
X0207016Y0134820D01*
X0207010Y0134989D01*
X0207008Y0135158D01*
X0203150Y0117973D02*
X0193150Y0117973D01*
X0193150Y0112973D01*
X0203150Y0112973D01*
X0203150Y0117973D01*
X0129784Y0116536D02*
X0129784Y0106536D01*
X0124784Y0106536D01*
X0124784Y0116536D01*
X0129784Y0116536D01*
X0122166Y0117835D02*
X0116654Y0117835D01*
X0116654Y0105237D01*
X0122166Y0105237D01*
X0122166Y0117835D01*
X0110749Y0117245D02*
X0104450Y0117245D01*
X0110749Y0113308D02*
X0110749Y0109765D01*
X0110749Y0105828D02*
X0104450Y0105828D01*
X0108662Y0102225D02*
X0108662Y0097225D01*
X0098662Y0097225D01*
X0098662Y0102225D01*
X0108662Y0102225D01*
X0111772Y0098938D02*
X0113150Y0098938D01*
X0111772Y0098938D02*
X0111772Y0095788D01*
X0111772Y0088702D02*
X0111772Y0085552D01*
X0113150Y0085552D01*
X0107206Y0082009D02*
X0123741Y0082009D01*
X0123780Y0085552D02*
X0125158Y0085552D01*
X0125158Y0088702D01*
X0125158Y0095788D02*
X0125158Y0098938D01*
X0123780Y0098938D01*
X0102481Y0082402D02*
X0102481Y0069804D01*
X0096969Y0069804D01*
X0096969Y0082402D01*
X0102481Y0082402D01*
X0107206Y0070198D02*
X0123741Y0070198D01*
X0121910Y0065355D02*
X0116910Y0065355D01*
X0116910Y0055355D01*
X0121910Y0055355D01*
X0121910Y0065355D01*
X0114036Y0065355D02*
X0114036Y0055355D01*
X0109036Y0055355D01*
X0109036Y0065355D01*
X0114036Y0065355D01*
X0106162Y0065355D02*
X0106162Y0055355D01*
X0101162Y0055355D01*
X0101162Y0065355D01*
X0106162Y0065355D01*
X0098288Y0065355D02*
X0098288Y0055355D01*
X0093288Y0055355D01*
X0093288Y0065355D01*
X0098288Y0065355D01*
X0092914Y0051044D02*
X0082914Y0051044D01*
X0082914Y0046044D01*
X0092914Y0046044D01*
X0092914Y0051044D01*
X0092914Y0043170D02*
X0082914Y0043170D01*
X0082914Y0038170D01*
X0092914Y0038170D01*
X0092914Y0043170D01*
X0092914Y0035296D02*
X0082914Y0035296D01*
X0082914Y0030296D01*
X0092914Y0030296D01*
X0092914Y0035296D01*
X0093288Y0025985D02*
X0093288Y0015985D01*
X0098288Y0015985D01*
X0098288Y0025985D01*
X0093288Y0025985D01*
X0090414Y0025985D02*
X0090414Y0015985D01*
X0085414Y0015985D01*
X0085414Y0025985D01*
X0090414Y0025985D01*
X0101162Y0025985D02*
X0101162Y0015985D01*
X0106162Y0015985D01*
X0106162Y0025985D01*
X0101162Y0025985D01*
X0109036Y0025985D02*
X0114036Y0025985D01*
X0114036Y0015985D01*
X0109036Y0015985D01*
X0109036Y0025985D01*
X0116654Y0027284D02*
X0122166Y0027284D01*
X0122166Y0014686D01*
X0116654Y0014686D01*
X0116654Y0027284D01*
X0134095Y0034233D02*
X0134095Y0039233D01*
X0144095Y0039233D01*
X0144095Y0034233D01*
X0134095Y0034233D01*
X0145906Y0034233D02*
X0145906Y0039233D01*
X0155906Y0039233D01*
X0155906Y0034233D01*
X0145906Y0034233D01*
X0161654Y0034233D02*
X0171654Y0034233D01*
X0171654Y0039233D01*
X0161654Y0039233D01*
X0161654Y0034233D01*
X0177402Y0034233D02*
X0177402Y0039233D01*
X0187402Y0039233D01*
X0187402Y0034233D01*
X0177402Y0034233D01*
X0191654Y0022560D02*
X0196772Y0022560D01*
X0196772Y0011536D01*
X0191654Y0011536D01*
X0191654Y0022560D01*
X0192639Y0017835D02*
X0194213Y0017835D01*
X0195788Y0016261D01*
X0192639Y0016261D01*
X0194213Y0017835D01*
X0195788Y0017835D01*
X0199587Y0022048D02*
X0199587Y0012048D01*
X0204587Y0012048D01*
X0204587Y0022048D01*
X0199587Y0022048D01*
X0207008Y0017048D02*
X0207010Y0017217D01*
X0207016Y0017386D01*
X0207027Y0017555D01*
X0207041Y0017723D01*
X0207060Y0017891D01*
X0207083Y0018059D01*
X0207109Y0018226D01*
X0207140Y0018392D01*
X0207175Y0018558D01*
X0207214Y0018722D01*
X0207258Y0018886D01*
X0207305Y0019048D01*
X0207356Y0019209D01*
X0207411Y0019369D01*
X0207470Y0019528D01*
X0207532Y0019685D01*
X0207599Y0019840D01*
X0207670Y0019994D01*
X0207744Y0020146D01*
X0207822Y0020296D01*
X0207903Y0020444D01*
X0207988Y0020590D01*
X0208077Y0020734D01*
X0208169Y0020876D01*
X0208265Y0021015D01*
X0208364Y0021152D01*
X0208466Y0021287D01*
X0208572Y0021419D01*
X0208681Y0021548D01*
X0208793Y0021675D01*
X0208908Y0021799D01*
X0209026Y0021920D01*
X0209147Y0022038D01*
X0209271Y0022153D01*
X0209398Y0022265D01*
X0209527Y0022374D01*
X0209659Y0022480D01*
X0209794Y0022582D01*
X0209931Y0022681D01*
X0210070Y0022777D01*
X0210212Y0022869D01*
X0210356Y0022958D01*
X0210502Y0023043D01*
X0210650Y0023124D01*
X0210800Y0023202D01*
X0210952Y0023276D01*
X0211106Y0023347D01*
X0211261Y0023414D01*
X0211418Y0023476D01*
X0211577Y0023535D01*
X0211737Y0023590D01*
X0211898Y0023641D01*
X0212060Y0023688D01*
X0212224Y0023732D01*
X0212388Y0023771D01*
X0212554Y0023806D01*
X0212720Y0023837D01*
X0212887Y0023863D01*
X0213055Y0023886D01*
X0213223Y0023905D01*
X0213391Y0023919D01*
X0213560Y0023930D01*
X0213729Y0023936D01*
X0213898Y0023938D01*
X0214067Y0023936D01*
X0214236Y0023930D01*
X0214405Y0023919D01*
X0214573Y0023905D01*
X0214741Y0023886D01*
X0214909Y0023863D01*
X0215076Y0023837D01*
X0215242Y0023806D01*
X0215408Y0023771D01*
X0215572Y0023732D01*
X0215736Y0023688D01*
X0215898Y0023641D01*
X0216059Y0023590D01*
X0216219Y0023535D01*
X0216378Y0023476D01*
X0216535Y0023414D01*
X0216690Y0023347D01*
X0216844Y0023276D01*
X0216996Y0023202D01*
X0217146Y0023124D01*
X0217294Y0023043D01*
X0217440Y0022958D01*
X0217584Y0022869D01*
X0217726Y0022777D01*
X0217865Y0022681D01*
X0218002Y0022582D01*
X0218137Y0022480D01*
X0218269Y0022374D01*
X0218398Y0022265D01*
X0218525Y0022153D01*
X0218649Y0022038D01*
X0218770Y0021920D01*
X0218888Y0021799D01*
X0219003Y0021675D01*
X0219115Y0021548D01*
X0219224Y0021419D01*
X0219330Y0021287D01*
X0219432Y0021152D01*
X0219531Y0021015D01*
X0219627Y0020876D01*
X0219719Y0020734D01*
X0219808Y0020590D01*
X0219893Y0020444D01*
X0219974Y0020296D01*
X0220052Y0020146D01*
X0220126Y0019994D01*
X0220197Y0019840D01*
X0220264Y0019685D01*
X0220326Y0019528D01*
X0220385Y0019369D01*
X0220440Y0019209D01*
X0220491Y0019048D01*
X0220538Y0018886D01*
X0220582Y0018722D01*
X0220621Y0018558D01*
X0220656Y0018392D01*
X0220687Y0018226D01*
X0220713Y0018059D01*
X0220736Y0017891D01*
X0220755Y0017723D01*
X0220769Y0017555D01*
X0220780Y0017386D01*
X0220786Y0017217D01*
X0220788Y0017048D01*
X0220786Y0016879D01*
X0220780Y0016710D01*
X0220769Y0016541D01*
X0220755Y0016373D01*
X0220736Y0016205D01*
X0220713Y0016037D01*
X0220687Y0015870D01*
X0220656Y0015704D01*
X0220621Y0015538D01*
X0220582Y0015374D01*
X0220538Y0015210D01*
X0220491Y0015048D01*
X0220440Y0014887D01*
X0220385Y0014727D01*
X0220326Y0014568D01*
X0220264Y0014411D01*
X0220197Y0014256D01*
X0220126Y0014102D01*
X0220052Y0013950D01*
X0219974Y0013800D01*
X0219893Y0013652D01*
X0219808Y0013506D01*
X0219719Y0013362D01*
X0219627Y0013220D01*
X0219531Y0013081D01*
X0219432Y0012944D01*
X0219330Y0012809D01*
X0219224Y0012677D01*
X0219115Y0012548D01*
X0219003Y0012421D01*
X0218888Y0012297D01*
X0218770Y0012176D01*
X0218649Y0012058D01*
X0218525Y0011943D01*
X0218398Y0011831D01*
X0218269Y0011722D01*
X0218137Y0011616D01*
X0218002Y0011514D01*
X0217865Y0011415D01*
X0217726Y0011319D01*
X0217584Y0011227D01*
X0217440Y0011138D01*
X0217294Y0011053D01*
X0217146Y0010972D01*
X0216996Y0010894D01*
X0216844Y0010820D01*
X0216690Y0010749D01*
X0216535Y0010682D01*
X0216378Y0010620D01*
X0216219Y0010561D01*
X0216059Y0010506D01*
X0215898Y0010455D01*
X0215736Y0010408D01*
X0215572Y0010364D01*
X0215408Y0010325D01*
X0215242Y0010290D01*
X0215076Y0010259D01*
X0214909Y0010233D01*
X0214741Y0010210D01*
X0214573Y0010191D01*
X0214405Y0010177D01*
X0214236Y0010166D01*
X0214067Y0010160D01*
X0213898Y0010158D01*
X0213729Y0010160D01*
X0213560Y0010166D01*
X0213391Y0010177D01*
X0213223Y0010191D01*
X0213055Y0010210D01*
X0212887Y0010233D01*
X0212720Y0010259D01*
X0212554Y0010290D01*
X0212388Y0010325D01*
X0212224Y0010364D01*
X0212060Y0010408D01*
X0211898Y0010455D01*
X0211737Y0010506D01*
X0211577Y0010561D01*
X0211418Y0010620D01*
X0211261Y0010682D01*
X0211106Y0010749D01*
X0210952Y0010820D01*
X0210800Y0010894D01*
X0210650Y0010972D01*
X0210502Y0011053D01*
X0210356Y0011138D01*
X0210212Y0011227D01*
X0210070Y0011319D01*
X0209931Y0011415D01*
X0209794Y0011514D01*
X0209659Y0011616D01*
X0209527Y0011722D01*
X0209398Y0011831D01*
X0209271Y0011943D01*
X0209147Y0012058D01*
X0209026Y0012176D01*
X0208908Y0012297D01*
X0208793Y0012421D01*
X0208681Y0012548D01*
X0208572Y0012677D01*
X0208466Y0012809D01*
X0208364Y0012944D01*
X0208265Y0013081D01*
X0208169Y0013220D01*
X0208077Y0013362D01*
X0207988Y0013506D01*
X0207903Y0013652D01*
X0207822Y0013800D01*
X0207744Y0013950D01*
X0207670Y0014102D01*
X0207599Y0014256D01*
X0207532Y0014411D01*
X0207470Y0014568D01*
X0207411Y0014727D01*
X0207356Y0014887D01*
X0207305Y0015048D01*
X0207258Y0015210D01*
X0207214Y0015374D01*
X0207175Y0015538D01*
X0207140Y0015704D01*
X0207109Y0015870D01*
X0207083Y0016037D01*
X0207060Y0016205D01*
X0207041Y0016373D01*
X0207027Y0016541D01*
X0207016Y0016710D01*
X0207010Y0016879D01*
X0207008Y0017048D01*
X0078662Y0011536D02*
X0073544Y0011536D01*
X0073544Y0022560D01*
X0078662Y0022560D01*
X0078662Y0011536D01*
X0077678Y0016261D02*
X0074528Y0016261D01*
X0076103Y0017835D01*
X0077678Y0016261D01*
X0077678Y0017835D02*
X0076103Y0017835D01*
X0074528Y0017835D01*
X0070729Y0022048D02*
X0070729Y0012048D01*
X0065729Y0012048D01*
X0065729Y0022048D01*
X0070729Y0022048D01*
X0049528Y0017048D02*
X0049530Y0017217D01*
X0049536Y0017386D01*
X0049547Y0017555D01*
X0049561Y0017723D01*
X0049580Y0017891D01*
X0049603Y0018059D01*
X0049629Y0018226D01*
X0049660Y0018392D01*
X0049695Y0018558D01*
X0049734Y0018722D01*
X0049778Y0018886D01*
X0049825Y0019048D01*
X0049876Y0019209D01*
X0049931Y0019369D01*
X0049990Y0019528D01*
X0050052Y0019685D01*
X0050119Y0019840D01*
X0050190Y0019994D01*
X0050264Y0020146D01*
X0050342Y0020296D01*
X0050423Y0020444D01*
X0050508Y0020590D01*
X0050597Y0020734D01*
X0050689Y0020876D01*
X0050785Y0021015D01*
X0050884Y0021152D01*
X0050986Y0021287D01*
X0051092Y0021419D01*
X0051201Y0021548D01*
X0051313Y0021675D01*
X0051428Y0021799D01*
X0051546Y0021920D01*
X0051667Y0022038D01*
X0051791Y0022153D01*
X0051918Y0022265D01*
X0052047Y0022374D01*
X0052179Y0022480D01*
X0052314Y0022582D01*
X0052451Y0022681D01*
X0052590Y0022777D01*
X0052732Y0022869D01*
X0052876Y0022958D01*
X0053022Y0023043D01*
X0053170Y0023124D01*
X0053320Y0023202D01*
X0053472Y0023276D01*
X0053626Y0023347D01*
X0053781Y0023414D01*
X0053938Y0023476D01*
X0054097Y0023535D01*
X0054257Y0023590D01*
X0054418Y0023641D01*
X0054580Y0023688D01*
X0054744Y0023732D01*
X0054908Y0023771D01*
X0055074Y0023806D01*
X0055240Y0023837D01*
X0055407Y0023863D01*
X0055575Y0023886D01*
X0055743Y0023905D01*
X0055911Y0023919D01*
X0056080Y0023930D01*
X0056249Y0023936D01*
X0056418Y0023938D01*
X0056587Y0023936D01*
X0056756Y0023930D01*
X0056925Y0023919D01*
X0057093Y0023905D01*
X0057261Y0023886D01*
X0057429Y0023863D01*
X0057596Y0023837D01*
X0057762Y0023806D01*
X0057928Y0023771D01*
X0058092Y0023732D01*
X0058256Y0023688D01*
X0058418Y0023641D01*
X0058579Y0023590D01*
X0058739Y0023535D01*
X0058898Y0023476D01*
X0059055Y0023414D01*
X0059210Y0023347D01*
X0059364Y0023276D01*
X0059516Y0023202D01*
X0059666Y0023124D01*
X0059814Y0023043D01*
X0059960Y0022958D01*
X0060104Y0022869D01*
X0060246Y0022777D01*
X0060385Y0022681D01*
X0060522Y0022582D01*
X0060657Y0022480D01*
X0060789Y0022374D01*
X0060918Y0022265D01*
X0061045Y0022153D01*
X0061169Y0022038D01*
X0061290Y0021920D01*
X0061408Y0021799D01*
X0061523Y0021675D01*
X0061635Y0021548D01*
X0061744Y0021419D01*
X0061850Y0021287D01*
X0061952Y0021152D01*
X0062051Y0021015D01*
X0062147Y0020876D01*
X0062239Y0020734D01*
X0062328Y0020590D01*
X0062413Y0020444D01*
X0062494Y0020296D01*
X0062572Y0020146D01*
X0062646Y0019994D01*
X0062717Y0019840D01*
X0062784Y0019685D01*
X0062846Y0019528D01*
X0062905Y0019369D01*
X0062960Y0019209D01*
X0063011Y0019048D01*
X0063058Y0018886D01*
X0063102Y0018722D01*
X0063141Y0018558D01*
X0063176Y0018392D01*
X0063207Y0018226D01*
X0063233Y0018059D01*
X0063256Y0017891D01*
X0063275Y0017723D01*
X0063289Y0017555D01*
X0063300Y0017386D01*
X0063306Y0017217D01*
X0063308Y0017048D01*
X0063306Y0016879D01*
X0063300Y0016710D01*
X0063289Y0016541D01*
X0063275Y0016373D01*
X0063256Y0016205D01*
X0063233Y0016037D01*
X0063207Y0015870D01*
X0063176Y0015704D01*
X0063141Y0015538D01*
X0063102Y0015374D01*
X0063058Y0015210D01*
X0063011Y0015048D01*
X0062960Y0014887D01*
X0062905Y0014727D01*
X0062846Y0014568D01*
X0062784Y0014411D01*
X0062717Y0014256D01*
X0062646Y0014102D01*
X0062572Y0013950D01*
X0062494Y0013800D01*
X0062413Y0013652D01*
X0062328Y0013506D01*
X0062239Y0013362D01*
X0062147Y0013220D01*
X0062051Y0013081D01*
X0061952Y0012944D01*
X0061850Y0012809D01*
X0061744Y0012677D01*
X0061635Y0012548D01*
X0061523Y0012421D01*
X0061408Y0012297D01*
X0061290Y0012176D01*
X0061169Y0012058D01*
X0061045Y0011943D01*
X0060918Y0011831D01*
X0060789Y0011722D01*
X0060657Y0011616D01*
X0060522Y0011514D01*
X0060385Y0011415D01*
X0060246Y0011319D01*
X0060104Y0011227D01*
X0059960Y0011138D01*
X0059814Y0011053D01*
X0059666Y0010972D01*
X0059516Y0010894D01*
X0059364Y0010820D01*
X0059210Y0010749D01*
X0059055Y0010682D01*
X0058898Y0010620D01*
X0058739Y0010561D01*
X0058579Y0010506D01*
X0058418Y0010455D01*
X0058256Y0010408D01*
X0058092Y0010364D01*
X0057928Y0010325D01*
X0057762Y0010290D01*
X0057596Y0010259D01*
X0057429Y0010233D01*
X0057261Y0010210D01*
X0057093Y0010191D01*
X0056925Y0010177D01*
X0056756Y0010166D01*
X0056587Y0010160D01*
X0056418Y0010158D01*
X0056249Y0010160D01*
X0056080Y0010166D01*
X0055911Y0010177D01*
X0055743Y0010191D01*
X0055575Y0010210D01*
X0055407Y0010233D01*
X0055240Y0010259D01*
X0055074Y0010290D01*
X0054908Y0010325D01*
X0054744Y0010364D01*
X0054580Y0010408D01*
X0054418Y0010455D01*
X0054257Y0010506D01*
X0054097Y0010561D01*
X0053938Y0010620D01*
X0053781Y0010682D01*
X0053626Y0010749D01*
X0053472Y0010820D01*
X0053320Y0010894D01*
X0053170Y0010972D01*
X0053022Y0011053D01*
X0052876Y0011138D01*
X0052732Y0011227D01*
X0052590Y0011319D01*
X0052451Y0011415D01*
X0052314Y0011514D01*
X0052179Y0011616D01*
X0052047Y0011722D01*
X0051918Y0011831D01*
X0051791Y0011943D01*
X0051667Y0012058D01*
X0051546Y0012176D01*
X0051428Y0012297D01*
X0051313Y0012421D01*
X0051201Y0012548D01*
X0051092Y0012677D01*
X0050986Y0012809D01*
X0050884Y0012944D01*
X0050785Y0013081D01*
X0050689Y0013220D01*
X0050597Y0013362D01*
X0050508Y0013506D01*
X0050423Y0013652D01*
X0050342Y0013800D01*
X0050264Y0013950D01*
X0050190Y0014102D01*
X0050119Y0014256D01*
X0050052Y0014411D01*
X0049990Y0014568D01*
X0049931Y0014727D01*
X0049876Y0014887D01*
X0049825Y0015048D01*
X0049778Y0015210D01*
X0049734Y0015374D01*
X0049695Y0015538D01*
X0049660Y0015704D01*
X0049629Y0015870D01*
X0049603Y0016037D01*
X0049580Y0016205D01*
X0049561Y0016373D01*
X0049547Y0016541D01*
X0049536Y0016710D01*
X0049530Y0016879D01*
X0049528Y0017048D01*
X0049528Y0135158D02*
X0049530Y0135327D01*
X0049536Y0135496D01*
X0049547Y0135665D01*
X0049561Y0135833D01*
X0049580Y0136001D01*
X0049603Y0136169D01*
X0049629Y0136336D01*
X0049660Y0136502D01*
X0049695Y0136668D01*
X0049734Y0136832D01*
X0049778Y0136996D01*
X0049825Y0137158D01*
X0049876Y0137319D01*
X0049931Y0137479D01*
X0049990Y0137638D01*
X0050052Y0137795D01*
X0050119Y0137950D01*
X0050190Y0138104D01*
X0050264Y0138256D01*
X0050342Y0138406D01*
X0050423Y0138554D01*
X0050508Y0138700D01*
X0050597Y0138844D01*
X0050689Y0138986D01*
X0050785Y0139125D01*
X0050884Y0139262D01*
X0050986Y0139397D01*
X0051092Y0139529D01*
X0051201Y0139658D01*
X0051313Y0139785D01*
X0051428Y0139909D01*
X0051546Y0140030D01*
X0051667Y0140148D01*
X0051791Y0140263D01*
X0051918Y0140375D01*
X0052047Y0140484D01*
X0052179Y0140590D01*
X0052314Y0140692D01*
X0052451Y0140791D01*
X0052590Y0140887D01*
X0052732Y0140979D01*
X0052876Y0141068D01*
X0053022Y0141153D01*
X0053170Y0141234D01*
X0053320Y0141312D01*
X0053472Y0141386D01*
X0053626Y0141457D01*
X0053781Y0141524D01*
X0053938Y0141586D01*
X0054097Y0141645D01*
X0054257Y0141700D01*
X0054418Y0141751D01*
X0054580Y0141798D01*
X0054744Y0141842D01*
X0054908Y0141881D01*
X0055074Y0141916D01*
X0055240Y0141947D01*
X0055407Y0141973D01*
X0055575Y0141996D01*
X0055743Y0142015D01*
X0055911Y0142029D01*
X0056080Y0142040D01*
X0056249Y0142046D01*
X0056418Y0142048D01*
X0056587Y0142046D01*
X0056756Y0142040D01*
X0056925Y0142029D01*
X0057093Y0142015D01*
X0057261Y0141996D01*
X0057429Y0141973D01*
X0057596Y0141947D01*
X0057762Y0141916D01*
X0057928Y0141881D01*
X0058092Y0141842D01*
X0058256Y0141798D01*
X0058418Y0141751D01*
X0058579Y0141700D01*
X0058739Y0141645D01*
X0058898Y0141586D01*
X0059055Y0141524D01*
X0059210Y0141457D01*
X0059364Y0141386D01*
X0059516Y0141312D01*
X0059666Y0141234D01*
X0059814Y0141153D01*
X0059960Y0141068D01*
X0060104Y0140979D01*
X0060246Y0140887D01*
X0060385Y0140791D01*
X0060522Y0140692D01*
X0060657Y0140590D01*
X0060789Y0140484D01*
X0060918Y0140375D01*
X0061045Y0140263D01*
X0061169Y0140148D01*
X0061290Y0140030D01*
X0061408Y0139909D01*
X0061523Y0139785D01*
X0061635Y0139658D01*
X0061744Y0139529D01*
X0061850Y0139397D01*
X0061952Y0139262D01*
X0062051Y0139125D01*
X0062147Y0138986D01*
X0062239Y0138844D01*
X0062328Y0138700D01*
X0062413Y0138554D01*
X0062494Y0138406D01*
X0062572Y0138256D01*
X0062646Y0138104D01*
X0062717Y0137950D01*
X0062784Y0137795D01*
X0062846Y0137638D01*
X0062905Y0137479D01*
X0062960Y0137319D01*
X0063011Y0137158D01*
X0063058Y0136996D01*
X0063102Y0136832D01*
X0063141Y0136668D01*
X0063176Y0136502D01*
X0063207Y0136336D01*
X0063233Y0136169D01*
X0063256Y0136001D01*
X0063275Y0135833D01*
X0063289Y0135665D01*
X0063300Y0135496D01*
X0063306Y0135327D01*
X0063308Y0135158D01*
X0063306Y0134989D01*
X0063300Y0134820D01*
X0063289Y0134651D01*
X0063275Y0134483D01*
X0063256Y0134315D01*
X0063233Y0134147D01*
X0063207Y0133980D01*
X0063176Y0133814D01*
X0063141Y0133648D01*
X0063102Y0133484D01*
X0063058Y0133320D01*
X0063011Y0133158D01*
X0062960Y0132997D01*
X0062905Y0132837D01*
X0062846Y0132678D01*
X0062784Y0132521D01*
X0062717Y0132366D01*
X0062646Y0132212D01*
X0062572Y0132060D01*
X0062494Y0131910D01*
X0062413Y0131762D01*
X0062328Y0131616D01*
X0062239Y0131472D01*
X0062147Y0131330D01*
X0062051Y0131191D01*
X0061952Y0131054D01*
X0061850Y0130919D01*
X0061744Y0130787D01*
X0061635Y0130658D01*
X0061523Y0130531D01*
X0061408Y0130407D01*
X0061290Y0130286D01*
X0061169Y0130168D01*
X0061045Y0130053D01*
X0060918Y0129941D01*
X0060789Y0129832D01*
X0060657Y0129726D01*
X0060522Y0129624D01*
X0060385Y0129525D01*
X0060246Y0129429D01*
X0060104Y0129337D01*
X0059960Y0129248D01*
X0059814Y0129163D01*
X0059666Y0129082D01*
X0059516Y0129004D01*
X0059364Y0128930D01*
X0059210Y0128859D01*
X0059055Y0128792D01*
X0058898Y0128730D01*
X0058739Y0128671D01*
X0058579Y0128616D01*
X0058418Y0128565D01*
X0058256Y0128518D01*
X0058092Y0128474D01*
X0057928Y0128435D01*
X0057762Y0128400D01*
X0057596Y0128369D01*
X0057429Y0128343D01*
X0057261Y0128320D01*
X0057093Y0128301D01*
X0056925Y0128287D01*
X0056756Y0128276D01*
X0056587Y0128270D01*
X0056418Y0128268D01*
X0056249Y0128270D01*
X0056080Y0128276D01*
X0055911Y0128287D01*
X0055743Y0128301D01*
X0055575Y0128320D01*
X0055407Y0128343D01*
X0055240Y0128369D01*
X0055074Y0128400D01*
X0054908Y0128435D01*
X0054744Y0128474D01*
X0054580Y0128518D01*
X0054418Y0128565D01*
X0054257Y0128616D01*
X0054097Y0128671D01*
X0053938Y0128730D01*
X0053781Y0128792D01*
X0053626Y0128859D01*
X0053472Y0128930D01*
X0053320Y0129004D01*
X0053170Y0129082D01*
X0053022Y0129163D01*
X0052876Y0129248D01*
X0052732Y0129337D01*
X0052590Y0129429D01*
X0052451Y0129525D01*
X0052314Y0129624D01*
X0052179Y0129726D01*
X0052047Y0129832D01*
X0051918Y0129941D01*
X0051791Y0130053D01*
X0051667Y0130168D01*
X0051546Y0130286D01*
X0051428Y0130407D01*
X0051313Y0130531D01*
X0051201Y0130658D01*
X0051092Y0130787D01*
X0050986Y0130919D01*
X0050884Y0131054D01*
X0050785Y0131191D01*
X0050689Y0131330D01*
X0050597Y0131472D01*
X0050508Y0131616D01*
X0050423Y0131762D01*
X0050342Y0131910D01*
X0050264Y0132060D01*
X0050190Y0132212D01*
X0050119Y0132366D01*
X0050052Y0132521D01*
X0049990Y0132678D01*
X0049931Y0132837D01*
X0049876Y0132997D01*
X0049825Y0133158D01*
X0049778Y0133320D01*
X0049734Y0133484D01*
X0049695Y0133648D01*
X0049660Y0133814D01*
X0049629Y0133980D01*
X0049603Y0134147D01*
X0049580Y0134315D01*
X0049561Y0134483D01*
X0049547Y0134651D01*
X0049536Y0134820D01*
X0049530Y0134989D01*
X0049528Y0135158D01*
D14*
X0049893Y0122192D02*
X0051143Y0122192D01*
X0051212Y0122190D01*
X0051281Y0122184D01*
X0051349Y0122175D01*
X0051416Y0122162D01*
X0051483Y0122145D01*
X0051549Y0122124D01*
X0051613Y0122100D01*
X0051676Y0122072D01*
X0051738Y0122041D01*
X0051798Y0122007D01*
X0051855Y0121969D01*
X0051911Y0121928D01*
X0051964Y0121885D01*
X0052015Y0121838D01*
X0052063Y0121789D01*
X0052108Y0121737D01*
X0052150Y0121682D01*
X0052189Y0121626D01*
X0052226Y0121567D01*
X0052258Y0121506D01*
X0052288Y0121444D01*
X0052314Y0121380D01*
X0052336Y0121315D01*
X0052355Y0121249D01*
X0052370Y0121182D01*
X0052381Y0121114D01*
X0052389Y0121045D01*
X0052393Y0120976D01*
X0052393Y0120908D01*
X0052389Y0120839D01*
X0052381Y0120770D01*
X0052370Y0120702D01*
X0052355Y0120635D01*
X0052336Y0120569D01*
X0052314Y0120504D01*
X0052288Y0120440D01*
X0052258Y0120378D01*
X0052226Y0120317D01*
X0052189Y0120258D01*
X0052150Y0120202D01*
X0052108Y0120147D01*
X0052063Y0120095D01*
X0052015Y0120046D01*
X0051964Y0119999D01*
X0051911Y0119956D01*
X0051855Y0119915D01*
X0051798Y0119877D01*
X0051738Y0119843D01*
X0051676Y0119812D01*
X0051613Y0119784D01*
X0051549Y0119760D01*
X0051483Y0119739D01*
X0051416Y0119722D01*
X0051349Y0119709D01*
X0051281Y0119700D01*
X0051212Y0119694D01*
X0051143Y0119692D01*
X0049893Y0119692D01*
X0049893Y0117692D02*
X0049893Y0122192D01*
X0047538Y0122192D02*
X0047538Y0118692D01*
X0047536Y0118632D01*
X0047531Y0118571D01*
X0047522Y0118512D01*
X0047509Y0118453D01*
X0047493Y0118394D01*
X0047473Y0118337D01*
X0047450Y0118282D01*
X0047423Y0118227D01*
X0047394Y0118175D01*
X0047361Y0118124D01*
X0047325Y0118075D01*
X0047287Y0118029D01*
X0047245Y0117985D01*
X0047201Y0117943D01*
X0047155Y0117905D01*
X0047106Y0117869D01*
X0047055Y0117836D01*
X0047003Y0117807D01*
X0046948Y0117780D01*
X0046893Y0117757D01*
X0046836Y0117737D01*
X0046777Y0117721D01*
X0046718Y0117708D01*
X0046659Y0117699D01*
X0046598Y0117694D01*
X0046538Y0117692D01*
X0046038Y0117692D01*
X0047538Y0113924D02*
X0047538Y0110424D01*
X0047536Y0110364D01*
X0047531Y0110303D01*
X0047522Y0110244D01*
X0047509Y0110185D01*
X0047493Y0110126D01*
X0047473Y0110069D01*
X0047450Y0110014D01*
X0047423Y0109959D01*
X0047394Y0109907D01*
X0047361Y0109856D01*
X0047325Y0109807D01*
X0047287Y0109761D01*
X0047245Y0109717D01*
X0047201Y0109675D01*
X0047155Y0109637D01*
X0047106Y0109601D01*
X0047055Y0109568D01*
X0047003Y0109539D01*
X0046948Y0109512D01*
X0046893Y0109489D01*
X0046836Y0109469D01*
X0046777Y0109453D01*
X0046718Y0109440D01*
X0046659Y0109431D01*
X0046598Y0109426D01*
X0046538Y0109424D01*
X0046038Y0109424D01*
X0049893Y0109424D02*
X0049893Y0113924D01*
X0051143Y0113924D01*
X0051212Y0113922D01*
X0051281Y0113916D01*
X0051349Y0113907D01*
X0051416Y0113894D01*
X0051483Y0113877D01*
X0051549Y0113856D01*
X0051613Y0113832D01*
X0051676Y0113804D01*
X0051738Y0113773D01*
X0051798Y0113739D01*
X0051855Y0113701D01*
X0051911Y0113660D01*
X0051964Y0113617D01*
X0052015Y0113570D01*
X0052063Y0113521D01*
X0052108Y0113469D01*
X0052150Y0113414D01*
X0052189Y0113358D01*
X0052226Y0113299D01*
X0052258Y0113238D01*
X0052288Y0113176D01*
X0052314Y0113112D01*
X0052336Y0113047D01*
X0052355Y0112981D01*
X0052370Y0112914D01*
X0052381Y0112846D01*
X0052389Y0112777D01*
X0052393Y0112708D01*
X0052393Y0112640D01*
X0052389Y0112571D01*
X0052381Y0112502D01*
X0052370Y0112434D01*
X0052355Y0112367D01*
X0052336Y0112301D01*
X0052314Y0112236D01*
X0052288Y0112172D01*
X0052258Y0112110D01*
X0052226Y0112049D01*
X0052189Y0111990D01*
X0052150Y0111934D01*
X0052108Y0111879D01*
X0052063Y0111827D01*
X0052015Y0111778D01*
X0051964Y0111731D01*
X0051911Y0111688D01*
X0051855Y0111647D01*
X0051798Y0111609D01*
X0051738Y0111575D01*
X0051676Y0111544D01*
X0051613Y0111516D01*
X0051549Y0111492D01*
X0051483Y0111471D01*
X0051416Y0111454D01*
X0051349Y0111441D01*
X0051281Y0111432D01*
X0051212Y0111426D01*
X0051143Y0111424D01*
X0049893Y0111424D01*
X0054168Y0112924D02*
X0055418Y0113924D01*
X0055418Y0109424D01*
X0054168Y0109424D02*
X0056668Y0109424D01*
X0056668Y0117692D02*
X0054168Y0117692D01*
X0056293Y0120192D01*
X0055543Y0122191D02*
X0055470Y0122189D01*
X0055398Y0122184D01*
X0055326Y0122175D01*
X0055254Y0122162D01*
X0055183Y0122146D01*
X0055113Y0122126D01*
X0055045Y0122102D01*
X0054977Y0122076D01*
X0054911Y0122045D01*
X0054846Y0122012D01*
X0054784Y0121975D01*
X0054723Y0121936D01*
X0054664Y0121893D01*
X0054607Y0121847D01*
X0054553Y0121799D01*
X0054502Y0121748D01*
X0054452Y0121694D01*
X0054406Y0121638D01*
X0054363Y0121580D01*
X0054322Y0121519D01*
X0054285Y0121457D01*
X0054251Y0121393D01*
X0054220Y0121327D01*
X0054192Y0121260D01*
X0054168Y0121191D01*
X0056292Y0120192D02*
X0056338Y0120238D01*
X0056382Y0120287D01*
X0056422Y0120338D01*
X0056460Y0120391D01*
X0056495Y0120446D01*
X0056527Y0120503D01*
X0056556Y0120561D01*
X0056582Y0120621D01*
X0056604Y0120683D01*
X0056623Y0120745D01*
X0056639Y0120808D01*
X0056651Y0120872D01*
X0056660Y0120937D01*
X0056665Y0121002D01*
X0056667Y0121067D01*
X0056668Y0121067D02*
X0056666Y0121132D01*
X0056660Y0121198D01*
X0056651Y0121262D01*
X0056638Y0121326D01*
X0056621Y0121390D01*
X0056600Y0121452D01*
X0056576Y0121513D01*
X0056548Y0121572D01*
X0056517Y0121630D01*
X0056483Y0121685D01*
X0056445Y0121739D01*
X0056405Y0121790D01*
X0056361Y0121839D01*
X0056315Y0121885D01*
X0056266Y0121929D01*
X0056215Y0121969D01*
X0056161Y0122007D01*
X0056106Y0122041D01*
X0056048Y0122072D01*
X0055989Y0122100D01*
X0055928Y0122124D01*
X0055866Y0122145D01*
X0055802Y0122162D01*
X0055738Y0122175D01*
X0055674Y0122184D01*
X0055608Y0122190D01*
X0055543Y0122192D01*
X0108473Y0120347D02*
X0108473Y0126347D01*
X0122473Y0126347D01*
X0122473Y0120347D01*
X0108473Y0120347D01*
X0131221Y0107599D02*
X0225709Y0107599D01*
X0225709Y0044607D01*
X0131221Y0044607D01*
X0131221Y0107599D01*
X0135946Y0099725D02*
X0195001Y0099725D01*
X0195001Y0052481D01*
X0135946Y0052481D01*
X0135946Y0099725D01*
X0166820Y0111599D02*
X0166822Y0111643D01*
X0166828Y0111687D01*
X0166838Y0111730D01*
X0166851Y0111772D01*
X0166868Y0111813D01*
X0166889Y0111852D01*
X0166913Y0111889D01*
X0166940Y0111924D01*
X0166970Y0111956D01*
X0167003Y0111986D01*
X0167039Y0112012D01*
X0167076Y0112036D01*
X0167116Y0112055D01*
X0167157Y0112072D01*
X0167200Y0112084D01*
X0167243Y0112093D01*
X0167287Y0112098D01*
X0167331Y0112099D01*
X0167375Y0112096D01*
X0167419Y0112089D01*
X0167462Y0112078D01*
X0167504Y0112064D01*
X0167544Y0112046D01*
X0167583Y0112024D01*
X0167619Y0112000D01*
X0167653Y0111972D01*
X0167685Y0111941D01*
X0167714Y0111907D01*
X0167740Y0111871D01*
X0167762Y0111833D01*
X0167781Y0111793D01*
X0167796Y0111751D01*
X0167808Y0111709D01*
X0167816Y0111665D01*
X0167820Y0111621D01*
X0167820Y0111577D01*
X0167816Y0111533D01*
X0167808Y0111489D01*
X0167796Y0111447D01*
X0167781Y0111405D01*
X0167762Y0111365D01*
X0167740Y0111327D01*
X0167714Y0111291D01*
X0167685Y0111257D01*
X0167653Y0111226D01*
X0167619Y0111198D01*
X0167583Y0111174D01*
X0167544Y0111152D01*
X0167504Y0111134D01*
X0167462Y0111120D01*
X0167419Y0111109D01*
X0167375Y0111102D01*
X0167331Y0111099D01*
X0167287Y0111100D01*
X0167243Y0111105D01*
X0167200Y0111114D01*
X0167157Y0111126D01*
X0167116Y0111143D01*
X0167076Y0111162D01*
X0167039Y0111186D01*
X0167003Y0111212D01*
X0166970Y0111242D01*
X0166940Y0111274D01*
X0166913Y0111309D01*
X0166889Y0111346D01*
X0166868Y0111385D01*
X0166851Y0111426D01*
X0166838Y0111468D01*
X0166828Y0111511D01*
X0166822Y0111555D01*
X0166820Y0111599D01*
X0168320Y0112599D02*
X0189320Y0112599D01*
X0189320Y0142599D01*
X0168320Y0142599D01*
X0168320Y0112599D01*
D15*
X0113514Y0127334D02*
X0112681Y0127334D01*
X0113097Y0127334D02*
X0113097Y0128834D01*
X0112681Y0128501D01*
X0112026Y0128418D02*
X0112026Y0127751D01*
X0112024Y0127713D01*
X0112019Y0127674D01*
X0112010Y0127637D01*
X0111998Y0127600D01*
X0111982Y0127565D01*
X0111964Y0127531D01*
X0111942Y0127500D01*
X0111917Y0127470D01*
X0111890Y0127443D01*
X0111860Y0127418D01*
X0111829Y0127396D01*
X0111795Y0127378D01*
X0111760Y0127362D01*
X0111723Y0127350D01*
X0111686Y0127341D01*
X0111647Y0127336D01*
X0111609Y0127334D01*
X0111193Y0127334D01*
X0111193Y0128834D01*
X0111609Y0128834D01*
X0111609Y0128835D02*
X0111647Y0128833D01*
X0111686Y0128828D01*
X0111723Y0128819D01*
X0111760Y0128807D01*
X0111795Y0128791D01*
X0111829Y0128773D01*
X0111860Y0128751D01*
X0111890Y0128726D01*
X0111917Y0128699D01*
X0111942Y0128669D01*
X0111964Y0128638D01*
X0111982Y0128604D01*
X0111998Y0128569D01*
X0112010Y0128532D01*
X0112019Y0128495D01*
X0112024Y0128456D01*
X0112026Y0128418D01*
D16*
X0123320Y0051643D02*
X0123322Y0051670D01*
X0123328Y0051697D01*
X0123337Y0051723D01*
X0123350Y0051747D01*
X0123366Y0051770D01*
X0123385Y0051789D01*
X0123407Y0051806D01*
X0123431Y0051820D01*
X0123456Y0051830D01*
X0123483Y0051837D01*
X0123510Y0051840D01*
X0123538Y0051839D01*
X0123565Y0051834D01*
X0123591Y0051826D01*
X0123615Y0051814D01*
X0123638Y0051798D01*
X0123659Y0051780D01*
X0123676Y0051759D01*
X0123691Y0051735D01*
X0123702Y0051710D01*
X0123710Y0051684D01*
X0123714Y0051657D01*
X0123714Y0051629D01*
X0123710Y0051602D01*
X0123702Y0051576D01*
X0123691Y0051551D01*
X0123676Y0051527D01*
X0123659Y0051506D01*
X0123638Y0051488D01*
X0123616Y0051472D01*
X0123591Y0051460D01*
X0123565Y0051452D01*
X0123538Y0051447D01*
X0123510Y0051446D01*
X0123483Y0051449D01*
X0123456Y0051456D01*
X0123431Y0051466D01*
X0123407Y0051480D01*
X0123385Y0051497D01*
X0123366Y0051516D01*
X0123350Y0051539D01*
X0123337Y0051563D01*
X0123328Y0051589D01*
X0123322Y0051616D01*
X0123320Y0051643D01*
X0121745Y0050591D02*
X0121745Y0030946D01*
X0099359Y0030946D01*
X0099359Y0050591D01*
X0121745Y0050591D01*
D17*
X0114886Y0051620D02*
X0113275Y0051620D01*
X0114081Y0051620D02*
X0114081Y0054520D01*
X0113275Y0053876D01*
X0112006Y0054520D02*
X0110395Y0054520D01*
X0110395Y0053231D01*
X0111362Y0053231D01*
X0111410Y0053229D01*
X0111458Y0053224D01*
X0111505Y0053215D01*
X0111552Y0053202D01*
X0111597Y0053186D01*
X0111641Y0053167D01*
X0111684Y0053145D01*
X0111725Y0053119D01*
X0111764Y0053090D01*
X0111800Y0053059D01*
X0111834Y0053025D01*
X0111865Y0052989D01*
X0111894Y0052950D01*
X0111920Y0052909D01*
X0111942Y0052866D01*
X0111961Y0052822D01*
X0111977Y0052777D01*
X0111990Y0052730D01*
X0111999Y0052683D01*
X0112004Y0052635D01*
X0112006Y0052587D01*
X0112006Y0052265D01*
X0112004Y0052217D01*
X0111999Y0052169D01*
X0111990Y0052122D01*
X0111977Y0052075D01*
X0111961Y0052030D01*
X0111942Y0051986D01*
X0111920Y0051943D01*
X0111894Y0051902D01*
X0111865Y0051863D01*
X0111834Y0051827D01*
X0111800Y0051793D01*
X0111764Y0051762D01*
X0111725Y0051733D01*
X0111684Y0051707D01*
X0111641Y0051685D01*
X0111597Y0051666D01*
X0111552Y0051650D01*
X0111505Y0051637D01*
X0111458Y0051628D01*
X0111410Y0051623D01*
X0111362Y0051621D01*
X0111362Y0051620D02*
X0110395Y0051620D01*
X0109535Y0051620D02*
X0108891Y0052265D01*
X0109213Y0052426D02*
X0109213Y0053715D01*
X0109211Y0053770D01*
X0109205Y0053825D01*
X0109196Y0053879D01*
X0109183Y0053932D01*
X0109166Y0053985D01*
X0109146Y0054036D01*
X0109123Y0054086D01*
X0109096Y0054134D01*
X0109065Y0054180D01*
X0109032Y0054224D01*
X0108996Y0054265D01*
X0108957Y0054304D01*
X0108916Y0054340D01*
X0108872Y0054373D01*
X0108826Y0054404D01*
X0108778Y0054431D01*
X0108728Y0054454D01*
X0108677Y0054474D01*
X0108624Y0054491D01*
X0108571Y0054504D01*
X0108517Y0054513D01*
X0108462Y0054519D01*
X0108407Y0054521D01*
X0108352Y0054519D01*
X0108297Y0054513D01*
X0108243Y0054504D01*
X0108190Y0054491D01*
X0108137Y0054474D01*
X0108086Y0054454D01*
X0108036Y0054431D01*
X0107988Y0054404D01*
X0107942Y0054373D01*
X0107898Y0054340D01*
X0107857Y0054304D01*
X0107818Y0054265D01*
X0107782Y0054224D01*
X0107749Y0054180D01*
X0107718Y0054134D01*
X0107691Y0054086D01*
X0107668Y0054036D01*
X0107648Y0053985D01*
X0107631Y0053932D01*
X0107618Y0053879D01*
X0107609Y0053825D01*
X0107603Y0053770D01*
X0107601Y0053715D01*
X0107602Y0053715D02*
X0107602Y0052426D01*
X0107601Y0052426D02*
X0107603Y0052371D01*
X0107609Y0052316D01*
X0107618Y0052262D01*
X0107631Y0052209D01*
X0107648Y0052156D01*
X0107668Y0052105D01*
X0107691Y0052055D01*
X0107718Y0052007D01*
X0107749Y0051961D01*
X0107782Y0051917D01*
X0107818Y0051876D01*
X0107857Y0051837D01*
X0107898Y0051801D01*
X0107942Y0051768D01*
X0107988Y0051737D01*
X0108036Y0051710D01*
X0108086Y0051687D01*
X0108137Y0051667D01*
X0108190Y0051650D01*
X0108243Y0051637D01*
X0108297Y0051628D01*
X0108352Y0051622D01*
X0108407Y0051620D01*
X0108462Y0051622D01*
X0108517Y0051628D01*
X0108571Y0051637D01*
X0108624Y0051650D01*
X0108677Y0051667D01*
X0108728Y0051687D01*
X0108778Y0051710D01*
X0108826Y0051737D01*
X0108872Y0051768D01*
X0108916Y0051801D01*
X0108957Y0051837D01*
X0108996Y0051876D01*
X0109032Y0051917D01*
X0109065Y0051961D01*
X0109096Y0052007D01*
X0109123Y0052055D01*
X0109146Y0052105D01*
X0109166Y0052156D01*
X0109183Y0052209D01*
X0109196Y0052262D01*
X0109205Y0052316D01*
X0109211Y0052371D01*
X0109213Y0052426D01*
X0105487Y0051620D02*
X0105542Y0051622D01*
X0105597Y0051628D01*
X0105651Y0051637D01*
X0105704Y0051650D01*
X0105757Y0051667D01*
X0105808Y0051687D01*
X0105858Y0051710D01*
X0105906Y0051737D01*
X0105952Y0051768D01*
X0105996Y0051801D01*
X0106037Y0051837D01*
X0106076Y0051876D01*
X0106112Y0051917D01*
X0106145Y0051961D01*
X0106176Y0052007D01*
X0106203Y0052055D01*
X0106226Y0052105D01*
X0106246Y0052156D01*
X0106263Y0052209D01*
X0106276Y0052262D01*
X0106285Y0052316D01*
X0106291Y0052371D01*
X0106293Y0052426D01*
X0106291Y0052481D01*
X0106285Y0052536D01*
X0106276Y0052590D01*
X0106263Y0052643D01*
X0106246Y0052696D01*
X0106226Y0052747D01*
X0106203Y0052797D01*
X0106176Y0052845D01*
X0106145Y0052891D01*
X0106112Y0052935D01*
X0106076Y0052976D01*
X0106037Y0053015D01*
X0105996Y0053051D01*
X0105952Y0053084D01*
X0105906Y0053115D01*
X0105858Y0053142D01*
X0105808Y0053165D01*
X0105757Y0053185D01*
X0105704Y0053202D01*
X0105651Y0053215D01*
X0105597Y0053224D01*
X0105542Y0053230D01*
X0105487Y0053232D01*
X0105487Y0053231D02*
X0104681Y0053231D01*
X0105487Y0053232D02*
X0105536Y0053234D01*
X0105585Y0053240D01*
X0105634Y0053249D01*
X0105681Y0053262D01*
X0105728Y0053279D01*
X0105773Y0053299D01*
X0105816Y0053322D01*
X0105858Y0053349D01*
X0105897Y0053379D01*
X0105934Y0053412D01*
X0105968Y0053448D01*
X0105999Y0053486D01*
X0106028Y0053526D01*
X0106053Y0053568D01*
X0106075Y0053613D01*
X0106093Y0053658D01*
X0106108Y0053705D01*
X0106119Y0053753D01*
X0106127Y0053802D01*
X0106131Y0053851D01*
X0106131Y0053901D01*
X0106127Y0053950D01*
X0106119Y0053999D01*
X0106108Y0054047D01*
X0106093Y0054094D01*
X0106075Y0054139D01*
X0106053Y0054184D01*
X0106028Y0054226D01*
X0105999Y0054266D01*
X0105968Y0054304D01*
X0105934Y0054340D01*
X0105897Y0054373D01*
X0105858Y0054403D01*
X0105816Y0054430D01*
X0105773Y0054453D01*
X0105728Y0054473D01*
X0105681Y0054490D01*
X0105634Y0054503D01*
X0105585Y0054512D01*
X0105536Y0054518D01*
X0105487Y0054520D01*
X0104681Y0054520D01*
X0104681Y0051620D01*
X0105487Y0051620D01*
D18*
X0111969Y0083387D02*
X0111971Y0083426D01*
X0111977Y0083465D01*
X0111987Y0083503D01*
X0112000Y0083540D01*
X0112017Y0083575D01*
X0112037Y0083609D01*
X0112061Y0083640D01*
X0112088Y0083669D01*
X0112117Y0083695D01*
X0112149Y0083718D01*
X0112183Y0083738D01*
X0112219Y0083754D01*
X0112256Y0083766D01*
X0112295Y0083775D01*
X0112334Y0083780D01*
X0112373Y0083781D01*
X0112412Y0083778D01*
X0112451Y0083771D01*
X0112488Y0083760D01*
X0112525Y0083746D01*
X0112560Y0083728D01*
X0112593Y0083707D01*
X0112624Y0083682D01*
X0112652Y0083655D01*
X0112677Y0083625D01*
X0112699Y0083592D01*
X0112718Y0083558D01*
X0112733Y0083522D01*
X0112745Y0083484D01*
X0112753Y0083446D01*
X0112757Y0083407D01*
X0112757Y0083367D01*
X0112753Y0083328D01*
X0112745Y0083290D01*
X0112733Y0083252D01*
X0112718Y0083216D01*
X0112699Y0083182D01*
X0112677Y0083149D01*
X0112652Y0083119D01*
X0112624Y0083092D01*
X0112593Y0083067D01*
X0112560Y0083046D01*
X0112525Y0083028D01*
X0112488Y0083014D01*
X0112451Y0083003D01*
X0112412Y0082996D01*
X0112373Y0082993D01*
X0112334Y0082994D01*
X0112295Y0082999D01*
X0112256Y0083008D01*
X0112219Y0083020D01*
X0112183Y0083036D01*
X0112149Y0083056D01*
X0112117Y0083079D01*
X0112088Y0083105D01*
X0112061Y0083134D01*
X0112037Y0083165D01*
X0112017Y0083199D01*
X0112000Y0083234D01*
X0111987Y0083271D01*
X0111977Y0083309D01*
X0111971Y0083348D01*
X0111969Y0083387D01*
D19*
X0130128Y0068703D02*
X0130128Y0065981D01*
X0130128Y0067342D02*
X0125228Y0067342D01*
X0126317Y0065981D01*
X0125228Y0063935D02*
X0130128Y0060669D01*
X0130128Y0063935D02*
X0125228Y0060669D01*
M02*
