G04 EAGLE Gerber X2 export*
G75*
%MOMM*%
%FSLAX34Y34*%
%LPD*%
%AMOC8*
5,1,8,0,0,1.08239X$1,22.5*%
G01*
%ADD10C,1.508000*%
%ADD11C,0.654800*%
%ADD12C,0.203200*%
%ADD13C,0.406400*%

G36*
X247645Y2555D02*
X247645Y2555D01*
X247736Y2563D01*
X247765Y2575D01*
X247797Y2580D01*
X247878Y2623D01*
X247962Y2659D01*
X247994Y2685D01*
X248015Y2696D01*
X248037Y2719D01*
X248093Y2764D01*
X267425Y22096D01*
X267467Y22154D01*
X267516Y22206D01*
X267538Y22253D01*
X267569Y22295D01*
X267590Y22364D01*
X267620Y22429D01*
X267626Y22481D01*
X267641Y22531D01*
X267639Y22602D01*
X267647Y22673D01*
X267636Y22724D01*
X267635Y22776D01*
X267610Y22844D01*
X267595Y22914D01*
X267568Y22959D01*
X267550Y23007D01*
X267505Y23063D01*
X267468Y23125D01*
X267429Y23159D01*
X267396Y23199D01*
X267336Y23238D01*
X267282Y23285D01*
X267233Y23304D01*
X267189Y23332D01*
X267120Y23350D01*
X267053Y23377D01*
X266982Y23385D01*
X266951Y23393D01*
X266928Y23391D01*
X266887Y23395D01*
X265497Y23395D01*
X262165Y24775D01*
X259615Y27325D01*
X258235Y30657D01*
X258235Y49343D01*
X259615Y52675D01*
X262165Y55225D01*
X264024Y55995D01*
X264107Y56046D01*
X264193Y56092D01*
X264211Y56110D01*
X264233Y56124D01*
X264296Y56200D01*
X264362Y56270D01*
X264373Y56294D01*
X264390Y56314D01*
X264425Y56405D01*
X264466Y56493D01*
X264469Y56519D01*
X264478Y56543D01*
X264482Y56641D01*
X264493Y56737D01*
X264488Y56763D01*
X264489Y56789D01*
X264462Y56883D01*
X264441Y56978D01*
X264427Y57000D01*
X264420Y57025D01*
X264365Y57105D01*
X264315Y57189D01*
X264295Y57206D01*
X264280Y57227D01*
X264202Y57286D01*
X264128Y57349D01*
X264103Y57359D01*
X264083Y57374D01*
X263990Y57404D01*
X263900Y57441D01*
X263867Y57444D01*
X263849Y57450D01*
X263816Y57450D01*
X263733Y57459D01*
X261368Y57459D01*
X261278Y57445D01*
X261187Y57437D01*
X261157Y57425D01*
X261125Y57420D01*
X261044Y57377D01*
X260960Y57341D01*
X260928Y57315D01*
X260908Y57304D01*
X260885Y57281D01*
X260829Y57236D01*
X221052Y17459D01*
X84561Y17459D01*
X84471Y17445D01*
X84380Y17437D01*
X84350Y17425D01*
X84318Y17420D01*
X84238Y17377D01*
X84154Y17341D01*
X84122Y17315D01*
X84101Y17304D01*
X84079Y17281D01*
X84023Y17236D01*
X81988Y15201D01*
X78012Y15201D01*
X75201Y18012D01*
X75201Y21988D01*
X78012Y24799D01*
X81988Y24799D01*
X84023Y22764D01*
X84097Y22711D01*
X84166Y22651D01*
X84196Y22639D01*
X84222Y22620D01*
X84309Y22593D01*
X84394Y22559D01*
X84435Y22555D01*
X84458Y22548D01*
X84490Y22549D01*
X84561Y22541D01*
X218632Y22541D01*
X218722Y22555D01*
X218813Y22563D01*
X218843Y22575D01*
X218875Y22580D01*
X218956Y22623D01*
X219040Y22659D01*
X219072Y22685D01*
X219092Y22696D01*
X219115Y22719D01*
X219171Y22764D01*
X230067Y33660D01*
X230108Y33718D01*
X230158Y33770D01*
X230180Y33817D01*
X230210Y33859D01*
X230231Y33928D01*
X230261Y33993D01*
X230267Y34045D01*
X230283Y34095D01*
X230281Y34166D01*
X230289Y34237D01*
X230277Y34288D01*
X230276Y34340D01*
X230252Y34408D01*
X230236Y34478D01*
X230210Y34523D01*
X230192Y34571D01*
X230147Y34627D01*
X230110Y34689D01*
X230071Y34723D01*
X230038Y34763D01*
X229978Y34802D01*
X229923Y34849D01*
X229875Y34868D01*
X229831Y34896D01*
X229762Y34914D01*
X229695Y34941D01*
X229624Y34949D01*
X229593Y34957D01*
X229569Y34955D01*
X229528Y34959D01*
X164561Y34959D01*
X164471Y34945D01*
X164380Y34937D01*
X164350Y34925D01*
X164318Y34920D01*
X164238Y34877D01*
X164154Y34841D01*
X164122Y34815D01*
X164101Y34804D01*
X164079Y34781D01*
X164023Y34736D01*
X161581Y32294D01*
X157605Y32294D01*
X154794Y35105D01*
X154794Y39081D01*
X157605Y41892D01*
X161581Y41892D01*
X163208Y40264D01*
X163282Y40211D01*
X163352Y40151D01*
X163382Y40139D01*
X163408Y40120D01*
X163495Y40093D01*
X163580Y40059D01*
X163621Y40055D01*
X163643Y40048D01*
X163675Y40049D01*
X163747Y40041D01*
X228632Y40041D01*
X228722Y40055D01*
X228813Y40063D01*
X228843Y40075D01*
X228875Y40080D01*
X228956Y40123D01*
X229040Y40159D01*
X229072Y40185D01*
X229092Y40196D01*
X229115Y40219D01*
X229171Y40264D01*
X267236Y78329D01*
X267289Y78403D01*
X267349Y78473D01*
X267361Y78503D01*
X267380Y78529D01*
X267407Y78616D01*
X267441Y78701D01*
X267445Y78742D01*
X267452Y78764D01*
X267451Y78796D01*
X267459Y78868D01*
X267459Y85439D01*
X267445Y85529D01*
X267437Y85620D01*
X267425Y85650D01*
X267420Y85682D01*
X267377Y85762D01*
X267341Y85846D01*
X267315Y85878D01*
X267304Y85899D01*
X267281Y85921D01*
X267236Y85977D01*
X265201Y88012D01*
X265201Y91988D01*
X268012Y94799D01*
X271988Y94799D01*
X274799Y91988D01*
X274799Y88012D01*
X272764Y85977D01*
X272711Y85903D01*
X272651Y85834D01*
X272639Y85804D01*
X272620Y85778D01*
X272593Y85691D01*
X272559Y85606D01*
X272555Y85565D01*
X272548Y85542D01*
X272549Y85510D01*
X272541Y85439D01*
X272541Y76448D01*
X270829Y74736D01*
X259933Y63840D01*
X259892Y63782D01*
X259842Y63730D01*
X259820Y63683D01*
X259790Y63641D01*
X259769Y63572D01*
X259739Y63507D01*
X259733Y63455D01*
X259717Y63405D01*
X259719Y63334D01*
X259711Y63263D01*
X259723Y63212D01*
X259724Y63160D01*
X259748Y63092D01*
X259764Y63022D01*
X259790Y62977D01*
X259808Y62929D01*
X259853Y62873D01*
X259890Y62811D01*
X259929Y62777D01*
X259962Y62737D01*
X260022Y62698D01*
X260077Y62651D01*
X260125Y62632D01*
X260169Y62604D01*
X260238Y62586D01*
X260305Y62559D01*
X260376Y62551D01*
X260407Y62543D01*
X260431Y62545D01*
X260472Y62541D01*
X276632Y62541D01*
X276722Y62555D01*
X276813Y62563D01*
X276843Y62575D01*
X276875Y62580D01*
X276956Y62623D01*
X277040Y62659D01*
X277072Y62685D01*
X277092Y62696D01*
X277115Y62719D01*
X277171Y62764D01*
X297978Y83571D01*
X298031Y83645D01*
X298091Y83715D01*
X298103Y83745D01*
X298122Y83771D01*
X298149Y83858D01*
X298183Y83943D01*
X298187Y83984D01*
X298194Y84006D01*
X298193Y84038D01*
X298201Y84110D01*
X298201Y86988D01*
X301012Y89799D01*
X304988Y89799D01*
X307799Y86988D01*
X307799Y83012D01*
X305764Y80977D01*
X305711Y80903D01*
X305651Y80834D01*
X305639Y80804D01*
X305620Y80778D01*
X305593Y80691D01*
X305559Y80606D01*
X305555Y80565D01*
X305548Y80542D01*
X305549Y80510D01*
X305541Y80439D01*
X305541Y18368D01*
X305555Y18278D01*
X305563Y18187D01*
X305575Y18157D01*
X305580Y18125D01*
X305623Y18044D01*
X305659Y17960D01*
X305685Y17928D01*
X305696Y17908D01*
X305719Y17885D01*
X305764Y17829D01*
X310829Y12764D01*
X310903Y12711D01*
X310973Y12651D01*
X311003Y12639D01*
X311029Y12620D01*
X311116Y12593D01*
X311201Y12559D01*
X311242Y12555D01*
X311264Y12548D01*
X311296Y12549D01*
X311368Y12541D01*
X377698Y12541D01*
X377718Y12544D01*
X377737Y12542D01*
X377839Y12564D01*
X377941Y12580D01*
X377958Y12590D01*
X377978Y12594D01*
X378067Y12647D01*
X378158Y12696D01*
X378172Y12710D01*
X378189Y12720D01*
X378256Y12799D01*
X378328Y12874D01*
X378336Y12892D01*
X378349Y12907D01*
X378388Y13003D01*
X378431Y13097D01*
X378433Y13117D01*
X378441Y13135D01*
X378459Y13302D01*
X378459Y19835D01*
X378448Y19906D01*
X378446Y19977D01*
X378428Y20026D01*
X378420Y20078D01*
X378386Y20141D01*
X378361Y20209D01*
X378329Y20249D01*
X378304Y20295D01*
X378253Y20344D01*
X378208Y20401D01*
X378164Y20429D01*
X378126Y20465D01*
X378061Y20495D01*
X378001Y20534D01*
X377950Y20546D01*
X377903Y20568D01*
X377832Y20576D01*
X377762Y20594D01*
X377710Y20590D01*
X377659Y20595D01*
X377588Y20580D01*
X377517Y20574D01*
X377469Y20554D01*
X377418Y20543D01*
X377357Y20506D01*
X377291Y20478D01*
X377235Y20433D01*
X377207Y20417D01*
X377192Y20399D01*
X377160Y20373D01*
X376988Y20201D01*
X373012Y20201D01*
X370201Y23012D01*
X370201Y26988D01*
X372236Y29023D01*
X372289Y29097D01*
X372349Y29166D01*
X372361Y29196D01*
X372380Y29222D01*
X372407Y29309D01*
X372441Y29394D01*
X372445Y29435D01*
X372452Y29458D01*
X372451Y29490D01*
X372459Y29561D01*
X372459Y46382D01*
X394978Y68901D01*
X395031Y68975D01*
X395091Y69045D01*
X395103Y69075D01*
X395122Y69101D01*
X395149Y69188D01*
X395183Y69273D01*
X395187Y69314D01*
X395194Y69336D01*
X395193Y69368D01*
X395201Y69440D01*
X395201Y72318D01*
X398012Y75129D01*
X401988Y75129D01*
X404799Y72318D01*
X404799Y68342D01*
X401988Y65531D01*
X399110Y65531D01*
X399020Y65517D01*
X398929Y65509D01*
X398899Y65497D01*
X398867Y65492D01*
X398786Y65449D01*
X398702Y65413D01*
X398670Y65387D01*
X398650Y65376D01*
X398627Y65353D01*
X398571Y65308D01*
X377764Y44501D01*
X377711Y44427D01*
X377651Y44357D01*
X377639Y44327D01*
X377620Y44301D01*
X377593Y44214D01*
X377559Y44129D01*
X377555Y44088D01*
X377548Y44066D01*
X377549Y44034D01*
X377541Y43962D01*
X377541Y29561D01*
X377555Y29471D01*
X377563Y29380D01*
X377575Y29350D01*
X377580Y29318D01*
X377623Y29238D01*
X377659Y29154D01*
X377685Y29122D01*
X377696Y29101D01*
X377719Y29079D01*
X377764Y29023D01*
X378558Y28228D01*
X378575Y28216D01*
X378587Y28201D01*
X378674Y28145D01*
X378758Y28085D01*
X378777Y28079D01*
X378794Y28068D01*
X378894Y28043D01*
X378993Y28012D01*
X379013Y28013D01*
X379032Y28008D01*
X379135Y28016D01*
X379239Y28019D01*
X379258Y28025D01*
X379278Y28027D01*
X379373Y28067D01*
X379470Y28103D01*
X379486Y28115D01*
X379504Y28123D01*
X379635Y28228D01*
X379978Y28571D01*
X380031Y28645D01*
X380091Y28715D01*
X380103Y28745D01*
X380122Y28771D01*
X380149Y28858D01*
X380183Y28943D01*
X380187Y28984D01*
X380194Y29006D01*
X380193Y29038D01*
X380201Y29110D01*
X380201Y31988D01*
X383012Y34799D01*
X386988Y34799D01*
X389799Y31988D01*
X389799Y28012D01*
X386988Y25201D01*
X384302Y25201D01*
X384282Y25198D01*
X384263Y25200D01*
X384161Y25178D01*
X384059Y25162D01*
X384042Y25152D01*
X384022Y25148D01*
X383933Y25095D01*
X383842Y25046D01*
X383828Y25032D01*
X383811Y25022D01*
X383744Y24943D01*
X383672Y24868D01*
X383664Y24850D01*
X383651Y24835D01*
X383612Y24739D01*
X383569Y24645D01*
X383567Y24625D01*
X383559Y24607D01*
X383541Y24440D01*
X383541Y9948D01*
X381052Y7459D01*
X309049Y7459D01*
X308979Y7448D01*
X308907Y7446D01*
X308858Y7428D01*
X308807Y7420D01*
X308743Y7386D01*
X308676Y7361D01*
X308635Y7329D01*
X308589Y7304D01*
X308540Y7252D01*
X308484Y7208D01*
X308456Y7164D01*
X308420Y7126D01*
X308390Y7061D01*
X308351Y7001D01*
X308338Y6950D01*
X308316Y6903D01*
X308308Y6832D01*
X308291Y6762D01*
X308295Y6710D01*
X308289Y6659D01*
X308304Y6588D01*
X308310Y6517D01*
X308330Y6469D01*
X308341Y6418D01*
X308378Y6357D01*
X308406Y6291D01*
X308451Y6235D01*
X308468Y6207D01*
X308485Y6192D01*
X308511Y6160D01*
X311907Y2764D01*
X311981Y2711D01*
X312050Y2651D01*
X312081Y2639D01*
X312107Y2620D01*
X312194Y2593D01*
X312279Y2559D01*
X312320Y2555D01*
X312342Y2548D01*
X312374Y2549D01*
X312445Y2541D01*
X437914Y2541D01*
X438004Y2555D01*
X438095Y2563D01*
X438125Y2575D01*
X438157Y2580D01*
X438237Y2623D01*
X438321Y2659D01*
X438353Y2685D01*
X438374Y2696D01*
X438396Y2719D01*
X438452Y2764D01*
X457236Y21548D01*
X457289Y21622D01*
X457349Y21691D01*
X457361Y21721D01*
X457380Y21748D01*
X457407Y21835D01*
X457441Y21919D01*
X457445Y21960D01*
X457452Y21983D01*
X457451Y22015D01*
X457459Y22086D01*
X457459Y99238D01*
X457457Y99250D01*
X457458Y99259D01*
X457457Y99265D01*
X457458Y99277D01*
X457436Y99379D01*
X457420Y99481D01*
X457410Y99498D01*
X457406Y99518D01*
X457353Y99607D01*
X457304Y99698D01*
X457290Y99712D01*
X457280Y99729D01*
X457201Y99796D01*
X457126Y99868D01*
X457108Y99876D01*
X457093Y99889D01*
X456997Y99928D01*
X456903Y99971D01*
X456883Y99973D01*
X456865Y99981D01*
X456698Y99999D01*
X390000Y99999D01*
X389999Y100000D01*
X389999Y260000D01*
X390000Y260001D01*
X456698Y260001D01*
X456718Y260004D01*
X456737Y260002D01*
X456839Y260024D01*
X456941Y260040D01*
X456958Y260050D01*
X456978Y260054D01*
X457067Y260107D01*
X457158Y260156D01*
X457172Y260170D01*
X457189Y260180D01*
X457256Y260259D01*
X457328Y260334D01*
X457336Y260352D01*
X457349Y260367D01*
X457388Y260463D01*
X457431Y260557D01*
X457433Y260577D01*
X457441Y260595D01*
X457459Y260762D01*
X457459Y337914D01*
X457445Y338004D01*
X457437Y338095D01*
X457425Y338125D01*
X457420Y338157D01*
X457377Y338237D01*
X457341Y338321D01*
X457315Y338353D01*
X457304Y338374D01*
X457281Y338396D01*
X457236Y338452D01*
X438452Y357236D01*
X438378Y357289D01*
X438309Y357349D01*
X438279Y357361D01*
X438252Y357380D01*
X438165Y357407D01*
X438081Y357441D01*
X438040Y357445D01*
X438017Y357452D01*
X437985Y357451D01*
X437914Y357459D01*
X312445Y357459D01*
X312355Y357445D01*
X312264Y357437D01*
X312235Y357425D01*
X312203Y357420D01*
X312122Y357377D01*
X312038Y357341D01*
X312006Y357315D01*
X311985Y357304D01*
X311963Y357281D01*
X311907Y357236D01*
X293512Y338842D01*
X293505Y338832D01*
X293496Y338825D01*
X293433Y338732D01*
X293369Y338642D01*
X293365Y338630D01*
X293359Y338620D01*
X293329Y338513D01*
X293296Y338407D01*
X293297Y338395D01*
X293294Y338383D01*
X293300Y338272D01*
X293303Y338161D01*
X293307Y338150D01*
X293308Y338138D01*
X293349Y338034D01*
X293387Y337930D01*
X293395Y337920D01*
X293399Y337909D01*
X293471Y337825D01*
X293541Y337738D01*
X293551Y337731D01*
X293559Y337722D01*
X293654Y337665D01*
X293748Y337605D01*
X293759Y337602D01*
X293770Y337596D01*
X293931Y337551D01*
X295061Y337373D01*
X296570Y336882D01*
X297983Y336162D01*
X299267Y335229D01*
X300389Y334107D01*
X301322Y332823D01*
X302042Y331410D01*
X302533Y329901D01*
X302781Y328333D01*
X302781Y328212D01*
X302792Y328141D01*
X302794Y328069D01*
X302812Y328020D01*
X302820Y327969D01*
X302854Y327906D01*
X302879Y327838D01*
X302911Y327798D01*
X302936Y327752D01*
X302988Y327702D01*
X303032Y327646D01*
X303076Y327618D01*
X303114Y327582D01*
X303179Y327552D01*
X303239Y327513D01*
X303290Y327500D01*
X303337Y327479D01*
X303408Y327471D01*
X303478Y327453D01*
X303530Y327457D01*
X303581Y327451D01*
X303652Y327467D01*
X303723Y327472D01*
X303771Y327493D01*
X303822Y327504D01*
X303883Y327541D01*
X303949Y327569D01*
X304005Y327613D01*
X304033Y327630D01*
X304048Y327648D01*
X304080Y327673D01*
X307236Y330829D01*
X308948Y332541D01*
X315439Y332541D01*
X315529Y332555D01*
X315620Y332563D01*
X315650Y332575D01*
X315682Y332580D01*
X315762Y332623D01*
X315846Y332659D01*
X315878Y332685D01*
X315899Y332696D01*
X315921Y332719D01*
X315977Y332764D01*
X318012Y334799D01*
X321988Y334799D01*
X324799Y331988D01*
X324799Y328012D01*
X321988Y325201D01*
X318012Y325201D01*
X315977Y327236D01*
X315903Y327289D01*
X315834Y327349D01*
X315804Y327361D01*
X315778Y327380D01*
X315691Y327407D01*
X315606Y327441D01*
X315565Y327445D01*
X315542Y327452D01*
X315510Y327451D01*
X315439Y327459D01*
X311368Y327459D01*
X311278Y327445D01*
X311187Y327437D01*
X311157Y327425D01*
X311125Y327420D01*
X311044Y327377D01*
X310960Y327341D01*
X310928Y327315D01*
X310908Y327304D01*
X310885Y327281D01*
X310829Y327236D01*
X305544Y321951D01*
X305491Y321877D01*
X305431Y321807D01*
X305419Y321777D01*
X305400Y321751D01*
X305373Y321664D01*
X305339Y321579D01*
X305335Y321538D01*
X305328Y321516D01*
X305329Y321484D01*
X305321Y321412D01*
X305321Y307232D01*
X295548Y297459D01*
X281368Y297459D01*
X281278Y297445D01*
X281187Y297437D01*
X281157Y297425D01*
X281125Y297420D01*
X281044Y297377D01*
X280960Y297341D01*
X280928Y297315D01*
X280908Y297304D01*
X280885Y297281D01*
X280829Y297236D01*
X272764Y289171D01*
X272711Y289097D01*
X272651Y289027D01*
X272639Y288997D01*
X272620Y288971D01*
X272593Y288884D01*
X272559Y288799D01*
X272555Y288758D01*
X272548Y288736D01*
X272549Y288704D01*
X272541Y288632D01*
X272541Y281368D01*
X272555Y281278D01*
X272563Y281187D01*
X272575Y281157D01*
X272580Y281125D01*
X272623Y281045D01*
X272659Y280960D01*
X272685Y280928D01*
X272696Y280908D01*
X272719Y280885D01*
X272764Y280829D01*
X273902Y279691D01*
X273960Y279650D01*
X274012Y279600D01*
X274059Y279578D01*
X274101Y279548D01*
X274170Y279527D01*
X274235Y279497D01*
X274287Y279491D01*
X274337Y279475D01*
X274408Y279477D01*
X274479Y279469D01*
X274530Y279481D01*
X274582Y279482D01*
X274650Y279506D01*
X274720Y279522D01*
X274765Y279548D01*
X274813Y279566D01*
X274869Y279611D01*
X274931Y279648D01*
X274965Y279687D01*
X275005Y279720D01*
X275044Y279780D01*
X275091Y279835D01*
X275110Y279883D01*
X275138Y279927D01*
X275156Y279996D01*
X275183Y280063D01*
X275191Y280134D01*
X275199Y280165D01*
X275197Y280189D01*
X275201Y280230D01*
X275201Y281988D01*
X278012Y284799D01*
X281988Y284799D01*
X284023Y282764D01*
X284097Y282711D01*
X284166Y282651D01*
X284196Y282639D01*
X284222Y282620D01*
X284309Y282593D01*
X284394Y282559D01*
X284435Y282555D01*
X284458Y282548D01*
X284490Y282549D01*
X284561Y282541D01*
X289552Y282541D01*
X290829Y281264D01*
X290903Y281211D01*
X290973Y281151D01*
X291003Y281139D01*
X291029Y281120D01*
X291116Y281093D01*
X291201Y281059D01*
X291242Y281055D01*
X291264Y281048D01*
X291296Y281049D01*
X291368Y281041D01*
X304330Y281041D01*
X318421Y266950D01*
X318495Y266897D01*
X318565Y266837D01*
X318595Y266825D01*
X318621Y266806D01*
X318708Y266779D01*
X318793Y266745D01*
X318834Y266741D01*
X318856Y266734D01*
X318888Y266735D01*
X318959Y266727D01*
X334866Y266727D01*
X343829Y257764D01*
X343903Y257711D01*
X343973Y257651D01*
X344003Y257639D01*
X344029Y257620D01*
X344116Y257593D01*
X344201Y257559D01*
X344242Y257555D01*
X344264Y257548D01*
X344296Y257549D01*
X344368Y257541D01*
X350439Y257541D01*
X350529Y257555D01*
X350620Y257563D01*
X350650Y257575D01*
X350682Y257580D01*
X350762Y257623D01*
X350846Y257659D01*
X350878Y257685D01*
X350899Y257696D01*
X350916Y257713D01*
X350918Y257714D01*
X350925Y257722D01*
X350977Y257764D01*
X353012Y259799D01*
X356988Y259799D01*
X359799Y256988D01*
X359799Y253012D01*
X356988Y250201D01*
X353012Y250201D01*
X350977Y252236D01*
X350903Y252289D01*
X350834Y252349D01*
X350804Y252361D01*
X350778Y252380D01*
X350691Y252407D01*
X350606Y252441D01*
X350565Y252445D01*
X350542Y252452D01*
X350510Y252451D01*
X350439Y252459D01*
X341948Y252459D01*
X340987Y253420D01*
X340929Y253462D01*
X340877Y253511D01*
X340830Y253533D01*
X340787Y253563D01*
X340719Y253584D01*
X340654Y253615D01*
X340602Y253620D01*
X340552Y253636D01*
X340481Y253634D01*
X340409Y253642D01*
X340359Y253631D01*
X340306Y253629D01*
X340239Y253605D01*
X340169Y253589D01*
X340124Y253563D01*
X340075Y253545D01*
X340019Y253500D01*
X339958Y253463D01*
X339924Y253424D01*
X339883Y253391D01*
X339845Y253331D01*
X339798Y253276D01*
X339779Y253228D01*
X339750Y253184D01*
X339733Y253115D01*
X339706Y253048D01*
X339698Y252977D01*
X339690Y252946D01*
X339692Y252922D01*
X339690Y252904D01*
X338764Y251977D01*
X338717Y251912D01*
X338703Y251898D01*
X338700Y251891D01*
X338651Y251834D01*
X338639Y251804D01*
X338620Y251778D01*
X338593Y251691D01*
X338559Y251606D01*
X338555Y251565D01*
X338548Y251542D01*
X338549Y251510D01*
X338541Y251439D01*
X338541Y212948D01*
X333052Y207459D01*
X181368Y207459D01*
X181278Y207445D01*
X181187Y207437D01*
X181157Y207425D01*
X181125Y207420D01*
X181044Y207377D01*
X180960Y207341D01*
X180928Y207315D01*
X180908Y207304D01*
X180885Y207281D01*
X180829Y207236D01*
X169691Y196098D01*
X169650Y196040D01*
X169600Y195988D01*
X169578Y195941D01*
X169548Y195899D01*
X169527Y195830D01*
X169497Y195765D01*
X169491Y195713D01*
X169475Y195663D01*
X169477Y195592D01*
X169469Y195521D01*
X169481Y195470D01*
X169482Y195418D01*
X169506Y195350D01*
X169522Y195280D01*
X169548Y195235D01*
X169566Y195187D01*
X169611Y195131D01*
X169648Y195069D01*
X169687Y195035D01*
X169720Y194995D01*
X169780Y194956D01*
X169835Y194909D01*
X169883Y194890D01*
X169927Y194862D01*
X169996Y194844D01*
X170063Y194817D01*
X170134Y194809D01*
X170165Y194801D01*
X170189Y194803D01*
X170230Y194799D01*
X171988Y194799D01*
X174799Y191988D01*
X174799Y189110D01*
X174813Y189020D01*
X174821Y188929D01*
X174833Y188899D01*
X174838Y188867D01*
X174881Y188786D01*
X174917Y188702D01*
X174943Y188670D01*
X174954Y188650D01*
X174977Y188627D01*
X175022Y188571D01*
X180829Y182764D01*
X180903Y182711D01*
X180973Y182651D01*
X181003Y182639D01*
X181029Y182620D01*
X181116Y182593D01*
X181201Y182559D01*
X181242Y182555D01*
X181264Y182548D01*
X181296Y182549D01*
X181368Y182541D01*
X325439Y182541D01*
X325529Y182555D01*
X325620Y182563D01*
X325650Y182575D01*
X325682Y182580D01*
X325762Y182623D01*
X325846Y182659D01*
X325878Y182685D01*
X325899Y182696D01*
X325921Y182719D01*
X325977Y182764D01*
X328012Y184799D01*
X331988Y184799D01*
X334799Y181988D01*
X334799Y178012D01*
X331988Y175201D01*
X328012Y175201D01*
X325977Y177236D01*
X325903Y177289D01*
X325834Y177349D01*
X325804Y177361D01*
X325778Y177380D01*
X325691Y177407D01*
X325606Y177441D01*
X325565Y177445D01*
X325542Y177452D01*
X325510Y177451D01*
X325439Y177459D01*
X178948Y177459D01*
X171429Y184978D01*
X171355Y185031D01*
X171285Y185091D01*
X171255Y185103D01*
X171229Y185122D01*
X171142Y185149D01*
X171057Y185183D01*
X171016Y185187D01*
X170994Y185194D01*
X170962Y185193D01*
X170890Y185201D01*
X168012Y185201D01*
X165201Y188012D01*
X165201Y189770D01*
X165190Y189841D01*
X165188Y189913D01*
X165170Y189962D01*
X165162Y190013D01*
X165128Y190076D01*
X165103Y190144D01*
X165071Y190184D01*
X165046Y190230D01*
X164994Y190280D01*
X164950Y190336D01*
X164906Y190364D01*
X164868Y190400D01*
X164803Y190430D01*
X164743Y190469D01*
X164692Y190482D01*
X164645Y190503D01*
X164574Y190511D01*
X164504Y190529D01*
X164452Y190525D01*
X164401Y190531D01*
X164330Y190515D01*
X164259Y190510D01*
X164211Y190489D01*
X164160Y190478D01*
X164099Y190441D01*
X164033Y190413D01*
X163977Y190369D01*
X163949Y190352D01*
X163934Y190334D01*
X163902Y190309D01*
X132764Y159171D01*
X131052Y157459D01*
X114561Y157459D01*
X114471Y157445D01*
X114380Y157437D01*
X114350Y157425D01*
X114318Y157420D01*
X114238Y157377D01*
X114154Y157341D01*
X114122Y157315D01*
X114101Y157304D01*
X114079Y157281D01*
X114023Y157236D01*
X111988Y155201D01*
X108012Y155201D01*
X105201Y158012D01*
X105201Y161988D01*
X108012Y164799D01*
X111988Y164799D01*
X114023Y162764D01*
X114097Y162711D01*
X114166Y162651D01*
X114196Y162639D01*
X114222Y162620D01*
X114309Y162593D01*
X114394Y162559D01*
X114435Y162555D01*
X114458Y162548D01*
X114490Y162549D01*
X114561Y162541D01*
X128632Y162541D01*
X128722Y162555D01*
X128813Y162563D01*
X128843Y162575D01*
X128875Y162580D01*
X128956Y162623D01*
X129040Y162659D01*
X129072Y162685D01*
X129092Y162696D01*
X129115Y162719D01*
X129171Y162764D01*
X142567Y176160D01*
X142608Y176218D01*
X142658Y176270D01*
X142680Y176317D01*
X142710Y176359D01*
X142731Y176428D01*
X142761Y176493D01*
X142767Y176545D01*
X142783Y176595D01*
X142781Y176666D01*
X142789Y176737D01*
X142777Y176788D01*
X142776Y176840D01*
X142752Y176908D01*
X142736Y176978D01*
X142710Y177023D01*
X142692Y177071D01*
X142647Y177127D01*
X142610Y177189D01*
X142571Y177223D01*
X142538Y177263D01*
X142478Y177302D01*
X142423Y177349D01*
X142375Y177368D01*
X142331Y177396D01*
X142262Y177414D01*
X142195Y177441D01*
X142124Y177449D01*
X142093Y177457D01*
X142069Y177455D01*
X142028Y177459D01*
X81368Y177459D01*
X81278Y177445D01*
X81187Y177437D01*
X81157Y177425D01*
X81125Y177420D01*
X81044Y177377D01*
X80960Y177341D01*
X80928Y177315D01*
X80908Y177304D01*
X80885Y177281D01*
X80829Y177236D01*
X22764Y119171D01*
X22711Y119097D01*
X22651Y119027D01*
X22639Y118997D01*
X22620Y118971D01*
X22593Y118884D01*
X22559Y118799D01*
X22555Y118758D01*
X22548Y118736D01*
X22549Y118704D01*
X22541Y118632D01*
X22541Y84561D01*
X22555Y84471D01*
X22563Y84380D01*
X22575Y84350D01*
X22580Y84318D01*
X22623Y84238D01*
X22659Y84154D01*
X22685Y84122D01*
X22696Y84101D01*
X22719Y84079D01*
X22764Y84023D01*
X24799Y81988D01*
X24799Y78012D01*
X21988Y75201D01*
X18012Y75201D01*
X15201Y78012D01*
X15201Y81988D01*
X17236Y84023D01*
X17289Y84097D01*
X17349Y84166D01*
X17361Y84196D01*
X17380Y84222D01*
X17407Y84309D01*
X17441Y84394D01*
X17445Y84435D01*
X17452Y84458D01*
X17451Y84490D01*
X17459Y84561D01*
X17459Y121052D01*
X78948Y182541D01*
X140410Y182541D01*
X140500Y182555D01*
X140591Y182563D01*
X140621Y182575D01*
X140653Y182580D01*
X140733Y182623D01*
X140817Y182659D01*
X140849Y182685D01*
X140870Y182696D01*
X140892Y182719D01*
X140948Y182764D01*
X174281Y216097D01*
X272188Y216097D01*
X272278Y216111D01*
X272369Y216119D01*
X272399Y216131D01*
X272431Y216136D01*
X272512Y216179D01*
X272596Y216215D01*
X272628Y216241D01*
X272648Y216252D01*
X272671Y216275D01*
X272727Y216320D01*
X309978Y253571D01*
X310031Y253645D01*
X310091Y253715D01*
X310103Y253745D01*
X310122Y253771D01*
X310149Y253858D01*
X310183Y253943D01*
X310187Y253984D01*
X310194Y254006D01*
X310193Y254038D01*
X310201Y254110D01*
X310201Y256988D01*
X313012Y259799D01*
X316988Y259799D01*
X319799Y256988D01*
X319799Y253012D01*
X316988Y250201D01*
X314110Y250201D01*
X314020Y250187D01*
X313929Y250179D01*
X313899Y250167D01*
X313867Y250162D01*
X313786Y250119D01*
X313702Y250083D01*
X313670Y250057D01*
X313650Y250046D01*
X313627Y250023D01*
X313571Y249978D01*
X277433Y213840D01*
X277392Y213782D01*
X277342Y213730D01*
X277320Y213683D01*
X277290Y213641D01*
X277269Y213572D01*
X277239Y213507D01*
X277233Y213455D01*
X277217Y213405D01*
X277219Y213334D01*
X277211Y213263D01*
X277223Y213212D01*
X277224Y213160D01*
X277248Y213092D01*
X277264Y213022D01*
X277290Y212977D01*
X277308Y212929D01*
X277353Y212873D01*
X277390Y212811D01*
X277429Y212777D01*
X277462Y212737D01*
X277522Y212698D01*
X277577Y212651D01*
X277625Y212632D01*
X277669Y212604D01*
X277738Y212586D01*
X277805Y212559D01*
X277876Y212551D01*
X277907Y212543D01*
X277931Y212545D01*
X277972Y212541D01*
X330632Y212541D01*
X330722Y212555D01*
X330813Y212563D01*
X330843Y212575D01*
X330875Y212580D01*
X330956Y212623D01*
X331040Y212659D01*
X331072Y212685D01*
X331092Y212696D01*
X331115Y212719D01*
X331171Y212764D01*
X333236Y214829D01*
X333289Y214903D01*
X333349Y214973D01*
X333361Y215003D01*
X333380Y215029D01*
X333407Y215116D01*
X333441Y215201D01*
X333445Y215242D01*
X333452Y215264D01*
X333451Y215296D01*
X333459Y215368D01*
X333459Y249329D01*
X333456Y249349D01*
X333458Y249368D01*
X333436Y249470D01*
X333420Y249572D01*
X333410Y249589D01*
X333406Y249609D01*
X333353Y249698D01*
X333304Y249789D01*
X333290Y249803D01*
X333280Y249820D01*
X333201Y249887D01*
X333126Y249958D01*
X333108Y249967D01*
X333093Y249980D01*
X332997Y250019D01*
X332952Y250039D01*
X330090Y252901D01*
X330090Y256877D01*
X332905Y259691D01*
X332952Y259699D01*
X333024Y259701D01*
X333073Y259719D01*
X333124Y259727D01*
X333188Y259761D01*
X333255Y259786D01*
X333296Y259818D01*
X333342Y259842D01*
X333391Y259894D01*
X333447Y259939D01*
X333475Y259983D01*
X333511Y260021D01*
X333541Y260086D01*
X333580Y260146D01*
X333593Y260197D01*
X333615Y260244D01*
X333622Y260315D01*
X333640Y260385D01*
X333636Y260437D01*
X333642Y260488D01*
X333626Y260558D01*
X333621Y260630D01*
X333600Y260678D01*
X333589Y260729D01*
X333553Y260790D01*
X333525Y260856D01*
X333480Y260912D01*
X333463Y260940D01*
X333446Y260955D01*
X333420Y260987D01*
X332985Y261422D01*
X332910Y261476D01*
X332841Y261535D01*
X332811Y261547D01*
X332785Y261566D01*
X332698Y261593D01*
X332613Y261627D01*
X332572Y261631D01*
X332550Y261638D01*
X332518Y261637D01*
X332446Y261645D01*
X316539Y261645D01*
X302448Y275736D01*
X302374Y275789D01*
X302305Y275849D01*
X302275Y275861D01*
X302249Y275880D01*
X302162Y275907D01*
X302077Y275941D01*
X302036Y275945D01*
X302013Y275952D01*
X301981Y275951D01*
X301910Y275959D01*
X288948Y275959D01*
X287671Y277236D01*
X287597Y277289D01*
X287527Y277349D01*
X287497Y277361D01*
X287471Y277380D01*
X287384Y277407D01*
X287299Y277441D01*
X287258Y277445D01*
X287236Y277452D01*
X287204Y277451D01*
X287132Y277459D01*
X284561Y277459D01*
X284471Y277445D01*
X284380Y277437D01*
X284350Y277425D01*
X284318Y277420D01*
X284238Y277377D01*
X284154Y277341D01*
X284122Y277315D01*
X284101Y277304D01*
X284079Y277281D01*
X284023Y277236D01*
X281988Y275201D01*
X280230Y275201D01*
X280159Y275190D01*
X280087Y275188D01*
X280038Y275170D01*
X279987Y275162D01*
X279924Y275128D01*
X279856Y275103D01*
X279816Y275071D01*
X279770Y275046D01*
X279720Y274994D01*
X279664Y274950D01*
X279636Y274906D01*
X279600Y274868D01*
X279570Y274803D01*
X279531Y274743D01*
X279518Y274692D01*
X279497Y274645D01*
X279489Y274574D01*
X279471Y274504D01*
X279475Y274452D01*
X279469Y274401D01*
X279485Y274330D01*
X279490Y274259D01*
X279511Y274211D01*
X279522Y274160D01*
X279559Y274099D01*
X279587Y274033D01*
X279631Y273977D01*
X279648Y273949D01*
X279666Y273934D01*
X279691Y273902D01*
X293571Y260022D01*
X293645Y259969D01*
X293715Y259909D01*
X293745Y259897D01*
X293771Y259878D01*
X293858Y259851D01*
X293943Y259817D01*
X293984Y259813D01*
X294006Y259806D01*
X294038Y259807D01*
X294110Y259799D01*
X296988Y259799D01*
X299799Y256988D01*
X299799Y253012D01*
X296988Y250201D01*
X293012Y250201D01*
X290201Y253012D01*
X290201Y255890D01*
X290187Y255980D01*
X290179Y256071D01*
X290167Y256101D01*
X290162Y256133D01*
X290119Y256214D01*
X290083Y256298D01*
X290057Y256330D01*
X290046Y256350D01*
X290023Y256373D01*
X289978Y256429D01*
X267459Y278948D01*
X267459Y291052D01*
X278948Y302541D01*
X286859Y302541D01*
X286867Y302542D01*
X286875Y302541D01*
X286989Y302562D01*
X287102Y302580D01*
X287109Y302584D01*
X287117Y302586D01*
X287218Y302642D01*
X287320Y302696D01*
X287325Y302701D01*
X287332Y302705D01*
X287410Y302791D01*
X287489Y302874D01*
X287492Y302881D01*
X287498Y302887D01*
X287544Y302993D01*
X287593Y303097D01*
X287593Y303105D01*
X287597Y303112D01*
X287607Y303227D01*
X287620Y303341D01*
X287618Y303349D01*
X287619Y303357D01*
X287592Y303469D01*
X287567Y303582D01*
X287563Y303589D01*
X287561Y303596D01*
X287500Y303694D01*
X287441Y303793D01*
X287435Y303798D01*
X287431Y303805D01*
X287307Y303918D01*
X286133Y304771D01*
X285011Y305893D01*
X284078Y307177D01*
X283358Y308590D01*
X282867Y310099D01*
X282619Y311667D01*
X282619Y318477D01*
X291938Y318477D01*
X291958Y318480D01*
X291977Y318478D01*
X292079Y318500D01*
X292181Y318517D01*
X292198Y318526D01*
X292218Y318530D01*
X292307Y318583D01*
X292398Y318632D01*
X292412Y318646D01*
X292429Y318656D01*
X292496Y318735D01*
X292567Y318810D01*
X292576Y318828D01*
X292589Y318843D01*
X292627Y318939D01*
X292671Y319033D01*
X292673Y319053D01*
X292681Y319071D01*
X292699Y319238D01*
X292699Y320762D01*
X292697Y320774D01*
X292698Y320783D01*
X292697Y320789D01*
X292698Y320801D01*
X292676Y320903D01*
X292659Y321005D01*
X292650Y321022D01*
X292646Y321042D01*
X292593Y321131D01*
X292544Y321222D01*
X292530Y321236D01*
X292520Y321253D01*
X292441Y321320D01*
X292366Y321391D01*
X292348Y321400D01*
X292333Y321413D01*
X292237Y321452D01*
X292143Y321495D01*
X292123Y321497D01*
X292105Y321505D01*
X291938Y321523D01*
X282619Y321523D01*
X282619Y328333D01*
X282867Y329901D01*
X283358Y331410D01*
X284078Y332823D01*
X285011Y334107D01*
X286133Y335229D01*
X286258Y335320D01*
X286264Y335326D01*
X286271Y335330D01*
X286350Y335413D01*
X286431Y335495D01*
X286435Y335502D01*
X286440Y335508D01*
X286489Y335613D01*
X286539Y335716D01*
X286540Y335724D01*
X286544Y335731D01*
X286557Y335846D01*
X286572Y335960D01*
X286570Y335968D01*
X286571Y335975D01*
X286546Y336088D01*
X286524Y336201D01*
X286520Y336208D01*
X286519Y336216D01*
X286460Y336314D01*
X286403Y336415D01*
X286397Y336420D01*
X286392Y336427D01*
X286305Y336502D01*
X286219Y336578D01*
X286212Y336582D01*
X286206Y336587D01*
X286098Y336630D01*
X285993Y336675D01*
X285985Y336676D01*
X285977Y336679D01*
X285811Y336697D01*
X272707Y336697D01*
X272611Y336682D01*
X272514Y336672D01*
X272490Y336662D01*
X272464Y336658D01*
X272378Y336612D01*
X272289Y336572D01*
X272270Y336555D01*
X272247Y336542D01*
X272180Y336472D01*
X272108Y336406D01*
X272095Y336383D01*
X272077Y336364D01*
X272036Y336276D01*
X271989Y336190D01*
X271985Y336165D01*
X271974Y336141D01*
X271963Y336044D01*
X271946Y335948D01*
X271949Y335922D01*
X271947Y335897D01*
X271967Y335801D01*
X271981Y335705D01*
X271993Y335682D01*
X271999Y335656D01*
X272049Y335573D01*
X272093Y335486D01*
X272112Y335467D01*
X272125Y335445D01*
X272199Y335382D01*
X272269Y335314D01*
X272297Y335298D01*
X272312Y335285D01*
X272343Y335273D01*
X272416Y335233D01*
X272435Y335225D01*
X274985Y332675D01*
X276365Y329343D01*
X276365Y310657D01*
X274985Y307325D01*
X272435Y304775D01*
X269103Y303395D01*
X265497Y303395D01*
X262165Y304775D01*
X259615Y307325D01*
X258235Y310657D01*
X258235Y329343D01*
X259615Y332675D01*
X262165Y335225D01*
X265497Y336605D01*
X266887Y336605D01*
X266957Y336616D01*
X267029Y336618D01*
X267078Y336636D01*
X267129Y336644D01*
X267193Y336678D01*
X267260Y336703D01*
X267301Y336735D01*
X267347Y336760D01*
X267396Y336812D01*
X267452Y336856D01*
X267480Y336900D01*
X267516Y336938D01*
X267546Y337003D01*
X267585Y337063D01*
X267598Y337114D01*
X267620Y337161D01*
X267628Y337232D01*
X267645Y337302D01*
X267641Y337354D01*
X267647Y337405D01*
X267632Y337476D01*
X267626Y337547D01*
X267606Y337595D01*
X267595Y337646D01*
X267558Y337707D01*
X267530Y337773D01*
X267485Y337829D01*
X267468Y337857D01*
X267451Y337872D01*
X267425Y337904D01*
X266474Y338855D01*
X248093Y357236D01*
X248019Y357289D01*
X247950Y357349D01*
X247919Y357361D01*
X247893Y357380D01*
X247806Y357407D01*
X247721Y357441D01*
X247680Y357445D01*
X247658Y357452D01*
X247626Y357451D01*
X247555Y357459D01*
X22086Y357459D01*
X21996Y357445D01*
X21905Y357437D01*
X21875Y357425D01*
X21843Y357420D01*
X21763Y357377D01*
X21679Y357341D01*
X21647Y357315D01*
X21626Y357304D01*
X21604Y357281D01*
X21548Y357236D01*
X2764Y338452D01*
X2711Y338378D01*
X2651Y338309D01*
X2639Y338279D01*
X2620Y338252D01*
X2593Y338165D01*
X2559Y338081D01*
X2555Y338040D01*
X2548Y338017D01*
X2549Y337985D01*
X2541Y337914D01*
X2541Y212086D01*
X2555Y211996D01*
X2563Y211905D01*
X2575Y211875D01*
X2580Y211843D01*
X2623Y211763D01*
X2659Y211679D01*
X2685Y211647D01*
X2696Y211626D01*
X2719Y211604D01*
X2764Y211548D01*
X23049Y191263D01*
X23049Y168737D01*
X2764Y148452D01*
X2718Y148388D01*
X2698Y148368D01*
X2694Y148359D01*
X2651Y148309D01*
X2639Y148279D01*
X2620Y148252D01*
X2593Y148165D01*
X2559Y148081D01*
X2555Y148040D01*
X2548Y148017D01*
X2549Y147985D01*
X2541Y147914D01*
X2541Y22086D01*
X2555Y21996D01*
X2563Y21905D01*
X2575Y21875D01*
X2580Y21843D01*
X2623Y21763D01*
X2659Y21679D01*
X2685Y21647D01*
X2696Y21626D01*
X2719Y21604D01*
X2764Y21548D01*
X21548Y2764D01*
X21622Y2711D01*
X21691Y2651D01*
X21721Y2639D01*
X21748Y2620D01*
X21835Y2593D01*
X21919Y2559D01*
X21960Y2555D01*
X21983Y2548D01*
X22015Y2549D01*
X22086Y2541D01*
X247555Y2541D01*
X247645Y2555D01*
G37*
%LPC*%
G36*
X18012Y215201D02*
X18012Y215201D01*
X15201Y218012D01*
X15201Y221988D01*
X18012Y224799D01*
X19453Y224799D01*
X19544Y224813D01*
X19634Y224821D01*
X19664Y224833D01*
X19696Y224838D01*
X19777Y224881D01*
X19861Y224917D01*
X19893Y224943D01*
X19914Y224954D01*
X19936Y224977D01*
X19940Y224980D01*
X19941Y224981D01*
X19992Y225022D01*
X38527Y243557D01*
X188211Y243557D01*
X188302Y243571D01*
X188392Y243579D01*
X188422Y243591D01*
X188454Y243596D01*
X188535Y243639D01*
X188619Y243675D01*
X188651Y243701D01*
X188672Y243712D01*
X188694Y243735D01*
X188750Y243780D01*
X224978Y280008D01*
X225031Y280082D01*
X225091Y280152D01*
X225103Y280182D01*
X225122Y280208D01*
X225149Y280295D01*
X225183Y280380D01*
X225187Y280421D01*
X225194Y280443D01*
X225193Y280475D01*
X225201Y280547D01*
X225201Y281988D01*
X228012Y284799D01*
X231988Y284799D01*
X234799Y281988D01*
X234799Y278012D01*
X231988Y275201D01*
X230547Y275201D01*
X230456Y275187D01*
X230366Y275179D01*
X230336Y275167D01*
X230304Y275162D01*
X230223Y275119D01*
X230139Y275083D01*
X230107Y275057D01*
X230086Y275046D01*
X230064Y275023D01*
X230008Y274978D01*
X191473Y236443D01*
X41789Y236443D01*
X41698Y236429D01*
X41608Y236421D01*
X41578Y236409D01*
X41546Y236404D01*
X41465Y236361D01*
X41381Y236325D01*
X41349Y236299D01*
X41328Y236288D01*
X41306Y236265D01*
X41250Y236220D01*
X25022Y219992D01*
X24969Y219918D01*
X24909Y219848D01*
X24897Y219818D01*
X24878Y219792D01*
X24851Y219705D01*
X24817Y219620D01*
X24813Y219579D01*
X24806Y219557D01*
X24807Y219525D01*
X24799Y219453D01*
X24799Y218012D01*
X21988Y215201D01*
X18012Y215201D01*
G37*
%LPD*%
%LPC*%
G36*
X148012Y265201D02*
X148012Y265201D01*
X146993Y266220D01*
X146919Y266273D01*
X146850Y266333D01*
X146820Y266345D01*
X146794Y266364D01*
X146707Y266391D01*
X146622Y266425D01*
X146581Y266429D01*
X146558Y266436D01*
X146526Y266435D01*
X146455Y266443D01*
X28527Y266443D01*
X19992Y274978D01*
X19918Y275031D01*
X19848Y275091D01*
X19818Y275103D01*
X19792Y275122D01*
X19705Y275149D01*
X19620Y275183D01*
X19579Y275187D01*
X19557Y275194D01*
X19525Y275193D01*
X19453Y275201D01*
X18012Y275201D01*
X15201Y278012D01*
X15201Y281988D01*
X18012Y284799D01*
X21988Y284799D01*
X24799Y281988D01*
X24799Y280547D01*
X24813Y280456D01*
X24821Y280366D01*
X24833Y280336D01*
X24838Y280304D01*
X24881Y280223D01*
X24917Y280139D01*
X24943Y280107D01*
X24954Y280086D01*
X24977Y280064D01*
X25022Y280008D01*
X31250Y273780D01*
X31324Y273727D01*
X31394Y273667D01*
X31424Y273655D01*
X31450Y273636D01*
X31537Y273609D01*
X31622Y273575D01*
X31663Y273571D01*
X31685Y273564D01*
X31717Y273565D01*
X31789Y273557D01*
X146455Y273557D01*
X146545Y273571D01*
X146636Y273579D01*
X146666Y273591D01*
X146698Y273596D01*
X146778Y273639D01*
X146862Y273675D01*
X146894Y273701D01*
X146915Y273712D01*
X146937Y273735D01*
X146993Y273780D01*
X148012Y274799D01*
X151988Y274799D01*
X154799Y271988D01*
X154799Y268012D01*
X151988Y265201D01*
X148012Y265201D01*
G37*
%LPD*%
%LPC*%
G36*
X138012Y45201D02*
X138012Y45201D01*
X135201Y48012D01*
X135201Y51988D01*
X138012Y54799D01*
X141988Y54799D01*
X144023Y52764D01*
X144097Y52711D01*
X144166Y52651D01*
X144196Y52639D01*
X144222Y52620D01*
X144309Y52593D01*
X144394Y52559D01*
X144435Y52555D01*
X144458Y52548D01*
X144490Y52549D01*
X144561Y52541D01*
X188632Y52541D01*
X188722Y52555D01*
X188813Y52563D01*
X188843Y52575D01*
X188875Y52580D01*
X188956Y52623D01*
X189040Y52659D01*
X189072Y52685D01*
X189092Y52696D01*
X189115Y52719D01*
X189171Y52764D01*
X214066Y77659D01*
X214119Y77733D01*
X214179Y77803D01*
X214191Y77833D01*
X214210Y77859D01*
X214237Y77946D01*
X214271Y78031D01*
X214275Y78072D01*
X214282Y78094D01*
X214281Y78126D01*
X214289Y78198D01*
X214289Y88609D01*
X214275Y88699D01*
X214267Y88790D01*
X214255Y88820D01*
X214250Y88852D01*
X214207Y88932D01*
X214171Y89016D01*
X214145Y89048D01*
X214134Y89069D01*
X214111Y89091D01*
X214066Y89147D01*
X212031Y91182D01*
X212031Y95158D01*
X214842Y97969D01*
X218818Y97969D01*
X221629Y95158D01*
X221629Y91182D01*
X219594Y89147D01*
X219541Y89073D01*
X219481Y89004D01*
X219469Y88974D01*
X219450Y88948D01*
X219423Y88861D01*
X219389Y88776D01*
X219385Y88735D01*
X219378Y88712D01*
X219379Y88680D01*
X219371Y88609D01*
X219371Y75778D01*
X191052Y47459D01*
X144561Y47459D01*
X144471Y47445D01*
X144380Y47437D01*
X144350Y47425D01*
X144318Y47420D01*
X144238Y47377D01*
X144154Y47341D01*
X144122Y47315D01*
X144101Y47304D01*
X144097Y47300D01*
X144096Y47300D01*
X144078Y47280D01*
X144023Y47236D01*
X141988Y45201D01*
X138012Y45201D01*
G37*
%LPD*%
G36*
X287389Y23318D02*
X287389Y23318D01*
X287486Y23328D01*
X287510Y23338D01*
X287536Y23342D01*
X287622Y23388D01*
X287711Y23428D01*
X287730Y23445D01*
X287753Y23458D01*
X287820Y23528D01*
X287892Y23594D01*
X287905Y23617D01*
X287923Y23636D01*
X287964Y23724D01*
X288011Y23810D01*
X288015Y23835D01*
X288026Y23859D01*
X288037Y23956D01*
X288054Y24052D01*
X288051Y24078D01*
X288053Y24103D01*
X288033Y24199D01*
X288019Y24295D01*
X288007Y24318D01*
X288001Y24344D01*
X287951Y24427D01*
X287907Y24514D01*
X287888Y24533D01*
X287875Y24555D01*
X287801Y24618D01*
X287731Y24686D01*
X287703Y24702D01*
X287688Y24715D01*
X287657Y24727D01*
X287584Y24767D01*
X287565Y24775D01*
X285015Y27325D01*
X283635Y30657D01*
X283635Y49343D01*
X285015Y52675D01*
X287565Y55225D01*
X290897Y56605D01*
X294503Y56605D01*
X297835Y55225D01*
X299160Y53900D01*
X299218Y53858D01*
X299270Y53809D01*
X299317Y53787D01*
X299359Y53756D01*
X299428Y53735D01*
X299493Y53705D01*
X299545Y53699D01*
X299595Y53684D01*
X299666Y53686D01*
X299737Y53678D01*
X299788Y53689D01*
X299840Y53690D01*
X299908Y53715D01*
X299978Y53730D01*
X300023Y53757D01*
X300071Y53775D01*
X300127Y53820D01*
X300189Y53856D01*
X300223Y53896D01*
X300263Y53928D01*
X300302Y53989D01*
X300349Y54043D01*
X300368Y54091D01*
X300396Y54135D01*
X300414Y54205D01*
X300441Y54271D01*
X300449Y54343D01*
X300457Y54374D01*
X300455Y54397D01*
X300459Y54438D01*
X300459Y77028D01*
X300448Y77099D01*
X300446Y77171D01*
X300428Y77220D01*
X300420Y77271D01*
X300386Y77334D01*
X300361Y77402D01*
X300329Y77442D01*
X300304Y77488D01*
X300252Y77538D01*
X300208Y77594D01*
X300164Y77622D01*
X300126Y77658D01*
X300061Y77688D01*
X300001Y77727D01*
X299950Y77740D01*
X299903Y77761D01*
X299832Y77769D01*
X299762Y77787D01*
X299710Y77783D01*
X299659Y77789D01*
X299588Y77773D01*
X299517Y77768D01*
X299469Y77747D01*
X299418Y77736D01*
X299357Y77699D01*
X299291Y77671D01*
X299235Y77627D01*
X299207Y77610D01*
X299192Y77592D01*
X299160Y77567D01*
X280764Y59171D01*
X279052Y57459D01*
X270867Y57459D01*
X270771Y57444D01*
X270674Y57434D01*
X270650Y57424D01*
X270624Y57420D01*
X270538Y57374D01*
X270449Y57334D01*
X270430Y57317D01*
X270407Y57304D01*
X270340Y57234D01*
X270268Y57168D01*
X270256Y57145D01*
X270238Y57126D01*
X270197Y57038D01*
X270150Y56952D01*
X270145Y56927D01*
X270134Y56903D01*
X270123Y56806D01*
X270106Y56710D01*
X270110Y56684D01*
X270107Y56659D01*
X270128Y56563D01*
X270142Y56467D01*
X270154Y56444D01*
X270159Y56418D01*
X270209Y56335D01*
X270253Y56248D01*
X270272Y56229D01*
X270285Y56207D01*
X270359Y56144D01*
X270429Y56076D01*
X270457Y56060D01*
X270472Y56047D01*
X270503Y56035D01*
X270576Y55995D01*
X272435Y55225D01*
X274985Y52675D01*
X276365Y49343D01*
X276365Y30657D01*
X274985Y27325D01*
X272435Y24775D01*
X272416Y24767D01*
X272333Y24716D01*
X272247Y24670D01*
X272229Y24652D01*
X272206Y24638D01*
X272144Y24563D01*
X272077Y24492D01*
X272066Y24468D01*
X272050Y24448D01*
X272015Y24357D01*
X271974Y24269D01*
X271971Y24243D01*
X271961Y24219D01*
X271957Y24121D01*
X271947Y24025D01*
X271952Y23999D01*
X271951Y23973D01*
X271978Y23879D01*
X271999Y23784D01*
X272012Y23762D01*
X272019Y23737D01*
X272075Y23657D01*
X272125Y23573D01*
X272145Y23556D01*
X272160Y23535D01*
X272238Y23476D01*
X272312Y23413D01*
X272336Y23403D01*
X272357Y23388D01*
X272449Y23358D01*
X272540Y23321D01*
X272572Y23318D01*
X272591Y23312D01*
X272624Y23312D01*
X272707Y23303D01*
X287293Y23303D01*
X287389Y23318D01*
G37*
%LPC*%
G36*
X213012Y305701D02*
X213012Y305701D01*
X210977Y307736D01*
X210903Y307789D01*
X210834Y307849D01*
X210804Y307861D01*
X210778Y307880D01*
X210691Y307907D01*
X210606Y307941D01*
X210565Y307945D01*
X210542Y307952D01*
X210510Y307951D01*
X210439Y307959D01*
X133448Y307959D01*
X131429Y309978D01*
X131355Y310031D01*
X131285Y310091D01*
X131255Y310103D01*
X131229Y310122D01*
X131142Y310149D01*
X131057Y310183D01*
X131016Y310187D01*
X130994Y310194D01*
X130962Y310193D01*
X130890Y310201D01*
X128012Y310201D01*
X125201Y313012D01*
X125201Y316988D01*
X128012Y319799D01*
X131988Y319799D01*
X134799Y316988D01*
X134799Y314110D01*
X134813Y314020D01*
X134821Y313929D01*
X134833Y313899D01*
X134838Y313867D01*
X134881Y313786D01*
X134917Y313702D01*
X134943Y313670D01*
X134954Y313650D01*
X134977Y313627D01*
X135022Y313571D01*
X135329Y313264D01*
X135403Y313211D01*
X135473Y313151D01*
X135503Y313139D01*
X135529Y313120D01*
X135616Y313093D01*
X135701Y313059D01*
X135742Y313055D01*
X135764Y313048D01*
X135796Y313049D01*
X135868Y313041D01*
X210439Y313041D01*
X210529Y313055D01*
X210620Y313063D01*
X210650Y313075D01*
X210682Y313080D01*
X210762Y313123D01*
X210846Y313159D01*
X210878Y313185D01*
X210899Y313196D01*
X210921Y313219D01*
X210977Y313264D01*
X213012Y315299D01*
X216988Y315299D01*
X219799Y312488D01*
X219799Y308512D01*
X216988Y305701D01*
X213012Y305701D01*
G37*
%LPD*%
%LPC*%
G36*
X208012Y131730D02*
X208012Y131730D01*
X205201Y134541D01*
X205201Y135982D01*
X205187Y136072D01*
X205179Y136163D01*
X205167Y136193D01*
X205162Y136225D01*
X205119Y136306D01*
X205083Y136390D01*
X205057Y136422D01*
X205046Y136442D01*
X205023Y136465D01*
X204978Y136521D01*
X198779Y142720D01*
X198705Y142773D01*
X198635Y142833D01*
X198605Y142845D01*
X198579Y142864D01*
X198492Y142891D01*
X198407Y142925D01*
X198366Y142929D01*
X198344Y142936D01*
X198312Y142935D01*
X198240Y142943D01*
X173545Y142943D01*
X173455Y142929D01*
X173364Y142921D01*
X173334Y142909D01*
X173302Y142904D01*
X173222Y142861D01*
X173138Y142825D01*
X173106Y142799D01*
X173085Y142788D01*
X173063Y142765D01*
X173007Y142720D01*
X171988Y141701D01*
X168012Y141701D01*
X165201Y144512D01*
X165201Y148488D01*
X168012Y151299D01*
X171988Y151299D01*
X173007Y150280D01*
X173081Y150227D01*
X173150Y150167D01*
X173180Y150155D01*
X173206Y150136D01*
X173293Y150109D01*
X173378Y150075D01*
X173419Y150071D01*
X173442Y150064D01*
X173474Y150065D01*
X173545Y150057D01*
X201502Y150057D01*
X203809Y147750D01*
X210008Y141551D01*
X210082Y141498D01*
X210152Y141438D01*
X210182Y141426D01*
X210208Y141407D01*
X210295Y141380D01*
X210380Y141346D01*
X210421Y141342D01*
X210443Y141335D01*
X210475Y141336D01*
X210547Y141328D01*
X211988Y141328D01*
X214799Y138517D01*
X214799Y134541D01*
X211988Y131730D01*
X208012Y131730D01*
G37*
%LPD*%
%LPC*%
G36*
X178012Y225201D02*
X178012Y225201D01*
X175201Y228012D01*
X175201Y231988D01*
X178012Y234799D01*
X181988Y234799D01*
X184023Y232764D01*
X184097Y232711D01*
X184166Y232651D01*
X184196Y232639D01*
X184222Y232620D01*
X184309Y232593D01*
X184394Y232559D01*
X184435Y232555D01*
X184458Y232548D01*
X184490Y232549D01*
X184561Y232541D01*
X215439Y232541D01*
X215529Y232555D01*
X215620Y232563D01*
X215650Y232575D01*
X215682Y232580D01*
X215762Y232623D01*
X215846Y232659D01*
X215878Y232685D01*
X215899Y232696D01*
X215921Y232719D01*
X215977Y232764D01*
X218012Y234799D01*
X221988Y234799D01*
X224799Y231988D01*
X224799Y228012D01*
X221988Y225201D01*
X218012Y225201D01*
X215977Y227236D01*
X215903Y227289D01*
X215834Y227349D01*
X215804Y227361D01*
X215778Y227380D01*
X215691Y227407D01*
X215606Y227441D01*
X215565Y227445D01*
X215542Y227452D01*
X215510Y227451D01*
X215439Y227459D01*
X184561Y227459D01*
X184471Y227445D01*
X184380Y227437D01*
X184350Y227425D01*
X184318Y227420D01*
X184238Y227377D01*
X184154Y227341D01*
X184122Y227315D01*
X184101Y227304D01*
X184079Y227281D01*
X184023Y227236D01*
X181988Y225201D01*
X178012Y225201D01*
G37*
%LPD*%
%LPC*%
G36*
X338012Y24741D02*
X338012Y24741D01*
X335201Y27552D01*
X335201Y31528D01*
X337236Y33563D01*
X337289Y33637D01*
X337349Y33706D01*
X337361Y33736D01*
X337380Y33762D01*
X337407Y33849D01*
X337441Y33934D01*
X337445Y33975D01*
X337452Y33998D01*
X337451Y34030D01*
X337459Y34101D01*
X337459Y38769D01*
X337445Y38859D01*
X337437Y38950D01*
X337425Y38980D01*
X337420Y39012D01*
X337377Y39092D01*
X337341Y39176D01*
X337315Y39208D01*
X337304Y39229D01*
X337281Y39251D01*
X337236Y39307D01*
X335201Y41342D01*
X335201Y45318D01*
X338012Y48129D01*
X341988Y48129D01*
X344799Y45318D01*
X344799Y41342D01*
X342764Y39307D01*
X342711Y39233D01*
X342651Y39164D01*
X342639Y39134D01*
X342620Y39108D01*
X342593Y39021D01*
X342559Y38936D01*
X342555Y38895D01*
X342548Y38872D01*
X342549Y38840D01*
X342541Y38769D01*
X342541Y34101D01*
X342555Y34011D01*
X342563Y33920D01*
X342575Y33890D01*
X342580Y33858D01*
X342623Y33778D01*
X342659Y33694D01*
X342685Y33662D01*
X342696Y33641D01*
X342719Y33619D01*
X342764Y33563D01*
X344799Y31528D01*
X344799Y27552D01*
X341988Y24741D01*
X338012Y24741D01*
G37*
%LPD*%
%LPC*%
G36*
X318012Y273927D02*
X318012Y273927D01*
X315201Y276738D01*
X315201Y280714D01*
X318012Y283525D01*
X321988Y283525D01*
X324799Y280714D01*
X324799Y276738D01*
X321988Y273927D01*
X318012Y273927D01*
G37*
%LPD*%
D10*
X267300Y312460D02*
X267300Y327540D01*
X292700Y327540D02*
X292700Y312460D01*
X292700Y47540D02*
X292700Y32460D01*
X267300Y32460D02*
X267300Y47540D01*
D11*
X215000Y310500D03*
D12*
X134500Y310500D02*
X130000Y315000D01*
D11*
X130000Y315000D03*
D12*
X134500Y310500D02*
X215000Y310500D01*
D13*
X40000Y240000D02*
X20000Y220000D01*
D11*
X230000Y280000D03*
D13*
X190000Y240000D01*
X40000Y240000D01*
D11*
X20000Y220000D03*
X370000Y320000D03*
X360000Y320000D03*
X210000Y340000D03*
X165000Y340000D03*
X120000Y290000D03*
X220000Y250000D03*
X246000Y90000D03*
X232000Y125000D03*
X240000Y30000D03*
X187000Y95000D03*
X168000Y95000D03*
X154000Y90000D03*
X200000Y90000D03*
X152000Y109000D03*
X110000Y90000D03*
X110000Y110000D03*
X220000Y30000D03*
X400000Y270000D03*
X320000Y320000D03*
X232000Y135000D03*
X110000Y130000D03*
X280000Y330000D03*
X280000Y320000D03*
X420000Y270000D03*
X360000Y340000D03*
X170000Y270000D03*
X230000Y290000D03*
X230000Y300000D03*
X110000Y70000D03*
X280000Y310000D03*
X310000Y340000D03*
X245000Y125000D03*
X168000Y85000D03*
X280000Y153000D03*
X110000Y30000D03*
X110000Y50000D03*
X140000Y210000D03*
X130000Y230000D03*
X110000Y149000D03*
X110000Y220000D03*
X120000Y250000D03*
X156000Y251000D03*
X110000Y200000D03*
X200000Y200000D03*
X250000Y280000D03*
X187000Y85000D03*
X160000Y210000D03*
X170000Y250000D03*
X165000Y330000D03*
X245000Y135000D03*
X360000Y190000D03*
X250000Y30000D03*
X310000Y48000D03*
X320000Y30000D03*
X320000Y22000D03*
X340000Y20000D03*
X400000Y50000D03*
X420000Y20000D03*
X392000Y50000D03*
X358000Y16000D03*
X360000Y50000D03*
X370000Y50000D03*
X230000Y10000D03*
X240000Y10000D03*
X280000Y40000D03*
X310000Y80000D03*
X296000Y67000D03*
X20000Y280000D03*
D12*
X140000Y50000D02*
X190000Y50000D01*
D11*
X140000Y50000D03*
X150000Y270000D03*
D13*
X30000Y270000D01*
X20000Y280000D01*
D11*
X216830Y93170D03*
D12*
X216830Y76830D01*
X190000Y50000D01*
D11*
X385000Y30000D03*
D12*
X381000Y26000D01*
X381000Y11000D02*
X380000Y10000D01*
X310000Y10000D01*
X381000Y11000D02*
X381000Y26000D01*
X310000Y10000D02*
X303000Y17000D01*
X303000Y85000D01*
D11*
X303000Y85000D03*
D12*
X278000Y60000D01*
X260000Y60000D01*
D11*
X80000Y20000D03*
D12*
X220000Y20000D02*
X260000Y60000D01*
X220000Y20000D02*
X80000Y20000D01*
D11*
X355000Y255000D03*
D12*
X343000Y255000D01*
X333814Y264186D01*
X317592Y264186D01*
X303278Y278500D02*
X290000Y278500D01*
X303278Y278500D02*
X317592Y264186D01*
D11*
X280000Y280000D03*
D12*
X288500Y280000D01*
X290000Y278500D01*
D11*
X110000Y160000D03*
D12*
X332000Y210000D02*
X336000Y214000D01*
X336000Y253778D01*
X334889Y254889D01*
D11*
X334889Y254889D03*
D12*
X332000Y210000D02*
X180000Y210000D01*
X130000Y160000D01*
X110000Y160000D01*
D11*
X315000Y255000D03*
D12*
X273556Y213556D01*
X175334Y213556D01*
X141778Y180000D01*
X80000Y180000D01*
X20000Y120000D01*
X20000Y80000D01*
D11*
X20000Y80000D03*
X320000Y278726D03*
X295000Y255000D03*
D12*
X270000Y280000D01*
X270000Y290000D01*
D11*
X320000Y330000D03*
D12*
X302780Y322780D02*
X302780Y308285D01*
X302780Y322780D02*
X310000Y330000D01*
X302780Y308285D02*
X294495Y300000D01*
X280000Y300000D01*
X310000Y330000D02*
X320000Y330000D01*
X280000Y300000D02*
X270000Y290000D01*
D11*
X220000Y230000D03*
D12*
X180000Y230000D01*
D11*
X180000Y230000D03*
D12*
X160000Y37500D02*
X230000Y37500D01*
X160000Y37500D02*
X159593Y37093D01*
D11*
X159593Y37093D03*
X270000Y90000D03*
D12*
X270000Y77500D02*
X230000Y37500D01*
X270000Y77500D02*
X270000Y90000D01*
D11*
X170000Y190000D03*
D12*
X180000Y180000D01*
X330000Y180000D01*
D11*
X330000Y180000D03*
X210000Y136529D03*
D13*
X200029Y146500D01*
X170000Y146500D01*
D11*
X170000Y146500D03*
X400000Y70330D03*
X375000Y25000D03*
D12*
X375000Y45330D01*
X400000Y70330D01*
D11*
X340000Y43330D03*
D12*
X340000Y29540D01*
D11*
X340000Y29540D03*
M02*
