G75*
%MOIN*%
%OFA0B0*%
%FSLAX25Y25*%
%IPPOS*%
%LPD*%
%AMOC8*
5,1,8,0,0,1.08239X$1,22.5*
%
%ADD10R,0.03543X0.03937*%
%ADD11R,0.03937X0.04331*%
%ADD12R,0.03543X0.02756*%
%ADD13R,0.04331X0.03937*%
%ADD14R,0.04724X0.02756*%
%ADD15R,0.04724X0.02165*%
%ADD16R,0.03150X0.03150*%
%ADD17R,0.02756X0.03543*%
%ADD18R,0.05512X0.03937*%
%ADD19R,0.01102X0.03346*%
%ADD20R,0.12008X0.08071*%
%ADD21R,0.03346X0.01102*%
%ADD22R,0.01378X0.06299*%
%ADD23R,0.01181X0.02362*%
%ADD24R,0.02362X0.01181*%
%ADD25R,0.10630X0.10630*%
%ADD26R,0.05906X0.07087*%
%ADD27R,0.05512X0.01575*%
%ADD28R,0.02165X0.04724*%
%ADD29R,0.00984X0.03150*%
%ADD30R,0.03150X0.00984*%
%ADD31R,0.04724X0.07874*%
%ADD32R,0.05000X0.10000*%
%ADD33R,0.10000X0.05000*%
%ADD34C,0.13843*%
%ADD35C,0.00800*%
%ADD36C,0.02578*%
%ADD37C,0.01600*%
%ADD38C,0.01200*%
%ADD39C,0.00600*%
D10*
X0107402Y0072954D03*
X0107402Y0079253D03*
X0123544Y0079253D03*
X0123544Y0072954D03*
D11*
X0099725Y0080631D03*
X0099725Y0087324D03*
X0115473Y0108190D03*
X0115473Y0114883D03*
X0120394Y0132520D03*
X0120394Y0139213D03*
X0119410Y0024331D03*
X0119410Y0017639D03*
D12*
X0111536Y0018426D03*
X0111536Y0023544D03*
X0103662Y0023544D03*
X0103662Y0018426D03*
X0095788Y0018426D03*
X0095788Y0023544D03*
X0087914Y0023544D03*
X0087914Y0018426D03*
X0068229Y0019607D03*
X0068229Y0014489D03*
X0060355Y0042048D03*
X0060355Y0047166D03*
X0052481Y0047166D03*
X0052481Y0042048D03*
X0095788Y0057796D03*
X0103662Y0057796D03*
X0103662Y0062914D03*
X0095788Y0062914D03*
X0111536Y0062914D03*
X0119410Y0062914D03*
X0119410Y0057796D03*
X0111536Y0057796D03*
X0072166Y0093229D03*
X0072166Y0098347D03*
X0080040Y0105040D03*
X0080040Y0110158D03*
X0068229Y0132599D03*
X0068229Y0137717D03*
X0095788Y0137717D03*
X0095788Y0132599D03*
X0123347Y0114095D03*
X0123347Y0108977D03*
X0147954Y0120749D03*
X0147954Y0125867D03*
X0202087Y0132599D03*
X0202087Y0137717D03*
X0202087Y0019607D03*
X0202087Y0014489D03*
D13*
X0079450Y0083977D03*
X0072757Y0083977D03*
D14*
X0076694Y0076103D03*
X0091261Y0076103D03*
X0108190Y0123347D03*
X0122757Y0123347D03*
D15*
X0112717Y0131418D03*
X0112717Y0135158D03*
X0112717Y0138898D03*
X0102481Y0138898D03*
X0102481Y0131418D03*
X0098544Y0115276D03*
X0098544Y0111536D03*
X0098544Y0107796D03*
X0108781Y0107796D03*
X0108781Y0115276D03*
D16*
X0080040Y0116457D03*
X0080040Y0122363D03*
X0076103Y0132206D03*
X0076103Y0138111D03*
X0080040Y0098741D03*
X0080040Y0092835D03*
X0076103Y0020001D03*
X0076103Y0014095D03*
X0194213Y0014095D03*
X0194213Y0020001D03*
X0194213Y0132206D03*
X0194213Y0138111D03*
D17*
X0195591Y0123347D03*
X0200709Y0123347D03*
X0200709Y0115473D03*
X0195591Y0115473D03*
X0137717Y0119410D03*
X0132599Y0119410D03*
X0106221Y0099725D03*
X0101103Y0099725D03*
X0090473Y0048544D03*
X0085355Y0048544D03*
X0085355Y0040670D03*
X0090473Y0040670D03*
X0090473Y0032796D03*
X0085355Y0032796D03*
X0136536Y0036733D03*
X0141654Y0036733D03*
X0149331Y0037009D03*
X0154450Y0037009D03*
D18*
X0076497Y0036733D03*
X0067835Y0032993D03*
X0067835Y0040473D03*
X0067835Y0048741D03*
X0067835Y0056221D03*
X0076497Y0052481D03*
D19*
X0103662Y0047658D03*
X0105631Y0047658D03*
X0107599Y0047658D03*
X0109568Y0047658D03*
X0111536Y0047658D03*
X0113505Y0047658D03*
X0115473Y0047658D03*
X0117442Y0047658D03*
X0117442Y0033879D03*
X0115473Y0033879D03*
X0113505Y0033879D03*
X0111536Y0033879D03*
X0109568Y0033879D03*
X0107599Y0033879D03*
X0105631Y0033879D03*
X0103662Y0033879D03*
D20*
X0110552Y0040670D03*
D21*
X0101792Y0037717D03*
X0101792Y0043623D03*
X0119312Y0043623D03*
X0119312Y0037717D03*
D22*
X0169863Y0116576D03*
X0172422Y0116576D03*
X0174981Y0116576D03*
X0177540Y0116576D03*
X0180099Y0116576D03*
X0182658Y0116576D03*
X0185217Y0116576D03*
X0187776Y0116576D03*
X0187776Y0138623D03*
X0185217Y0138623D03*
X0182658Y0138623D03*
X0180099Y0138623D03*
X0177540Y0138623D03*
X0174981Y0138623D03*
X0172422Y0138623D03*
X0169863Y0138623D03*
D23*
X0070946Y0120808D03*
X0068977Y0120808D03*
X0067009Y0120808D03*
X0065040Y0120808D03*
X0063072Y0120808D03*
X0061103Y0120808D03*
X0061103Y0106044D03*
X0063072Y0106044D03*
X0065040Y0106044D03*
X0067009Y0106044D03*
X0068977Y0106044D03*
X0070946Y0106044D03*
D24*
X0073406Y0108505D03*
X0073406Y0110473D03*
X0073406Y0112442D03*
X0073406Y0114410D03*
X0073406Y0116379D03*
X0073406Y0118347D03*
X0058643Y0118347D03*
X0058643Y0116379D03*
X0058643Y0114410D03*
X0058643Y0112442D03*
X0058643Y0110473D03*
X0058643Y0108505D03*
D25*
X0066024Y0113426D03*
D26*
X0052481Y0090607D03*
X0052481Y0061599D03*
D27*
X0063111Y0070985D03*
X0063111Y0073544D03*
X0063111Y0076103D03*
X0063111Y0078662D03*
X0063111Y0081221D03*
D28*
X0154961Y0118622D03*
X0158702Y0118622D03*
X0162442Y0118622D03*
X0162442Y0128859D03*
X0154961Y0128859D03*
D29*
X0122402Y0097954D03*
X0120434Y0097954D03*
X0118465Y0097954D03*
X0116497Y0097954D03*
X0114528Y0097954D03*
X0114528Y0086536D03*
X0116497Y0086536D03*
X0118465Y0086536D03*
X0120434Y0086536D03*
X0122402Y0086536D03*
D30*
X0124174Y0090276D03*
X0124174Y0092245D03*
X0124174Y0094213D03*
X0112757Y0094213D03*
X0112757Y0092245D03*
X0112757Y0090276D03*
D31*
X0137127Y0105631D03*
X0145001Y0105631D03*
X0152875Y0105631D03*
X0160749Y0105631D03*
X0168623Y0105631D03*
X0176497Y0105631D03*
X0184371Y0105631D03*
X0192245Y0105631D03*
X0192245Y0046576D03*
X0184371Y0046576D03*
X0176497Y0046576D03*
X0168623Y0046576D03*
X0160749Y0046576D03*
X0152875Y0046576D03*
X0145001Y0046576D03*
X0137127Y0046576D03*
D32*
X0139095Y0020985D03*
X0131221Y0020985D03*
X0131221Y0131221D03*
X0139095Y0131221D03*
X0158780Y0139095D03*
X0087914Y0139095D03*
D33*
X0076103Y0064292D03*
X0217835Y0123347D03*
D34*
X0213898Y0135158D03*
X0056418Y0135158D03*
X0056418Y0017048D03*
X0213898Y0017048D03*
D35*
X0202087Y0014489D02*
X0201694Y0014095D01*
X0194213Y0014095D01*
X0202087Y0019607D02*
X0202087Y0040104D01*
X0197750Y0044441D01*
X0197750Y0044607D01*
X0197750Y0044441D01*
X0197750Y0044607D02*
X0197750Y0088314D01*
X0190276Y0095788D01*
X0146969Y0095788D01*
X0145001Y0097757D01*
X0145001Y0105631D01*
X0137127Y0105631D02*
X0137127Y0092835D01*
X0123544Y0079253D01*
X0119410Y0079253D01*
X0114528Y0084135D01*
X0114528Y0086536D01*
X0113938Y0087127D01*
X0111536Y0087127D01*
X0109961Y0088702D01*
X0109961Y0093032D01*
X0111143Y0094213D01*
X0112757Y0094213D01*
X0118465Y0097954D02*
X0118465Y0102717D01*
X0119410Y0103662D01*
X0127284Y0103662D01*
X0131221Y0107599D01*
X0127284Y0114095D02*
X0147506Y0114095D01*
X0150725Y0117315D01*
X0150725Y0124623D01*
X0154961Y0128859D01*
X0158052Y0131950D01*
X0158052Y0134430D01*
X0158780Y0135158D01*
X0158780Y0139095D01*
X0159253Y0138623D01*
X0169863Y0138623D01*
X0169863Y0135887D01*
X0170591Y0135158D01*
X0170634Y0135158D01*
X0173171Y0132621D01*
X0179045Y0132621D01*
X0186030Y0125636D01*
X0187287Y0125636D01*
X0189576Y0123347D01*
X0195591Y0123347D01*
X0200709Y0123347D02*
X0206024Y0123347D01*
X0203087Y0120410D01*
X0203087Y0113287D01*
X0195607Y0105807D01*
X0195607Y0101279D01*
X0194534Y0100206D01*
X0194534Y0099725D01*
X0192245Y0097757D02*
X0192245Y0105631D01*
X0192245Y0106331D01*
X0196502Y0110588D01*
X0196502Y0111266D01*
X0200709Y0115473D01*
X0195591Y0115473D02*
X0195591Y0112914D01*
X0194213Y0111536D01*
X0187733Y0109982D02*
X0187733Y0107599D01*
X0187733Y0109982D01*
X0185217Y0112498D01*
X0185217Y0116576D01*
X0182658Y0116576D02*
X0182658Y0127028D01*
X0178465Y0131221D01*
X0164939Y0131221D01*
X0163939Y0132222D01*
X0160945Y0132222D01*
X0160359Y0131636D01*
X0160359Y0128879D01*
X0152879Y0121399D01*
X0152879Y0105635D01*
X0152875Y0105631D01*
X0160749Y0105631D02*
X0169191Y0097188D01*
X0183802Y0097188D01*
X0186339Y0099725D01*
X0186339Y0099886D01*
X0187733Y0101279D01*
X0187733Y0107599D01*
X0182402Y0099725D02*
X0176497Y0105631D01*
X0172422Y0109706D01*
X0172422Y0116576D01*
X0174981Y0116576D02*
X0174981Y0122894D01*
X0170591Y0127284D01*
X0164017Y0127284D01*
X0162442Y0128859D01*
X0147954Y0120749D02*
X0143032Y0120749D01*
X0146957Y0116824D01*
X0146957Y0116784D01*
X0143032Y0120749D02*
X0139056Y0120749D01*
X0137717Y0119410D01*
X0132599Y0119410D02*
X0132599Y0129843D01*
X0131221Y0131221D01*
X0112717Y0131418D02*
X0112717Y0130698D01*
X0109304Y0127284D01*
X0103237Y0123772D02*
X0096824Y0117359D01*
X0095767Y0117359D01*
X0095767Y0119431D01*
X0085568Y0129631D01*
X0071198Y0129631D01*
X0068229Y0132599D01*
X0068229Y0137717D02*
X0068623Y0138111D01*
X0076103Y0138111D01*
X0076103Y0132206D02*
X0081024Y0132206D01*
X0087914Y0139095D01*
X0087914Y0143032D01*
X0095788Y0137717D02*
X0096182Y0137717D01*
X0102481Y0131418D01*
X0091581Y0119345D02*
X0091581Y0104721D01*
X0091851Y0104452D01*
X0091851Y0099725D01*
X0087914Y0099725D02*
X0087914Y0104450D01*
X0085377Y0106987D01*
X0085377Y0123570D01*
X0082609Y0126338D01*
X0072007Y0126338D01*
X0069017Y0123347D01*
X0069017Y0120847D01*
X0068977Y0120808D01*
X0067009Y0120808D02*
X0067009Y0126064D01*
X0068683Y0127738D01*
X0083189Y0127738D01*
X0091581Y0119345D01*
X0095767Y0117359D02*
X0092981Y0114573D01*
X0092981Y0105301D01*
X0094140Y0104143D01*
X0094140Y0086966D01*
X0087898Y0080724D01*
X0087898Y0074311D01*
X0088484Y0073725D01*
X0089541Y0073725D01*
X0098560Y0064706D01*
X0098560Y0056884D01*
X0105112Y0050331D01*
X0106596Y0050331D01*
X0107599Y0049328D01*
X0107599Y0047658D01*
X0109568Y0047658D02*
X0109568Y0054056D01*
X0105828Y0057796D01*
X0103662Y0057796D01*
X0095788Y0057796D02*
X0095788Y0032053D01*
X0096182Y0031659D01*
X0097963Y0031659D01*
X0098007Y0031703D01*
X0101487Y0031703D01*
X0103662Y0033879D01*
X0105631Y0033879D02*
X0105631Y0031221D01*
X0104713Y0030303D01*
X0098587Y0030303D01*
X0098543Y0030259D01*
X0095394Y0030259D01*
X0093426Y0032228D01*
X0093426Y0043426D01*
X0090473Y0046379D01*
X0090473Y0048544D01*
X0088095Y0046358D02*
X0088095Y0054667D01*
X0095788Y0062360D01*
X0095788Y0062914D01*
X0083977Y0060355D02*
X0080040Y0056418D01*
X0074295Y0056418D01*
X0072741Y0054864D01*
X0072741Y0053646D01*
X0067835Y0048741D01*
X0061930Y0048741D01*
X0060355Y0047166D01*
X0060355Y0042048D02*
X0060355Y0040670D01*
X0067639Y0040670D01*
X0067835Y0040473D01*
X0071591Y0031828D02*
X0076497Y0036733D01*
X0080040Y0036733D01*
X0085355Y0032796D02*
X0087914Y0030237D01*
X0087914Y0023544D01*
X0091224Y0023544D01*
X0093602Y0021166D01*
X0113722Y0021166D01*
X0116887Y0024331D01*
X0119410Y0024331D01*
X0119410Y0026103D01*
X0115473Y0030040D01*
X0115473Y0033879D01*
X0113505Y0033879D02*
X0113505Y0025513D01*
X0111536Y0023544D01*
X0109568Y0026103D02*
X0111536Y0028072D01*
X0111536Y0033879D01*
X0109568Y0033879D02*
X0109568Y0028083D01*
X0108988Y0027503D01*
X0099747Y0027503D01*
X0095788Y0023544D01*
X0099123Y0028859D02*
X0092245Y0028859D01*
X0090473Y0030631D01*
X0090473Y0032796D01*
X0090473Y0040670D01*
X0090473Y0043980D01*
X0088095Y0046358D01*
X0080040Y0052481D02*
X0076497Y0052481D01*
X0067835Y0056221D02*
X0061536Y0056221D01*
X0052481Y0047166D01*
X0048544Y0045985D02*
X0053170Y0041359D01*
X0061536Y0032993D01*
X0067835Y0032993D01*
X0071591Y0031828D02*
X0071591Y0030610D01*
X0068229Y0027248D01*
X0068229Y0019607D01*
X0068229Y0014489D02*
X0068623Y0014095D01*
X0076103Y0014095D01*
X0099123Y0028859D02*
X0099167Y0028903D01*
X0106856Y0028903D01*
X0107599Y0029646D01*
X0107599Y0033879D01*
X0106221Y0026103D02*
X0109568Y0026103D01*
X0106221Y0026103D02*
X0103662Y0023544D01*
X0111536Y0047658D02*
X0111536Y0057796D01*
X0119410Y0057796D02*
X0119410Y0053269D01*
X0115473Y0049331D01*
X0115473Y0047658D01*
X0141654Y0036733D02*
X0145001Y0040080D01*
X0145001Y0046576D01*
X0145001Y0066261D01*
X0139095Y0072166D01*
X0124331Y0072166D01*
X0123544Y0072954D01*
X0123544Y0079253D02*
X0133989Y0079253D01*
X0146401Y0066841D01*
X0146401Y0052889D01*
X0148363Y0050927D01*
X0148363Y0037977D01*
X0149331Y0037009D01*
X0152875Y0038583D02*
X0154450Y0037009D01*
X0152875Y0038583D02*
X0152875Y0046576D01*
X0160749Y0046576D02*
X0160749Y0038702D01*
X0158780Y0036733D01*
X0168623Y0046576D02*
X0168462Y0046736D01*
X0168462Y0046759D01*
X0134569Y0080653D01*
X0129959Y0080653D01*
X0129070Y0081542D01*
X0122402Y0086536D02*
X0122402Y0088567D01*
X0121599Y0089370D01*
X0121599Y0089662D01*
X0119410Y0091851D01*
X0124174Y0090276D02*
X0124922Y0090276D01*
X0127284Y0087914D01*
X0120434Y0086536D02*
X0120198Y0086300D01*
X0120198Y0082796D01*
X0139095Y0083977D02*
X0176497Y0046576D01*
X0184371Y0046576D02*
X0184371Y0058387D01*
X0178465Y0064292D01*
X0186339Y0060355D02*
X0193032Y0053662D01*
X0193032Y0047363D01*
X0192245Y0046576D01*
X0194213Y0095788D02*
X0192245Y0097757D01*
X0174528Y0099725D02*
X0168623Y0105631D01*
X0158780Y0115473D01*
X0158780Y0118544D01*
X0158702Y0118622D01*
X0166576Y0107678D02*
X0168623Y0105631D01*
X0177540Y0116576D02*
X0177540Y0120527D01*
X0194213Y0138111D02*
X0199725Y0132599D01*
X0202087Y0132599D01*
X0202087Y0137717D02*
X0202087Y0139095D01*
X0198150Y0143032D01*
X0192186Y0143032D01*
X0187776Y0138623D01*
X0206024Y0123347D02*
X0217835Y0123347D01*
X0106221Y0100119D02*
X0106221Y0099725D01*
X0106221Y0100119D02*
X0098544Y0107796D01*
X0080040Y0110158D02*
X0080040Y0116457D01*
X0077465Y0118447D02*
X0077465Y0112505D01*
X0075316Y0110355D01*
X0073524Y0110355D01*
X0073406Y0110473D01*
X0073406Y0108505D02*
X0073406Y0105375D01*
X0080040Y0098741D01*
X0079646Y0093229D02*
X0072166Y0093229D01*
X0072166Y0098347D02*
X0069607Y0098347D01*
X0068229Y0099725D01*
X0077230Y0104789D02*
X0079789Y0104789D01*
X0080040Y0105040D01*
X0066024Y0113426D02*
X0064292Y0115158D01*
X0064292Y0115473D01*
X0063190Y0116261D02*
X0066024Y0113426D01*
X0063190Y0116261D02*
X0058761Y0116261D01*
X0058643Y0116379D01*
X0058643Y0114410D02*
X0053387Y0114410D01*
X0053269Y0114292D01*
X0053257Y0114292D01*
X0051081Y0112116D01*
X0051081Y0107019D01*
X0056434Y0101667D01*
X0056434Y0086650D01*
X0056418Y0086634D01*
X0056418Y0080040D01*
X0060355Y0076103D01*
X0063111Y0076103D01*
X0063111Y0078662D02*
X0060713Y0078662D01*
X0058069Y0081305D01*
X0058069Y0102011D01*
X0052481Y0107599D01*
X0052481Y0111536D01*
X0053387Y0112442D01*
X0058643Y0112442D01*
X0058643Y0110473D02*
X0058643Y0108505D01*
X0058614Y0108476D01*
X0058614Y0104703D01*
X0049681Y0112673D02*
X0048544Y0111536D01*
X0048544Y0094580D01*
X0048528Y0094565D01*
X0048528Y0057642D01*
X0048544Y0057626D01*
X0048544Y0045985D01*
X0052481Y0042048D02*
X0053170Y0041359D01*
X0083977Y0060355D02*
X0083977Y0122990D01*
X0082029Y0124938D01*
X0080040Y0124938D01*
X0073757Y0124938D01*
X0070946Y0122127D01*
X0070946Y0120808D01*
X0077465Y0118447D02*
X0080040Y0121021D01*
X0080040Y0122363D01*
X0080040Y0124938D02*
X0078051Y0124938D01*
X0063072Y0120808D02*
X0062694Y0121186D01*
X0062694Y0122403D01*
X0062108Y0122989D01*
X0059974Y0122989D01*
X0049681Y0112696D01*
X0049681Y0112673D01*
X0079646Y0093229D02*
X0080040Y0092835D01*
D36*
X0080040Y0087914D03*
X0080040Y0080040D03*
X0091851Y0087914D03*
X0098150Y0092639D03*
X0098150Y0095394D03*
X0091851Y0099725D03*
X0087914Y0099725D03*
X0077230Y0104789D03*
X0068229Y0099725D03*
X0058614Y0104703D03*
X0068229Y0111536D03*
X0064292Y0115473D03*
X0064292Y0127284D03*
X0087914Y0131221D03*
X0095788Y0127284D03*
X0103237Y0123772D03*
X0109304Y0127284D03*
X0115473Y0127284D03*
X0115473Y0123347D03*
X0111536Y0111536D03*
X0103662Y0111536D03*
X0087914Y0119410D03*
X0127284Y0107599D03*
X0131221Y0107599D03*
X0128859Y0099725D03*
X0118623Y0092245D03*
X0127284Y0087914D03*
X0124922Y0083977D03*
X0129070Y0081542D03*
X0120198Y0082796D03*
X0103662Y0080040D03*
X0087914Y0064292D03*
X0080040Y0052481D03*
X0080040Y0048544D03*
X0080040Y0040670D03*
X0080040Y0036733D03*
X0080040Y0024922D03*
X0080040Y0017048D03*
X0099725Y0040670D03*
X0107599Y0040670D03*
X0111536Y0040670D03*
X0119410Y0040670D03*
X0131221Y0040670D03*
X0131221Y0048544D03*
X0135158Y0056418D03*
X0139095Y0056418D03*
X0119410Y0062914D03*
X0111536Y0062914D03*
X0099725Y0048544D03*
X0123347Y0024922D03*
X0123347Y0020985D03*
X0139095Y0032796D03*
X0158780Y0036733D03*
X0190276Y0024922D03*
X0198150Y0024922D03*
X0186339Y0060355D03*
X0178465Y0064292D03*
X0139095Y0083977D03*
X0174528Y0099725D03*
X0182402Y0099725D03*
X0184371Y0105631D03*
X0194213Y0111536D03*
X0194213Y0119410D03*
X0186339Y0123347D03*
X0177540Y0120527D03*
X0166654Y0119410D03*
X0150906Y0131221D03*
X0146969Y0131221D03*
X0146969Y0135158D03*
X0150906Y0135158D03*
X0146957Y0116784D03*
X0186339Y0131221D03*
X0198150Y0127284D03*
X0194534Y0099725D03*
X0194213Y0095788D03*
X0064292Y0060355D03*
X0052481Y0072166D03*
D37*
X0063111Y0081221D02*
X0068229Y0081221D01*
X0072757Y0076694D01*
X0076103Y0073347D01*
X0076103Y0072166D01*
X0076103Y0064292D01*
X0076103Y0072166D02*
X0076103Y0073347D01*
X0076694Y0076103D02*
X0073347Y0076103D01*
X0072757Y0076694D01*
X0070001Y0081221D02*
X0068229Y0081221D01*
X0070001Y0081221D02*
X0072757Y0083977D01*
X0072757Y0087324D01*
X0064292Y0095788D01*
X0064292Y0099725D01*
X0063072Y0100946D01*
X0094781Y0106047D02*
X0094781Y0113199D01*
X0096859Y0115276D01*
X0098544Y0115276D01*
X0106615Y0123347D01*
X0106615Y0134765D01*
X0102481Y0138898D01*
X0099737Y0138898D01*
X0098140Y0140495D01*
X0093437Y0140495D01*
X0092037Y0139095D01*
X0087914Y0139095D01*
X0106615Y0123347D02*
X0108190Y0123347D01*
X0108781Y0115276D02*
X0115080Y0115276D01*
X0115473Y0114883D01*
X0122560Y0114883D01*
X0123347Y0114095D01*
X0127284Y0114095D01*
X0128662Y0114095D01*
X0137127Y0105631D01*
X0123347Y0123347D02*
X0122757Y0123347D01*
X0123347Y0123347D02*
X0131221Y0131221D01*
X0131221Y0135158D01*
X0127284Y0139095D01*
X0120513Y0139095D01*
X0120394Y0139213D01*
X0120080Y0138898D01*
X0112717Y0138898D01*
X0094781Y0106047D02*
X0101103Y0099725D01*
X0101103Y0092059D01*
X0103094Y0090069D01*
X0103094Y0084578D01*
X0099725Y0081210D01*
X0099725Y0080631D01*
X0099725Y0080040D01*
X0095788Y0076103D01*
X0091261Y0076103D01*
X0099725Y0074911D02*
X0099725Y0080631D01*
X0099725Y0074911D02*
X0105051Y0069585D01*
X0110180Y0069585D01*
X0115473Y0064292D01*
X0115473Y0052481D01*
X0123347Y0044607D02*
X0123347Y0040670D01*
X0139095Y0024922D01*
X0139095Y0020985D01*
X0131221Y0020985D02*
X0123347Y0028859D01*
X0119410Y0028859D01*
D38*
X0117442Y0030828D01*
X0117442Y0033879D01*
X0123347Y0044607D02*
X0123347Y0060355D01*
X0120788Y0062914D01*
X0119410Y0062914D01*
X0111536Y0062914D02*
X0103662Y0062914D01*
X0115473Y0052481D02*
X0113505Y0050513D01*
X0113505Y0047658D01*
X0117442Y0047658D02*
X0120296Y0047658D01*
X0123347Y0044607D01*
X0131221Y0020985D02*
X0124509Y0014273D01*
X0116945Y0014273D01*
X0112792Y0018426D01*
X0111536Y0018426D01*
X0103662Y0018426D01*
X0095788Y0018426D01*
X0063072Y0100946D02*
X0061103Y0102914D01*
X0061103Y0106044D01*
X0063072Y0106044D02*
X0063072Y0100946D01*
D39*
X0045907Y0145669D02*
X0045907Y0006537D01*
X0122384Y0006537D01*
X0130559Y0014711D01*
X0139758Y0014711D01*
X0140695Y0013774D01*
X0147932Y0006537D01*
X0224409Y0006537D01*
X0224409Y0044307D01*
X0199723Y0044307D01*
X0203387Y0040643D01*
X0203387Y0021885D01*
X0204232Y0021885D01*
X0204759Y0021358D01*
X0204759Y0017856D01*
X0204232Y0017329D01*
X0199943Y0017329D01*
X0199416Y0017856D01*
X0199416Y0021358D01*
X0199943Y0021885D01*
X0200787Y0021885D01*
X0200787Y0039566D01*
X0196450Y0043903D01*
X0196450Y0087776D01*
X0189738Y0094488D01*
X0146431Y0094488D01*
X0145669Y0095250D01*
X0143701Y0097218D01*
X0143701Y0100794D01*
X0142266Y0100794D01*
X0141739Y0101321D01*
X0141739Y0109941D01*
X0142266Y0110468D01*
X0147736Y0110468D01*
X0148263Y0109941D01*
X0148263Y0101321D01*
X0147736Y0100794D01*
X0146301Y0100794D01*
X0146301Y0098295D01*
X0147508Y0097088D01*
X0167453Y0097088D01*
X0163616Y0100925D01*
X0163484Y0100794D01*
X0158014Y0100794D01*
X0157487Y0101321D01*
X0157487Y0109941D01*
X0158014Y0110468D01*
X0161947Y0110468D01*
X0158242Y0114173D01*
X0157480Y0114935D01*
X0157480Y0115360D01*
X0157246Y0115360D01*
X0156831Y0115775D01*
X0156417Y0115360D01*
X0154179Y0115360D01*
X0154179Y0110468D01*
X0155610Y0110468D01*
X0156137Y0109941D01*
X0156137Y0101321D01*
X0155610Y0100794D01*
X0150140Y0100794D01*
X0149613Y0101321D01*
X0149613Y0109941D01*
X0150140Y0110468D01*
X0151579Y0110468D01*
X0151579Y0116330D01*
X0151264Y0116015D01*
X0148044Y0112795D01*
X0132366Y0112795D01*
X0134694Y0110468D01*
X0139862Y0110468D01*
X0140389Y0109941D01*
X0140389Y0101321D01*
X0139862Y0100794D01*
X0138427Y0100794D01*
X0138427Y0092297D01*
X0129860Y0083731D01*
X0129977Y0083731D01*
X0131259Y0082448D01*
X0131259Y0081953D01*
X0135107Y0081953D01*
X0165767Y0051292D01*
X0165888Y0051413D01*
X0169821Y0051413D01*
X0139446Y0081788D01*
X0138189Y0081788D01*
X0136906Y0083070D01*
X0136906Y0084884D01*
X0138189Y0086166D01*
X0140002Y0086166D01*
X0141284Y0084884D01*
X0141284Y0083627D01*
X0173630Y0051281D01*
X0173762Y0051413D01*
X0179232Y0051413D01*
X0179759Y0050885D01*
X0179759Y0042266D01*
X0179232Y0041739D01*
X0173762Y0041739D01*
X0173235Y0042266D01*
X0173235Y0047999D01*
X0171885Y0049349D01*
X0171885Y0042266D01*
X0171358Y0041739D01*
X0165888Y0041739D01*
X0165361Y0042266D01*
X0165361Y0048022D01*
X0164011Y0049372D01*
X0164011Y0042266D01*
X0163484Y0041739D01*
X0162049Y0041739D01*
X0162049Y0038163D01*
X0161287Y0037402D01*
X0160969Y0037084D01*
X0160969Y0035826D01*
X0159687Y0034544D01*
X0157874Y0034544D01*
X0156728Y0035690D01*
X0156728Y0034864D01*
X0156200Y0034337D01*
X0152699Y0034337D01*
X0152172Y0034864D01*
X0152172Y0037448D01*
X0151609Y0038010D01*
X0151609Y0034864D01*
X0151082Y0034337D01*
X0147581Y0034337D01*
X0147054Y0034864D01*
X0147054Y0039153D01*
X0147063Y0039163D01*
X0147063Y0041739D01*
X0146301Y0041739D01*
X0146301Y0039541D01*
X0145539Y0038780D01*
X0143932Y0037173D01*
X0143932Y0034589D01*
X0143405Y0034061D01*
X0139904Y0034061D01*
X0139376Y0034589D01*
X0139376Y0038878D01*
X0139904Y0039405D01*
X0142488Y0039405D01*
X0143701Y0040618D01*
X0143701Y0041739D01*
X0142266Y0041739D01*
X0141739Y0042266D01*
X0141739Y0050885D01*
X0142266Y0051413D01*
X0143701Y0051413D01*
X0143701Y0065722D01*
X0138557Y0070866D01*
X0126216Y0070866D01*
X0126216Y0070612D01*
X0125689Y0070085D01*
X0121400Y0070085D01*
X0120872Y0070612D01*
X0120872Y0075295D01*
X0121400Y0075822D01*
X0125689Y0075822D01*
X0126216Y0075295D01*
X0126216Y0073466D01*
X0137937Y0073466D01*
X0133450Y0077953D01*
X0126216Y0077953D01*
X0126216Y0076911D01*
X0125689Y0076384D01*
X0121400Y0076384D01*
X0120872Y0076911D01*
X0120872Y0077953D01*
X0118872Y0077953D01*
X0113228Y0083596D01*
X0113228Y0084496D01*
X0113136Y0084589D01*
X0113136Y0085827D01*
X0110998Y0085827D01*
X0110236Y0086588D01*
X0108661Y0088163D01*
X0108661Y0093571D01*
X0110604Y0095513D01*
X0110717Y0095513D01*
X0110809Y0095605D01*
X0113537Y0095605D01*
X0113136Y0096006D01*
X0113136Y0099901D01*
X0113663Y0100428D01*
X0115393Y0100428D01*
X0115513Y0100309D01*
X0115632Y0100428D01*
X0117165Y0100428D01*
X0117165Y0103256D01*
X0118110Y0104201D01*
X0118872Y0104962D01*
X0126746Y0104962D01*
X0129032Y0107249D01*
X0129032Y0108506D01*
X0130315Y0109788D01*
X0130565Y0109788D01*
X0127958Y0112395D01*
X0126019Y0112395D01*
X0126019Y0112345D01*
X0125492Y0111817D01*
X0121203Y0111817D01*
X0120676Y0112345D01*
X0120676Y0113183D01*
X0118342Y0113183D01*
X0118342Y0112345D01*
X0117815Y0111817D01*
X0113132Y0111817D01*
X0112605Y0112345D01*
X0112605Y0113576D01*
X0111798Y0113576D01*
X0111516Y0113294D01*
X0106046Y0113294D01*
X0105519Y0113821D01*
X0105519Y0116732D01*
X0106046Y0117259D01*
X0111516Y0117259D01*
X0111798Y0116976D01*
X0112605Y0116976D01*
X0112605Y0117421D01*
X0113132Y0117948D01*
X0117815Y0117948D01*
X0118342Y0117421D01*
X0118342Y0116583D01*
X0123264Y0116583D01*
X0123473Y0116373D01*
X0125492Y0116373D01*
X0126019Y0115846D01*
X0126019Y0115795D01*
X0129366Y0115795D01*
X0129766Y0115395D01*
X0145251Y0115395D01*
X0144768Y0115878D01*
X0144768Y0117174D01*
X0142494Y0119449D01*
X0139995Y0119449D01*
X0139995Y0117266D01*
X0139468Y0116739D01*
X0135967Y0116739D01*
X0135439Y0117266D01*
X0135439Y0121555D01*
X0135967Y0122082D01*
X0139468Y0122082D01*
X0139501Y0122049D01*
X0145282Y0122049D01*
X0145282Y0122500D01*
X0145809Y0123027D01*
X0149425Y0123027D01*
X0149425Y0123189D01*
X0148254Y0123189D01*
X0148254Y0125567D01*
X0147654Y0125567D01*
X0147654Y0123189D01*
X0146011Y0123189D01*
X0145680Y0123278D01*
X0145384Y0123449D01*
X0145142Y0123691D01*
X0144970Y0123987D01*
X0144882Y0124318D01*
X0144882Y0125567D01*
X0147653Y0125567D01*
X0147653Y0126167D01*
X0144882Y0126167D01*
X0144882Y0127416D01*
X0144970Y0127747D01*
X0145142Y0128043D01*
X0145384Y0128285D01*
X0145680Y0128456D01*
X0146011Y0128545D01*
X0147654Y0128545D01*
X0147654Y0126167D01*
X0148254Y0126167D01*
X0148254Y0128545D01*
X0149896Y0128545D01*
X0150227Y0128456D01*
X0150523Y0128285D01*
X0150765Y0128043D01*
X0150937Y0127747D01*
X0151025Y0127416D01*
X0151025Y0126762D01*
X0152979Y0128715D01*
X0152979Y0131594D01*
X0153506Y0132122D01*
X0156385Y0132122D01*
X0156752Y0132488D01*
X0156752Y0133195D01*
X0155908Y0133195D01*
X0155380Y0133722D01*
X0155380Y0144468D01*
X0155908Y0144995D01*
X0161653Y0144995D01*
X0162180Y0144468D01*
X0162180Y0139923D01*
X0168274Y0139923D01*
X0168274Y0142145D01*
X0168801Y0142672D01*
X0170925Y0142672D01*
X0171143Y0142455D01*
X0171360Y0142672D01*
X0173484Y0142672D01*
X0173702Y0142455D01*
X0173919Y0142672D01*
X0176043Y0142672D01*
X0176261Y0142455D01*
X0176478Y0142672D01*
X0178602Y0142672D01*
X0178820Y0142455D01*
X0179037Y0142672D01*
X0181161Y0142672D01*
X0181379Y0142455D01*
X0181596Y0142672D01*
X0183720Y0142672D01*
X0183938Y0142455D01*
X0184156Y0142672D01*
X0186279Y0142672D01*
X0186497Y0142455D01*
X0186715Y0142672D01*
X0188838Y0142672D01*
X0189365Y0142145D01*
X0189365Y0142050D01*
X0190886Y0143571D01*
X0191647Y0144332D01*
X0198689Y0144332D01*
X0202626Y0140395D01*
X0203026Y0139995D01*
X0204232Y0139995D01*
X0204759Y0139468D01*
X0204759Y0135967D01*
X0204232Y0135439D01*
X0199943Y0135439D01*
X0199416Y0135967D01*
X0199416Y0139468D01*
X0199646Y0139698D01*
X0197612Y0141732D01*
X0192724Y0141732D01*
X0189365Y0138373D01*
X0189365Y0135100D01*
X0188838Y0134573D01*
X0186715Y0134573D01*
X0186497Y0134791D01*
X0186279Y0134573D01*
X0184156Y0134573D01*
X0183938Y0134791D01*
X0183720Y0134573D01*
X0181596Y0134573D01*
X0181379Y0134791D01*
X0181161Y0134573D01*
X0179037Y0134573D01*
X0178820Y0134791D01*
X0178602Y0134573D01*
X0176478Y0134573D01*
X0176261Y0134791D01*
X0176043Y0134573D01*
X0173919Y0134573D01*
X0173702Y0134791D01*
X0173484Y0134573D01*
X0173057Y0134573D01*
X0173709Y0133921D01*
X0179584Y0133921D01*
X0180345Y0133160D01*
X0180345Y0133160D01*
X0186569Y0126936D01*
X0187826Y0126936D01*
X0188587Y0126175D01*
X0188587Y0126175D01*
X0190115Y0124647D01*
X0193313Y0124647D01*
X0193313Y0125492D01*
X0193841Y0126019D01*
X0197342Y0126019D01*
X0197869Y0125492D01*
X0197869Y0121203D01*
X0197342Y0120676D01*
X0193841Y0120676D01*
X0193313Y0121203D01*
X0193313Y0122047D01*
X0189038Y0122047D01*
X0188276Y0122809D01*
X0188276Y0122809D01*
X0186749Y0124336D01*
X0185492Y0124336D01*
X0184730Y0125098D01*
X0184730Y0125098D01*
X0183958Y0125870D01*
X0183958Y0120428D01*
X0184156Y0120625D01*
X0186149Y0120625D01*
X0186289Y0120765D01*
X0186586Y0120937D01*
X0186916Y0121025D01*
X0187732Y0121025D01*
X0187732Y0116620D01*
X0187821Y0116620D01*
X0189765Y0116620D01*
X0189765Y0119896D01*
X0189677Y0120227D01*
X0189506Y0120523D01*
X0189264Y0120765D01*
X0188967Y0120937D01*
X0188637Y0121025D01*
X0187821Y0121025D01*
X0187821Y0116620D01*
X0187821Y0116531D01*
X0189765Y0116531D01*
X0189765Y0113255D01*
X0189677Y0112924D01*
X0189506Y0112628D01*
X0189264Y0112386D01*
X0188967Y0112215D01*
X0188637Y0112126D01*
X0187821Y0112126D01*
X0187821Y0116531D01*
X0187732Y0116531D01*
X0187732Y0112126D01*
X0187427Y0112126D01*
X0189033Y0110520D01*
X0189033Y0109991D01*
X0189510Y0110468D01*
X0192186Y0110468D01*
X0192024Y0110630D01*
X0192024Y0112443D01*
X0193307Y0113725D01*
X0193313Y0113725D01*
X0193313Y0117618D01*
X0193841Y0118145D01*
X0197342Y0118145D01*
X0197869Y0117618D01*
X0197869Y0114472D01*
X0198431Y0115034D01*
X0198431Y0117618D01*
X0198959Y0118145D01*
X0201787Y0118145D01*
X0201787Y0120676D01*
X0198959Y0120676D01*
X0198431Y0121203D01*
X0198431Y0125492D01*
X0198959Y0126019D01*
X0202460Y0126019D01*
X0202987Y0125492D01*
X0202987Y0124647D01*
X0211935Y0124647D01*
X0211935Y0126220D01*
X0212463Y0126747D01*
X0223208Y0126747D01*
X0223735Y0126220D01*
X0223735Y0120474D01*
X0223208Y0119947D01*
X0212463Y0119947D01*
X0211935Y0120474D01*
X0211935Y0122047D01*
X0206563Y0122047D01*
X0204387Y0119872D01*
X0204387Y0112749D01*
X0203626Y0111987D01*
X0199538Y0107899D01*
X0224409Y0107899D01*
X0224409Y0145669D01*
X0147932Y0145669D01*
X0139784Y0137521D01*
X0141766Y0137521D01*
X0142097Y0137433D01*
X0142393Y0137262D01*
X0142636Y0137019D01*
X0142807Y0136723D01*
X0142895Y0136392D01*
X0142895Y0131521D01*
X0139395Y0131521D01*
X0139395Y0130921D01*
X0139395Y0124921D01*
X0141766Y0124921D01*
X0142097Y0125010D01*
X0142393Y0125181D01*
X0142636Y0125423D01*
X0142807Y0125719D01*
X0142895Y0126050D01*
X0142895Y0130921D01*
X0139395Y0130921D01*
X0138795Y0130921D01*
X0138795Y0124921D01*
X0136424Y0124921D01*
X0136093Y0125010D01*
X0135797Y0125181D01*
X0135555Y0125423D01*
X0135384Y0125719D01*
X0135295Y0126050D01*
X0135295Y0130921D01*
X0138795Y0130921D01*
X0138795Y0131521D01*
X0135295Y0131521D01*
X0135295Y0136392D01*
X0135384Y0136723D01*
X0135555Y0137019D01*
X0135797Y0137262D01*
X0136093Y0137433D01*
X0136327Y0137495D01*
X0131288Y0137495D01*
X0131662Y0137121D01*
X0134094Y0137121D01*
X0134621Y0136594D01*
X0134621Y0125848D01*
X0134094Y0125321D01*
X0133899Y0125321D01*
X0133899Y0122082D01*
X0134350Y0122082D01*
X0134877Y0121555D01*
X0134877Y0117266D01*
X0134350Y0116739D01*
X0130848Y0116739D01*
X0130321Y0117266D01*
X0130321Y0121555D01*
X0130848Y0122082D01*
X0131299Y0122082D01*
X0131299Y0125321D01*
X0128348Y0125321D01*
X0128037Y0125633D01*
X0126019Y0123615D01*
X0126019Y0121596D01*
X0125492Y0121069D01*
X0120022Y0121069D01*
X0119494Y0121596D01*
X0119494Y0125098D01*
X0120022Y0125625D01*
X0123221Y0125625D01*
X0127821Y0130225D01*
X0127821Y0136154D01*
X0126580Y0137395D01*
X0123263Y0137395D01*
X0123263Y0136675D01*
X0122736Y0136148D01*
X0118053Y0136148D01*
X0117526Y0136675D01*
X0117526Y0137198D01*
X0115960Y0137198D01*
X0116120Y0137039D01*
X0116291Y0136743D01*
X0116380Y0136412D01*
X0116380Y0135400D01*
X0112959Y0135400D01*
X0112959Y0134917D01*
X0116380Y0134917D01*
X0116380Y0133904D01*
X0116291Y0133574D01*
X0116120Y0133277D01*
X0115878Y0133035D01*
X0115840Y0133013D01*
X0115980Y0132874D01*
X0115980Y0129963D01*
X0115452Y0129435D01*
X0113293Y0129435D01*
X0113256Y0129398D01*
X0111493Y0127635D01*
X0111493Y0126378D01*
X0110740Y0125625D01*
X0110925Y0125625D01*
X0111452Y0125098D01*
X0111452Y0121596D01*
X0110925Y0121069D01*
X0106741Y0121069D01*
X0101806Y0116134D01*
X0101806Y0113821D01*
X0101666Y0113681D01*
X0101704Y0113659D01*
X0101946Y0113417D01*
X0102117Y0113121D01*
X0102206Y0112790D01*
X0102206Y0111778D01*
X0098785Y0111778D01*
X0098785Y0111295D01*
X0102206Y0111295D01*
X0102206Y0110282D01*
X0102117Y0109952D01*
X0101946Y0109655D01*
X0101704Y0109413D01*
X0101666Y0109391D01*
X0101806Y0109252D01*
X0101806Y0106372D01*
X0105781Y0102397D01*
X0107972Y0102397D01*
X0108499Y0101870D01*
X0108499Y0097581D01*
X0107972Y0097054D01*
X0104471Y0097054D01*
X0103943Y0097581D01*
X0103943Y0100558D01*
X0103381Y0101120D01*
X0103381Y0097581D01*
X0102854Y0097054D01*
X0102803Y0097054D01*
X0102803Y0092764D01*
X0104794Y0090773D01*
X0104794Y0083874D01*
X0102594Y0081674D01*
X0102594Y0078093D01*
X0102066Y0077565D01*
X0101425Y0077565D01*
X0101425Y0075615D01*
X0104731Y0072309D01*
X0104731Y0075295D01*
X0105258Y0075822D01*
X0109547Y0075822D01*
X0110074Y0075295D01*
X0110074Y0071285D01*
X0110884Y0071285D01*
X0117122Y0065048D01*
X0117266Y0065192D01*
X0121555Y0065192D01*
X0122082Y0064665D01*
X0122082Y0063742D01*
X0122288Y0063535D01*
X0124847Y0060976D01*
X0124847Y0045511D01*
X0125047Y0045311D01*
X0125047Y0041374D01*
X0139536Y0026885D01*
X0141968Y0026885D01*
X0142495Y0026358D01*
X0142495Y0015612D01*
X0141968Y0015085D01*
X0136222Y0015085D01*
X0135695Y0015612D01*
X0135695Y0025918D01*
X0121647Y0039966D01*
X0121647Y0041953D01*
X0121487Y0041860D01*
X0121156Y0041772D01*
X0119312Y0041772D01*
X0119312Y0043623D01*
X0119312Y0043623D01*
X0119312Y0045474D01*
X0120359Y0045474D01*
X0119675Y0046158D01*
X0118893Y0046158D01*
X0118893Y0045612D01*
X0118755Y0045474D01*
X0119312Y0045474D01*
X0119312Y0043623D01*
X0119312Y0043623D01*
X0119312Y0041772D01*
X0117856Y0041772D01*
X0117856Y0040970D01*
X0110852Y0040970D01*
X0110852Y0040370D01*
X0117856Y0040370D01*
X0117856Y0039568D01*
X0119312Y0039568D01*
X0119312Y0037717D01*
X0119312Y0035866D01*
X0121156Y0035866D01*
X0121487Y0035955D01*
X0121783Y0036126D01*
X0122025Y0036368D01*
X0122196Y0036664D01*
X0122285Y0036995D01*
X0122285Y0037717D01*
X0119312Y0037717D01*
X0119312Y0037717D01*
X0119312Y0037717D01*
X0119312Y0035866D01*
X0118893Y0035866D01*
X0118893Y0034549D01*
X0118942Y0034500D01*
X0118942Y0031449D01*
X0119832Y0030559D01*
X0124051Y0030559D01*
X0125047Y0029563D01*
X0128037Y0026573D01*
X0128348Y0026885D01*
X0134094Y0026885D01*
X0134621Y0026358D01*
X0134621Y0015612D01*
X0134094Y0015085D01*
X0128348Y0015085D01*
X0127896Y0015538D01*
X0126009Y0013652D01*
X0125131Y0012773D01*
X0116323Y0012773D01*
X0115445Y0013652D01*
X0112949Y0016148D01*
X0109392Y0016148D01*
X0108865Y0016675D01*
X0108865Y0016926D01*
X0106334Y0016926D01*
X0106334Y0016675D01*
X0105807Y0016148D01*
X0101518Y0016148D01*
X0100991Y0016675D01*
X0100991Y0016926D01*
X0098460Y0016926D01*
X0098460Y0016675D01*
X0097933Y0016148D01*
X0093644Y0016148D01*
X0093117Y0016675D01*
X0093117Y0019866D01*
X0093064Y0019866D01*
X0092302Y0020628D01*
X0092302Y0020628D01*
X0090686Y0022244D01*
X0090586Y0022244D01*
X0090586Y0021793D01*
X0090059Y0021266D01*
X0085770Y0021266D01*
X0085243Y0021793D01*
X0085243Y0025295D01*
X0085770Y0025822D01*
X0086614Y0025822D01*
X0086614Y0029699D01*
X0086188Y0030124D01*
X0083604Y0030124D01*
X0083077Y0030652D01*
X0083077Y0034941D01*
X0083604Y0035468D01*
X0087106Y0035468D01*
X0087633Y0034941D01*
X0087633Y0032357D01*
X0088195Y0031794D01*
X0088195Y0034941D01*
X0088722Y0035468D01*
X0089173Y0035468D01*
X0089173Y0037998D01*
X0088722Y0037998D01*
X0088195Y0038526D01*
X0088195Y0042815D01*
X0088722Y0043342D01*
X0089173Y0043342D01*
X0089173Y0043442D01*
X0087557Y0045058D01*
X0087092Y0045523D01*
X0086904Y0045472D01*
X0085655Y0045472D01*
X0085655Y0048244D01*
X0085055Y0048244D01*
X0082677Y0048244D01*
X0082677Y0046601D01*
X0082766Y0046271D01*
X0082937Y0045974D01*
X0083179Y0045732D01*
X0083475Y0045561D01*
X0083806Y0045472D01*
X0085055Y0045472D01*
X0085055Y0048244D01*
X0085055Y0048844D01*
X0082677Y0048844D01*
X0082677Y0050487D01*
X0082766Y0050818D01*
X0082937Y0051114D01*
X0083179Y0051356D01*
X0083475Y0051527D01*
X0083806Y0051616D01*
X0085055Y0051616D01*
X0085055Y0048844D01*
X0085655Y0048844D01*
X0085655Y0051616D01*
X0086795Y0051616D01*
X0086795Y0054128D01*
X0086795Y0055205D01*
X0093117Y0061527D01*
X0093117Y0064665D01*
X0093644Y0065192D01*
X0096236Y0065192D01*
X0089003Y0072425D01*
X0087946Y0072425D01*
X0087360Y0073011D01*
X0086598Y0073772D01*
X0086598Y0081263D01*
X0092840Y0087505D01*
X0092840Y0097619D01*
X0092758Y0097536D01*
X0090944Y0097536D01*
X0089883Y0098598D01*
X0088821Y0097536D01*
X0087007Y0097536D01*
X0085725Y0098818D01*
X0085725Y0100632D01*
X0086614Y0101521D01*
X0086614Y0103911D01*
X0085277Y0105248D01*
X0085277Y0059817D01*
X0080579Y0055118D01*
X0079857Y0055118D01*
X0080153Y0054822D01*
X0080153Y0054670D01*
X0080947Y0054670D01*
X0082229Y0053388D01*
X0082229Y0051574D01*
X0080947Y0050292D01*
X0080153Y0050292D01*
X0080153Y0050140D01*
X0079626Y0049613D01*
X0073368Y0049613D01*
X0072841Y0050140D01*
X0072841Y0051908D01*
X0071491Y0050558D01*
X0071491Y0046400D01*
X0070964Y0045872D01*
X0064707Y0045872D01*
X0064180Y0046400D01*
X0064180Y0047441D01*
X0063027Y0047441D01*
X0063027Y0045415D01*
X0062500Y0044888D01*
X0058211Y0044888D01*
X0057683Y0045415D01*
X0057683Y0048917D01*
X0058211Y0049444D01*
X0060795Y0049444D01*
X0061391Y0050041D01*
X0064180Y0050041D01*
X0064180Y0051082D01*
X0064707Y0051609D01*
X0068865Y0051609D01*
X0070609Y0053353D01*
X0064707Y0053353D01*
X0064180Y0053880D01*
X0064180Y0054921D01*
X0062075Y0054921D01*
X0055153Y0047999D01*
X0055153Y0045415D01*
X0054626Y0044888D01*
X0051479Y0044888D01*
X0052042Y0044326D01*
X0054626Y0044326D01*
X0055153Y0043799D01*
X0055153Y0041215D01*
X0062075Y0034293D01*
X0064180Y0034293D01*
X0064180Y0035334D01*
X0064707Y0035861D01*
X0070964Y0035861D01*
X0071491Y0035334D01*
X0071491Y0033566D01*
X0072841Y0034916D01*
X0072841Y0039074D01*
X0073368Y0039602D01*
X0079626Y0039602D01*
X0080153Y0039074D01*
X0080153Y0038922D01*
X0080947Y0038922D01*
X0082229Y0037640D01*
X0082229Y0035826D01*
X0080947Y0034544D01*
X0080153Y0034544D01*
X0080153Y0034392D01*
X0079626Y0033865D01*
X0075467Y0033865D01*
X0072891Y0031289D01*
X0072891Y0030072D01*
X0069529Y0026709D01*
X0069529Y0021885D01*
X0070374Y0021885D01*
X0070901Y0021358D01*
X0070901Y0017856D01*
X0070374Y0017329D01*
X0066085Y0017329D01*
X0065557Y0017856D01*
X0065557Y0021358D01*
X0066085Y0021885D01*
X0066929Y0021885D01*
X0066929Y0027786D01*
X0069267Y0030124D01*
X0064707Y0030124D01*
X0064180Y0030652D01*
X0064180Y0031693D01*
X0060998Y0031693D01*
X0060236Y0032454D01*
X0052921Y0039770D01*
X0050337Y0039770D01*
X0049809Y0040297D01*
X0049809Y0042881D01*
X0047244Y0045447D01*
X0047244Y0057087D01*
X0047228Y0057103D01*
X0047228Y0095103D01*
X0047244Y0095119D01*
X0047244Y0112075D01*
X0048006Y0112836D01*
X0048381Y0113212D01*
X0048381Y0113235D01*
X0059436Y0124289D01*
X0062646Y0124289D01*
X0063408Y0123527D01*
X0063994Y0122942D01*
X0063994Y0122889D01*
X0064035Y0122889D01*
X0064056Y0122868D01*
X0064077Y0122889D01*
X0065709Y0122889D01*
X0065709Y0126602D01*
X0067383Y0128276D01*
X0068144Y0129038D01*
X0069952Y0129038D01*
X0069898Y0129092D01*
X0068669Y0130321D01*
X0066085Y0130321D01*
X0065557Y0130848D01*
X0065557Y0134350D01*
X0066085Y0134877D01*
X0070374Y0134877D01*
X0070901Y0134350D01*
X0070901Y0131766D01*
X0071736Y0130931D01*
X0073628Y0130931D01*
X0073628Y0134153D01*
X0074156Y0134680D01*
X0078051Y0134680D01*
X0078578Y0134153D01*
X0078578Y0133505D01*
X0080486Y0133505D01*
X0084514Y0137534D01*
X0084514Y0144468D01*
X0085041Y0144995D01*
X0090787Y0144995D01*
X0091314Y0144468D01*
X0091314Y0140795D01*
X0091332Y0140795D01*
X0092732Y0142195D01*
X0098844Y0142195D01*
X0100158Y0140881D01*
X0105216Y0140881D01*
X0105743Y0140354D01*
X0105743Y0138040D01*
X0107319Y0136465D01*
X0108315Y0135469D01*
X0108315Y0129391D01*
X0108397Y0129473D01*
X0109654Y0129473D01*
X0109799Y0129618D01*
X0109455Y0129963D01*
X0109455Y0132874D01*
X0109595Y0133013D01*
X0109557Y0133035D01*
X0109315Y0133277D01*
X0109144Y0133574D01*
X0109055Y0133904D01*
X0109055Y0134917D01*
X0112476Y0134917D01*
X0112476Y0135400D01*
X0109055Y0135400D01*
X0109055Y0136412D01*
X0109144Y0136743D01*
X0109315Y0137039D01*
X0109557Y0137281D01*
X0109595Y0137303D01*
X0109455Y0137443D01*
X0109455Y0140354D01*
X0109982Y0140881D01*
X0115452Y0140881D01*
X0115735Y0140598D01*
X0117526Y0140598D01*
X0117526Y0141752D01*
X0118053Y0142279D01*
X0122736Y0142279D01*
X0123263Y0141752D01*
X0123263Y0140795D01*
X0127259Y0140795D01*
X0122384Y0145669D01*
X0045907Y0145669D01*
X0045907Y0145289D02*
X0122765Y0145289D01*
X0123364Y0144690D02*
X0091092Y0144690D01*
X0091314Y0144092D02*
X0123962Y0144092D01*
X0124561Y0143493D02*
X0091314Y0143493D01*
X0091314Y0142895D02*
X0125159Y0142895D01*
X0125758Y0142296D02*
X0091314Y0142296D01*
X0091314Y0141698D02*
X0092235Y0141698D01*
X0091636Y0141099D02*
X0091314Y0141099D01*
X0091314Y0137395D02*
X0092741Y0137395D01*
X0093117Y0137771D01*
X0093117Y0135967D01*
X0093644Y0135439D01*
X0096621Y0135439D01*
X0096784Y0135277D01*
X0096088Y0135277D01*
X0096088Y0132899D01*
X0098860Y0132899D01*
X0098860Y0133201D01*
X0099219Y0132842D01*
X0099219Y0129963D01*
X0099746Y0129435D01*
X0104915Y0129435D01*
X0104915Y0125191D01*
X0104144Y0125961D01*
X0102330Y0125961D01*
X0101048Y0124679D01*
X0101048Y0123422D01*
X0097067Y0119441D01*
X0097067Y0119970D01*
X0086106Y0130931D01*
X0081588Y0130931D01*
X0084514Y0133857D01*
X0084514Y0133722D01*
X0085041Y0133195D01*
X0090787Y0133195D01*
X0091314Y0133722D01*
X0091314Y0137395D01*
X0091314Y0136909D02*
X0093117Y0136909D01*
X0093117Y0136311D02*
X0091314Y0136311D01*
X0091314Y0135712D02*
X0093371Y0135712D01*
X0093515Y0135189D02*
X0093218Y0135017D01*
X0092976Y0134775D01*
X0092805Y0134479D01*
X0092717Y0134148D01*
X0092717Y0132899D01*
X0095488Y0132899D01*
X0095488Y0132299D01*
X0096088Y0132299D01*
X0096088Y0129921D01*
X0097731Y0129921D01*
X0098062Y0130010D01*
X0098358Y0130181D01*
X0098600Y0130423D01*
X0098771Y0130719D01*
X0098860Y0131050D01*
X0098860Y0132299D01*
X0096088Y0132299D01*
X0096088Y0132899D01*
X0095488Y0132899D01*
X0095488Y0135277D01*
X0093845Y0135277D01*
X0093515Y0135189D01*
X0093386Y0135114D02*
X0091314Y0135114D01*
X0091314Y0134515D02*
X0092826Y0134515D01*
X0092717Y0133917D02*
X0091314Y0133917D01*
X0090910Y0133318D02*
X0092717Y0133318D01*
X0092717Y0132299D02*
X0092717Y0131050D01*
X0092805Y0130719D01*
X0092976Y0130423D01*
X0093218Y0130181D01*
X0093515Y0130010D01*
X0093845Y0129921D01*
X0095488Y0129921D01*
X0095488Y0132299D01*
X0092717Y0132299D01*
X0092717Y0132121D02*
X0082779Y0132121D01*
X0082180Y0131523D02*
X0092717Y0131523D01*
X0092750Y0130924D02*
X0086113Y0130924D01*
X0086711Y0130326D02*
X0093073Y0130326D01*
X0095488Y0130326D02*
X0096088Y0130326D01*
X0096088Y0130924D02*
X0095488Y0130924D01*
X0095488Y0131523D02*
X0096088Y0131523D01*
X0096088Y0132121D02*
X0095488Y0132121D01*
X0095488Y0132720D02*
X0083377Y0132720D01*
X0083976Y0133318D02*
X0084918Y0133318D01*
X0082094Y0135114D02*
X0064475Y0135114D01*
X0064475Y0135712D02*
X0065812Y0135712D01*
X0065557Y0135967D02*
X0066085Y0135439D01*
X0070374Y0135439D01*
X0070901Y0135967D01*
X0070901Y0136811D01*
X0073628Y0136811D01*
X0073628Y0136163D01*
X0074156Y0135636D01*
X0078051Y0135636D01*
X0078578Y0136163D01*
X0078578Y0140059D01*
X0078051Y0140586D01*
X0074156Y0140586D01*
X0073628Y0140059D01*
X0073628Y0139411D01*
X0070901Y0139411D01*
X0070901Y0139468D01*
X0070374Y0139995D01*
X0066085Y0139995D01*
X0065557Y0139468D01*
X0065557Y0135967D01*
X0065557Y0136311D02*
X0064475Y0136311D01*
X0064475Y0136871D02*
X0063082Y0140000D01*
X0060537Y0142292D01*
X0057279Y0143350D01*
X0053873Y0142992D01*
X0050906Y0141280D01*
X0048893Y0138509D01*
X0048181Y0135158D01*
X0048893Y0131808D01*
X0050906Y0129037D01*
X0053873Y0127324D01*
X0057279Y0126966D01*
X0060537Y0128025D01*
X0063082Y0130317D01*
X0064475Y0133446D01*
X0064475Y0136871D01*
X0064458Y0136909D02*
X0065557Y0136909D01*
X0065557Y0137508D02*
X0064191Y0137508D01*
X0063925Y0138107D02*
X0065557Y0138107D01*
X0065557Y0138705D02*
X0063658Y0138705D01*
X0063392Y0139304D02*
X0065557Y0139304D01*
X0065991Y0139902D02*
X0063126Y0139902D01*
X0062526Y0140501D02*
X0074070Y0140501D01*
X0073628Y0139902D02*
X0070467Y0139902D01*
X0070901Y0136311D02*
X0073628Y0136311D01*
X0074079Y0135712D02*
X0070647Y0135712D01*
X0070735Y0134515D02*
X0073991Y0134515D01*
X0073628Y0133917D02*
X0070901Y0133917D01*
X0070901Y0133318D02*
X0073628Y0133318D01*
X0073628Y0132720D02*
X0070901Y0132720D01*
X0070901Y0132121D02*
X0073628Y0132121D01*
X0073628Y0131523D02*
X0071144Y0131523D01*
X0069263Y0129727D02*
X0062427Y0129727D01*
X0063086Y0130326D02*
X0066080Y0130326D01*
X0065557Y0130924D02*
X0063353Y0130924D01*
X0063619Y0131523D02*
X0065557Y0131523D01*
X0065557Y0132121D02*
X0063885Y0132121D01*
X0064152Y0132720D02*
X0065557Y0132720D01*
X0065557Y0133318D02*
X0064418Y0133318D01*
X0064475Y0133917D02*
X0065557Y0133917D01*
X0065723Y0134515D02*
X0064475Y0134515D01*
X0061763Y0129129D02*
X0069861Y0129129D01*
X0067637Y0128530D02*
X0061098Y0128530D01*
X0060250Y0127932D02*
X0067038Y0127932D01*
X0066440Y0127333D02*
X0058408Y0127333D01*
X0058889Y0123742D02*
X0045907Y0123742D01*
X0045907Y0123144D02*
X0058290Y0123144D01*
X0057692Y0122545D02*
X0045907Y0122545D01*
X0045907Y0121947D02*
X0057093Y0121947D01*
X0056495Y0121348D02*
X0045907Y0121348D01*
X0045907Y0120750D02*
X0055896Y0120750D01*
X0055298Y0120151D02*
X0045907Y0120151D01*
X0045907Y0119553D02*
X0054699Y0119553D01*
X0054101Y0118954D02*
X0045907Y0118954D01*
X0045907Y0118356D02*
X0053502Y0118356D01*
X0052904Y0117757D02*
X0045907Y0117757D01*
X0045907Y0117159D02*
X0052305Y0117159D01*
X0051707Y0116560D02*
X0045907Y0116560D01*
X0045907Y0115962D02*
X0051108Y0115962D01*
X0050510Y0115363D02*
X0045907Y0115363D01*
X0045907Y0114765D02*
X0049911Y0114765D01*
X0049313Y0114166D02*
X0045907Y0114166D01*
X0045907Y0113568D02*
X0048714Y0113568D01*
X0048138Y0112969D02*
X0045907Y0112969D01*
X0045907Y0112371D02*
X0047540Y0112371D01*
X0047244Y0111772D02*
X0045907Y0111772D01*
X0045907Y0111174D02*
X0047244Y0111174D01*
X0047244Y0110575D02*
X0045907Y0110575D01*
X0045907Y0109976D02*
X0047244Y0109976D01*
X0047244Y0109378D02*
X0045907Y0109378D01*
X0045907Y0108779D02*
X0047244Y0108779D01*
X0047244Y0108181D02*
X0045907Y0108181D01*
X0045907Y0107582D02*
X0047244Y0107582D01*
X0047244Y0106984D02*
X0045907Y0106984D01*
X0045907Y0106385D02*
X0047244Y0106385D01*
X0047244Y0105787D02*
X0045907Y0105787D01*
X0045907Y0105188D02*
X0047244Y0105188D01*
X0047244Y0104590D02*
X0045907Y0104590D01*
X0045907Y0103991D02*
X0047244Y0103991D01*
X0047244Y0103393D02*
X0045907Y0103393D01*
X0045907Y0102794D02*
X0047244Y0102794D01*
X0047244Y0102196D02*
X0045907Y0102196D01*
X0045907Y0101597D02*
X0047244Y0101597D01*
X0047244Y0100999D02*
X0045907Y0100999D01*
X0045907Y0100400D02*
X0047244Y0100400D01*
X0047244Y0099802D02*
X0045907Y0099802D01*
X0045907Y0099203D02*
X0047244Y0099203D01*
X0047244Y0098605D02*
X0045907Y0098605D01*
X0045907Y0098006D02*
X0047244Y0098006D01*
X0047244Y0097408D02*
X0045907Y0097408D01*
X0045907Y0096809D02*
X0047244Y0096809D01*
X0047244Y0096211D02*
X0045907Y0096211D01*
X0045907Y0095612D02*
X0047244Y0095612D01*
X0047228Y0095014D02*
X0045907Y0095014D01*
X0045907Y0094415D02*
X0047228Y0094415D01*
X0047228Y0093817D02*
X0045907Y0093817D01*
X0045907Y0093218D02*
X0047228Y0093218D01*
X0047228Y0092620D02*
X0045907Y0092620D01*
X0045907Y0092021D02*
X0047228Y0092021D01*
X0047228Y0091423D02*
X0045907Y0091423D01*
X0045907Y0090824D02*
X0047228Y0090824D01*
X0047228Y0090226D02*
X0045907Y0090226D01*
X0045907Y0089627D02*
X0047228Y0089627D01*
X0047228Y0089029D02*
X0045907Y0089029D01*
X0045907Y0088430D02*
X0047228Y0088430D01*
X0047228Y0087832D02*
X0045907Y0087832D01*
X0045907Y0087233D02*
X0047228Y0087233D01*
X0047228Y0086635D02*
X0045907Y0086635D01*
X0045907Y0086036D02*
X0047228Y0086036D01*
X0047228Y0085438D02*
X0045907Y0085438D01*
X0045907Y0084839D02*
X0047228Y0084839D01*
X0047228Y0084241D02*
X0045907Y0084241D01*
X0045907Y0083642D02*
X0047228Y0083642D01*
X0047228Y0083043D02*
X0045907Y0083043D01*
X0045907Y0082445D02*
X0047228Y0082445D01*
X0047228Y0081846D02*
X0045907Y0081846D01*
X0045907Y0081248D02*
X0047228Y0081248D01*
X0047228Y0080649D02*
X0045907Y0080649D01*
X0045907Y0080051D02*
X0047228Y0080051D01*
X0047228Y0079452D02*
X0045907Y0079452D01*
X0045907Y0078854D02*
X0047228Y0078854D01*
X0047228Y0078255D02*
X0045907Y0078255D01*
X0045907Y0077657D02*
X0047228Y0077657D01*
X0047228Y0077058D02*
X0045907Y0077058D01*
X0045907Y0076460D02*
X0047228Y0076460D01*
X0047228Y0075861D02*
X0045907Y0075861D01*
X0045907Y0075263D02*
X0047228Y0075263D01*
X0047228Y0074664D02*
X0045907Y0074664D01*
X0045907Y0074066D02*
X0047228Y0074066D01*
X0047228Y0073467D02*
X0045907Y0073467D01*
X0045907Y0072869D02*
X0047228Y0072869D01*
X0047228Y0072270D02*
X0045907Y0072270D01*
X0045907Y0071672D02*
X0047228Y0071672D01*
X0047228Y0071073D02*
X0045907Y0071073D01*
X0045907Y0070475D02*
X0047228Y0070475D01*
X0047228Y0069876D02*
X0045907Y0069876D01*
X0045907Y0069278D02*
X0047228Y0069278D01*
X0047228Y0068679D02*
X0045907Y0068679D01*
X0045907Y0068081D02*
X0047228Y0068081D01*
X0047228Y0067482D02*
X0045907Y0067482D01*
X0045907Y0066884D02*
X0047228Y0066884D01*
X0047228Y0066285D02*
X0045907Y0066285D01*
X0045907Y0065687D02*
X0047228Y0065687D01*
X0047228Y0065088D02*
X0045907Y0065088D01*
X0045907Y0064490D02*
X0047228Y0064490D01*
X0047228Y0063891D02*
X0045907Y0063891D01*
X0045907Y0063293D02*
X0047228Y0063293D01*
X0047228Y0062694D02*
X0045907Y0062694D01*
X0045907Y0062096D02*
X0047228Y0062096D01*
X0047228Y0061497D02*
X0045907Y0061497D01*
X0045907Y0060899D02*
X0047228Y0060899D01*
X0047228Y0060300D02*
X0045907Y0060300D01*
X0045907Y0059702D02*
X0047228Y0059702D01*
X0047228Y0059103D02*
X0045907Y0059103D01*
X0045907Y0058505D02*
X0047228Y0058505D01*
X0047228Y0057906D02*
X0045907Y0057906D01*
X0045907Y0057307D02*
X0047228Y0057307D01*
X0047244Y0056709D02*
X0045907Y0056709D01*
X0045907Y0056110D02*
X0047244Y0056110D01*
X0047244Y0055512D02*
X0045907Y0055512D01*
X0045907Y0054913D02*
X0047244Y0054913D01*
X0047244Y0054315D02*
X0045907Y0054315D01*
X0045907Y0053716D02*
X0047244Y0053716D01*
X0047244Y0053118D02*
X0045907Y0053118D01*
X0045907Y0052519D02*
X0047244Y0052519D01*
X0047244Y0051921D02*
X0045907Y0051921D01*
X0045907Y0051322D02*
X0047244Y0051322D01*
X0047244Y0050724D02*
X0045907Y0050724D01*
X0045907Y0050125D02*
X0047244Y0050125D01*
X0047244Y0049527D02*
X0045907Y0049527D01*
X0045907Y0048928D02*
X0047244Y0048928D01*
X0047244Y0048330D02*
X0045907Y0048330D01*
X0045907Y0047731D02*
X0047244Y0047731D01*
X0047244Y0047133D02*
X0045907Y0047133D01*
X0045907Y0046534D02*
X0047244Y0046534D01*
X0047244Y0045936D02*
X0045907Y0045936D01*
X0045907Y0045337D02*
X0047353Y0045337D01*
X0047952Y0044739D02*
X0045907Y0044739D01*
X0045907Y0044140D02*
X0048550Y0044140D01*
X0049149Y0043542D02*
X0045907Y0043542D01*
X0045907Y0042943D02*
X0049747Y0042943D01*
X0049809Y0042345D02*
X0045907Y0042345D01*
X0045907Y0041746D02*
X0049809Y0041746D01*
X0049809Y0041148D02*
X0045907Y0041148D01*
X0045907Y0040549D02*
X0049809Y0040549D01*
X0050156Y0039951D02*
X0045907Y0039951D01*
X0045907Y0039352D02*
X0053338Y0039352D01*
X0053937Y0038754D02*
X0045907Y0038754D01*
X0045907Y0038155D02*
X0054536Y0038155D01*
X0055134Y0037557D02*
X0045907Y0037557D01*
X0045907Y0036958D02*
X0055733Y0036958D01*
X0056331Y0036360D02*
X0045907Y0036360D01*
X0045907Y0035761D02*
X0056930Y0035761D01*
X0057528Y0035163D02*
X0045907Y0035163D01*
X0045907Y0034564D02*
X0058127Y0034564D01*
X0058725Y0033966D02*
X0045907Y0033966D01*
X0045907Y0033367D02*
X0059324Y0033367D01*
X0059922Y0032769D02*
X0045907Y0032769D01*
X0045907Y0032170D02*
X0060521Y0032170D01*
X0061804Y0034564D02*
X0064180Y0034564D01*
X0064180Y0035163D02*
X0061205Y0035163D01*
X0060607Y0035761D02*
X0064606Y0035761D01*
X0064707Y0037605D02*
X0064180Y0038132D01*
X0064180Y0039370D01*
X0059817Y0039370D01*
X0059417Y0039770D01*
X0058211Y0039770D01*
X0057683Y0040297D01*
X0057683Y0043799D01*
X0058211Y0044326D01*
X0062500Y0044326D01*
X0063027Y0043799D01*
X0063027Y0041970D01*
X0064180Y0041970D01*
X0064180Y0042815D01*
X0064707Y0043342D01*
X0070964Y0043342D01*
X0071491Y0042815D01*
X0071491Y0038132D01*
X0070964Y0037605D01*
X0064707Y0037605D01*
X0064180Y0038155D02*
X0058212Y0038155D01*
X0057614Y0038754D02*
X0064180Y0038754D01*
X0064180Y0039352D02*
X0057015Y0039352D01*
X0056417Y0039951D02*
X0058030Y0039951D01*
X0057683Y0040549D02*
X0055818Y0040549D01*
X0055220Y0041148D02*
X0057683Y0041148D01*
X0057683Y0041746D02*
X0055153Y0041746D01*
X0055153Y0042345D02*
X0057683Y0042345D01*
X0057683Y0042943D02*
X0055153Y0042943D01*
X0055153Y0043542D02*
X0057683Y0043542D01*
X0058025Y0044140D02*
X0054811Y0044140D01*
X0055075Y0045337D02*
X0057762Y0045337D01*
X0057683Y0045936D02*
X0055153Y0045936D01*
X0055153Y0046534D02*
X0057683Y0046534D01*
X0057683Y0047133D02*
X0055153Y0047133D01*
X0055153Y0047731D02*
X0057683Y0047731D01*
X0057683Y0048330D02*
X0055483Y0048330D01*
X0056082Y0048928D02*
X0057695Y0048928D01*
X0056680Y0049527D02*
X0060877Y0049527D01*
X0058476Y0051322D02*
X0064420Y0051322D01*
X0064180Y0050724D02*
X0057877Y0050724D01*
X0057279Y0050125D02*
X0064180Y0050125D01*
X0064180Y0047133D02*
X0063027Y0047133D01*
X0063027Y0046534D02*
X0064180Y0046534D01*
X0064643Y0045936D02*
X0063027Y0045936D01*
X0062949Y0045337D02*
X0087278Y0045337D01*
X0087876Y0044739D02*
X0051629Y0044739D01*
X0049844Y0048952D02*
X0049844Y0057156D01*
X0055807Y0057156D01*
X0056334Y0057683D01*
X0056334Y0065515D01*
X0055807Y0066043D01*
X0049828Y0066043D01*
X0049828Y0086164D01*
X0055118Y0086164D01*
X0055118Y0079502D01*
X0055880Y0078740D01*
X0059455Y0075165D01*
X0059455Y0074943D01*
X0059574Y0074824D01*
X0059455Y0074704D01*
X0059455Y0072711D01*
X0059315Y0072571D01*
X0059144Y0072274D01*
X0059055Y0071944D01*
X0059055Y0071079D01*
X0059394Y0071079D01*
X0059206Y0070891D01*
X0059055Y0070891D01*
X0059055Y0070740D01*
X0058622Y0070307D01*
X0058169Y0069214D01*
X0058169Y0068031D01*
X0058622Y0066939D01*
X0059458Y0066102D01*
X0060551Y0065650D01*
X0061734Y0065650D01*
X0062827Y0066102D01*
X0063663Y0066939D01*
X0064116Y0068031D01*
X0064116Y0068898D01*
X0066038Y0068898D01*
X0066369Y0068986D01*
X0066665Y0069157D01*
X0066907Y0069399D01*
X0067078Y0069696D01*
X0067167Y0070026D01*
X0067167Y0070891D01*
X0063205Y0070891D01*
X0063205Y0071079D01*
X0067167Y0071079D01*
X0067167Y0071944D01*
X0067078Y0072274D01*
X0066907Y0072571D01*
X0066767Y0072711D01*
X0066767Y0074704D01*
X0066648Y0074824D01*
X0066767Y0074943D01*
X0066767Y0077263D01*
X0066648Y0077383D01*
X0066767Y0077502D01*
X0066767Y0079521D01*
X0067525Y0079521D01*
X0071057Y0075990D01*
X0074403Y0072643D01*
X0074403Y0067692D01*
X0070730Y0067692D01*
X0070203Y0067165D01*
X0070203Y0061419D01*
X0070730Y0060892D01*
X0081476Y0060892D01*
X0082003Y0061419D01*
X0082003Y0067165D01*
X0081476Y0067692D01*
X0077803Y0067692D01*
X0077803Y0073825D01*
X0079429Y0073825D01*
X0079956Y0074352D01*
X0079956Y0077854D01*
X0079429Y0078381D01*
X0073959Y0078381D01*
X0073716Y0078138D01*
X0073461Y0078394D01*
X0071519Y0080335D01*
X0072292Y0081109D01*
X0075295Y0081109D01*
X0075822Y0081636D01*
X0075822Y0086318D01*
X0075295Y0086846D01*
X0074457Y0086846D01*
X0074457Y0088028D01*
X0071533Y0090951D01*
X0074311Y0090951D01*
X0074838Y0091478D01*
X0074838Y0091929D01*
X0077565Y0091929D01*
X0077565Y0090888D01*
X0078093Y0090361D01*
X0081988Y0090361D01*
X0082515Y0090888D01*
X0082515Y0094783D01*
X0081988Y0095310D01*
X0078093Y0095310D01*
X0077565Y0094783D01*
X0077565Y0094529D01*
X0074838Y0094529D01*
X0074838Y0094980D01*
X0074311Y0095507D01*
X0070022Y0095507D01*
X0069494Y0094980D01*
X0069494Y0092990D01*
X0065992Y0096492D01*
X0065992Y0100429D01*
X0064572Y0101850D01*
X0064572Y0103963D01*
X0066003Y0103963D01*
X0066024Y0103984D01*
X0066045Y0103963D01*
X0067972Y0103963D01*
X0067993Y0103984D01*
X0068014Y0103963D01*
X0069941Y0103963D01*
X0069961Y0103984D01*
X0069982Y0103963D01*
X0071909Y0103963D01*
X0072436Y0104490D01*
X0072436Y0104506D01*
X0072868Y0104075D01*
X0077565Y0099377D01*
X0077565Y0096793D01*
X0078093Y0096266D01*
X0081988Y0096266D01*
X0082515Y0096793D01*
X0082515Y0100689D01*
X0081988Y0101216D01*
X0079404Y0101216D01*
X0078020Y0102600D01*
X0078136Y0102600D01*
X0078299Y0102762D01*
X0082185Y0102762D01*
X0082677Y0103255D01*
X0082677Y0086706D01*
X0082655Y0086744D01*
X0082413Y0086986D01*
X0082117Y0087157D01*
X0081786Y0087246D01*
X0079750Y0087246D01*
X0079750Y0084277D01*
X0079150Y0084277D01*
X0079150Y0087246D01*
X0077113Y0087246D01*
X0076782Y0087157D01*
X0076486Y0086986D01*
X0076244Y0086744D01*
X0076073Y0086447D01*
X0075984Y0086117D01*
X0075984Y0084277D01*
X0079150Y0084277D01*
X0079150Y0083677D01*
X0079750Y0083677D01*
X0079750Y0080709D01*
X0081786Y0080709D01*
X0082117Y0080797D01*
X0082413Y0080968D01*
X0082655Y0081210D01*
X0082677Y0081248D01*
X0082677Y0081248D01*
X0082677Y0060894D01*
X0079502Y0057718D01*
X0073757Y0057718D01*
X0072995Y0056957D01*
X0071491Y0055453D01*
X0071491Y0058563D01*
X0070964Y0059090D01*
X0064707Y0059090D01*
X0064180Y0058563D01*
X0064180Y0057521D01*
X0060998Y0057521D01*
X0060236Y0056760D01*
X0052921Y0049444D01*
X0050337Y0049444D01*
X0049844Y0048952D01*
X0049844Y0049527D02*
X0053003Y0049527D01*
X0053602Y0050125D02*
X0049844Y0050125D01*
X0049844Y0050724D02*
X0054200Y0050724D01*
X0054799Y0051322D02*
X0049844Y0051322D01*
X0049844Y0051921D02*
X0055397Y0051921D01*
X0055996Y0052519D02*
X0049844Y0052519D01*
X0049844Y0053118D02*
X0056594Y0053118D01*
X0057193Y0053716D02*
X0049844Y0053716D01*
X0049844Y0054315D02*
X0057791Y0054315D01*
X0058390Y0054913D02*
X0049844Y0054913D01*
X0049844Y0055512D02*
X0058988Y0055512D01*
X0059587Y0056110D02*
X0049844Y0056110D01*
X0049844Y0056709D02*
X0060185Y0056709D01*
X0060784Y0057307D02*
X0055958Y0057307D01*
X0056334Y0057906D02*
X0064180Y0057906D01*
X0064180Y0058505D02*
X0056334Y0058505D01*
X0056334Y0059103D02*
X0080887Y0059103D01*
X0081485Y0059702D02*
X0056334Y0059702D01*
X0056334Y0060300D02*
X0082084Y0060300D01*
X0082677Y0060899D02*
X0081482Y0060899D01*
X0082003Y0061497D02*
X0082677Y0061497D01*
X0082677Y0062096D02*
X0082003Y0062096D01*
X0082003Y0062694D02*
X0082677Y0062694D01*
X0082677Y0063293D02*
X0082003Y0063293D01*
X0082003Y0063891D02*
X0082677Y0063891D01*
X0082677Y0064490D02*
X0082003Y0064490D01*
X0082003Y0065088D02*
X0082677Y0065088D01*
X0082677Y0065687D02*
X0082003Y0065687D01*
X0082003Y0066285D02*
X0082677Y0066285D01*
X0082677Y0066884D02*
X0082003Y0066884D01*
X0081686Y0067482D02*
X0082677Y0067482D01*
X0082677Y0068081D02*
X0077803Y0068081D01*
X0077803Y0068679D02*
X0082677Y0068679D01*
X0082677Y0069278D02*
X0077803Y0069278D01*
X0077803Y0069876D02*
X0082677Y0069876D01*
X0082677Y0070475D02*
X0077803Y0070475D01*
X0077803Y0071073D02*
X0082677Y0071073D01*
X0082677Y0071672D02*
X0077803Y0071672D01*
X0077803Y0072270D02*
X0082677Y0072270D01*
X0082677Y0072869D02*
X0077803Y0072869D01*
X0077803Y0073467D02*
X0082677Y0073467D01*
X0082677Y0074066D02*
X0079669Y0074066D01*
X0079956Y0074664D02*
X0082677Y0074664D01*
X0082677Y0075263D02*
X0079956Y0075263D01*
X0079956Y0075861D02*
X0082677Y0075861D01*
X0082677Y0076460D02*
X0079956Y0076460D01*
X0079956Y0077058D02*
X0082677Y0077058D01*
X0082677Y0077657D02*
X0079956Y0077657D01*
X0079554Y0078255D02*
X0082677Y0078255D01*
X0082677Y0078854D02*
X0073001Y0078854D01*
X0073599Y0078255D02*
X0073833Y0078255D01*
X0072402Y0079452D02*
X0082677Y0079452D01*
X0082677Y0080051D02*
X0071804Y0080051D01*
X0071833Y0080649D02*
X0082677Y0080649D01*
X0085277Y0080649D02*
X0086598Y0080649D01*
X0086598Y0080051D02*
X0085277Y0080051D01*
X0085277Y0079452D02*
X0086598Y0079452D01*
X0086598Y0078854D02*
X0085277Y0078854D01*
X0085277Y0078255D02*
X0086598Y0078255D01*
X0086598Y0077657D02*
X0085277Y0077657D01*
X0085277Y0077058D02*
X0086598Y0077058D01*
X0086598Y0076460D02*
X0085277Y0076460D01*
X0085277Y0075861D02*
X0086598Y0075861D01*
X0086598Y0075263D02*
X0085277Y0075263D01*
X0085277Y0074664D02*
X0086598Y0074664D01*
X0086598Y0074066D02*
X0085277Y0074066D01*
X0085277Y0073467D02*
X0086904Y0073467D01*
X0087502Y0072869D02*
X0085277Y0072869D01*
X0085277Y0072270D02*
X0089157Y0072270D01*
X0089756Y0071672D02*
X0085277Y0071672D01*
X0085277Y0071073D02*
X0090354Y0071073D01*
X0090953Y0070475D02*
X0085277Y0070475D01*
X0085277Y0069876D02*
X0091551Y0069876D01*
X0092150Y0069278D02*
X0085277Y0069278D01*
X0085277Y0068679D02*
X0092748Y0068679D01*
X0093347Y0068081D02*
X0085277Y0068081D01*
X0085277Y0067482D02*
X0093946Y0067482D01*
X0094544Y0066884D02*
X0085277Y0066884D01*
X0085277Y0066285D02*
X0095143Y0066285D01*
X0095741Y0065687D02*
X0085277Y0065687D01*
X0085277Y0065088D02*
X0093540Y0065088D01*
X0093117Y0064490D02*
X0085277Y0064490D01*
X0085277Y0063891D02*
X0093117Y0063891D01*
X0093117Y0063293D02*
X0085277Y0063293D01*
X0085277Y0062694D02*
X0093117Y0062694D01*
X0093117Y0062096D02*
X0085277Y0062096D01*
X0085277Y0061497D02*
X0093087Y0061497D01*
X0092488Y0060899D02*
X0085277Y0060899D01*
X0085277Y0060300D02*
X0091890Y0060300D01*
X0091291Y0059702D02*
X0085162Y0059702D01*
X0084564Y0059103D02*
X0090693Y0059103D01*
X0090094Y0058505D02*
X0083965Y0058505D01*
X0083367Y0057906D02*
X0089496Y0057906D01*
X0088897Y0057307D02*
X0082768Y0057307D01*
X0082170Y0056709D02*
X0088299Y0056709D01*
X0087700Y0056110D02*
X0081571Y0056110D01*
X0080972Y0055512D02*
X0087102Y0055512D01*
X0086795Y0054913D02*
X0080062Y0054913D01*
X0081302Y0054315D02*
X0086795Y0054315D01*
X0086795Y0053716D02*
X0081900Y0053716D01*
X0082229Y0053118D02*
X0086795Y0053118D01*
X0086795Y0052519D02*
X0082229Y0052519D01*
X0082229Y0051921D02*
X0086795Y0051921D01*
X0085655Y0051322D02*
X0085055Y0051322D01*
X0085055Y0050724D02*
X0085655Y0050724D01*
X0085655Y0050125D02*
X0085055Y0050125D01*
X0085055Y0049527D02*
X0085655Y0049527D01*
X0085655Y0048928D02*
X0085055Y0048928D01*
X0085055Y0048330D02*
X0071491Y0048330D01*
X0071491Y0048928D02*
X0082677Y0048928D01*
X0082677Y0049527D02*
X0071491Y0049527D01*
X0071491Y0050125D02*
X0072855Y0050125D01*
X0072841Y0050724D02*
X0071657Y0050724D01*
X0072255Y0051322D02*
X0072841Y0051322D01*
X0070374Y0053118D02*
X0060271Y0053118D01*
X0059673Y0052519D02*
X0069775Y0052519D01*
X0069177Y0051921D02*
X0059074Y0051921D01*
X0060870Y0053716D02*
X0064343Y0053716D01*
X0064180Y0054315D02*
X0061468Y0054315D01*
X0062067Y0054913D02*
X0064180Y0054913D01*
X0071491Y0055512D02*
X0071551Y0055512D01*
X0071491Y0056110D02*
X0072149Y0056110D01*
X0072748Y0056709D02*
X0071491Y0056709D01*
X0071491Y0057307D02*
X0073346Y0057307D01*
X0071491Y0057906D02*
X0079690Y0057906D01*
X0080288Y0058505D02*
X0071491Y0058505D01*
X0070724Y0060899D02*
X0056334Y0060899D01*
X0056334Y0061497D02*
X0070203Y0061497D01*
X0070203Y0062096D02*
X0056334Y0062096D01*
X0056334Y0062694D02*
X0070203Y0062694D01*
X0070203Y0063293D02*
X0056334Y0063293D01*
X0056334Y0063891D02*
X0070203Y0063891D01*
X0070203Y0064490D02*
X0056334Y0064490D01*
X0056334Y0065088D02*
X0070203Y0065088D01*
X0070203Y0065687D02*
X0061823Y0065687D01*
X0063010Y0066285D02*
X0070203Y0066285D01*
X0070203Y0066884D02*
X0063608Y0066884D01*
X0063888Y0067482D02*
X0070520Y0067482D01*
X0067127Y0069876D02*
X0074403Y0069876D01*
X0074403Y0069278D02*
X0066785Y0069278D01*
X0067167Y0070475D02*
X0074403Y0070475D01*
X0074403Y0071073D02*
X0063205Y0071073D01*
X0064116Y0068679D02*
X0074403Y0068679D01*
X0074403Y0068081D02*
X0064116Y0068081D01*
X0060462Y0065687D02*
X0056162Y0065687D01*
X0058677Y0066884D02*
X0049828Y0066884D01*
X0049828Y0067482D02*
X0058397Y0067482D01*
X0058169Y0068081D02*
X0049828Y0068081D01*
X0049828Y0068679D02*
X0058169Y0068679D01*
X0058196Y0069278D02*
X0049828Y0069278D01*
X0049828Y0069876D02*
X0058444Y0069876D01*
X0058790Y0070475D02*
X0049828Y0070475D01*
X0049828Y0071073D02*
X0059388Y0071073D01*
X0059055Y0071672D02*
X0049828Y0071672D01*
X0049828Y0072270D02*
X0059143Y0072270D01*
X0059455Y0072869D02*
X0049828Y0072869D01*
X0049828Y0073467D02*
X0059455Y0073467D01*
X0059455Y0074066D02*
X0049828Y0074066D01*
X0049828Y0074664D02*
X0059455Y0074664D01*
X0059357Y0075263D02*
X0049828Y0075263D01*
X0049828Y0075861D02*
X0058758Y0075861D01*
X0058160Y0076460D02*
X0049828Y0076460D01*
X0049828Y0077058D02*
X0057561Y0077058D01*
X0056963Y0077657D02*
X0049828Y0077657D01*
X0049828Y0078255D02*
X0056364Y0078255D01*
X0055766Y0078854D02*
X0049828Y0078854D01*
X0049828Y0079452D02*
X0055167Y0079452D01*
X0055118Y0080051D02*
X0049828Y0080051D01*
X0049828Y0080649D02*
X0055118Y0080649D01*
X0055118Y0081248D02*
X0049828Y0081248D01*
X0049828Y0081846D02*
X0055118Y0081846D01*
X0055118Y0082445D02*
X0049828Y0082445D01*
X0049828Y0083043D02*
X0055118Y0083043D01*
X0055118Y0083642D02*
X0049828Y0083642D01*
X0049828Y0084241D02*
X0055118Y0084241D01*
X0055118Y0084839D02*
X0049828Y0084839D01*
X0049828Y0085438D02*
X0055118Y0085438D01*
X0055118Y0086036D02*
X0049828Y0086036D01*
X0066767Y0079452D02*
X0067594Y0079452D01*
X0068192Y0078854D02*
X0066767Y0078854D01*
X0066767Y0078255D02*
X0068791Y0078255D01*
X0069389Y0077657D02*
X0066767Y0077657D01*
X0066767Y0077058D02*
X0069988Y0077058D01*
X0070586Y0076460D02*
X0066767Y0076460D01*
X0066767Y0075861D02*
X0071185Y0075861D01*
X0071783Y0075263D02*
X0066767Y0075263D01*
X0066767Y0074664D02*
X0072382Y0074664D01*
X0072980Y0074066D02*
X0066767Y0074066D01*
X0066767Y0073467D02*
X0073579Y0073467D01*
X0074177Y0072869D02*
X0066767Y0072869D01*
X0067079Y0072270D02*
X0074403Y0072270D01*
X0074403Y0071672D02*
X0067167Y0071672D01*
X0059275Y0066285D02*
X0049828Y0066285D01*
X0075434Y0081248D02*
X0076222Y0081248D01*
X0076244Y0081210D02*
X0076486Y0080968D01*
X0076782Y0080797D01*
X0077113Y0080709D01*
X0079150Y0080709D01*
X0079150Y0083677D01*
X0075984Y0083677D01*
X0075984Y0081838D01*
X0076073Y0081507D01*
X0076244Y0081210D01*
X0075984Y0081846D02*
X0075822Y0081846D01*
X0075822Y0082445D02*
X0075984Y0082445D01*
X0075984Y0083043D02*
X0075822Y0083043D01*
X0075822Y0083642D02*
X0075984Y0083642D01*
X0075822Y0084241D02*
X0079150Y0084241D01*
X0079150Y0084839D02*
X0079750Y0084839D01*
X0079750Y0085438D02*
X0079150Y0085438D01*
X0079150Y0086036D02*
X0079750Y0086036D01*
X0079750Y0086635D02*
X0079150Y0086635D01*
X0079150Y0087233D02*
X0079750Y0087233D01*
X0081833Y0087233D02*
X0082677Y0087233D01*
X0082677Y0087832D02*
X0074457Y0087832D01*
X0074457Y0087233D02*
X0077066Y0087233D01*
X0076181Y0086635D02*
X0075506Y0086635D01*
X0075822Y0086036D02*
X0075984Y0086036D01*
X0075984Y0085438D02*
X0075822Y0085438D01*
X0075822Y0084839D02*
X0075984Y0084839D01*
X0079150Y0083642D02*
X0079750Y0083642D01*
X0079750Y0083043D02*
X0079150Y0083043D01*
X0079150Y0082445D02*
X0079750Y0082445D01*
X0079750Y0081846D02*
X0079150Y0081846D01*
X0079150Y0081248D02*
X0079750Y0081248D01*
X0085277Y0081248D02*
X0086598Y0081248D01*
X0087182Y0081846D02*
X0085277Y0081846D01*
X0085277Y0082445D02*
X0087781Y0082445D01*
X0088379Y0083043D02*
X0085277Y0083043D01*
X0085277Y0083642D02*
X0088978Y0083642D01*
X0089576Y0084241D02*
X0085277Y0084241D01*
X0085277Y0084839D02*
X0090175Y0084839D01*
X0090773Y0085438D02*
X0085277Y0085438D01*
X0085277Y0086036D02*
X0091372Y0086036D01*
X0091970Y0086635D02*
X0085277Y0086635D01*
X0085277Y0087233D02*
X0092569Y0087233D01*
X0092840Y0087832D02*
X0085277Y0087832D01*
X0085277Y0088430D02*
X0092840Y0088430D01*
X0092840Y0089029D02*
X0085277Y0089029D01*
X0085277Y0089627D02*
X0092840Y0089627D01*
X0092840Y0090226D02*
X0085277Y0090226D01*
X0085277Y0090824D02*
X0092840Y0090824D01*
X0092840Y0091423D02*
X0085277Y0091423D01*
X0085277Y0092021D02*
X0092840Y0092021D01*
X0092840Y0092620D02*
X0085277Y0092620D01*
X0085277Y0093218D02*
X0092840Y0093218D01*
X0092840Y0093817D02*
X0085277Y0093817D01*
X0085277Y0094415D02*
X0092840Y0094415D01*
X0092840Y0095014D02*
X0085277Y0095014D01*
X0085277Y0095612D02*
X0092840Y0095612D01*
X0092840Y0096211D02*
X0085277Y0096211D01*
X0085277Y0096809D02*
X0092840Y0096809D01*
X0092840Y0097408D02*
X0085277Y0097408D01*
X0085277Y0098006D02*
X0086537Y0098006D01*
X0085939Y0098605D02*
X0085277Y0098605D01*
X0085277Y0099203D02*
X0085725Y0099203D01*
X0085725Y0099802D02*
X0085277Y0099802D01*
X0085277Y0100400D02*
X0085725Y0100400D01*
X0086092Y0100999D02*
X0085277Y0100999D01*
X0085277Y0101597D02*
X0086614Y0101597D01*
X0086614Y0102196D02*
X0085277Y0102196D01*
X0085277Y0102794D02*
X0086614Y0102794D01*
X0086614Y0103393D02*
X0085277Y0103393D01*
X0085277Y0103991D02*
X0086534Y0103991D01*
X0085935Y0104590D02*
X0085277Y0104590D01*
X0085277Y0105188D02*
X0085337Y0105188D01*
X0087218Y0106984D02*
X0090281Y0106984D01*
X0090281Y0107582D02*
X0086677Y0107582D01*
X0086677Y0107525D02*
X0086677Y0122411D01*
X0090281Y0118807D01*
X0090281Y0104183D01*
X0090551Y0103913D01*
X0090551Y0101521D01*
X0089883Y0100852D01*
X0089214Y0101521D01*
X0089214Y0104988D01*
X0088453Y0105750D01*
X0086677Y0107525D01*
X0086677Y0108181D02*
X0090281Y0108181D01*
X0090281Y0108779D02*
X0086677Y0108779D01*
X0086677Y0109378D02*
X0090281Y0109378D01*
X0090281Y0109976D02*
X0086677Y0109976D01*
X0086677Y0110575D02*
X0090281Y0110575D01*
X0090281Y0111174D02*
X0086677Y0111174D01*
X0086677Y0111772D02*
X0090281Y0111772D01*
X0090281Y0112371D02*
X0086677Y0112371D01*
X0086677Y0112969D02*
X0090281Y0112969D01*
X0090281Y0113568D02*
X0086677Y0113568D01*
X0086677Y0114166D02*
X0090281Y0114166D01*
X0090281Y0114765D02*
X0086677Y0114765D01*
X0086677Y0115363D02*
X0090281Y0115363D01*
X0090281Y0115962D02*
X0086677Y0115962D01*
X0086677Y0116560D02*
X0090281Y0116560D01*
X0090281Y0117159D02*
X0086677Y0117159D01*
X0086677Y0117757D02*
X0090281Y0117757D01*
X0090281Y0118356D02*
X0086677Y0118356D01*
X0086677Y0118954D02*
X0090134Y0118954D01*
X0089536Y0119553D02*
X0086677Y0119553D01*
X0086677Y0120151D02*
X0088937Y0120151D01*
X0088339Y0120750D02*
X0086677Y0120750D01*
X0086677Y0121348D02*
X0087740Y0121348D01*
X0087142Y0121947D02*
X0086677Y0121947D01*
X0090901Y0126136D02*
X0104915Y0126136D01*
X0104915Y0125538D02*
X0104567Y0125538D01*
X0104915Y0126735D02*
X0090302Y0126735D01*
X0089704Y0127333D02*
X0104915Y0127333D01*
X0104915Y0127932D02*
X0089105Y0127932D01*
X0088507Y0128530D02*
X0104915Y0128530D01*
X0104915Y0129129D02*
X0087908Y0129129D01*
X0087310Y0129727D02*
X0099454Y0129727D01*
X0099219Y0130326D02*
X0098503Y0130326D01*
X0098826Y0130924D02*
X0099219Y0130924D01*
X0099219Y0131523D02*
X0098860Y0131523D01*
X0098860Y0132121D02*
X0099219Y0132121D01*
X0099219Y0132720D02*
X0096088Y0132720D01*
X0096088Y0133318D02*
X0095488Y0133318D01*
X0095488Y0133917D02*
X0096088Y0133917D01*
X0096088Y0134515D02*
X0095488Y0134515D01*
X0095488Y0135114D02*
X0096088Y0135114D01*
X0093117Y0137508D02*
X0092854Y0137508D01*
X0099342Y0141698D02*
X0117526Y0141698D01*
X0117526Y0141099D02*
X0099940Y0141099D01*
X0105597Y0140501D02*
X0109602Y0140501D01*
X0109455Y0139902D02*
X0105743Y0139902D01*
X0105743Y0139304D02*
X0109455Y0139304D01*
X0109455Y0138705D02*
X0105743Y0138705D01*
X0105743Y0138107D02*
X0109455Y0138107D01*
X0109455Y0137508D02*
X0106276Y0137508D01*
X0106874Y0136909D02*
X0109240Y0136909D01*
X0109055Y0136311D02*
X0107473Y0136311D01*
X0108071Y0135712D02*
X0109055Y0135712D01*
X0108315Y0135114D02*
X0112476Y0135114D01*
X0112959Y0135114D02*
X0117195Y0135114D01*
X0117215Y0135188D02*
X0117126Y0134857D01*
X0117126Y0132820D01*
X0120094Y0132820D01*
X0120094Y0132220D01*
X0120095Y0132220D02*
X0120694Y0132220D01*
X0120694Y0129055D01*
X0122534Y0129055D01*
X0122865Y0129144D01*
X0123161Y0129315D01*
X0123403Y0129557D01*
X0123574Y0129853D01*
X0123663Y0130184D01*
X0123663Y0132220D01*
X0120695Y0132220D01*
X0120695Y0132820D01*
X0123663Y0132820D01*
X0123663Y0134857D01*
X0123574Y0135188D01*
X0123403Y0135484D01*
X0123161Y0135726D01*
X0122865Y0135897D01*
X0122534Y0135986D01*
X0120694Y0135986D01*
X0120694Y0132821D01*
X0120095Y0132821D01*
X0120095Y0135986D01*
X0118255Y0135986D01*
X0117924Y0135897D01*
X0117628Y0135726D01*
X0117386Y0135484D01*
X0117215Y0135188D01*
X0117614Y0135712D02*
X0116380Y0135712D01*
X0116380Y0136311D02*
X0117890Y0136311D01*
X0117526Y0136909D02*
X0116195Y0136909D01*
X0116380Y0134515D02*
X0117126Y0134515D01*
X0117126Y0133917D02*
X0116380Y0133917D01*
X0116143Y0133318D02*
X0117126Y0133318D01*
X0117126Y0132220D02*
X0117126Y0130184D01*
X0117215Y0129853D01*
X0117386Y0129557D01*
X0117628Y0129315D01*
X0117924Y0129144D01*
X0118255Y0129055D01*
X0120095Y0129055D01*
X0120095Y0132220D01*
X0120094Y0132220D02*
X0117126Y0132220D01*
X0117126Y0132121D02*
X0115980Y0132121D01*
X0115980Y0131523D02*
X0117126Y0131523D01*
X0117126Y0130924D02*
X0115980Y0130924D01*
X0115980Y0130326D02*
X0117126Y0130326D01*
X0117287Y0129727D02*
X0115744Y0129727D01*
X0117980Y0129129D02*
X0112987Y0129129D01*
X0112388Y0128530D02*
X0126126Y0128530D01*
X0125528Y0127932D02*
X0111790Y0127932D01*
X0111493Y0127333D02*
X0124929Y0127333D01*
X0124331Y0126735D02*
X0111493Y0126735D01*
X0111251Y0126136D02*
X0123732Y0126136D01*
X0126146Y0123742D02*
X0131299Y0123742D01*
X0131299Y0123144D02*
X0126019Y0123144D01*
X0126019Y0122545D02*
X0131299Y0122545D01*
X0130713Y0121947D02*
X0126019Y0121947D01*
X0125771Y0121348D02*
X0130321Y0121348D01*
X0130321Y0120750D02*
X0106421Y0120750D01*
X0105823Y0120151D02*
X0130321Y0120151D01*
X0130321Y0119553D02*
X0105224Y0119553D01*
X0104626Y0118954D02*
X0130321Y0118954D01*
X0130321Y0118356D02*
X0104027Y0118356D01*
X0103429Y0117757D02*
X0112941Y0117757D01*
X0112605Y0117159D02*
X0111616Y0117159D01*
X0111790Y0113568D02*
X0112605Y0113568D01*
X0112605Y0112969D02*
X0102158Y0112969D01*
X0102206Y0112371D02*
X0112605Y0112371D01*
X0113003Y0111567D02*
X0112706Y0111395D01*
X0112464Y0111153D01*
X0112293Y0110857D01*
X0112205Y0110526D01*
X0112205Y0108490D01*
X0115173Y0108490D01*
X0115173Y0111655D01*
X0113334Y0111655D01*
X0113003Y0111567D01*
X0112485Y0111174D02*
X0102206Y0111174D01*
X0102206Y0110575D02*
X0112218Y0110575D01*
X0112205Y0109976D02*
X0102124Y0109976D01*
X0101679Y0109378D02*
X0105645Y0109378D01*
X0105519Y0109252D02*
X0105519Y0106341D01*
X0106046Y0105813D01*
X0111516Y0105813D01*
X0112043Y0106341D01*
X0112043Y0109252D01*
X0111516Y0109779D01*
X0106046Y0109779D01*
X0105519Y0109252D01*
X0105519Y0108779D02*
X0101806Y0108779D01*
X0101806Y0108181D02*
X0105519Y0108181D01*
X0105519Y0107582D02*
X0101806Y0107582D01*
X0101806Y0106984D02*
X0105519Y0106984D01*
X0105519Y0106385D02*
X0101806Y0106385D01*
X0102391Y0105787D02*
X0112222Y0105787D01*
X0112205Y0105853D02*
X0112293Y0105523D01*
X0112464Y0105226D01*
X0112706Y0104984D01*
X0113003Y0104813D01*
X0113334Y0104724D01*
X0115173Y0104724D01*
X0115173Y0107890D01*
X0112205Y0107890D01*
X0112205Y0105853D01*
X0112205Y0106385D02*
X0112043Y0106385D01*
X0112043Y0106984D02*
X0112205Y0106984D01*
X0112205Y0107582D02*
X0112043Y0107582D01*
X0112043Y0108181D02*
X0115173Y0108181D01*
X0115173Y0107890D02*
X0115173Y0108490D01*
X0115773Y0108490D01*
X0115773Y0111655D01*
X0117613Y0111655D01*
X0117944Y0111567D01*
X0118240Y0111395D01*
X0118482Y0111153D01*
X0118653Y0110857D01*
X0118742Y0110526D01*
X0118742Y0108490D01*
X0115773Y0108490D01*
X0115773Y0107890D01*
X0115773Y0104724D01*
X0117613Y0104724D01*
X0117944Y0104813D01*
X0118240Y0104984D01*
X0118482Y0105226D01*
X0118653Y0105523D01*
X0118742Y0105853D01*
X0118742Y0107890D01*
X0115773Y0107890D01*
X0115173Y0107890D01*
X0115173Y0107582D02*
X0115773Y0107582D01*
X0115773Y0106984D02*
X0115173Y0106984D01*
X0115173Y0106385D02*
X0115773Y0106385D01*
X0115773Y0105787D02*
X0115173Y0105787D01*
X0115173Y0105188D02*
X0115773Y0105188D01*
X0117901Y0103991D02*
X0104187Y0103991D01*
X0104785Y0103393D02*
X0117302Y0103393D01*
X0117165Y0102794D02*
X0105384Y0102794D01*
X0103588Y0104590D02*
X0118499Y0104590D01*
X0118444Y0105188D02*
X0126972Y0105188D01*
X0127570Y0105787D02*
X0118724Y0105787D01*
X0118742Y0106385D02*
X0121083Y0106385D01*
X0121074Y0106388D02*
X0121404Y0106299D01*
X0123047Y0106299D01*
X0123047Y0108677D01*
X0120276Y0108677D01*
X0120276Y0107428D01*
X0120364Y0107097D01*
X0120535Y0106801D01*
X0120777Y0106559D01*
X0121074Y0106388D01*
X0120430Y0106984D02*
X0118742Y0106984D01*
X0118742Y0107582D02*
X0120276Y0107582D01*
X0120276Y0108181D02*
X0115773Y0108181D01*
X0115773Y0108779D02*
X0115173Y0108779D01*
X0115173Y0109378D02*
X0115773Y0109378D01*
X0115773Y0109976D02*
X0115173Y0109976D01*
X0115173Y0110575D02*
X0115773Y0110575D01*
X0115773Y0111174D02*
X0115173Y0111174D01*
X0118462Y0111174D02*
X0120556Y0111174D01*
X0120535Y0111153D02*
X0120364Y0110857D01*
X0120276Y0110526D01*
X0120276Y0109277D01*
X0123047Y0109277D01*
X0123047Y0108677D01*
X0123647Y0108677D01*
X0123647Y0106299D01*
X0125290Y0106299D01*
X0125621Y0106388D01*
X0125917Y0106559D01*
X0126159Y0106801D01*
X0126330Y0107097D01*
X0126419Y0107428D01*
X0126419Y0108677D01*
X0123647Y0108677D01*
X0123647Y0109277D01*
X0123047Y0109277D01*
X0123047Y0111655D01*
X0121404Y0111655D01*
X0121074Y0111567D01*
X0120777Y0111395D01*
X0120535Y0111153D01*
X0120289Y0110575D02*
X0118729Y0110575D01*
X0118742Y0109976D02*
X0120276Y0109976D01*
X0120276Y0109378D02*
X0118742Y0109378D01*
X0118742Y0108779D02*
X0123047Y0108779D01*
X0123047Y0108181D02*
X0123647Y0108181D01*
X0123647Y0108779D02*
X0129306Y0108779D01*
X0129032Y0108181D02*
X0126419Y0108181D01*
X0126419Y0107582D02*
X0129032Y0107582D01*
X0128768Y0106984D02*
X0126265Y0106984D01*
X0125612Y0106385D02*
X0128169Y0106385D01*
X0130050Y0104590D02*
X0133865Y0104590D01*
X0133865Y0105188D02*
X0130649Y0105188D01*
X0130871Y0105410D02*
X0132128Y0105410D01*
X0133410Y0106693D01*
X0133410Y0106943D01*
X0133865Y0106489D01*
X0133865Y0101321D01*
X0134392Y0100794D01*
X0135827Y0100794D01*
X0135827Y0093374D01*
X0129473Y0087020D01*
X0129473Y0088821D01*
X0128191Y0090103D01*
X0126934Y0090103D01*
X0126649Y0090388D01*
X0126649Y0091141D01*
X0126529Y0091261D01*
X0126649Y0091380D01*
X0126649Y0093110D01*
X0126529Y0093229D01*
X0126649Y0093348D01*
X0126649Y0095078D01*
X0126122Y0095605D01*
X0123394Y0095605D01*
X0123794Y0096006D01*
X0123794Y0099901D01*
X0123267Y0100428D01*
X0121864Y0100428D01*
X0121724Y0100569D01*
X0121428Y0100740D01*
X0121097Y0100828D01*
X0120434Y0100828D01*
X0120434Y0097954D01*
X0120434Y0097954D01*
X0120434Y0100828D01*
X0119771Y0100828D01*
X0119765Y0100827D01*
X0119765Y0102179D01*
X0119949Y0102362D01*
X0127823Y0102362D01*
X0130871Y0105410D01*
X0132505Y0105787D02*
X0133865Y0105787D01*
X0133865Y0106385D02*
X0133103Y0106385D01*
X0133865Y0103991D02*
X0129452Y0103991D01*
X0128853Y0103393D02*
X0133865Y0103393D01*
X0133865Y0102794D02*
X0128255Y0102794D01*
X0123794Y0099802D02*
X0135827Y0099802D01*
X0135827Y0100400D02*
X0123295Y0100400D01*
X0123794Y0099203D02*
X0135827Y0099203D01*
X0135827Y0098605D02*
X0123794Y0098605D01*
X0123794Y0098006D02*
X0135827Y0098006D01*
X0135827Y0097408D02*
X0123794Y0097408D01*
X0123794Y0096809D02*
X0135827Y0096809D01*
X0135827Y0096211D02*
X0123794Y0096211D01*
X0123401Y0095612D02*
X0135827Y0095612D01*
X0135827Y0095014D02*
X0126649Y0095014D01*
X0126649Y0094415D02*
X0135827Y0094415D01*
X0135827Y0093817D02*
X0126649Y0093817D01*
X0126540Y0093218D02*
X0135671Y0093218D01*
X0135073Y0092620D02*
X0126649Y0092620D01*
X0126649Y0092021D02*
X0134474Y0092021D01*
X0133876Y0091423D02*
X0126649Y0091423D01*
X0126649Y0090824D02*
X0133277Y0090824D01*
X0132678Y0090226D02*
X0126811Y0090226D01*
X0128667Y0089627D02*
X0132080Y0089627D01*
X0131481Y0089029D02*
X0129265Y0089029D01*
X0129473Y0088430D02*
X0130883Y0088430D01*
X0130284Y0087832D02*
X0129473Y0087832D01*
X0129473Y0087233D02*
X0129686Y0087233D01*
X0128178Y0085725D02*
X0124574Y0082121D01*
X0122387Y0082121D01*
X0122387Y0083661D01*
X0122402Y0083661D01*
X0122402Y0086536D01*
X0122402Y0086536D01*
X0122402Y0083661D01*
X0123066Y0083661D01*
X0123396Y0083750D01*
X0123693Y0083921D01*
X0123935Y0084163D01*
X0124106Y0084460D01*
X0124194Y0084790D01*
X0124194Y0086536D01*
X0122402Y0086536D01*
X0122402Y0088884D01*
X0122402Y0088884D01*
X0122402Y0086536D01*
X0122402Y0086536D01*
X0122402Y0086536D01*
X0124194Y0086536D01*
X0124194Y0088282D01*
X0124106Y0088613D01*
X0123949Y0088884D01*
X0124476Y0088884D01*
X0125095Y0088265D01*
X0125095Y0087007D01*
X0126378Y0085725D01*
X0128178Y0085725D01*
X0127890Y0085438D02*
X0124194Y0085438D01*
X0124194Y0086036D02*
X0126067Y0086036D01*
X0125468Y0086635D02*
X0124194Y0086635D01*
X0124194Y0087233D02*
X0125095Y0087233D01*
X0125095Y0087832D02*
X0124194Y0087832D01*
X0124155Y0088430D02*
X0124930Y0088430D01*
X0122402Y0088430D02*
X0122402Y0088430D01*
X0122402Y0087832D02*
X0122402Y0087832D01*
X0122402Y0087233D02*
X0122402Y0087233D01*
X0122402Y0086635D02*
X0122402Y0086635D01*
X0122402Y0086036D02*
X0122402Y0086036D01*
X0122402Y0085438D02*
X0122402Y0085438D01*
X0122402Y0084839D02*
X0122402Y0084839D01*
X0122402Y0084241D02*
X0122402Y0084241D01*
X0122387Y0083642D02*
X0126095Y0083642D01*
X0126693Y0084241D02*
X0123979Y0084241D01*
X0124194Y0084839D02*
X0127292Y0084839D01*
X0125496Y0083043D02*
X0122387Y0083043D01*
X0122387Y0082445D02*
X0124898Y0082445D01*
X0130066Y0083642D02*
X0136906Y0083642D01*
X0136906Y0084241D02*
X0130370Y0084241D01*
X0130969Y0084839D02*
X0136906Y0084839D01*
X0137460Y0085438D02*
X0131567Y0085438D01*
X0132166Y0086036D02*
X0138058Y0086036D01*
X0140132Y0086036D02*
X0196450Y0086036D01*
X0196450Y0085438D02*
X0140731Y0085438D01*
X0141284Y0084839D02*
X0196450Y0084839D01*
X0196450Y0084241D02*
X0141284Y0084241D01*
X0141284Y0083642D02*
X0196450Y0083642D01*
X0196450Y0083043D02*
X0141867Y0083043D01*
X0142466Y0082445D02*
X0196450Y0082445D01*
X0196450Y0081846D02*
X0143064Y0081846D01*
X0143663Y0081248D02*
X0196450Y0081248D01*
X0196450Y0080649D02*
X0144261Y0080649D01*
X0144860Y0080051D02*
X0196450Y0080051D01*
X0196450Y0079452D02*
X0145458Y0079452D01*
X0146057Y0078854D02*
X0196450Y0078854D01*
X0196450Y0078255D02*
X0146656Y0078255D01*
X0147254Y0077657D02*
X0196450Y0077657D01*
X0196450Y0077058D02*
X0147853Y0077058D01*
X0148451Y0076460D02*
X0196450Y0076460D01*
X0196450Y0075861D02*
X0149050Y0075861D01*
X0149648Y0075263D02*
X0196450Y0075263D01*
X0196450Y0074664D02*
X0150247Y0074664D01*
X0150845Y0074066D02*
X0196450Y0074066D01*
X0196450Y0073467D02*
X0151444Y0073467D01*
X0152042Y0072869D02*
X0196450Y0072869D01*
X0196450Y0072270D02*
X0152641Y0072270D01*
X0153239Y0071672D02*
X0196450Y0071672D01*
X0196450Y0071073D02*
X0153838Y0071073D01*
X0154436Y0070475D02*
X0196450Y0070475D01*
X0196450Y0069876D02*
X0155035Y0069876D01*
X0155633Y0069278D02*
X0196450Y0069278D01*
X0196450Y0068679D02*
X0156232Y0068679D01*
X0156830Y0068081D02*
X0196450Y0068081D01*
X0196450Y0067482D02*
X0157429Y0067482D01*
X0158027Y0066884D02*
X0196450Y0066884D01*
X0196450Y0066285D02*
X0179568Y0066285D01*
X0179372Y0066481D02*
X0177559Y0066481D01*
X0176276Y0065199D01*
X0176276Y0063385D01*
X0177559Y0062103D01*
X0178816Y0062103D01*
X0183071Y0057848D01*
X0183071Y0051413D01*
X0181636Y0051413D01*
X0181109Y0050885D01*
X0181109Y0042266D01*
X0181636Y0041739D01*
X0187106Y0041739D01*
X0187633Y0042266D01*
X0187633Y0050885D01*
X0187106Y0051413D01*
X0185671Y0051413D01*
X0185671Y0058166D01*
X0186690Y0058166D01*
X0191732Y0053124D01*
X0191732Y0051413D01*
X0189510Y0051413D01*
X0188983Y0050885D01*
X0188983Y0042266D01*
X0189510Y0041739D01*
X0194980Y0041739D01*
X0195507Y0042266D01*
X0195507Y0050885D01*
X0194980Y0051413D01*
X0194332Y0051413D01*
X0194332Y0054201D01*
X0188528Y0060005D01*
X0188528Y0061262D01*
X0187246Y0062544D01*
X0185433Y0062544D01*
X0184150Y0061262D01*
X0184150Y0060446D01*
X0180654Y0063942D01*
X0180654Y0065199D01*
X0179372Y0066481D01*
X0180166Y0065687D02*
X0196450Y0065687D01*
X0196450Y0065088D02*
X0180654Y0065088D01*
X0180654Y0064490D02*
X0196450Y0064490D01*
X0196450Y0063891D02*
X0180705Y0063891D01*
X0181303Y0063293D02*
X0196450Y0063293D01*
X0196450Y0062694D02*
X0181902Y0062694D01*
X0182500Y0062096D02*
X0184984Y0062096D01*
X0184386Y0061497D02*
X0183099Y0061497D01*
X0183697Y0060899D02*
X0184150Y0060899D01*
X0181217Y0059702D02*
X0165209Y0059702D01*
X0164611Y0060300D02*
X0180619Y0060300D01*
X0180020Y0060899D02*
X0164012Y0060899D01*
X0163414Y0061497D02*
X0179422Y0061497D01*
X0178823Y0062096D02*
X0162815Y0062096D01*
X0162217Y0062694D02*
X0176968Y0062694D01*
X0176369Y0063293D02*
X0161618Y0063293D01*
X0161020Y0063891D02*
X0176276Y0063891D01*
X0176276Y0064490D02*
X0160421Y0064490D01*
X0159823Y0065088D02*
X0176276Y0065088D01*
X0176764Y0065687D02*
X0159224Y0065687D01*
X0158626Y0066285D02*
X0177363Y0066285D01*
X0181816Y0059103D02*
X0165808Y0059103D01*
X0166406Y0058505D02*
X0182414Y0058505D01*
X0183013Y0057906D02*
X0167005Y0057906D01*
X0167603Y0057307D02*
X0183071Y0057307D01*
X0183071Y0056709D02*
X0168202Y0056709D01*
X0168800Y0056110D02*
X0183071Y0056110D01*
X0183071Y0055512D02*
X0169399Y0055512D01*
X0169997Y0054913D02*
X0183071Y0054913D01*
X0183071Y0054315D02*
X0170596Y0054315D01*
X0171194Y0053716D02*
X0183071Y0053716D01*
X0183071Y0053118D02*
X0171793Y0053118D01*
X0172391Y0052519D02*
X0183071Y0052519D01*
X0183071Y0051921D02*
X0172990Y0051921D01*
X0173589Y0051322D02*
X0173672Y0051322D01*
X0172306Y0048928D02*
X0171885Y0048928D01*
X0171885Y0048330D02*
X0172904Y0048330D01*
X0173235Y0047731D02*
X0171885Y0047731D01*
X0171885Y0047133D02*
X0173235Y0047133D01*
X0173235Y0046534D02*
X0171885Y0046534D01*
X0171885Y0045936D02*
X0173235Y0045936D01*
X0173235Y0045337D02*
X0171885Y0045337D01*
X0171885Y0044739D02*
X0173235Y0044739D01*
X0173235Y0044140D02*
X0171885Y0044140D01*
X0171885Y0043542D02*
X0173235Y0043542D01*
X0173235Y0042943D02*
X0171885Y0042943D01*
X0171885Y0042345D02*
X0173235Y0042345D01*
X0173754Y0041746D02*
X0171365Y0041746D01*
X0165880Y0041746D02*
X0163491Y0041746D01*
X0164011Y0042345D02*
X0165361Y0042345D01*
X0165361Y0042943D02*
X0164011Y0042943D01*
X0164011Y0043542D02*
X0165361Y0043542D01*
X0165361Y0044140D02*
X0164011Y0044140D01*
X0164011Y0044739D02*
X0165361Y0044739D01*
X0165361Y0045337D02*
X0164011Y0045337D01*
X0164011Y0045936D02*
X0165361Y0045936D01*
X0165361Y0046534D02*
X0164011Y0046534D01*
X0164011Y0047133D02*
X0165361Y0047133D01*
X0165361Y0047731D02*
X0164011Y0047731D01*
X0164011Y0048330D02*
X0165053Y0048330D01*
X0164454Y0048928D02*
X0164011Y0048928D01*
X0165737Y0051322D02*
X0165798Y0051322D01*
X0165139Y0051921D02*
X0169313Y0051921D01*
X0168715Y0052519D02*
X0164540Y0052519D01*
X0163942Y0053118D02*
X0168116Y0053118D01*
X0167518Y0053716D02*
X0163343Y0053716D01*
X0162745Y0054315D02*
X0166919Y0054315D01*
X0166321Y0054913D02*
X0162146Y0054913D01*
X0161548Y0055512D02*
X0165722Y0055512D01*
X0165123Y0056110D02*
X0160949Y0056110D01*
X0160351Y0056709D02*
X0164525Y0056709D01*
X0163926Y0057307D02*
X0159752Y0057307D01*
X0159154Y0057906D02*
X0163328Y0057906D01*
X0162729Y0058505D02*
X0158555Y0058505D01*
X0157957Y0059103D02*
X0162131Y0059103D01*
X0161532Y0059702D02*
X0157358Y0059702D01*
X0156760Y0060300D02*
X0160934Y0060300D01*
X0160335Y0060899D02*
X0156161Y0060899D01*
X0155563Y0061497D02*
X0159737Y0061497D01*
X0159138Y0062096D02*
X0154964Y0062096D01*
X0154366Y0062694D02*
X0158540Y0062694D01*
X0157941Y0063293D02*
X0153767Y0063293D01*
X0153169Y0063891D02*
X0157343Y0063891D01*
X0156744Y0064490D02*
X0152570Y0064490D01*
X0151972Y0065088D02*
X0156146Y0065088D01*
X0155547Y0065687D02*
X0151373Y0065687D01*
X0150775Y0066285D02*
X0154949Y0066285D01*
X0154350Y0066884D02*
X0150176Y0066884D01*
X0149578Y0067482D02*
X0153752Y0067482D01*
X0153153Y0068081D02*
X0148979Y0068081D01*
X0148381Y0068679D02*
X0152555Y0068679D01*
X0151956Y0069278D02*
X0147782Y0069278D01*
X0147183Y0069876D02*
X0151358Y0069876D01*
X0150759Y0070475D02*
X0146585Y0070475D01*
X0145986Y0071073D02*
X0150161Y0071073D01*
X0149562Y0071672D02*
X0145388Y0071672D01*
X0144789Y0072270D02*
X0148964Y0072270D01*
X0148365Y0072869D02*
X0144191Y0072869D01*
X0143592Y0073467D02*
X0147767Y0073467D01*
X0147168Y0074066D02*
X0142994Y0074066D01*
X0142395Y0074664D02*
X0146570Y0074664D01*
X0145971Y0075263D02*
X0141797Y0075263D01*
X0141198Y0075861D02*
X0145373Y0075861D01*
X0144774Y0076460D02*
X0140600Y0076460D01*
X0140001Y0077058D02*
X0144176Y0077058D01*
X0143577Y0077657D02*
X0139403Y0077657D01*
X0138804Y0078255D02*
X0142979Y0078255D01*
X0142380Y0078854D02*
X0138206Y0078854D01*
X0137607Y0079452D02*
X0141782Y0079452D01*
X0141183Y0080051D02*
X0137009Y0080051D01*
X0136410Y0080649D02*
X0140585Y0080649D01*
X0139986Y0081248D02*
X0135812Y0081248D01*
X0135213Y0081846D02*
X0138130Y0081846D01*
X0137532Y0082445D02*
X0131259Y0082445D01*
X0130664Y0083043D02*
X0136933Y0083043D01*
X0132764Y0086635D02*
X0196450Y0086635D01*
X0196450Y0087233D02*
X0133363Y0087233D01*
X0133961Y0087832D02*
X0196395Y0087832D01*
X0195796Y0088430D02*
X0134560Y0088430D01*
X0135158Y0089029D02*
X0195197Y0089029D01*
X0194599Y0089627D02*
X0135757Y0089627D01*
X0136355Y0090226D02*
X0194000Y0090226D01*
X0193402Y0090824D02*
X0136954Y0090824D01*
X0137552Y0091423D02*
X0192803Y0091423D01*
X0192205Y0092021D02*
X0138151Y0092021D01*
X0138427Y0092620D02*
X0191606Y0092620D01*
X0191008Y0093218D02*
X0138427Y0093218D01*
X0138427Y0093817D02*
X0190409Y0093817D01*
X0189811Y0094415D02*
X0138427Y0094415D01*
X0138427Y0095014D02*
X0145905Y0095014D01*
X0145307Y0095612D02*
X0138427Y0095612D01*
X0138427Y0096211D02*
X0144708Y0096211D01*
X0144110Y0096809D02*
X0138427Y0096809D01*
X0138427Y0097408D02*
X0143701Y0097408D01*
X0143701Y0098006D02*
X0138427Y0098006D01*
X0138427Y0098605D02*
X0143701Y0098605D01*
X0143701Y0099203D02*
X0138427Y0099203D01*
X0138427Y0099802D02*
X0143701Y0099802D01*
X0143701Y0100400D02*
X0138427Y0100400D01*
X0140067Y0100999D02*
X0142061Y0100999D01*
X0141739Y0101597D02*
X0140389Y0101597D01*
X0140389Y0102196D02*
X0141739Y0102196D01*
X0141739Y0102794D02*
X0140389Y0102794D01*
X0140389Y0103393D02*
X0141739Y0103393D01*
X0141739Y0103991D02*
X0140389Y0103991D01*
X0140389Y0104590D02*
X0141739Y0104590D01*
X0141739Y0105188D02*
X0140389Y0105188D01*
X0140389Y0105787D02*
X0141739Y0105787D01*
X0141739Y0106385D02*
X0140389Y0106385D01*
X0140389Y0106984D02*
X0141739Y0106984D01*
X0141739Y0107582D02*
X0140389Y0107582D01*
X0140389Y0108181D02*
X0141739Y0108181D01*
X0141739Y0108779D02*
X0140389Y0108779D01*
X0140389Y0109378D02*
X0141739Y0109378D01*
X0141775Y0109976D02*
X0140353Y0109976D01*
X0134587Y0110575D02*
X0151579Y0110575D01*
X0151579Y0111174D02*
X0133988Y0111174D01*
X0133390Y0111772D02*
X0151579Y0111772D01*
X0151579Y0112371D02*
X0132791Y0112371D01*
X0130377Y0109976D02*
X0126419Y0109976D01*
X0126419Y0110526D02*
X0126330Y0110857D01*
X0126159Y0111153D01*
X0125917Y0111395D01*
X0125621Y0111567D01*
X0125290Y0111655D01*
X0123647Y0111655D01*
X0123647Y0109277D01*
X0126419Y0109277D01*
X0126419Y0110526D01*
X0126406Y0110575D02*
X0129778Y0110575D01*
X0129180Y0111174D02*
X0126139Y0111174D01*
X0126019Y0112371D02*
X0127983Y0112371D01*
X0128581Y0111772D02*
X0098785Y0111772D01*
X0101796Y0113568D02*
X0105772Y0113568D01*
X0105519Y0114166D02*
X0101806Y0114166D01*
X0101806Y0114765D02*
X0105519Y0114765D01*
X0105519Y0115363D02*
X0101806Y0115363D01*
X0101806Y0115962D02*
X0105519Y0115962D01*
X0105519Y0116560D02*
X0102232Y0116560D01*
X0102830Y0117159D02*
X0105945Y0117159D01*
X0111204Y0121348D02*
X0119743Y0121348D01*
X0119494Y0121947D02*
X0111452Y0121947D01*
X0111452Y0122545D02*
X0119494Y0122545D01*
X0119494Y0123144D02*
X0111452Y0123144D01*
X0111452Y0123742D02*
X0119494Y0123742D01*
X0119494Y0124341D02*
X0111452Y0124341D01*
X0111452Y0124939D02*
X0119494Y0124939D01*
X0119934Y0125538D02*
X0111012Y0125538D01*
X0109690Y0129727D02*
X0108315Y0129727D01*
X0108315Y0130326D02*
X0109455Y0130326D01*
X0109455Y0130924D02*
X0108315Y0130924D01*
X0108315Y0131523D02*
X0109455Y0131523D01*
X0109455Y0132121D02*
X0108315Y0132121D01*
X0108315Y0132720D02*
X0109455Y0132720D01*
X0109291Y0133318D02*
X0108315Y0133318D01*
X0108315Y0133917D02*
X0109055Y0133917D01*
X0109055Y0134515D02*
X0108315Y0134515D01*
X0115980Y0132720D02*
X0120094Y0132720D01*
X0120095Y0133318D02*
X0120694Y0133318D01*
X0120695Y0132720D02*
X0127821Y0132720D01*
X0127821Y0133318D02*
X0123663Y0133318D01*
X0123663Y0133917D02*
X0127821Y0133917D01*
X0127821Y0134515D02*
X0123663Y0134515D01*
X0123594Y0135114D02*
X0127821Y0135114D01*
X0127821Y0135712D02*
X0123175Y0135712D01*
X0122899Y0136311D02*
X0127664Y0136311D01*
X0127066Y0136909D02*
X0123263Y0136909D01*
X0120694Y0135712D02*
X0120095Y0135712D01*
X0120095Y0135114D02*
X0120694Y0135114D01*
X0120694Y0134515D02*
X0120095Y0134515D01*
X0120095Y0133917D02*
X0120694Y0133917D01*
X0120694Y0132121D02*
X0120095Y0132121D01*
X0120095Y0131523D02*
X0120694Y0131523D01*
X0120694Y0130924D02*
X0120095Y0130924D01*
X0120095Y0130326D02*
X0120694Y0130326D01*
X0120694Y0129727D02*
X0120095Y0129727D01*
X0120095Y0129129D02*
X0120694Y0129129D01*
X0122809Y0129129D02*
X0126725Y0129129D01*
X0127323Y0129727D02*
X0123502Y0129727D01*
X0123663Y0130326D02*
X0127821Y0130326D01*
X0127821Y0130924D02*
X0123663Y0130924D01*
X0123663Y0131523D02*
X0127821Y0131523D01*
X0127821Y0132121D02*
X0123663Y0132121D01*
X0127942Y0125538D02*
X0128132Y0125538D01*
X0127343Y0124939D02*
X0131299Y0124939D01*
X0131299Y0124341D02*
X0126745Y0124341D01*
X0133899Y0124341D02*
X0144882Y0124341D01*
X0144882Y0124939D02*
X0141834Y0124939D01*
X0142702Y0125538D02*
X0144882Y0125538D01*
X0144882Y0126735D02*
X0142895Y0126735D01*
X0142895Y0127333D02*
X0144882Y0127333D01*
X0145077Y0127932D02*
X0142895Y0127932D01*
X0142895Y0128530D02*
X0145957Y0128530D01*
X0147654Y0128530D02*
X0148254Y0128530D01*
X0148254Y0127932D02*
X0147654Y0127932D01*
X0147654Y0127333D02*
X0148254Y0127333D01*
X0148254Y0126735D02*
X0147654Y0126735D01*
X0147653Y0126136D02*
X0142895Y0126136D01*
X0145112Y0123742D02*
X0133899Y0123742D01*
X0133899Y0123144D02*
X0149425Y0123144D01*
X0148254Y0123742D02*
X0147654Y0123742D01*
X0147654Y0124341D02*
X0148254Y0124341D01*
X0148254Y0124939D02*
X0147654Y0124939D01*
X0147654Y0125538D02*
X0148254Y0125538D01*
X0151025Y0127333D02*
X0151597Y0127333D01*
X0152195Y0127932D02*
X0150830Y0127932D01*
X0149951Y0128530D02*
X0152794Y0128530D01*
X0152979Y0129129D02*
X0142895Y0129129D01*
X0142895Y0129727D02*
X0152979Y0129727D01*
X0152979Y0130326D02*
X0142895Y0130326D01*
X0142895Y0131523D02*
X0152979Y0131523D01*
X0152979Y0130924D02*
X0139395Y0130924D01*
X0139395Y0130326D02*
X0138795Y0130326D01*
X0138795Y0130924D02*
X0134621Y0130924D01*
X0134621Y0130326D02*
X0135295Y0130326D01*
X0135295Y0129727D02*
X0134621Y0129727D01*
X0134621Y0129129D02*
X0135295Y0129129D01*
X0135295Y0128530D02*
X0134621Y0128530D01*
X0134621Y0127932D02*
X0135295Y0127932D01*
X0135295Y0127333D02*
X0134621Y0127333D01*
X0134621Y0126735D02*
X0135295Y0126735D01*
X0135295Y0126136D02*
X0134621Y0126136D01*
X0134311Y0125538D02*
X0135489Y0125538D01*
X0136357Y0124939D02*
X0133899Y0124939D01*
X0133899Y0122545D02*
X0145328Y0122545D01*
X0142988Y0118954D02*
X0139995Y0118954D01*
X0139995Y0118356D02*
X0143587Y0118356D01*
X0144185Y0117757D02*
X0139995Y0117757D01*
X0139888Y0117159D02*
X0144768Y0117159D01*
X0144768Y0116560D02*
X0123287Y0116560D01*
X0125903Y0115962D02*
X0144768Y0115962D01*
X0148218Y0112969D02*
X0151579Y0112969D01*
X0151579Y0113568D02*
X0148816Y0113568D01*
X0149415Y0114166D02*
X0151579Y0114166D01*
X0151579Y0114765D02*
X0150013Y0114765D01*
X0150612Y0115363D02*
X0151579Y0115363D01*
X0151579Y0115962D02*
X0151210Y0115962D01*
X0154179Y0114765D02*
X0157650Y0114765D01*
X0157243Y0115363D02*
X0156420Y0115363D01*
X0158249Y0114166D02*
X0154179Y0114166D01*
X0154179Y0113568D02*
X0158848Y0113568D01*
X0159446Y0112969D02*
X0154179Y0112969D01*
X0154179Y0112371D02*
X0160045Y0112371D01*
X0160643Y0111772D02*
X0154179Y0111772D01*
X0154179Y0111174D02*
X0161242Y0111174D01*
X0161840Y0110575D02*
X0154179Y0110575D01*
X0156101Y0109976D02*
X0157523Y0109976D01*
X0157487Y0109378D02*
X0156137Y0109378D01*
X0156137Y0108779D02*
X0157487Y0108779D01*
X0157487Y0108181D02*
X0156137Y0108181D01*
X0156137Y0107582D02*
X0157487Y0107582D01*
X0157487Y0106984D02*
X0156137Y0106984D01*
X0156137Y0106385D02*
X0157487Y0106385D01*
X0157487Y0105787D02*
X0156137Y0105787D01*
X0156137Y0105188D02*
X0157487Y0105188D01*
X0157487Y0104590D02*
X0156137Y0104590D01*
X0156137Y0103991D02*
X0157487Y0103991D01*
X0157487Y0103393D02*
X0156137Y0103393D01*
X0156137Y0102794D02*
X0157487Y0102794D01*
X0157487Y0102196D02*
X0156137Y0102196D01*
X0156137Y0101597D02*
X0157487Y0101597D01*
X0157809Y0100999D02*
X0155815Y0100999D01*
X0149935Y0100999D02*
X0147941Y0100999D01*
X0148263Y0101597D02*
X0149613Y0101597D01*
X0149613Y0102196D02*
X0148263Y0102196D01*
X0148263Y0102794D02*
X0149613Y0102794D01*
X0149613Y0103393D02*
X0148263Y0103393D01*
X0148263Y0103991D02*
X0149613Y0103991D01*
X0149613Y0104590D02*
X0148263Y0104590D01*
X0148263Y0105188D02*
X0149613Y0105188D01*
X0149613Y0105787D02*
X0148263Y0105787D01*
X0148263Y0106385D02*
X0149613Y0106385D01*
X0149613Y0106984D02*
X0148263Y0106984D01*
X0148263Y0107582D02*
X0149613Y0107582D01*
X0149613Y0108181D02*
X0148263Y0108181D01*
X0148263Y0108779D02*
X0149613Y0108779D01*
X0149613Y0109378D02*
X0148263Y0109378D01*
X0148227Y0109976D02*
X0149649Y0109976D01*
X0161111Y0114981D02*
X0161188Y0114960D01*
X0162200Y0114960D01*
X0162200Y0118381D01*
X0162683Y0118381D01*
X0162683Y0114960D01*
X0163696Y0114960D01*
X0164026Y0115049D01*
X0164323Y0115220D01*
X0164565Y0115462D01*
X0164736Y0115758D01*
X0164824Y0116089D01*
X0164824Y0118381D01*
X0162683Y0118381D01*
X0162683Y0118864D01*
X0162200Y0118864D01*
X0162200Y0122285D01*
X0161188Y0122285D01*
X0160857Y0122196D01*
X0160561Y0122025D01*
X0160319Y0121783D01*
X0160297Y0121745D01*
X0160157Y0121885D01*
X0157246Y0121885D01*
X0156831Y0121470D01*
X0156417Y0121885D01*
X0155203Y0121885D01*
X0160459Y0127141D01*
X0160459Y0126124D01*
X0160986Y0125597D01*
X0163897Y0125597D01*
X0164284Y0125984D01*
X0170053Y0125984D01*
X0173681Y0122356D01*
X0173681Y0120428D01*
X0173484Y0120625D01*
X0171360Y0120625D01*
X0171143Y0120407D01*
X0170925Y0120625D01*
X0168801Y0120625D01*
X0168274Y0120098D01*
X0168274Y0113053D01*
X0168801Y0112526D01*
X0170925Y0112526D01*
X0171122Y0112723D01*
X0171122Y0110468D01*
X0165888Y0110468D01*
X0165756Y0110336D01*
X0161111Y0114981D01*
X0161327Y0114765D02*
X0168274Y0114765D01*
X0168274Y0115363D02*
X0164466Y0115363D01*
X0164790Y0115962D02*
X0168274Y0115962D01*
X0168274Y0116560D02*
X0164824Y0116560D01*
X0164824Y0117159D02*
X0168274Y0117159D01*
X0168274Y0117757D02*
X0164824Y0117757D01*
X0164824Y0118356D02*
X0168274Y0118356D01*
X0168274Y0118954D02*
X0164824Y0118954D01*
X0164824Y0118864D02*
X0164824Y0121156D01*
X0164736Y0121486D01*
X0164565Y0121783D01*
X0164323Y0122025D01*
X0164026Y0122196D01*
X0163696Y0122285D01*
X0162683Y0122285D01*
X0162683Y0118864D01*
X0164824Y0118864D01*
X0164824Y0119553D02*
X0168274Y0119553D01*
X0168327Y0120151D02*
X0164824Y0120151D01*
X0164824Y0120750D02*
X0173681Y0120750D01*
X0173681Y0121348D02*
X0164773Y0121348D01*
X0164401Y0121947D02*
X0173681Y0121947D01*
X0173492Y0122545D02*
X0155864Y0122545D01*
X0156462Y0123144D02*
X0172893Y0123144D01*
X0172295Y0123742D02*
X0157061Y0123742D01*
X0157659Y0124341D02*
X0171696Y0124341D01*
X0171098Y0124939D02*
X0158258Y0124939D01*
X0158856Y0125538D02*
X0170499Y0125538D01*
X0162683Y0121947D02*
X0162200Y0121947D01*
X0162200Y0121348D02*
X0162683Y0121348D01*
X0162683Y0120750D02*
X0162200Y0120750D01*
X0162200Y0120151D02*
X0162683Y0120151D01*
X0162683Y0119553D02*
X0162200Y0119553D01*
X0162200Y0118954D02*
X0162683Y0118954D01*
X0162683Y0118356D02*
X0162200Y0118356D01*
X0162200Y0117757D02*
X0162683Y0117757D01*
X0162683Y0117159D02*
X0162200Y0117159D01*
X0162200Y0116560D02*
X0162683Y0116560D01*
X0162683Y0115962D02*
X0162200Y0115962D01*
X0162200Y0115363D02*
X0162683Y0115363D01*
X0161926Y0114166D02*
X0168274Y0114166D01*
X0168274Y0113568D02*
X0162524Y0113568D01*
X0163123Y0112969D02*
X0168358Y0112969D01*
X0171122Y0111772D02*
X0164320Y0111772D01*
X0164918Y0111174D02*
X0171122Y0111174D01*
X0171122Y0110575D02*
X0165517Y0110575D01*
X0163721Y0112371D02*
X0171122Y0112371D01*
X0183958Y0120750D02*
X0186273Y0120750D01*
X0187732Y0120750D02*
X0187821Y0120750D01*
X0187821Y0120151D02*
X0187732Y0120151D01*
X0187732Y0119553D02*
X0187821Y0119553D01*
X0187821Y0118954D02*
X0187732Y0118954D01*
X0187732Y0118356D02*
X0187821Y0118356D01*
X0187821Y0117757D02*
X0187732Y0117757D01*
X0187732Y0117159D02*
X0187821Y0117159D01*
X0187821Y0116560D02*
X0193313Y0116560D01*
X0193313Y0115962D02*
X0189765Y0115962D01*
X0189765Y0115363D02*
X0193313Y0115363D01*
X0193313Y0114765D02*
X0189765Y0114765D01*
X0189765Y0114166D02*
X0193313Y0114166D01*
X0193149Y0113568D02*
X0189765Y0113568D01*
X0189689Y0112969D02*
X0192551Y0112969D01*
X0192024Y0112371D02*
X0189237Y0112371D01*
X0187821Y0112371D02*
X0187732Y0112371D01*
X0187732Y0112969D02*
X0187821Y0112969D01*
X0187821Y0113568D02*
X0187732Y0113568D01*
X0187732Y0114166D02*
X0187821Y0114166D01*
X0187821Y0114765D02*
X0187732Y0114765D01*
X0187732Y0115363D02*
X0187821Y0115363D01*
X0187821Y0115962D02*
X0187732Y0115962D01*
X0189765Y0117159D02*
X0193313Y0117159D01*
X0193453Y0117757D02*
X0189765Y0117757D01*
X0189765Y0118356D02*
X0201787Y0118356D01*
X0201787Y0118954D02*
X0189765Y0118954D01*
X0189765Y0119553D02*
X0201787Y0119553D01*
X0201787Y0120151D02*
X0189697Y0120151D01*
X0189279Y0120750D02*
X0193766Y0120750D01*
X0193313Y0121348D02*
X0183958Y0121348D01*
X0183958Y0121947D02*
X0193313Y0121947D01*
X0193313Y0124939D02*
X0189823Y0124939D01*
X0189224Y0125538D02*
X0193359Y0125538D01*
X0193913Y0129331D02*
X0193913Y0131905D01*
X0194513Y0131905D01*
X0194513Y0129331D01*
X0195959Y0129331D01*
X0196290Y0129419D01*
X0196586Y0129590D01*
X0196828Y0129832D01*
X0197000Y0130129D01*
X0197088Y0130460D01*
X0197088Y0131906D01*
X0194513Y0131906D01*
X0194513Y0132505D01*
X0197088Y0132505D01*
X0197088Y0133398D01*
X0199187Y0131299D01*
X0199416Y0131299D01*
X0199416Y0130848D01*
X0199943Y0130321D01*
X0204232Y0130321D01*
X0204759Y0130848D01*
X0204759Y0134350D01*
X0204232Y0134877D01*
X0199943Y0134877D01*
X0199614Y0134549D01*
X0196688Y0137475D01*
X0196688Y0140059D01*
X0196161Y0140586D01*
X0192266Y0140586D01*
X0191739Y0140059D01*
X0191739Y0136163D01*
X0192266Y0135636D01*
X0194850Y0135636D01*
X0195406Y0135080D01*
X0194513Y0135080D01*
X0194513Y0132506D01*
X0193913Y0132506D01*
X0193913Y0135080D01*
X0192467Y0135080D01*
X0192137Y0134992D01*
X0191840Y0134821D01*
X0191598Y0134579D01*
X0191427Y0134282D01*
X0191339Y0133951D01*
X0191339Y0132505D01*
X0193913Y0132505D01*
X0193913Y0131906D01*
X0191339Y0131906D01*
X0191339Y0130460D01*
X0191427Y0130129D01*
X0191598Y0129832D01*
X0191840Y0129590D01*
X0192137Y0129419D01*
X0192467Y0129331D01*
X0193913Y0129331D01*
X0193913Y0129727D02*
X0194513Y0129727D01*
X0194513Y0130326D02*
X0193913Y0130326D01*
X0193913Y0130924D02*
X0194513Y0130924D01*
X0194513Y0131523D02*
X0193913Y0131523D01*
X0193913Y0132121D02*
X0181384Y0132121D01*
X0181982Y0131523D02*
X0191339Y0131523D01*
X0191339Y0130924D02*
X0182581Y0130924D01*
X0183179Y0130326D02*
X0191374Y0130326D01*
X0191703Y0129727D02*
X0183778Y0129727D01*
X0184376Y0129129D02*
X0208320Y0129129D01*
X0208387Y0129037D02*
X0211353Y0127324D01*
X0214759Y0126966D01*
X0218017Y0128025D01*
X0220562Y0130317D01*
X0221955Y0133446D01*
X0221955Y0136871D01*
X0220562Y0140000D01*
X0218017Y0142292D01*
X0214759Y0143350D01*
X0211353Y0142992D01*
X0208387Y0141280D01*
X0206374Y0138509D01*
X0205661Y0135158D01*
X0206374Y0131808D01*
X0208387Y0129037D01*
X0207885Y0129727D02*
X0196723Y0129727D01*
X0197052Y0130326D02*
X0199938Y0130326D01*
X0199416Y0130924D02*
X0197088Y0130924D01*
X0197088Y0131523D02*
X0198963Y0131523D01*
X0198365Y0132121D02*
X0194513Y0132121D01*
X0194513Y0132720D02*
X0193913Y0132720D01*
X0193913Y0133318D02*
X0194513Y0133318D01*
X0194513Y0133917D02*
X0193913Y0133917D01*
X0193913Y0134515D02*
X0194513Y0134515D01*
X0195372Y0135114D02*
X0189365Y0135114D01*
X0189365Y0135712D02*
X0192190Y0135712D01*
X0191739Y0136311D02*
X0189365Y0136311D01*
X0189365Y0136909D02*
X0191739Y0136909D01*
X0191739Y0137508D02*
X0189365Y0137508D01*
X0189365Y0138107D02*
X0191739Y0138107D01*
X0191739Y0138705D02*
X0189697Y0138705D01*
X0190296Y0139304D02*
X0191739Y0139304D01*
X0191739Y0139902D02*
X0190894Y0139902D01*
X0191493Y0140501D02*
X0192181Y0140501D01*
X0192091Y0141099D02*
X0198245Y0141099D01*
X0197647Y0141698D02*
X0192690Y0141698D01*
X0190808Y0143493D02*
X0162180Y0143493D01*
X0162180Y0142895D02*
X0190210Y0142895D01*
X0189611Y0142296D02*
X0189214Y0142296D01*
X0191407Y0144092D02*
X0162180Y0144092D01*
X0161958Y0144690D02*
X0224409Y0144690D01*
X0224409Y0144092D02*
X0198930Y0144092D01*
X0199528Y0143493D02*
X0224409Y0143493D01*
X0224409Y0142895D02*
X0216161Y0142895D01*
X0218003Y0142296D02*
X0224409Y0142296D01*
X0224409Y0141698D02*
X0218677Y0141698D01*
X0219341Y0141099D02*
X0224409Y0141099D01*
X0224409Y0140501D02*
X0220006Y0140501D01*
X0220606Y0139902D02*
X0224409Y0139902D01*
X0224409Y0139304D02*
X0220872Y0139304D01*
X0221139Y0138705D02*
X0224409Y0138705D01*
X0224409Y0138107D02*
X0221405Y0138107D01*
X0221672Y0137508D02*
X0224409Y0137508D01*
X0224409Y0136909D02*
X0221938Y0136909D01*
X0221955Y0136311D02*
X0224409Y0136311D01*
X0224409Y0135712D02*
X0221955Y0135712D01*
X0221955Y0135114D02*
X0224409Y0135114D01*
X0224409Y0134515D02*
X0221955Y0134515D01*
X0221955Y0133917D02*
X0224409Y0133917D01*
X0224409Y0133318D02*
X0221899Y0133318D01*
X0221632Y0132720D02*
X0224409Y0132720D01*
X0224409Y0132121D02*
X0221366Y0132121D01*
X0221099Y0131523D02*
X0224409Y0131523D01*
X0224409Y0130924D02*
X0220833Y0130924D01*
X0220566Y0130326D02*
X0224409Y0130326D01*
X0224409Y0129727D02*
X0219908Y0129727D01*
X0219243Y0129129D02*
X0224409Y0129129D01*
X0224409Y0128530D02*
X0218578Y0128530D01*
X0217731Y0127932D02*
X0224409Y0127932D01*
X0224409Y0127333D02*
X0215889Y0127333D01*
X0212450Y0126735D02*
X0188027Y0126735D01*
X0188626Y0126136D02*
X0211935Y0126136D01*
X0211935Y0125538D02*
X0202941Y0125538D01*
X0202987Y0124939D02*
X0211935Y0124939D01*
X0211338Y0127333D02*
X0186172Y0127333D01*
X0185573Y0127932D02*
X0210301Y0127932D01*
X0209264Y0128530D02*
X0184975Y0128530D01*
X0184290Y0125538D02*
X0183958Y0125538D01*
X0183958Y0124939D02*
X0184889Y0124939D01*
X0185487Y0124341D02*
X0183958Y0124341D01*
X0183958Y0123742D02*
X0187343Y0123742D01*
X0187942Y0123144D02*
X0183958Y0123144D01*
X0183958Y0122545D02*
X0188540Y0122545D01*
X0197416Y0120750D02*
X0198885Y0120750D01*
X0198431Y0121348D02*
X0197869Y0121348D01*
X0197869Y0121947D02*
X0198431Y0121947D01*
X0198431Y0122545D02*
X0197869Y0122545D01*
X0197869Y0123144D02*
X0198431Y0123144D01*
X0198431Y0123742D02*
X0197869Y0123742D01*
X0197869Y0124341D02*
X0198431Y0124341D01*
X0198431Y0124939D02*
X0197869Y0124939D01*
X0197823Y0125538D02*
X0198478Y0125538D01*
X0204236Y0130326D02*
X0207450Y0130326D01*
X0207016Y0130924D02*
X0204759Y0130924D01*
X0204759Y0131523D02*
X0206581Y0131523D01*
X0206307Y0132121D02*
X0204759Y0132121D01*
X0204759Y0132720D02*
X0206180Y0132720D01*
X0206052Y0133318D02*
X0204759Y0133318D01*
X0204759Y0133917D02*
X0205925Y0133917D01*
X0205798Y0134515D02*
X0204594Y0134515D01*
X0204505Y0135712D02*
X0205779Y0135712D01*
X0205671Y0135114D02*
X0199049Y0135114D01*
X0198450Y0135712D02*
X0199670Y0135712D01*
X0199416Y0136311D02*
X0197852Y0136311D01*
X0197253Y0136909D02*
X0199416Y0136909D01*
X0199416Y0137508D02*
X0196688Y0137508D01*
X0196688Y0138107D02*
X0199416Y0138107D01*
X0199416Y0138705D02*
X0196688Y0138705D01*
X0196688Y0139304D02*
X0199416Y0139304D01*
X0199442Y0139902D02*
X0196688Y0139902D01*
X0196246Y0140501D02*
X0198844Y0140501D01*
X0200725Y0142296D02*
X0210148Y0142296D01*
X0211184Y0142895D02*
X0200127Y0142895D01*
X0201324Y0141698D02*
X0209111Y0141698D01*
X0208256Y0141099D02*
X0201922Y0141099D01*
X0202521Y0140501D02*
X0207821Y0140501D01*
X0207386Y0139902D02*
X0204325Y0139902D01*
X0204759Y0139304D02*
X0206951Y0139304D01*
X0206516Y0138705D02*
X0204759Y0138705D01*
X0204759Y0138107D02*
X0206288Y0138107D01*
X0206161Y0137508D02*
X0204759Y0137508D01*
X0204759Y0136909D02*
X0206034Y0136909D01*
X0205906Y0136311D02*
X0204759Y0136311D01*
X0197766Y0132720D02*
X0197088Y0132720D01*
X0197088Y0133318D02*
X0197167Y0133318D01*
X0191562Y0134515D02*
X0173115Y0134515D01*
X0179588Y0133917D02*
X0191339Y0133917D01*
X0191339Y0133318D02*
X0180187Y0133318D01*
X0180785Y0132720D02*
X0191339Y0132720D01*
X0206462Y0121947D02*
X0211935Y0121947D01*
X0211935Y0121348D02*
X0205864Y0121348D01*
X0205265Y0120750D02*
X0211935Y0120750D01*
X0212259Y0120151D02*
X0204667Y0120151D01*
X0204387Y0119553D02*
X0224409Y0119553D01*
X0224409Y0120151D02*
X0223412Y0120151D01*
X0223735Y0120750D02*
X0224409Y0120750D01*
X0224409Y0121348D02*
X0223735Y0121348D01*
X0223735Y0121947D02*
X0224409Y0121947D01*
X0224409Y0122545D02*
X0223735Y0122545D01*
X0223735Y0123144D02*
X0224409Y0123144D01*
X0224409Y0123742D02*
X0223735Y0123742D01*
X0223735Y0124341D02*
X0224409Y0124341D01*
X0224409Y0124939D02*
X0223735Y0124939D01*
X0223735Y0125538D02*
X0224409Y0125538D01*
X0224409Y0126136D02*
X0223735Y0126136D01*
X0223221Y0126735D02*
X0224409Y0126735D01*
X0224409Y0118954D02*
X0204387Y0118954D01*
X0204387Y0118356D02*
X0224409Y0118356D01*
X0224409Y0117757D02*
X0204387Y0117757D01*
X0204387Y0117159D02*
X0224409Y0117159D01*
X0224409Y0116560D02*
X0204387Y0116560D01*
X0204387Y0115962D02*
X0224409Y0115962D01*
X0224409Y0115363D02*
X0204387Y0115363D01*
X0204387Y0114765D02*
X0224409Y0114765D01*
X0224409Y0114166D02*
X0204387Y0114166D01*
X0204387Y0113568D02*
X0224409Y0113568D01*
X0224409Y0112969D02*
X0204387Y0112969D01*
X0204009Y0112371D02*
X0224409Y0112371D01*
X0224409Y0111772D02*
X0203411Y0111772D01*
X0202812Y0111174D02*
X0224409Y0111174D01*
X0224409Y0110575D02*
X0202214Y0110575D01*
X0201615Y0109976D02*
X0224409Y0109976D01*
X0224409Y0109378D02*
X0201016Y0109378D01*
X0200418Y0108779D02*
X0224409Y0108779D01*
X0224409Y0108181D02*
X0199819Y0108181D01*
X0192079Y0110575D02*
X0188978Y0110575D01*
X0188380Y0111174D02*
X0192024Y0111174D01*
X0192024Y0111772D02*
X0187781Y0111772D01*
X0197869Y0114765D02*
X0198162Y0114765D01*
X0198431Y0115363D02*
X0197869Y0115363D01*
X0197869Y0115962D02*
X0198431Y0115962D01*
X0198431Y0116560D02*
X0197869Y0116560D01*
X0197869Y0117159D02*
X0198431Y0117159D01*
X0198571Y0117757D02*
X0197730Y0117757D01*
X0166535Y0098006D02*
X0146590Y0098006D01*
X0146301Y0098605D02*
X0165936Y0098605D01*
X0165338Y0099203D02*
X0146301Y0099203D01*
X0146301Y0099802D02*
X0164739Y0099802D01*
X0164141Y0100400D02*
X0146301Y0100400D01*
X0147188Y0097408D02*
X0167133Y0097408D01*
X0134187Y0100999D02*
X0119765Y0100999D01*
X0119765Y0101597D02*
X0133865Y0101597D01*
X0133865Y0102196D02*
X0119782Y0102196D01*
X0117165Y0102196D02*
X0108173Y0102196D01*
X0108499Y0101597D02*
X0117165Y0101597D01*
X0117165Y0100999D02*
X0108499Y0100999D01*
X0108499Y0100400D02*
X0113635Y0100400D01*
X0113136Y0099802D02*
X0108499Y0099802D01*
X0108499Y0099203D02*
X0113136Y0099203D01*
X0113136Y0098605D02*
X0108499Y0098605D01*
X0108499Y0098006D02*
X0113136Y0098006D01*
X0113136Y0097408D02*
X0108326Y0097408D01*
X0110104Y0095014D02*
X0102803Y0095014D01*
X0102803Y0095612D02*
X0113530Y0095612D01*
X0113136Y0096211D02*
X0102803Y0096211D01*
X0102803Y0096809D02*
X0113136Y0096809D01*
X0114831Y0095479D02*
X0115393Y0095479D01*
X0115513Y0095598D01*
X0115632Y0095479D01*
X0117362Y0095479D01*
X0117481Y0095598D01*
X0117600Y0095479D01*
X0119003Y0095479D01*
X0119144Y0095338D01*
X0119440Y0095167D01*
X0119771Y0095079D01*
X0120434Y0095079D01*
X0121097Y0095079D01*
X0121428Y0095167D01*
X0121724Y0095338D01*
X0121864Y0095479D01*
X0122100Y0095479D01*
X0121699Y0095078D01*
X0121699Y0093348D01*
X0121819Y0093229D01*
X0121699Y0093110D01*
X0121699Y0091380D01*
X0121819Y0091261D01*
X0121699Y0091141D01*
X0121699Y0089411D01*
X0121708Y0089403D01*
X0121408Y0089322D01*
X0121112Y0089151D01*
X0120972Y0089011D01*
X0119569Y0089011D01*
X0119450Y0088892D01*
X0119330Y0089011D01*
X0117600Y0089011D01*
X0117481Y0088892D01*
X0117362Y0089011D01*
X0115632Y0089011D01*
X0115513Y0088892D01*
X0115393Y0089011D01*
X0114831Y0089011D01*
X0115231Y0089411D01*
X0115231Y0091141D01*
X0115112Y0091261D01*
X0115231Y0091380D01*
X0115231Y0093110D01*
X0115112Y0093229D01*
X0115231Y0093348D01*
X0115231Y0095078D01*
X0114831Y0095479D01*
X0115231Y0095014D02*
X0121699Y0095014D01*
X0121699Y0094415D02*
X0115231Y0094415D01*
X0115231Y0093817D02*
X0121699Y0093817D01*
X0121808Y0093218D02*
X0115123Y0093218D01*
X0115231Y0092620D02*
X0121699Y0092620D01*
X0121699Y0092021D02*
X0115231Y0092021D01*
X0115231Y0091423D02*
X0121699Y0091423D01*
X0121699Y0090824D02*
X0115231Y0090824D01*
X0115231Y0090226D02*
X0121699Y0090226D01*
X0121699Y0089627D02*
X0115231Y0089627D01*
X0114849Y0089029D02*
X0120989Y0089029D01*
X0113228Y0084241D02*
X0104794Y0084241D01*
X0104794Y0084839D02*
X0113136Y0084839D01*
X0113136Y0085438D02*
X0104794Y0085438D01*
X0104794Y0086036D02*
X0110788Y0086036D01*
X0110190Y0086635D02*
X0104794Y0086635D01*
X0104794Y0087233D02*
X0109591Y0087233D01*
X0108993Y0087832D02*
X0104794Y0087832D01*
X0104794Y0088430D02*
X0108661Y0088430D01*
X0108661Y0089029D02*
X0104794Y0089029D01*
X0104794Y0089627D02*
X0108661Y0089627D01*
X0108661Y0090226D02*
X0104794Y0090226D01*
X0104743Y0090824D02*
X0108661Y0090824D01*
X0108661Y0091423D02*
X0104144Y0091423D01*
X0103546Y0092021D02*
X0108661Y0092021D01*
X0108661Y0092620D02*
X0102947Y0092620D01*
X0102803Y0093218D02*
X0108661Y0093218D01*
X0108907Y0093817D02*
X0102803Y0093817D01*
X0102803Y0094415D02*
X0109506Y0094415D01*
X0104116Y0097408D02*
X0103208Y0097408D01*
X0103381Y0098006D02*
X0103943Y0098006D01*
X0103943Y0098605D02*
X0103381Y0098605D01*
X0103381Y0099203D02*
X0103943Y0099203D01*
X0103943Y0099802D02*
X0103381Y0099802D01*
X0103381Y0100400D02*
X0103943Y0100400D01*
X0103502Y0100999D02*
X0103381Y0100999D01*
X0098825Y0099599D02*
X0098825Y0097581D01*
X0099352Y0097054D01*
X0099403Y0097054D01*
X0099403Y0091355D01*
X0100025Y0090733D01*
X0100025Y0087624D01*
X0099425Y0087624D01*
X0099425Y0090789D01*
X0097586Y0090789D01*
X0097255Y0090700D01*
X0096958Y0090529D01*
X0096716Y0090287D01*
X0096545Y0089991D01*
X0096457Y0089660D01*
X0096457Y0087624D01*
X0099425Y0087624D01*
X0099425Y0087024D01*
X0096457Y0087024D01*
X0096457Y0084987D01*
X0096545Y0084656D01*
X0096716Y0084360D01*
X0096958Y0084118D01*
X0097255Y0083947D01*
X0097586Y0083858D01*
X0099425Y0083858D01*
X0099425Y0087024D01*
X0100025Y0087024D01*
X0100025Y0083914D01*
X0099807Y0083696D01*
X0097384Y0083696D01*
X0096857Y0083169D01*
X0096857Y0079576D01*
X0095084Y0077803D01*
X0094523Y0077803D01*
X0094523Y0077854D01*
X0093996Y0078381D01*
X0089198Y0078381D01*
X0089198Y0080186D01*
X0094679Y0085666D01*
X0095440Y0086428D01*
X0095440Y0102984D01*
X0098825Y0099599D01*
X0098622Y0099802D02*
X0095440Y0099802D01*
X0095440Y0100400D02*
X0098024Y0100400D01*
X0097425Y0100999D02*
X0095440Y0100999D01*
X0095440Y0101597D02*
X0096827Y0101597D01*
X0096228Y0102196D02*
X0095440Y0102196D01*
X0095440Y0102794D02*
X0095630Y0102794D01*
X0095440Y0099203D02*
X0098825Y0099203D01*
X0098825Y0098605D02*
X0095440Y0098605D01*
X0095440Y0098006D02*
X0098825Y0098006D01*
X0098998Y0097408D02*
X0095440Y0097408D01*
X0095440Y0096809D02*
X0099403Y0096809D01*
X0099403Y0096211D02*
X0095440Y0096211D01*
X0095440Y0095612D02*
X0099403Y0095612D01*
X0099403Y0095014D02*
X0095440Y0095014D01*
X0095440Y0094415D02*
X0099403Y0094415D01*
X0099403Y0093817D02*
X0095440Y0093817D01*
X0095440Y0093218D02*
X0099403Y0093218D01*
X0099403Y0092620D02*
X0095440Y0092620D01*
X0095440Y0092021D02*
X0099403Y0092021D01*
X0099403Y0091423D02*
X0095440Y0091423D01*
X0095440Y0090824D02*
X0099934Y0090824D01*
X0100025Y0090226D02*
X0099425Y0090226D01*
X0099425Y0089627D02*
X0100025Y0089627D01*
X0100025Y0089029D02*
X0099425Y0089029D01*
X0099425Y0088430D02*
X0100025Y0088430D01*
X0100025Y0087832D02*
X0099425Y0087832D01*
X0099425Y0087233D02*
X0095440Y0087233D01*
X0095440Y0086635D02*
X0096457Y0086635D01*
X0096457Y0086036D02*
X0095049Y0086036D01*
X0094450Y0085438D02*
X0096457Y0085438D01*
X0096496Y0084839D02*
X0093852Y0084839D01*
X0093253Y0084241D02*
X0096836Y0084241D01*
X0097330Y0083642D02*
X0092655Y0083642D01*
X0092056Y0083043D02*
X0096857Y0083043D01*
X0096857Y0082445D02*
X0091458Y0082445D01*
X0090859Y0081846D02*
X0096857Y0081846D01*
X0096857Y0081248D02*
X0090261Y0081248D01*
X0089662Y0080649D02*
X0096857Y0080649D01*
X0096857Y0080051D02*
X0089198Y0080051D01*
X0089198Y0079452D02*
X0096733Y0079452D01*
X0096135Y0078854D02*
X0089198Y0078854D01*
X0094121Y0078255D02*
X0095536Y0078255D01*
X0101425Y0077058D02*
X0104731Y0077058D01*
X0104731Y0076911D02*
X0105258Y0076384D01*
X0109547Y0076384D01*
X0110074Y0076911D01*
X0110074Y0081594D01*
X0109547Y0082121D01*
X0105258Y0082121D01*
X0104731Y0081594D01*
X0104731Y0076911D01*
X0105182Y0076460D02*
X0101425Y0076460D01*
X0101425Y0075861D02*
X0135542Y0075861D01*
X0136140Y0075263D02*
X0126216Y0075263D01*
X0126216Y0074664D02*
X0136739Y0074664D01*
X0137337Y0074066D02*
X0126216Y0074066D01*
X0126216Y0073467D02*
X0137936Y0073467D01*
X0138948Y0070475D02*
X0126078Y0070475D01*
X0121010Y0070475D02*
X0111695Y0070475D01*
X0111096Y0071073D02*
X0120872Y0071073D01*
X0120872Y0071672D02*
X0110074Y0071672D01*
X0110074Y0072270D02*
X0120872Y0072270D01*
X0120872Y0072869D02*
X0110074Y0072869D01*
X0110074Y0073467D02*
X0120872Y0073467D01*
X0120872Y0074066D02*
X0110074Y0074066D01*
X0110074Y0074664D02*
X0120872Y0074664D01*
X0120872Y0075263D02*
X0110074Y0075263D01*
X0109622Y0076460D02*
X0121324Y0076460D01*
X0120872Y0077058D02*
X0110074Y0077058D01*
X0110074Y0077657D02*
X0120872Y0077657D01*
X0118569Y0078255D02*
X0110074Y0078255D01*
X0110074Y0078854D02*
X0117971Y0078854D01*
X0117372Y0079452D02*
X0110074Y0079452D01*
X0110074Y0080051D02*
X0116774Y0080051D01*
X0116175Y0080649D02*
X0110074Y0080649D01*
X0110074Y0081248D02*
X0115577Y0081248D01*
X0114978Y0081846D02*
X0109822Y0081846D01*
X0113228Y0083642D02*
X0104561Y0083642D01*
X0103963Y0083043D02*
X0113781Y0083043D01*
X0114380Y0082445D02*
X0103364Y0082445D01*
X0102766Y0081846D02*
X0104983Y0081846D01*
X0104731Y0081248D02*
X0102594Y0081248D01*
X0102594Y0080649D02*
X0104731Y0080649D01*
X0104731Y0080051D02*
X0102594Y0080051D01*
X0102594Y0079452D02*
X0104731Y0079452D01*
X0104731Y0078854D02*
X0102594Y0078854D01*
X0102594Y0078255D02*
X0104731Y0078255D01*
X0104731Y0077657D02*
X0102158Y0077657D01*
X0101777Y0075263D02*
X0104731Y0075263D01*
X0104731Y0074664D02*
X0102376Y0074664D01*
X0102974Y0074066D02*
X0104731Y0074066D01*
X0104731Y0073467D02*
X0103573Y0073467D01*
X0104171Y0072869D02*
X0104731Y0072869D01*
X0112293Y0069876D02*
X0139547Y0069876D01*
X0140145Y0069278D02*
X0112892Y0069278D01*
X0113490Y0068679D02*
X0140744Y0068679D01*
X0141342Y0068081D02*
X0114089Y0068081D01*
X0114687Y0067482D02*
X0141941Y0067482D01*
X0142539Y0066884D02*
X0115286Y0066884D01*
X0115884Y0066285D02*
X0143138Y0066285D01*
X0143701Y0065687D02*
X0116483Y0065687D01*
X0117081Y0065088D02*
X0117162Y0065088D01*
X0121659Y0065088D02*
X0143701Y0065088D01*
X0143701Y0064490D02*
X0122082Y0064490D01*
X0122082Y0063891D02*
X0143701Y0063891D01*
X0143701Y0063293D02*
X0122531Y0063293D01*
X0123130Y0062694D02*
X0143701Y0062694D01*
X0143701Y0062096D02*
X0123728Y0062096D01*
X0124327Y0061497D02*
X0143701Y0061497D01*
X0143701Y0060899D02*
X0124847Y0060899D01*
X0124847Y0060300D02*
X0143701Y0060300D01*
X0143701Y0059702D02*
X0124847Y0059702D01*
X0124847Y0059103D02*
X0143701Y0059103D01*
X0143701Y0058505D02*
X0124847Y0058505D01*
X0124847Y0057906D02*
X0143701Y0057906D01*
X0143701Y0057307D02*
X0124847Y0057307D01*
X0124847Y0056709D02*
X0143701Y0056709D01*
X0143701Y0056110D02*
X0124847Y0056110D01*
X0124847Y0055512D02*
X0143701Y0055512D01*
X0143701Y0054913D02*
X0124847Y0054913D01*
X0124847Y0054315D02*
X0143701Y0054315D01*
X0143701Y0053716D02*
X0124847Y0053716D01*
X0124847Y0053118D02*
X0143701Y0053118D01*
X0143701Y0052519D02*
X0124847Y0052519D01*
X0124847Y0051921D02*
X0143701Y0051921D01*
X0142176Y0051322D02*
X0140518Y0051322D01*
X0140529Y0051311D02*
X0140287Y0051553D01*
X0139991Y0051724D01*
X0139660Y0051813D01*
X0137427Y0051813D01*
X0137427Y0046876D01*
X0136827Y0046876D01*
X0136827Y0051813D01*
X0134593Y0051813D01*
X0134263Y0051724D01*
X0133966Y0051553D01*
X0133724Y0051311D01*
X0133553Y0051014D01*
X0133465Y0050684D01*
X0133465Y0046876D01*
X0136827Y0046876D01*
X0136827Y0046276D01*
X0133465Y0046276D01*
X0133465Y0042467D01*
X0133553Y0042137D01*
X0133724Y0041840D01*
X0133966Y0041598D01*
X0134263Y0041427D01*
X0134593Y0041339D01*
X0136827Y0041339D01*
X0136827Y0046276D01*
X0137427Y0046276D01*
X0137427Y0046876D01*
X0140789Y0046876D01*
X0140789Y0050684D01*
X0140700Y0051014D01*
X0140529Y0051311D01*
X0140778Y0050724D02*
X0141739Y0050724D01*
X0141739Y0050125D02*
X0140789Y0050125D01*
X0140789Y0049527D02*
X0141739Y0049527D01*
X0141739Y0048928D02*
X0140789Y0048928D01*
X0140789Y0048330D02*
X0141739Y0048330D01*
X0141739Y0047731D02*
X0140789Y0047731D01*
X0140789Y0047133D02*
X0141739Y0047133D01*
X0141739Y0046534D02*
X0137427Y0046534D01*
X0137427Y0046276D02*
X0140789Y0046276D01*
X0140789Y0042467D01*
X0140700Y0042137D01*
X0140529Y0041840D01*
X0140287Y0041598D01*
X0139991Y0041427D01*
X0139660Y0041339D01*
X0137427Y0041339D01*
X0137427Y0046276D01*
X0137427Y0045936D02*
X0136827Y0045936D01*
X0136827Y0046534D02*
X0124847Y0046534D01*
X0124847Y0045936D02*
X0133465Y0045936D01*
X0133465Y0045337D02*
X0125021Y0045337D01*
X0125047Y0044739D02*
X0133465Y0044739D01*
X0133465Y0044140D02*
X0125047Y0044140D01*
X0125047Y0043542D02*
X0133465Y0043542D01*
X0133465Y0042943D02*
X0125047Y0042943D01*
X0125047Y0042345D02*
X0133497Y0042345D01*
X0133818Y0041746D02*
X0125047Y0041746D01*
X0125274Y0041148D02*
X0143701Y0041148D01*
X0143632Y0040549D02*
X0125872Y0040549D01*
X0126471Y0039951D02*
X0143033Y0039951D01*
X0142258Y0041746D02*
X0140435Y0041746D01*
X0140756Y0042345D02*
X0141739Y0042345D01*
X0141739Y0042943D02*
X0140789Y0042943D01*
X0140789Y0043542D02*
X0141739Y0043542D01*
X0141739Y0044140D02*
X0140789Y0044140D01*
X0140789Y0044739D02*
X0141739Y0044739D01*
X0141739Y0045337D02*
X0140789Y0045337D01*
X0140789Y0045936D02*
X0141739Y0045936D01*
X0137427Y0045337D02*
X0136827Y0045337D01*
X0136827Y0044739D02*
X0137427Y0044739D01*
X0137427Y0044140D02*
X0136827Y0044140D01*
X0136827Y0043542D02*
X0137427Y0043542D01*
X0137427Y0042943D02*
X0136827Y0042943D01*
X0136827Y0042345D02*
X0137427Y0042345D01*
X0137427Y0041746D02*
X0136827Y0041746D01*
X0136836Y0039805D02*
X0136836Y0037033D01*
X0136236Y0037033D01*
X0136236Y0036433D01*
X0133858Y0036433D01*
X0133858Y0034790D01*
X0133947Y0034460D01*
X0134118Y0034163D01*
X0134360Y0033921D01*
X0134656Y0033750D01*
X0134987Y0033661D01*
X0136236Y0033661D01*
X0136236Y0036433D01*
X0136836Y0036433D01*
X0136836Y0033661D01*
X0138085Y0033661D01*
X0138416Y0033750D01*
X0138712Y0033921D01*
X0138954Y0034163D01*
X0139126Y0034460D01*
X0139214Y0034790D01*
X0139214Y0036433D01*
X0136836Y0036433D01*
X0136836Y0037033D01*
X0139214Y0037033D01*
X0139214Y0038676D01*
X0139126Y0039006D01*
X0138954Y0039303D01*
X0138712Y0039545D01*
X0138416Y0039716D01*
X0138085Y0039805D01*
X0136836Y0039805D01*
X0136836Y0039352D02*
X0136236Y0039352D01*
X0136236Y0039805D02*
X0136236Y0037033D01*
X0133858Y0037033D01*
X0133858Y0038676D01*
X0133947Y0039006D01*
X0134118Y0039303D01*
X0134360Y0039545D01*
X0134656Y0039716D01*
X0134987Y0039805D01*
X0136236Y0039805D01*
X0136236Y0038754D02*
X0136836Y0038754D01*
X0136836Y0038155D02*
X0136236Y0038155D01*
X0136236Y0037557D02*
X0136836Y0037557D01*
X0136836Y0036958D02*
X0139376Y0036958D01*
X0139376Y0036360D02*
X0139214Y0036360D01*
X0139214Y0035761D02*
X0139376Y0035761D01*
X0139376Y0035163D02*
X0139214Y0035163D01*
X0139154Y0034564D02*
X0139401Y0034564D01*
X0138757Y0033966D02*
X0200787Y0033966D01*
X0200787Y0034564D02*
X0159707Y0034564D01*
X0160305Y0035163D02*
X0200787Y0035163D01*
X0200787Y0035761D02*
X0160904Y0035761D01*
X0160969Y0036360D02*
X0200787Y0036360D01*
X0200787Y0036958D02*
X0160969Y0036958D01*
X0161442Y0037557D02*
X0200787Y0037557D01*
X0200787Y0038155D02*
X0162041Y0038155D01*
X0162049Y0038754D02*
X0200787Y0038754D01*
X0200787Y0039352D02*
X0162049Y0039352D01*
X0162049Y0039951D02*
X0200403Y0039951D01*
X0199804Y0040549D02*
X0162049Y0040549D01*
X0162049Y0041148D02*
X0199206Y0041148D01*
X0198607Y0041746D02*
X0194987Y0041746D01*
X0195507Y0042345D02*
X0198009Y0042345D01*
X0197410Y0042943D02*
X0195507Y0042943D01*
X0195507Y0043542D02*
X0196812Y0043542D01*
X0196450Y0044140D02*
X0195507Y0044140D01*
X0195507Y0044739D02*
X0196450Y0044739D01*
X0196450Y0045337D02*
X0195507Y0045337D01*
X0195507Y0045936D02*
X0196450Y0045936D01*
X0196450Y0046534D02*
X0195507Y0046534D01*
X0195507Y0047133D02*
X0196450Y0047133D01*
X0196450Y0047731D02*
X0195507Y0047731D01*
X0195507Y0048330D02*
X0196450Y0048330D01*
X0196450Y0048928D02*
X0195507Y0048928D01*
X0195507Y0049527D02*
X0196450Y0049527D01*
X0196450Y0050125D02*
X0195507Y0050125D01*
X0195507Y0050724D02*
X0196450Y0050724D01*
X0196450Y0051322D02*
X0195070Y0051322D01*
X0194332Y0051921D02*
X0196450Y0051921D01*
X0196450Y0052519D02*
X0194332Y0052519D01*
X0194332Y0053118D02*
X0196450Y0053118D01*
X0196450Y0053716D02*
X0194332Y0053716D01*
X0194218Y0054315D02*
X0196450Y0054315D01*
X0196450Y0054913D02*
X0193620Y0054913D01*
X0193021Y0055512D02*
X0196450Y0055512D01*
X0196450Y0056110D02*
X0192422Y0056110D01*
X0191824Y0056709D02*
X0196450Y0056709D01*
X0196450Y0057307D02*
X0191225Y0057307D01*
X0190627Y0057906D02*
X0196450Y0057906D01*
X0196450Y0058505D02*
X0190028Y0058505D01*
X0189430Y0059103D02*
X0196450Y0059103D01*
X0196450Y0059702D02*
X0188831Y0059702D01*
X0188528Y0060300D02*
X0196450Y0060300D01*
X0196450Y0060899D02*
X0188528Y0060899D01*
X0188293Y0061497D02*
X0196450Y0061497D01*
X0196450Y0062096D02*
X0187695Y0062096D01*
X0186950Y0057906D02*
X0185671Y0057906D01*
X0185671Y0057307D02*
X0187549Y0057307D01*
X0188147Y0056709D02*
X0185671Y0056709D01*
X0185671Y0056110D02*
X0188746Y0056110D01*
X0189344Y0055512D02*
X0185671Y0055512D01*
X0185671Y0054913D02*
X0189943Y0054913D01*
X0190541Y0054315D02*
X0185671Y0054315D01*
X0185671Y0053716D02*
X0191140Y0053716D01*
X0191732Y0053118D02*
X0185671Y0053118D01*
X0185671Y0052519D02*
X0191732Y0052519D01*
X0191732Y0051921D02*
X0185671Y0051921D01*
X0187196Y0051322D02*
X0189420Y0051322D01*
X0188983Y0050724D02*
X0187633Y0050724D01*
X0187633Y0050125D02*
X0188983Y0050125D01*
X0188983Y0049527D02*
X0187633Y0049527D01*
X0187633Y0048928D02*
X0188983Y0048928D01*
X0188983Y0048330D02*
X0187633Y0048330D01*
X0187633Y0047731D02*
X0188983Y0047731D01*
X0188983Y0047133D02*
X0187633Y0047133D01*
X0187633Y0046534D02*
X0188983Y0046534D01*
X0188983Y0045936D02*
X0187633Y0045936D01*
X0187633Y0045337D02*
X0188983Y0045337D01*
X0188983Y0044739D02*
X0187633Y0044739D01*
X0187633Y0044140D02*
X0188983Y0044140D01*
X0188983Y0043542D02*
X0187633Y0043542D01*
X0187633Y0042943D02*
X0188983Y0042943D01*
X0188983Y0042345D02*
X0187633Y0042345D01*
X0187113Y0041746D02*
X0189502Y0041746D01*
X0181628Y0041746D02*
X0179239Y0041746D01*
X0179759Y0042345D02*
X0181109Y0042345D01*
X0181109Y0042943D02*
X0179759Y0042943D01*
X0179759Y0043542D02*
X0181109Y0043542D01*
X0181109Y0044140D02*
X0179759Y0044140D01*
X0179759Y0044739D02*
X0181109Y0044739D01*
X0181109Y0045337D02*
X0179759Y0045337D01*
X0179759Y0045936D02*
X0181109Y0045936D01*
X0181109Y0046534D02*
X0179759Y0046534D01*
X0179759Y0047133D02*
X0181109Y0047133D01*
X0181109Y0047731D02*
X0179759Y0047731D01*
X0179759Y0048330D02*
X0181109Y0048330D01*
X0181109Y0048928D02*
X0179759Y0048928D01*
X0179759Y0049527D02*
X0181109Y0049527D01*
X0181109Y0050125D02*
X0179759Y0050125D01*
X0179759Y0050724D02*
X0181109Y0050724D01*
X0181546Y0051322D02*
X0179322Y0051322D01*
X0199890Y0044140D02*
X0224409Y0044140D01*
X0224409Y0043542D02*
X0200489Y0043542D01*
X0201087Y0042943D02*
X0224409Y0042943D01*
X0224409Y0042345D02*
X0201686Y0042345D01*
X0202284Y0041746D02*
X0224409Y0041746D01*
X0224409Y0041148D02*
X0202883Y0041148D01*
X0203387Y0040549D02*
X0224409Y0040549D01*
X0224409Y0039951D02*
X0203387Y0039951D01*
X0203387Y0039352D02*
X0224409Y0039352D01*
X0224409Y0038754D02*
X0203387Y0038754D01*
X0203387Y0038155D02*
X0224409Y0038155D01*
X0224409Y0037557D02*
X0203387Y0037557D01*
X0203387Y0036958D02*
X0224409Y0036958D01*
X0224409Y0036360D02*
X0203387Y0036360D01*
X0203387Y0035761D02*
X0224409Y0035761D01*
X0224409Y0035163D02*
X0203387Y0035163D01*
X0203387Y0034564D02*
X0224409Y0034564D01*
X0224409Y0033966D02*
X0203387Y0033966D01*
X0203387Y0033367D02*
X0224409Y0033367D01*
X0224409Y0032769D02*
X0203387Y0032769D01*
X0203387Y0032170D02*
X0224409Y0032170D01*
X0224409Y0031572D02*
X0203387Y0031572D01*
X0203387Y0030973D02*
X0224409Y0030973D01*
X0224409Y0030374D02*
X0203387Y0030374D01*
X0203387Y0029776D02*
X0224409Y0029776D01*
X0224409Y0029177D02*
X0203387Y0029177D01*
X0203387Y0028579D02*
X0224409Y0028579D01*
X0224409Y0027980D02*
X0203387Y0027980D01*
X0203387Y0027382D02*
X0224409Y0027382D01*
X0224409Y0026783D02*
X0203387Y0026783D01*
X0203387Y0026185D02*
X0224409Y0026185D01*
X0224409Y0025586D02*
X0203387Y0025586D01*
X0203387Y0024988D02*
X0212362Y0024988D01*
X0211353Y0024882D02*
X0208387Y0023169D01*
X0206374Y0020398D01*
X0205661Y0017048D01*
X0206374Y0013698D01*
X0208387Y0010927D01*
X0211353Y0009214D01*
X0214759Y0008856D01*
X0218017Y0009915D01*
X0220562Y0012206D01*
X0221955Y0015335D01*
X0221955Y0018761D01*
X0220562Y0021890D01*
X0218017Y0024181D01*
X0214759Y0025240D01*
X0211353Y0024882D01*
X0210500Y0024389D02*
X0203387Y0024389D01*
X0203387Y0023791D02*
X0209463Y0023791D01*
X0208427Y0023192D02*
X0203387Y0023192D01*
X0203387Y0022594D02*
X0207969Y0022594D01*
X0207534Y0021995D02*
X0203387Y0021995D01*
X0204720Y0021397D02*
X0207099Y0021397D01*
X0206664Y0020798D02*
X0204759Y0020798D01*
X0204759Y0020200D02*
X0206331Y0020200D01*
X0206204Y0019601D02*
X0204759Y0019601D01*
X0204759Y0019003D02*
X0206077Y0019003D01*
X0205950Y0018404D02*
X0204759Y0018404D01*
X0204708Y0017806D02*
X0205822Y0017806D01*
X0205695Y0017207D02*
X0196263Y0017207D01*
X0196290Y0017215D02*
X0196586Y0017386D01*
X0196828Y0017628D01*
X0197000Y0017924D01*
X0197088Y0018255D01*
X0197088Y0019701D01*
X0194513Y0019701D01*
X0194513Y0017126D01*
X0195959Y0017126D01*
X0196290Y0017215D01*
X0196161Y0016570D02*
X0192266Y0016570D01*
X0191739Y0016043D01*
X0191739Y0012148D01*
X0192266Y0011620D01*
X0196161Y0011620D01*
X0196688Y0012148D01*
X0196688Y0012795D01*
X0199416Y0012795D01*
X0199416Y0012738D01*
X0199943Y0012211D01*
X0204232Y0012211D01*
X0204759Y0012738D01*
X0204759Y0016240D01*
X0204232Y0016767D01*
X0199943Y0016767D01*
X0199416Y0016240D01*
X0199416Y0015395D01*
X0196688Y0015395D01*
X0196688Y0016043D01*
X0196161Y0016570D01*
X0196688Y0016010D02*
X0199416Y0016010D01*
X0199416Y0015412D02*
X0196688Y0015412D01*
X0196931Y0017806D02*
X0199466Y0017806D01*
X0199416Y0018404D02*
X0197088Y0018404D01*
X0197088Y0019003D02*
X0199416Y0019003D01*
X0199416Y0019601D02*
X0197088Y0019601D01*
X0197088Y0020301D02*
X0194513Y0020301D01*
X0193913Y0020301D01*
X0193913Y0019701D01*
X0191339Y0019701D01*
X0191339Y0018255D01*
X0191427Y0017924D01*
X0191598Y0017628D01*
X0191840Y0017386D01*
X0192137Y0017215D01*
X0192467Y0017126D01*
X0193913Y0017126D01*
X0193913Y0019701D01*
X0194513Y0019701D01*
X0194513Y0020301D01*
X0194513Y0022876D01*
X0195959Y0022876D01*
X0196290Y0022787D01*
X0196586Y0022616D01*
X0196828Y0022374D01*
X0197000Y0022077D01*
X0197088Y0021747D01*
X0197088Y0020301D01*
X0197088Y0020798D02*
X0199416Y0020798D01*
X0199416Y0020200D02*
X0194513Y0020200D01*
X0194513Y0020798D02*
X0193913Y0020798D01*
X0193913Y0020301D02*
X0193913Y0022876D01*
X0192467Y0022876D01*
X0192137Y0022787D01*
X0191840Y0022616D01*
X0191598Y0022374D01*
X0191427Y0022077D01*
X0191339Y0021747D01*
X0191339Y0020301D01*
X0193913Y0020301D01*
X0193913Y0020200D02*
X0142495Y0020200D01*
X0142495Y0020798D02*
X0191339Y0020798D01*
X0191339Y0021397D02*
X0142495Y0021397D01*
X0142495Y0021995D02*
X0191405Y0021995D01*
X0191818Y0022594D02*
X0142495Y0022594D01*
X0142495Y0023192D02*
X0200787Y0023192D01*
X0200787Y0022594D02*
X0196608Y0022594D01*
X0197022Y0021995D02*
X0200787Y0021995D01*
X0199455Y0021397D02*
X0197088Y0021397D01*
X0194513Y0021397D02*
X0193913Y0021397D01*
X0193913Y0021995D02*
X0194513Y0021995D01*
X0194513Y0022594D02*
X0193913Y0022594D01*
X0193913Y0019601D02*
X0194513Y0019601D01*
X0194513Y0019003D02*
X0193913Y0019003D01*
X0193913Y0018404D02*
X0194513Y0018404D01*
X0194513Y0017806D02*
X0193913Y0017806D01*
X0193913Y0017207D02*
X0194513Y0017207D01*
X0192164Y0017207D02*
X0142495Y0017207D01*
X0142495Y0016609D02*
X0199785Y0016609D01*
X0199735Y0012419D02*
X0196688Y0012419D01*
X0196361Y0011821D02*
X0207737Y0011821D01*
X0207302Y0012419D02*
X0204440Y0012419D01*
X0204759Y0013018D02*
X0206868Y0013018D01*
X0206433Y0013616D02*
X0204759Y0013616D01*
X0204759Y0014215D02*
X0206264Y0014215D01*
X0206136Y0014813D02*
X0204759Y0014813D01*
X0204759Y0015412D02*
X0206009Y0015412D01*
X0205882Y0016010D02*
X0204759Y0016010D01*
X0204390Y0016609D02*
X0205755Y0016609D01*
X0208172Y0011222D02*
X0143247Y0011222D01*
X0143845Y0010624D02*
X0208912Y0010624D01*
X0209948Y0010025D02*
X0144444Y0010025D01*
X0145042Y0009427D02*
X0210985Y0009427D01*
X0216515Y0009427D02*
X0224409Y0009427D01*
X0224409Y0010025D02*
X0218140Y0010025D01*
X0218804Y0010624D02*
X0224409Y0010624D01*
X0224409Y0011222D02*
X0219469Y0011222D01*
X0220134Y0011821D02*
X0224409Y0011821D01*
X0224409Y0012419D02*
X0220657Y0012419D01*
X0220923Y0013018D02*
X0224409Y0013018D01*
X0224409Y0013616D02*
X0221190Y0013616D01*
X0221456Y0014215D02*
X0224409Y0014215D01*
X0224409Y0014813D02*
X0221723Y0014813D01*
X0221955Y0015412D02*
X0224409Y0015412D01*
X0224409Y0016010D02*
X0221955Y0016010D01*
X0221955Y0016609D02*
X0224409Y0016609D01*
X0224409Y0017207D02*
X0221955Y0017207D01*
X0221955Y0017806D02*
X0224409Y0017806D01*
X0224409Y0018404D02*
X0221955Y0018404D01*
X0221848Y0019003D02*
X0224409Y0019003D01*
X0224409Y0019601D02*
X0221581Y0019601D01*
X0221315Y0020200D02*
X0224409Y0020200D01*
X0224409Y0020798D02*
X0221048Y0020798D01*
X0220782Y0021397D02*
X0224409Y0021397D01*
X0224409Y0021995D02*
X0220445Y0021995D01*
X0219780Y0022594D02*
X0224409Y0022594D01*
X0224409Y0023192D02*
X0219115Y0023192D01*
X0218451Y0023791D02*
X0224409Y0023791D01*
X0224409Y0024389D02*
X0217377Y0024389D01*
X0215535Y0024988D02*
X0224409Y0024988D01*
X0224409Y0008828D02*
X0145641Y0008828D01*
X0146239Y0008230D02*
X0224409Y0008230D01*
X0224409Y0007631D02*
X0146838Y0007631D01*
X0147436Y0007033D02*
X0224409Y0007033D01*
X0200787Y0023791D02*
X0142495Y0023791D01*
X0142495Y0024389D02*
X0200787Y0024389D01*
X0200787Y0024988D02*
X0142495Y0024988D01*
X0142495Y0025586D02*
X0200787Y0025586D01*
X0200787Y0026185D02*
X0142495Y0026185D01*
X0142070Y0026783D02*
X0200787Y0026783D01*
X0200787Y0027382D02*
X0139040Y0027382D01*
X0138441Y0027980D02*
X0200787Y0027980D01*
X0200787Y0028579D02*
X0137843Y0028579D01*
X0137244Y0029177D02*
X0200787Y0029177D01*
X0200787Y0029776D02*
X0136645Y0029776D01*
X0136047Y0030374D02*
X0200787Y0030374D01*
X0200787Y0030973D02*
X0135448Y0030973D01*
X0134850Y0031572D02*
X0200787Y0031572D01*
X0200787Y0032170D02*
X0134251Y0032170D01*
X0133653Y0032769D02*
X0200787Y0032769D01*
X0200787Y0033367D02*
X0133054Y0033367D01*
X0132456Y0033966D02*
X0134316Y0033966D01*
X0133919Y0034564D02*
X0131857Y0034564D01*
X0131259Y0035163D02*
X0133858Y0035163D01*
X0133858Y0035761D02*
X0130660Y0035761D01*
X0130062Y0036360D02*
X0133858Y0036360D01*
X0133858Y0037557D02*
X0128865Y0037557D01*
X0128266Y0038155D02*
X0133858Y0038155D01*
X0133879Y0038754D02*
X0127668Y0038754D01*
X0127069Y0039352D02*
X0134167Y0039352D01*
X0136236Y0036958D02*
X0129463Y0036958D01*
X0127049Y0034564D02*
X0118893Y0034564D01*
X0118893Y0035163D02*
X0126451Y0035163D01*
X0125852Y0035761D02*
X0118893Y0035761D01*
X0119312Y0036360D02*
X0119312Y0036360D01*
X0119312Y0036958D02*
X0119312Y0036958D01*
X0119312Y0037557D02*
X0119312Y0037557D01*
X0119312Y0037717D02*
X0122285Y0037717D01*
X0122285Y0038440D01*
X0122196Y0038770D01*
X0122025Y0039067D01*
X0121783Y0039309D01*
X0121487Y0039480D01*
X0121156Y0039568D01*
X0119312Y0039568D01*
X0119312Y0037717D01*
X0119312Y0037717D01*
X0119312Y0038155D02*
X0119312Y0038155D01*
X0119312Y0038754D02*
X0119312Y0038754D01*
X0119312Y0039352D02*
X0119312Y0039352D01*
X0117856Y0039951D02*
X0121662Y0039951D01*
X0121647Y0040549D02*
X0110852Y0040549D01*
X0110252Y0040549D02*
X0097088Y0040549D01*
X0097088Y0039951D02*
X0103248Y0039951D01*
X0103248Y0040370D02*
X0103248Y0039168D01*
X0099746Y0039168D01*
X0099219Y0038641D01*
X0099219Y0036793D01*
X0099746Y0036266D01*
X0102552Y0036266D01*
X0102211Y0035925D01*
X0102211Y0034266D01*
X0100948Y0033003D01*
X0097469Y0033003D01*
X0097425Y0032959D01*
X0097088Y0032959D01*
X0097088Y0055518D01*
X0097933Y0055518D01*
X0098010Y0055595D01*
X0102973Y0050631D01*
X0102940Y0050631D01*
X0102609Y0050543D01*
X0102313Y0050372D01*
X0102071Y0050130D01*
X0101900Y0049833D01*
X0101811Y0049503D01*
X0101811Y0047658D01*
X0101811Y0045814D01*
X0101900Y0045483D01*
X0102071Y0045187D01*
X0102184Y0045074D01*
X0099746Y0045074D01*
X0099219Y0044547D01*
X0099219Y0042699D01*
X0099746Y0042172D01*
X0103248Y0042172D01*
X0103248Y0040970D01*
X0110252Y0040970D01*
X0110252Y0040370D01*
X0103248Y0040370D01*
X0103248Y0041148D02*
X0097088Y0041148D01*
X0097088Y0041746D02*
X0103248Y0041746D01*
X0099573Y0042345D02*
X0097088Y0042345D01*
X0097088Y0042943D02*
X0099219Y0042943D01*
X0099219Y0043542D02*
X0097088Y0043542D01*
X0097088Y0044140D02*
X0099219Y0044140D01*
X0099411Y0044739D02*
X0097088Y0044739D01*
X0097088Y0045337D02*
X0101984Y0045337D01*
X0101811Y0045936D02*
X0097088Y0045936D01*
X0097088Y0046534D02*
X0101811Y0046534D01*
X0101811Y0047133D02*
X0097088Y0047133D01*
X0097088Y0047731D02*
X0101811Y0047731D01*
X0101811Y0047658D02*
X0103662Y0047658D01*
X0101811Y0047658D01*
X0101811Y0048330D02*
X0097088Y0048330D01*
X0097088Y0048928D02*
X0101811Y0048928D01*
X0101818Y0049527D02*
X0097088Y0049527D01*
X0097088Y0050125D02*
X0102068Y0050125D01*
X0102881Y0050724D02*
X0097088Y0050724D01*
X0097088Y0051322D02*
X0102283Y0051322D01*
X0101684Y0051921D02*
X0097088Y0051921D01*
X0097088Y0052519D02*
X0101086Y0052519D01*
X0100487Y0053118D02*
X0097088Y0053118D01*
X0097088Y0053716D02*
X0099889Y0053716D01*
X0099290Y0054315D02*
X0097088Y0054315D01*
X0097088Y0054913D02*
X0098691Y0054913D01*
X0098093Y0055512D02*
X0097088Y0055512D01*
X0103662Y0047658D02*
X0103662Y0047658D01*
X0103248Y0039352D02*
X0097088Y0039352D01*
X0097088Y0038754D02*
X0099331Y0038754D01*
X0099219Y0038155D02*
X0097088Y0038155D01*
X0097088Y0037557D02*
X0099219Y0037557D01*
X0099219Y0036958D02*
X0097088Y0036958D01*
X0097088Y0036360D02*
X0099653Y0036360D01*
X0102211Y0035761D02*
X0097088Y0035761D01*
X0097088Y0035163D02*
X0102211Y0035163D01*
X0102211Y0034564D02*
X0097088Y0034564D01*
X0097088Y0033966D02*
X0101911Y0033966D01*
X0101312Y0033367D02*
X0097088Y0033367D01*
X0089173Y0035761D02*
X0082164Y0035761D01*
X0082229Y0036360D02*
X0089173Y0036360D01*
X0089173Y0036958D02*
X0082229Y0036958D01*
X0082229Y0037557D02*
X0089173Y0037557D01*
X0088566Y0038155D02*
X0087805Y0038155D01*
X0087773Y0038100D02*
X0087944Y0038397D01*
X0088033Y0038727D01*
X0088033Y0040370D01*
X0085655Y0040370D01*
X0085655Y0037598D01*
X0086904Y0037598D01*
X0087235Y0037687D01*
X0087531Y0037858D01*
X0087773Y0038100D01*
X0088033Y0038754D02*
X0088195Y0038754D01*
X0088195Y0039352D02*
X0088033Y0039352D01*
X0088033Y0039951D02*
X0088195Y0039951D01*
X0088195Y0040549D02*
X0085655Y0040549D01*
X0085655Y0040370D02*
X0085655Y0040970D01*
X0085055Y0040970D01*
X0085055Y0040370D01*
X0082677Y0040370D01*
X0082677Y0038727D01*
X0082766Y0038397D01*
X0082937Y0038100D01*
X0083179Y0037858D01*
X0083475Y0037687D01*
X0083806Y0037598D01*
X0085055Y0037598D01*
X0085055Y0040370D01*
X0085655Y0040370D01*
X0085655Y0039951D02*
X0085055Y0039951D01*
X0085055Y0040549D02*
X0071491Y0040549D01*
X0071491Y0039951D02*
X0082677Y0039951D01*
X0082677Y0039352D02*
X0079875Y0039352D01*
X0081115Y0038754D02*
X0082677Y0038754D01*
X0082905Y0038155D02*
X0081714Y0038155D01*
X0082677Y0040970D02*
X0085055Y0040970D01*
X0085055Y0043742D01*
X0083806Y0043742D01*
X0083475Y0043653D01*
X0083179Y0043482D01*
X0082937Y0043240D01*
X0082766Y0042944D01*
X0082677Y0042613D01*
X0082677Y0040970D01*
X0082677Y0041148D02*
X0071491Y0041148D01*
X0071491Y0041746D02*
X0082677Y0041746D01*
X0082677Y0042345D02*
X0071491Y0042345D01*
X0071363Y0042943D02*
X0082766Y0042943D01*
X0083282Y0043542D02*
X0063027Y0043542D01*
X0063027Y0042943D02*
X0064308Y0042943D01*
X0064180Y0042345D02*
X0063027Y0042345D01*
X0062685Y0044140D02*
X0088475Y0044140D01*
X0089073Y0043542D02*
X0087428Y0043542D01*
X0087531Y0043482D02*
X0087235Y0043653D01*
X0086904Y0043742D01*
X0085655Y0043742D01*
X0085655Y0040970D01*
X0088033Y0040970D01*
X0088033Y0042613D01*
X0087944Y0042944D01*
X0087773Y0043240D01*
X0087531Y0043482D01*
X0087945Y0042943D02*
X0088324Y0042943D01*
X0088195Y0042345D02*
X0088033Y0042345D01*
X0088033Y0041746D02*
X0088195Y0041746D01*
X0088195Y0041148D02*
X0088033Y0041148D01*
X0085655Y0041148D02*
X0085055Y0041148D01*
X0085055Y0041746D02*
X0085655Y0041746D01*
X0085655Y0042345D02*
X0085055Y0042345D01*
X0085055Y0042943D02*
X0085655Y0042943D01*
X0085655Y0043542D02*
X0085055Y0043542D01*
X0085055Y0045936D02*
X0085655Y0045936D01*
X0085655Y0046534D02*
X0085055Y0046534D01*
X0085055Y0047133D02*
X0085655Y0047133D01*
X0085655Y0047731D02*
X0085055Y0047731D01*
X0082677Y0047731D02*
X0071491Y0047731D01*
X0071491Y0047133D02*
X0082677Y0047133D01*
X0082695Y0046534D02*
X0071491Y0046534D01*
X0071027Y0045936D02*
X0082975Y0045936D01*
X0082677Y0050125D02*
X0080138Y0050125D01*
X0081379Y0050724D02*
X0082741Y0050724D01*
X0083145Y0051322D02*
X0081977Y0051322D01*
X0085055Y0039352D02*
X0085655Y0039352D01*
X0085655Y0038754D02*
X0085055Y0038754D01*
X0085055Y0038155D02*
X0085655Y0038155D01*
X0087411Y0035163D02*
X0088417Y0035163D01*
X0088195Y0034564D02*
X0087633Y0034564D01*
X0087633Y0033966D02*
X0088195Y0033966D01*
X0088195Y0033367D02*
X0087633Y0033367D01*
X0087633Y0032769D02*
X0088195Y0032769D01*
X0088195Y0032170D02*
X0087820Y0032170D01*
X0086537Y0029776D02*
X0072596Y0029776D01*
X0072891Y0030374D02*
X0083354Y0030374D01*
X0083077Y0030973D02*
X0072891Y0030973D01*
X0073174Y0031572D02*
X0083077Y0031572D01*
X0083077Y0032170D02*
X0073772Y0032170D01*
X0074371Y0032769D02*
X0083077Y0032769D01*
X0083077Y0033367D02*
X0074969Y0033367D01*
X0072489Y0034564D02*
X0071491Y0034564D01*
X0071491Y0033966D02*
X0071891Y0033966D01*
X0071491Y0035163D02*
X0072841Y0035163D01*
X0072841Y0035761D02*
X0071064Y0035761D01*
X0072841Y0036360D02*
X0060008Y0036360D01*
X0059409Y0036958D02*
X0072841Y0036958D01*
X0072841Y0037557D02*
X0058811Y0037557D01*
X0064180Y0031572D02*
X0045907Y0031572D01*
X0045907Y0030973D02*
X0064180Y0030973D01*
X0064457Y0030374D02*
X0045907Y0030374D01*
X0045907Y0029776D02*
X0068919Y0029776D01*
X0068320Y0029177D02*
X0045907Y0029177D01*
X0045907Y0028579D02*
X0067722Y0028579D01*
X0067123Y0027980D02*
X0045907Y0027980D01*
X0045907Y0027382D02*
X0066929Y0027382D01*
X0066929Y0026783D02*
X0045907Y0026783D01*
X0045907Y0026185D02*
X0066929Y0026185D01*
X0066929Y0025586D02*
X0045907Y0025586D01*
X0045907Y0024988D02*
X0054881Y0024988D01*
X0053873Y0024882D02*
X0050906Y0023169D01*
X0048893Y0020398D01*
X0048181Y0017048D01*
X0048893Y0013698D01*
X0050906Y0010927D01*
X0053873Y0009214D01*
X0057279Y0008856D01*
X0060537Y0009915D01*
X0063082Y0012206D01*
X0064475Y0015335D01*
X0064475Y0018761D01*
X0063082Y0021890D01*
X0060537Y0024181D01*
X0057279Y0025240D01*
X0053873Y0024882D01*
X0053020Y0024389D02*
X0045907Y0024389D01*
X0045907Y0023791D02*
X0051983Y0023791D01*
X0050946Y0023192D02*
X0045907Y0023192D01*
X0045907Y0022594D02*
X0050488Y0022594D01*
X0050054Y0021995D02*
X0045907Y0021995D01*
X0045907Y0021397D02*
X0049619Y0021397D01*
X0049184Y0020798D02*
X0045907Y0020798D01*
X0045907Y0020200D02*
X0048851Y0020200D01*
X0048724Y0019601D02*
X0045907Y0019601D01*
X0045907Y0019003D02*
X0048597Y0019003D01*
X0048469Y0018404D02*
X0045907Y0018404D01*
X0045907Y0017806D02*
X0048342Y0017806D01*
X0048215Y0017207D02*
X0045907Y0017207D01*
X0045907Y0016609D02*
X0048274Y0016609D01*
X0048402Y0016010D02*
X0045907Y0016010D01*
X0045907Y0015412D02*
X0048529Y0015412D01*
X0048656Y0014813D02*
X0045907Y0014813D01*
X0045907Y0014215D02*
X0048783Y0014215D01*
X0048952Y0013616D02*
X0045907Y0013616D01*
X0045907Y0013018D02*
X0049387Y0013018D01*
X0049822Y0012419D02*
X0045907Y0012419D01*
X0045907Y0011821D02*
X0050257Y0011821D01*
X0050692Y0011222D02*
X0045907Y0011222D01*
X0045907Y0010624D02*
X0051431Y0010624D01*
X0052468Y0010025D02*
X0045907Y0010025D01*
X0045907Y0009427D02*
X0053505Y0009427D01*
X0059035Y0009427D02*
X0125274Y0009427D01*
X0125873Y0010025D02*
X0060659Y0010025D01*
X0061324Y0010624D02*
X0126471Y0010624D01*
X0127070Y0011222D02*
X0061989Y0011222D01*
X0062653Y0011821D02*
X0073955Y0011821D01*
X0074156Y0011620D02*
X0078051Y0011620D01*
X0078578Y0012148D01*
X0078578Y0016043D01*
X0078051Y0016570D01*
X0074156Y0016570D01*
X0073628Y0016043D01*
X0073628Y0015395D01*
X0070901Y0015395D01*
X0070901Y0016240D01*
X0070374Y0016767D01*
X0066085Y0016767D01*
X0065557Y0016240D01*
X0065557Y0012738D01*
X0066085Y0012211D01*
X0070374Y0012211D01*
X0070901Y0012738D01*
X0070901Y0012795D01*
X0073628Y0012795D01*
X0073628Y0012148D01*
X0074156Y0011620D01*
X0073628Y0012419D02*
X0070582Y0012419D01*
X0070901Y0015412D02*
X0073628Y0015412D01*
X0073628Y0016010D02*
X0070901Y0016010D01*
X0070532Y0016609D02*
X0084914Y0016609D01*
X0084931Y0016546D02*
X0085102Y0016250D01*
X0085344Y0016008D01*
X0085641Y0015837D01*
X0085971Y0015748D01*
X0087614Y0015748D01*
X0087614Y0018126D01*
X0084843Y0018126D01*
X0084843Y0016877D01*
X0084931Y0016546D01*
X0084843Y0017207D02*
X0078152Y0017207D01*
X0078180Y0017215D02*
X0078476Y0017386D01*
X0078718Y0017628D01*
X0078889Y0017924D01*
X0078978Y0018255D01*
X0078978Y0019701D01*
X0076403Y0019701D01*
X0076403Y0020301D01*
X0075803Y0020301D01*
X0075803Y0022876D01*
X0074357Y0022876D01*
X0074027Y0022787D01*
X0073730Y0022616D01*
X0073488Y0022374D01*
X0073317Y0022077D01*
X0073228Y0021747D01*
X0073228Y0020301D01*
X0075803Y0020301D01*
X0075803Y0019701D01*
X0073228Y0019701D01*
X0073228Y0018255D01*
X0073317Y0017924D01*
X0073488Y0017628D01*
X0073730Y0017386D01*
X0074027Y0017215D01*
X0074357Y0017126D01*
X0075803Y0017126D01*
X0075803Y0019701D01*
X0076403Y0019701D01*
X0076403Y0017126D01*
X0077849Y0017126D01*
X0078180Y0017215D01*
X0078821Y0017806D02*
X0084843Y0017806D01*
X0084843Y0018726D02*
X0087614Y0018726D01*
X0087614Y0018126D01*
X0088214Y0018126D01*
X0088214Y0015748D01*
X0089857Y0015748D01*
X0090188Y0015837D01*
X0090484Y0016008D01*
X0090726Y0016250D01*
X0090897Y0016546D01*
X0090986Y0016877D01*
X0090986Y0018126D01*
X0088214Y0018126D01*
X0088214Y0018726D01*
X0087614Y0018726D01*
X0087614Y0021104D01*
X0085971Y0021104D01*
X0085641Y0021015D01*
X0085344Y0020844D01*
X0085102Y0020602D01*
X0084931Y0020306D01*
X0084843Y0019975D01*
X0084843Y0018726D01*
X0084843Y0019003D02*
X0078978Y0019003D01*
X0078978Y0019601D02*
X0084843Y0019601D01*
X0084903Y0020200D02*
X0076403Y0020200D01*
X0076403Y0020301D02*
X0078978Y0020301D01*
X0078978Y0021747D01*
X0078889Y0022077D01*
X0078718Y0022374D01*
X0078476Y0022616D01*
X0078180Y0022787D01*
X0077849Y0022876D01*
X0076403Y0022876D01*
X0076403Y0020301D01*
X0076403Y0020798D02*
X0075803Y0020798D01*
X0075803Y0020200D02*
X0070901Y0020200D01*
X0070901Y0020798D02*
X0073228Y0020798D01*
X0073228Y0021397D02*
X0070862Y0021397D01*
X0069529Y0021995D02*
X0073295Y0021995D01*
X0073708Y0022594D02*
X0069529Y0022594D01*
X0069529Y0023192D02*
X0085243Y0023192D01*
X0085243Y0022594D02*
X0078498Y0022594D01*
X0078911Y0021995D02*
X0085243Y0021995D01*
X0085639Y0021397D02*
X0078978Y0021397D01*
X0078978Y0020798D02*
X0085298Y0020798D01*
X0087614Y0020798D02*
X0088214Y0020798D01*
X0088214Y0021104D02*
X0088214Y0018726D01*
X0090986Y0018726D01*
X0090986Y0019975D01*
X0090897Y0020306D01*
X0090726Y0020602D01*
X0090484Y0020844D01*
X0090188Y0021015D01*
X0089857Y0021104D01*
X0088214Y0021104D01*
X0088214Y0020200D02*
X0087614Y0020200D01*
X0087614Y0019601D02*
X0088214Y0019601D01*
X0088214Y0019003D02*
X0087614Y0019003D01*
X0087614Y0018404D02*
X0078978Y0018404D01*
X0076403Y0018404D02*
X0075803Y0018404D01*
X0075803Y0017806D02*
X0076403Y0017806D01*
X0076403Y0017207D02*
X0075803Y0017207D01*
X0074054Y0017207D02*
X0064475Y0017207D01*
X0064475Y0016609D02*
X0065926Y0016609D01*
X0065557Y0016010D02*
X0064475Y0016010D01*
X0064475Y0015412D02*
X0065557Y0015412D01*
X0065557Y0014813D02*
X0064243Y0014813D01*
X0063976Y0014215D02*
X0065557Y0014215D01*
X0065557Y0013616D02*
X0063710Y0013616D01*
X0063443Y0013018D02*
X0065557Y0013018D01*
X0065877Y0012419D02*
X0063177Y0012419D01*
X0064475Y0017806D02*
X0065608Y0017806D01*
X0065557Y0018404D02*
X0064475Y0018404D01*
X0064367Y0019003D02*
X0065557Y0019003D01*
X0065557Y0019601D02*
X0064101Y0019601D01*
X0063834Y0020200D02*
X0065557Y0020200D01*
X0065557Y0020798D02*
X0063568Y0020798D01*
X0063301Y0021397D02*
X0065596Y0021397D01*
X0066929Y0021995D02*
X0062965Y0021995D01*
X0062300Y0022594D02*
X0066929Y0022594D01*
X0066929Y0023192D02*
X0061635Y0023192D01*
X0060970Y0023791D02*
X0066929Y0023791D01*
X0066929Y0024389D02*
X0059897Y0024389D01*
X0058055Y0024988D02*
X0066929Y0024988D01*
X0069529Y0024988D02*
X0085243Y0024988D01*
X0085243Y0024389D02*
X0069529Y0024389D01*
X0069529Y0023791D02*
X0085243Y0023791D01*
X0085534Y0025586D02*
X0069529Y0025586D01*
X0069529Y0026185D02*
X0086614Y0026185D01*
X0086614Y0026783D02*
X0069603Y0026783D01*
X0070202Y0027382D02*
X0086614Y0027382D01*
X0086614Y0027980D02*
X0070800Y0027980D01*
X0071399Y0028579D02*
X0086614Y0028579D01*
X0086614Y0029177D02*
X0071997Y0029177D01*
X0079727Y0033966D02*
X0083077Y0033966D01*
X0083077Y0034564D02*
X0080967Y0034564D01*
X0081565Y0035163D02*
X0083299Y0035163D01*
X0072841Y0038155D02*
X0071491Y0038155D01*
X0071491Y0038754D02*
X0072841Y0038754D01*
X0073119Y0039352D02*
X0071491Y0039352D01*
X0075803Y0022594D02*
X0076403Y0022594D01*
X0076403Y0021995D02*
X0075803Y0021995D01*
X0075803Y0021397D02*
X0076403Y0021397D01*
X0076403Y0019601D02*
X0075803Y0019601D01*
X0075803Y0019003D02*
X0076403Y0019003D01*
X0073228Y0019003D02*
X0070901Y0019003D01*
X0070901Y0019601D02*
X0073228Y0019601D01*
X0073228Y0018404D02*
X0070901Y0018404D01*
X0070850Y0017806D02*
X0073385Y0017806D01*
X0078578Y0016010D02*
X0085342Y0016010D01*
X0087614Y0016010D02*
X0088214Y0016010D01*
X0088214Y0016609D02*
X0087614Y0016609D01*
X0087614Y0017207D02*
X0088214Y0017207D01*
X0088214Y0017806D02*
X0087614Y0017806D01*
X0088214Y0018404D02*
X0093117Y0018404D01*
X0093117Y0017806D02*
X0090986Y0017806D01*
X0090986Y0017207D02*
X0093117Y0017207D01*
X0093183Y0016609D02*
X0090914Y0016609D01*
X0090486Y0016010D02*
X0113086Y0016010D01*
X0113685Y0015412D02*
X0078578Y0015412D01*
X0078578Y0014813D02*
X0114283Y0014813D01*
X0114882Y0014215D02*
X0078578Y0014215D01*
X0078578Y0013616D02*
X0115480Y0013616D01*
X0116079Y0013018D02*
X0078578Y0013018D01*
X0078578Y0012419D02*
X0128267Y0012419D01*
X0128865Y0013018D02*
X0125375Y0013018D01*
X0125974Y0013616D02*
X0129464Y0013616D01*
X0130062Y0014215D02*
X0126572Y0014215D01*
X0127171Y0014813D02*
X0191739Y0014813D01*
X0191739Y0014215D02*
X0140254Y0014215D01*
X0140853Y0013616D02*
X0191739Y0013616D01*
X0191739Y0013018D02*
X0141451Y0013018D01*
X0142050Y0012419D02*
X0191739Y0012419D01*
X0192066Y0011821D02*
X0142648Y0011821D01*
X0142295Y0015412D02*
X0191739Y0015412D01*
X0191739Y0016010D02*
X0142495Y0016010D01*
X0142495Y0017806D02*
X0191496Y0017806D01*
X0191339Y0018404D02*
X0142495Y0018404D01*
X0142495Y0019003D02*
X0191339Y0019003D01*
X0191339Y0019601D02*
X0142495Y0019601D01*
X0135695Y0019601D02*
X0134621Y0019601D01*
X0134621Y0019003D02*
X0135695Y0019003D01*
X0135695Y0018404D02*
X0134621Y0018404D01*
X0134621Y0017806D02*
X0135695Y0017806D01*
X0135695Y0017207D02*
X0134621Y0017207D01*
X0134621Y0016609D02*
X0135695Y0016609D01*
X0135695Y0016010D02*
X0134621Y0016010D01*
X0134421Y0015412D02*
X0135896Y0015412D01*
X0135695Y0020200D02*
X0134621Y0020200D01*
X0134621Y0020798D02*
X0135695Y0020798D01*
X0135695Y0021397D02*
X0134621Y0021397D01*
X0134621Y0021995D02*
X0135695Y0021995D01*
X0135695Y0022594D02*
X0134621Y0022594D01*
X0134621Y0023192D02*
X0135695Y0023192D01*
X0135695Y0023791D02*
X0134621Y0023791D01*
X0134621Y0024389D02*
X0135695Y0024389D01*
X0135695Y0024988D02*
X0134621Y0024988D01*
X0134621Y0025586D02*
X0135695Y0025586D01*
X0135428Y0026185D02*
X0134621Y0026185D01*
X0134830Y0026783D02*
X0134196Y0026783D01*
X0134231Y0027382D02*
X0127229Y0027382D01*
X0127827Y0026783D02*
X0128247Y0026783D01*
X0126630Y0027980D02*
X0133633Y0027980D01*
X0133034Y0028579D02*
X0126031Y0028579D01*
X0125433Y0029177D02*
X0132436Y0029177D01*
X0131837Y0029776D02*
X0124834Y0029776D01*
X0124236Y0030374D02*
X0131239Y0030374D01*
X0130640Y0030973D02*
X0119418Y0030973D01*
X0118942Y0031572D02*
X0130042Y0031572D01*
X0129443Y0032170D02*
X0118942Y0032170D01*
X0118942Y0032769D02*
X0128845Y0032769D01*
X0128246Y0033367D02*
X0118942Y0033367D01*
X0118942Y0033966D02*
X0127648Y0033966D01*
X0125254Y0036360D02*
X0122017Y0036360D01*
X0122275Y0036958D02*
X0124655Y0036958D01*
X0124057Y0037557D02*
X0122285Y0037557D01*
X0122285Y0038155D02*
X0123458Y0038155D01*
X0122860Y0038754D02*
X0122201Y0038754D01*
X0122261Y0039352D02*
X0121708Y0039352D01*
X0121647Y0041148D02*
X0117856Y0041148D01*
X0117856Y0041746D02*
X0121647Y0041746D01*
X0119312Y0042345D02*
X0119312Y0042345D01*
X0119312Y0042943D02*
X0119312Y0042943D01*
X0119312Y0043542D02*
X0119312Y0043542D01*
X0119312Y0044140D02*
X0119312Y0044140D01*
X0119312Y0044739D02*
X0119312Y0044739D01*
X0119312Y0045337D02*
X0119312Y0045337D01*
X0118893Y0045936D02*
X0119897Y0045936D01*
X0124847Y0047133D02*
X0133465Y0047133D01*
X0133465Y0047731D02*
X0124847Y0047731D01*
X0124847Y0048330D02*
X0133465Y0048330D01*
X0133465Y0048928D02*
X0124847Y0048928D01*
X0124847Y0049527D02*
X0133465Y0049527D01*
X0133465Y0050125D02*
X0124847Y0050125D01*
X0124847Y0050724D02*
X0133475Y0050724D01*
X0133736Y0051322D02*
X0124847Y0051322D01*
X0136827Y0051322D02*
X0137427Y0051322D01*
X0137427Y0050724D02*
X0136827Y0050724D01*
X0136827Y0050125D02*
X0137427Y0050125D01*
X0137427Y0049527D02*
X0136827Y0049527D01*
X0136827Y0048928D02*
X0137427Y0048928D01*
X0137427Y0048330D02*
X0136827Y0048330D01*
X0136827Y0047731D02*
X0137427Y0047731D01*
X0137427Y0047133D02*
X0136827Y0047133D01*
X0146301Y0041148D02*
X0147063Y0041148D01*
X0147063Y0040549D02*
X0146301Y0040549D01*
X0146301Y0039951D02*
X0147063Y0039951D01*
X0147063Y0039352D02*
X0146112Y0039352D01*
X0145513Y0038754D02*
X0147054Y0038754D01*
X0147054Y0038155D02*
X0144915Y0038155D01*
X0144316Y0037557D02*
X0147054Y0037557D01*
X0147054Y0036958D02*
X0143932Y0036958D01*
X0143932Y0036360D02*
X0147054Y0036360D01*
X0147054Y0035761D02*
X0143932Y0035761D01*
X0143932Y0035163D02*
X0147054Y0035163D01*
X0147354Y0034564D02*
X0143908Y0034564D01*
X0139376Y0037557D02*
X0139214Y0037557D01*
X0139214Y0038155D02*
X0139376Y0038155D01*
X0139376Y0038754D02*
X0139193Y0038754D01*
X0138905Y0039352D02*
X0139851Y0039352D01*
X0136836Y0036360D02*
X0136236Y0036360D01*
X0136236Y0035761D02*
X0136836Y0035761D01*
X0136836Y0035163D02*
X0136236Y0035163D01*
X0136236Y0034564D02*
X0136836Y0034564D01*
X0136836Y0033966D02*
X0136236Y0033966D01*
X0127821Y0021981D02*
X0122643Y0027159D01*
X0121989Y0027159D01*
X0122279Y0026870D01*
X0122279Y0021793D01*
X0121752Y0021266D01*
X0117069Y0021266D01*
X0116542Y0021793D01*
X0116542Y0022147D01*
X0114261Y0019866D01*
X0114208Y0019866D01*
X0114208Y0019131D01*
X0116142Y0017197D01*
X0116142Y0017339D01*
X0119110Y0017339D01*
X0119110Y0017939D01*
X0119110Y0021104D01*
X0117271Y0021104D01*
X0116940Y0021015D01*
X0116644Y0020844D01*
X0116401Y0020602D01*
X0116230Y0020306D01*
X0116142Y0019975D01*
X0116142Y0017939D01*
X0119110Y0017939D01*
X0119710Y0017939D01*
X0119710Y0021104D01*
X0121550Y0021104D01*
X0121881Y0021015D01*
X0122177Y0020844D01*
X0122419Y0020602D01*
X0122590Y0020306D01*
X0122679Y0019975D01*
X0122679Y0017939D01*
X0119710Y0017939D01*
X0119710Y0017339D01*
X0122679Y0017339D01*
X0122679Y0015773D01*
X0123888Y0015773D01*
X0127821Y0019706D01*
X0127821Y0021981D01*
X0127807Y0021995D02*
X0122279Y0021995D01*
X0122279Y0022594D02*
X0127208Y0022594D01*
X0126610Y0023192D02*
X0122279Y0023192D01*
X0122279Y0023791D02*
X0126011Y0023791D01*
X0125413Y0024389D02*
X0122279Y0024389D01*
X0122279Y0024988D02*
X0124814Y0024988D01*
X0124216Y0025586D02*
X0122279Y0025586D01*
X0122279Y0026185D02*
X0123617Y0026185D01*
X0123019Y0026783D02*
X0122279Y0026783D01*
X0121882Y0021397D02*
X0127821Y0021397D01*
X0127821Y0020798D02*
X0122223Y0020798D01*
X0122619Y0020200D02*
X0127821Y0020200D01*
X0127716Y0019601D02*
X0122679Y0019601D01*
X0122679Y0019003D02*
X0127118Y0019003D01*
X0126519Y0018404D02*
X0122679Y0018404D01*
X0122679Y0017207D02*
X0125322Y0017207D01*
X0124724Y0016609D02*
X0122679Y0016609D01*
X0122679Y0016010D02*
X0124125Y0016010D01*
X0125921Y0017806D02*
X0119710Y0017806D01*
X0119710Y0018404D02*
X0119110Y0018404D01*
X0119110Y0017806D02*
X0115533Y0017806D01*
X0114935Y0018404D02*
X0116142Y0018404D01*
X0116142Y0019003D02*
X0114336Y0019003D01*
X0114208Y0019601D02*
X0116142Y0019601D01*
X0116202Y0020200D02*
X0114594Y0020200D01*
X0115193Y0020798D02*
X0116598Y0020798D01*
X0116938Y0021397D02*
X0115791Y0021397D01*
X0116390Y0021995D02*
X0116542Y0021995D01*
X0119110Y0020798D02*
X0119710Y0020798D01*
X0119710Y0020200D02*
X0119110Y0020200D01*
X0119110Y0019601D02*
X0119710Y0019601D01*
X0119710Y0019003D02*
X0119110Y0019003D01*
X0116142Y0017207D02*
X0116132Y0017207D01*
X0108931Y0016609D02*
X0106267Y0016609D01*
X0101057Y0016609D02*
X0098393Y0016609D01*
X0093117Y0019003D02*
X0090986Y0019003D01*
X0090986Y0019601D02*
X0093117Y0019601D01*
X0092730Y0020200D02*
X0090926Y0020200D01*
X0090530Y0020798D02*
X0092132Y0020798D01*
X0091533Y0021397D02*
X0090189Y0021397D01*
X0090586Y0021995D02*
X0090935Y0021995D01*
X0078251Y0011821D02*
X0127668Y0011821D01*
X0124676Y0008828D02*
X0045907Y0008828D01*
X0045907Y0008230D02*
X0124077Y0008230D01*
X0123479Y0007631D02*
X0045907Y0007631D01*
X0045907Y0007033D02*
X0122880Y0007033D01*
X0127769Y0015412D02*
X0128022Y0015412D01*
X0151309Y0034564D02*
X0152472Y0034564D01*
X0152172Y0035163D02*
X0151609Y0035163D01*
X0151609Y0035761D02*
X0152172Y0035761D01*
X0152172Y0036360D02*
X0151609Y0036360D01*
X0151609Y0036958D02*
X0152172Y0036958D01*
X0152063Y0037557D02*
X0151609Y0037557D01*
X0156728Y0035163D02*
X0157255Y0035163D01*
X0157854Y0034564D02*
X0156427Y0034564D01*
X0134943Y0076460D02*
X0125764Y0076460D01*
X0126216Y0077058D02*
X0134344Y0077058D01*
X0133746Y0077657D02*
X0126216Y0077657D01*
X0120434Y0095079D02*
X0120434Y0097953D01*
X0120434Y0097953D01*
X0120434Y0095079D01*
X0120434Y0095612D02*
X0120434Y0095612D01*
X0120434Y0096211D02*
X0120434Y0096211D01*
X0120434Y0096809D02*
X0120434Y0096809D01*
X0120434Y0097408D02*
X0120434Y0097408D01*
X0120434Y0098006D02*
X0120434Y0098006D01*
X0120434Y0098605D02*
X0120434Y0098605D01*
X0120434Y0099203D02*
X0120434Y0099203D01*
X0120434Y0099802D02*
X0120434Y0099802D01*
X0120434Y0100400D02*
X0120434Y0100400D01*
X0115604Y0100400D02*
X0115421Y0100400D01*
X0112502Y0105188D02*
X0102990Y0105188D01*
X0112043Y0108779D02*
X0112205Y0108779D01*
X0112205Y0109378D02*
X0111916Y0109378D01*
X0118342Y0112371D02*
X0120676Y0112371D01*
X0120676Y0112969D02*
X0118342Y0112969D01*
X0118342Y0117159D02*
X0130428Y0117159D01*
X0130321Y0117757D02*
X0118005Y0117757D01*
X0123047Y0111174D02*
X0123647Y0111174D01*
X0123647Y0110575D02*
X0123047Y0110575D01*
X0123047Y0109976D02*
X0123647Y0109976D01*
X0123647Y0109378D02*
X0123047Y0109378D01*
X0123047Y0107582D02*
X0123647Y0107582D01*
X0123647Y0106984D02*
X0123047Y0106984D01*
X0123047Y0106385D02*
X0123647Y0106385D01*
X0126419Y0109378D02*
X0129904Y0109378D01*
X0134770Y0117159D02*
X0135547Y0117159D01*
X0135439Y0117757D02*
X0134877Y0117757D01*
X0134877Y0118356D02*
X0135439Y0118356D01*
X0135439Y0118954D02*
X0134877Y0118954D01*
X0134877Y0119553D02*
X0135439Y0119553D01*
X0135439Y0120151D02*
X0134877Y0120151D01*
X0134877Y0120750D02*
X0135439Y0120750D01*
X0135439Y0121348D02*
X0134877Y0121348D01*
X0134485Y0121947D02*
X0135831Y0121947D01*
X0138795Y0124939D02*
X0139395Y0124939D01*
X0139395Y0125538D02*
X0138795Y0125538D01*
X0138795Y0126136D02*
X0139395Y0126136D01*
X0139395Y0126735D02*
X0138795Y0126735D01*
X0138795Y0127333D02*
X0139395Y0127333D01*
X0139395Y0127932D02*
X0138795Y0127932D01*
X0138795Y0128530D02*
X0139395Y0128530D01*
X0139395Y0129129D02*
X0138795Y0129129D01*
X0138795Y0129727D02*
X0139395Y0129727D01*
X0142895Y0132121D02*
X0153506Y0132121D01*
X0155784Y0133318D02*
X0142895Y0133318D01*
X0142895Y0132720D02*
X0156752Y0132720D01*
X0155380Y0133917D02*
X0142895Y0133917D01*
X0142895Y0134515D02*
X0155380Y0134515D01*
X0155380Y0135114D02*
X0142895Y0135114D01*
X0142895Y0135712D02*
X0155380Y0135712D01*
X0155380Y0136311D02*
X0142895Y0136311D01*
X0142699Y0136909D02*
X0155380Y0136909D01*
X0155380Y0137508D02*
X0141816Y0137508D01*
X0140968Y0138705D02*
X0155380Y0138705D01*
X0155380Y0138107D02*
X0140369Y0138107D01*
X0141566Y0139304D02*
X0155380Y0139304D01*
X0155380Y0139902D02*
X0142165Y0139902D01*
X0142763Y0140501D02*
X0155380Y0140501D01*
X0155380Y0141099D02*
X0143362Y0141099D01*
X0143960Y0141698D02*
X0155380Y0141698D01*
X0155380Y0142296D02*
X0144559Y0142296D01*
X0145157Y0142895D02*
X0155380Y0142895D01*
X0155380Y0143493D02*
X0145756Y0143493D01*
X0146354Y0144092D02*
X0155380Y0144092D01*
X0155602Y0144690D02*
X0146953Y0144690D01*
X0147551Y0145289D02*
X0224409Y0145289D01*
X0168425Y0142296D02*
X0162180Y0142296D01*
X0162180Y0141698D02*
X0168274Y0141698D01*
X0168274Y0141099D02*
X0162180Y0141099D01*
X0162180Y0140501D02*
X0168274Y0140501D01*
X0160459Y0126735D02*
X0160053Y0126735D01*
X0160459Y0126136D02*
X0159455Y0126136D01*
X0160483Y0121947D02*
X0155265Y0121947D01*
X0135295Y0131523D02*
X0134621Y0131523D01*
X0134621Y0132121D02*
X0135295Y0132121D01*
X0135295Y0132720D02*
X0134621Y0132720D01*
X0134621Y0133318D02*
X0135295Y0133318D01*
X0135295Y0133917D02*
X0134621Y0133917D01*
X0134621Y0134515D02*
X0135295Y0134515D01*
X0135295Y0135114D02*
X0134621Y0135114D01*
X0134621Y0135712D02*
X0135295Y0135712D01*
X0135295Y0136311D02*
X0134621Y0136311D01*
X0134306Y0136909D02*
X0135492Y0136909D01*
X0126955Y0141099D02*
X0123263Y0141099D01*
X0123263Y0141698D02*
X0126356Y0141698D01*
X0101907Y0125538D02*
X0091499Y0125538D01*
X0092098Y0124939D02*
X0101308Y0124939D01*
X0101048Y0124341D02*
X0092696Y0124341D01*
X0093295Y0123742D02*
X0101048Y0123742D01*
X0100770Y0123144D02*
X0093893Y0123144D01*
X0094492Y0122545D02*
X0100171Y0122545D01*
X0099573Y0121947D02*
X0095090Y0121947D01*
X0095689Y0121348D02*
X0098974Y0121348D01*
X0098376Y0120750D02*
X0096287Y0120750D01*
X0096886Y0120151D02*
X0097777Y0120151D01*
X0097179Y0119553D02*
X0097067Y0119553D01*
X0090281Y0106385D02*
X0087817Y0106385D01*
X0088415Y0105787D02*
X0090281Y0105787D01*
X0090281Y0105188D02*
X0089014Y0105188D01*
X0089214Y0104590D02*
X0090281Y0104590D01*
X0090473Y0103991D02*
X0089214Y0103991D01*
X0089214Y0103393D02*
X0090551Y0103393D01*
X0090551Y0102794D02*
X0089214Y0102794D01*
X0089214Y0102196D02*
X0090551Y0102196D01*
X0090551Y0101597D02*
X0089214Y0101597D01*
X0089736Y0100999D02*
X0090029Y0100999D01*
X0090474Y0098006D02*
X0089291Y0098006D01*
X0082677Y0098006D02*
X0082515Y0098006D01*
X0082515Y0097408D02*
X0082677Y0097408D01*
X0082677Y0096809D02*
X0082515Y0096809D01*
X0082677Y0096211D02*
X0074452Y0096211D01*
X0074311Y0096069D02*
X0074838Y0096596D01*
X0074838Y0100098D01*
X0074311Y0100625D01*
X0070418Y0100625D01*
X0070418Y0100632D01*
X0069136Y0101914D01*
X0067322Y0101914D01*
X0066040Y0100632D01*
X0066040Y0098818D01*
X0067322Y0097536D01*
X0068580Y0097536D01*
X0069069Y0097047D01*
X0069494Y0097047D01*
X0069494Y0096596D01*
X0070022Y0096069D01*
X0074311Y0096069D01*
X0074838Y0096809D02*
X0077565Y0096809D01*
X0077565Y0097408D02*
X0074838Y0097408D01*
X0074838Y0098006D02*
X0077565Y0098006D01*
X0077565Y0098605D02*
X0074838Y0098605D01*
X0074838Y0099203D02*
X0077565Y0099203D01*
X0077141Y0099802D02*
X0074838Y0099802D01*
X0074535Y0100400D02*
X0076542Y0100400D01*
X0075944Y0100999D02*
X0070051Y0100999D01*
X0069453Y0101597D02*
X0075345Y0101597D01*
X0074747Y0102196D02*
X0064572Y0102196D01*
X0064572Y0102794D02*
X0074148Y0102794D01*
X0073550Y0103393D02*
X0064572Y0103393D01*
X0064824Y0101597D02*
X0067006Y0101597D01*
X0066407Y0100999D02*
X0065423Y0100999D01*
X0065992Y0100400D02*
X0066040Y0100400D01*
X0066040Y0099802D02*
X0065992Y0099802D01*
X0065992Y0099203D02*
X0066040Y0099203D01*
X0065992Y0098605D02*
X0066254Y0098605D01*
X0065992Y0098006D02*
X0066852Y0098006D01*
X0065992Y0097408D02*
X0068708Y0097408D01*
X0069494Y0096809D02*
X0065992Y0096809D01*
X0066274Y0096211D02*
X0069880Y0096211D01*
X0069528Y0095014D02*
X0067471Y0095014D01*
X0066872Y0095612D02*
X0082677Y0095612D01*
X0082677Y0095014D02*
X0082284Y0095014D01*
X0082515Y0094415D02*
X0082677Y0094415D01*
X0082677Y0093817D02*
X0082515Y0093817D01*
X0082515Y0093218D02*
X0082677Y0093218D01*
X0082677Y0092620D02*
X0082515Y0092620D01*
X0082515Y0092021D02*
X0082677Y0092021D01*
X0082677Y0091423D02*
X0082515Y0091423D01*
X0082451Y0090824D02*
X0082677Y0090824D01*
X0082677Y0090226D02*
X0072259Y0090226D01*
X0071660Y0090824D02*
X0077629Y0090824D01*
X0077565Y0091423D02*
X0074782Y0091423D01*
X0072857Y0089627D02*
X0082677Y0089627D01*
X0082677Y0089029D02*
X0073456Y0089029D01*
X0074054Y0088430D02*
X0082677Y0088430D01*
X0077796Y0095014D02*
X0074804Y0095014D01*
X0069494Y0094415D02*
X0068069Y0094415D01*
X0068668Y0093817D02*
X0069494Y0093817D01*
X0069494Y0093218D02*
X0069266Y0093218D01*
X0079022Y0101597D02*
X0082677Y0101597D01*
X0082677Y0100999D02*
X0082205Y0100999D01*
X0082515Y0100400D02*
X0082677Y0100400D01*
X0082677Y0099802D02*
X0082515Y0099802D01*
X0082515Y0099203D02*
X0082677Y0099203D01*
X0082677Y0098605D02*
X0082515Y0098605D01*
X0082677Y0102196D02*
X0078424Y0102196D01*
X0082217Y0102794D02*
X0082677Y0102794D01*
X0072951Y0103991D02*
X0071937Y0103991D01*
X0058642Y0116379D02*
X0056161Y0116379D01*
X0058642Y0116379D01*
X0058642Y0116379D01*
X0056161Y0116379D02*
X0056161Y0115710D01*
X0054534Y0115710D01*
X0056234Y0117410D01*
X0056161Y0117140D01*
X0056161Y0116379D01*
X0056161Y0116560D02*
X0055384Y0116560D01*
X0055982Y0117159D02*
X0056166Y0117159D01*
X0056161Y0115962D02*
X0054785Y0115962D01*
X0063792Y0123144D02*
X0065709Y0123144D01*
X0065709Y0123742D02*
X0063193Y0123742D01*
X0065709Y0124341D02*
X0045907Y0124341D01*
X0045907Y0124939D02*
X0065709Y0124939D01*
X0065709Y0125538D02*
X0045907Y0125538D01*
X0045907Y0126136D02*
X0065709Y0126136D01*
X0065841Y0126735D02*
X0045907Y0126735D01*
X0045907Y0127333D02*
X0053857Y0127333D01*
X0052821Y0127932D02*
X0045907Y0127932D01*
X0045907Y0128530D02*
X0051784Y0128530D01*
X0050840Y0129129D02*
X0045907Y0129129D01*
X0045907Y0129727D02*
X0050405Y0129727D01*
X0049970Y0130326D02*
X0045907Y0130326D01*
X0045907Y0130924D02*
X0049535Y0130924D01*
X0049100Y0131523D02*
X0045907Y0131523D01*
X0045907Y0132121D02*
X0048827Y0132121D01*
X0048699Y0132720D02*
X0045907Y0132720D01*
X0045907Y0133318D02*
X0048572Y0133318D01*
X0048445Y0133917D02*
X0045907Y0133917D01*
X0045907Y0134515D02*
X0048318Y0134515D01*
X0048191Y0135114D02*
X0045907Y0135114D01*
X0045907Y0135712D02*
X0048299Y0135712D01*
X0048426Y0136311D02*
X0045907Y0136311D01*
X0045907Y0136909D02*
X0048553Y0136909D01*
X0048681Y0137508D02*
X0045907Y0137508D01*
X0045907Y0138107D02*
X0048808Y0138107D01*
X0049036Y0138705D02*
X0045907Y0138705D01*
X0045907Y0139304D02*
X0049471Y0139304D01*
X0049906Y0139902D02*
X0045907Y0139902D01*
X0045907Y0140501D02*
X0050341Y0140501D01*
X0050775Y0141099D02*
X0045907Y0141099D01*
X0045907Y0141698D02*
X0051631Y0141698D01*
X0052667Y0142296D02*
X0045907Y0142296D01*
X0045907Y0142895D02*
X0053704Y0142895D01*
X0058681Y0142895D02*
X0084514Y0142895D01*
X0084514Y0143493D02*
X0045907Y0143493D01*
X0045907Y0144092D02*
X0084514Y0144092D01*
X0084736Y0144690D02*
X0045907Y0144690D01*
X0060523Y0142296D02*
X0084514Y0142296D01*
X0084514Y0141698D02*
X0061196Y0141698D01*
X0061861Y0141099D02*
X0084514Y0141099D01*
X0084514Y0140501D02*
X0078136Y0140501D01*
X0078578Y0139902D02*
X0084514Y0139902D01*
X0084514Y0139304D02*
X0078578Y0139304D01*
X0078578Y0138705D02*
X0084514Y0138705D01*
X0084514Y0138107D02*
X0078578Y0138107D01*
X0078578Y0137508D02*
X0084488Y0137508D01*
X0083890Y0136909D02*
X0078578Y0136909D01*
X0078578Y0136311D02*
X0083291Y0136311D01*
X0082693Y0135712D02*
X0078127Y0135712D01*
X0078216Y0134515D02*
X0081496Y0134515D01*
X0080897Y0133917D02*
X0078578Y0133917D01*
X0095440Y0090226D02*
X0096681Y0090226D01*
X0096457Y0089627D02*
X0095440Y0089627D01*
X0095440Y0089029D02*
X0096457Y0089029D01*
X0096457Y0088430D02*
X0095440Y0088430D01*
X0095440Y0087832D02*
X0096457Y0087832D01*
X0099425Y0086635D02*
X0100025Y0086635D01*
X0100025Y0086036D02*
X0099425Y0086036D01*
X0099425Y0085438D02*
X0100025Y0085438D01*
X0100025Y0084839D02*
X0099425Y0084839D01*
X0099425Y0084241D02*
X0100025Y0084241D01*
M02*
