%
M48
M72
T01C0.01378
T02C0.04000
T03C0.09843
%
T01
X56418Y40670
X68229Y44607
X80040Y40670
X80040Y32796
X80040Y24922
X80040Y17048
X91851Y13111
X123347Y20985
X123347Y24922
X119410Y40670
X111536Y40670
X107599Y40670
X99725Y40670
X99725Y48544
X80040Y48544
X80040Y60355
X99725Y80040
X99725Y83977
X107599Y83977
X100513Y90670
X98150Y95394
X115473Y103662
X119410Y107599
X123347Y107599
X131221Y107599
X128859Y99725
X118623Y92245
X127284Y87914
X124922Y83977
X120434Y83032
X129070Y81542
X139095Y83977
X162717Y80040
X178465Y64292
X186339Y60355
X188308Y54450
X158780Y36733
X150906Y32796
X146969Y24922
X131221Y40670
X127284Y44607
X131221Y48544
X135158Y56418
X139095Y56418
X119410Y62914
X111536Y62914
X80040Y83977
X107599Y111536
X112718Y115276
X115473Y111536
X115473Y123347
X115473Y127284
X111536Y127284
X101262Y123347
X87914Y131221
X83977Y131221
X99725Y135158
X64292Y127284
X52481Y123347
X52481Y115473
X146957Y116784
X166654Y119410
X177540Y120527
X178465Y127284
X186339Y123347
X194213Y119410
X194213Y111536
X184371Y105631
X182402Y99725
X174528Y99725
X194534Y99725
X194213Y95788
X186339Y80040
X217835Y119410
X198150Y127284
X186339Y131221
X172581Y133510
X150906Y135158
X146969Y135158
X146969Y131221
X150906Y131221
X182402Y24922
X190276Y24922
X198150Y24922
T02
X91851Y111536
X83977Y111536
X76103Y111536
X68229Y111536
X60355Y111536
X60355Y119410
X68229Y119410
X76103Y119410
X83977Y119410
X91851Y119410
T03
X56418Y17048
X213898Y17048
X213898Y135158
X56418Y135158
M30
