M48
;GenerationSoftware,Autodesk,EAGLE,9.0.0*%
;CreationDate,2018-04-22T15:20:24Z*%
FMAT,2
ICI,OFF
METRIC,TZ,000.000
T1C0.350
%
G90
M71
T1
X22300Y31050
X13000Y32350
X2000Y22000
X23000Y28000
X37000Y32000
X36000Y32000
X21000Y34000
X16500Y34000
X42000Y8000
X12000Y27000
X22000Y25000
X24600Y9000
X23200Y12500
X24300Y3100
X18700Y9500
X16800Y9500
X15400Y9000
X20000Y9000
X15200Y10900
X11000Y9000
X11000Y11000
X23000Y3100
X45000Y30000
X32000Y35000
X23200Y13500
X31000Y2000
X11000Y13000
X30000Y30000
X29000Y30000
X39000Y34000
X36000Y34000
X17000Y27000
X23000Y29000
X23000Y30000
X11000Y7000
X28000Y30000
X31000Y34000
X37400Y6900
X41000Y5000
X24500Y12500
X16800Y8500
X28000Y15300
X11000Y3000
X11000Y5000
X15000Y21000
X13000Y23000
X11000Y14900
X11000Y22000
X12000Y26000
X14600Y25100
X11000Y20000
X17000Y23000
X25000Y28000
X18700Y8500
X20000Y24000
X17000Y25000
X16500Y33000
X24500Y13500
X36000Y19000
X32000Y7000
X33000Y7000
X34000Y3000
X16300Y27950
X26350Y8000
X13000Y3650
X30650Y8000
X2000Y28000
X31000Y4350
X36650Y8000
X34400Y27800
X41350Y30500
X32000Y22000
X32000Y23581
X35500Y25500
X29000Y27850
X13000Y16000
X33489Y25489
X36000Y28000
X37000Y29000
X31000Y30850
X35889Y30111
X31500Y25500
X2000Y8000
X32000Y27000
X32000Y29000
X29500Y25500
X32000Y33000
X15000Y3750
X28483Y6483
X20000Y14650
X18000Y14650
X36000Y5000
X39000Y4650
X39875Y27794
X42650Y30500
M30