G75*
%MOIN*%
%OFA0B0*%
%FSLAX25Y25*%
%IPPOS*%
%LPD*%
%AMOC8*
5,1,8,0,0,1.08239X$1,22.5*
%
%ADD10C,0.00000*%
%ADD11C,0.00600*%
%ADD12C,0.00400*%
%ADD13C,0.00800*%
%ADD14C,0.00500*%
%ADD15C,0.00100*%
%ADD16C,0.01000*%
%ADD17C,0.00300*%
%ADD18C,0.01600*%
%ADD19C,0.00700*%
D10*
X0044607Y0013111D02*
X0044607Y0064292D01*
X0044607Y0087914D02*
X0044607Y0139095D01*
X0052481Y0146969D02*
X0143032Y0146969D01*
X0166654Y0146969D02*
X0217835Y0146969D01*
X0225709Y0139095D02*
X0225709Y0013111D01*
X0217835Y0005237D02*
X0166654Y0005237D01*
X0143032Y0005237D02*
X0052481Y0005237D01*
D11*
X0087045Y0027997D02*
X0087045Y0028575D01*
X0087045Y0027997D02*
X0087047Y0027949D01*
X0087053Y0027902D01*
X0087063Y0027855D01*
X0087076Y0027809D01*
X0087094Y0027765D01*
X0087115Y0027722D01*
X0087139Y0027681D01*
X0087167Y0027642D01*
X0087198Y0027606D01*
X0087232Y0027572D01*
X0087268Y0027541D01*
X0087307Y0027513D01*
X0087348Y0027489D01*
X0087391Y0027468D01*
X0087435Y0027450D01*
X0087481Y0027437D01*
X0087528Y0027427D01*
X0087575Y0027421D01*
X0087623Y0027419D01*
X0089067Y0027419D01*
X0089115Y0027421D01*
X0089162Y0027427D01*
X0089209Y0027437D01*
X0089255Y0027450D01*
X0089299Y0027468D01*
X0089342Y0027489D01*
X0089383Y0027513D01*
X0089422Y0027541D01*
X0089458Y0027572D01*
X0089492Y0027606D01*
X0089523Y0027642D01*
X0089551Y0027681D01*
X0089575Y0027722D01*
X0089596Y0027765D01*
X0089614Y0027809D01*
X0089627Y0027855D01*
X0089637Y0027902D01*
X0089643Y0027949D01*
X0089645Y0027997D01*
X0089645Y0028575D01*
X0089645Y0030122D02*
X0089643Y0030189D01*
X0089637Y0030256D01*
X0089627Y0030323D01*
X0089614Y0030389D01*
X0089596Y0030454D01*
X0089575Y0030517D01*
X0089550Y0030580D01*
X0089522Y0030641D01*
X0089490Y0030700D01*
X0089455Y0030757D01*
X0089416Y0030812D01*
X0089375Y0030865D01*
X0089330Y0030915D01*
X0089282Y0030963D01*
X0089232Y0031008D01*
X0089179Y0031049D01*
X0089124Y0031088D01*
X0089067Y0031123D01*
X0089008Y0031155D01*
X0088947Y0031183D01*
X0088884Y0031208D01*
X0088821Y0031229D01*
X0088756Y0031247D01*
X0088690Y0031260D01*
X0088623Y0031270D01*
X0088556Y0031276D01*
X0088489Y0031278D01*
X0087767Y0031278D01*
X0088489Y0031278D02*
X0088489Y0030411D01*
X0088490Y0030411D02*
X0088488Y0030366D01*
X0088483Y0030321D01*
X0088474Y0030276D01*
X0088462Y0030232D01*
X0088446Y0030190D01*
X0088427Y0030149D01*
X0088405Y0030109D01*
X0088380Y0030071D01*
X0088352Y0030036D01*
X0088321Y0030002D01*
X0088287Y0029971D01*
X0088252Y0029943D01*
X0088214Y0029918D01*
X0088174Y0029896D01*
X0088133Y0029877D01*
X0088091Y0029861D01*
X0088047Y0029849D01*
X0088002Y0029840D01*
X0087957Y0029835D01*
X0087912Y0029833D01*
X0087767Y0029833D01*
X0087714Y0029835D01*
X0087662Y0029841D01*
X0087610Y0029850D01*
X0087559Y0029864D01*
X0087509Y0029881D01*
X0087461Y0029901D01*
X0087414Y0029925D01*
X0087369Y0029953D01*
X0087326Y0029984D01*
X0087285Y0030017D01*
X0087247Y0030054D01*
X0087212Y0030093D01*
X0087180Y0030135D01*
X0087151Y0030179D01*
X0087125Y0030225D01*
X0087103Y0030273D01*
X0087084Y0030322D01*
X0087068Y0030372D01*
X0087057Y0030424D01*
X0087049Y0030476D01*
X0087045Y0030529D01*
X0087045Y0030581D01*
X0087049Y0030634D01*
X0087057Y0030686D01*
X0087068Y0030738D01*
X0087084Y0030788D01*
X0087103Y0030837D01*
X0087125Y0030885D01*
X0087151Y0030931D01*
X0087180Y0030975D01*
X0087212Y0031017D01*
X0087247Y0031056D01*
X0087285Y0031093D01*
X0087326Y0031126D01*
X0087369Y0031157D01*
X0087414Y0031185D01*
X0087461Y0031209D01*
X0087509Y0031229D01*
X0087559Y0031246D01*
X0087610Y0031260D01*
X0087662Y0031269D01*
X0087714Y0031275D01*
X0087767Y0031277D01*
X0087045Y0033553D02*
X0087045Y0034275D01*
X0087045Y0033553D02*
X0089645Y0033553D01*
X0088489Y0033553D02*
X0088489Y0034275D01*
X0088489Y0034420D02*
X0089645Y0034997D01*
X0089645Y0036402D02*
X0089645Y0037846D01*
X0089645Y0037124D02*
X0087045Y0037124D01*
X0087623Y0036402D01*
X0087045Y0034275D02*
X0087047Y0034328D01*
X0087053Y0034380D01*
X0087062Y0034432D01*
X0087076Y0034483D01*
X0087093Y0034533D01*
X0087113Y0034581D01*
X0087137Y0034628D01*
X0087165Y0034673D01*
X0087196Y0034716D01*
X0087229Y0034757D01*
X0087266Y0034795D01*
X0087305Y0034830D01*
X0087347Y0034862D01*
X0087391Y0034891D01*
X0087437Y0034917D01*
X0087485Y0034939D01*
X0087534Y0034958D01*
X0087584Y0034974D01*
X0087636Y0034985D01*
X0087688Y0034993D01*
X0087741Y0034997D01*
X0087793Y0034997D01*
X0087846Y0034993D01*
X0087898Y0034985D01*
X0087950Y0034974D01*
X0088000Y0034958D01*
X0088049Y0034939D01*
X0088097Y0034917D01*
X0088143Y0034891D01*
X0088187Y0034862D01*
X0088229Y0034830D01*
X0088268Y0034795D01*
X0088305Y0034757D01*
X0088338Y0034716D01*
X0088369Y0034673D01*
X0088397Y0034628D01*
X0088421Y0034581D01*
X0088441Y0034533D01*
X0088458Y0034483D01*
X0088472Y0034432D01*
X0088481Y0034380D01*
X0088487Y0034328D01*
X0088489Y0034275D01*
X0089067Y0039282D02*
X0089067Y0040726D01*
X0089571Y0041007D02*
X0086971Y0041007D01*
X0086971Y0041730D01*
X0086973Y0041783D01*
X0086979Y0041835D01*
X0086988Y0041887D01*
X0087002Y0041938D01*
X0087019Y0041988D01*
X0087039Y0042036D01*
X0087063Y0042083D01*
X0087091Y0042128D01*
X0087122Y0042171D01*
X0087155Y0042212D01*
X0087192Y0042250D01*
X0087231Y0042285D01*
X0087273Y0042317D01*
X0087317Y0042346D01*
X0087363Y0042372D01*
X0087411Y0042394D01*
X0087460Y0042413D01*
X0087510Y0042429D01*
X0087562Y0042440D01*
X0087614Y0042448D01*
X0087667Y0042452D01*
X0087719Y0042452D01*
X0087772Y0042448D01*
X0087824Y0042440D01*
X0087876Y0042429D01*
X0087926Y0042413D01*
X0087975Y0042394D01*
X0088023Y0042372D01*
X0088069Y0042346D01*
X0088113Y0042317D01*
X0088155Y0042285D01*
X0088194Y0042250D01*
X0088231Y0042212D01*
X0088264Y0042171D01*
X0088295Y0042128D01*
X0088323Y0042083D01*
X0088347Y0042036D01*
X0088367Y0041988D01*
X0088384Y0041938D01*
X0088398Y0041887D01*
X0088407Y0041835D01*
X0088413Y0041783D01*
X0088415Y0041730D01*
X0088415Y0041007D01*
X0088489Y0040293D02*
X0089645Y0040293D01*
X0089067Y0039282D02*
X0087045Y0039860D01*
X0088415Y0041874D02*
X0089571Y0042452D01*
X0089571Y0043856D02*
X0089571Y0045301D01*
X0089571Y0044579D02*
X0086971Y0044579D01*
X0087549Y0043856D01*
X0088126Y0046736D02*
X0088849Y0046736D01*
X0088126Y0046736D02*
X0088126Y0047603D01*
X0088126Y0046736D02*
X0088059Y0046738D01*
X0087992Y0046744D01*
X0087925Y0046754D01*
X0087859Y0046767D01*
X0087794Y0046785D01*
X0087731Y0046806D01*
X0087668Y0046831D01*
X0087607Y0046859D01*
X0087548Y0046891D01*
X0087491Y0046926D01*
X0087436Y0046965D01*
X0087383Y0047006D01*
X0087333Y0047051D01*
X0087285Y0047099D01*
X0087240Y0047149D01*
X0087199Y0047202D01*
X0087160Y0047257D01*
X0087125Y0047314D01*
X0087093Y0047373D01*
X0087065Y0047434D01*
X0087040Y0047497D01*
X0087019Y0047560D01*
X0087001Y0047625D01*
X0086988Y0047691D01*
X0086978Y0047758D01*
X0086972Y0047825D01*
X0086970Y0047892D01*
X0088126Y0047603D02*
X0088128Y0047648D01*
X0088133Y0047693D01*
X0088142Y0047738D01*
X0088154Y0047782D01*
X0088170Y0047824D01*
X0088189Y0047865D01*
X0088211Y0047905D01*
X0088236Y0047943D01*
X0088264Y0047978D01*
X0088295Y0048012D01*
X0088329Y0048043D01*
X0088364Y0048071D01*
X0088402Y0048096D01*
X0088442Y0048118D01*
X0088483Y0048137D01*
X0088525Y0048153D01*
X0088569Y0048165D01*
X0088614Y0048174D01*
X0088659Y0048179D01*
X0088704Y0048181D01*
X0088849Y0048181D01*
X0088902Y0048179D01*
X0088954Y0048173D01*
X0089006Y0048164D01*
X0089057Y0048150D01*
X0089107Y0048133D01*
X0089155Y0048113D01*
X0089202Y0048089D01*
X0089247Y0048061D01*
X0089290Y0048030D01*
X0089331Y0047997D01*
X0089369Y0047960D01*
X0089404Y0047921D01*
X0089436Y0047879D01*
X0089465Y0047835D01*
X0089491Y0047789D01*
X0089513Y0047741D01*
X0089532Y0047692D01*
X0089548Y0047642D01*
X0089559Y0047590D01*
X0089567Y0047538D01*
X0089571Y0047485D01*
X0089571Y0047433D01*
X0089567Y0047380D01*
X0089559Y0047328D01*
X0089548Y0047276D01*
X0089532Y0047226D01*
X0089513Y0047177D01*
X0089491Y0047129D01*
X0089465Y0047083D01*
X0089436Y0047039D01*
X0089404Y0046997D01*
X0089369Y0046958D01*
X0089331Y0046921D01*
X0089290Y0046888D01*
X0089247Y0046857D01*
X0089202Y0046829D01*
X0089155Y0046805D01*
X0089107Y0046785D01*
X0089057Y0046768D01*
X0089006Y0046754D01*
X0088954Y0046745D01*
X0088902Y0046739D01*
X0088849Y0046737D01*
X0088415Y0049669D02*
X0088415Y0050391D01*
X0088415Y0050536D02*
X0089571Y0051113D01*
X0089571Y0052518D02*
X0089571Y0053962D01*
X0089571Y0053240D02*
X0086971Y0053240D01*
X0087549Y0052518D01*
X0086971Y0050391D02*
X0086973Y0050444D01*
X0086979Y0050496D01*
X0086988Y0050548D01*
X0087002Y0050599D01*
X0087019Y0050649D01*
X0087039Y0050697D01*
X0087063Y0050744D01*
X0087091Y0050789D01*
X0087122Y0050832D01*
X0087155Y0050873D01*
X0087192Y0050911D01*
X0087231Y0050946D01*
X0087273Y0050978D01*
X0087317Y0051007D01*
X0087363Y0051033D01*
X0087411Y0051055D01*
X0087460Y0051074D01*
X0087510Y0051090D01*
X0087562Y0051101D01*
X0087614Y0051109D01*
X0087667Y0051113D01*
X0087719Y0051113D01*
X0087772Y0051109D01*
X0087824Y0051101D01*
X0087876Y0051090D01*
X0087926Y0051074D01*
X0087975Y0051055D01*
X0088023Y0051033D01*
X0088069Y0051007D01*
X0088113Y0050978D01*
X0088155Y0050946D01*
X0088194Y0050911D01*
X0088231Y0050873D01*
X0088264Y0050832D01*
X0088295Y0050789D01*
X0088323Y0050744D01*
X0088347Y0050697D01*
X0088367Y0050649D01*
X0088384Y0050599D01*
X0088398Y0050548D01*
X0088407Y0050496D01*
X0088413Y0050444D01*
X0088415Y0050391D01*
X0089571Y0049669D02*
X0086971Y0049669D01*
X0086971Y0050391D01*
X0086971Y0055398D02*
X0086971Y0056842D01*
X0089571Y0056120D01*
X0089621Y0056856D02*
X0087021Y0056856D01*
X0087021Y0057578D01*
X0087023Y0057631D01*
X0087029Y0057683D01*
X0087038Y0057735D01*
X0087052Y0057786D01*
X0087069Y0057836D01*
X0087089Y0057884D01*
X0087113Y0057931D01*
X0087141Y0057976D01*
X0087172Y0058019D01*
X0087205Y0058060D01*
X0087242Y0058098D01*
X0087281Y0058133D01*
X0087323Y0058165D01*
X0087367Y0058194D01*
X0087413Y0058220D01*
X0087461Y0058242D01*
X0087510Y0058261D01*
X0087560Y0058277D01*
X0087612Y0058288D01*
X0087664Y0058296D01*
X0087717Y0058300D01*
X0087769Y0058300D01*
X0087822Y0058296D01*
X0087874Y0058288D01*
X0087926Y0058277D01*
X0087976Y0058261D01*
X0088025Y0058242D01*
X0088073Y0058220D01*
X0088119Y0058194D01*
X0088163Y0058165D01*
X0088205Y0058133D01*
X0088244Y0058098D01*
X0088281Y0058060D01*
X0088314Y0058019D01*
X0088345Y0057976D01*
X0088373Y0057931D01*
X0088397Y0057884D01*
X0088417Y0057836D01*
X0088434Y0057786D01*
X0088448Y0057735D01*
X0088457Y0057683D01*
X0088463Y0057631D01*
X0088465Y0057578D01*
X0088466Y0057578D02*
X0088466Y0056856D01*
X0088466Y0057723D02*
X0089621Y0058301D01*
X0089621Y0059705D02*
X0089621Y0061150D01*
X0089621Y0060427D02*
X0087021Y0060427D01*
X0087599Y0059705D01*
X0087021Y0062585D02*
X0087021Y0064030D01*
X0088177Y0063452D02*
X0088177Y0062585D01*
X0087021Y0062585D01*
X0088177Y0063452D02*
X0088179Y0063497D01*
X0088184Y0063542D01*
X0088193Y0063587D01*
X0088205Y0063631D01*
X0088221Y0063673D01*
X0088240Y0063714D01*
X0088262Y0063754D01*
X0088287Y0063792D01*
X0088315Y0063827D01*
X0088346Y0063861D01*
X0088380Y0063892D01*
X0088415Y0063920D01*
X0088453Y0063945D01*
X0088493Y0063967D01*
X0088534Y0063986D01*
X0088576Y0064002D01*
X0088620Y0064014D01*
X0088665Y0064023D01*
X0088710Y0064028D01*
X0088755Y0064030D01*
X0089043Y0064030D01*
X0089091Y0064028D01*
X0089138Y0064022D01*
X0089185Y0064012D01*
X0089231Y0063999D01*
X0089275Y0063981D01*
X0089318Y0063960D01*
X0089359Y0063936D01*
X0089398Y0063908D01*
X0089434Y0063877D01*
X0089468Y0063843D01*
X0089499Y0063807D01*
X0089527Y0063768D01*
X0089551Y0063727D01*
X0089572Y0063684D01*
X0089590Y0063640D01*
X0089603Y0063594D01*
X0089613Y0063547D01*
X0089619Y0063500D01*
X0089621Y0063452D01*
X0089621Y0062585D01*
X0087260Y0055398D02*
X0086971Y0055398D01*
X0104067Y0066682D02*
X0104067Y0068127D01*
X0104066Y0068127D02*
X0104068Y0068175D01*
X0104074Y0068222D01*
X0104084Y0068269D01*
X0104097Y0068315D01*
X0104115Y0068359D01*
X0104136Y0068402D01*
X0104160Y0068443D01*
X0104188Y0068482D01*
X0104219Y0068518D01*
X0104253Y0068552D01*
X0104289Y0068583D01*
X0104328Y0068611D01*
X0104369Y0068635D01*
X0104412Y0068656D01*
X0104456Y0068674D01*
X0104502Y0068687D01*
X0104549Y0068697D01*
X0104596Y0068703D01*
X0104644Y0068705D01*
X0105222Y0068705D01*
X0106481Y0068127D02*
X0107203Y0068705D01*
X0107203Y0066105D01*
X0106481Y0066105D02*
X0107925Y0066105D01*
X0109361Y0066105D02*
X0110805Y0066105D01*
X0110083Y0066105D02*
X0110083Y0068705D01*
X0109361Y0068127D01*
X0112267Y0068201D02*
X0112267Y0066757D01*
X0112269Y0066712D01*
X0112274Y0066667D01*
X0112283Y0066622D01*
X0112295Y0066578D01*
X0112311Y0066536D01*
X0112330Y0066495D01*
X0112352Y0066455D01*
X0112377Y0066417D01*
X0112405Y0066382D01*
X0112436Y0066348D01*
X0112470Y0066317D01*
X0112505Y0066289D01*
X0112543Y0066264D01*
X0112583Y0066242D01*
X0112624Y0066223D01*
X0112666Y0066207D01*
X0112710Y0066195D01*
X0112755Y0066186D01*
X0112800Y0066181D01*
X0112845Y0066179D01*
X0113423Y0066179D01*
X0114681Y0066179D02*
X0116126Y0066179D01*
X0115404Y0066179D02*
X0115404Y0068779D01*
X0114681Y0068201D01*
X0113423Y0068779D02*
X0112845Y0068779D01*
X0112797Y0068777D01*
X0112750Y0068771D01*
X0112703Y0068761D01*
X0112657Y0068748D01*
X0112613Y0068730D01*
X0112570Y0068709D01*
X0112529Y0068685D01*
X0112490Y0068657D01*
X0112454Y0068626D01*
X0112420Y0068592D01*
X0112389Y0068556D01*
X0112361Y0068517D01*
X0112337Y0068476D01*
X0112316Y0068433D01*
X0112298Y0068389D01*
X0112285Y0068343D01*
X0112275Y0068296D01*
X0112269Y0068249D01*
X0112267Y0068201D01*
X0117561Y0068779D02*
X0118428Y0068779D01*
X0118475Y0068777D01*
X0118521Y0068772D01*
X0118566Y0068762D01*
X0118611Y0068749D01*
X0118655Y0068733D01*
X0118697Y0068713D01*
X0118737Y0068690D01*
X0118775Y0068663D01*
X0118811Y0068634D01*
X0118845Y0068601D01*
X0118876Y0068567D01*
X0118904Y0068529D01*
X0118929Y0068490D01*
X0118950Y0068449D01*
X0118968Y0068406D01*
X0118983Y0068362D01*
X0118994Y0068317D01*
X0119002Y0068271D01*
X0119006Y0068224D01*
X0119006Y0068178D01*
X0119002Y0068131D01*
X0118994Y0068085D01*
X0118983Y0068040D01*
X0118968Y0067996D01*
X0118950Y0067953D01*
X0118929Y0067912D01*
X0118904Y0067873D01*
X0118876Y0067835D01*
X0118845Y0067801D01*
X0118811Y0067768D01*
X0118775Y0067739D01*
X0118737Y0067712D01*
X0118697Y0067689D01*
X0118655Y0067669D01*
X0118611Y0067653D01*
X0118566Y0067640D01*
X0118521Y0067630D01*
X0118475Y0067625D01*
X0118428Y0067623D01*
X0117850Y0067623D01*
X0118284Y0067623D02*
X0118337Y0067621D01*
X0118389Y0067615D01*
X0118441Y0067606D01*
X0118492Y0067592D01*
X0118542Y0067575D01*
X0118590Y0067555D01*
X0118637Y0067531D01*
X0118682Y0067503D01*
X0118725Y0067472D01*
X0118766Y0067439D01*
X0118804Y0067402D01*
X0118839Y0067363D01*
X0118871Y0067321D01*
X0118900Y0067277D01*
X0118926Y0067231D01*
X0118948Y0067183D01*
X0118967Y0067134D01*
X0118983Y0067084D01*
X0118994Y0067032D01*
X0119002Y0066980D01*
X0119006Y0066927D01*
X0119006Y0066875D01*
X0119002Y0066822D01*
X0118994Y0066770D01*
X0118983Y0066718D01*
X0118967Y0066668D01*
X0118948Y0066619D01*
X0118926Y0066571D01*
X0118900Y0066525D01*
X0118871Y0066481D01*
X0118839Y0066439D01*
X0118804Y0066400D01*
X0118766Y0066363D01*
X0118725Y0066330D01*
X0118682Y0066299D01*
X0118637Y0066271D01*
X0118590Y0066247D01*
X0118542Y0066227D01*
X0118492Y0066210D01*
X0118441Y0066196D01*
X0118389Y0066187D01*
X0118337Y0066181D01*
X0118284Y0066179D01*
X0117561Y0066179D01*
X0121716Y0067150D02*
X0121716Y0068595D01*
X0121718Y0068643D01*
X0121724Y0068690D01*
X0121734Y0068737D01*
X0121747Y0068783D01*
X0121765Y0068827D01*
X0121786Y0068870D01*
X0121810Y0068911D01*
X0121838Y0068950D01*
X0121869Y0068986D01*
X0121903Y0069020D01*
X0121939Y0069051D01*
X0121978Y0069079D01*
X0122019Y0069103D01*
X0122062Y0069124D01*
X0122106Y0069142D01*
X0122152Y0069155D01*
X0122199Y0069165D01*
X0122246Y0069171D01*
X0122294Y0069173D01*
X0122294Y0069172D02*
X0122872Y0069172D01*
X0124274Y0068595D02*
X0124276Y0068548D01*
X0124281Y0068502D01*
X0124291Y0068457D01*
X0124304Y0068412D01*
X0124320Y0068368D01*
X0124340Y0068326D01*
X0124363Y0068286D01*
X0124390Y0068248D01*
X0124419Y0068212D01*
X0124452Y0068178D01*
X0124486Y0068147D01*
X0124524Y0068119D01*
X0124563Y0068094D01*
X0124604Y0068073D01*
X0124647Y0068055D01*
X0124691Y0068040D01*
X0124736Y0068029D01*
X0124782Y0068021D01*
X0124829Y0068017D01*
X0124875Y0068017D01*
X0124922Y0068021D01*
X0124968Y0068029D01*
X0125013Y0068040D01*
X0125057Y0068055D01*
X0125100Y0068073D01*
X0125141Y0068094D01*
X0125180Y0068119D01*
X0125218Y0068147D01*
X0125252Y0068178D01*
X0125285Y0068212D01*
X0125314Y0068248D01*
X0125341Y0068286D01*
X0125364Y0068326D01*
X0125384Y0068368D01*
X0125400Y0068412D01*
X0125413Y0068457D01*
X0125423Y0068502D01*
X0125428Y0068548D01*
X0125430Y0068595D01*
X0125428Y0068642D01*
X0125423Y0068688D01*
X0125413Y0068733D01*
X0125400Y0068778D01*
X0125384Y0068822D01*
X0125364Y0068864D01*
X0125341Y0068904D01*
X0125314Y0068942D01*
X0125285Y0068978D01*
X0125252Y0069012D01*
X0125218Y0069043D01*
X0125180Y0069071D01*
X0125141Y0069096D01*
X0125100Y0069117D01*
X0125057Y0069135D01*
X0125013Y0069150D01*
X0124968Y0069161D01*
X0124922Y0069169D01*
X0124875Y0069173D01*
X0124829Y0069173D01*
X0124782Y0069169D01*
X0124736Y0069161D01*
X0124691Y0069150D01*
X0124647Y0069135D01*
X0124604Y0069117D01*
X0124563Y0069096D01*
X0124524Y0069071D01*
X0124486Y0069043D01*
X0124452Y0069012D01*
X0124419Y0068978D01*
X0124390Y0068942D01*
X0124363Y0068904D01*
X0124340Y0068864D01*
X0124320Y0068822D01*
X0124304Y0068778D01*
X0124291Y0068733D01*
X0124281Y0068688D01*
X0124276Y0068642D01*
X0124274Y0068595D01*
X0124130Y0067295D02*
X0124132Y0067242D01*
X0124138Y0067190D01*
X0124147Y0067138D01*
X0124161Y0067087D01*
X0124178Y0067037D01*
X0124198Y0066989D01*
X0124222Y0066942D01*
X0124250Y0066897D01*
X0124281Y0066854D01*
X0124314Y0066813D01*
X0124351Y0066775D01*
X0124390Y0066740D01*
X0124432Y0066708D01*
X0124476Y0066679D01*
X0124522Y0066653D01*
X0124570Y0066631D01*
X0124619Y0066612D01*
X0124669Y0066596D01*
X0124721Y0066585D01*
X0124773Y0066577D01*
X0124826Y0066573D01*
X0124878Y0066573D01*
X0124931Y0066577D01*
X0124983Y0066585D01*
X0125035Y0066596D01*
X0125085Y0066612D01*
X0125134Y0066631D01*
X0125182Y0066653D01*
X0125228Y0066679D01*
X0125272Y0066708D01*
X0125314Y0066740D01*
X0125353Y0066775D01*
X0125390Y0066813D01*
X0125423Y0066854D01*
X0125454Y0066897D01*
X0125482Y0066942D01*
X0125506Y0066989D01*
X0125526Y0067037D01*
X0125543Y0067087D01*
X0125557Y0067138D01*
X0125566Y0067190D01*
X0125572Y0067242D01*
X0125574Y0067295D01*
X0125572Y0067348D01*
X0125566Y0067400D01*
X0125557Y0067452D01*
X0125543Y0067503D01*
X0125526Y0067553D01*
X0125506Y0067601D01*
X0125482Y0067648D01*
X0125454Y0067693D01*
X0125423Y0067736D01*
X0125390Y0067777D01*
X0125353Y0067815D01*
X0125314Y0067850D01*
X0125272Y0067882D01*
X0125228Y0067911D01*
X0125182Y0067937D01*
X0125134Y0067959D01*
X0125085Y0067978D01*
X0125035Y0067994D01*
X0124983Y0068005D01*
X0124931Y0068013D01*
X0124878Y0068017D01*
X0124826Y0068017D01*
X0124773Y0068013D01*
X0124721Y0068005D01*
X0124669Y0067994D01*
X0124619Y0067978D01*
X0124570Y0067959D01*
X0124522Y0067937D01*
X0124476Y0067911D01*
X0124432Y0067882D01*
X0124390Y0067850D01*
X0124351Y0067815D01*
X0124314Y0067777D01*
X0124281Y0067736D01*
X0124250Y0067693D01*
X0124222Y0067648D01*
X0124198Y0067601D01*
X0124178Y0067553D01*
X0124161Y0067503D01*
X0124147Y0067452D01*
X0124138Y0067400D01*
X0124132Y0067348D01*
X0124130Y0067295D01*
X0122872Y0066572D02*
X0122294Y0066572D01*
X0122249Y0066574D01*
X0122204Y0066579D01*
X0122159Y0066588D01*
X0122115Y0066600D01*
X0122073Y0066616D01*
X0122032Y0066635D01*
X0121992Y0066657D01*
X0121954Y0066682D01*
X0121919Y0066710D01*
X0121885Y0066741D01*
X0121854Y0066775D01*
X0121826Y0066810D01*
X0121801Y0066848D01*
X0121779Y0066888D01*
X0121760Y0066929D01*
X0121744Y0066971D01*
X0121732Y0067015D01*
X0121723Y0067060D01*
X0121718Y0067105D01*
X0121716Y0067150D01*
X0126496Y0074865D02*
X0126496Y0077465D01*
X0127219Y0077465D01*
X0127266Y0077463D01*
X0127312Y0077458D01*
X0127357Y0077448D01*
X0127402Y0077435D01*
X0127446Y0077419D01*
X0127488Y0077399D01*
X0127528Y0077376D01*
X0127566Y0077349D01*
X0127602Y0077320D01*
X0127636Y0077287D01*
X0127667Y0077253D01*
X0127695Y0077215D01*
X0127720Y0077176D01*
X0127741Y0077135D01*
X0127759Y0077092D01*
X0127774Y0077048D01*
X0127785Y0077003D01*
X0127793Y0076957D01*
X0127797Y0076910D01*
X0127797Y0076864D01*
X0127793Y0076817D01*
X0127785Y0076771D01*
X0127774Y0076726D01*
X0127759Y0076682D01*
X0127741Y0076639D01*
X0127720Y0076598D01*
X0127695Y0076559D01*
X0127667Y0076521D01*
X0127636Y0076487D01*
X0127602Y0076454D01*
X0127566Y0076425D01*
X0127528Y0076398D01*
X0127488Y0076375D01*
X0127446Y0076355D01*
X0127402Y0076339D01*
X0127357Y0076326D01*
X0127312Y0076316D01*
X0127266Y0076311D01*
X0127219Y0076309D01*
X0126496Y0076309D01*
X0127219Y0076309D02*
X0127272Y0076307D01*
X0127324Y0076301D01*
X0127376Y0076292D01*
X0127427Y0076278D01*
X0127477Y0076261D01*
X0127525Y0076241D01*
X0127572Y0076217D01*
X0127617Y0076189D01*
X0127660Y0076158D01*
X0127701Y0076125D01*
X0127739Y0076088D01*
X0127774Y0076049D01*
X0127806Y0076007D01*
X0127835Y0075963D01*
X0127861Y0075917D01*
X0127883Y0075869D01*
X0127902Y0075820D01*
X0127918Y0075770D01*
X0127929Y0075718D01*
X0127937Y0075666D01*
X0127941Y0075613D01*
X0127941Y0075561D01*
X0127937Y0075508D01*
X0127929Y0075456D01*
X0127918Y0075404D01*
X0127902Y0075354D01*
X0127883Y0075305D01*
X0127861Y0075257D01*
X0127835Y0075211D01*
X0127806Y0075167D01*
X0127774Y0075125D01*
X0127739Y0075086D01*
X0127701Y0075049D01*
X0127660Y0075016D01*
X0127617Y0074985D01*
X0127572Y0074957D01*
X0127525Y0074933D01*
X0127477Y0074913D01*
X0127427Y0074896D01*
X0127376Y0074882D01*
X0127324Y0074873D01*
X0127272Y0074867D01*
X0127219Y0074865D01*
X0126496Y0074865D01*
X0129209Y0074865D02*
X0130654Y0074865D01*
X0129931Y0074865D02*
X0129931Y0077465D01*
X0129209Y0076887D01*
X0105222Y0066105D02*
X0104644Y0066105D01*
X0104644Y0066104D02*
X0104599Y0066106D01*
X0104554Y0066111D01*
X0104509Y0066120D01*
X0104465Y0066132D01*
X0104423Y0066148D01*
X0104382Y0066167D01*
X0104342Y0066189D01*
X0104304Y0066214D01*
X0104269Y0066242D01*
X0104235Y0066273D01*
X0104204Y0066307D01*
X0104176Y0066342D01*
X0104151Y0066380D01*
X0104129Y0066420D01*
X0104110Y0066461D01*
X0104094Y0066503D01*
X0104082Y0066547D01*
X0104073Y0066592D01*
X0104068Y0066637D01*
X0104066Y0066682D01*
X0095640Y0089451D02*
X0094918Y0089451D01*
X0095640Y0089451D02*
X0095693Y0089453D01*
X0095745Y0089459D01*
X0095797Y0089468D01*
X0095848Y0089482D01*
X0095898Y0089499D01*
X0095946Y0089519D01*
X0095993Y0089543D01*
X0096038Y0089571D01*
X0096081Y0089602D01*
X0096122Y0089635D01*
X0096160Y0089672D01*
X0096195Y0089711D01*
X0096227Y0089753D01*
X0096256Y0089797D01*
X0096282Y0089843D01*
X0096304Y0089891D01*
X0096323Y0089940D01*
X0096339Y0089990D01*
X0096350Y0090042D01*
X0096358Y0090094D01*
X0096362Y0090147D01*
X0096362Y0090199D01*
X0096358Y0090252D01*
X0096350Y0090304D01*
X0096339Y0090356D01*
X0096323Y0090406D01*
X0096304Y0090455D01*
X0096282Y0090503D01*
X0096256Y0090549D01*
X0096227Y0090593D01*
X0096195Y0090635D01*
X0096160Y0090674D01*
X0096122Y0090711D01*
X0096081Y0090744D01*
X0096038Y0090775D01*
X0095993Y0090803D01*
X0095946Y0090827D01*
X0095898Y0090847D01*
X0095848Y0090864D01*
X0095797Y0090878D01*
X0095745Y0090887D01*
X0095693Y0090893D01*
X0095640Y0090895D01*
X0095784Y0090896D02*
X0095207Y0090896D01*
X0095784Y0090895D02*
X0095831Y0090897D01*
X0095877Y0090902D01*
X0095922Y0090912D01*
X0095967Y0090925D01*
X0096011Y0090941D01*
X0096053Y0090961D01*
X0096093Y0090984D01*
X0096131Y0091011D01*
X0096167Y0091040D01*
X0096201Y0091073D01*
X0096232Y0091107D01*
X0096260Y0091145D01*
X0096285Y0091184D01*
X0096306Y0091225D01*
X0096324Y0091268D01*
X0096339Y0091312D01*
X0096350Y0091357D01*
X0096358Y0091403D01*
X0096362Y0091450D01*
X0096362Y0091496D01*
X0096358Y0091543D01*
X0096350Y0091589D01*
X0096339Y0091634D01*
X0096324Y0091678D01*
X0096306Y0091721D01*
X0096285Y0091762D01*
X0096260Y0091801D01*
X0096232Y0091839D01*
X0096201Y0091873D01*
X0096167Y0091906D01*
X0096131Y0091935D01*
X0096093Y0091962D01*
X0096053Y0091985D01*
X0096011Y0092005D01*
X0095967Y0092021D01*
X0095922Y0092034D01*
X0095877Y0092044D01*
X0095831Y0092049D01*
X0095784Y0092051D01*
X0094918Y0092051D01*
X0093659Y0092051D02*
X0093082Y0092051D01*
X0093034Y0092049D01*
X0092987Y0092043D01*
X0092940Y0092033D01*
X0092894Y0092020D01*
X0092850Y0092002D01*
X0092807Y0091981D01*
X0092766Y0091957D01*
X0092727Y0091929D01*
X0092691Y0091898D01*
X0092657Y0091864D01*
X0092626Y0091828D01*
X0092598Y0091789D01*
X0092574Y0091748D01*
X0092553Y0091705D01*
X0092535Y0091661D01*
X0092522Y0091615D01*
X0092512Y0091568D01*
X0092506Y0091521D01*
X0092504Y0091473D01*
X0092504Y0090029D01*
X0092506Y0089984D01*
X0092511Y0089939D01*
X0092520Y0089894D01*
X0092532Y0089850D01*
X0092548Y0089808D01*
X0092567Y0089767D01*
X0092589Y0089727D01*
X0092614Y0089689D01*
X0092642Y0089654D01*
X0092673Y0089620D01*
X0092707Y0089589D01*
X0092742Y0089561D01*
X0092780Y0089536D01*
X0092820Y0089514D01*
X0092861Y0089495D01*
X0092903Y0089479D01*
X0092947Y0089467D01*
X0092992Y0089458D01*
X0093037Y0089453D01*
X0093082Y0089451D01*
X0093659Y0089451D01*
X0080517Y0094755D02*
X0080517Y0095466D01*
X0080515Y0095540D01*
X0080509Y0095615D01*
X0080499Y0095688D01*
X0080486Y0095762D01*
X0080469Y0095834D01*
X0080447Y0095905D01*
X0080423Y0095976D01*
X0080394Y0096044D01*
X0080362Y0096112D01*
X0080326Y0096177D01*
X0080288Y0096240D01*
X0080245Y0096302D01*
X0080200Y0096361D01*
X0080152Y0096418D01*
X0080101Y0096472D01*
X0080047Y0096523D01*
X0079990Y0096571D01*
X0079931Y0096616D01*
X0079869Y0096659D01*
X0079806Y0096697D01*
X0079741Y0096733D01*
X0079673Y0096765D01*
X0079605Y0096794D01*
X0079534Y0096818D01*
X0079463Y0096840D01*
X0079391Y0096857D01*
X0079317Y0096870D01*
X0079244Y0096880D01*
X0079169Y0096886D01*
X0079095Y0096888D01*
X0076961Y0096888D01*
X0076961Y0099732D01*
X0080517Y0099732D01*
X0080517Y0094755D02*
X0080515Y0094681D01*
X0080509Y0094606D01*
X0080499Y0094533D01*
X0080486Y0094459D01*
X0080469Y0094387D01*
X0080447Y0094316D01*
X0080423Y0094245D01*
X0080394Y0094177D01*
X0080362Y0094109D01*
X0080326Y0094044D01*
X0080288Y0093981D01*
X0080245Y0093919D01*
X0080200Y0093860D01*
X0080152Y0093803D01*
X0080101Y0093749D01*
X0080047Y0093698D01*
X0079990Y0093650D01*
X0079931Y0093605D01*
X0079869Y0093562D01*
X0079806Y0093524D01*
X0079741Y0093488D01*
X0079673Y0093456D01*
X0079605Y0093427D01*
X0079534Y0093403D01*
X0079463Y0093381D01*
X0079391Y0093364D01*
X0079317Y0093351D01*
X0079244Y0093341D01*
X0079169Y0093335D01*
X0079095Y0093333D01*
X0079095Y0093332D02*
X0076961Y0093332D01*
X0074609Y0093332D02*
X0074254Y0093332D01*
X0074254Y0093688D01*
X0074609Y0093688D01*
X0074609Y0093332D01*
X0068879Y0094221D02*
X0068819Y0094348D01*
X0068763Y0094477D01*
X0068710Y0094607D01*
X0068660Y0094739D01*
X0068614Y0094872D01*
X0068572Y0095006D01*
X0068533Y0095141D01*
X0068497Y0095278D01*
X0068466Y0095415D01*
X0068438Y0095553D01*
X0068413Y0095691D01*
X0068393Y0095830D01*
X0068376Y0095970D01*
X0068363Y0096110D01*
X0068354Y0096251D01*
X0068348Y0096391D01*
X0068346Y0096532D01*
X0071901Y0096532D02*
X0071899Y0096673D01*
X0071893Y0096813D01*
X0071884Y0096954D01*
X0071871Y0097094D01*
X0071854Y0097234D01*
X0071834Y0097373D01*
X0071809Y0097511D01*
X0071781Y0097649D01*
X0071750Y0097786D01*
X0071714Y0097923D01*
X0071675Y0098058D01*
X0071633Y0098192D01*
X0071587Y0098325D01*
X0071537Y0098457D01*
X0071484Y0098587D01*
X0071428Y0098716D01*
X0071368Y0098843D01*
X0071546Y0098310D02*
X0068701Y0094755D01*
X0070124Y0093332D02*
X0070195Y0093334D01*
X0070266Y0093340D01*
X0070336Y0093349D01*
X0070406Y0093363D01*
X0070475Y0093380D01*
X0070542Y0093400D01*
X0070609Y0093425D01*
X0070674Y0093453D01*
X0070738Y0093484D01*
X0070800Y0093519D01*
X0070860Y0093557D01*
X0070917Y0093598D01*
X0070973Y0093642D01*
X0071026Y0093690D01*
X0071076Y0093740D01*
X0071124Y0093792D01*
X0071169Y0093847D01*
X0071210Y0093905D01*
X0071249Y0093965D01*
X0071284Y0094026D01*
X0071316Y0094090D01*
X0071344Y0094155D01*
X0071369Y0094221D01*
X0070124Y0093332D02*
X0070053Y0093334D01*
X0069982Y0093340D01*
X0069912Y0093349D01*
X0069842Y0093363D01*
X0069773Y0093380D01*
X0069706Y0093400D01*
X0069639Y0093425D01*
X0069574Y0093453D01*
X0069510Y0093484D01*
X0069448Y0093519D01*
X0069388Y0093557D01*
X0069330Y0093598D01*
X0069275Y0093642D01*
X0069222Y0093690D01*
X0069172Y0093740D01*
X0069124Y0093792D01*
X0069079Y0093847D01*
X0069038Y0093905D01*
X0068999Y0093965D01*
X0068964Y0094026D01*
X0068932Y0094090D01*
X0068904Y0094155D01*
X0068879Y0094221D01*
X0071368Y0094221D02*
X0071428Y0094348D01*
X0071484Y0094477D01*
X0071537Y0094607D01*
X0071587Y0094739D01*
X0071633Y0094872D01*
X0071675Y0095006D01*
X0071714Y0095141D01*
X0071750Y0095278D01*
X0071781Y0095415D01*
X0071809Y0095553D01*
X0071834Y0095691D01*
X0071854Y0095830D01*
X0071871Y0095970D01*
X0071884Y0096110D01*
X0071893Y0096251D01*
X0071899Y0096391D01*
X0071901Y0096532D01*
X0068346Y0096532D02*
X0068348Y0096673D01*
X0068354Y0096813D01*
X0068363Y0096954D01*
X0068376Y0097094D01*
X0068393Y0097234D01*
X0068413Y0097373D01*
X0068438Y0097511D01*
X0068466Y0097649D01*
X0068497Y0097786D01*
X0068533Y0097923D01*
X0068572Y0098058D01*
X0068614Y0098192D01*
X0068660Y0098325D01*
X0068710Y0098457D01*
X0068763Y0098587D01*
X0068819Y0098716D01*
X0068879Y0098843D01*
X0068879Y0098844D02*
X0068904Y0098910D01*
X0068932Y0098975D01*
X0068964Y0099039D01*
X0068999Y0099100D01*
X0069038Y0099160D01*
X0069079Y0099218D01*
X0069124Y0099273D01*
X0069172Y0099325D01*
X0069222Y0099375D01*
X0069275Y0099423D01*
X0069330Y0099467D01*
X0069388Y0099508D01*
X0069448Y0099546D01*
X0069510Y0099581D01*
X0069574Y0099612D01*
X0069639Y0099640D01*
X0069706Y0099665D01*
X0069773Y0099685D01*
X0069842Y0099702D01*
X0069912Y0099716D01*
X0069982Y0099725D01*
X0070053Y0099731D01*
X0070124Y0099733D01*
X0070195Y0099731D01*
X0070266Y0099725D01*
X0070336Y0099716D01*
X0070406Y0099702D01*
X0070475Y0099685D01*
X0070542Y0099665D01*
X0070609Y0099640D01*
X0070674Y0099612D01*
X0070738Y0099581D01*
X0070800Y0099546D01*
X0070860Y0099508D01*
X0070918Y0099467D01*
X0070973Y0099423D01*
X0071026Y0099375D01*
X0071076Y0099325D01*
X0071124Y0099273D01*
X0071169Y0099218D01*
X0071210Y0099160D01*
X0071249Y0099100D01*
X0071284Y0099039D01*
X0071316Y0098975D01*
X0071344Y0098910D01*
X0071369Y0098844D01*
X0066103Y0099732D02*
X0063970Y0093332D01*
X0061836Y0099732D01*
X0063411Y0107074D02*
X0066967Y0109207D01*
X0063411Y0111340D01*
X0069811Y0111340D01*
X0069811Y0115360D02*
X0069811Y0116960D01*
X0066611Y0116960D01*
X0067322Y0116960D02*
X0067322Y0115360D01*
X0066611Y0116960D02*
X0066547Y0116958D01*
X0066482Y0116952D01*
X0066419Y0116943D01*
X0066356Y0116929D01*
X0066294Y0116912D01*
X0066233Y0116891D01*
X0066173Y0116866D01*
X0066115Y0116838D01*
X0066059Y0116806D01*
X0066005Y0116771D01*
X0065953Y0116733D01*
X0065903Y0116692D01*
X0065857Y0116647D01*
X0065812Y0116601D01*
X0065771Y0116551D01*
X0065733Y0116499D01*
X0065698Y0116445D01*
X0065666Y0116389D01*
X0065638Y0116331D01*
X0065613Y0116271D01*
X0065592Y0116210D01*
X0065575Y0116148D01*
X0065561Y0116085D01*
X0065552Y0116022D01*
X0065546Y0115957D01*
X0065544Y0115893D01*
X0065544Y0114471D01*
X0067323Y0115360D02*
X0067325Y0115290D01*
X0067331Y0115221D01*
X0067341Y0115152D01*
X0067354Y0115083D01*
X0067372Y0115016D01*
X0067393Y0114949D01*
X0067418Y0114884D01*
X0067446Y0114820D01*
X0067478Y0114758D01*
X0067514Y0114698D01*
X0067552Y0114640D01*
X0067594Y0114584D01*
X0067639Y0114531D01*
X0067687Y0114480D01*
X0067738Y0114432D01*
X0067791Y0114387D01*
X0067847Y0114345D01*
X0067905Y0114307D01*
X0067965Y0114271D01*
X0068027Y0114239D01*
X0068091Y0114211D01*
X0068156Y0114186D01*
X0068223Y0114165D01*
X0068290Y0114147D01*
X0068359Y0114134D01*
X0068428Y0114124D01*
X0068497Y0114118D01*
X0068567Y0114116D01*
X0068637Y0114118D01*
X0068706Y0114124D01*
X0068775Y0114134D01*
X0068844Y0114147D01*
X0068911Y0114165D01*
X0068978Y0114186D01*
X0069043Y0114211D01*
X0069107Y0114239D01*
X0069169Y0114271D01*
X0069229Y0114307D01*
X0069287Y0114345D01*
X0069343Y0114387D01*
X0069396Y0114432D01*
X0069447Y0114480D01*
X0069495Y0114531D01*
X0069540Y0114584D01*
X0069582Y0114640D01*
X0069620Y0114698D01*
X0069656Y0114758D01*
X0069688Y0114820D01*
X0069716Y0114884D01*
X0069741Y0114949D01*
X0069762Y0115016D01*
X0069780Y0115083D01*
X0069793Y0115152D01*
X0069803Y0115221D01*
X0069809Y0115290D01*
X0069811Y0115360D01*
X0073911Y0112763D02*
X0080311Y0111340D01*
X0076044Y0109918D01*
X0080311Y0108496D01*
X0073911Y0107074D01*
X0069811Y0107074D02*
X0063411Y0107074D01*
X0077467Y0115060D02*
X0078889Y0115060D01*
X0078889Y0115061D02*
X0078963Y0115063D01*
X0079038Y0115069D01*
X0079111Y0115079D01*
X0079185Y0115092D01*
X0079257Y0115109D01*
X0079328Y0115131D01*
X0079399Y0115155D01*
X0079467Y0115184D01*
X0079535Y0115216D01*
X0079600Y0115252D01*
X0079663Y0115290D01*
X0079725Y0115333D01*
X0079784Y0115378D01*
X0079841Y0115426D01*
X0079895Y0115477D01*
X0079946Y0115531D01*
X0079994Y0115588D01*
X0080039Y0115647D01*
X0080082Y0115709D01*
X0080120Y0115772D01*
X0080156Y0115837D01*
X0080188Y0115905D01*
X0080217Y0115973D01*
X0080241Y0116044D01*
X0080263Y0116115D01*
X0080280Y0116187D01*
X0080293Y0116261D01*
X0080303Y0116334D01*
X0080309Y0116409D01*
X0080311Y0116483D01*
X0080309Y0116557D01*
X0080303Y0116632D01*
X0080293Y0116705D01*
X0080280Y0116779D01*
X0080263Y0116851D01*
X0080241Y0116922D01*
X0080217Y0116993D01*
X0080188Y0117061D01*
X0080156Y0117129D01*
X0080120Y0117194D01*
X0080082Y0117257D01*
X0080039Y0117319D01*
X0079994Y0117378D01*
X0079946Y0117435D01*
X0079895Y0117489D01*
X0079841Y0117540D01*
X0079784Y0117588D01*
X0079725Y0117633D01*
X0079663Y0117676D01*
X0079600Y0117714D01*
X0079535Y0117750D01*
X0079467Y0117782D01*
X0079399Y0117811D01*
X0079328Y0117835D01*
X0079257Y0117857D01*
X0079185Y0117874D01*
X0079111Y0117887D01*
X0079038Y0117897D01*
X0078963Y0117903D01*
X0078889Y0117905D01*
X0077467Y0117905D01*
X0077393Y0117903D01*
X0077318Y0117897D01*
X0077245Y0117887D01*
X0077171Y0117874D01*
X0077099Y0117857D01*
X0077028Y0117835D01*
X0076957Y0117811D01*
X0076889Y0117782D01*
X0076821Y0117750D01*
X0076756Y0117714D01*
X0076693Y0117676D01*
X0076631Y0117633D01*
X0076572Y0117588D01*
X0076515Y0117540D01*
X0076461Y0117489D01*
X0076410Y0117435D01*
X0076362Y0117378D01*
X0076317Y0117319D01*
X0076274Y0117257D01*
X0076236Y0117194D01*
X0076200Y0117129D01*
X0076168Y0117061D01*
X0076139Y0116993D01*
X0076115Y0116922D01*
X0076093Y0116851D01*
X0076076Y0116779D01*
X0076063Y0116705D01*
X0076053Y0116632D01*
X0076047Y0116557D01*
X0076045Y0116483D01*
X0076047Y0116409D01*
X0076053Y0116334D01*
X0076063Y0116261D01*
X0076076Y0116187D01*
X0076093Y0116115D01*
X0076115Y0116044D01*
X0076139Y0115973D01*
X0076168Y0115905D01*
X0076200Y0115837D01*
X0076236Y0115772D01*
X0076274Y0115709D01*
X0076317Y0115647D01*
X0076362Y0115588D01*
X0076410Y0115531D01*
X0076461Y0115477D01*
X0076515Y0115426D01*
X0076572Y0115378D01*
X0076631Y0115333D01*
X0076693Y0115290D01*
X0076756Y0115252D01*
X0076821Y0115216D01*
X0076889Y0115184D01*
X0076957Y0115155D01*
X0077028Y0115131D01*
X0077099Y0115109D01*
X0077171Y0115092D01*
X0077245Y0115079D01*
X0077318Y0115069D01*
X0077393Y0115063D01*
X0077467Y0115061D01*
X0069811Y0119921D02*
X0065544Y0119921D01*
X0065544Y0122055D01*
X0066255Y0122055D01*
X0065544Y0123977D02*
X0069811Y0123977D01*
X0068744Y0126657D02*
X0065544Y0126657D01*
X0068744Y0126657D02*
X0068808Y0126659D01*
X0068873Y0126665D01*
X0068936Y0126674D01*
X0068999Y0126688D01*
X0069061Y0126705D01*
X0069122Y0126726D01*
X0069182Y0126751D01*
X0069240Y0126779D01*
X0069296Y0126811D01*
X0069350Y0126846D01*
X0069402Y0126884D01*
X0069452Y0126925D01*
X0069498Y0126970D01*
X0069543Y0127016D01*
X0069584Y0127066D01*
X0069622Y0127118D01*
X0069657Y0127172D01*
X0069689Y0127228D01*
X0069717Y0127286D01*
X0069742Y0127346D01*
X0069763Y0127407D01*
X0069780Y0127469D01*
X0069794Y0127532D01*
X0069803Y0127595D01*
X0069809Y0127660D01*
X0069811Y0127724D01*
X0069811Y0129502D01*
X0065544Y0129502D01*
X0067322Y0132729D02*
X0068033Y0134507D01*
X0068057Y0134562D01*
X0068084Y0134615D01*
X0068115Y0134666D01*
X0068149Y0134715D01*
X0068186Y0134761D01*
X0068226Y0134805D01*
X0068268Y0134847D01*
X0068314Y0134885D01*
X0068361Y0134921D01*
X0068411Y0134953D01*
X0068463Y0134983D01*
X0068517Y0135008D01*
X0068572Y0135031D01*
X0068628Y0135049D01*
X0068686Y0135064D01*
X0068744Y0135076D01*
X0068803Y0135083D01*
X0068863Y0135087D01*
X0068922Y0135086D01*
X0068982Y0135082D01*
X0069041Y0135074D01*
X0069099Y0135063D01*
X0069156Y0135047D01*
X0069213Y0135028D01*
X0069268Y0135006D01*
X0069321Y0134979D01*
X0069373Y0134950D01*
X0069422Y0134917D01*
X0069470Y0134881D01*
X0069515Y0134842D01*
X0069557Y0134800D01*
X0069597Y0134756D01*
X0069633Y0134709D01*
X0069667Y0134660D01*
X0069697Y0134609D01*
X0069724Y0134556D01*
X0069748Y0134501D01*
X0069767Y0134445D01*
X0069784Y0134388D01*
X0069796Y0134329D01*
X0069805Y0134271D01*
X0069810Y0134211D01*
X0069811Y0134152D01*
X0065900Y0134685D02*
X0065853Y0134577D01*
X0065810Y0134467D01*
X0065769Y0134356D01*
X0065732Y0134244D01*
X0065698Y0134132D01*
X0065667Y0134018D01*
X0065640Y0133903D01*
X0065616Y0133787D01*
X0065596Y0133671D01*
X0065579Y0133555D01*
X0065565Y0133438D01*
X0065555Y0133320D01*
X0065548Y0133203D01*
X0065544Y0133085D01*
X0065545Y0133026D01*
X0065550Y0132966D01*
X0065559Y0132908D01*
X0065571Y0132849D01*
X0065588Y0132792D01*
X0065607Y0132736D01*
X0065631Y0132681D01*
X0065658Y0132628D01*
X0065688Y0132577D01*
X0065722Y0132528D01*
X0065758Y0132481D01*
X0065798Y0132437D01*
X0065840Y0132395D01*
X0065885Y0132356D01*
X0065933Y0132320D01*
X0065982Y0132287D01*
X0066034Y0132258D01*
X0066087Y0132231D01*
X0066142Y0132209D01*
X0066199Y0132190D01*
X0066256Y0132174D01*
X0066314Y0132163D01*
X0066373Y0132155D01*
X0066433Y0132151D01*
X0066492Y0132150D01*
X0066552Y0132154D01*
X0066611Y0132161D01*
X0066669Y0132173D01*
X0066727Y0132188D01*
X0066783Y0132206D01*
X0066838Y0132229D01*
X0066892Y0132254D01*
X0066944Y0132284D01*
X0066994Y0132316D01*
X0067041Y0132352D01*
X0067087Y0132390D01*
X0067129Y0132432D01*
X0067169Y0132476D01*
X0067206Y0132522D01*
X0067240Y0132571D01*
X0067271Y0132622D01*
X0067298Y0132675D01*
X0067322Y0132730D01*
X0069456Y0132196D02*
X0069506Y0132341D01*
X0069552Y0132488D01*
X0069595Y0132635D01*
X0069634Y0132784D01*
X0069669Y0132934D01*
X0069701Y0133084D01*
X0069728Y0133235D01*
X0069752Y0133387D01*
X0069771Y0133539D01*
X0069787Y0133692D01*
X0069799Y0133845D01*
X0069807Y0133998D01*
X0069811Y0134152D01*
X0076044Y0132946D02*
X0078178Y0130102D01*
X0077289Y0131346D02*
X0080311Y0132946D01*
X0079244Y0135163D02*
X0077467Y0135163D01*
X0078178Y0135163D02*
X0078178Y0138008D01*
X0077467Y0138008D01*
X0077393Y0138006D01*
X0077318Y0138000D01*
X0077245Y0137990D01*
X0077171Y0137977D01*
X0077099Y0137960D01*
X0077028Y0137938D01*
X0076957Y0137914D01*
X0076889Y0137885D01*
X0076821Y0137853D01*
X0076756Y0137817D01*
X0076693Y0137779D01*
X0076631Y0137736D01*
X0076572Y0137691D01*
X0076515Y0137643D01*
X0076461Y0137592D01*
X0076410Y0137538D01*
X0076362Y0137481D01*
X0076317Y0137422D01*
X0076274Y0137360D01*
X0076236Y0137297D01*
X0076200Y0137232D01*
X0076168Y0137164D01*
X0076139Y0137096D01*
X0076115Y0137025D01*
X0076093Y0136954D01*
X0076076Y0136882D01*
X0076063Y0136808D01*
X0076053Y0136735D01*
X0076047Y0136660D01*
X0076045Y0136586D01*
X0076047Y0136512D01*
X0076053Y0136437D01*
X0076063Y0136364D01*
X0076076Y0136290D01*
X0076093Y0136218D01*
X0076115Y0136147D01*
X0076139Y0136076D01*
X0076168Y0136008D01*
X0076200Y0135940D01*
X0076236Y0135875D01*
X0076274Y0135812D01*
X0076317Y0135750D01*
X0076362Y0135691D01*
X0076410Y0135634D01*
X0076461Y0135580D01*
X0076515Y0135529D01*
X0076572Y0135481D01*
X0076631Y0135436D01*
X0076693Y0135393D01*
X0076756Y0135355D01*
X0076821Y0135319D01*
X0076889Y0135287D01*
X0076957Y0135258D01*
X0077028Y0135234D01*
X0077099Y0135212D01*
X0077171Y0135195D01*
X0077245Y0135182D01*
X0077318Y0135172D01*
X0077393Y0135166D01*
X0077467Y0135164D01*
X0079244Y0135163D02*
X0079308Y0135165D01*
X0079373Y0135171D01*
X0079436Y0135180D01*
X0079499Y0135194D01*
X0079561Y0135211D01*
X0079622Y0135232D01*
X0079682Y0135257D01*
X0079740Y0135285D01*
X0079796Y0135317D01*
X0079850Y0135352D01*
X0079902Y0135390D01*
X0079952Y0135431D01*
X0079998Y0135476D01*
X0080043Y0135522D01*
X0080084Y0135572D01*
X0080122Y0135624D01*
X0080157Y0135678D01*
X0080189Y0135734D01*
X0080217Y0135792D01*
X0080242Y0135852D01*
X0080263Y0135913D01*
X0080280Y0135975D01*
X0080294Y0136038D01*
X0080303Y0136101D01*
X0080309Y0136166D01*
X0080311Y0136230D01*
X0080311Y0138008D01*
X0080311Y0130102D02*
X0073911Y0130102D01*
X0076044Y0127555D02*
X0076044Y0125422D01*
X0073911Y0126133D02*
X0079244Y0126133D01*
X0079244Y0126132D02*
X0079308Y0126134D01*
X0079373Y0126140D01*
X0079436Y0126149D01*
X0079499Y0126163D01*
X0079561Y0126180D01*
X0079622Y0126201D01*
X0079682Y0126226D01*
X0079740Y0126254D01*
X0079796Y0126286D01*
X0079850Y0126321D01*
X0079902Y0126359D01*
X0079952Y0126400D01*
X0079998Y0126445D01*
X0080043Y0126491D01*
X0080084Y0126541D01*
X0080122Y0126593D01*
X0080157Y0126647D01*
X0080189Y0126703D01*
X0080217Y0126761D01*
X0080242Y0126821D01*
X0080263Y0126882D01*
X0080280Y0126944D01*
X0080294Y0127007D01*
X0080303Y0127070D01*
X0080309Y0127135D01*
X0080311Y0127199D01*
X0080311Y0127555D01*
X0080311Y0123209D02*
X0073911Y0123209D01*
X0076044Y0123209D02*
X0076044Y0121432D01*
X0076046Y0121368D01*
X0076052Y0121303D01*
X0076061Y0121240D01*
X0076075Y0121177D01*
X0076092Y0121115D01*
X0076113Y0121054D01*
X0076138Y0120994D01*
X0076166Y0120936D01*
X0076198Y0120880D01*
X0076233Y0120826D01*
X0076271Y0120774D01*
X0076312Y0120724D01*
X0076357Y0120678D01*
X0076403Y0120633D01*
X0076453Y0120592D01*
X0076505Y0120554D01*
X0076559Y0120519D01*
X0076615Y0120487D01*
X0076673Y0120459D01*
X0076733Y0120434D01*
X0076794Y0120413D01*
X0076856Y0120396D01*
X0076919Y0120382D01*
X0076982Y0120373D01*
X0077047Y0120367D01*
X0077111Y0120365D01*
X0079244Y0120365D01*
X0079308Y0120367D01*
X0079373Y0120373D01*
X0079436Y0120382D01*
X0079499Y0120396D01*
X0079561Y0120413D01*
X0079622Y0120434D01*
X0079682Y0120459D01*
X0079740Y0120487D01*
X0079796Y0120519D01*
X0079850Y0120554D01*
X0079902Y0120592D01*
X0079952Y0120633D01*
X0079998Y0120678D01*
X0080043Y0120724D01*
X0080084Y0120774D01*
X0080122Y0120826D01*
X0080157Y0120880D01*
X0080189Y0120936D01*
X0080217Y0120994D01*
X0080242Y0121054D01*
X0080263Y0121115D01*
X0080280Y0121177D01*
X0080294Y0121240D01*
X0080303Y0121303D01*
X0080309Y0121368D01*
X0080311Y0121432D01*
X0080311Y0123209D01*
X0093763Y0126415D02*
X0093763Y0129015D01*
X0094486Y0129015D01*
X0094539Y0129013D01*
X0094591Y0129007D01*
X0094643Y0128998D01*
X0094694Y0128984D01*
X0094744Y0128967D01*
X0094792Y0128947D01*
X0094839Y0128923D01*
X0094884Y0128895D01*
X0094927Y0128864D01*
X0094968Y0128831D01*
X0095006Y0128794D01*
X0095041Y0128755D01*
X0095073Y0128713D01*
X0095102Y0128669D01*
X0095128Y0128623D01*
X0095150Y0128575D01*
X0095169Y0128526D01*
X0095185Y0128476D01*
X0095196Y0128424D01*
X0095204Y0128372D01*
X0095208Y0128319D01*
X0095208Y0128267D01*
X0095204Y0128214D01*
X0095196Y0128162D01*
X0095185Y0128110D01*
X0095169Y0128060D01*
X0095150Y0128011D01*
X0095128Y0127963D01*
X0095102Y0127917D01*
X0095073Y0127873D01*
X0095041Y0127831D01*
X0095006Y0127792D01*
X0094968Y0127755D01*
X0094927Y0127722D01*
X0094884Y0127691D01*
X0094839Y0127663D01*
X0094792Y0127639D01*
X0094744Y0127619D01*
X0094694Y0127602D01*
X0094643Y0127588D01*
X0094591Y0127579D01*
X0094539Y0127573D01*
X0094486Y0127571D01*
X0093763Y0127571D01*
X0094630Y0127571D02*
X0095208Y0126415D01*
X0096612Y0126415D02*
X0098057Y0126415D01*
X0097335Y0126415D02*
X0097335Y0129015D01*
X0096612Y0128437D01*
X0100408Y0128677D02*
X0100408Y0126077D01*
X0101564Y0126077D01*
X0102904Y0126077D02*
X0102904Y0128677D01*
X0104060Y0128677D01*
X0103771Y0127522D02*
X0102904Y0127522D01*
X0102904Y0126077D02*
X0104060Y0126077D01*
X0105391Y0126077D02*
X0106113Y0126077D01*
X0106165Y0126079D01*
X0106216Y0126084D01*
X0106266Y0126093D01*
X0106316Y0126106D01*
X0106365Y0126123D01*
X0106413Y0126142D01*
X0106459Y0126165D01*
X0106503Y0126192D01*
X0106546Y0126221D01*
X0106586Y0126253D01*
X0106624Y0126288D01*
X0106659Y0126326D01*
X0106691Y0126366D01*
X0106720Y0126409D01*
X0106747Y0126453D01*
X0106770Y0126499D01*
X0106789Y0126547D01*
X0106806Y0126596D01*
X0106819Y0126646D01*
X0106828Y0126696D01*
X0106833Y0126747D01*
X0106835Y0126799D01*
X0106835Y0127955D01*
X0106833Y0128007D01*
X0106828Y0128058D01*
X0106819Y0128108D01*
X0106806Y0128158D01*
X0106789Y0128207D01*
X0106770Y0128255D01*
X0106747Y0128301D01*
X0106720Y0128345D01*
X0106691Y0128388D01*
X0106659Y0128428D01*
X0106624Y0128466D01*
X0106586Y0128501D01*
X0106546Y0128533D01*
X0106503Y0128562D01*
X0106459Y0128589D01*
X0106413Y0128612D01*
X0106365Y0128631D01*
X0106316Y0128648D01*
X0106266Y0128661D01*
X0106216Y0128670D01*
X0106165Y0128675D01*
X0106113Y0128677D01*
X0105391Y0128677D01*
X0105391Y0126077D01*
X0108367Y0126077D02*
X0109811Y0126077D01*
X0109089Y0126077D02*
X0109089Y0128677D01*
X0108367Y0128099D01*
X0124095Y0129560D02*
X0124095Y0129930D01*
X0124095Y0129560D02*
X0130473Y0129560D01*
X0130473Y0129930D01*
X0130473Y0133103D02*
X0130473Y0133473D01*
X0130473Y0136843D02*
X0130473Y0137213D01*
X0130473Y0140387D02*
X0130473Y0140757D01*
X0124095Y0140757D01*
X0124095Y0140387D01*
X0124095Y0137213D02*
X0124095Y0133103D01*
X0115923Y0140958D02*
X0113323Y0140958D01*
X0113323Y0141680D01*
X0113325Y0141733D01*
X0113331Y0141785D01*
X0113340Y0141837D01*
X0113354Y0141888D01*
X0113371Y0141938D01*
X0113391Y0141986D01*
X0113415Y0142033D01*
X0113443Y0142078D01*
X0113474Y0142121D01*
X0113507Y0142162D01*
X0113544Y0142200D01*
X0113583Y0142235D01*
X0113625Y0142267D01*
X0113669Y0142296D01*
X0113715Y0142322D01*
X0113763Y0142344D01*
X0113812Y0142363D01*
X0113862Y0142379D01*
X0113914Y0142390D01*
X0113966Y0142398D01*
X0114019Y0142402D01*
X0114071Y0142402D01*
X0114124Y0142398D01*
X0114176Y0142390D01*
X0114228Y0142379D01*
X0114278Y0142363D01*
X0114327Y0142344D01*
X0114375Y0142322D01*
X0114421Y0142296D01*
X0114465Y0142267D01*
X0114507Y0142235D01*
X0114546Y0142200D01*
X0114583Y0142162D01*
X0114616Y0142121D01*
X0114647Y0142078D01*
X0114675Y0142033D01*
X0114699Y0141986D01*
X0114719Y0141938D01*
X0114736Y0141888D01*
X0114750Y0141837D01*
X0114759Y0141785D01*
X0114765Y0141733D01*
X0114767Y0141680D01*
X0114768Y0141680D02*
X0114768Y0140958D01*
X0114768Y0141825D02*
X0115923Y0142403D01*
X0115923Y0143807D02*
X0115923Y0145252D01*
X0115923Y0143807D02*
X0114479Y0145035D01*
X0113323Y0144602D02*
X0113325Y0144547D01*
X0113330Y0144492D01*
X0113339Y0144437D01*
X0113352Y0144384D01*
X0113368Y0144331D01*
X0113388Y0144279D01*
X0113411Y0144229D01*
X0113437Y0144180D01*
X0113467Y0144133D01*
X0113499Y0144089D01*
X0113535Y0144046D01*
X0113573Y0144006D01*
X0113614Y0143969D01*
X0113657Y0143934D01*
X0113702Y0143903D01*
X0113749Y0143874D01*
X0113798Y0143849D01*
X0113849Y0143826D01*
X0113901Y0143808D01*
X0114478Y0145035D02*
X0114442Y0145071D01*
X0114402Y0145104D01*
X0114361Y0145134D01*
X0114317Y0145161D01*
X0114271Y0145185D01*
X0114224Y0145205D01*
X0114176Y0145222D01*
X0114126Y0145235D01*
X0114075Y0145244D01*
X0114024Y0145250D01*
X0113973Y0145252D01*
X0113924Y0145250D01*
X0113876Y0145245D01*
X0113828Y0145236D01*
X0113781Y0145223D01*
X0113736Y0145207D01*
X0113691Y0145188D01*
X0113648Y0145165D01*
X0113607Y0145139D01*
X0113568Y0145110D01*
X0113531Y0145078D01*
X0113497Y0145044D01*
X0113465Y0145007D01*
X0113436Y0144968D01*
X0113410Y0144927D01*
X0113387Y0144884D01*
X0113368Y0144839D01*
X0113352Y0144794D01*
X0113339Y0144747D01*
X0113330Y0144699D01*
X0113325Y0144651D01*
X0113323Y0144602D01*
X0143032Y0146969D02*
X0150906Y0139095D01*
X0158780Y0139095D01*
X0166654Y0146969D01*
X0173226Y0139201D02*
X0173948Y0139201D01*
X0173948Y0138334D01*
X0173948Y0139201D02*
X0174015Y0139199D01*
X0174082Y0139193D01*
X0174149Y0139183D01*
X0174215Y0139170D01*
X0174280Y0139152D01*
X0174343Y0139131D01*
X0174406Y0139106D01*
X0174467Y0139078D01*
X0174526Y0139046D01*
X0174583Y0139011D01*
X0174638Y0138972D01*
X0174691Y0138931D01*
X0174741Y0138886D01*
X0174789Y0138838D01*
X0174834Y0138788D01*
X0174875Y0138735D01*
X0174914Y0138680D01*
X0174949Y0138623D01*
X0174981Y0138564D01*
X0175009Y0138503D01*
X0175034Y0138440D01*
X0175055Y0138377D01*
X0175073Y0138312D01*
X0175086Y0138246D01*
X0175096Y0138179D01*
X0175102Y0138112D01*
X0175104Y0138045D01*
X0175104Y0136321D02*
X0175104Y0134876D01*
X0175104Y0135599D02*
X0172504Y0135599D01*
X0173081Y0134876D01*
X0172504Y0132750D02*
X0172506Y0132803D01*
X0172512Y0132855D01*
X0172521Y0132907D01*
X0172535Y0132958D01*
X0172552Y0133008D01*
X0172572Y0133056D01*
X0172596Y0133103D01*
X0172624Y0133148D01*
X0172655Y0133191D01*
X0172688Y0133232D01*
X0172725Y0133270D01*
X0172764Y0133305D01*
X0172806Y0133337D01*
X0172850Y0133366D01*
X0172896Y0133392D01*
X0172944Y0133414D01*
X0172993Y0133433D01*
X0173043Y0133449D01*
X0173095Y0133460D01*
X0173147Y0133468D01*
X0173200Y0133472D01*
X0173252Y0133472D01*
X0173305Y0133468D01*
X0173357Y0133460D01*
X0173409Y0133449D01*
X0173459Y0133433D01*
X0173508Y0133414D01*
X0173556Y0133392D01*
X0173602Y0133366D01*
X0173646Y0133337D01*
X0173688Y0133305D01*
X0173727Y0133270D01*
X0173764Y0133232D01*
X0173797Y0133191D01*
X0173828Y0133148D01*
X0173856Y0133103D01*
X0173880Y0133056D01*
X0173900Y0133008D01*
X0173917Y0132958D01*
X0173931Y0132907D01*
X0173940Y0132855D01*
X0173946Y0132803D01*
X0173948Y0132750D01*
X0173948Y0132027D01*
X0173948Y0132894D02*
X0175104Y0133472D01*
X0175104Y0132027D02*
X0172504Y0132027D01*
X0172504Y0132750D01*
X0173226Y0137756D02*
X0173370Y0137756D01*
X0173415Y0137758D01*
X0173460Y0137763D01*
X0173505Y0137772D01*
X0173549Y0137784D01*
X0173591Y0137800D01*
X0173632Y0137819D01*
X0173672Y0137841D01*
X0173710Y0137866D01*
X0173745Y0137894D01*
X0173779Y0137925D01*
X0173810Y0137959D01*
X0173838Y0137994D01*
X0173863Y0138032D01*
X0173885Y0138072D01*
X0173904Y0138113D01*
X0173920Y0138155D01*
X0173932Y0138199D01*
X0173941Y0138244D01*
X0173946Y0138289D01*
X0173948Y0138334D01*
X0173226Y0137757D02*
X0173173Y0137759D01*
X0173121Y0137765D01*
X0173069Y0137774D01*
X0173018Y0137788D01*
X0172968Y0137805D01*
X0172920Y0137825D01*
X0172873Y0137849D01*
X0172828Y0137877D01*
X0172785Y0137908D01*
X0172744Y0137941D01*
X0172706Y0137978D01*
X0172671Y0138017D01*
X0172639Y0138059D01*
X0172610Y0138103D01*
X0172584Y0138149D01*
X0172562Y0138197D01*
X0172543Y0138246D01*
X0172527Y0138296D01*
X0172516Y0138348D01*
X0172508Y0138400D01*
X0172504Y0138453D01*
X0172504Y0138505D01*
X0172508Y0138558D01*
X0172516Y0138610D01*
X0172527Y0138662D01*
X0172543Y0138712D01*
X0172562Y0138761D01*
X0172584Y0138809D01*
X0172610Y0138855D01*
X0172639Y0138899D01*
X0172671Y0138941D01*
X0172706Y0138980D01*
X0172744Y0139017D01*
X0172785Y0139050D01*
X0172828Y0139081D01*
X0172873Y0139109D01*
X0172920Y0139133D01*
X0172968Y0139153D01*
X0173018Y0139170D01*
X0173069Y0139184D01*
X0173121Y0139193D01*
X0173173Y0139199D01*
X0173226Y0139201D01*
X0190798Y0136301D02*
X0190845Y0136299D01*
X0190891Y0136294D01*
X0190936Y0136284D01*
X0190981Y0136271D01*
X0191025Y0136255D01*
X0191067Y0136235D01*
X0191107Y0136212D01*
X0191145Y0136185D01*
X0191181Y0136156D01*
X0191215Y0136123D01*
X0191246Y0136089D01*
X0191274Y0136051D01*
X0191299Y0136012D01*
X0191320Y0135971D01*
X0191338Y0135928D01*
X0191353Y0135884D01*
X0191364Y0135839D01*
X0191372Y0135793D01*
X0191376Y0135746D01*
X0191376Y0135700D01*
X0191372Y0135653D01*
X0191364Y0135607D01*
X0191353Y0135562D01*
X0191338Y0135518D01*
X0191320Y0135475D01*
X0191299Y0135434D01*
X0191274Y0135395D01*
X0191246Y0135357D01*
X0191215Y0135323D01*
X0191181Y0135290D01*
X0191145Y0135261D01*
X0191107Y0135234D01*
X0191067Y0135211D01*
X0191025Y0135191D01*
X0190981Y0135175D01*
X0190936Y0135162D01*
X0190891Y0135152D01*
X0190845Y0135147D01*
X0190798Y0135145D01*
X0190751Y0135147D01*
X0190705Y0135152D01*
X0190660Y0135162D01*
X0190615Y0135175D01*
X0190571Y0135191D01*
X0190529Y0135211D01*
X0190489Y0135234D01*
X0190451Y0135261D01*
X0190415Y0135290D01*
X0190381Y0135323D01*
X0190350Y0135357D01*
X0190322Y0135395D01*
X0190297Y0135434D01*
X0190276Y0135475D01*
X0190258Y0135518D01*
X0190243Y0135562D01*
X0190232Y0135607D01*
X0190224Y0135653D01*
X0190220Y0135700D01*
X0190220Y0135746D01*
X0190224Y0135793D01*
X0190232Y0135839D01*
X0190243Y0135884D01*
X0190258Y0135928D01*
X0190276Y0135971D01*
X0190297Y0136012D01*
X0190322Y0136051D01*
X0190350Y0136089D01*
X0190381Y0136123D01*
X0190415Y0136156D01*
X0190451Y0136185D01*
X0190489Y0136212D01*
X0190529Y0136235D01*
X0190571Y0136255D01*
X0190615Y0136271D01*
X0190660Y0136284D01*
X0190705Y0136294D01*
X0190751Y0136299D01*
X0190798Y0136301D01*
X0192098Y0136445D02*
X0192151Y0136443D01*
X0192203Y0136437D01*
X0192255Y0136428D01*
X0192306Y0136414D01*
X0192356Y0136397D01*
X0192404Y0136377D01*
X0192451Y0136353D01*
X0192496Y0136325D01*
X0192539Y0136294D01*
X0192580Y0136261D01*
X0192618Y0136224D01*
X0192653Y0136185D01*
X0192685Y0136143D01*
X0192714Y0136099D01*
X0192740Y0136053D01*
X0192762Y0136005D01*
X0192781Y0135956D01*
X0192797Y0135906D01*
X0192808Y0135854D01*
X0192816Y0135802D01*
X0192820Y0135749D01*
X0192820Y0135697D01*
X0192816Y0135644D01*
X0192808Y0135592D01*
X0192797Y0135540D01*
X0192781Y0135490D01*
X0192762Y0135441D01*
X0192740Y0135393D01*
X0192714Y0135347D01*
X0192685Y0135303D01*
X0192653Y0135261D01*
X0192618Y0135222D01*
X0192580Y0135185D01*
X0192539Y0135152D01*
X0192496Y0135121D01*
X0192451Y0135093D01*
X0192404Y0135069D01*
X0192356Y0135049D01*
X0192306Y0135032D01*
X0192255Y0135018D01*
X0192203Y0135009D01*
X0192151Y0135003D01*
X0192098Y0135001D01*
X0192045Y0135003D01*
X0191993Y0135009D01*
X0191941Y0135018D01*
X0191890Y0135032D01*
X0191840Y0135049D01*
X0191792Y0135069D01*
X0191745Y0135093D01*
X0191700Y0135121D01*
X0191657Y0135152D01*
X0191616Y0135185D01*
X0191578Y0135222D01*
X0191543Y0135261D01*
X0191511Y0135303D01*
X0191482Y0135347D01*
X0191456Y0135393D01*
X0191434Y0135441D01*
X0191415Y0135490D01*
X0191399Y0135540D01*
X0191388Y0135592D01*
X0191380Y0135644D01*
X0191376Y0135697D01*
X0191376Y0135749D01*
X0191380Y0135802D01*
X0191388Y0135854D01*
X0191399Y0135906D01*
X0191415Y0135956D01*
X0191434Y0136005D01*
X0191456Y0136053D01*
X0191482Y0136099D01*
X0191511Y0136143D01*
X0191543Y0136185D01*
X0191578Y0136224D01*
X0191616Y0136261D01*
X0191657Y0136294D01*
X0191700Y0136325D01*
X0191745Y0136353D01*
X0191792Y0136377D01*
X0191840Y0136397D01*
X0191890Y0136414D01*
X0191941Y0136428D01*
X0191993Y0136437D01*
X0192045Y0136443D01*
X0192098Y0136445D01*
X0192820Y0133596D02*
X0191665Y0133018D01*
X0191665Y0132874D02*
X0191665Y0132151D01*
X0191664Y0132874D02*
X0191662Y0132927D01*
X0191656Y0132979D01*
X0191647Y0133031D01*
X0191633Y0133082D01*
X0191616Y0133132D01*
X0191596Y0133180D01*
X0191572Y0133227D01*
X0191544Y0133272D01*
X0191513Y0133315D01*
X0191480Y0133356D01*
X0191443Y0133394D01*
X0191404Y0133429D01*
X0191362Y0133461D01*
X0191318Y0133490D01*
X0191272Y0133516D01*
X0191224Y0133538D01*
X0191175Y0133557D01*
X0191125Y0133573D01*
X0191073Y0133584D01*
X0191021Y0133592D01*
X0190968Y0133596D01*
X0190916Y0133596D01*
X0190863Y0133592D01*
X0190811Y0133584D01*
X0190759Y0133573D01*
X0190709Y0133557D01*
X0190660Y0133538D01*
X0190612Y0133516D01*
X0190566Y0133490D01*
X0190522Y0133461D01*
X0190480Y0133429D01*
X0190441Y0133394D01*
X0190404Y0133356D01*
X0190371Y0133315D01*
X0190340Y0133272D01*
X0190312Y0133227D01*
X0190288Y0133180D01*
X0190268Y0133132D01*
X0190251Y0133082D01*
X0190237Y0133031D01*
X0190228Y0132979D01*
X0190222Y0132927D01*
X0190220Y0132874D01*
X0190220Y0132151D01*
X0192820Y0132151D01*
X0199781Y0132794D02*
X0199781Y0133949D01*
X0199781Y0132794D02*
X0202381Y0132794D01*
X0202381Y0133949D01*
X0202381Y0135280D02*
X0202381Y0136003D01*
X0202379Y0136055D01*
X0202374Y0136106D01*
X0202365Y0136156D01*
X0202352Y0136206D01*
X0202335Y0136255D01*
X0202316Y0136303D01*
X0202293Y0136349D01*
X0202266Y0136393D01*
X0202237Y0136436D01*
X0202205Y0136476D01*
X0202170Y0136514D01*
X0202132Y0136549D01*
X0202092Y0136581D01*
X0202049Y0136610D01*
X0202005Y0136637D01*
X0201959Y0136660D01*
X0201911Y0136679D01*
X0201862Y0136696D01*
X0201812Y0136709D01*
X0201762Y0136718D01*
X0201711Y0136723D01*
X0201659Y0136725D01*
X0200503Y0136725D01*
X0200452Y0136723D01*
X0200400Y0136718D01*
X0200350Y0136709D01*
X0200300Y0136696D01*
X0200251Y0136679D01*
X0200203Y0136660D01*
X0200157Y0136637D01*
X0200113Y0136610D01*
X0200070Y0136581D01*
X0200030Y0136549D01*
X0199992Y0136514D01*
X0199957Y0136476D01*
X0199925Y0136436D01*
X0199896Y0136393D01*
X0199869Y0136349D01*
X0199846Y0136303D01*
X0199827Y0136255D01*
X0199810Y0136206D01*
X0199798Y0136156D01*
X0199788Y0136106D01*
X0199783Y0136055D01*
X0199781Y0136003D01*
X0199781Y0135280D01*
X0202381Y0135280D01*
X0200937Y0133661D02*
X0200937Y0132794D01*
X0202381Y0131453D02*
X0202381Y0130298D01*
X0199781Y0130298D01*
X0201803Y0138256D02*
X0201803Y0139701D01*
X0201226Y0139267D02*
X0202381Y0139267D01*
X0201803Y0138256D02*
X0199781Y0138834D01*
X0217729Y0135104D02*
X0220329Y0135104D01*
X0220329Y0134382D02*
X0220329Y0135826D01*
X0219968Y0138490D02*
X0219888Y0138527D01*
X0219806Y0138561D01*
X0219723Y0138591D01*
X0219639Y0138618D01*
X0219554Y0138642D01*
X0219468Y0138662D01*
X0219381Y0138678D01*
X0219293Y0138691D01*
X0219206Y0138700D01*
X0219117Y0138705D01*
X0219029Y0138707D01*
X0219029Y0137262D02*
X0218941Y0137264D01*
X0218852Y0137269D01*
X0218765Y0137278D01*
X0218677Y0137291D01*
X0218590Y0137307D01*
X0218504Y0137327D01*
X0218419Y0137351D01*
X0218335Y0137378D01*
X0218252Y0137408D01*
X0218170Y0137442D01*
X0218090Y0137479D01*
X0217729Y0137984D02*
X0217731Y0138028D01*
X0217736Y0138072D01*
X0217745Y0138115D01*
X0217758Y0138157D01*
X0217774Y0138199D01*
X0217793Y0138238D01*
X0217816Y0138276D01*
X0217842Y0138312D01*
X0217870Y0138346D01*
X0217901Y0138377D01*
X0217935Y0138406D01*
X0217971Y0138431D01*
X0218009Y0138454D01*
X0218049Y0138473D01*
X0218090Y0138489D01*
X0218307Y0138562D02*
X0219751Y0137406D01*
X0220328Y0137984D02*
X0220326Y0138028D01*
X0220321Y0138072D01*
X0220312Y0138115D01*
X0220299Y0138157D01*
X0220283Y0138199D01*
X0220264Y0138238D01*
X0220241Y0138276D01*
X0220215Y0138312D01*
X0220187Y0138346D01*
X0220156Y0138377D01*
X0220122Y0138405D01*
X0220086Y0138431D01*
X0220048Y0138454D01*
X0220008Y0138473D01*
X0219967Y0138489D01*
X0220328Y0137984D02*
X0220326Y0137940D01*
X0220321Y0137896D01*
X0220312Y0137853D01*
X0220299Y0137811D01*
X0220283Y0137769D01*
X0220264Y0137730D01*
X0220241Y0137692D01*
X0220215Y0137656D01*
X0220187Y0137622D01*
X0220156Y0137591D01*
X0220122Y0137563D01*
X0220086Y0137537D01*
X0220048Y0137514D01*
X0220008Y0137495D01*
X0219967Y0137479D01*
X0219029Y0138707D02*
X0218941Y0138705D01*
X0218852Y0138700D01*
X0218765Y0138691D01*
X0218677Y0138678D01*
X0218590Y0138662D01*
X0218504Y0138642D01*
X0218419Y0138618D01*
X0218335Y0138591D01*
X0218252Y0138561D01*
X0218170Y0138527D01*
X0218090Y0138490D01*
X0217729Y0137984D02*
X0217731Y0137940D01*
X0217736Y0137896D01*
X0217745Y0137853D01*
X0217758Y0137811D01*
X0217774Y0137769D01*
X0217793Y0137730D01*
X0217816Y0137692D01*
X0217842Y0137656D01*
X0217870Y0137622D01*
X0217901Y0137591D01*
X0217935Y0137563D01*
X0217971Y0137537D01*
X0218009Y0137514D01*
X0218049Y0137495D01*
X0218090Y0137479D01*
X0219029Y0137262D02*
X0219117Y0137264D01*
X0219206Y0137269D01*
X0219293Y0137278D01*
X0219381Y0137291D01*
X0219468Y0137307D01*
X0219554Y0137327D01*
X0219639Y0137351D01*
X0219723Y0137378D01*
X0219806Y0137408D01*
X0219888Y0137442D01*
X0219968Y0137479D01*
X0217729Y0135104D02*
X0218307Y0134382D01*
X0219173Y0132400D02*
X0220329Y0132978D01*
X0219173Y0132255D02*
X0219173Y0131533D01*
X0219173Y0132255D02*
X0219171Y0132308D01*
X0219165Y0132360D01*
X0219156Y0132412D01*
X0219142Y0132463D01*
X0219125Y0132513D01*
X0219105Y0132561D01*
X0219081Y0132608D01*
X0219053Y0132653D01*
X0219022Y0132696D01*
X0218989Y0132737D01*
X0218952Y0132775D01*
X0218913Y0132810D01*
X0218871Y0132842D01*
X0218827Y0132871D01*
X0218781Y0132897D01*
X0218733Y0132919D01*
X0218684Y0132938D01*
X0218634Y0132954D01*
X0218582Y0132965D01*
X0218530Y0132973D01*
X0218477Y0132977D01*
X0218425Y0132977D01*
X0218372Y0132973D01*
X0218320Y0132965D01*
X0218268Y0132954D01*
X0218218Y0132938D01*
X0218169Y0132919D01*
X0218121Y0132897D01*
X0218075Y0132871D01*
X0218031Y0132842D01*
X0217989Y0132810D01*
X0217950Y0132775D01*
X0217913Y0132737D01*
X0217880Y0132696D01*
X0217849Y0132653D01*
X0217821Y0132608D01*
X0217797Y0132561D01*
X0217777Y0132513D01*
X0217760Y0132463D01*
X0217746Y0132412D01*
X0217737Y0132360D01*
X0217731Y0132308D01*
X0217729Y0132255D01*
X0217729Y0131533D01*
X0220329Y0131533D01*
X0219676Y0121630D02*
X0219387Y0121630D01*
X0219342Y0121628D01*
X0219297Y0121623D01*
X0219252Y0121614D01*
X0219208Y0121602D01*
X0219166Y0121586D01*
X0219125Y0121567D01*
X0219085Y0121545D01*
X0219047Y0121520D01*
X0219012Y0121492D01*
X0218978Y0121461D01*
X0218947Y0121427D01*
X0218919Y0121392D01*
X0218894Y0121354D01*
X0218872Y0121314D01*
X0218853Y0121273D01*
X0218837Y0121231D01*
X0218825Y0121187D01*
X0218816Y0121142D01*
X0218811Y0121097D01*
X0218809Y0121052D01*
X0218809Y0120185D01*
X0217654Y0120185D01*
X0217654Y0121630D01*
X0219676Y0121630D02*
X0219724Y0121628D01*
X0219771Y0121622D01*
X0219818Y0121612D01*
X0219864Y0121599D01*
X0219908Y0121581D01*
X0219951Y0121560D01*
X0219992Y0121536D01*
X0220031Y0121508D01*
X0220067Y0121477D01*
X0220101Y0121443D01*
X0220132Y0121407D01*
X0220160Y0121368D01*
X0220184Y0121327D01*
X0220205Y0121284D01*
X0220223Y0121240D01*
X0220236Y0121194D01*
X0220246Y0121147D01*
X0220252Y0121100D01*
X0220254Y0121052D01*
X0220254Y0120185D01*
X0220254Y0118781D02*
X0219098Y0118203D01*
X0219098Y0118058D02*
X0219098Y0117336D01*
X0219098Y0118058D02*
X0219096Y0118111D01*
X0219090Y0118163D01*
X0219081Y0118215D01*
X0219067Y0118266D01*
X0219050Y0118316D01*
X0219030Y0118364D01*
X0219006Y0118411D01*
X0218978Y0118456D01*
X0218947Y0118499D01*
X0218914Y0118540D01*
X0218877Y0118578D01*
X0218838Y0118613D01*
X0218796Y0118645D01*
X0218752Y0118674D01*
X0218706Y0118700D01*
X0218658Y0118722D01*
X0218609Y0118741D01*
X0218559Y0118757D01*
X0218507Y0118768D01*
X0218455Y0118776D01*
X0218402Y0118780D01*
X0218350Y0118780D01*
X0218297Y0118776D01*
X0218245Y0118768D01*
X0218193Y0118757D01*
X0218143Y0118741D01*
X0218094Y0118722D01*
X0218046Y0118700D01*
X0218000Y0118674D01*
X0217956Y0118645D01*
X0217914Y0118613D01*
X0217875Y0118578D01*
X0217838Y0118540D01*
X0217805Y0118499D01*
X0217774Y0118456D01*
X0217746Y0118411D01*
X0217722Y0118364D01*
X0217702Y0118316D01*
X0217685Y0118266D01*
X0217671Y0118215D01*
X0217662Y0118163D01*
X0217656Y0118111D01*
X0217654Y0118058D01*
X0217654Y0117336D01*
X0220254Y0117336D01*
X0212997Y0112689D02*
X0211842Y0111245D01*
X0212419Y0110667D02*
X0212463Y0110669D01*
X0212507Y0110674D01*
X0212550Y0110683D01*
X0212592Y0110696D01*
X0212634Y0110712D01*
X0212673Y0110731D01*
X0212711Y0110754D01*
X0212747Y0110780D01*
X0212781Y0110808D01*
X0212812Y0110839D01*
X0212841Y0110873D01*
X0212866Y0110909D01*
X0212889Y0110947D01*
X0212908Y0110987D01*
X0212924Y0111028D01*
X0212419Y0110667D02*
X0212375Y0110669D01*
X0212331Y0110674D01*
X0212288Y0110683D01*
X0212246Y0110696D01*
X0212204Y0110712D01*
X0212165Y0110731D01*
X0212127Y0110754D01*
X0212091Y0110780D01*
X0212057Y0110808D01*
X0212026Y0110839D01*
X0211998Y0110873D01*
X0211972Y0110909D01*
X0211949Y0110947D01*
X0211930Y0110987D01*
X0211914Y0111028D01*
X0213142Y0111967D02*
X0213140Y0112055D01*
X0213135Y0112144D01*
X0213126Y0112231D01*
X0213113Y0112319D01*
X0213097Y0112406D01*
X0213077Y0112492D01*
X0213053Y0112577D01*
X0213026Y0112661D01*
X0212996Y0112744D01*
X0212962Y0112826D01*
X0212925Y0112906D01*
X0212924Y0112906D02*
X0212908Y0112947D01*
X0212889Y0112987D01*
X0212866Y0113025D01*
X0212841Y0113061D01*
X0212812Y0113095D01*
X0212781Y0113126D01*
X0212747Y0113154D01*
X0212711Y0113180D01*
X0212673Y0113203D01*
X0212634Y0113222D01*
X0212592Y0113238D01*
X0212550Y0113251D01*
X0212507Y0113260D01*
X0212463Y0113265D01*
X0212419Y0113267D01*
X0212419Y0113266D02*
X0212375Y0113264D01*
X0212331Y0113259D01*
X0212288Y0113250D01*
X0212246Y0113237D01*
X0212204Y0113221D01*
X0212165Y0113202D01*
X0212127Y0113179D01*
X0212091Y0113153D01*
X0212057Y0113125D01*
X0212026Y0113094D01*
X0211998Y0113060D01*
X0211972Y0113024D01*
X0211949Y0112986D01*
X0211930Y0112946D01*
X0211914Y0112905D01*
X0213142Y0111967D02*
X0213140Y0111879D01*
X0213135Y0111790D01*
X0213126Y0111703D01*
X0213113Y0111615D01*
X0213097Y0111528D01*
X0213077Y0111442D01*
X0213053Y0111357D01*
X0213026Y0111273D01*
X0212996Y0111190D01*
X0212962Y0111108D01*
X0212925Y0111028D01*
X0211697Y0111967D02*
X0211699Y0112055D01*
X0211704Y0112144D01*
X0211713Y0112231D01*
X0211726Y0112319D01*
X0211742Y0112406D01*
X0211762Y0112492D01*
X0211786Y0112577D01*
X0211813Y0112661D01*
X0211843Y0112744D01*
X0211877Y0112826D01*
X0211914Y0112906D01*
X0210045Y0112111D02*
X0208817Y0110667D01*
X0210262Y0110667D01*
X0208818Y0112689D02*
X0208836Y0112741D01*
X0208859Y0112792D01*
X0208884Y0112841D01*
X0208913Y0112888D01*
X0208944Y0112933D01*
X0208979Y0112976D01*
X0209016Y0113017D01*
X0209056Y0113055D01*
X0209099Y0113091D01*
X0209143Y0113123D01*
X0209190Y0113153D01*
X0209239Y0113179D01*
X0209289Y0113202D01*
X0209341Y0113222D01*
X0209394Y0113238D01*
X0209447Y0113251D01*
X0209502Y0113260D01*
X0209557Y0113265D01*
X0209612Y0113267D01*
X0209661Y0113265D01*
X0209709Y0113260D01*
X0209757Y0113251D01*
X0209804Y0113238D01*
X0209849Y0113222D01*
X0209894Y0113203D01*
X0209937Y0113180D01*
X0209978Y0113154D01*
X0210017Y0113125D01*
X0210054Y0113093D01*
X0210088Y0113059D01*
X0210120Y0113022D01*
X0210149Y0112983D01*
X0210175Y0112942D01*
X0210198Y0112899D01*
X0210217Y0112854D01*
X0210233Y0112809D01*
X0210246Y0112762D01*
X0210255Y0112714D01*
X0210260Y0112666D01*
X0210262Y0112617D01*
X0210261Y0112617D02*
X0210259Y0112566D01*
X0210253Y0112515D01*
X0210244Y0112464D01*
X0210231Y0112414D01*
X0210214Y0112366D01*
X0210194Y0112319D01*
X0210170Y0112273D01*
X0210143Y0112229D01*
X0210113Y0112188D01*
X0210080Y0112148D01*
X0210044Y0112112D01*
X0207413Y0110667D02*
X0206835Y0111822D01*
X0206690Y0111822D02*
X0205968Y0111822D01*
X0206690Y0111823D02*
X0206743Y0111825D01*
X0206795Y0111831D01*
X0206847Y0111840D01*
X0206898Y0111854D01*
X0206948Y0111871D01*
X0206996Y0111891D01*
X0207043Y0111915D01*
X0207088Y0111943D01*
X0207131Y0111974D01*
X0207172Y0112007D01*
X0207210Y0112044D01*
X0207245Y0112083D01*
X0207277Y0112125D01*
X0207306Y0112169D01*
X0207332Y0112215D01*
X0207354Y0112263D01*
X0207373Y0112312D01*
X0207389Y0112362D01*
X0207400Y0112414D01*
X0207408Y0112466D01*
X0207412Y0112519D01*
X0207412Y0112571D01*
X0207408Y0112624D01*
X0207400Y0112676D01*
X0207389Y0112728D01*
X0207373Y0112778D01*
X0207354Y0112827D01*
X0207332Y0112875D01*
X0207306Y0112921D01*
X0207277Y0112965D01*
X0207245Y0113007D01*
X0207210Y0113046D01*
X0207172Y0113083D01*
X0207131Y0113116D01*
X0207088Y0113147D01*
X0207043Y0113175D01*
X0206996Y0113199D01*
X0206948Y0113219D01*
X0206898Y0113236D01*
X0206847Y0113250D01*
X0206795Y0113259D01*
X0206743Y0113265D01*
X0206690Y0113267D01*
X0205968Y0113267D01*
X0205968Y0110667D01*
X0211697Y0111967D02*
X0211699Y0111879D01*
X0211704Y0111790D01*
X0211713Y0111703D01*
X0211726Y0111615D01*
X0211742Y0111528D01*
X0211762Y0111442D01*
X0211786Y0111357D01*
X0211813Y0111273D01*
X0211843Y0111190D01*
X0211877Y0111108D01*
X0211914Y0111028D01*
X0197113Y0111677D02*
X0195958Y0111677D01*
X0196536Y0112110D02*
X0196536Y0110666D01*
X0194513Y0111244D01*
X0194513Y0109134D02*
X0196391Y0109134D01*
X0196444Y0109132D01*
X0196496Y0109126D01*
X0196548Y0109117D01*
X0196599Y0109103D01*
X0196649Y0109086D01*
X0196697Y0109066D01*
X0196744Y0109042D01*
X0196789Y0109014D01*
X0196832Y0108983D01*
X0196873Y0108950D01*
X0196911Y0108913D01*
X0196946Y0108874D01*
X0196978Y0108832D01*
X0197007Y0108788D01*
X0197033Y0108742D01*
X0197055Y0108694D01*
X0197074Y0108645D01*
X0197090Y0108595D01*
X0197101Y0108543D01*
X0197109Y0108491D01*
X0197113Y0108438D01*
X0197113Y0108386D01*
X0197109Y0108333D01*
X0197101Y0108281D01*
X0197090Y0108229D01*
X0197074Y0108179D01*
X0197055Y0108130D01*
X0197033Y0108082D01*
X0197007Y0108036D01*
X0196978Y0107992D01*
X0196946Y0107950D01*
X0196911Y0107911D01*
X0196873Y0107874D01*
X0196832Y0107841D01*
X0196789Y0107810D01*
X0196744Y0107782D01*
X0196697Y0107758D01*
X0196649Y0107738D01*
X0196599Y0107721D01*
X0196548Y0107707D01*
X0196496Y0107698D01*
X0196444Y0107692D01*
X0196391Y0107690D01*
X0194513Y0107690D01*
X0189905Y0119210D02*
X0188460Y0119210D01*
X0189183Y0119210D02*
X0189183Y0121810D01*
X0188460Y0121232D01*
X0187210Y0121088D02*
X0187210Y0119932D01*
X0186921Y0119788D02*
X0187499Y0119210D01*
X0187210Y0119932D02*
X0187208Y0119879D01*
X0187202Y0119827D01*
X0187193Y0119775D01*
X0187179Y0119724D01*
X0187162Y0119674D01*
X0187142Y0119626D01*
X0187118Y0119579D01*
X0187090Y0119534D01*
X0187059Y0119491D01*
X0187026Y0119450D01*
X0186989Y0119412D01*
X0186950Y0119377D01*
X0186908Y0119345D01*
X0186864Y0119316D01*
X0186818Y0119290D01*
X0186770Y0119268D01*
X0186721Y0119249D01*
X0186671Y0119233D01*
X0186619Y0119222D01*
X0186567Y0119214D01*
X0186514Y0119210D01*
X0186462Y0119210D01*
X0186409Y0119214D01*
X0186357Y0119222D01*
X0186305Y0119233D01*
X0186255Y0119249D01*
X0186206Y0119268D01*
X0186158Y0119290D01*
X0186112Y0119316D01*
X0186068Y0119345D01*
X0186026Y0119377D01*
X0185987Y0119412D01*
X0185950Y0119450D01*
X0185917Y0119491D01*
X0185886Y0119534D01*
X0185858Y0119579D01*
X0185834Y0119626D01*
X0185814Y0119674D01*
X0185797Y0119724D01*
X0185783Y0119775D01*
X0185774Y0119827D01*
X0185768Y0119879D01*
X0185766Y0119932D01*
X0185765Y0119932D02*
X0185765Y0121088D01*
X0185766Y0121088D02*
X0185768Y0121141D01*
X0185774Y0121193D01*
X0185783Y0121245D01*
X0185797Y0121296D01*
X0185814Y0121346D01*
X0185834Y0121394D01*
X0185858Y0121441D01*
X0185886Y0121486D01*
X0185917Y0121529D01*
X0185950Y0121570D01*
X0185987Y0121608D01*
X0186026Y0121643D01*
X0186068Y0121675D01*
X0186112Y0121704D01*
X0186158Y0121730D01*
X0186206Y0121752D01*
X0186255Y0121771D01*
X0186305Y0121787D01*
X0186357Y0121798D01*
X0186409Y0121806D01*
X0186462Y0121810D01*
X0186514Y0121810D01*
X0186567Y0121806D01*
X0186619Y0121798D01*
X0186671Y0121787D01*
X0186721Y0121771D01*
X0186770Y0121752D01*
X0186818Y0121730D01*
X0186864Y0121704D01*
X0186908Y0121675D01*
X0186950Y0121643D01*
X0186989Y0121608D01*
X0187026Y0121570D01*
X0187059Y0121529D01*
X0187090Y0121486D01*
X0187118Y0121441D01*
X0187142Y0121394D01*
X0187162Y0121346D01*
X0187179Y0121296D01*
X0187193Y0121245D01*
X0187202Y0121193D01*
X0187208Y0121141D01*
X0187210Y0121088D01*
X0170660Y0115516D02*
X0169794Y0115516D01*
X0170660Y0115516D02*
X0170707Y0115514D01*
X0170753Y0115509D01*
X0170798Y0115499D01*
X0170843Y0115486D01*
X0170887Y0115470D01*
X0170929Y0115450D01*
X0170969Y0115427D01*
X0171007Y0115400D01*
X0171043Y0115371D01*
X0171077Y0115338D01*
X0171108Y0115304D01*
X0171136Y0115266D01*
X0171161Y0115227D01*
X0171182Y0115186D01*
X0171200Y0115143D01*
X0171215Y0115099D01*
X0171226Y0115054D01*
X0171234Y0115008D01*
X0171238Y0114961D01*
X0171238Y0114915D01*
X0171234Y0114868D01*
X0171226Y0114822D01*
X0171215Y0114777D01*
X0171200Y0114733D01*
X0171182Y0114690D01*
X0171161Y0114649D01*
X0171136Y0114610D01*
X0171108Y0114572D01*
X0171077Y0114538D01*
X0171043Y0114505D01*
X0171007Y0114476D01*
X0170969Y0114449D01*
X0170929Y0114426D01*
X0170887Y0114406D01*
X0170843Y0114390D01*
X0170798Y0114377D01*
X0170753Y0114367D01*
X0170707Y0114362D01*
X0170660Y0114360D01*
X0170083Y0114360D01*
X0170516Y0114360D02*
X0170569Y0114358D01*
X0170621Y0114352D01*
X0170673Y0114343D01*
X0170724Y0114329D01*
X0170774Y0114312D01*
X0170822Y0114292D01*
X0170869Y0114268D01*
X0170914Y0114240D01*
X0170957Y0114209D01*
X0170998Y0114176D01*
X0171036Y0114139D01*
X0171071Y0114100D01*
X0171103Y0114058D01*
X0171132Y0114014D01*
X0171158Y0113968D01*
X0171180Y0113920D01*
X0171199Y0113871D01*
X0171215Y0113821D01*
X0171226Y0113769D01*
X0171234Y0113717D01*
X0171238Y0113664D01*
X0171238Y0113612D01*
X0171234Y0113559D01*
X0171226Y0113507D01*
X0171215Y0113455D01*
X0171199Y0113405D01*
X0171180Y0113356D01*
X0171158Y0113308D01*
X0171132Y0113262D01*
X0171103Y0113218D01*
X0171071Y0113176D01*
X0171036Y0113137D01*
X0170998Y0113100D01*
X0170957Y0113067D01*
X0170914Y0113036D01*
X0170869Y0113008D01*
X0170822Y0112984D01*
X0170774Y0112964D01*
X0170724Y0112947D01*
X0170673Y0112933D01*
X0170621Y0112924D01*
X0170569Y0112918D01*
X0170516Y0112916D01*
X0169794Y0112916D01*
X0168358Y0112916D02*
X0166914Y0112916D01*
X0167636Y0112916D02*
X0167636Y0115516D01*
X0166914Y0114938D01*
X0164787Y0115516D02*
X0164840Y0115514D01*
X0164892Y0115508D01*
X0164944Y0115499D01*
X0164995Y0115485D01*
X0165045Y0115468D01*
X0165093Y0115448D01*
X0165140Y0115424D01*
X0165185Y0115396D01*
X0165228Y0115365D01*
X0165269Y0115332D01*
X0165307Y0115295D01*
X0165342Y0115256D01*
X0165374Y0115214D01*
X0165403Y0115170D01*
X0165429Y0115124D01*
X0165451Y0115076D01*
X0165470Y0115027D01*
X0165486Y0114977D01*
X0165497Y0114925D01*
X0165505Y0114873D01*
X0165509Y0114820D01*
X0165509Y0114768D01*
X0165505Y0114715D01*
X0165497Y0114663D01*
X0165486Y0114611D01*
X0165470Y0114561D01*
X0165451Y0114512D01*
X0165429Y0114464D01*
X0165403Y0114418D01*
X0165374Y0114374D01*
X0165342Y0114332D01*
X0165307Y0114293D01*
X0165269Y0114256D01*
X0165228Y0114223D01*
X0165185Y0114192D01*
X0165140Y0114164D01*
X0165093Y0114140D01*
X0165045Y0114120D01*
X0164995Y0114103D01*
X0164944Y0114089D01*
X0164892Y0114080D01*
X0164840Y0114074D01*
X0164787Y0114072D01*
X0164787Y0114071D02*
X0164065Y0114071D01*
X0164931Y0114071D02*
X0165509Y0112916D01*
X0164065Y0112916D02*
X0164065Y0115516D01*
X0164787Y0115516D01*
X0152980Y0117260D02*
X0151536Y0117260D01*
X0152764Y0118705D01*
X0152330Y0119860D02*
X0152275Y0119858D01*
X0152220Y0119853D01*
X0152165Y0119844D01*
X0152112Y0119831D01*
X0152059Y0119815D01*
X0152007Y0119795D01*
X0151957Y0119772D01*
X0151908Y0119746D01*
X0151861Y0119716D01*
X0151817Y0119684D01*
X0151774Y0119648D01*
X0151734Y0119610D01*
X0151697Y0119569D01*
X0151662Y0119526D01*
X0151631Y0119481D01*
X0151602Y0119434D01*
X0151577Y0119385D01*
X0151554Y0119334D01*
X0151536Y0119282D01*
X0152763Y0118705D02*
X0152799Y0118741D01*
X0152832Y0118781D01*
X0152862Y0118822D01*
X0152889Y0118866D01*
X0152913Y0118912D01*
X0152933Y0118959D01*
X0152950Y0119007D01*
X0152963Y0119057D01*
X0152972Y0119108D01*
X0152978Y0119159D01*
X0152980Y0119210D01*
X0152978Y0119259D01*
X0152973Y0119307D01*
X0152964Y0119355D01*
X0152951Y0119402D01*
X0152935Y0119447D01*
X0152916Y0119492D01*
X0152893Y0119535D01*
X0152867Y0119576D01*
X0152838Y0119615D01*
X0152806Y0119652D01*
X0152772Y0119686D01*
X0152735Y0119718D01*
X0152696Y0119747D01*
X0152655Y0119773D01*
X0152612Y0119796D01*
X0152567Y0119815D01*
X0152522Y0119831D01*
X0152475Y0119844D01*
X0152427Y0119853D01*
X0152379Y0119858D01*
X0152330Y0119860D01*
X0149378Y0119860D02*
X0149378Y0117260D01*
X0148656Y0117260D02*
X0150100Y0117260D01*
X0148656Y0119282D02*
X0149378Y0119860D01*
X0146529Y0119860D02*
X0145807Y0119860D01*
X0145807Y0117260D01*
X0145807Y0118416D02*
X0146529Y0118416D01*
X0146674Y0118416D02*
X0147251Y0117260D01*
X0146529Y0118416D02*
X0146582Y0118418D01*
X0146634Y0118424D01*
X0146686Y0118433D01*
X0146737Y0118447D01*
X0146787Y0118464D01*
X0146835Y0118484D01*
X0146882Y0118508D01*
X0146927Y0118536D01*
X0146970Y0118567D01*
X0147011Y0118600D01*
X0147049Y0118637D01*
X0147084Y0118676D01*
X0147116Y0118718D01*
X0147145Y0118762D01*
X0147171Y0118808D01*
X0147193Y0118856D01*
X0147212Y0118905D01*
X0147228Y0118955D01*
X0147239Y0119007D01*
X0147247Y0119059D01*
X0147251Y0119112D01*
X0147251Y0119164D01*
X0147247Y0119217D01*
X0147239Y0119269D01*
X0147228Y0119321D01*
X0147212Y0119371D01*
X0147193Y0119420D01*
X0147171Y0119468D01*
X0147145Y0119514D01*
X0147116Y0119558D01*
X0147084Y0119600D01*
X0147049Y0119639D01*
X0147011Y0119676D01*
X0146970Y0119709D01*
X0146927Y0119740D01*
X0146882Y0119768D01*
X0146835Y0119792D01*
X0146787Y0119812D01*
X0146737Y0119829D01*
X0146686Y0119843D01*
X0146634Y0119852D01*
X0146582Y0119858D01*
X0146529Y0119860D01*
X0146232Y0132976D02*
X0144788Y0132976D01*
X0144740Y0132978D01*
X0144693Y0132984D01*
X0144646Y0132994D01*
X0144600Y0133007D01*
X0144556Y0133025D01*
X0144513Y0133046D01*
X0144472Y0133070D01*
X0144433Y0133098D01*
X0144397Y0133129D01*
X0144363Y0133163D01*
X0144332Y0133199D01*
X0144304Y0133238D01*
X0144280Y0133279D01*
X0144259Y0133322D01*
X0144241Y0133366D01*
X0144228Y0133412D01*
X0144218Y0133459D01*
X0144212Y0133506D01*
X0144210Y0133554D01*
X0144210Y0134132D01*
X0144788Y0135390D02*
X0144210Y0136112D01*
X0146810Y0136112D01*
X0146810Y0135390D02*
X0146810Y0136835D01*
X0146810Y0134132D02*
X0146810Y0133554D01*
X0146808Y0133506D01*
X0146802Y0133459D01*
X0146792Y0133412D01*
X0146779Y0133366D01*
X0146761Y0133322D01*
X0146740Y0133279D01*
X0146716Y0133238D01*
X0146688Y0133199D01*
X0146657Y0133163D01*
X0146623Y0133129D01*
X0146587Y0133098D01*
X0146548Y0133070D01*
X0146507Y0133046D01*
X0146464Y0133025D01*
X0146420Y0133007D01*
X0146374Y0132994D01*
X0146327Y0132984D01*
X0146280Y0132978D01*
X0146232Y0132976D01*
X0124919Y0105736D02*
X0124631Y0105736D01*
X0124586Y0105734D01*
X0124541Y0105729D01*
X0124496Y0105720D01*
X0124452Y0105708D01*
X0124410Y0105692D01*
X0124369Y0105673D01*
X0124329Y0105651D01*
X0124291Y0105626D01*
X0124256Y0105598D01*
X0124222Y0105567D01*
X0124191Y0105533D01*
X0124163Y0105498D01*
X0124138Y0105460D01*
X0124116Y0105420D01*
X0124097Y0105379D01*
X0124081Y0105337D01*
X0124069Y0105293D01*
X0124060Y0105248D01*
X0124055Y0105203D01*
X0124053Y0105158D01*
X0124053Y0104292D01*
X0122897Y0104292D01*
X0122897Y0105736D01*
X0124919Y0105736D02*
X0124967Y0105734D01*
X0125014Y0105728D01*
X0125061Y0105718D01*
X0125107Y0105705D01*
X0125151Y0105687D01*
X0125194Y0105666D01*
X0125235Y0105642D01*
X0125274Y0105614D01*
X0125310Y0105583D01*
X0125344Y0105549D01*
X0125375Y0105513D01*
X0125403Y0105474D01*
X0125427Y0105433D01*
X0125448Y0105390D01*
X0125466Y0105346D01*
X0125479Y0105300D01*
X0125489Y0105253D01*
X0125495Y0105206D01*
X0125497Y0105158D01*
X0125497Y0104292D01*
X0125497Y0103033D02*
X0125497Y0102456D01*
X0125495Y0102408D01*
X0125489Y0102361D01*
X0125479Y0102314D01*
X0125466Y0102268D01*
X0125448Y0102224D01*
X0125427Y0102181D01*
X0125403Y0102140D01*
X0125375Y0102101D01*
X0125344Y0102065D01*
X0125310Y0102031D01*
X0125274Y0102000D01*
X0125235Y0101972D01*
X0125194Y0101948D01*
X0125151Y0101927D01*
X0125107Y0101909D01*
X0125061Y0101896D01*
X0125014Y0101886D01*
X0124967Y0101880D01*
X0124919Y0101878D01*
X0123475Y0101878D01*
X0123427Y0101880D01*
X0123380Y0101886D01*
X0123333Y0101896D01*
X0123287Y0101909D01*
X0123243Y0101927D01*
X0123200Y0101948D01*
X0123159Y0101972D01*
X0123120Y0102000D01*
X0123084Y0102031D01*
X0123050Y0102065D01*
X0123019Y0102101D01*
X0122991Y0102140D01*
X0122967Y0102181D01*
X0122946Y0102224D01*
X0122928Y0102268D01*
X0122915Y0102314D01*
X0122905Y0102361D01*
X0122899Y0102408D01*
X0122897Y0102456D01*
X0122897Y0103033D01*
X0117873Y0102792D02*
X0117873Y0104236D01*
X0117873Y0102792D02*
X0116429Y0104020D01*
X0115273Y0103586D02*
X0115275Y0103531D01*
X0115280Y0103476D01*
X0115289Y0103421D01*
X0115302Y0103368D01*
X0115318Y0103315D01*
X0115338Y0103263D01*
X0115361Y0103213D01*
X0115387Y0103164D01*
X0115417Y0103117D01*
X0115449Y0103073D01*
X0115485Y0103030D01*
X0115523Y0102990D01*
X0115564Y0102953D01*
X0115607Y0102918D01*
X0115652Y0102887D01*
X0115699Y0102858D01*
X0115748Y0102833D01*
X0115799Y0102810D01*
X0115851Y0102792D01*
X0116428Y0104019D02*
X0116392Y0104055D01*
X0116352Y0104088D01*
X0116311Y0104118D01*
X0116267Y0104145D01*
X0116221Y0104169D01*
X0116174Y0104189D01*
X0116126Y0104206D01*
X0116076Y0104219D01*
X0116025Y0104228D01*
X0115974Y0104234D01*
X0115923Y0104236D01*
X0115874Y0104234D01*
X0115826Y0104229D01*
X0115778Y0104220D01*
X0115731Y0104207D01*
X0115686Y0104191D01*
X0115641Y0104172D01*
X0115598Y0104149D01*
X0115557Y0104123D01*
X0115518Y0104094D01*
X0115481Y0104062D01*
X0115447Y0104028D01*
X0115415Y0103991D01*
X0115386Y0103952D01*
X0115360Y0103911D01*
X0115337Y0103868D01*
X0115318Y0103823D01*
X0115302Y0103778D01*
X0115289Y0103731D01*
X0115280Y0103683D01*
X0115275Y0103635D01*
X0115273Y0103586D01*
X0115273Y0101533D02*
X0115273Y0100956D01*
X0115275Y0100908D01*
X0115281Y0100861D01*
X0115291Y0100814D01*
X0115304Y0100768D01*
X0115322Y0100724D01*
X0115343Y0100681D01*
X0115367Y0100640D01*
X0115395Y0100601D01*
X0115426Y0100565D01*
X0115460Y0100531D01*
X0115496Y0100500D01*
X0115535Y0100472D01*
X0115576Y0100448D01*
X0115619Y0100427D01*
X0115663Y0100409D01*
X0115709Y0100396D01*
X0115756Y0100386D01*
X0115803Y0100380D01*
X0115851Y0100378D01*
X0117295Y0100378D01*
X0117343Y0100380D01*
X0117390Y0100386D01*
X0117437Y0100396D01*
X0117483Y0100409D01*
X0117527Y0100427D01*
X0117570Y0100448D01*
X0117611Y0100472D01*
X0117650Y0100500D01*
X0117686Y0100531D01*
X0117720Y0100565D01*
X0117751Y0100601D01*
X0117779Y0100640D01*
X0117803Y0100681D01*
X0117824Y0100724D01*
X0117842Y0100768D01*
X0117855Y0100814D01*
X0117865Y0100861D01*
X0117871Y0100908D01*
X0117873Y0100956D01*
X0117873Y0101533D01*
X0113426Y0100963D02*
X0112559Y0100963D01*
X0113426Y0100963D02*
X0113473Y0100961D01*
X0113519Y0100956D01*
X0113564Y0100946D01*
X0113609Y0100933D01*
X0113653Y0100917D01*
X0113695Y0100897D01*
X0113735Y0100874D01*
X0113773Y0100847D01*
X0113809Y0100818D01*
X0113843Y0100785D01*
X0113874Y0100751D01*
X0113902Y0100713D01*
X0113927Y0100674D01*
X0113948Y0100633D01*
X0113966Y0100590D01*
X0113981Y0100546D01*
X0113992Y0100501D01*
X0114000Y0100455D01*
X0114004Y0100408D01*
X0114004Y0100362D01*
X0114000Y0100315D01*
X0113992Y0100269D01*
X0113981Y0100224D01*
X0113966Y0100180D01*
X0113948Y0100137D01*
X0113927Y0100096D01*
X0113902Y0100057D01*
X0113874Y0100019D01*
X0113843Y0099985D01*
X0113809Y0099952D01*
X0113773Y0099923D01*
X0113735Y0099896D01*
X0113695Y0099873D01*
X0113653Y0099853D01*
X0113609Y0099837D01*
X0113564Y0099824D01*
X0113519Y0099814D01*
X0113473Y0099809D01*
X0113426Y0099807D01*
X0112848Y0099807D01*
X0113282Y0099807D02*
X0113335Y0099805D01*
X0113387Y0099799D01*
X0113439Y0099790D01*
X0113490Y0099776D01*
X0113540Y0099759D01*
X0113588Y0099739D01*
X0113635Y0099715D01*
X0113680Y0099687D01*
X0113723Y0099656D01*
X0113764Y0099623D01*
X0113802Y0099586D01*
X0113837Y0099547D01*
X0113869Y0099505D01*
X0113898Y0099461D01*
X0113924Y0099415D01*
X0113946Y0099367D01*
X0113965Y0099318D01*
X0113981Y0099268D01*
X0113992Y0099216D01*
X0114000Y0099164D01*
X0114004Y0099111D01*
X0114004Y0099059D01*
X0114000Y0099006D01*
X0113992Y0098954D01*
X0113981Y0098902D01*
X0113965Y0098852D01*
X0113946Y0098803D01*
X0113924Y0098755D01*
X0113898Y0098709D01*
X0113869Y0098665D01*
X0113837Y0098623D01*
X0113802Y0098584D01*
X0113764Y0098547D01*
X0113723Y0098514D01*
X0113680Y0098483D01*
X0113635Y0098455D01*
X0113588Y0098431D01*
X0113540Y0098411D01*
X0113490Y0098394D01*
X0113439Y0098380D01*
X0113387Y0098371D01*
X0113335Y0098365D01*
X0113282Y0098363D01*
X0112559Y0098363D01*
X0111155Y0098363D02*
X0110577Y0099518D01*
X0110433Y0099518D02*
X0109711Y0099518D01*
X0110433Y0099518D02*
X0110486Y0099520D01*
X0110538Y0099526D01*
X0110590Y0099535D01*
X0110641Y0099549D01*
X0110691Y0099566D01*
X0110739Y0099586D01*
X0110786Y0099610D01*
X0110831Y0099638D01*
X0110874Y0099669D01*
X0110915Y0099702D01*
X0110953Y0099739D01*
X0110988Y0099778D01*
X0111020Y0099820D01*
X0111049Y0099864D01*
X0111075Y0099910D01*
X0111097Y0099958D01*
X0111116Y0100007D01*
X0111132Y0100057D01*
X0111143Y0100109D01*
X0111151Y0100161D01*
X0111155Y0100214D01*
X0111155Y0100266D01*
X0111151Y0100319D01*
X0111143Y0100371D01*
X0111132Y0100423D01*
X0111116Y0100473D01*
X0111097Y0100522D01*
X0111075Y0100570D01*
X0111049Y0100616D01*
X0111020Y0100660D01*
X0110988Y0100702D01*
X0110953Y0100741D01*
X0110915Y0100778D01*
X0110874Y0100811D01*
X0110831Y0100842D01*
X0110786Y0100870D01*
X0110739Y0100894D01*
X0110691Y0100914D01*
X0110641Y0100931D01*
X0110590Y0100945D01*
X0110538Y0100954D01*
X0110486Y0100960D01*
X0110433Y0100962D01*
X0110433Y0100963D02*
X0109711Y0100963D01*
X0109711Y0098363D01*
X0107808Y0100603D02*
X0105931Y0100603D01*
X0105931Y0102048D02*
X0107808Y0102048D01*
X0107808Y0102047D02*
X0107861Y0102045D01*
X0107913Y0102039D01*
X0107965Y0102030D01*
X0108016Y0102016D01*
X0108066Y0101999D01*
X0108114Y0101979D01*
X0108161Y0101955D01*
X0108206Y0101927D01*
X0108249Y0101896D01*
X0108290Y0101863D01*
X0108328Y0101826D01*
X0108363Y0101787D01*
X0108395Y0101745D01*
X0108424Y0101701D01*
X0108450Y0101655D01*
X0108472Y0101607D01*
X0108491Y0101558D01*
X0108507Y0101508D01*
X0108518Y0101456D01*
X0108526Y0101404D01*
X0108530Y0101351D01*
X0108530Y0101299D01*
X0108526Y0101246D01*
X0108518Y0101194D01*
X0108507Y0101142D01*
X0108491Y0101092D01*
X0108472Y0101043D01*
X0108450Y0100995D01*
X0108424Y0100949D01*
X0108395Y0100905D01*
X0108363Y0100863D01*
X0108328Y0100824D01*
X0108290Y0100787D01*
X0108249Y0100754D01*
X0108206Y0100723D01*
X0108161Y0100695D01*
X0108114Y0100671D01*
X0108066Y0100651D01*
X0108016Y0100634D01*
X0107965Y0100620D01*
X0107913Y0100611D01*
X0107861Y0100605D01*
X0107808Y0100603D01*
X0108531Y0103579D02*
X0108531Y0105024D01*
X0108531Y0104301D02*
X0105931Y0104301D01*
X0106508Y0103579D01*
X0063767Y0123799D02*
X0063767Y0124155D01*
X0063411Y0124155D01*
X0063411Y0123799D01*
X0063767Y0123799D01*
X0136482Y0032852D02*
X0137204Y0032852D01*
X0136482Y0032852D02*
X0136482Y0030252D01*
X0136482Y0031408D02*
X0137204Y0031408D01*
X0137349Y0031408D02*
X0137927Y0030252D01*
X0139331Y0030975D02*
X0139331Y0031697D01*
X0140198Y0031697D01*
X0139331Y0031697D02*
X0139333Y0031764D01*
X0139339Y0031831D01*
X0139349Y0031898D01*
X0139362Y0031964D01*
X0139380Y0032029D01*
X0139401Y0032092D01*
X0139426Y0032155D01*
X0139454Y0032216D01*
X0139486Y0032275D01*
X0139521Y0032332D01*
X0139560Y0032387D01*
X0139601Y0032440D01*
X0139646Y0032490D01*
X0139694Y0032538D01*
X0139744Y0032583D01*
X0139797Y0032624D01*
X0139852Y0032663D01*
X0139909Y0032698D01*
X0139968Y0032730D01*
X0140029Y0032758D01*
X0140092Y0032783D01*
X0140155Y0032804D01*
X0140220Y0032822D01*
X0140286Y0032835D01*
X0140353Y0032845D01*
X0140420Y0032851D01*
X0140487Y0032853D01*
X0140776Y0031119D02*
X0140776Y0030975D01*
X0140776Y0031119D02*
X0140774Y0031164D01*
X0140769Y0031209D01*
X0140760Y0031254D01*
X0140748Y0031298D01*
X0140732Y0031340D01*
X0140713Y0031381D01*
X0140691Y0031421D01*
X0140666Y0031459D01*
X0140638Y0031494D01*
X0140607Y0031528D01*
X0140573Y0031559D01*
X0140538Y0031587D01*
X0140500Y0031612D01*
X0140460Y0031634D01*
X0140419Y0031653D01*
X0140377Y0031669D01*
X0140333Y0031681D01*
X0140288Y0031690D01*
X0140243Y0031695D01*
X0140198Y0031697D01*
X0140775Y0030975D02*
X0140773Y0030922D01*
X0140767Y0030870D01*
X0140758Y0030818D01*
X0140744Y0030767D01*
X0140727Y0030717D01*
X0140707Y0030669D01*
X0140683Y0030622D01*
X0140655Y0030577D01*
X0140624Y0030534D01*
X0140591Y0030493D01*
X0140554Y0030455D01*
X0140515Y0030420D01*
X0140473Y0030388D01*
X0140429Y0030359D01*
X0140383Y0030333D01*
X0140335Y0030311D01*
X0140286Y0030292D01*
X0140236Y0030276D01*
X0140184Y0030265D01*
X0140132Y0030257D01*
X0140079Y0030253D01*
X0140027Y0030253D01*
X0139974Y0030257D01*
X0139922Y0030265D01*
X0139870Y0030276D01*
X0139820Y0030292D01*
X0139771Y0030311D01*
X0139723Y0030333D01*
X0139677Y0030359D01*
X0139633Y0030388D01*
X0139591Y0030420D01*
X0139552Y0030455D01*
X0139515Y0030493D01*
X0139482Y0030534D01*
X0139451Y0030577D01*
X0139423Y0030622D01*
X0139399Y0030669D01*
X0139379Y0030717D01*
X0139362Y0030767D01*
X0139348Y0030818D01*
X0139339Y0030870D01*
X0139333Y0030922D01*
X0139331Y0030975D01*
X0137204Y0031408D02*
X0137257Y0031410D01*
X0137309Y0031416D01*
X0137361Y0031425D01*
X0137412Y0031439D01*
X0137462Y0031456D01*
X0137510Y0031476D01*
X0137557Y0031500D01*
X0137602Y0031528D01*
X0137645Y0031559D01*
X0137686Y0031592D01*
X0137724Y0031629D01*
X0137759Y0031668D01*
X0137791Y0031710D01*
X0137820Y0031754D01*
X0137846Y0031800D01*
X0137868Y0031848D01*
X0137887Y0031897D01*
X0137903Y0031947D01*
X0137914Y0031999D01*
X0137922Y0032051D01*
X0137926Y0032104D01*
X0137926Y0032156D01*
X0137922Y0032209D01*
X0137914Y0032261D01*
X0137903Y0032313D01*
X0137887Y0032363D01*
X0137868Y0032412D01*
X0137846Y0032460D01*
X0137820Y0032506D01*
X0137791Y0032550D01*
X0137759Y0032592D01*
X0137724Y0032631D01*
X0137686Y0032668D01*
X0137645Y0032701D01*
X0137602Y0032732D01*
X0137557Y0032760D01*
X0137510Y0032784D01*
X0137462Y0032804D01*
X0137412Y0032821D01*
X0137361Y0032835D01*
X0137309Y0032844D01*
X0137257Y0032850D01*
X0137204Y0032852D01*
X0148293Y0033246D02*
X0148293Y0030646D01*
X0148293Y0031802D02*
X0149015Y0031802D01*
X0149160Y0031802D02*
X0149738Y0030646D01*
X0149015Y0031802D02*
X0149068Y0031804D01*
X0149120Y0031810D01*
X0149172Y0031819D01*
X0149223Y0031833D01*
X0149273Y0031850D01*
X0149321Y0031870D01*
X0149368Y0031894D01*
X0149413Y0031922D01*
X0149456Y0031953D01*
X0149497Y0031986D01*
X0149535Y0032023D01*
X0149570Y0032062D01*
X0149602Y0032104D01*
X0149631Y0032148D01*
X0149657Y0032194D01*
X0149679Y0032242D01*
X0149698Y0032291D01*
X0149714Y0032341D01*
X0149725Y0032393D01*
X0149733Y0032445D01*
X0149737Y0032498D01*
X0149737Y0032550D01*
X0149733Y0032603D01*
X0149725Y0032655D01*
X0149714Y0032707D01*
X0149698Y0032757D01*
X0149679Y0032806D01*
X0149657Y0032854D01*
X0149631Y0032900D01*
X0149602Y0032944D01*
X0149570Y0032986D01*
X0149535Y0033025D01*
X0149497Y0033062D01*
X0149456Y0033095D01*
X0149413Y0033126D01*
X0149368Y0033154D01*
X0149321Y0033178D01*
X0149273Y0033198D01*
X0149223Y0033215D01*
X0149172Y0033229D01*
X0149120Y0033238D01*
X0149068Y0033244D01*
X0149015Y0033246D01*
X0148293Y0033246D01*
X0151142Y0033246D02*
X0152587Y0033246D01*
X0151864Y0030646D01*
X0151142Y0032957D02*
X0151142Y0033246D01*
X0158675Y0032978D02*
X0158675Y0030378D01*
X0158675Y0031533D02*
X0159397Y0031533D01*
X0159541Y0031533D02*
X0160119Y0030378D01*
X0161524Y0030955D02*
X0162968Y0030955D01*
X0162535Y0030378D02*
X0162535Y0031533D01*
X0161524Y0030955D02*
X0162102Y0032978D01*
X0159397Y0032978D02*
X0158675Y0032978D01*
X0159397Y0032977D02*
X0159450Y0032975D01*
X0159502Y0032969D01*
X0159554Y0032960D01*
X0159605Y0032946D01*
X0159655Y0032929D01*
X0159703Y0032909D01*
X0159750Y0032885D01*
X0159795Y0032857D01*
X0159838Y0032826D01*
X0159879Y0032793D01*
X0159917Y0032756D01*
X0159952Y0032717D01*
X0159984Y0032675D01*
X0160013Y0032631D01*
X0160039Y0032585D01*
X0160061Y0032537D01*
X0160080Y0032488D01*
X0160096Y0032438D01*
X0160107Y0032386D01*
X0160115Y0032334D01*
X0160119Y0032281D01*
X0160119Y0032229D01*
X0160115Y0032176D01*
X0160107Y0032124D01*
X0160096Y0032072D01*
X0160080Y0032022D01*
X0160061Y0031973D01*
X0160039Y0031925D01*
X0160013Y0031879D01*
X0159984Y0031835D01*
X0159952Y0031793D01*
X0159917Y0031754D01*
X0159879Y0031717D01*
X0159838Y0031684D01*
X0159795Y0031653D01*
X0159750Y0031625D01*
X0159703Y0031601D01*
X0159655Y0031581D01*
X0159605Y0031564D01*
X0159554Y0031550D01*
X0159502Y0031541D01*
X0159450Y0031535D01*
X0159397Y0031533D01*
X0158780Y0013111D02*
X0150906Y0013111D01*
X0143032Y0005237D01*
X0134571Y0010359D02*
X0134571Y0010937D01*
X0134571Y0010359D02*
X0134569Y0010311D01*
X0134563Y0010264D01*
X0134553Y0010217D01*
X0134540Y0010171D01*
X0134522Y0010127D01*
X0134501Y0010084D01*
X0134477Y0010043D01*
X0134449Y0010004D01*
X0134418Y0009968D01*
X0134384Y0009934D01*
X0134348Y0009903D01*
X0134309Y0009875D01*
X0134268Y0009851D01*
X0134225Y0009830D01*
X0134181Y0009812D01*
X0134135Y0009799D01*
X0134088Y0009789D01*
X0134041Y0009783D01*
X0133993Y0009781D01*
X0132549Y0009781D01*
X0132501Y0009783D01*
X0132454Y0009789D01*
X0132407Y0009799D01*
X0132361Y0009812D01*
X0132317Y0009830D01*
X0132274Y0009851D01*
X0132233Y0009875D01*
X0132194Y0009903D01*
X0132158Y0009934D01*
X0132124Y0009968D01*
X0132093Y0010004D01*
X0132065Y0010043D01*
X0132041Y0010084D01*
X0132020Y0010127D01*
X0132002Y0010171D01*
X0131989Y0010217D01*
X0131979Y0010264D01*
X0131973Y0010311D01*
X0131971Y0010359D01*
X0131971Y0010937D01*
X0131971Y0012195D02*
X0131971Y0013640D01*
X0134571Y0012917D01*
X0132260Y0012195D02*
X0131971Y0012195D01*
X0126947Y0011799D02*
X0126947Y0011221D01*
X0126945Y0011173D01*
X0126939Y0011126D01*
X0126929Y0011079D01*
X0126916Y0011033D01*
X0126898Y0010989D01*
X0126877Y0010946D01*
X0126853Y0010905D01*
X0126825Y0010866D01*
X0126794Y0010830D01*
X0126760Y0010796D01*
X0126724Y0010765D01*
X0126685Y0010737D01*
X0126644Y0010713D01*
X0126601Y0010692D01*
X0126557Y0010674D01*
X0126511Y0010661D01*
X0126464Y0010651D01*
X0126417Y0010645D01*
X0126369Y0010643D01*
X0124925Y0010643D01*
X0124877Y0010645D01*
X0124830Y0010651D01*
X0124783Y0010661D01*
X0124737Y0010674D01*
X0124693Y0010692D01*
X0124650Y0010713D01*
X0124609Y0010737D01*
X0124570Y0010765D01*
X0124534Y0010796D01*
X0124500Y0010830D01*
X0124469Y0010866D01*
X0124441Y0010905D01*
X0124417Y0010946D01*
X0124396Y0010989D01*
X0124378Y0011033D01*
X0124365Y0011079D01*
X0124355Y0011126D01*
X0124349Y0011173D01*
X0124347Y0011221D01*
X0124347Y0011799D01*
X0125502Y0013057D02*
X0126225Y0013057D01*
X0126225Y0013058D02*
X0126278Y0013060D01*
X0126330Y0013066D01*
X0126382Y0013075D01*
X0126433Y0013089D01*
X0126483Y0013106D01*
X0126531Y0013126D01*
X0126578Y0013150D01*
X0126623Y0013178D01*
X0126666Y0013209D01*
X0126707Y0013242D01*
X0126745Y0013279D01*
X0126780Y0013318D01*
X0126812Y0013360D01*
X0126841Y0013404D01*
X0126867Y0013450D01*
X0126889Y0013498D01*
X0126908Y0013547D01*
X0126924Y0013597D01*
X0126935Y0013649D01*
X0126943Y0013701D01*
X0126947Y0013754D01*
X0126947Y0013806D01*
X0126943Y0013859D01*
X0126935Y0013911D01*
X0126924Y0013963D01*
X0126908Y0014013D01*
X0126889Y0014062D01*
X0126867Y0014110D01*
X0126841Y0014156D01*
X0126812Y0014200D01*
X0126780Y0014242D01*
X0126745Y0014281D01*
X0126707Y0014318D01*
X0126666Y0014351D01*
X0126623Y0014382D01*
X0126578Y0014410D01*
X0126531Y0014434D01*
X0126483Y0014454D01*
X0126433Y0014471D01*
X0126382Y0014485D01*
X0126330Y0014494D01*
X0126278Y0014500D01*
X0126225Y0014502D01*
X0126080Y0014502D01*
X0126035Y0014500D01*
X0125990Y0014495D01*
X0125945Y0014486D01*
X0125901Y0014474D01*
X0125859Y0014458D01*
X0125818Y0014439D01*
X0125778Y0014417D01*
X0125740Y0014392D01*
X0125705Y0014364D01*
X0125671Y0014333D01*
X0125640Y0014299D01*
X0125612Y0014264D01*
X0125587Y0014226D01*
X0125565Y0014186D01*
X0125546Y0014145D01*
X0125530Y0014103D01*
X0125518Y0014059D01*
X0125509Y0014014D01*
X0125504Y0013969D01*
X0125502Y0013924D01*
X0125502Y0013057D01*
X0125435Y0013059D01*
X0125368Y0013065D01*
X0125301Y0013075D01*
X0125235Y0013088D01*
X0125170Y0013106D01*
X0125107Y0013127D01*
X0125044Y0013152D01*
X0124983Y0013180D01*
X0124924Y0013212D01*
X0124867Y0013247D01*
X0124812Y0013286D01*
X0124759Y0013327D01*
X0124709Y0013372D01*
X0124661Y0013420D01*
X0124616Y0013470D01*
X0124575Y0013523D01*
X0124536Y0013578D01*
X0124501Y0013635D01*
X0124469Y0013694D01*
X0124441Y0013755D01*
X0124416Y0013818D01*
X0124395Y0013881D01*
X0124377Y0013946D01*
X0124364Y0014012D01*
X0124354Y0014079D01*
X0124348Y0014146D01*
X0124346Y0014213D01*
X0121560Y0013741D02*
X0121560Y0015185D01*
X0121560Y0013741D02*
X0120116Y0014968D01*
X0118960Y0014535D02*
X0118962Y0014480D01*
X0118967Y0014425D01*
X0118976Y0014370D01*
X0118989Y0014317D01*
X0119005Y0014264D01*
X0119025Y0014212D01*
X0119048Y0014162D01*
X0119074Y0014113D01*
X0119104Y0014066D01*
X0119136Y0014022D01*
X0119172Y0013979D01*
X0119210Y0013939D01*
X0119251Y0013902D01*
X0119294Y0013867D01*
X0119339Y0013836D01*
X0119386Y0013807D01*
X0119435Y0013782D01*
X0119486Y0013759D01*
X0119538Y0013741D01*
X0120115Y0014968D02*
X0120079Y0015004D01*
X0120039Y0015037D01*
X0119998Y0015067D01*
X0119954Y0015094D01*
X0119908Y0015118D01*
X0119861Y0015138D01*
X0119813Y0015155D01*
X0119763Y0015168D01*
X0119712Y0015177D01*
X0119661Y0015183D01*
X0119610Y0015185D01*
X0119561Y0015183D01*
X0119513Y0015178D01*
X0119465Y0015169D01*
X0119418Y0015156D01*
X0119373Y0015140D01*
X0119328Y0015121D01*
X0119285Y0015098D01*
X0119244Y0015072D01*
X0119205Y0015043D01*
X0119168Y0015011D01*
X0119134Y0014977D01*
X0119102Y0014940D01*
X0119073Y0014901D01*
X0119047Y0014860D01*
X0119024Y0014817D01*
X0119005Y0014772D01*
X0118989Y0014727D01*
X0118976Y0014680D01*
X0118967Y0014632D01*
X0118962Y0014584D01*
X0118960Y0014535D01*
X0121560Y0012305D02*
X0121560Y0010861D01*
X0121560Y0011583D02*
X0118960Y0011583D01*
X0119538Y0010861D01*
X0118960Y0009602D02*
X0118960Y0009024D01*
X0118962Y0008976D01*
X0118968Y0008929D01*
X0118978Y0008882D01*
X0118991Y0008836D01*
X0119009Y0008792D01*
X0119030Y0008749D01*
X0119054Y0008708D01*
X0119082Y0008669D01*
X0119113Y0008633D01*
X0119147Y0008599D01*
X0119183Y0008568D01*
X0119222Y0008540D01*
X0119263Y0008516D01*
X0119306Y0008495D01*
X0119350Y0008477D01*
X0119396Y0008464D01*
X0119443Y0008454D01*
X0119490Y0008448D01*
X0119538Y0008446D01*
X0119538Y0008447D02*
X0120982Y0008447D01*
X0120982Y0008446D02*
X0121030Y0008448D01*
X0121077Y0008454D01*
X0121124Y0008464D01*
X0121170Y0008477D01*
X0121214Y0008495D01*
X0121257Y0008516D01*
X0121298Y0008540D01*
X0121337Y0008568D01*
X0121373Y0008599D01*
X0121407Y0008633D01*
X0121438Y0008669D01*
X0121466Y0008708D01*
X0121490Y0008749D01*
X0121511Y0008792D01*
X0121529Y0008836D01*
X0121542Y0008882D01*
X0121552Y0008929D01*
X0121558Y0008976D01*
X0121560Y0009024D01*
X0121560Y0009602D01*
X0113686Y0009602D02*
X0113686Y0009024D01*
X0113684Y0008976D01*
X0113678Y0008929D01*
X0113668Y0008882D01*
X0113655Y0008836D01*
X0113637Y0008792D01*
X0113616Y0008749D01*
X0113592Y0008708D01*
X0113564Y0008669D01*
X0113533Y0008633D01*
X0113499Y0008599D01*
X0113463Y0008568D01*
X0113424Y0008540D01*
X0113383Y0008516D01*
X0113340Y0008495D01*
X0113296Y0008477D01*
X0113250Y0008464D01*
X0113203Y0008454D01*
X0113156Y0008448D01*
X0113108Y0008446D01*
X0113108Y0008447D02*
X0111664Y0008447D01*
X0111664Y0008446D02*
X0111616Y0008448D01*
X0111569Y0008454D01*
X0111522Y0008464D01*
X0111476Y0008477D01*
X0111432Y0008495D01*
X0111389Y0008516D01*
X0111348Y0008540D01*
X0111309Y0008568D01*
X0111273Y0008599D01*
X0111239Y0008633D01*
X0111208Y0008669D01*
X0111180Y0008708D01*
X0111156Y0008749D01*
X0111135Y0008792D01*
X0111117Y0008836D01*
X0111104Y0008882D01*
X0111094Y0008929D01*
X0111088Y0008976D01*
X0111086Y0009024D01*
X0111086Y0009602D01*
X0111664Y0010861D02*
X0111086Y0011583D01*
X0113686Y0011583D01*
X0113686Y0010861D02*
X0113686Y0012305D01*
X0113325Y0014968D02*
X0113245Y0015005D01*
X0113163Y0015039D01*
X0113080Y0015069D01*
X0112996Y0015096D01*
X0112911Y0015120D01*
X0112825Y0015140D01*
X0112738Y0015156D01*
X0112650Y0015169D01*
X0112563Y0015178D01*
X0112474Y0015183D01*
X0112386Y0015185D01*
X0112386Y0013740D02*
X0112298Y0013742D01*
X0112209Y0013747D01*
X0112122Y0013756D01*
X0112034Y0013769D01*
X0111947Y0013785D01*
X0111861Y0013805D01*
X0111776Y0013829D01*
X0111692Y0013856D01*
X0111609Y0013886D01*
X0111527Y0013920D01*
X0111447Y0013957D01*
X0111087Y0014463D02*
X0111089Y0014507D01*
X0111094Y0014551D01*
X0111103Y0014594D01*
X0111116Y0014636D01*
X0111132Y0014678D01*
X0111151Y0014717D01*
X0111174Y0014755D01*
X0111200Y0014791D01*
X0111228Y0014825D01*
X0111259Y0014856D01*
X0111293Y0014885D01*
X0111329Y0014910D01*
X0111367Y0014933D01*
X0111407Y0014952D01*
X0111448Y0014968D01*
X0111664Y0015041D02*
X0113108Y0013885D01*
X0113686Y0014463D02*
X0113684Y0014507D01*
X0113679Y0014551D01*
X0113670Y0014594D01*
X0113657Y0014636D01*
X0113641Y0014678D01*
X0113622Y0014717D01*
X0113599Y0014755D01*
X0113573Y0014791D01*
X0113545Y0014825D01*
X0113514Y0014856D01*
X0113480Y0014884D01*
X0113444Y0014910D01*
X0113406Y0014933D01*
X0113366Y0014952D01*
X0113325Y0014968D01*
X0113686Y0014463D02*
X0113684Y0014419D01*
X0113679Y0014375D01*
X0113670Y0014332D01*
X0113657Y0014290D01*
X0113641Y0014248D01*
X0113622Y0014209D01*
X0113599Y0014171D01*
X0113573Y0014135D01*
X0113545Y0014101D01*
X0113514Y0014070D01*
X0113480Y0014042D01*
X0113444Y0014016D01*
X0113406Y0013993D01*
X0113366Y0013974D01*
X0113325Y0013958D01*
X0112386Y0015186D02*
X0112298Y0015184D01*
X0112209Y0015179D01*
X0112122Y0015170D01*
X0112034Y0015157D01*
X0111947Y0015141D01*
X0111861Y0015121D01*
X0111776Y0015097D01*
X0111692Y0015070D01*
X0111609Y0015040D01*
X0111527Y0015006D01*
X0111447Y0014969D01*
X0111087Y0014463D02*
X0111089Y0014419D01*
X0111094Y0014375D01*
X0111103Y0014332D01*
X0111116Y0014290D01*
X0111132Y0014248D01*
X0111151Y0014209D01*
X0111174Y0014171D01*
X0111200Y0014135D01*
X0111228Y0014101D01*
X0111259Y0014070D01*
X0111293Y0014042D01*
X0111329Y0014016D01*
X0111367Y0013993D01*
X0111407Y0013974D01*
X0111448Y0013958D01*
X0112386Y0013740D02*
X0112474Y0013742D01*
X0112563Y0013747D01*
X0112650Y0013756D01*
X0112738Y0013769D01*
X0112825Y0013785D01*
X0112911Y0013805D01*
X0112996Y0013829D01*
X0113080Y0013856D01*
X0113163Y0013886D01*
X0113245Y0013920D01*
X0113325Y0013957D01*
X0114142Y0017466D02*
X0111542Y0017466D01*
X0114142Y0017466D02*
X0114142Y0018622D01*
X0114142Y0019962D02*
X0111542Y0019962D01*
X0111542Y0021118D01*
X0112697Y0020829D02*
X0112697Y0019962D01*
X0114142Y0019962D02*
X0114142Y0021118D01*
X0114142Y0022449D02*
X0111542Y0022449D01*
X0111542Y0023171D01*
X0111544Y0023223D01*
X0111549Y0023274D01*
X0111559Y0023324D01*
X0111571Y0023374D01*
X0111588Y0023423D01*
X0111607Y0023471D01*
X0111630Y0023517D01*
X0111657Y0023561D01*
X0111686Y0023604D01*
X0111718Y0023644D01*
X0111753Y0023682D01*
X0111791Y0023717D01*
X0111831Y0023749D01*
X0111874Y0023778D01*
X0111918Y0023805D01*
X0111964Y0023828D01*
X0112012Y0023847D01*
X0112061Y0023864D01*
X0112111Y0023877D01*
X0112161Y0023886D01*
X0112213Y0023891D01*
X0112264Y0023893D01*
X0113420Y0023893D01*
X0113472Y0023891D01*
X0113523Y0023886D01*
X0113573Y0023877D01*
X0113623Y0023864D01*
X0113672Y0023847D01*
X0113720Y0023828D01*
X0113766Y0023805D01*
X0113810Y0023778D01*
X0113853Y0023749D01*
X0113893Y0023717D01*
X0113931Y0023682D01*
X0113966Y0023644D01*
X0113998Y0023604D01*
X0114027Y0023561D01*
X0114054Y0023517D01*
X0114077Y0023471D01*
X0114096Y0023423D01*
X0114113Y0023374D01*
X0114126Y0023324D01*
X0114135Y0023274D01*
X0114140Y0023223D01*
X0114142Y0023171D01*
X0114142Y0022449D01*
X0113420Y0025425D02*
X0112697Y0025425D01*
X0112697Y0026291D01*
X0112697Y0025424D02*
X0112630Y0025426D01*
X0112563Y0025432D01*
X0112496Y0025442D01*
X0112430Y0025455D01*
X0112365Y0025473D01*
X0112302Y0025494D01*
X0112239Y0025519D01*
X0112178Y0025547D01*
X0112119Y0025579D01*
X0112062Y0025614D01*
X0112007Y0025653D01*
X0111954Y0025694D01*
X0111904Y0025739D01*
X0111856Y0025787D01*
X0111811Y0025837D01*
X0111770Y0025890D01*
X0111731Y0025945D01*
X0111696Y0026002D01*
X0111664Y0026061D01*
X0111636Y0026122D01*
X0111611Y0026185D01*
X0111590Y0026248D01*
X0111572Y0026313D01*
X0111559Y0026379D01*
X0111549Y0026446D01*
X0111543Y0026513D01*
X0111541Y0026580D01*
X0112697Y0026291D02*
X0112699Y0026336D01*
X0112704Y0026381D01*
X0112713Y0026426D01*
X0112725Y0026470D01*
X0112741Y0026512D01*
X0112760Y0026553D01*
X0112782Y0026593D01*
X0112807Y0026631D01*
X0112835Y0026666D01*
X0112866Y0026700D01*
X0112900Y0026731D01*
X0112935Y0026759D01*
X0112973Y0026784D01*
X0113013Y0026806D01*
X0113054Y0026825D01*
X0113096Y0026841D01*
X0113140Y0026853D01*
X0113185Y0026862D01*
X0113230Y0026867D01*
X0113275Y0026869D01*
X0113420Y0026869D01*
X0113473Y0026867D01*
X0113525Y0026861D01*
X0113577Y0026852D01*
X0113628Y0026838D01*
X0113678Y0026821D01*
X0113726Y0026801D01*
X0113773Y0026777D01*
X0113818Y0026749D01*
X0113861Y0026718D01*
X0113902Y0026685D01*
X0113940Y0026648D01*
X0113975Y0026609D01*
X0114007Y0026567D01*
X0114036Y0026523D01*
X0114062Y0026477D01*
X0114084Y0026429D01*
X0114103Y0026380D01*
X0114119Y0026330D01*
X0114130Y0026278D01*
X0114138Y0026226D01*
X0114142Y0026173D01*
X0114142Y0026121D01*
X0114138Y0026068D01*
X0114130Y0026016D01*
X0114119Y0025964D01*
X0114103Y0025914D01*
X0114084Y0025865D01*
X0114062Y0025817D01*
X0114036Y0025771D01*
X0114007Y0025727D01*
X0113975Y0025685D01*
X0113940Y0025646D01*
X0113902Y0025609D01*
X0113861Y0025576D01*
X0113818Y0025545D01*
X0113773Y0025517D01*
X0113726Y0025493D01*
X0113678Y0025473D01*
X0113628Y0025456D01*
X0113577Y0025442D01*
X0113525Y0025433D01*
X0113473Y0025427D01*
X0113420Y0025425D01*
X0092301Y0018086D02*
X0092301Y0016642D01*
X0092301Y0017364D02*
X0089701Y0017364D01*
X0090279Y0016642D01*
X0089701Y0014515D02*
X0089703Y0014568D01*
X0089709Y0014620D01*
X0089718Y0014672D01*
X0089732Y0014723D01*
X0089749Y0014773D01*
X0089769Y0014821D01*
X0089793Y0014868D01*
X0089821Y0014913D01*
X0089852Y0014956D01*
X0089885Y0014997D01*
X0089922Y0015035D01*
X0089961Y0015070D01*
X0090003Y0015102D01*
X0090047Y0015131D01*
X0090093Y0015157D01*
X0090141Y0015179D01*
X0090190Y0015198D01*
X0090240Y0015214D01*
X0090292Y0015225D01*
X0090344Y0015233D01*
X0090397Y0015237D01*
X0090449Y0015237D01*
X0090502Y0015233D01*
X0090554Y0015225D01*
X0090606Y0015214D01*
X0090656Y0015198D01*
X0090705Y0015179D01*
X0090753Y0015157D01*
X0090799Y0015131D01*
X0090843Y0015102D01*
X0090885Y0015070D01*
X0090924Y0015035D01*
X0090961Y0014997D01*
X0090994Y0014956D01*
X0091025Y0014913D01*
X0091053Y0014868D01*
X0091077Y0014821D01*
X0091097Y0014773D01*
X0091114Y0014723D01*
X0091128Y0014672D01*
X0091137Y0014620D01*
X0091143Y0014568D01*
X0091145Y0014515D01*
X0091146Y0014515D02*
X0091146Y0013793D01*
X0091146Y0014660D02*
X0092301Y0015237D01*
X0092301Y0013793D02*
X0089701Y0013793D01*
X0089701Y0014515D01*
X0090279Y0019666D02*
X0090326Y0019668D01*
X0090372Y0019673D01*
X0090417Y0019683D01*
X0090462Y0019696D01*
X0090506Y0019712D01*
X0090548Y0019732D01*
X0090588Y0019755D01*
X0090626Y0019782D01*
X0090662Y0019811D01*
X0090696Y0019844D01*
X0090727Y0019878D01*
X0090755Y0019916D01*
X0090780Y0019955D01*
X0090801Y0019996D01*
X0090819Y0020039D01*
X0090834Y0020083D01*
X0090845Y0020128D01*
X0090853Y0020174D01*
X0090857Y0020221D01*
X0090857Y0020267D01*
X0090853Y0020314D01*
X0090845Y0020360D01*
X0090834Y0020405D01*
X0090819Y0020449D01*
X0090801Y0020492D01*
X0090780Y0020533D01*
X0090755Y0020572D01*
X0090727Y0020610D01*
X0090696Y0020644D01*
X0090662Y0020677D01*
X0090626Y0020706D01*
X0090588Y0020733D01*
X0090548Y0020756D01*
X0090506Y0020776D01*
X0090462Y0020792D01*
X0090417Y0020805D01*
X0090372Y0020815D01*
X0090326Y0020820D01*
X0090279Y0020822D01*
X0090232Y0020820D01*
X0090186Y0020815D01*
X0090141Y0020805D01*
X0090096Y0020792D01*
X0090052Y0020776D01*
X0090010Y0020756D01*
X0089970Y0020733D01*
X0089932Y0020706D01*
X0089896Y0020677D01*
X0089862Y0020644D01*
X0089831Y0020610D01*
X0089803Y0020572D01*
X0089778Y0020533D01*
X0089757Y0020492D01*
X0089739Y0020449D01*
X0089724Y0020405D01*
X0089713Y0020360D01*
X0089705Y0020314D01*
X0089701Y0020267D01*
X0089701Y0020221D01*
X0089705Y0020174D01*
X0089713Y0020128D01*
X0089724Y0020083D01*
X0089739Y0020039D01*
X0089757Y0019996D01*
X0089778Y0019955D01*
X0089803Y0019916D01*
X0089831Y0019878D01*
X0089862Y0019844D01*
X0089896Y0019811D01*
X0089932Y0019782D01*
X0089970Y0019755D01*
X0090010Y0019732D01*
X0090052Y0019712D01*
X0090096Y0019696D01*
X0090141Y0019683D01*
X0090186Y0019673D01*
X0090232Y0019668D01*
X0090279Y0019666D01*
X0091579Y0019522D02*
X0091632Y0019524D01*
X0091684Y0019530D01*
X0091736Y0019539D01*
X0091787Y0019553D01*
X0091837Y0019570D01*
X0091885Y0019590D01*
X0091932Y0019614D01*
X0091977Y0019642D01*
X0092020Y0019673D01*
X0092061Y0019706D01*
X0092099Y0019743D01*
X0092134Y0019782D01*
X0092166Y0019824D01*
X0092195Y0019868D01*
X0092221Y0019914D01*
X0092243Y0019962D01*
X0092262Y0020011D01*
X0092278Y0020061D01*
X0092289Y0020113D01*
X0092297Y0020165D01*
X0092301Y0020218D01*
X0092301Y0020270D01*
X0092297Y0020323D01*
X0092289Y0020375D01*
X0092278Y0020427D01*
X0092262Y0020477D01*
X0092243Y0020526D01*
X0092221Y0020574D01*
X0092195Y0020620D01*
X0092166Y0020664D01*
X0092134Y0020706D01*
X0092099Y0020745D01*
X0092061Y0020782D01*
X0092020Y0020815D01*
X0091977Y0020846D01*
X0091932Y0020874D01*
X0091885Y0020898D01*
X0091837Y0020918D01*
X0091787Y0020935D01*
X0091736Y0020949D01*
X0091684Y0020958D01*
X0091632Y0020964D01*
X0091579Y0020966D01*
X0091526Y0020964D01*
X0091474Y0020958D01*
X0091422Y0020949D01*
X0091371Y0020935D01*
X0091321Y0020918D01*
X0091273Y0020898D01*
X0091226Y0020874D01*
X0091181Y0020846D01*
X0091138Y0020815D01*
X0091097Y0020782D01*
X0091059Y0020745D01*
X0091024Y0020706D01*
X0090992Y0020664D01*
X0090963Y0020620D01*
X0090937Y0020574D01*
X0090915Y0020526D01*
X0090896Y0020477D01*
X0090880Y0020427D01*
X0090869Y0020375D01*
X0090861Y0020323D01*
X0090857Y0020270D01*
X0090857Y0020218D01*
X0090861Y0020165D01*
X0090869Y0020113D01*
X0090880Y0020061D01*
X0090896Y0020011D01*
X0090915Y0019962D01*
X0090937Y0019914D01*
X0090963Y0019868D01*
X0090992Y0019824D01*
X0091024Y0019782D01*
X0091059Y0019743D01*
X0091097Y0019706D01*
X0091138Y0019673D01*
X0091181Y0019642D01*
X0091226Y0019614D01*
X0091273Y0019590D01*
X0091321Y0019570D01*
X0091371Y0019553D01*
X0091422Y0019539D01*
X0091474Y0019530D01*
X0091526Y0019524D01*
X0091579Y0019522D01*
X0158780Y0013111D02*
X0166654Y0005237D01*
X0179493Y0010933D02*
X0179493Y0012811D01*
X0180937Y0012811D02*
X0180937Y0010933D01*
X0180935Y0010880D01*
X0180929Y0010828D01*
X0180920Y0010776D01*
X0180906Y0010725D01*
X0180889Y0010675D01*
X0180869Y0010627D01*
X0180845Y0010580D01*
X0180817Y0010535D01*
X0180786Y0010492D01*
X0180753Y0010451D01*
X0180716Y0010413D01*
X0180677Y0010378D01*
X0180635Y0010346D01*
X0180591Y0010317D01*
X0180545Y0010291D01*
X0180497Y0010269D01*
X0180448Y0010250D01*
X0180398Y0010234D01*
X0180346Y0010223D01*
X0180294Y0010215D01*
X0180241Y0010211D01*
X0180189Y0010211D01*
X0180136Y0010215D01*
X0180084Y0010223D01*
X0180032Y0010234D01*
X0179982Y0010250D01*
X0179933Y0010269D01*
X0179885Y0010291D01*
X0179839Y0010317D01*
X0179795Y0010346D01*
X0179753Y0010378D01*
X0179714Y0010413D01*
X0179677Y0010451D01*
X0179644Y0010492D01*
X0179613Y0010535D01*
X0179585Y0010580D01*
X0179561Y0010627D01*
X0179541Y0010675D01*
X0179524Y0010725D01*
X0179510Y0010776D01*
X0179501Y0010828D01*
X0179495Y0010880D01*
X0179493Y0010933D01*
X0182469Y0010211D02*
X0183336Y0010211D01*
X0183384Y0010213D01*
X0183431Y0010219D01*
X0183478Y0010229D01*
X0183524Y0010242D01*
X0183568Y0010260D01*
X0183611Y0010281D01*
X0183652Y0010305D01*
X0183691Y0010333D01*
X0183727Y0010364D01*
X0183761Y0010398D01*
X0183792Y0010434D01*
X0183820Y0010473D01*
X0183844Y0010514D01*
X0183865Y0010557D01*
X0183883Y0010601D01*
X0183896Y0010647D01*
X0183906Y0010694D01*
X0183912Y0010741D01*
X0183914Y0010789D01*
X0183913Y0010789D02*
X0183913Y0011078D01*
X0183914Y0011078D02*
X0183912Y0011123D01*
X0183907Y0011168D01*
X0183898Y0011213D01*
X0183886Y0011257D01*
X0183870Y0011299D01*
X0183851Y0011340D01*
X0183829Y0011380D01*
X0183804Y0011418D01*
X0183776Y0011453D01*
X0183745Y0011487D01*
X0183711Y0011518D01*
X0183676Y0011546D01*
X0183638Y0011571D01*
X0183598Y0011593D01*
X0183557Y0011612D01*
X0183515Y0011628D01*
X0183471Y0011640D01*
X0183426Y0011649D01*
X0183381Y0011654D01*
X0183336Y0011656D01*
X0183336Y0011655D02*
X0182469Y0011655D01*
X0182469Y0012811D01*
X0183913Y0012811D01*
X0200124Y0012348D02*
X0202724Y0012348D01*
X0202724Y0013504D01*
X0202724Y0014844D02*
X0200124Y0014844D01*
X0200124Y0016000D01*
X0201280Y0015711D02*
X0201280Y0014844D01*
X0202724Y0014844D02*
X0202724Y0016000D01*
X0202724Y0017330D02*
X0200124Y0017330D01*
X0200124Y0018053D01*
X0200125Y0018053D02*
X0200127Y0018105D01*
X0200132Y0018156D01*
X0200142Y0018206D01*
X0200154Y0018256D01*
X0200171Y0018305D01*
X0200190Y0018353D01*
X0200213Y0018399D01*
X0200240Y0018443D01*
X0200269Y0018486D01*
X0200301Y0018526D01*
X0200336Y0018564D01*
X0200374Y0018599D01*
X0200414Y0018631D01*
X0200457Y0018660D01*
X0200501Y0018687D01*
X0200547Y0018710D01*
X0200595Y0018729D01*
X0200644Y0018746D01*
X0200694Y0018759D01*
X0200744Y0018768D01*
X0200796Y0018773D01*
X0200847Y0018775D01*
X0202002Y0018775D01*
X0202054Y0018773D01*
X0202105Y0018768D01*
X0202155Y0018759D01*
X0202205Y0018746D01*
X0202254Y0018729D01*
X0202302Y0018710D01*
X0202348Y0018687D01*
X0202392Y0018660D01*
X0202435Y0018631D01*
X0202475Y0018599D01*
X0202513Y0018564D01*
X0202548Y0018526D01*
X0202580Y0018486D01*
X0202609Y0018443D01*
X0202636Y0018399D01*
X0202659Y0018353D01*
X0202678Y0018305D01*
X0202695Y0018256D01*
X0202708Y0018206D01*
X0202717Y0018156D01*
X0202722Y0018105D01*
X0202724Y0018053D01*
X0202724Y0017330D01*
X0202724Y0020306D02*
X0202724Y0021173D01*
X0202725Y0021173D02*
X0202723Y0021221D01*
X0202717Y0021268D01*
X0202707Y0021315D01*
X0202694Y0021361D01*
X0202676Y0021405D01*
X0202655Y0021448D01*
X0202631Y0021489D01*
X0202603Y0021528D01*
X0202572Y0021564D01*
X0202538Y0021598D01*
X0202502Y0021629D01*
X0202463Y0021657D01*
X0202422Y0021681D01*
X0202379Y0021702D01*
X0202335Y0021720D01*
X0202289Y0021733D01*
X0202242Y0021743D01*
X0202195Y0021749D01*
X0202147Y0021751D01*
X0201858Y0021751D01*
X0201813Y0021749D01*
X0201768Y0021744D01*
X0201723Y0021735D01*
X0201679Y0021723D01*
X0201637Y0021707D01*
X0201596Y0021688D01*
X0201556Y0021666D01*
X0201518Y0021641D01*
X0201483Y0021613D01*
X0201449Y0021582D01*
X0201418Y0021548D01*
X0201390Y0021513D01*
X0201365Y0021475D01*
X0201343Y0021435D01*
X0201324Y0021394D01*
X0201308Y0021352D01*
X0201296Y0021308D01*
X0201287Y0021263D01*
X0201282Y0021218D01*
X0201280Y0021173D01*
X0201280Y0020306D01*
X0200124Y0020306D01*
X0200124Y0021751D01*
X0212661Y0022579D02*
X0212661Y0023301D01*
X0212663Y0023354D01*
X0212669Y0023406D01*
X0212678Y0023458D01*
X0212692Y0023509D01*
X0212709Y0023559D01*
X0212729Y0023607D01*
X0212753Y0023654D01*
X0212781Y0023699D01*
X0212812Y0023742D01*
X0212845Y0023783D01*
X0212882Y0023821D01*
X0212921Y0023856D01*
X0212963Y0023888D01*
X0213007Y0023917D01*
X0213053Y0023943D01*
X0213101Y0023965D01*
X0213150Y0023984D01*
X0213200Y0024000D01*
X0213252Y0024011D01*
X0213304Y0024019D01*
X0213357Y0024023D01*
X0213409Y0024023D01*
X0213462Y0024019D01*
X0213514Y0024011D01*
X0213566Y0024000D01*
X0213616Y0023984D01*
X0213665Y0023965D01*
X0213713Y0023943D01*
X0213759Y0023917D01*
X0213803Y0023888D01*
X0213845Y0023856D01*
X0213884Y0023821D01*
X0213921Y0023783D01*
X0213954Y0023742D01*
X0213985Y0023699D01*
X0214013Y0023654D01*
X0214037Y0023607D01*
X0214057Y0023559D01*
X0214074Y0023509D01*
X0214088Y0023458D01*
X0214097Y0023406D01*
X0214103Y0023354D01*
X0214105Y0023301D01*
X0214105Y0022579D01*
X0214105Y0023445D02*
X0215261Y0024023D01*
X0215261Y0025428D02*
X0215261Y0026872D01*
X0215261Y0026150D02*
X0212661Y0026150D01*
X0213239Y0025428D01*
X0213239Y0028308D02*
X0212661Y0029030D01*
X0215261Y0029030D01*
X0215261Y0028308D02*
X0215261Y0029752D01*
X0215261Y0022579D02*
X0212661Y0022579D01*
X0209406Y0063514D02*
X0205006Y0064981D01*
X0209406Y0066447D01*
X0208306Y0066081D02*
X0208306Y0063881D01*
X0209406Y0068353D02*
X0206472Y0068353D01*
X0206472Y0069575D01*
X0206474Y0069627D01*
X0206479Y0069679D01*
X0206489Y0069731D01*
X0206502Y0069782D01*
X0206518Y0069831D01*
X0206538Y0069880D01*
X0206562Y0069926D01*
X0206588Y0069971D01*
X0206618Y0070014D01*
X0206651Y0070055D01*
X0206687Y0070093D01*
X0206725Y0070129D01*
X0206766Y0070162D01*
X0206809Y0070192D01*
X0206854Y0070218D01*
X0206901Y0070242D01*
X0206949Y0070262D01*
X0206998Y0070278D01*
X0207049Y0070291D01*
X0207101Y0070301D01*
X0207153Y0070306D01*
X0207205Y0070308D01*
X0207206Y0070309D02*
X0209406Y0070309D01*
X0208672Y0072491D02*
X0205006Y0072491D01*
X0206472Y0072002D02*
X0206472Y0073469D01*
X0207450Y0075253D02*
X0208672Y0075253D01*
X0207939Y0075253D02*
X0207939Y0077209D01*
X0207450Y0077209D01*
X0207389Y0077207D01*
X0207327Y0077201D01*
X0207267Y0077192D01*
X0207207Y0077178D01*
X0207148Y0077161D01*
X0207090Y0077140D01*
X0207034Y0077116D01*
X0206979Y0077088D01*
X0206926Y0077057D01*
X0206875Y0077022D01*
X0206827Y0076985D01*
X0206781Y0076944D01*
X0206737Y0076900D01*
X0206696Y0076854D01*
X0206659Y0076806D01*
X0206624Y0076755D01*
X0206593Y0076702D01*
X0206565Y0076647D01*
X0206541Y0076591D01*
X0206520Y0076533D01*
X0206503Y0076474D01*
X0206489Y0076414D01*
X0206480Y0076354D01*
X0206474Y0076292D01*
X0206472Y0076231D01*
X0206474Y0076170D01*
X0206480Y0076108D01*
X0206489Y0076048D01*
X0206503Y0075988D01*
X0206520Y0075929D01*
X0206541Y0075871D01*
X0206565Y0075815D01*
X0206593Y0075760D01*
X0206624Y0075707D01*
X0206659Y0075656D01*
X0206696Y0075608D01*
X0206737Y0075562D01*
X0206781Y0075518D01*
X0206827Y0075477D01*
X0206875Y0075440D01*
X0206926Y0075405D01*
X0206979Y0075374D01*
X0207034Y0075346D01*
X0207090Y0075322D01*
X0207148Y0075301D01*
X0207207Y0075284D01*
X0207267Y0075270D01*
X0207327Y0075261D01*
X0207389Y0075255D01*
X0207450Y0075253D01*
X0208672Y0075253D02*
X0208724Y0075255D01*
X0208776Y0075260D01*
X0208828Y0075270D01*
X0208879Y0075283D01*
X0208928Y0075299D01*
X0208977Y0075319D01*
X0209023Y0075343D01*
X0209068Y0075369D01*
X0209111Y0075399D01*
X0209152Y0075432D01*
X0209190Y0075468D01*
X0209226Y0075506D01*
X0209259Y0075547D01*
X0209289Y0075590D01*
X0209315Y0075635D01*
X0209339Y0075682D01*
X0209359Y0075730D01*
X0209375Y0075779D01*
X0209388Y0075830D01*
X0209398Y0075882D01*
X0209403Y0075934D01*
X0209405Y0075986D01*
X0209406Y0075986D02*
X0209406Y0077209D01*
X0209406Y0079303D02*
X0206472Y0079303D01*
X0206472Y0080525D01*
X0206474Y0080577D01*
X0206479Y0080629D01*
X0206489Y0080681D01*
X0206502Y0080732D01*
X0206518Y0080781D01*
X0206538Y0080830D01*
X0206562Y0080876D01*
X0206588Y0080921D01*
X0206618Y0080964D01*
X0206651Y0081005D01*
X0206687Y0081043D01*
X0206725Y0081079D01*
X0206766Y0081112D01*
X0206809Y0081142D01*
X0206854Y0081168D01*
X0206901Y0081192D01*
X0206949Y0081212D01*
X0206998Y0081228D01*
X0207049Y0081241D01*
X0207101Y0081251D01*
X0207153Y0081256D01*
X0207205Y0081258D01*
X0207206Y0081259D02*
X0209406Y0081259D01*
X0209406Y0083503D02*
X0206472Y0083503D01*
X0206472Y0084725D01*
X0206474Y0084777D01*
X0206479Y0084829D01*
X0206489Y0084881D01*
X0206502Y0084932D01*
X0206518Y0084981D01*
X0206538Y0085030D01*
X0206562Y0085076D01*
X0206588Y0085121D01*
X0206618Y0085164D01*
X0206651Y0085205D01*
X0206687Y0085243D01*
X0206725Y0085279D01*
X0206766Y0085312D01*
X0206809Y0085342D01*
X0206854Y0085368D01*
X0206901Y0085392D01*
X0206949Y0085412D01*
X0206998Y0085428D01*
X0207049Y0085441D01*
X0207101Y0085451D01*
X0207153Y0085456D01*
X0207205Y0085458D01*
X0207206Y0085459D02*
X0209406Y0085459D01*
X0206472Y0087768D02*
X0206472Y0088746D01*
X0206473Y0088746D02*
X0206475Y0088798D01*
X0206480Y0088850D01*
X0206490Y0088902D01*
X0206503Y0088953D01*
X0206519Y0089002D01*
X0206539Y0089051D01*
X0206563Y0089097D01*
X0206589Y0089142D01*
X0206619Y0089185D01*
X0206652Y0089226D01*
X0206688Y0089264D01*
X0206726Y0089300D01*
X0206767Y0089333D01*
X0206810Y0089363D01*
X0206855Y0089389D01*
X0206902Y0089413D01*
X0206950Y0089433D01*
X0206999Y0089449D01*
X0207050Y0089462D01*
X0207102Y0089472D01*
X0207154Y0089477D01*
X0207206Y0089479D01*
X0207206Y0089480D02*
X0209406Y0089480D01*
X0209406Y0088380D01*
X0209404Y0088323D01*
X0209398Y0088266D01*
X0209389Y0088209D01*
X0209376Y0088154D01*
X0209359Y0088099D01*
X0209338Y0088046D01*
X0209314Y0087994D01*
X0209287Y0087944D01*
X0209256Y0087896D01*
X0209222Y0087849D01*
X0209185Y0087806D01*
X0209145Y0087765D01*
X0209103Y0087726D01*
X0209058Y0087691D01*
X0209011Y0087658D01*
X0208961Y0087629D01*
X0208910Y0087604D01*
X0208858Y0087581D01*
X0208804Y0087562D01*
X0208748Y0087547D01*
X0208692Y0087536D01*
X0208636Y0087528D01*
X0208579Y0087524D01*
X0208521Y0087524D01*
X0208464Y0087528D01*
X0208408Y0087536D01*
X0208352Y0087547D01*
X0208296Y0087562D01*
X0208242Y0087581D01*
X0208190Y0087604D01*
X0208139Y0087629D01*
X0208089Y0087658D01*
X0208042Y0087691D01*
X0207997Y0087726D01*
X0207955Y0087765D01*
X0207915Y0087806D01*
X0207878Y0087849D01*
X0207844Y0087896D01*
X0207813Y0087944D01*
X0207786Y0087994D01*
X0207762Y0088046D01*
X0207741Y0088099D01*
X0207724Y0088154D01*
X0207711Y0088209D01*
X0207702Y0088266D01*
X0207696Y0088323D01*
X0207694Y0088380D01*
X0207694Y0089480D01*
X0209406Y0073469D02*
X0209406Y0073224D01*
X0209405Y0073224D02*
X0209403Y0073172D01*
X0209398Y0073120D01*
X0209388Y0073068D01*
X0209375Y0073017D01*
X0209359Y0072968D01*
X0209339Y0072920D01*
X0209315Y0072873D01*
X0209289Y0072828D01*
X0209259Y0072785D01*
X0209226Y0072744D01*
X0209190Y0072706D01*
X0209152Y0072670D01*
X0209111Y0072637D01*
X0209068Y0072607D01*
X0209023Y0072581D01*
X0208977Y0072557D01*
X0208928Y0072537D01*
X0208879Y0072521D01*
X0208828Y0072508D01*
X0208776Y0072498D01*
X0208724Y0072493D01*
X0208672Y0072491D01*
D12*
X0052481Y0005237D02*
X0044607Y0013111D01*
X0051863Y0011782D02*
X0053269Y0011015D01*
X0052758Y0009099D02*
X0052668Y0009101D01*
X0052579Y0009106D01*
X0052490Y0009116D01*
X0052401Y0009129D01*
X0052313Y0009145D01*
X0052225Y0009166D01*
X0052139Y0009190D01*
X0052053Y0009217D01*
X0051969Y0009248D01*
X0051886Y0009283D01*
X0051805Y0009321D01*
X0051725Y0009362D01*
X0051648Y0009406D01*
X0051572Y0009454D01*
X0051498Y0009505D01*
X0051426Y0009559D01*
X0051357Y0009616D01*
X0051289Y0009675D01*
X0051225Y0009738D01*
X0053269Y0011015D02*
X0053323Y0010981D01*
X0053374Y0010944D01*
X0053423Y0010904D01*
X0053470Y0010861D01*
X0053513Y0010815D01*
X0053554Y0010767D01*
X0053592Y0010716D01*
X0053627Y0010663D01*
X0053659Y0010608D01*
X0053687Y0010551D01*
X0053711Y0010493D01*
X0053732Y0010433D01*
X0053749Y0010372D01*
X0053763Y0010310D01*
X0053772Y0010247D01*
X0053778Y0010184D01*
X0053780Y0010121D01*
X0053778Y0010059D01*
X0053773Y0009998D01*
X0053763Y0009937D01*
X0053750Y0009876D01*
X0053734Y0009817D01*
X0053714Y0009759D01*
X0053690Y0009702D01*
X0053663Y0009646D01*
X0053633Y0009592D01*
X0053599Y0009540D01*
X0053563Y0009491D01*
X0053523Y0009443D01*
X0053481Y0009398D01*
X0053436Y0009356D01*
X0053388Y0009316D01*
X0053339Y0009280D01*
X0053287Y0009246D01*
X0053233Y0009216D01*
X0053177Y0009189D01*
X0053120Y0009165D01*
X0053062Y0009145D01*
X0053003Y0009129D01*
X0052942Y0009116D01*
X0052881Y0009106D01*
X0052820Y0009101D01*
X0052758Y0009099D01*
X0053524Y0013316D02*
X0053457Y0013364D01*
X0053389Y0013409D01*
X0053318Y0013451D01*
X0053245Y0013489D01*
X0053171Y0013525D01*
X0053096Y0013558D01*
X0053019Y0013587D01*
X0052941Y0013613D01*
X0052862Y0013636D01*
X0052782Y0013655D01*
X0052701Y0013671D01*
X0052620Y0013683D01*
X0052538Y0013692D01*
X0052456Y0013697D01*
X0052374Y0013699D01*
X0052374Y0013698D02*
X0052312Y0013696D01*
X0052251Y0013691D01*
X0052190Y0013681D01*
X0052129Y0013668D01*
X0052070Y0013652D01*
X0052012Y0013632D01*
X0051955Y0013608D01*
X0051899Y0013581D01*
X0051845Y0013551D01*
X0051793Y0013517D01*
X0051744Y0013481D01*
X0051696Y0013441D01*
X0051651Y0013399D01*
X0051609Y0013354D01*
X0051570Y0013306D01*
X0051533Y0013257D01*
X0051499Y0013205D01*
X0051469Y0013151D01*
X0051442Y0013095D01*
X0051418Y0013038D01*
X0051398Y0012980D01*
X0051382Y0012921D01*
X0051369Y0012860D01*
X0051359Y0012799D01*
X0051354Y0012738D01*
X0051352Y0012676D01*
X0051354Y0012613D01*
X0051360Y0012550D01*
X0051369Y0012487D01*
X0051383Y0012425D01*
X0051400Y0012364D01*
X0051421Y0012304D01*
X0051445Y0012246D01*
X0051473Y0012189D01*
X0051505Y0012134D01*
X0051540Y0012081D01*
X0051578Y0012030D01*
X0051619Y0011982D01*
X0051662Y0011936D01*
X0051709Y0011893D01*
X0051758Y0011853D01*
X0051809Y0011816D01*
X0051863Y0011782D01*
X0055733Y0011654D02*
X0057267Y0011654D01*
X0057778Y0013698D02*
X0055733Y0013698D01*
X0055733Y0009098D01*
X0057778Y0009098D01*
X0060452Y0009098D02*
X0060452Y0013698D01*
X0059174Y0013698D02*
X0061730Y0013698D01*
X0057230Y0028783D02*
X0054674Y0028783D01*
X0055952Y0028783D02*
X0055952Y0033383D01*
X0054674Y0032361D01*
X0059174Y0031339D02*
X0059174Y0030061D01*
X0059174Y0031339D02*
X0060708Y0031339D01*
X0059175Y0031339D02*
X0059177Y0031428D01*
X0059183Y0031517D01*
X0059192Y0031606D01*
X0059206Y0031694D01*
X0059223Y0031781D01*
X0059245Y0031868D01*
X0059270Y0031954D01*
X0059298Y0032038D01*
X0059331Y0032121D01*
X0059367Y0032203D01*
X0059406Y0032283D01*
X0059449Y0032361D01*
X0059495Y0032437D01*
X0059545Y0032511D01*
X0059597Y0032583D01*
X0059653Y0032653D01*
X0059712Y0032720D01*
X0059774Y0032784D01*
X0059838Y0032846D01*
X0059905Y0032905D01*
X0059975Y0032961D01*
X0060047Y0033013D01*
X0060121Y0033063D01*
X0060197Y0033109D01*
X0060275Y0033152D01*
X0060355Y0033191D01*
X0060437Y0033227D01*
X0060520Y0033260D01*
X0060604Y0033288D01*
X0060690Y0033313D01*
X0060777Y0033335D01*
X0060864Y0033352D01*
X0060952Y0033366D01*
X0061041Y0033375D01*
X0061130Y0033381D01*
X0061219Y0033383D01*
X0061730Y0030317D02*
X0061730Y0030061D01*
X0061730Y0030317D02*
X0061728Y0030379D01*
X0061723Y0030440D01*
X0061713Y0030501D01*
X0061700Y0030562D01*
X0061684Y0030621D01*
X0061664Y0030679D01*
X0061640Y0030736D01*
X0061613Y0030792D01*
X0061583Y0030846D01*
X0061549Y0030898D01*
X0061513Y0030947D01*
X0061473Y0030995D01*
X0061431Y0031040D01*
X0061386Y0031082D01*
X0061338Y0031122D01*
X0061289Y0031158D01*
X0061237Y0031192D01*
X0061183Y0031222D01*
X0061127Y0031249D01*
X0061070Y0031273D01*
X0061012Y0031293D01*
X0060953Y0031309D01*
X0060892Y0031322D01*
X0060831Y0031332D01*
X0060770Y0031337D01*
X0060708Y0031339D01*
X0061730Y0030061D02*
X0061728Y0029991D01*
X0061722Y0029920D01*
X0061713Y0029851D01*
X0061699Y0029782D01*
X0061682Y0029713D01*
X0061661Y0029646D01*
X0061636Y0029580D01*
X0061608Y0029516D01*
X0061576Y0029453D01*
X0061541Y0029392D01*
X0061502Y0029333D01*
X0061461Y0029276D01*
X0061416Y0029222D01*
X0061368Y0029170D01*
X0061318Y0029121D01*
X0061264Y0029074D01*
X0061209Y0029031D01*
X0061151Y0028991D01*
X0061091Y0028954D01*
X0061029Y0028921D01*
X0060965Y0028891D01*
X0060900Y0028864D01*
X0060834Y0028841D01*
X0060766Y0028822D01*
X0060697Y0028807D01*
X0060628Y0028795D01*
X0060558Y0028787D01*
X0060487Y0028783D01*
X0060417Y0028783D01*
X0060346Y0028787D01*
X0060276Y0028795D01*
X0060207Y0028807D01*
X0060138Y0028822D01*
X0060070Y0028841D01*
X0060004Y0028864D01*
X0059939Y0028891D01*
X0059875Y0028921D01*
X0059813Y0028954D01*
X0059753Y0028991D01*
X0059695Y0029031D01*
X0059640Y0029074D01*
X0059586Y0029121D01*
X0059536Y0029170D01*
X0059488Y0029222D01*
X0059443Y0029276D01*
X0059402Y0029333D01*
X0059363Y0029392D01*
X0059328Y0029453D01*
X0059296Y0029516D01*
X0059268Y0029580D01*
X0059243Y0029646D01*
X0059222Y0029713D01*
X0059205Y0029782D01*
X0059191Y0029851D01*
X0059182Y0029920D01*
X0059176Y0029991D01*
X0059174Y0030061D01*
X0059174Y0052406D02*
X0059174Y0057006D01*
X0061730Y0052406D01*
X0061730Y0057006D01*
X0057328Y0057006D02*
X0055283Y0057006D01*
X0055283Y0052406D01*
X0057328Y0052406D01*
X0056817Y0054961D02*
X0055283Y0054961D01*
X0044607Y0064292D02*
X0052481Y0072166D01*
X0052481Y0080040D01*
X0044607Y0087914D01*
X0052003Y0088108D02*
X0052003Y0083508D01*
X0053281Y0083508D01*
X0053351Y0083510D01*
X0053422Y0083516D01*
X0053491Y0083525D01*
X0053560Y0083539D01*
X0053629Y0083556D01*
X0053696Y0083577D01*
X0053762Y0083602D01*
X0053826Y0083630D01*
X0053889Y0083662D01*
X0053950Y0083697D01*
X0054009Y0083736D01*
X0054066Y0083777D01*
X0054120Y0083822D01*
X0054172Y0083870D01*
X0054221Y0083920D01*
X0054268Y0083974D01*
X0054311Y0084029D01*
X0054351Y0084087D01*
X0054388Y0084147D01*
X0054421Y0084209D01*
X0054451Y0084273D01*
X0054478Y0084338D01*
X0054501Y0084404D01*
X0054520Y0084472D01*
X0054535Y0084541D01*
X0054547Y0084610D01*
X0054555Y0084680D01*
X0054559Y0084751D01*
X0054559Y0084821D01*
X0054555Y0084892D01*
X0054547Y0084962D01*
X0054535Y0085031D01*
X0054520Y0085100D01*
X0054501Y0085168D01*
X0054478Y0085234D01*
X0054451Y0085299D01*
X0054421Y0085363D01*
X0054388Y0085425D01*
X0054351Y0085485D01*
X0054311Y0085543D01*
X0054268Y0085598D01*
X0054221Y0085652D01*
X0054172Y0085702D01*
X0054120Y0085750D01*
X0054066Y0085795D01*
X0054009Y0085836D01*
X0053950Y0085875D01*
X0053889Y0085910D01*
X0053826Y0085942D01*
X0053762Y0085970D01*
X0053696Y0085995D01*
X0053629Y0086016D01*
X0053560Y0086033D01*
X0053491Y0086047D01*
X0053422Y0086056D01*
X0053351Y0086062D01*
X0053281Y0086064D01*
X0053281Y0086063D02*
X0052003Y0086063D01*
X0053281Y0086064D02*
X0053344Y0086066D01*
X0053407Y0086072D01*
X0053469Y0086081D01*
X0053530Y0086095D01*
X0053591Y0086112D01*
X0053650Y0086133D01*
X0053708Y0086158D01*
X0053765Y0086186D01*
X0053819Y0086217D01*
X0053871Y0086252D01*
X0053922Y0086290D01*
X0053970Y0086331D01*
X0054015Y0086375D01*
X0054057Y0086421D01*
X0054097Y0086470D01*
X0054133Y0086521D01*
X0054166Y0086575D01*
X0054196Y0086630D01*
X0054222Y0086688D01*
X0054245Y0086746D01*
X0054264Y0086806D01*
X0054279Y0086867D01*
X0054291Y0086929D01*
X0054299Y0086992D01*
X0054303Y0087055D01*
X0054303Y0087117D01*
X0054299Y0087180D01*
X0054291Y0087243D01*
X0054279Y0087305D01*
X0054264Y0087366D01*
X0054245Y0087426D01*
X0054222Y0087484D01*
X0054196Y0087542D01*
X0054166Y0087597D01*
X0054133Y0087651D01*
X0054097Y0087702D01*
X0054057Y0087751D01*
X0054015Y0087797D01*
X0053970Y0087841D01*
X0053922Y0087882D01*
X0053871Y0087920D01*
X0053819Y0087955D01*
X0053765Y0087986D01*
X0053708Y0088014D01*
X0053650Y0088039D01*
X0053591Y0088060D01*
X0053530Y0088077D01*
X0053469Y0088091D01*
X0053407Y0088100D01*
X0053344Y0088106D01*
X0053281Y0088108D01*
X0052003Y0088108D01*
X0057564Y0088108D02*
X0059097Y0083508D01*
X0058714Y0084658D02*
X0056414Y0084658D01*
X0056031Y0083508D02*
X0057564Y0088108D01*
X0060486Y0088108D02*
X0063042Y0088108D01*
X0061764Y0088108D02*
X0061764Y0083508D01*
X0064686Y0083508D02*
X0067242Y0083508D01*
X0065964Y0083508D02*
X0065964Y0088108D01*
X0064686Y0087086D01*
X0064761Y0071966D02*
X0066038Y0071966D01*
X0064761Y0071966D02*
X0064761Y0067366D01*
X0066038Y0067366D01*
X0066107Y0067368D01*
X0066176Y0067373D01*
X0066245Y0067383D01*
X0066313Y0067396D01*
X0066380Y0067413D01*
X0066446Y0067433D01*
X0066511Y0067457D01*
X0066575Y0067484D01*
X0066637Y0067515D01*
X0066697Y0067549D01*
X0066755Y0067586D01*
X0066811Y0067627D01*
X0066865Y0067670D01*
X0066917Y0067716D01*
X0066966Y0067765D01*
X0067012Y0067817D01*
X0067055Y0067871D01*
X0067096Y0067927D01*
X0067133Y0067985D01*
X0067167Y0068045D01*
X0067198Y0068107D01*
X0067225Y0068171D01*
X0067249Y0068236D01*
X0067269Y0068302D01*
X0067286Y0068369D01*
X0067299Y0068437D01*
X0067309Y0068506D01*
X0067314Y0068575D01*
X0067316Y0068644D01*
X0067316Y0070688D01*
X0067314Y0070757D01*
X0067309Y0070826D01*
X0067299Y0070895D01*
X0067286Y0070963D01*
X0067269Y0071030D01*
X0067249Y0071096D01*
X0067225Y0071161D01*
X0067198Y0071225D01*
X0067167Y0071287D01*
X0067133Y0071347D01*
X0067096Y0071405D01*
X0067055Y0071461D01*
X0067012Y0071515D01*
X0066966Y0071567D01*
X0066917Y0071616D01*
X0066865Y0071662D01*
X0066811Y0071705D01*
X0066755Y0071746D01*
X0066697Y0071783D01*
X0066637Y0071817D01*
X0066575Y0071848D01*
X0066511Y0071875D01*
X0066446Y0071899D01*
X0066380Y0071919D01*
X0066313Y0071936D01*
X0066245Y0071949D01*
X0066176Y0071959D01*
X0066107Y0071964D01*
X0066038Y0071966D01*
X0062516Y0071966D02*
X0062516Y0067366D01*
X0059961Y0071966D01*
X0059961Y0067366D01*
X0057716Y0067366D02*
X0057716Y0069922D01*
X0056950Y0069922D01*
X0055161Y0070944D02*
X0055163Y0071006D01*
X0055168Y0071067D01*
X0055178Y0071128D01*
X0055191Y0071189D01*
X0055207Y0071248D01*
X0055227Y0071306D01*
X0055251Y0071363D01*
X0055278Y0071419D01*
X0055308Y0071473D01*
X0055342Y0071525D01*
X0055378Y0071574D01*
X0055418Y0071622D01*
X0055460Y0071667D01*
X0055505Y0071709D01*
X0055553Y0071748D01*
X0055602Y0071785D01*
X0055654Y0071819D01*
X0055708Y0071849D01*
X0055764Y0071876D01*
X0055821Y0071900D01*
X0055879Y0071920D01*
X0055938Y0071936D01*
X0055999Y0071949D01*
X0056060Y0071959D01*
X0056121Y0071964D01*
X0056183Y0071966D01*
X0057716Y0071966D01*
X0055161Y0070944D02*
X0055161Y0068388D01*
X0055163Y0068326D01*
X0055168Y0068265D01*
X0055178Y0068204D01*
X0055191Y0068143D01*
X0055207Y0068084D01*
X0055227Y0068026D01*
X0055251Y0067969D01*
X0055278Y0067913D01*
X0055308Y0067859D01*
X0055342Y0067807D01*
X0055378Y0067758D01*
X0055418Y0067710D01*
X0055460Y0067665D01*
X0055505Y0067623D01*
X0055553Y0067583D01*
X0055602Y0067547D01*
X0055654Y0067513D01*
X0055708Y0067483D01*
X0055764Y0067456D01*
X0055821Y0067432D01*
X0055879Y0067412D01*
X0055938Y0067396D01*
X0055999Y0067383D01*
X0056060Y0067373D01*
X0056121Y0067368D01*
X0056183Y0067366D01*
X0057716Y0067366D01*
X0069411Y0067366D02*
X0071966Y0067366D01*
X0070688Y0067366D02*
X0070688Y0071966D01*
X0069411Y0070944D01*
X0060197Y0103587D02*
X0061730Y0108187D01*
X0058663Y0108187D02*
X0060197Y0103587D01*
X0055697Y0103587D02*
X0054419Y0103587D01*
X0052674Y0103587D02*
X0052419Y0103587D01*
X0052419Y0103842D01*
X0052674Y0103842D01*
X0052674Y0103587D01*
X0049397Y0103587D02*
X0048119Y0103587D01*
X0049397Y0103586D02*
X0049467Y0103588D01*
X0049538Y0103594D01*
X0049607Y0103603D01*
X0049676Y0103617D01*
X0049745Y0103634D01*
X0049812Y0103655D01*
X0049878Y0103680D01*
X0049942Y0103708D01*
X0050005Y0103740D01*
X0050066Y0103775D01*
X0050125Y0103814D01*
X0050182Y0103855D01*
X0050236Y0103900D01*
X0050288Y0103948D01*
X0050337Y0103998D01*
X0050384Y0104052D01*
X0050427Y0104107D01*
X0050467Y0104165D01*
X0050504Y0104225D01*
X0050537Y0104287D01*
X0050567Y0104351D01*
X0050594Y0104416D01*
X0050617Y0104482D01*
X0050636Y0104550D01*
X0050651Y0104619D01*
X0050663Y0104688D01*
X0050671Y0104758D01*
X0050675Y0104829D01*
X0050675Y0104899D01*
X0050671Y0104970D01*
X0050663Y0105040D01*
X0050651Y0105109D01*
X0050636Y0105178D01*
X0050617Y0105246D01*
X0050594Y0105312D01*
X0050567Y0105377D01*
X0050537Y0105441D01*
X0050504Y0105503D01*
X0050467Y0105563D01*
X0050427Y0105621D01*
X0050384Y0105676D01*
X0050337Y0105730D01*
X0050288Y0105780D01*
X0050236Y0105828D01*
X0050182Y0105873D01*
X0050125Y0105914D01*
X0050066Y0105953D01*
X0050005Y0105988D01*
X0049942Y0106020D01*
X0049878Y0106048D01*
X0049812Y0106073D01*
X0049745Y0106094D01*
X0049676Y0106111D01*
X0049607Y0106125D01*
X0049538Y0106134D01*
X0049467Y0106140D01*
X0049397Y0106142D01*
X0049652Y0106142D02*
X0048630Y0106142D01*
X0049652Y0106142D02*
X0049715Y0106144D01*
X0049778Y0106150D01*
X0049840Y0106159D01*
X0049901Y0106173D01*
X0049962Y0106190D01*
X0050021Y0106211D01*
X0050079Y0106236D01*
X0050136Y0106264D01*
X0050190Y0106295D01*
X0050242Y0106330D01*
X0050293Y0106368D01*
X0050341Y0106409D01*
X0050386Y0106453D01*
X0050428Y0106499D01*
X0050468Y0106548D01*
X0050504Y0106599D01*
X0050537Y0106653D01*
X0050567Y0106708D01*
X0050593Y0106766D01*
X0050616Y0106824D01*
X0050635Y0106884D01*
X0050650Y0106945D01*
X0050662Y0107007D01*
X0050670Y0107070D01*
X0050674Y0107133D01*
X0050674Y0107195D01*
X0050670Y0107258D01*
X0050662Y0107321D01*
X0050650Y0107383D01*
X0050635Y0107444D01*
X0050616Y0107504D01*
X0050593Y0107562D01*
X0050567Y0107620D01*
X0050537Y0107675D01*
X0050504Y0107729D01*
X0050468Y0107780D01*
X0050428Y0107829D01*
X0050386Y0107875D01*
X0050341Y0107919D01*
X0050293Y0107960D01*
X0050242Y0107998D01*
X0050190Y0108033D01*
X0050136Y0108064D01*
X0050079Y0108092D01*
X0050021Y0108117D01*
X0049962Y0108138D01*
X0049901Y0108155D01*
X0049840Y0108169D01*
X0049778Y0108178D01*
X0049715Y0108184D01*
X0049652Y0108186D01*
X0049652Y0108187D02*
X0048119Y0108187D01*
X0054419Y0108187D02*
X0055952Y0108187D01*
X0055952Y0108186D02*
X0056015Y0108184D01*
X0056078Y0108178D01*
X0056140Y0108169D01*
X0056201Y0108155D01*
X0056262Y0108138D01*
X0056321Y0108117D01*
X0056379Y0108092D01*
X0056436Y0108064D01*
X0056490Y0108033D01*
X0056542Y0107998D01*
X0056593Y0107960D01*
X0056641Y0107919D01*
X0056686Y0107875D01*
X0056728Y0107829D01*
X0056768Y0107780D01*
X0056804Y0107729D01*
X0056837Y0107675D01*
X0056867Y0107620D01*
X0056893Y0107562D01*
X0056916Y0107504D01*
X0056935Y0107444D01*
X0056950Y0107383D01*
X0056962Y0107321D01*
X0056970Y0107258D01*
X0056974Y0107195D01*
X0056974Y0107133D01*
X0056970Y0107070D01*
X0056962Y0107007D01*
X0056950Y0106945D01*
X0056935Y0106884D01*
X0056916Y0106824D01*
X0056893Y0106766D01*
X0056867Y0106708D01*
X0056837Y0106653D01*
X0056804Y0106599D01*
X0056768Y0106548D01*
X0056728Y0106499D01*
X0056686Y0106453D01*
X0056641Y0106409D01*
X0056593Y0106368D01*
X0056542Y0106330D01*
X0056490Y0106295D01*
X0056436Y0106264D01*
X0056379Y0106236D01*
X0056321Y0106211D01*
X0056262Y0106190D01*
X0056201Y0106173D01*
X0056140Y0106159D01*
X0056078Y0106150D01*
X0056015Y0106144D01*
X0055952Y0106142D01*
X0054930Y0106142D01*
X0055697Y0106142D02*
X0055767Y0106140D01*
X0055838Y0106134D01*
X0055907Y0106125D01*
X0055976Y0106111D01*
X0056045Y0106094D01*
X0056112Y0106073D01*
X0056178Y0106048D01*
X0056242Y0106020D01*
X0056305Y0105988D01*
X0056366Y0105953D01*
X0056425Y0105914D01*
X0056482Y0105873D01*
X0056536Y0105828D01*
X0056588Y0105780D01*
X0056637Y0105730D01*
X0056684Y0105676D01*
X0056727Y0105621D01*
X0056767Y0105563D01*
X0056804Y0105503D01*
X0056837Y0105441D01*
X0056867Y0105377D01*
X0056894Y0105312D01*
X0056917Y0105246D01*
X0056936Y0105178D01*
X0056951Y0105109D01*
X0056963Y0105040D01*
X0056971Y0104970D01*
X0056975Y0104899D01*
X0056975Y0104829D01*
X0056971Y0104758D01*
X0056963Y0104688D01*
X0056951Y0104619D01*
X0056936Y0104550D01*
X0056917Y0104482D01*
X0056894Y0104416D01*
X0056867Y0104351D01*
X0056837Y0104287D01*
X0056804Y0104225D01*
X0056767Y0104165D01*
X0056727Y0104107D01*
X0056684Y0104052D01*
X0056637Y0103998D01*
X0056588Y0103948D01*
X0056536Y0103900D01*
X0056482Y0103855D01*
X0056425Y0103814D01*
X0056366Y0103775D01*
X0056305Y0103740D01*
X0056242Y0103708D01*
X0056178Y0103680D01*
X0056112Y0103655D01*
X0056045Y0103634D01*
X0055976Y0103617D01*
X0055907Y0103603D01*
X0055838Y0103594D01*
X0055767Y0103588D01*
X0055697Y0103586D01*
X0053504Y0126815D02*
X0055037Y0131415D01*
X0051970Y0131415D02*
X0053504Y0126815D01*
X0050281Y0127837D02*
X0050281Y0128348D01*
X0050279Y0128410D01*
X0050274Y0128471D01*
X0050264Y0128532D01*
X0050251Y0128593D01*
X0050235Y0128652D01*
X0050215Y0128710D01*
X0050191Y0128767D01*
X0050164Y0128823D01*
X0050134Y0128877D01*
X0050100Y0128929D01*
X0050064Y0128978D01*
X0050024Y0129026D01*
X0049982Y0129071D01*
X0049937Y0129113D01*
X0049889Y0129153D01*
X0049840Y0129189D01*
X0049788Y0129223D01*
X0049734Y0129253D01*
X0049678Y0129280D01*
X0049621Y0129304D01*
X0049563Y0129324D01*
X0049504Y0129340D01*
X0049443Y0129353D01*
X0049382Y0129363D01*
X0049321Y0129368D01*
X0049259Y0129370D01*
X0049259Y0129371D02*
X0047726Y0129371D01*
X0047726Y0131415D01*
X0050281Y0131415D01*
X0050281Y0127837D02*
X0050279Y0127775D01*
X0050274Y0127714D01*
X0050264Y0127653D01*
X0050251Y0127592D01*
X0050235Y0127533D01*
X0050215Y0127475D01*
X0050191Y0127418D01*
X0050164Y0127362D01*
X0050134Y0127308D01*
X0050100Y0127256D01*
X0050064Y0127207D01*
X0050024Y0127159D01*
X0049982Y0127114D01*
X0049937Y0127072D01*
X0049889Y0127032D01*
X0049840Y0126996D01*
X0049788Y0126962D01*
X0049734Y0126932D01*
X0049678Y0126905D01*
X0049621Y0126881D01*
X0049563Y0126861D01*
X0049504Y0126845D01*
X0049443Y0126832D01*
X0049382Y0126822D01*
X0049321Y0126817D01*
X0049259Y0126815D01*
X0047726Y0126815D01*
X0044607Y0139095D02*
X0052481Y0146969D01*
X0117532Y0127852D02*
X0118554Y0127852D01*
X0118043Y0127852D02*
X0118043Y0123252D01*
X0117532Y0123252D02*
X0118554Y0123252D01*
X0120352Y0124274D02*
X0120352Y0126830D01*
X0120354Y0126892D01*
X0120359Y0126953D01*
X0120369Y0127014D01*
X0120382Y0127075D01*
X0120398Y0127134D01*
X0120418Y0127192D01*
X0120442Y0127249D01*
X0120469Y0127305D01*
X0120499Y0127359D01*
X0120533Y0127411D01*
X0120569Y0127460D01*
X0120609Y0127508D01*
X0120651Y0127553D01*
X0120696Y0127595D01*
X0120744Y0127634D01*
X0120793Y0127671D01*
X0120845Y0127705D01*
X0120899Y0127735D01*
X0120955Y0127762D01*
X0121012Y0127786D01*
X0121070Y0127806D01*
X0121129Y0127822D01*
X0121190Y0127835D01*
X0121251Y0127845D01*
X0121312Y0127850D01*
X0121374Y0127852D01*
X0122397Y0127852D01*
X0126288Y0125808D02*
X0126335Y0125855D01*
X0126379Y0125905D01*
X0126421Y0125957D01*
X0126460Y0126011D01*
X0126495Y0126067D01*
X0126528Y0126125D01*
X0126558Y0126185D01*
X0126584Y0126246D01*
X0126607Y0126309D01*
X0126626Y0126373D01*
X0126642Y0126437D01*
X0126655Y0126503D01*
X0126664Y0126569D01*
X0126669Y0126635D01*
X0126671Y0126702D01*
X0126288Y0125808D02*
X0124115Y0123252D01*
X0126671Y0123252D01*
X0122397Y0123252D02*
X0121374Y0123252D01*
X0121312Y0123254D01*
X0121251Y0123259D01*
X0121190Y0123269D01*
X0121129Y0123282D01*
X0121070Y0123298D01*
X0121012Y0123318D01*
X0120955Y0123342D01*
X0120899Y0123369D01*
X0120845Y0123399D01*
X0120793Y0123433D01*
X0120744Y0123469D01*
X0120696Y0123509D01*
X0120651Y0123551D01*
X0120609Y0123596D01*
X0120569Y0123644D01*
X0120533Y0123693D01*
X0120499Y0123745D01*
X0120469Y0123799D01*
X0120442Y0123855D01*
X0120418Y0123912D01*
X0120398Y0123970D01*
X0120382Y0124029D01*
X0120369Y0124090D01*
X0120359Y0124151D01*
X0120354Y0124212D01*
X0120352Y0124274D01*
X0124116Y0126830D02*
X0124141Y0126900D01*
X0124169Y0126969D01*
X0124200Y0127036D01*
X0124235Y0127102D01*
X0124273Y0127165D01*
X0124315Y0127227D01*
X0124359Y0127287D01*
X0124406Y0127344D01*
X0124456Y0127399D01*
X0124509Y0127451D01*
X0124565Y0127501D01*
X0124623Y0127547D01*
X0124683Y0127591D01*
X0124745Y0127632D01*
X0124809Y0127669D01*
X0124875Y0127703D01*
X0124943Y0127734D01*
X0125012Y0127761D01*
X0125082Y0127785D01*
X0125153Y0127806D01*
X0125226Y0127822D01*
X0125299Y0127835D01*
X0125373Y0127845D01*
X0125447Y0127850D01*
X0125521Y0127852D01*
X0125588Y0127850D01*
X0125655Y0127844D01*
X0125721Y0127835D01*
X0125786Y0127821D01*
X0125851Y0127804D01*
X0125914Y0127783D01*
X0125976Y0127758D01*
X0126037Y0127730D01*
X0126096Y0127698D01*
X0126153Y0127663D01*
X0126208Y0127624D01*
X0126260Y0127583D01*
X0126310Y0127538D01*
X0126357Y0127491D01*
X0126402Y0127441D01*
X0126443Y0127389D01*
X0126482Y0127334D01*
X0126517Y0127277D01*
X0126549Y0127218D01*
X0126577Y0127157D01*
X0126602Y0127095D01*
X0126623Y0127032D01*
X0126640Y0126967D01*
X0126654Y0126902D01*
X0126663Y0126836D01*
X0126669Y0126769D01*
X0126671Y0126702D01*
X0142957Y0127534D02*
X0147557Y0129067D01*
X0146407Y0128684D02*
X0146407Y0126384D01*
X0147557Y0126000D02*
X0142957Y0127534D01*
X0142957Y0130456D02*
X0142957Y0133011D01*
X0142957Y0131734D02*
X0147557Y0131734D01*
X0147557Y0123250D02*
X0147557Y0121972D01*
X0142957Y0121972D01*
X0142957Y0123250D01*
X0142959Y0123313D01*
X0142965Y0123376D01*
X0142974Y0123438D01*
X0142988Y0123499D01*
X0143005Y0123560D01*
X0143026Y0123619D01*
X0143051Y0123677D01*
X0143079Y0123734D01*
X0143110Y0123788D01*
X0143145Y0123840D01*
X0143183Y0123891D01*
X0143224Y0123939D01*
X0143268Y0123984D01*
X0143314Y0124026D01*
X0143363Y0124066D01*
X0143414Y0124102D01*
X0143468Y0124135D01*
X0143523Y0124165D01*
X0143581Y0124191D01*
X0143639Y0124214D01*
X0143699Y0124233D01*
X0143760Y0124248D01*
X0143822Y0124260D01*
X0143885Y0124268D01*
X0143948Y0124272D01*
X0144010Y0124272D01*
X0144073Y0124268D01*
X0144136Y0124260D01*
X0144198Y0124248D01*
X0144259Y0124233D01*
X0144319Y0124214D01*
X0144377Y0124191D01*
X0144435Y0124165D01*
X0144490Y0124135D01*
X0144544Y0124102D01*
X0144595Y0124066D01*
X0144644Y0124026D01*
X0144690Y0123984D01*
X0144734Y0123939D01*
X0144775Y0123891D01*
X0144813Y0123840D01*
X0144848Y0123788D01*
X0144879Y0123734D01*
X0144907Y0123677D01*
X0144932Y0123619D01*
X0144953Y0123560D01*
X0144970Y0123499D01*
X0144984Y0123438D01*
X0144993Y0123376D01*
X0144999Y0123313D01*
X0145001Y0123250D01*
X0145001Y0121972D01*
X0145001Y0123250D02*
X0145003Y0123320D01*
X0145009Y0123391D01*
X0145018Y0123460D01*
X0145032Y0123529D01*
X0145049Y0123598D01*
X0145070Y0123665D01*
X0145095Y0123731D01*
X0145123Y0123795D01*
X0145155Y0123858D01*
X0145190Y0123919D01*
X0145229Y0123978D01*
X0145270Y0124035D01*
X0145315Y0124089D01*
X0145363Y0124141D01*
X0145413Y0124190D01*
X0145467Y0124237D01*
X0145522Y0124280D01*
X0145580Y0124320D01*
X0145640Y0124357D01*
X0145702Y0124390D01*
X0145766Y0124420D01*
X0145831Y0124447D01*
X0145897Y0124470D01*
X0145965Y0124489D01*
X0146034Y0124504D01*
X0146103Y0124516D01*
X0146173Y0124524D01*
X0146244Y0124528D01*
X0146314Y0124528D01*
X0146385Y0124524D01*
X0146455Y0124516D01*
X0146524Y0124504D01*
X0146593Y0124489D01*
X0146661Y0124470D01*
X0146727Y0124447D01*
X0146792Y0124420D01*
X0146856Y0124390D01*
X0146918Y0124357D01*
X0146978Y0124320D01*
X0147036Y0124280D01*
X0147091Y0124237D01*
X0147145Y0124190D01*
X0147195Y0124141D01*
X0147243Y0124089D01*
X0147288Y0124035D01*
X0147329Y0123978D01*
X0147368Y0123919D01*
X0147403Y0123858D01*
X0147435Y0123795D01*
X0147463Y0123731D01*
X0147488Y0123665D01*
X0147509Y0123598D01*
X0147526Y0123529D01*
X0147540Y0123460D01*
X0147549Y0123391D01*
X0147555Y0123320D01*
X0147557Y0123250D01*
X0163035Y0129688D02*
X0163035Y0131221D01*
X0163036Y0129688D02*
X0163038Y0129626D01*
X0163043Y0129565D01*
X0163053Y0129504D01*
X0163066Y0129443D01*
X0163082Y0129384D01*
X0163102Y0129326D01*
X0163126Y0129269D01*
X0163153Y0129213D01*
X0163183Y0129159D01*
X0163217Y0129107D01*
X0163254Y0129058D01*
X0163293Y0129010D01*
X0163335Y0128965D01*
X0163380Y0128923D01*
X0163428Y0128883D01*
X0163477Y0128847D01*
X0163529Y0128813D01*
X0163583Y0128783D01*
X0163639Y0128756D01*
X0163696Y0128732D01*
X0163754Y0128712D01*
X0163813Y0128696D01*
X0163874Y0128683D01*
X0163935Y0128673D01*
X0163996Y0128668D01*
X0164058Y0128666D01*
X0164058Y0128665D02*
X0166613Y0128665D01*
X0166613Y0128666D02*
X0166675Y0128668D01*
X0166736Y0128673D01*
X0166797Y0128683D01*
X0166858Y0128696D01*
X0166917Y0128712D01*
X0166975Y0128732D01*
X0167032Y0128756D01*
X0167088Y0128783D01*
X0167142Y0128813D01*
X0167194Y0128847D01*
X0167243Y0128883D01*
X0167291Y0128923D01*
X0167336Y0128965D01*
X0167378Y0129010D01*
X0167418Y0129058D01*
X0167454Y0129107D01*
X0167488Y0129159D01*
X0167518Y0129213D01*
X0167545Y0129269D01*
X0167569Y0129326D01*
X0167589Y0129384D01*
X0167605Y0129443D01*
X0167618Y0129504D01*
X0167628Y0129565D01*
X0167633Y0129626D01*
X0167635Y0129688D01*
X0167635Y0131221D01*
X0165080Y0131221D01*
X0165080Y0130454D01*
X0163035Y0133465D02*
X0167635Y0136021D01*
X0163035Y0136021D01*
X0163035Y0138265D02*
X0163035Y0139543D01*
X0163035Y0138265D02*
X0167635Y0138265D01*
X0167635Y0139543D01*
X0167636Y0139543D02*
X0167634Y0139612D01*
X0167629Y0139681D01*
X0167619Y0139750D01*
X0167606Y0139818D01*
X0167589Y0139885D01*
X0167569Y0139951D01*
X0167545Y0140016D01*
X0167518Y0140080D01*
X0167487Y0140142D01*
X0167453Y0140202D01*
X0167416Y0140260D01*
X0167375Y0140316D01*
X0167332Y0140370D01*
X0167286Y0140422D01*
X0167237Y0140471D01*
X0167185Y0140517D01*
X0167131Y0140560D01*
X0167075Y0140601D01*
X0167017Y0140638D01*
X0166957Y0140672D01*
X0166895Y0140703D01*
X0166831Y0140730D01*
X0166766Y0140754D01*
X0166700Y0140774D01*
X0166633Y0140791D01*
X0166565Y0140804D01*
X0166496Y0140814D01*
X0166427Y0140819D01*
X0166358Y0140821D01*
X0164313Y0140821D01*
X0164244Y0140819D01*
X0164175Y0140814D01*
X0164106Y0140804D01*
X0164038Y0140791D01*
X0163971Y0140774D01*
X0163905Y0140754D01*
X0163840Y0140730D01*
X0163776Y0140703D01*
X0163714Y0140672D01*
X0163654Y0140638D01*
X0163596Y0140601D01*
X0163540Y0140560D01*
X0163486Y0140517D01*
X0163434Y0140471D01*
X0163385Y0140422D01*
X0163339Y0140370D01*
X0163296Y0140316D01*
X0163255Y0140260D01*
X0163218Y0140202D01*
X0163184Y0140142D01*
X0163153Y0140080D01*
X0163126Y0140016D01*
X0163102Y0139951D01*
X0163082Y0139885D01*
X0163065Y0139818D01*
X0163052Y0139750D01*
X0163042Y0139681D01*
X0163037Y0139612D01*
X0163035Y0139543D01*
X0163035Y0133465D02*
X0167635Y0133465D01*
X0217835Y0146969D02*
X0225709Y0139095D01*
X0166848Y0024372D02*
X0166848Y0021817D01*
X0166848Y0023094D02*
X0162248Y0023094D01*
X0163270Y0021817D01*
X0162248Y0020098D02*
X0162248Y0019076D01*
X0162250Y0019014D01*
X0162255Y0018953D01*
X0162265Y0018892D01*
X0162278Y0018831D01*
X0162294Y0018772D01*
X0162314Y0018714D01*
X0162338Y0018657D01*
X0162365Y0018601D01*
X0162395Y0018547D01*
X0162429Y0018495D01*
X0162466Y0018446D01*
X0162505Y0018398D01*
X0162547Y0018353D01*
X0162592Y0018311D01*
X0162640Y0018271D01*
X0162689Y0018235D01*
X0162741Y0018201D01*
X0162795Y0018171D01*
X0162851Y0018144D01*
X0162908Y0018120D01*
X0162966Y0018100D01*
X0163025Y0018084D01*
X0163086Y0018071D01*
X0163147Y0018061D01*
X0163208Y0018056D01*
X0163270Y0018054D01*
X0165826Y0018054D01*
X0165888Y0018056D01*
X0165949Y0018061D01*
X0166010Y0018071D01*
X0166071Y0018084D01*
X0166130Y0018100D01*
X0166188Y0018120D01*
X0166245Y0018144D01*
X0166301Y0018171D01*
X0166355Y0018201D01*
X0166407Y0018235D01*
X0166456Y0018271D01*
X0166504Y0018311D01*
X0166549Y0018353D01*
X0166591Y0018398D01*
X0166631Y0018446D01*
X0166667Y0018495D01*
X0166701Y0018547D01*
X0166731Y0018601D01*
X0166758Y0018657D01*
X0166782Y0018714D01*
X0166802Y0018772D01*
X0166818Y0018831D01*
X0166831Y0018892D01*
X0166841Y0018953D01*
X0166846Y0019014D01*
X0166848Y0019076D01*
X0166848Y0020098D01*
X0166848Y0016378D02*
X0162248Y0014844D01*
X0166848Y0013311D01*
X0165698Y0013694D02*
X0165698Y0015994D01*
X0147557Y0014803D02*
X0142957Y0013270D01*
X0147557Y0011736D01*
X0146407Y0012120D02*
X0146407Y0014420D01*
X0146534Y0016479D02*
X0143979Y0016479D01*
X0143917Y0016481D01*
X0143856Y0016486D01*
X0143795Y0016496D01*
X0143734Y0016509D01*
X0143675Y0016525D01*
X0143617Y0016545D01*
X0143560Y0016569D01*
X0143504Y0016596D01*
X0143450Y0016626D01*
X0143398Y0016660D01*
X0143349Y0016696D01*
X0143301Y0016736D01*
X0143256Y0016778D01*
X0143214Y0016823D01*
X0143175Y0016871D01*
X0143138Y0016920D01*
X0143104Y0016972D01*
X0143074Y0017026D01*
X0143047Y0017082D01*
X0143023Y0017139D01*
X0143003Y0017197D01*
X0142987Y0017256D01*
X0142974Y0017317D01*
X0142964Y0017378D01*
X0142959Y0017439D01*
X0142957Y0017501D01*
X0142957Y0018523D01*
X0145001Y0022414D02*
X0144954Y0022461D01*
X0144904Y0022505D01*
X0144852Y0022547D01*
X0144798Y0022586D01*
X0144742Y0022621D01*
X0144684Y0022654D01*
X0144624Y0022684D01*
X0144563Y0022710D01*
X0144500Y0022733D01*
X0144436Y0022752D01*
X0144372Y0022768D01*
X0144306Y0022781D01*
X0144240Y0022790D01*
X0144174Y0022795D01*
X0144107Y0022797D01*
X0145001Y0022414D02*
X0147557Y0020242D01*
X0147557Y0022797D01*
X0143979Y0020242D02*
X0143909Y0020267D01*
X0143840Y0020295D01*
X0143773Y0020326D01*
X0143707Y0020361D01*
X0143644Y0020399D01*
X0143582Y0020441D01*
X0143522Y0020485D01*
X0143465Y0020532D01*
X0143410Y0020582D01*
X0143358Y0020635D01*
X0143308Y0020691D01*
X0143262Y0020748D01*
X0143218Y0020809D01*
X0143177Y0020871D01*
X0143140Y0020935D01*
X0143106Y0021001D01*
X0143075Y0021069D01*
X0143048Y0021138D01*
X0143024Y0021208D01*
X0143003Y0021279D01*
X0142987Y0021352D01*
X0142974Y0021425D01*
X0142964Y0021499D01*
X0142959Y0021573D01*
X0142957Y0021647D01*
X0142959Y0021714D01*
X0142965Y0021781D01*
X0142974Y0021847D01*
X0142988Y0021912D01*
X0143005Y0021977D01*
X0143026Y0022040D01*
X0143051Y0022102D01*
X0143079Y0022163D01*
X0143111Y0022222D01*
X0143146Y0022279D01*
X0143185Y0022334D01*
X0143226Y0022386D01*
X0143271Y0022436D01*
X0143318Y0022483D01*
X0143368Y0022528D01*
X0143420Y0022569D01*
X0143475Y0022608D01*
X0143532Y0022643D01*
X0143591Y0022675D01*
X0143652Y0022703D01*
X0143714Y0022728D01*
X0143777Y0022749D01*
X0143842Y0022766D01*
X0143907Y0022780D01*
X0143973Y0022789D01*
X0144040Y0022795D01*
X0144107Y0022797D01*
X0147557Y0018523D02*
X0147557Y0017501D01*
X0147556Y0017501D02*
X0147554Y0017439D01*
X0147549Y0017378D01*
X0147539Y0017317D01*
X0147526Y0017256D01*
X0147510Y0017197D01*
X0147490Y0017139D01*
X0147466Y0017082D01*
X0147439Y0017026D01*
X0147409Y0016972D01*
X0147375Y0016920D01*
X0147339Y0016871D01*
X0147299Y0016823D01*
X0147257Y0016778D01*
X0147212Y0016736D01*
X0147164Y0016696D01*
X0147115Y0016660D01*
X0147063Y0016626D01*
X0147009Y0016596D01*
X0146953Y0016569D01*
X0146896Y0016545D01*
X0146838Y0016525D01*
X0146779Y0016509D01*
X0146718Y0016496D01*
X0146657Y0016486D01*
X0146596Y0016481D01*
X0146534Y0016479D01*
X0217835Y0005237D02*
X0225709Y0013111D01*
D13*
X0216398Y0012048D02*
X0211398Y0012048D01*
X0211398Y0022048D01*
X0216398Y0022048D01*
X0216398Y0012048D01*
X0208583Y0011536D02*
X0203465Y0011536D01*
X0203465Y0022560D01*
X0208583Y0022560D01*
X0208583Y0011536D01*
X0207599Y0016261D02*
X0204450Y0016261D01*
X0206024Y0017835D01*
X0207599Y0016261D01*
X0207599Y0017835D02*
X0206024Y0017835D01*
X0204450Y0017835D01*
X0184213Y0016064D02*
X0184213Y0014686D01*
X0181064Y0014686D01*
X0173977Y0014686D02*
X0170828Y0014686D01*
X0170828Y0016064D01*
X0170828Y0026694D02*
X0170828Y0028072D01*
X0173977Y0028072D01*
X0181064Y0028072D02*
X0184213Y0028072D01*
X0184213Y0026694D01*
X0167717Y0034233D02*
X0157717Y0034233D01*
X0157717Y0039233D01*
X0167717Y0039233D01*
X0167717Y0034233D01*
X0155906Y0034233D02*
X0145906Y0034233D01*
X0145906Y0039233D01*
X0155906Y0039233D01*
X0155906Y0034233D01*
X0144095Y0034233D02*
X0134095Y0034233D01*
X0134095Y0039233D01*
X0144095Y0039233D01*
X0144095Y0034233D01*
X0137914Y0027284D02*
X0132402Y0027284D01*
X0132402Y0014686D01*
X0137914Y0014686D01*
X0137914Y0027284D01*
X0129784Y0025985D02*
X0129784Y0015985D01*
X0124784Y0015985D01*
X0124784Y0025985D01*
X0129784Y0025985D01*
X0121910Y0025985D02*
X0121910Y0015985D01*
X0116910Y0015985D01*
X0116910Y0025985D01*
X0121910Y0025985D01*
X0114036Y0025985D02*
X0114036Y0015985D01*
X0109036Y0015985D01*
X0109036Y0025985D01*
X0114036Y0025985D01*
X0106221Y0022560D02*
X0101103Y0022560D01*
X0101103Y0011536D01*
X0106221Y0011536D01*
X0106221Y0022560D01*
X0105237Y0017835D02*
X0103662Y0017835D01*
X0105237Y0016261D01*
X0102087Y0016261D01*
X0103662Y0017835D01*
X0102087Y0017835D01*
X0098288Y0022048D02*
X0098288Y0012048D01*
X0093288Y0012048D01*
X0093288Y0022048D01*
X0098288Y0022048D01*
X0100788Y0026359D02*
X0090788Y0026359D01*
X0090788Y0031359D01*
X0100788Y0031359D01*
X0100788Y0026359D01*
X0100788Y0034233D02*
X0090788Y0034233D01*
X0090788Y0039233D01*
X0100788Y0039233D01*
X0100788Y0034233D01*
X0100788Y0042107D02*
X0090788Y0042107D01*
X0090788Y0047107D01*
X0100788Y0047107D01*
X0100788Y0042107D01*
X0100788Y0049981D02*
X0090788Y0049981D01*
X0090788Y0054981D01*
X0100788Y0054981D01*
X0100788Y0049981D01*
X0105099Y0055355D02*
X0105099Y0065355D01*
X0110099Y0065355D01*
X0110099Y0055355D01*
X0105099Y0055355D01*
X0100788Y0057855D02*
X0090788Y0057855D01*
X0090788Y0062855D01*
X0100788Y0062855D01*
X0100788Y0057855D01*
X0112973Y0055355D02*
X0112973Y0065355D01*
X0117973Y0065355D01*
X0117973Y0055355D01*
X0112973Y0055355D01*
X0120847Y0055355D02*
X0120847Y0065355D01*
X0125847Y0065355D01*
X0125847Y0055355D01*
X0120847Y0055355D01*
X0123741Y0070198D02*
X0107206Y0070198D01*
X0107206Y0082009D02*
X0123741Y0082009D01*
X0109961Y0089095D02*
X0109961Y0094607D01*
X0097363Y0094607D01*
X0097363Y0089095D01*
X0109961Y0089095D01*
X0108662Y0097225D02*
X0098662Y0097225D01*
X0098662Y0102225D01*
X0108662Y0102225D01*
X0108662Y0097225D01*
X0106812Y0105828D02*
X0100513Y0105828D01*
X0106812Y0109765D02*
X0106812Y0113308D01*
X0106812Y0117245D02*
X0100513Y0117245D01*
X0112717Y0117835D02*
X0118229Y0117835D01*
X0118229Y0105237D01*
X0112717Y0105237D01*
X0112717Y0117835D01*
X0120847Y0116536D02*
X0120847Y0106536D01*
X0125847Y0106536D01*
X0125847Y0116536D01*
X0120847Y0116536D01*
X0117973Y0130158D02*
X0112973Y0130158D01*
X0112973Y0140158D01*
X0117973Y0140158D01*
X0117973Y0130158D01*
X0106221Y0129646D02*
X0101103Y0129646D01*
X0101103Y0140670D01*
X0106221Y0140670D01*
X0106221Y0129646D01*
X0105237Y0134371D02*
X0102087Y0134371D01*
X0103662Y0135946D01*
X0105237Y0134371D01*
X0105237Y0135946D02*
X0103662Y0135946D01*
X0102087Y0135946D01*
X0098288Y0140158D02*
X0098288Y0130158D01*
X0093288Y0130158D01*
X0093288Y0140158D01*
X0098288Y0140158D01*
X0083977Y0146969D02*
X0083977Y0005237D01*
X0191064Y0113702D02*
X0197363Y0113702D01*
X0197363Y0117639D02*
X0197363Y0121182D01*
X0197363Y0125119D02*
X0191064Y0125119D01*
X0188839Y0130158D02*
X0183839Y0130158D01*
X0183839Y0140158D01*
X0188839Y0140158D01*
X0188839Y0130158D01*
X0180965Y0130158D02*
X0175965Y0130158D01*
X0175965Y0140158D01*
X0180965Y0140158D01*
X0180965Y0130158D01*
X0180684Y0122010D02*
X0184656Y0122010D01*
X0184656Y0116842D01*
X0179931Y0116810D02*
X0176944Y0116810D01*
X0172275Y0116842D02*
X0172275Y0122010D01*
X0176246Y0122010D01*
X0170139Y0118308D02*
X0170139Y0128308D01*
X0165139Y0128308D01*
X0165139Y0118308D01*
X0170139Y0118308D01*
X0163780Y0116910D02*
X0163780Y0121910D01*
X0153780Y0121910D01*
X0153780Y0116910D01*
X0163780Y0116910D01*
X0142835Y0129568D02*
X0137324Y0129568D01*
X0137324Y0142166D01*
X0142835Y0142166D01*
X0142835Y0129568D01*
X0203465Y0129646D02*
X0208583Y0129646D01*
X0208583Y0140670D01*
X0203465Y0140670D01*
X0203465Y0129646D01*
X0204450Y0134371D02*
X0207599Y0134371D01*
X0206024Y0135946D01*
X0204450Y0134371D01*
X0204450Y0135946D02*
X0206024Y0135946D01*
X0207599Y0135946D01*
X0211398Y0140158D02*
X0211398Y0130158D01*
X0216398Y0130158D01*
X0216398Y0140158D01*
X0211398Y0140158D01*
X0211398Y0124410D02*
X0216398Y0124410D01*
X0216398Y0114410D01*
X0211398Y0114410D01*
X0211398Y0124410D01*
X0208524Y0124410D02*
X0208524Y0114410D01*
X0203524Y0114410D01*
X0203524Y0124410D01*
X0208524Y0124410D01*
D14*
X0225709Y0107599D02*
X0131221Y0107599D01*
X0131221Y0044607D01*
X0225709Y0044607D01*
X0225709Y0107599D01*
X0195001Y0099725D02*
X0135946Y0099725D01*
X0135946Y0052481D01*
X0195001Y0052481D01*
X0195001Y0099725D01*
X0142158Y0120347D02*
X0128158Y0120347D01*
X0128158Y0126347D01*
X0142158Y0126347D01*
X0142158Y0120347D01*
D15*
X0133199Y0127334D02*
X0132366Y0127334D01*
X0132782Y0127334D02*
X0132782Y0128834D01*
X0132366Y0128501D01*
X0131711Y0128418D02*
X0131711Y0127751D01*
X0131709Y0127713D01*
X0131704Y0127674D01*
X0131695Y0127637D01*
X0131683Y0127600D01*
X0131667Y0127565D01*
X0131649Y0127531D01*
X0131627Y0127500D01*
X0131602Y0127470D01*
X0131575Y0127443D01*
X0131545Y0127418D01*
X0131514Y0127396D01*
X0131480Y0127378D01*
X0131445Y0127362D01*
X0131408Y0127350D01*
X0131371Y0127341D01*
X0131332Y0127336D01*
X0131294Y0127334D01*
X0130878Y0127334D01*
X0130878Y0128834D01*
X0131294Y0128834D01*
X0131294Y0128835D02*
X0131332Y0128833D01*
X0131371Y0128828D01*
X0131408Y0128819D01*
X0131445Y0128807D01*
X0131480Y0128791D01*
X0131514Y0128773D01*
X0131545Y0128751D01*
X0131575Y0128726D01*
X0131602Y0128699D01*
X0131627Y0128669D01*
X0131649Y0128638D01*
X0131667Y0128604D01*
X0131683Y0128569D01*
X0131695Y0128532D01*
X0131704Y0128495D01*
X0131709Y0128456D01*
X0131711Y0128418D01*
D16*
X0127257Y0051643D02*
X0127259Y0051670D01*
X0127265Y0051697D01*
X0127274Y0051723D01*
X0127287Y0051747D01*
X0127303Y0051770D01*
X0127322Y0051789D01*
X0127344Y0051806D01*
X0127368Y0051820D01*
X0127393Y0051830D01*
X0127420Y0051837D01*
X0127447Y0051840D01*
X0127475Y0051839D01*
X0127502Y0051834D01*
X0127528Y0051826D01*
X0127552Y0051814D01*
X0127575Y0051798D01*
X0127596Y0051780D01*
X0127613Y0051759D01*
X0127628Y0051735D01*
X0127639Y0051710D01*
X0127647Y0051684D01*
X0127651Y0051657D01*
X0127651Y0051629D01*
X0127647Y0051602D01*
X0127639Y0051576D01*
X0127628Y0051551D01*
X0127613Y0051527D01*
X0127596Y0051506D01*
X0127575Y0051488D01*
X0127553Y0051472D01*
X0127528Y0051460D01*
X0127502Y0051452D01*
X0127475Y0051447D01*
X0127447Y0051446D01*
X0127420Y0051449D01*
X0127393Y0051456D01*
X0127368Y0051466D01*
X0127344Y0051480D01*
X0127322Y0051497D01*
X0127303Y0051516D01*
X0127287Y0051539D01*
X0127274Y0051563D01*
X0127265Y0051589D01*
X0127259Y0051616D01*
X0127257Y0051643D01*
X0125682Y0050591D02*
X0125682Y0030946D01*
X0103296Y0030946D01*
X0103296Y0050591D01*
X0125682Y0050591D01*
D17*
X0118823Y0051620D02*
X0117212Y0051620D01*
X0118018Y0051620D02*
X0118018Y0054520D01*
X0117212Y0053876D01*
X0115943Y0054520D02*
X0114332Y0054520D01*
X0114332Y0053231D01*
X0115299Y0053231D01*
X0115347Y0053229D01*
X0115395Y0053224D01*
X0115442Y0053215D01*
X0115489Y0053202D01*
X0115534Y0053186D01*
X0115578Y0053167D01*
X0115621Y0053145D01*
X0115662Y0053119D01*
X0115701Y0053090D01*
X0115737Y0053059D01*
X0115771Y0053025D01*
X0115802Y0052989D01*
X0115831Y0052950D01*
X0115857Y0052909D01*
X0115879Y0052866D01*
X0115898Y0052822D01*
X0115914Y0052777D01*
X0115927Y0052730D01*
X0115936Y0052683D01*
X0115941Y0052635D01*
X0115943Y0052587D01*
X0115943Y0052265D01*
X0115941Y0052217D01*
X0115936Y0052169D01*
X0115927Y0052122D01*
X0115914Y0052075D01*
X0115898Y0052030D01*
X0115879Y0051986D01*
X0115857Y0051943D01*
X0115831Y0051902D01*
X0115802Y0051863D01*
X0115771Y0051827D01*
X0115737Y0051793D01*
X0115701Y0051762D01*
X0115662Y0051733D01*
X0115621Y0051707D01*
X0115578Y0051685D01*
X0115534Y0051666D01*
X0115489Y0051650D01*
X0115442Y0051637D01*
X0115395Y0051628D01*
X0115347Y0051623D01*
X0115299Y0051621D01*
X0115299Y0051620D02*
X0114332Y0051620D01*
X0113472Y0051620D02*
X0112828Y0052265D01*
X0113150Y0052426D02*
X0113150Y0053715D01*
X0113148Y0053770D01*
X0113142Y0053825D01*
X0113133Y0053879D01*
X0113120Y0053932D01*
X0113103Y0053985D01*
X0113083Y0054036D01*
X0113060Y0054086D01*
X0113033Y0054134D01*
X0113002Y0054180D01*
X0112969Y0054224D01*
X0112933Y0054265D01*
X0112894Y0054304D01*
X0112853Y0054340D01*
X0112809Y0054373D01*
X0112763Y0054404D01*
X0112715Y0054431D01*
X0112665Y0054454D01*
X0112614Y0054474D01*
X0112561Y0054491D01*
X0112508Y0054504D01*
X0112454Y0054513D01*
X0112399Y0054519D01*
X0112344Y0054521D01*
X0112289Y0054519D01*
X0112234Y0054513D01*
X0112180Y0054504D01*
X0112127Y0054491D01*
X0112074Y0054474D01*
X0112023Y0054454D01*
X0111973Y0054431D01*
X0111925Y0054404D01*
X0111879Y0054373D01*
X0111835Y0054340D01*
X0111794Y0054304D01*
X0111755Y0054265D01*
X0111719Y0054224D01*
X0111686Y0054180D01*
X0111655Y0054134D01*
X0111628Y0054086D01*
X0111605Y0054036D01*
X0111585Y0053985D01*
X0111568Y0053932D01*
X0111555Y0053879D01*
X0111546Y0053825D01*
X0111540Y0053770D01*
X0111538Y0053715D01*
X0111539Y0053715D02*
X0111539Y0052426D01*
X0111538Y0052426D02*
X0111540Y0052371D01*
X0111546Y0052316D01*
X0111555Y0052262D01*
X0111568Y0052209D01*
X0111585Y0052156D01*
X0111605Y0052105D01*
X0111628Y0052055D01*
X0111655Y0052007D01*
X0111686Y0051961D01*
X0111719Y0051917D01*
X0111755Y0051876D01*
X0111794Y0051837D01*
X0111835Y0051801D01*
X0111879Y0051768D01*
X0111925Y0051737D01*
X0111973Y0051710D01*
X0112023Y0051687D01*
X0112074Y0051667D01*
X0112127Y0051650D01*
X0112180Y0051637D01*
X0112234Y0051628D01*
X0112289Y0051622D01*
X0112344Y0051620D01*
X0112399Y0051622D01*
X0112454Y0051628D01*
X0112508Y0051637D01*
X0112561Y0051650D01*
X0112614Y0051667D01*
X0112665Y0051687D01*
X0112715Y0051710D01*
X0112763Y0051737D01*
X0112809Y0051768D01*
X0112853Y0051801D01*
X0112894Y0051837D01*
X0112933Y0051876D01*
X0112969Y0051917D01*
X0113002Y0051961D01*
X0113033Y0052007D01*
X0113060Y0052055D01*
X0113083Y0052105D01*
X0113103Y0052156D01*
X0113120Y0052209D01*
X0113133Y0052262D01*
X0113142Y0052316D01*
X0113148Y0052371D01*
X0113150Y0052426D01*
X0109424Y0051620D02*
X0109479Y0051622D01*
X0109534Y0051628D01*
X0109588Y0051637D01*
X0109641Y0051650D01*
X0109694Y0051667D01*
X0109745Y0051687D01*
X0109795Y0051710D01*
X0109843Y0051737D01*
X0109889Y0051768D01*
X0109933Y0051801D01*
X0109974Y0051837D01*
X0110013Y0051876D01*
X0110049Y0051917D01*
X0110082Y0051961D01*
X0110113Y0052007D01*
X0110140Y0052055D01*
X0110163Y0052105D01*
X0110183Y0052156D01*
X0110200Y0052209D01*
X0110213Y0052262D01*
X0110222Y0052316D01*
X0110228Y0052371D01*
X0110230Y0052426D01*
X0110228Y0052481D01*
X0110222Y0052536D01*
X0110213Y0052590D01*
X0110200Y0052643D01*
X0110183Y0052696D01*
X0110163Y0052747D01*
X0110140Y0052797D01*
X0110113Y0052845D01*
X0110082Y0052891D01*
X0110049Y0052935D01*
X0110013Y0052976D01*
X0109974Y0053015D01*
X0109933Y0053051D01*
X0109889Y0053084D01*
X0109843Y0053115D01*
X0109795Y0053142D01*
X0109745Y0053165D01*
X0109694Y0053185D01*
X0109641Y0053202D01*
X0109588Y0053215D01*
X0109534Y0053224D01*
X0109479Y0053230D01*
X0109424Y0053232D01*
X0109424Y0053231D02*
X0108618Y0053231D01*
X0109424Y0053232D02*
X0109473Y0053234D01*
X0109522Y0053240D01*
X0109571Y0053249D01*
X0109618Y0053262D01*
X0109665Y0053279D01*
X0109710Y0053299D01*
X0109753Y0053322D01*
X0109795Y0053349D01*
X0109834Y0053379D01*
X0109871Y0053412D01*
X0109905Y0053448D01*
X0109936Y0053486D01*
X0109965Y0053526D01*
X0109990Y0053568D01*
X0110012Y0053613D01*
X0110030Y0053658D01*
X0110045Y0053705D01*
X0110056Y0053753D01*
X0110064Y0053802D01*
X0110068Y0053851D01*
X0110068Y0053901D01*
X0110064Y0053950D01*
X0110056Y0053999D01*
X0110045Y0054047D01*
X0110030Y0054094D01*
X0110012Y0054139D01*
X0109990Y0054184D01*
X0109965Y0054226D01*
X0109936Y0054266D01*
X0109905Y0054304D01*
X0109871Y0054340D01*
X0109834Y0054373D01*
X0109795Y0054403D01*
X0109753Y0054430D01*
X0109710Y0054453D01*
X0109665Y0054473D01*
X0109618Y0054490D01*
X0109571Y0054503D01*
X0109522Y0054512D01*
X0109473Y0054518D01*
X0109424Y0054520D01*
X0108618Y0054520D01*
X0108618Y0051620D01*
X0109424Y0051620D01*
D18*
X0185985Y0015276D02*
X0185987Y0015315D01*
X0185993Y0015354D01*
X0186003Y0015392D01*
X0186016Y0015429D01*
X0186033Y0015464D01*
X0186053Y0015498D01*
X0186077Y0015529D01*
X0186104Y0015558D01*
X0186133Y0015584D01*
X0186165Y0015607D01*
X0186199Y0015627D01*
X0186235Y0015643D01*
X0186272Y0015655D01*
X0186311Y0015664D01*
X0186350Y0015669D01*
X0186389Y0015670D01*
X0186428Y0015667D01*
X0186467Y0015660D01*
X0186504Y0015649D01*
X0186541Y0015635D01*
X0186576Y0015617D01*
X0186609Y0015596D01*
X0186640Y0015571D01*
X0186668Y0015544D01*
X0186693Y0015514D01*
X0186715Y0015481D01*
X0186734Y0015447D01*
X0186749Y0015411D01*
X0186761Y0015373D01*
X0186769Y0015335D01*
X0186773Y0015296D01*
X0186773Y0015256D01*
X0186769Y0015217D01*
X0186761Y0015179D01*
X0186749Y0015141D01*
X0186734Y0015105D01*
X0186715Y0015071D01*
X0186693Y0015038D01*
X0186668Y0015008D01*
X0186640Y0014981D01*
X0186609Y0014956D01*
X0186576Y0014935D01*
X0186541Y0014917D01*
X0186504Y0014903D01*
X0186467Y0014892D01*
X0186428Y0014885D01*
X0186389Y0014882D01*
X0186350Y0014883D01*
X0186311Y0014888D01*
X0186272Y0014897D01*
X0186235Y0014909D01*
X0186199Y0014925D01*
X0186165Y0014945D01*
X0186133Y0014968D01*
X0186104Y0014994D01*
X0186077Y0015023D01*
X0186053Y0015054D01*
X0186033Y0015088D01*
X0186016Y0015123D01*
X0186003Y0015160D01*
X0185993Y0015198D01*
X0185987Y0015237D01*
X0185985Y0015276D01*
D19*
X0130522Y0084684D02*
X0125622Y0087951D01*
X0126711Y0089997D02*
X0125622Y0091358D01*
X0130522Y0091358D01*
X0130522Y0089997D02*
X0130522Y0092719D01*
X0130522Y0087951D02*
X0125622Y0084684D01*
M02*
