G75*
%MOIN*%
%OFA0B0*%
%FSLAX25Y25*%
%IPPOS*%
%LPD*%
%AMOC8*
5,1,8,0,0,1.08239X$1,22.5*
%
%ADD10C,0.02578*%
%ADD11C,0.00800*%
%ADD12C,0.01600*%
%ADD13C,0.00600*%
%ADD14C,0.01200*%
D10*
X0052481Y0036733D03*
X0087914Y0032796D03*
X0087914Y0024922D03*
X0095788Y0019607D03*
X0103662Y0020001D03*
X0087914Y0017048D03*
X0110749Y0038702D03*
X0105237Y0040670D03*
X0110749Y0042639D03*
X0104056Y0048150D03*
X0118229Y0042639D03*
X0123347Y0040670D03*
X0118229Y0038702D03*
X0141457Y0040670D03*
X0148347Y0036733D03*
X0156745Y0030760D03*
X0165276Y0036733D03*
X0166654Y0024922D03*
X0166654Y0013111D03*
X0186339Y0028859D03*
X0198150Y0032796D03*
X0206024Y0024922D03*
X0154843Y0065473D03*
X0141064Y0058387D03*
X0141064Y0054450D03*
X0135946Y0054450D03*
X0135946Y0058387D03*
X0123347Y0062914D03*
X0115473Y0062914D03*
X0095788Y0068229D03*
X0087914Y0063898D03*
X0087914Y0056418D03*
X0087914Y0048544D03*
X0087914Y0040670D03*
X0135158Y0017442D03*
X0140276Y0017442D03*
X0186339Y0080040D03*
X0170591Y0091851D03*
X0170591Y0098077D03*
X0168623Y0105631D03*
X0176453Y0105587D03*
X0184371Y0105631D03*
X0168229Y0117048D03*
X0186339Y0127284D03*
X0194213Y0123347D03*
X0194213Y0119410D03*
X0198150Y0131221D03*
X0198150Y0139095D03*
X0190276Y0139095D03*
X0170591Y0135158D03*
X0166654Y0135158D03*
X0166654Y0131221D03*
X0170591Y0131221D03*
X0146969Y0115473D03*
X0135158Y0115473D03*
X0135158Y0123347D03*
X0135158Y0127284D03*
X0132402Y0131418D03*
X0127284Y0139095D03*
X0109568Y0139095D03*
X0109568Y0135158D03*
X0095788Y0132599D03*
X0108781Y0115276D03*
X0111536Y0111536D03*
X0111536Y0103662D03*
X0119410Y0099725D03*
X0111536Y0095788D03*
X0103662Y0087914D03*
X0095788Y0095788D03*
X0087914Y0091851D03*
X0087914Y0083977D03*
X0102087Y0104056D03*
X0091851Y0107599D03*
X0091851Y0111536D03*
X0052481Y0111536D03*
X0052481Y0091851D03*
X0131221Y0103662D03*
X0137127Y0105631D03*
X0217835Y0111536D03*
D11*
X0194213Y0123347D02*
X0146969Y0123347D01*
X0139095Y0115473D01*
X0139095Y0107599D01*
X0137127Y0105631D01*
X0152306Y0089314D02*
X0113636Y0089314D01*
X0100425Y0076103D01*
X0076103Y0076103D01*
X0052481Y0052481D01*
X0052481Y0036733D01*
X0095788Y0020985D02*
X0095788Y0019607D01*
X0095788Y0020985D02*
X0099725Y0024922D01*
X0136536Y0024922D01*
X0148347Y0036733D01*
X0150228Y0036733D01*
X0152517Y0039022D01*
X0154413Y0039022D01*
X0156702Y0036733D01*
X0165276Y0036733D01*
X0156745Y0030760D02*
X0145985Y0020001D01*
X0103662Y0020001D01*
X0095788Y0068229D02*
X0115473Y0087914D01*
X0175316Y0087914D01*
X0176891Y0089489D01*
X0176891Y0105150D01*
X0176453Y0105587D01*
X0179646Y0105631D02*
X0184371Y0105631D01*
X0179646Y0105631D02*
X0168229Y0117048D01*
X0168623Y0105631D02*
X0152306Y0089314D01*
X0170591Y0091851D02*
X0170591Y0098077D01*
X0132402Y0131418D02*
X0096969Y0131418D01*
X0095788Y0132599D01*
D12*
X0108781Y0115276D02*
X0056221Y0115276D01*
X0052481Y0111536D01*
X0060355Y0099725D02*
X0115473Y0099725D01*
X0135158Y0115473D01*
X0060355Y0099725D02*
X0052481Y0091851D01*
D13*
X0045907Y0063471D02*
X0045907Y0013932D01*
X0053302Y0006537D01*
X0142070Y0006537D01*
X0150244Y0014711D01*
X0159443Y0014711D01*
X0160380Y0013774D01*
X0167617Y0006537D01*
X0217014Y0006537D01*
X0224409Y0013932D01*
X0224409Y0044307D01*
X0198026Y0044307D01*
X0197850Y0044483D01*
X0197850Y0107723D01*
X0198026Y0107899D01*
X0224409Y0107899D01*
X0224409Y0138274D01*
X0217014Y0145669D01*
X0167617Y0145669D01*
X0159443Y0137495D01*
X0150244Y0137495D01*
X0149306Y0138433D01*
X0142070Y0145669D01*
X0053302Y0145669D01*
X0045907Y0138274D01*
X0045907Y0088735D01*
X0053981Y0080661D01*
X0053981Y0071545D01*
X0045907Y0063471D01*
X0045907Y0063293D02*
X0061454Y0063293D01*
X0062053Y0063891D02*
X0046327Y0063891D01*
X0046926Y0064490D02*
X0062651Y0064490D01*
X0063250Y0065088D02*
X0047524Y0065088D01*
X0048123Y0065687D02*
X0063848Y0065687D01*
X0064447Y0066285D02*
X0048721Y0066285D01*
X0049320Y0066884D02*
X0065045Y0066884D01*
X0065644Y0067482D02*
X0049918Y0067482D01*
X0050517Y0068081D02*
X0066242Y0068081D01*
X0066841Y0068679D02*
X0051115Y0068679D01*
X0051714Y0069278D02*
X0067439Y0069278D01*
X0068038Y0069876D02*
X0052313Y0069876D01*
X0052911Y0070475D02*
X0068636Y0070475D01*
X0069235Y0071073D02*
X0053510Y0071073D01*
X0053981Y0071672D02*
X0069833Y0071672D01*
X0070432Y0072270D02*
X0053981Y0072270D01*
X0053981Y0072869D02*
X0071030Y0072869D01*
X0071629Y0073467D02*
X0053981Y0073467D01*
X0053981Y0074066D02*
X0072227Y0074066D01*
X0072826Y0074664D02*
X0053981Y0074664D01*
X0053981Y0075263D02*
X0073424Y0075263D01*
X0074023Y0075861D02*
X0053981Y0075861D01*
X0053981Y0076460D02*
X0074621Y0076460D01*
X0075220Y0077058D02*
X0053981Y0077058D01*
X0053981Y0077657D02*
X0100140Y0077657D01*
X0099887Y0077403D02*
X0075565Y0077403D01*
X0051943Y0053781D01*
X0051181Y0053020D01*
X0051181Y0038529D01*
X0050292Y0037640D01*
X0050292Y0035826D01*
X0051574Y0034544D01*
X0053388Y0034544D01*
X0054670Y0035826D01*
X0054670Y0037640D01*
X0053781Y0038529D01*
X0053781Y0051943D01*
X0076642Y0074803D01*
X0100524Y0074803D01*
X0096139Y0070418D01*
X0094881Y0070418D01*
X0093599Y0069136D01*
X0093599Y0067322D01*
X0094881Y0066040D01*
X0096695Y0066040D01*
X0097977Y0067322D01*
X0097977Y0068580D01*
X0116012Y0086614D01*
X0175854Y0086614D01*
X0176616Y0087376D01*
X0177429Y0088189D01*
X0178191Y0088950D01*
X0178191Y0104229D01*
X0178642Y0104680D01*
X0178642Y0104797D01*
X0179108Y0104331D01*
X0182575Y0104331D01*
X0183464Y0103442D01*
X0185278Y0103442D01*
X0186560Y0104724D01*
X0186560Y0106537D01*
X0185278Y0107820D01*
X0183464Y0107820D01*
X0182575Y0106931D01*
X0180185Y0106931D01*
X0170418Y0116698D01*
X0170418Y0117955D01*
X0169136Y0119237D01*
X0167322Y0119237D01*
X0166040Y0117955D01*
X0166040Y0116141D01*
X0167322Y0114859D01*
X0168580Y0114859D01*
X0175663Y0107776D01*
X0175546Y0107776D01*
X0174264Y0106494D01*
X0174264Y0104680D01*
X0175546Y0103398D01*
X0175591Y0103398D01*
X0175591Y0090027D01*
X0174777Y0089214D01*
X0154045Y0089214D01*
X0168272Y0103442D01*
X0169530Y0103442D01*
X0170812Y0104724D01*
X0170812Y0106537D01*
X0169530Y0107820D01*
X0167716Y0107820D01*
X0166434Y0106537D01*
X0166434Y0105280D01*
X0151768Y0090614D01*
X0113098Y0090614D01*
X0099887Y0077403D01*
X0100739Y0078255D02*
X0053981Y0078255D01*
X0053981Y0078854D02*
X0101337Y0078854D01*
X0101936Y0079452D02*
X0053981Y0079452D01*
X0053981Y0080051D02*
X0102534Y0080051D01*
X0103133Y0080649D02*
X0053981Y0080649D01*
X0053395Y0081248D02*
X0103731Y0081248D01*
X0104330Y0081846D02*
X0052796Y0081846D01*
X0052198Y0082445D02*
X0104928Y0082445D01*
X0105527Y0083043D02*
X0051599Y0083043D01*
X0051001Y0083642D02*
X0106125Y0083642D01*
X0106724Y0084241D02*
X0050402Y0084241D01*
X0049804Y0084839D02*
X0107322Y0084839D01*
X0107921Y0085438D02*
X0049205Y0085438D01*
X0048607Y0086036D02*
X0108520Y0086036D01*
X0109118Y0086635D02*
X0048008Y0086635D01*
X0047410Y0087233D02*
X0109717Y0087233D01*
X0110315Y0087832D02*
X0046811Y0087832D01*
X0046212Y0088430D02*
X0110914Y0088430D01*
X0111512Y0089029D02*
X0045907Y0089029D01*
X0045907Y0089627D02*
X0112111Y0089627D01*
X0112709Y0090226D02*
X0053951Y0090226D01*
X0053388Y0089662D02*
X0054670Y0090944D01*
X0054670Y0091636D01*
X0061059Y0098025D01*
X0115379Y0098025D01*
X0115985Y0097958D01*
X0116070Y0098025D01*
X0116177Y0098025D01*
X0116609Y0098457D01*
X0135143Y0113284D01*
X0136065Y0113284D01*
X0137347Y0114567D01*
X0137347Y0116380D01*
X0136065Y0117662D01*
X0134252Y0117662D01*
X0132969Y0116380D01*
X0132969Y0115899D01*
X0114877Y0101425D01*
X0059651Y0101425D01*
X0058655Y0100429D01*
X0052266Y0094040D01*
X0051574Y0094040D01*
X0050292Y0092758D01*
X0050292Y0090944D01*
X0051574Y0089662D01*
X0053388Y0089662D01*
X0054550Y0090824D02*
X0151978Y0090824D01*
X0152576Y0091423D02*
X0054670Y0091423D01*
X0055055Y0092021D02*
X0153175Y0092021D01*
X0153773Y0092620D02*
X0055654Y0092620D01*
X0056252Y0093218D02*
X0154372Y0093218D01*
X0154970Y0093817D02*
X0056851Y0093817D01*
X0057449Y0094415D02*
X0155569Y0094415D01*
X0156167Y0095014D02*
X0058048Y0095014D01*
X0058646Y0095612D02*
X0156766Y0095612D01*
X0157364Y0096211D02*
X0059245Y0096211D01*
X0059843Y0096809D02*
X0157963Y0096809D01*
X0158561Y0097408D02*
X0060442Y0097408D01*
X0061040Y0098006D02*
X0115550Y0098006D01*
X0116046Y0098006D02*
X0159160Y0098006D01*
X0159758Y0098605D02*
X0116794Y0098605D01*
X0117542Y0099203D02*
X0160357Y0099203D01*
X0160955Y0099802D02*
X0118290Y0099802D01*
X0119038Y0100400D02*
X0161554Y0100400D01*
X0162152Y0100999D02*
X0119787Y0100999D01*
X0120535Y0101597D02*
X0162751Y0101597D01*
X0163349Y0102196D02*
X0121283Y0102196D01*
X0122031Y0102794D02*
X0163948Y0102794D01*
X0164547Y0103393D02*
X0122779Y0103393D01*
X0123527Y0103991D02*
X0135670Y0103991D01*
X0136220Y0103442D02*
X0134938Y0104724D01*
X0134938Y0106537D01*
X0136220Y0107820D01*
X0137477Y0107820D01*
X0137795Y0108138D01*
X0137795Y0116012D01*
X0138557Y0116773D01*
X0146431Y0124647D01*
X0192418Y0124647D01*
X0193307Y0125536D01*
X0195120Y0125536D01*
X0196402Y0124254D01*
X0196402Y0122441D01*
X0195120Y0121158D01*
X0193307Y0121158D01*
X0192418Y0122047D01*
X0147508Y0122047D01*
X0140395Y0114935D01*
X0140395Y0107061D01*
X0139316Y0105981D01*
X0139316Y0104724D01*
X0138033Y0103442D01*
X0136220Y0103442D01*
X0135072Y0104590D02*
X0124275Y0104590D01*
X0125024Y0105188D02*
X0134938Y0105188D01*
X0134938Y0105787D02*
X0125772Y0105787D01*
X0126520Y0106385D02*
X0134938Y0106385D01*
X0135384Y0106984D02*
X0127268Y0106984D01*
X0128016Y0107582D02*
X0135983Y0107582D01*
X0137795Y0108181D02*
X0128764Y0108181D01*
X0129512Y0108779D02*
X0137795Y0108779D01*
X0137795Y0109378D02*
X0130261Y0109378D01*
X0131009Y0109976D02*
X0137795Y0109976D01*
X0137795Y0110575D02*
X0131757Y0110575D01*
X0132505Y0111174D02*
X0137795Y0111174D01*
X0137795Y0111772D02*
X0133253Y0111772D01*
X0134001Y0112371D02*
X0137795Y0112371D01*
X0137795Y0112969D02*
X0134749Y0112969D01*
X0136348Y0113568D02*
X0137795Y0113568D01*
X0137795Y0114166D02*
X0136947Y0114166D01*
X0137347Y0114765D02*
X0137795Y0114765D01*
X0137795Y0115363D02*
X0137347Y0115363D01*
X0137347Y0115962D02*
X0137795Y0115962D01*
X0138344Y0116560D02*
X0137167Y0116560D01*
X0136569Y0117159D02*
X0138942Y0117159D01*
X0139541Y0117757D02*
X0045907Y0117757D01*
X0045907Y0117159D02*
X0107567Y0117159D01*
X0107385Y0116976D02*
X0055517Y0116976D01*
X0052266Y0113725D01*
X0051574Y0113725D01*
X0050292Y0112443D01*
X0050292Y0110630D01*
X0051574Y0109347D01*
X0053388Y0109347D01*
X0054670Y0110630D01*
X0054670Y0111321D01*
X0056925Y0113576D01*
X0107385Y0113576D01*
X0107874Y0113087D01*
X0109687Y0113087D01*
X0110970Y0114370D01*
X0110970Y0116183D01*
X0109687Y0117465D01*
X0107874Y0117465D01*
X0107385Y0116976D01*
X0109994Y0117159D02*
X0133748Y0117159D01*
X0133149Y0116560D02*
X0110593Y0116560D01*
X0110970Y0115962D02*
X0132969Y0115962D01*
X0132299Y0115363D02*
X0110970Y0115363D01*
X0110970Y0114765D02*
X0131551Y0114765D01*
X0130803Y0114166D02*
X0110766Y0114166D01*
X0110168Y0113568D02*
X0130055Y0113568D01*
X0129307Y0112969D02*
X0056318Y0112969D01*
X0055720Y0112371D02*
X0128559Y0112371D01*
X0127810Y0111772D02*
X0055121Y0111772D01*
X0054670Y0111174D02*
X0127062Y0111174D01*
X0126314Y0110575D02*
X0054616Y0110575D01*
X0054017Y0109976D02*
X0125566Y0109976D01*
X0124818Y0109378D02*
X0053419Y0109378D01*
X0051544Y0109378D02*
X0045907Y0109378D01*
X0045907Y0109976D02*
X0050945Y0109976D01*
X0050347Y0110575D02*
X0045907Y0110575D01*
X0045907Y0111174D02*
X0050292Y0111174D01*
X0050292Y0111772D02*
X0045907Y0111772D01*
X0045907Y0112371D02*
X0050292Y0112371D01*
X0050818Y0112969D02*
X0045907Y0112969D01*
X0045907Y0113568D02*
X0051417Y0113568D01*
X0052707Y0114166D02*
X0045907Y0114166D01*
X0045907Y0114765D02*
X0053305Y0114765D01*
X0053904Y0115363D02*
X0045907Y0115363D01*
X0045907Y0115962D02*
X0054502Y0115962D01*
X0055101Y0116560D02*
X0045907Y0116560D01*
X0045907Y0118356D02*
X0140139Y0118356D01*
X0140738Y0118954D02*
X0045907Y0118954D01*
X0045907Y0119553D02*
X0141336Y0119553D01*
X0141935Y0120151D02*
X0045907Y0120151D01*
X0045907Y0120750D02*
X0142533Y0120750D01*
X0143132Y0121348D02*
X0045907Y0121348D01*
X0045907Y0121947D02*
X0143730Y0121947D01*
X0144329Y0122545D02*
X0045907Y0122545D01*
X0045907Y0123144D02*
X0144927Y0123144D01*
X0145526Y0123742D02*
X0045907Y0123742D01*
X0045907Y0124341D02*
X0146124Y0124341D01*
X0147407Y0121947D02*
X0192518Y0121947D01*
X0193117Y0121348D02*
X0146809Y0121348D01*
X0146210Y0120750D02*
X0224409Y0120750D01*
X0224409Y0121348D02*
X0195310Y0121348D01*
X0195909Y0121947D02*
X0224409Y0121947D01*
X0224409Y0122545D02*
X0196402Y0122545D01*
X0196402Y0123144D02*
X0224409Y0123144D01*
X0224409Y0123742D02*
X0196402Y0123742D01*
X0196316Y0124341D02*
X0224409Y0124341D01*
X0224409Y0124939D02*
X0195717Y0124939D01*
X0192710Y0124939D02*
X0045907Y0124939D01*
X0045907Y0125538D02*
X0224409Y0125538D01*
X0224409Y0126136D02*
X0045907Y0126136D01*
X0045907Y0126735D02*
X0224409Y0126735D01*
X0224409Y0127333D02*
X0045907Y0127333D01*
X0045907Y0127932D02*
X0224409Y0127932D01*
X0224409Y0128530D02*
X0045907Y0128530D01*
X0045907Y0129129D02*
X0224409Y0129129D01*
X0224409Y0129727D02*
X0133807Y0129727D01*
X0133309Y0129229D02*
X0131496Y0129229D01*
X0130607Y0130118D01*
X0096431Y0130118D01*
X0096139Y0130410D01*
X0094881Y0130410D01*
X0093599Y0131693D01*
X0093599Y0133506D01*
X0094881Y0134788D01*
X0096695Y0134788D01*
X0097977Y0133506D01*
X0097977Y0132718D01*
X0130607Y0132718D01*
X0131496Y0133607D01*
X0133309Y0133607D01*
X0134591Y0132325D01*
X0134591Y0130511D01*
X0133309Y0129229D01*
X0134406Y0130326D02*
X0224409Y0130326D01*
X0224409Y0130924D02*
X0134591Y0130924D01*
X0134591Y0131523D02*
X0224409Y0131523D01*
X0224409Y0132121D02*
X0134591Y0132121D01*
X0134196Y0132720D02*
X0224409Y0132720D01*
X0224409Y0133318D02*
X0133598Y0133318D01*
X0131207Y0133318D02*
X0097977Y0133318D01*
X0097977Y0132720D02*
X0130609Y0132720D01*
X0130997Y0129727D02*
X0045907Y0129727D01*
X0045907Y0130326D02*
X0096223Y0130326D01*
X0094367Y0130924D02*
X0045907Y0130924D01*
X0045907Y0131523D02*
X0093769Y0131523D01*
X0093599Y0132121D02*
X0045907Y0132121D01*
X0045907Y0132720D02*
X0093599Y0132720D01*
X0093599Y0133318D02*
X0045907Y0133318D01*
X0045907Y0133917D02*
X0094010Y0133917D01*
X0094609Y0134515D02*
X0045907Y0134515D01*
X0045907Y0135114D02*
X0224409Y0135114D01*
X0224409Y0135712D02*
X0045907Y0135712D01*
X0045907Y0136311D02*
X0224409Y0136311D01*
X0224409Y0136909D02*
X0045907Y0136909D01*
X0045907Y0137508D02*
X0150231Y0137508D01*
X0149632Y0138107D02*
X0045907Y0138107D01*
X0046338Y0138705D02*
X0149034Y0138705D01*
X0148435Y0139304D02*
X0046937Y0139304D01*
X0047535Y0139902D02*
X0147837Y0139902D01*
X0147238Y0140501D02*
X0048134Y0140501D01*
X0048732Y0141099D02*
X0146640Y0141099D01*
X0146041Y0141698D02*
X0049331Y0141698D01*
X0049929Y0142296D02*
X0145443Y0142296D01*
X0144844Y0142895D02*
X0050528Y0142895D01*
X0051126Y0143493D02*
X0144246Y0143493D01*
X0143647Y0144092D02*
X0051725Y0144092D01*
X0052323Y0144690D02*
X0143049Y0144690D01*
X0142450Y0145289D02*
X0052922Y0145289D01*
X0096968Y0134515D02*
X0224409Y0134515D01*
X0224409Y0133917D02*
X0097566Y0133917D01*
X0107394Y0113568D02*
X0056917Y0113568D01*
X0045907Y0108779D02*
X0124070Y0108779D01*
X0123322Y0108181D02*
X0045907Y0108181D01*
X0045907Y0107582D02*
X0122573Y0107582D01*
X0121825Y0106984D02*
X0045907Y0106984D01*
X0045907Y0106385D02*
X0121077Y0106385D01*
X0120329Y0105787D02*
X0045907Y0105787D01*
X0045907Y0105188D02*
X0119581Y0105188D01*
X0118833Y0104590D02*
X0045907Y0104590D01*
X0045907Y0103991D02*
X0118085Y0103991D01*
X0117337Y0103393D02*
X0045907Y0103393D01*
X0045907Y0102794D02*
X0116588Y0102794D01*
X0115840Y0102196D02*
X0045907Y0102196D01*
X0045907Y0101597D02*
X0115092Y0101597D01*
X0115434Y0086036D02*
X0197850Y0086036D01*
X0197850Y0085438D02*
X0114835Y0085438D01*
X0114237Y0084839D02*
X0197850Y0084839D01*
X0197850Y0084241D02*
X0113638Y0084241D01*
X0113040Y0083642D02*
X0197850Y0083642D01*
X0197850Y0083043D02*
X0112441Y0083043D01*
X0111842Y0082445D02*
X0197850Y0082445D01*
X0197850Y0081846D02*
X0111244Y0081846D01*
X0110645Y0081248D02*
X0197850Y0081248D01*
X0197850Y0080649D02*
X0110047Y0080649D01*
X0109448Y0080051D02*
X0197850Y0080051D01*
X0197850Y0079452D02*
X0108850Y0079452D01*
X0108251Y0078854D02*
X0197850Y0078854D01*
X0197850Y0078255D02*
X0107653Y0078255D01*
X0107054Y0077657D02*
X0197850Y0077657D01*
X0197850Y0077058D02*
X0106456Y0077058D01*
X0105857Y0076460D02*
X0197850Y0076460D01*
X0197850Y0075861D02*
X0105259Y0075861D01*
X0104660Y0075263D02*
X0197850Y0075263D01*
X0197850Y0074664D02*
X0104062Y0074664D01*
X0103463Y0074066D02*
X0197850Y0074066D01*
X0197850Y0073467D02*
X0102865Y0073467D01*
X0102266Y0072869D02*
X0197850Y0072869D01*
X0197850Y0072270D02*
X0101668Y0072270D01*
X0101069Y0071672D02*
X0197850Y0071672D01*
X0197850Y0071073D02*
X0100471Y0071073D01*
X0099872Y0070475D02*
X0197850Y0070475D01*
X0197850Y0069876D02*
X0099274Y0069876D01*
X0098675Y0069278D02*
X0197850Y0069278D01*
X0197850Y0068679D02*
X0098077Y0068679D01*
X0097977Y0068081D02*
X0197850Y0068081D01*
X0197850Y0067482D02*
X0097977Y0067482D01*
X0097538Y0066884D02*
X0197850Y0066884D01*
X0197850Y0066285D02*
X0096940Y0066285D01*
X0094636Y0066285D02*
X0068124Y0066285D01*
X0068722Y0066884D02*
X0094038Y0066884D01*
X0093599Y0067482D02*
X0069321Y0067482D01*
X0069919Y0068081D02*
X0093599Y0068081D01*
X0093599Y0068679D02*
X0070518Y0068679D01*
X0071116Y0069278D02*
X0093741Y0069278D01*
X0094340Y0069876D02*
X0071715Y0069876D01*
X0072313Y0070475D02*
X0096195Y0070475D01*
X0096794Y0071073D02*
X0072912Y0071073D01*
X0073510Y0071672D02*
X0097392Y0071672D01*
X0097991Y0072270D02*
X0074109Y0072270D01*
X0074707Y0072869D02*
X0098589Y0072869D01*
X0099188Y0073467D02*
X0075306Y0073467D01*
X0075904Y0074066D02*
X0099786Y0074066D01*
X0100385Y0074664D02*
X0076503Y0074664D01*
X0067525Y0065687D02*
X0197850Y0065687D01*
X0197850Y0065088D02*
X0124269Y0065088D01*
X0124254Y0065103D02*
X0122441Y0065103D01*
X0121752Y0064414D01*
X0117069Y0064414D01*
X0116380Y0065103D01*
X0114567Y0065103D01*
X0113284Y0063821D01*
X0113284Y0062007D01*
X0114567Y0060725D01*
X0116380Y0060725D01*
X0117069Y0061414D01*
X0121752Y0061414D01*
X0122441Y0060725D01*
X0124254Y0060725D01*
X0125536Y0062007D01*
X0125536Y0063821D01*
X0124254Y0065103D01*
X0124867Y0064490D02*
X0197850Y0064490D01*
X0197850Y0063891D02*
X0125466Y0063891D01*
X0125536Y0063293D02*
X0197850Y0063293D01*
X0197850Y0062694D02*
X0125536Y0062694D01*
X0125536Y0062096D02*
X0197850Y0062096D01*
X0197850Y0061497D02*
X0125026Y0061497D01*
X0124427Y0060899D02*
X0197850Y0060899D01*
X0197850Y0060300D02*
X0062139Y0060300D01*
X0062737Y0060899D02*
X0114393Y0060899D01*
X0113795Y0061497D02*
X0063336Y0061497D01*
X0063934Y0062096D02*
X0113284Y0062096D01*
X0113284Y0062694D02*
X0064533Y0062694D01*
X0065131Y0063293D02*
X0113284Y0063293D01*
X0113355Y0063891D02*
X0065730Y0063891D01*
X0066328Y0064490D02*
X0113953Y0064490D01*
X0114552Y0065088D02*
X0066927Y0065088D01*
X0060856Y0062694D02*
X0045907Y0062694D01*
X0045907Y0062096D02*
X0060257Y0062096D01*
X0059659Y0061497D02*
X0045907Y0061497D01*
X0045907Y0060899D02*
X0059060Y0060899D01*
X0058462Y0060300D02*
X0045907Y0060300D01*
X0045907Y0059702D02*
X0057863Y0059702D01*
X0057265Y0059103D02*
X0045907Y0059103D01*
X0045907Y0058505D02*
X0056666Y0058505D01*
X0056068Y0057906D02*
X0045907Y0057906D01*
X0045907Y0057307D02*
X0055469Y0057307D01*
X0054871Y0056709D02*
X0045907Y0056709D01*
X0045907Y0056110D02*
X0054272Y0056110D01*
X0053673Y0055512D02*
X0045907Y0055512D01*
X0045907Y0054913D02*
X0053075Y0054913D01*
X0052476Y0054315D02*
X0045907Y0054315D01*
X0045907Y0053716D02*
X0051878Y0053716D01*
X0051279Y0053118D02*
X0045907Y0053118D01*
X0045907Y0052519D02*
X0051181Y0052519D01*
X0051181Y0051921D02*
X0045907Y0051921D01*
X0045907Y0051322D02*
X0051181Y0051322D01*
X0051181Y0050724D02*
X0045907Y0050724D01*
X0045907Y0050125D02*
X0051181Y0050125D01*
X0051181Y0049527D02*
X0045907Y0049527D01*
X0045907Y0048928D02*
X0051181Y0048928D01*
X0051181Y0048330D02*
X0045907Y0048330D01*
X0045907Y0047731D02*
X0051181Y0047731D01*
X0051181Y0047133D02*
X0045907Y0047133D01*
X0045907Y0046534D02*
X0051181Y0046534D01*
X0051181Y0045936D02*
X0045907Y0045936D01*
X0045907Y0045337D02*
X0051181Y0045337D01*
X0051181Y0044739D02*
X0045907Y0044739D01*
X0045907Y0044140D02*
X0051181Y0044140D01*
X0051181Y0043542D02*
X0045907Y0043542D01*
X0045907Y0042943D02*
X0051181Y0042943D01*
X0051181Y0042345D02*
X0045907Y0042345D01*
X0045907Y0041746D02*
X0051181Y0041746D01*
X0051181Y0041148D02*
X0045907Y0041148D01*
X0045907Y0040549D02*
X0051181Y0040549D01*
X0051181Y0039951D02*
X0045907Y0039951D01*
X0045907Y0039352D02*
X0051181Y0039352D01*
X0051181Y0038754D02*
X0045907Y0038754D01*
X0045907Y0038155D02*
X0050808Y0038155D01*
X0050292Y0037557D02*
X0045907Y0037557D01*
X0045907Y0036958D02*
X0050292Y0036958D01*
X0050292Y0036360D02*
X0045907Y0036360D01*
X0045907Y0035761D02*
X0050357Y0035761D01*
X0050956Y0035163D02*
X0045907Y0035163D01*
X0045907Y0034564D02*
X0051554Y0034564D01*
X0053408Y0034564D02*
X0144340Y0034564D01*
X0144938Y0035163D02*
X0054006Y0035163D01*
X0054605Y0035761D02*
X0145537Y0035761D01*
X0146135Y0036360D02*
X0054670Y0036360D01*
X0054670Y0036958D02*
X0146158Y0036958D01*
X0146158Y0036383D02*
X0146158Y0037640D01*
X0147441Y0038922D01*
X0149254Y0038922D01*
X0149916Y0038260D01*
X0151979Y0040322D01*
X0153056Y0040322D01*
X0153875Y0040322D01*
X0154952Y0040322D01*
X0157241Y0038033D01*
X0163481Y0038033D01*
X0164370Y0038922D01*
X0166183Y0038922D01*
X0167465Y0037640D01*
X0167465Y0035826D01*
X0166183Y0034544D01*
X0164370Y0034544D01*
X0163481Y0035433D01*
X0156164Y0035433D01*
X0153875Y0037722D01*
X0153056Y0037722D01*
X0150767Y0035433D01*
X0150143Y0035433D01*
X0149254Y0034544D01*
X0147997Y0034544D01*
X0137836Y0024384D01*
X0137075Y0023622D01*
X0100264Y0023622D01*
X0097566Y0020925D01*
X0097977Y0020514D01*
X0097977Y0018700D01*
X0096695Y0017418D01*
X0094881Y0017418D01*
X0093599Y0018700D01*
X0093599Y0020514D01*
X0094488Y0021403D01*
X0094488Y0021524D01*
X0099187Y0026222D01*
X0135998Y0026222D01*
X0146158Y0036383D01*
X0146158Y0037557D02*
X0054670Y0037557D01*
X0054155Y0038155D02*
X0146674Y0038155D01*
X0147272Y0038754D02*
X0053781Y0038754D01*
X0053781Y0039352D02*
X0151009Y0039352D01*
X0150410Y0038754D02*
X0149422Y0038754D01*
X0151607Y0039951D02*
X0053781Y0039951D01*
X0053781Y0040549D02*
X0224409Y0040549D01*
X0224409Y0039951D02*
X0155323Y0039951D01*
X0155922Y0039352D02*
X0224409Y0039352D01*
X0224409Y0038754D02*
X0166351Y0038754D01*
X0166950Y0038155D02*
X0224409Y0038155D01*
X0224409Y0037557D02*
X0167465Y0037557D01*
X0167465Y0036958D02*
X0224409Y0036958D01*
X0224409Y0036360D02*
X0167465Y0036360D01*
X0167400Y0035761D02*
X0224409Y0035761D01*
X0224409Y0035163D02*
X0166802Y0035163D01*
X0166203Y0034564D02*
X0224409Y0034564D01*
X0224409Y0033966D02*
X0147418Y0033966D01*
X0146820Y0033367D02*
X0224409Y0033367D01*
X0224409Y0032769D02*
X0157832Y0032769D01*
X0157651Y0032949D02*
X0155838Y0032949D01*
X0154556Y0031667D01*
X0154556Y0030410D01*
X0145447Y0021301D01*
X0105458Y0021301D01*
X0104569Y0022190D01*
X0102755Y0022190D01*
X0101473Y0020907D01*
X0101473Y0019094D01*
X0102755Y0017812D01*
X0104569Y0017812D01*
X0105458Y0018701D01*
X0146524Y0018701D01*
X0156394Y0028571D01*
X0157651Y0028571D01*
X0158934Y0029854D01*
X0158934Y0031667D01*
X0157651Y0032949D01*
X0158431Y0032170D02*
X0224409Y0032170D01*
X0224409Y0031572D02*
X0158934Y0031572D01*
X0158934Y0030973D02*
X0224409Y0030973D01*
X0224409Y0030374D02*
X0158934Y0030374D01*
X0158856Y0029776D02*
X0224409Y0029776D01*
X0224409Y0029177D02*
X0158257Y0029177D01*
X0157659Y0028579D02*
X0224409Y0028579D01*
X0224409Y0027980D02*
X0155803Y0027980D01*
X0155205Y0027382D02*
X0224409Y0027382D01*
X0224409Y0026783D02*
X0154606Y0026783D01*
X0154008Y0026185D02*
X0224409Y0026185D01*
X0224409Y0025586D02*
X0153409Y0025586D01*
X0152811Y0024988D02*
X0224409Y0024988D01*
X0224409Y0024389D02*
X0152212Y0024389D01*
X0151614Y0023791D02*
X0224409Y0023791D01*
X0224409Y0023192D02*
X0151015Y0023192D01*
X0150417Y0022594D02*
X0224409Y0022594D01*
X0224409Y0021995D02*
X0149818Y0021995D01*
X0149220Y0021397D02*
X0224409Y0021397D01*
X0224409Y0020798D02*
X0148621Y0020798D01*
X0148023Y0020200D02*
X0224409Y0020200D01*
X0224409Y0019601D02*
X0147424Y0019601D01*
X0146825Y0019003D02*
X0224409Y0019003D01*
X0224409Y0018404D02*
X0105161Y0018404D01*
X0102163Y0018404D02*
X0097681Y0018404D01*
X0097977Y0019003D02*
X0101565Y0019003D01*
X0101473Y0019601D02*
X0097977Y0019601D01*
X0097977Y0020200D02*
X0101473Y0020200D01*
X0101473Y0020798D02*
X0097693Y0020798D01*
X0098038Y0021397D02*
X0101963Y0021397D01*
X0102561Y0021995D02*
X0098637Y0021995D01*
X0099235Y0022594D02*
X0146740Y0022594D01*
X0147338Y0023192D02*
X0099834Y0023192D01*
X0097953Y0024988D02*
X0045907Y0024988D01*
X0045907Y0025586D02*
X0098551Y0025586D01*
X0099150Y0026185D02*
X0045907Y0026185D01*
X0045907Y0026783D02*
X0136559Y0026783D01*
X0137158Y0027382D02*
X0045907Y0027382D01*
X0045907Y0027980D02*
X0137756Y0027980D01*
X0138355Y0028579D02*
X0045907Y0028579D01*
X0045907Y0029177D02*
X0138953Y0029177D01*
X0139552Y0029776D02*
X0045907Y0029776D01*
X0045907Y0030374D02*
X0140150Y0030374D01*
X0140749Y0030973D02*
X0045907Y0030973D01*
X0045907Y0031572D02*
X0141347Y0031572D01*
X0141946Y0032170D02*
X0045907Y0032170D01*
X0045907Y0032769D02*
X0142544Y0032769D01*
X0143143Y0033367D02*
X0045907Y0033367D01*
X0045907Y0033966D02*
X0143741Y0033966D01*
X0145623Y0032170D02*
X0155059Y0032170D01*
X0154556Y0031572D02*
X0145024Y0031572D01*
X0144426Y0030973D02*
X0154556Y0030973D01*
X0154520Y0030374D02*
X0143827Y0030374D01*
X0143229Y0029776D02*
X0153922Y0029776D01*
X0153323Y0029177D02*
X0142630Y0029177D01*
X0142032Y0028579D02*
X0152725Y0028579D01*
X0152126Y0027980D02*
X0141433Y0027980D01*
X0140835Y0027382D02*
X0151528Y0027382D01*
X0150929Y0026783D02*
X0140236Y0026783D01*
X0139638Y0026185D02*
X0150331Y0026185D01*
X0149732Y0025586D02*
X0139039Y0025586D01*
X0138441Y0024988D02*
X0149134Y0024988D01*
X0148535Y0024389D02*
X0137842Y0024389D01*
X0137244Y0023791D02*
X0147937Y0023791D01*
X0146141Y0021995D02*
X0104763Y0021995D01*
X0105362Y0021397D02*
X0145543Y0021397D01*
X0149747Y0014215D02*
X0045907Y0014215D01*
X0045907Y0014813D02*
X0224409Y0014813D01*
X0224409Y0014215D02*
X0159939Y0014215D01*
X0160538Y0013616D02*
X0224093Y0013616D01*
X0223495Y0013018D02*
X0161136Y0013018D01*
X0161735Y0012419D02*
X0222896Y0012419D01*
X0222298Y0011821D02*
X0162333Y0011821D01*
X0162932Y0011222D02*
X0221699Y0011222D01*
X0221101Y0010624D02*
X0163530Y0010624D01*
X0164129Y0010025D02*
X0220502Y0010025D01*
X0219904Y0009427D02*
X0164727Y0009427D01*
X0165326Y0008828D02*
X0219305Y0008828D01*
X0218707Y0008230D02*
X0165924Y0008230D01*
X0166523Y0007631D02*
X0218108Y0007631D01*
X0217510Y0007033D02*
X0167122Y0007033D01*
X0149149Y0013616D02*
X0046223Y0013616D01*
X0046822Y0013018D02*
X0148550Y0013018D01*
X0147952Y0012419D02*
X0047420Y0012419D01*
X0048019Y0011821D02*
X0147353Y0011821D01*
X0146755Y0011222D02*
X0048617Y0011222D01*
X0049216Y0010624D02*
X0146156Y0010624D01*
X0145558Y0010025D02*
X0049814Y0010025D01*
X0050413Y0009427D02*
X0144959Y0009427D01*
X0144361Y0008828D02*
X0051011Y0008828D01*
X0051610Y0008230D02*
X0143762Y0008230D01*
X0143164Y0007631D02*
X0052208Y0007631D01*
X0052807Y0007033D02*
X0142565Y0007033D01*
X0146221Y0032769D02*
X0155657Y0032769D01*
X0155836Y0035761D02*
X0151095Y0035761D01*
X0151693Y0036360D02*
X0155237Y0036360D01*
X0154639Y0036958D02*
X0152292Y0036958D01*
X0152890Y0037557D02*
X0154040Y0037557D01*
X0156520Y0038754D02*
X0164201Y0038754D01*
X0163603Y0038155D02*
X0157119Y0038155D01*
X0163751Y0035163D02*
X0149872Y0035163D01*
X0149274Y0034564D02*
X0164350Y0034564D01*
X0197850Y0044739D02*
X0053781Y0044739D01*
X0053781Y0045337D02*
X0197850Y0045337D01*
X0197850Y0045936D02*
X0053781Y0045936D01*
X0053781Y0046534D02*
X0197850Y0046534D01*
X0197850Y0047133D02*
X0053781Y0047133D01*
X0053781Y0047731D02*
X0197850Y0047731D01*
X0197850Y0048330D02*
X0053781Y0048330D01*
X0053781Y0048928D02*
X0197850Y0048928D01*
X0197850Y0049527D02*
X0053781Y0049527D01*
X0053781Y0050125D02*
X0197850Y0050125D01*
X0197850Y0050724D02*
X0053781Y0050724D01*
X0053781Y0051322D02*
X0197850Y0051322D01*
X0197850Y0051921D02*
X0053781Y0051921D01*
X0054358Y0052519D02*
X0197850Y0052519D01*
X0197850Y0053118D02*
X0054956Y0053118D01*
X0055555Y0053716D02*
X0197850Y0053716D01*
X0197850Y0054315D02*
X0056153Y0054315D01*
X0056752Y0054913D02*
X0197850Y0054913D01*
X0197850Y0055512D02*
X0057350Y0055512D01*
X0057949Y0056110D02*
X0197850Y0056110D01*
X0197850Y0056709D02*
X0058547Y0056709D01*
X0059146Y0057307D02*
X0197850Y0057307D01*
X0197850Y0057906D02*
X0059744Y0057906D01*
X0060343Y0058505D02*
X0197850Y0058505D01*
X0197850Y0059103D02*
X0060941Y0059103D01*
X0061540Y0059702D02*
X0197850Y0059702D01*
X0224409Y0044140D02*
X0053781Y0044140D01*
X0053781Y0043542D02*
X0224409Y0043542D01*
X0224409Y0042943D02*
X0053781Y0042943D01*
X0053781Y0042345D02*
X0224409Y0042345D01*
X0224409Y0041746D02*
X0053781Y0041746D01*
X0053781Y0041148D02*
X0224409Y0041148D01*
X0224409Y0017806D02*
X0097083Y0017806D01*
X0094494Y0017806D02*
X0045907Y0017806D01*
X0045907Y0018404D02*
X0093895Y0018404D01*
X0093599Y0019003D02*
X0045907Y0019003D01*
X0045907Y0019601D02*
X0093599Y0019601D01*
X0093599Y0020200D02*
X0045907Y0020200D01*
X0045907Y0020798D02*
X0093884Y0020798D01*
X0094482Y0021397D02*
X0045907Y0021397D01*
X0045907Y0021995D02*
X0094960Y0021995D01*
X0095559Y0022594D02*
X0045907Y0022594D01*
X0045907Y0023192D02*
X0096157Y0023192D01*
X0096756Y0023791D02*
X0045907Y0023791D01*
X0045907Y0024389D02*
X0097354Y0024389D01*
X0045907Y0017207D02*
X0224409Y0017207D01*
X0224409Y0016609D02*
X0045907Y0016609D01*
X0045907Y0016010D02*
X0224409Y0016010D01*
X0224409Y0015412D02*
X0045907Y0015412D01*
X0116553Y0060899D02*
X0122267Y0060899D01*
X0121827Y0064490D02*
X0116993Y0064490D01*
X0116395Y0065088D02*
X0122426Y0065088D01*
X0154458Y0089627D02*
X0175190Y0089627D01*
X0175591Y0090226D02*
X0172061Y0090226D01*
X0171498Y0089662D02*
X0172780Y0090944D01*
X0172780Y0092758D01*
X0171891Y0093647D01*
X0171891Y0096281D01*
X0172780Y0097170D01*
X0172780Y0098984D01*
X0171498Y0100266D01*
X0169685Y0100266D01*
X0168402Y0098984D01*
X0168402Y0097170D01*
X0169291Y0096281D01*
X0169291Y0093647D01*
X0168402Y0092758D01*
X0168402Y0090944D01*
X0169685Y0089662D01*
X0171498Y0089662D01*
X0172660Y0090824D02*
X0175591Y0090824D01*
X0175591Y0091423D02*
X0172780Y0091423D01*
X0172780Y0092021D02*
X0175591Y0092021D01*
X0175591Y0092620D02*
X0172780Y0092620D01*
X0172320Y0093218D02*
X0175591Y0093218D01*
X0175591Y0093817D02*
X0171891Y0093817D01*
X0171891Y0094415D02*
X0175591Y0094415D01*
X0175591Y0095014D02*
X0171891Y0095014D01*
X0171891Y0095612D02*
X0175591Y0095612D01*
X0175591Y0096211D02*
X0171891Y0096211D01*
X0172419Y0096809D02*
X0175591Y0096809D01*
X0175591Y0097408D02*
X0172780Y0097408D01*
X0172780Y0098006D02*
X0175591Y0098006D01*
X0175591Y0098605D02*
X0172780Y0098605D01*
X0172561Y0099203D02*
X0175591Y0099203D01*
X0175591Y0099802D02*
X0171962Y0099802D01*
X0169220Y0099802D02*
X0164632Y0099802D01*
X0164034Y0099203D02*
X0168622Y0099203D01*
X0168402Y0098605D02*
X0163435Y0098605D01*
X0162837Y0098006D02*
X0168402Y0098006D01*
X0168402Y0097408D02*
X0162238Y0097408D01*
X0161640Y0096809D02*
X0168764Y0096809D01*
X0169291Y0096211D02*
X0161041Y0096211D01*
X0160443Y0095612D02*
X0169291Y0095612D01*
X0169291Y0095014D02*
X0159844Y0095014D01*
X0159246Y0094415D02*
X0169291Y0094415D01*
X0169291Y0093817D02*
X0158647Y0093817D01*
X0158049Y0093218D02*
X0168863Y0093218D01*
X0168402Y0092620D02*
X0157450Y0092620D01*
X0156852Y0092021D02*
X0168402Y0092021D01*
X0168402Y0091423D02*
X0156253Y0091423D01*
X0155655Y0090824D02*
X0168523Y0090824D01*
X0169121Y0090226D02*
X0155056Y0090226D01*
X0165231Y0100400D02*
X0175591Y0100400D01*
X0175591Y0100999D02*
X0165829Y0100999D01*
X0166428Y0101597D02*
X0175591Y0101597D01*
X0175591Y0102196D02*
X0167026Y0102196D01*
X0167625Y0102794D02*
X0175591Y0102794D01*
X0175591Y0103393D02*
X0168223Y0103393D01*
X0170079Y0103991D02*
X0174953Y0103991D01*
X0174354Y0104590D02*
X0170678Y0104590D01*
X0170812Y0105188D02*
X0174264Y0105188D01*
X0174264Y0105787D02*
X0170812Y0105787D01*
X0170812Y0106385D02*
X0174264Y0106385D01*
X0174754Y0106984D02*
X0170365Y0106984D01*
X0169767Y0107582D02*
X0175353Y0107582D01*
X0175258Y0108181D02*
X0140395Y0108181D01*
X0140395Y0108779D02*
X0174659Y0108779D01*
X0174061Y0109378D02*
X0140395Y0109378D01*
X0140395Y0109976D02*
X0173462Y0109976D01*
X0172864Y0110575D02*
X0140395Y0110575D01*
X0140395Y0111174D02*
X0172265Y0111174D01*
X0171667Y0111772D02*
X0140395Y0111772D01*
X0140395Y0112371D02*
X0171068Y0112371D01*
X0170470Y0112969D02*
X0140395Y0112969D01*
X0140395Y0113568D02*
X0169871Y0113568D01*
X0169273Y0114166D02*
X0140395Y0114166D01*
X0140395Y0114765D02*
X0168674Y0114765D01*
X0166818Y0115363D02*
X0140824Y0115363D01*
X0141422Y0115962D02*
X0166220Y0115962D01*
X0166040Y0116560D02*
X0142021Y0116560D01*
X0142619Y0117159D02*
X0166040Y0117159D01*
X0166040Y0117757D02*
X0143218Y0117757D01*
X0143816Y0118356D02*
X0166441Y0118356D01*
X0167040Y0118954D02*
X0144415Y0118954D01*
X0145013Y0119553D02*
X0224409Y0119553D01*
X0224409Y0120151D02*
X0145612Y0120151D01*
X0140395Y0107582D02*
X0167479Y0107582D01*
X0166880Y0106984D02*
X0140318Y0106984D01*
X0139720Y0106385D02*
X0166434Y0106385D01*
X0166434Y0105787D02*
X0139316Y0105787D01*
X0139316Y0105188D02*
X0166342Y0105188D01*
X0165744Y0104590D02*
X0139182Y0104590D01*
X0138583Y0103991D02*
X0165145Y0103991D01*
X0174745Y0112371D02*
X0224409Y0112371D01*
X0224409Y0112969D02*
X0174147Y0112969D01*
X0173548Y0113568D02*
X0224409Y0113568D01*
X0224409Y0114166D02*
X0172950Y0114166D01*
X0172351Y0114765D02*
X0224409Y0114765D01*
X0224409Y0115363D02*
X0171753Y0115363D01*
X0171154Y0115962D02*
X0224409Y0115962D01*
X0224409Y0116560D02*
X0170556Y0116560D01*
X0170418Y0117159D02*
X0224409Y0117159D01*
X0224409Y0117757D02*
X0170418Y0117757D01*
X0170017Y0118356D02*
X0224409Y0118356D01*
X0224409Y0118954D02*
X0169419Y0118954D01*
X0175344Y0111772D02*
X0224409Y0111772D01*
X0224409Y0111174D02*
X0175942Y0111174D01*
X0176541Y0110575D02*
X0224409Y0110575D01*
X0224409Y0109976D02*
X0177139Y0109976D01*
X0177738Y0109378D02*
X0224409Y0109378D01*
X0224409Y0108779D02*
X0178336Y0108779D01*
X0178935Y0108181D02*
X0224409Y0108181D01*
X0197850Y0107582D02*
X0185515Y0107582D01*
X0186113Y0106984D02*
X0197850Y0106984D01*
X0197850Y0106385D02*
X0186560Y0106385D01*
X0186560Y0105787D02*
X0197850Y0105787D01*
X0197850Y0105188D02*
X0186560Y0105188D01*
X0186426Y0104590D02*
X0197850Y0104590D01*
X0197850Y0103991D02*
X0185827Y0103991D01*
X0182915Y0103991D02*
X0178191Y0103991D01*
X0178191Y0103393D02*
X0197850Y0103393D01*
X0197850Y0102794D02*
X0178191Y0102794D01*
X0178191Y0102196D02*
X0197850Y0102196D01*
X0197850Y0101597D02*
X0178191Y0101597D01*
X0178191Y0100999D02*
X0197850Y0100999D01*
X0197850Y0100400D02*
X0178191Y0100400D01*
X0178191Y0099802D02*
X0197850Y0099802D01*
X0197850Y0099203D02*
X0178191Y0099203D01*
X0178191Y0098605D02*
X0197850Y0098605D01*
X0197850Y0098006D02*
X0178191Y0098006D01*
X0178191Y0097408D02*
X0197850Y0097408D01*
X0197850Y0096809D02*
X0178191Y0096809D01*
X0178191Y0096211D02*
X0197850Y0096211D01*
X0197850Y0095612D02*
X0178191Y0095612D01*
X0178191Y0095014D02*
X0197850Y0095014D01*
X0197850Y0094415D02*
X0178191Y0094415D01*
X0178191Y0093817D02*
X0197850Y0093817D01*
X0197850Y0093218D02*
X0178191Y0093218D01*
X0178191Y0092620D02*
X0197850Y0092620D01*
X0197850Y0092021D02*
X0178191Y0092021D01*
X0178191Y0091423D02*
X0197850Y0091423D01*
X0197850Y0090824D02*
X0178191Y0090824D01*
X0178191Y0090226D02*
X0197850Y0090226D01*
X0197850Y0089627D02*
X0178191Y0089627D01*
X0178191Y0089029D02*
X0197850Y0089029D01*
X0197850Y0088430D02*
X0177670Y0088430D01*
X0177072Y0087832D02*
X0197850Y0087832D01*
X0197850Y0087233D02*
X0176473Y0087233D01*
X0175875Y0086635D02*
X0197850Y0086635D01*
X0178849Y0104590D02*
X0178552Y0104590D01*
X0180132Y0106984D02*
X0182628Y0106984D01*
X0183227Y0107582D02*
X0179533Y0107582D01*
X0159456Y0137508D02*
X0224409Y0137508D01*
X0224409Y0138107D02*
X0160054Y0138107D01*
X0160653Y0138705D02*
X0223978Y0138705D01*
X0223380Y0139304D02*
X0161251Y0139304D01*
X0161850Y0139902D02*
X0222781Y0139902D01*
X0222183Y0140501D02*
X0162448Y0140501D01*
X0163047Y0141099D02*
X0221584Y0141099D01*
X0220986Y0141698D02*
X0163645Y0141698D01*
X0164244Y0142296D02*
X0220387Y0142296D01*
X0219789Y0142895D02*
X0164842Y0142895D01*
X0165441Y0143493D02*
X0219190Y0143493D01*
X0218592Y0144092D02*
X0166039Y0144092D01*
X0166638Y0144690D02*
X0217993Y0144690D01*
X0217395Y0145289D02*
X0167236Y0145289D01*
X0059225Y0100999D02*
X0045907Y0100999D01*
X0045907Y0100400D02*
X0058626Y0100400D01*
X0058028Y0099802D02*
X0045907Y0099802D01*
X0045907Y0099203D02*
X0057429Y0099203D01*
X0056831Y0098605D02*
X0045907Y0098605D01*
X0045907Y0098006D02*
X0056232Y0098006D01*
X0055634Y0097408D02*
X0045907Y0097408D01*
X0045907Y0096809D02*
X0055035Y0096809D01*
X0054436Y0096211D02*
X0045907Y0096211D01*
X0045907Y0095612D02*
X0053838Y0095612D01*
X0053239Y0095014D02*
X0045907Y0095014D01*
X0045907Y0094415D02*
X0052641Y0094415D01*
X0051351Y0093817D02*
X0045907Y0093817D01*
X0045907Y0093218D02*
X0050752Y0093218D01*
X0050292Y0092620D02*
X0045907Y0092620D01*
X0045907Y0092021D02*
X0050292Y0092021D01*
X0050292Y0091423D02*
X0045907Y0091423D01*
X0045907Y0090824D02*
X0050412Y0090824D01*
X0051011Y0090226D02*
X0045907Y0090226D01*
D14*
X0115473Y0062914D02*
X0123347Y0062914D01*
M02*
